G04*
G04 #@! TF.GenerationSoftware,Altium Limited,Altium Designer,22.9.1 (49)*
G04*
G04 Layer_Physical_Order=6*
G04 Layer_Color=13010237*
%FSLAX25Y25*%
%MOIN*%
G70*
G04*
G04 #@! TF.SameCoordinates,BD774D37-2A64-432E-85FC-E47F3F74055D*
G04*
G04*
G04 #@! TF.FilePolarity,Positive*
G04*
G01*
G75*
%ADD93C,0.01000*%
%ADD95C,0.04000*%
%ADD100C,0.02000*%
%ADD101C,0.01200*%
%ADD114C,0.02000*%
%ADD115C,0.00500*%
G36*
X230315Y257477D02*
X231762D01*
X234642Y257193D01*
X237481Y256628D01*
X240251Y255788D01*
X242925Y254680D01*
X245477Y253316D01*
X247884Y251708D01*
X250121Y249872D01*
X252167Y247826D01*
X254004Y245588D01*
X255611Y243182D01*
X256976Y240629D01*
X258083Y237955D01*
X258924Y235186D01*
X259488Y232347D01*
X259772Y229467D01*
X259772Y228020D01*
X259772Y-99150D01*
X243606D01*
X242826Y-99305D01*
X242165Y-99747D01*
X241722Y-100409D01*
X241567Y-101189D01*
Y-133402D01*
X238882D01*
X238102Y-133557D01*
X237440Y-133999D01*
X236998Y-134661D01*
X236843Y-135441D01*
Y-210500D01*
X236998Y-211280D01*
X237440Y-211942D01*
X238102Y-212384D01*
X238882Y-212539D01*
X259772D01*
X259772Y-228004D01*
Y-229451D01*
X259488Y-232331D01*
X258924Y-235170D01*
X258083Y-237940D01*
X256976Y-240614D01*
X255611Y-243166D01*
X254004Y-245573D01*
X252167Y-247810D01*
X250121Y-249856D01*
X247884Y-251693D01*
X245477Y-253300D01*
X242925Y-254665D01*
X240251Y-255772D01*
X237481Y-256613D01*
X234642Y-257177D01*
X231762Y-257461D01*
X230315Y-257461D01*
X146724D01*
Y-216193D01*
X146569Y-215413D01*
X146127Y-214751D01*
X145465Y-214309D01*
X144685Y-214154D01*
X109252D01*
X108472Y-214309D01*
X107810Y-214751D01*
X107368Y-215413D01*
X107213Y-216193D01*
Y-257461D01*
X-107213D01*
Y-216193D01*
X-107368Y-215413D01*
X-107810Y-214751D01*
X-108472Y-214309D01*
X-109252Y-214154D01*
X-144685D01*
X-145465Y-214309D01*
X-146127Y-214751D01*
X-146569Y-215413D01*
X-146724Y-216193D01*
Y-257461D01*
X-230315Y-257461D01*
X-231762D01*
X-234642Y-257177D01*
X-237481Y-256613D01*
X-240251Y-255772D01*
X-242925Y-254665D01*
X-245477Y-253300D01*
X-247884Y-251693D01*
X-250121Y-249856D01*
X-252167Y-247810D01*
X-254004Y-245573D01*
X-255611Y-243166D01*
X-256976Y-240614D01*
X-258083Y-237940D01*
X-258924Y-235170D01*
X-259488Y-232331D01*
X-259772Y-229451D01*
X-259772Y-228004D01*
X-259772Y228020D01*
Y229467D01*
X-259488Y232347D01*
X-258924Y235186D01*
X-258083Y237955D01*
X-256976Y240629D01*
X-255611Y243182D01*
X-254004Y245588D01*
X-252167Y247826D01*
X-250121Y249872D01*
X-247884Y251708D01*
X-245477Y253316D01*
X-242925Y254680D01*
X-240251Y255788D01*
X-237481Y256628D01*
X-234642Y257193D01*
X-231762Y257477D01*
X-230315Y257477D01*
X-171882Y257477D01*
Y235016D01*
X-171726Y234235D01*
X-171284Y233574D01*
X-170623Y233132D01*
X-169843Y232977D01*
X-99843D01*
X-99062Y233132D01*
X-98401Y233574D01*
X-97959Y234235D01*
X-97803Y235016D01*
Y251500D01*
Y257477D01*
X97803D01*
Y251500D01*
Y235016D01*
X97959Y234235D01*
X98401Y233574D01*
X99062Y233132D01*
X99843Y232977D01*
X169843D01*
X170623Y233132D01*
X171284Y233574D01*
X171726Y234235D01*
X171882Y235016D01*
Y257477D01*
X230315Y257477D01*
D02*
G37*
%LPC*%
G36*
X-236919Y239900D02*
X-237481D01*
X-238039Y239837D01*
X-238586Y239712D01*
X-239116Y239527D01*
X-239622Y239283D01*
X-240098Y238984D01*
X-240537Y238634D01*
X-240934Y238237D01*
X-241284Y237798D01*
X-241583Y237322D01*
X-241827Y236816D01*
X-242012Y236286D01*
X-242137Y235739D01*
X-242200Y235181D01*
Y234619D01*
X-242137Y234061D01*
X-242012Y233514D01*
X-241827Y232984D01*
X-241583Y232478D01*
X-241284Y232002D01*
X-240934Y231563D01*
X-240537Y231166D01*
X-240098Y230816D01*
X-239622Y230517D01*
X-239116Y230273D01*
X-238586Y230088D01*
X-238039Y229963D01*
X-237481Y229900D01*
X-236919D01*
X-236361Y229963D01*
X-235814Y230088D01*
X-235284Y230273D01*
X-234778Y230517D01*
X-234302Y230816D01*
X-233863Y231166D01*
X-233466Y231563D01*
X-233116Y232002D01*
X-232817Y232478D01*
X-232573Y232984D01*
X-232388Y233514D01*
X-232263Y234061D01*
X-232200Y234619D01*
Y235181D01*
X-232263Y235739D01*
X-232388Y236286D01*
X-232573Y236816D01*
X-232817Y237322D01*
X-233116Y237798D01*
X-233466Y238237D01*
X-233863Y238634D01*
X-234302Y238984D01*
X-234778Y239283D01*
X-235284Y239527D01*
X-235814Y239712D01*
X-236361Y239837D01*
X-236919Y239900D01*
D02*
G37*
G36*
X221800Y251500D02*
X177800D01*
Y227000D01*
X91900D01*
Y251500D01*
X-91900D01*
Y227000D01*
X-177800D01*
Y251500D01*
X-221800D01*
Y219500D01*
X-253800D01*
Y-219500D01*
X-221800D01*
Y-251500D01*
X-152700D01*
Y-208200D01*
X-101300D01*
Y-251500D01*
X101300D01*
Y-208200D01*
X152700D01*
Y-251500D01*
X221800D01*
Y-219500D01*
X230900D01*
Y-127500D01*
X235600D01*
Y-93200D01*
X253800D01*
Y219500D01*
X221800D01*
Y251500D01*
D02*
G37*
G36*
X237593Y243900D02*
X236807D01*
X236024Y243831D01*
X235250Y243695D01*
X234491Y243492D01*
X233753Y243223D01*
X233040Y242891D01*
X232360Y242498D01*
X231716Y242047D01*
X231114Y241542D01*
X230558Y240986D01*
X230053Y240384D01*
X229602Y239740D01*
X229209Y239060D01*
X228877Y238347D01*
X228608Y237609D01*
X228405Y236850D01*
X228269Y236076D01*
X228200Y235293D01*
Y234507D01*
X228269Y233724D01*
X228405Y232950D01*
X228608Y232191D01*
X228877Y231453D01*
X229209Y230740D01*
X229602Y230060D01*
X230053Y229416D01*
X230558Y228814D01*
X231114Y228258D01*
X231716Y227753D01*
X232360Y227302D01*
X233040Y226909D01*
X233753Y226577D01*
X234491Y226308D01*
X235250Y226105D01*
X236024Y225969D01*
X236807Y225900D01*
X237593D01*
X238376Y225969D01*
X239150Y226105D01*
X239909Y226308D01*
X240647Y226577D01*
X241360Y226909D01*
X242040Y227302D01*
X242684Y227753D01*
X243286Y228258D01*
X243842Y228814D01*
X244347Y229416D01*
X244798Y230060D01*
X245191Y230740D01*
X245523Y231453D01*
X245792Y232191D01*
X245995Y232950D01*
X246131Y233724D01*
X246200Y234507D01*
Y235293D01*
X246131Y236076D01*
X245995Y236850D01*
X245792Y237609D01*
X245523Y238347D01*
X245191Y239060D01*
X244798Y239740D01*
X244347Y240384D01*
X243842Y240986D01*
X243286Y241542D01*
X242684Y242047D01*
X242040Y242498D01*
X241360Y242891D01*
X240647Y243223D01*
X239909Y243492D01*
X239150Y243695D01*
X238376Y243831D01*
X237593Y243900D01*
D02*
G37*
G36*
X237481Y-229900D02*
X236919D01*
X236361Y-229963D01*
X235814Y-230088D01*
X235284Y-230273D01*
X234778Y-230517D01*
X234302Y-230816D01*
X233863Y-231166D01*
X233466Y-231563D01*
X233116Y-232002D01*
X232817Y-232478D01*
X232573Y-232984D01*
X232388Y-233514D01*
X232263Y-234061D01*
X232200Y-234619D01*
Y-235181D01*
X232263Y-235739D01*
X232388Y-236286D01*
X232573Y-236816D01*
X232817Y-237322D01*
X233116Y-237798D01*
X233466Y-238237D01*
X233863Y-238634D01*
X234302Y-238984D01*
X234778Y-239283D01*
X235284Y-239527D01*
X235814Y-239712D01*
X236361Y-239837D01*
X236919Y-239900D01*
X237481D01*
X238039Y-239837D01*
X238586Y-239712D01*
X239116Y-239527D01*
X239622Y-239283D01*
X240098Y-238984D01*
X240537Y-238634D01*
X240934Y-238237D01*
X241284Y-237798D01*
X241583Y-237322D01*
X241827Y-236816D01*
X242012Y-236286D01*
X242137Y-235739D01*
X242200Y-235181D01*
Y-234619D01*
X242137Y-234061D01*
X242012Y-233514D01*
X241827Y-232984D01*
X241583Y-232478D01*
X241284Y-232002D01*
X240934Y-231563D01*
X240537Y-231166D01*
X240098Y-230816D01*
X239622Y-230517D01*
X239116Y-230273D01*
X238586Y-230088D01*
X238039Y-229963D01*
X237481Y-229900D01*
D02*
G37*
G36*
X-236807Y-225900D02*
X-237593D01*
X-238376Y-225969D01*
X-239150Y-226105D01*
X-239909Y-226308D01*
X-240647Y-226577D01*
X-241360Y-226909D01*
X-242040Y-227302D01*
X-242684Y-227753D01*
X-243286Y-228258D01*
X-243842Y-228814D01*
X-244347Y-229416D01*
X-244798Y-230060D01*
X-245191Y-230740D01*
X-245523Y-231453D01*
X-245792Y-232191D01*
X-245995Y-232950D01*
X-246131Y-233724D01*
X-246200Y-234507D01*
Y-235293D01*
X-246131Y-236076D01*
X-245995Y-236850D01*
X-245792Y-237609D01*
X-245523Y-238347D01*
X-245191Y-239060D01*
X-244798Y-239740D01*
X-244347Y-240384D01*
X-243842Y-240986D01*
X-243286Y-241542D01*
X-242684Y-242047D01*
X-242040Y-242498D01*
X-241360Y-242891D01*
X-240647Y-243223D01*
X-239909Y-243492D01*
X-239150Y-243695D01*
X-238376Y-243831D01*
X-237593Y-243900D01*
X-236807D01*
X-236024Y-243831D01*
X-235250Y-243695D01*
X-234491Y-243492D01*
X-233753Y-243223D01*
X-233040Y-242891D01*
X-232360Y-242498D01*
X-231716Y-242047D01*
X-231114Y-241542D01*
X-230558Y-240986D01*
X-230053Y-240384D01*
X-229602Y-239740D01*
X-229209Y-239060D01*
X-228877Y-238347D01*
X-228608Y-237609D01*
X-228405Y-236850D01*
X-228269Y-236076D01*
X-228200Y-235293D01*
Y-234507D01*
X-228269Y-233724D01*
X-228405Y-232950D01*
X-228608Y-232191D01*
X-228877Y-231453D01*
X-229209Y-230740D01*
X-229602Y-230060D01*
X-230053Y-229416D01*
X-230558Y-228814D01*
X-231114Y-228258D01*
X-231716Y-227753D01*
X-232360Y-227302D01*
X-233040Y-226909D01*
X-233753Y-226577D01*
X-234491Y-226308D01*
X-235250Y-226105D01*
X-236024Y-225969D01*
X-236807Y-225900D01*
D02*
G37*
%LPD*%
G36*
X-179500Y241500D02*
X-232000Y189000D01*
Y182000D01*
X-206500Y156500D01*
X-206500Y110000D01*
X-135500Y39000D01*
X-101000D01*
Y27000D01*
X-84000D01*
Y-11621D01*
X-84208Y-11792D01*
X-84420Y-12051D01*
X-84578Y-12346D01*
X-84675Y-12667D01*
X-84708Y-13000D01*
X-84675Y-13333D01*
X-84578Y-13654D01*
X-84420Y-13949D01*
X-84208Y-14208D01*
X-84000Y-14378D01*
Y-59622D01*
X-84208Y-59792D01*
X-84420Y-60051D01*
X-84578Y-60346D01*
X-84675Y-60667D01*
X-84708Y-61000D01*
X-84675Y-61333D01*
X-84578Y-61654D01*
X-84420Y-61949D01*
X-84208Y-62208D01*
X-84000Y-62379D01*
Y-75000D01*
X-101000D01*
Y-34500D01*
X-122250Y-13250D01*
X-162000Y-53000D01*
Y-165000D01*
X-169000Y-172000D01*
Y-189500D01*
X-164500Y-194000D01*
X-159000Y-194000D01*
X-132000Y-167000D01*
X-58000Y-167000D01*
X-21000Y-204000D01*
X-21000Y-218500D01*
X-31000D01*
Y-209500D01*
X-62500Y-178000D01*
X-126000D01*
X-151000Y-203000D01*
X-178000Y-203000D01*
X-191500Y-189500D01*
Y-163500D01*
X-183000Y-155000D01*
Y-39000D01*
X-139750Y4250D01*
X-147000Y11500D01*
X-220000D01*
Y4378D01*
X-220208Y4208D01*
X-220420Y3949D01*
X-220578Y3654D01*
X-220675Y3333D01*
X-220708Y3000D01*
X-220675Y2667D01*
X-220578Y2346D01*
X-220420Y2051D01*
X-220208Y1792D01*
X-220000Y1622D01*
X-220000Y-1622D01*
X-220208Y-1792D01*
X-220420Y-2051D01*
X-220578Y-2346D01*
X-220675Y-2667D01*
X-220708Y-3000D01*
X-220675Y-3333D01*
X-220578Y-3654D01*
X-220420Y-3949D01*
X-220208Y-4208D01*
X-220000Y-4378D01*
Y-9000D01*
X-234000D01*
Y39000D01*
X-169843D01*
Y46843D01*
X-223000Y100000D01*
Y151492D01*
X-247000Y175491D01*
X-247000Y192000D01*
X-189000Y250000D01*
X-179500D01*
Y241500D01*
D02*
G37*
%LPC*%
G36*
X-221000Y29708D02*
X-221333Y29675D01*
X-221654Y29578D01*
X-221949Y29420D01*
X-222208Y29208D01*
X-222420Y28949D01*
X-222578Y28654D01*
X-222675Y28333D01*
X-222708Y28000D01*
X-222675Y27667D01*
X-222578Y27346D01*
X-222420Y27051D01*
X-222208Y26792D01*
X-221949Y26580D01*
X-221654Y26422D01*
X-221333Y26325D01*
X-221000Y26292D01*
X-220667Y26325D01*
X-220346Y26422D01*
X-220051Y26580D01*
X-219792Y26792D01*
X-219580Y27051D01*
X-219422Y27346D01*
X-219325Y27667D01*
X-219292Y28000D01*
X-219325Y28333D01*
X-219422Y28654D01*
X-219580Y28949D01*
X-219792Y29208D01*
X-220051Y29420D01*
X-220346Y29578D01*
X-220667Y29675D01*
X-221000Y29708D01*
D02*
G37*
G36*
X-217315Y20708D02*
X-217648Y20675D01*
X-217969Y20578D01*
X-218264Y20420D01*
X-218523Y20208D01*
X-218735Y19949D01*
X-218893Y19654D01*
X-218990Y19333D01*
X-219023Y19000D01*
X-218990Y18667D01*
X-218893Y18346D01*
X-218735Y18051D01*
X-218523Y17792D01*
X-218264Y17580D01*
X-217969Y17422D01*
X-217648Y17325D01*
X-217315Y17292D01*
X-216982Y17325D01*
X-216661Y17422D01*
X-216366Y17580D01*
X-216107Y17792D01*
X-215895Y18051D01*
X-215737Y18346D01*
X-215640Y18667D01*
X-215607Y19000D01*
X-215640Y19333D01*
X-215737Y19654D01*
X-215895Y19949D01*
X-216107Y20208D01*
X-216366Y20420D01*
X-216661Y20578D01*
X-216982Y20675D01*
X-217315Y20708D01*
D02*
G37*
G36*
X-226000Y19008D02*
X-226392Y18977D01*
X-226775Y18885D01*
X-227138Y18734D01*
X-227474Y18529D01*
X-227773Y18273D01*
X-228029Y17974D01*
X-228234Y17639D01*
X-228385Y17275D01*
X-228477Y16892D01*
X-228508Y16500D01*
X-228477Y16108D01*
X-228385Y15725D01*
X-228234Y15361D01*
X-228029Y15026D01*
X-227773Y14727D01*
X-227474Y14471D01*
X-227138Y14266D01*
X-226775Y14115D01*
X-226392Y14023D01*
X-226000Y13992D01*
X-225608Y14023D01*
X-225225Y14115D01*
X-224862Y14266D01*
X-224526Y14471D01*
X-224227Y14727D01*
X-223971Y15026D01*
X-223766Y15361D01*
X-223615Y15725D01*
X-223523Y16108D01*
X-223492Y16500D01*
X-223523Y16892D01*
X-223615Y17275D01*
X-223766Y17639D01*
X-223971Y17974D01*
X-224227Y18273D01*
X-224526Y18529D01*
X-224862Y18734D01*
X-225225Y18885D01*
X-225608Y18977D01*
X-226000Y19008D01*
D02*
G37*
G36*
X-117000Y-4492D02*
X-117392Y-4523D01*
X-117775Y-4615D01*
X-118139Y-4766D01*
X-118474Y-4971D01*
X-118773Y-5227D01*
X-119029Y-5526D01*
X-119234Y-5861D01*
X-119385Y-6225D01*
X-119477Y-6608D01*
X-119508Y-7000D01*
X-119477Y-7392D01*
X-119385Y-7775D01*
X-119234Y-8139D01*
X-119029Y-8474D01*
X-118773Y-8773D01*
X-118474Y-9029D01*
X-118139Y-9234D01*
X-117775Y-9385D01*
X-117392Y-9477D01*
X-117000Y-9508D01*
X-116608Y-9477D01*
X-116225Y-9385D01*
X-115861Y-9234D01*
X-115526Y-9029D01*
X-115227Y-8773D01*
X-114971Y-8474D01*
X-114766Y-8139D01*
X-114615Y-7775D01*
X-114523Y-7392D01*
X-114492Y-7000D01*
X-114523Y-6608D01*
X-114615Y-6225D01*
X-114766Y-5861D01*
X-114971Y-5526D01*
X-115227Y-5227D01*
X-115526Y-4971D01*
X-115861Y-4766D01*
X-116225Y-4615D01*
X-116608Y-4523D01*
X-117000Y-4492D01*
D02*
G37*
G36*
X-123000D02*
X-123392Y-4523D01*
X-123775Y-4615D01*
X-124138Y-4766D01*
X-124474Y-4971D01*
X-124773Y-5227D01*
X-125029Y-5526D01*
X-125234Y-5861D01*
X-125385Y-6225D01*
X-125477Y-6608D01*
X-125508Y-7000D01*
X-125477Y-7392D01*
X-125385Y-7775D01*
X-125234Y-8139D01*
X-125029Y-8474D01*
X-124773Y-8773D01*
X-124474Y-9029D01*
X-124138Y-9234D01*
X-123775Y-9385D01*
X-123392Y-9477D01*
X-123000Y-9508D01*
X-122608Y-9477D01*
X-122225Y-9385D01*
X-121862Y-9234D01*
X-121526Y-9029D01*
X-121227Y-8773D01*
X-120971Y-8474D01*
X-120766Y-8139D01*
X-120615Y-7775D01*
X-120523Y-7392D01*
X-120492Y-7000D01*
X-120523Y-6608D01*
X-120615Y-6225D01*
X-120766Y-5861D01*
X-120971Y-5526D01*
X-121227Y-5227D01*
X-121526Y-4971D01*
X-121862Y-4766D01*
X-122225Y-4615D01*
X-122608Y-4523D01*
X-123000Y-4492D01*
D02*
G37*
G36*
X-170000Y-103292D02*
X-170333Y-103325D01*
X-170654Y-103422D01*
X-170949Y-103580D01*
X-171208Y-103792D01*
X-171420Y-104051D01*
X-171578Y-104346D01*
X-171675Y-104667D01*
X-171708Y-105000D01*
X-171675Y-105333D01*
X-171578Y-105654D01*
X-171420Y-105949D01*
X-171208Y-106208D01*
X-170949Y-106420D01*
X-170654Y-106578D01*
X-170333Y-106675D01*
X-170000Y-106708D01*
X-169667Y-106675D01*
X-169346Y-106578D01*
X-169051Y-106420D01*
X-168792Y-106208D01*
X-168580Y-105949D01*
X-168422Y-105654D01*
X-168325Y-105333D01*
X-168292Y-105000D01*
X-168325Y-104667D01*
X-168422Y-104346D01*
X-168580Y-104051D01*
X-168792Y-103792D01*
X-169051Y-103580D01*
X-169346Y-103422D01*
X-169667Y-103325D01*
X-170000Y-103292D01*
D02*
G37*
G36*
Y-118292D02*
X-170333Y-118325D01*
X-170654Y-118422D01*
X-170949Y-118580D01*
X-171208Y-118792D01*
X-171420Y-119051D01*
X-171578Y-119346D01*
X-171675Y-119667D01*
X-171708Y-120000D01*
X-171675Y-120333D01*
X-171578Y-120654D01*
X-171420Y-120949D01*
X-171208Y-121208D01*
X-170949Y-121420D01*
X-170654Y-121578D01*
X-170333Y-121675D01*
X-170000Y-121708D01*
X-169667Y-121675D01*
X-169346Y-121578D01*
X-169051Y-121420D01*
X-168792Y-121208D01*
X-168580Y-120949D01*
X-168422Y-120654D01*
X-168325Y-120333D01*
X-168292Y-120000D01*
X-168325Y-119667D01*
X-168422Y-119346D01*
X-168580Y-119051D01*
X-168792Y-118792D01*
X-169051Y-118580D01*
X-169346Y-118422D01*
X-169667Y-118325D01*
X-170000Y-118292D01*
D02*
G37*
G36*
X-185000Y-173047D02*
X-185392Y-173078D01*
X-185775Y-173170D01*
X-186138Y-173321D01*
X-186474Y-173526D01*
X-186773Y-173782D01*
X-187029Y-174081D01*
X-187234Y-174417D01*
X-187385Y-174780D01*
X-187477Y-175163D01*
X-187508Y-175555D01*
X-187477Y-175947D01*
X-187385Y-176330D01*
X-187234Y-176694D01*
X-187029Y-177029D01*
X-186773Y-177328D01*
X-186474Y-177584D01*
X-186138Y-177789D01*
X-185775Y-177940D01*
X-185392Y-178032D01*
X-185000Y-178063D01*
X-184608Y-178032D01*
X-184225Y-177940D01*
X-183861Y-177789D01*
X-183526Y-177584D01*
X-183227Y-177328D01*
X-182971Y-177029D01*
X-182766Y-176694D01*
X-182615Y-176330D01*
X-182523Y-175947D01*
X-182492Y-175555D01*
X-182523Y-175163D01*
X-182615Y-174780D01*
X-182766Y-174417D01*
X-182971Y-174081D01*
X-183227Y-173782D01*
X-183526Y-173526D01*
X-183861Y-173321D01*
X-184225Y-173170D01*
X-184608Y-173078D01*
X-185000Y-173047D01*
D02*
G37*
G36*
X-174000Y-193492D02*
X-174392Y-193523D01*
X-174775Y-193615D01*
X-175138Y-193766D01*
X-175474Y-193971D01*
X-175773Y-194227D01*
X-176029Y-194526D01*
X-176234Y-194861D01*
X-176385Y-195225D01*
X-176477Y-195608D01*
X-176508Y-196000D01*
X-176477Y-196392D01*
X-176385Y-196775D01*
X-176234Y-197139D01*
X-176029Y-197474D01*
X-175773Y-197773D01*
X-175474Y-198029D01*
X-175138Y-198234D01*
X-174775Y-198385D01*
X-174392Y-198477D01*
X-174000Y-198508D01*
X-173608Y-198477D01*
X-173225Y-198385D01*
X-172862Y-198234D01*
X-172526Y-198029D01*
X-172227Y-197773D01*
X-171971Y-197474D01*
X-171766Y-197139D01*
X-171615Y-196775D01*
X-171523Y-196392D01*
X-171492Y-196000D01*
X-171523Y-195608D01*
X-171615Y-195225D01*
X-171766Y-194861D01*
X-171971Y-194526D01*
X-172227Y-194227D01*
X-172526Y-193971D01*
X-172862Y-193766D01*
X-173225Y-193615D01*
X-173608Y-193523D01*
X-174000Y-193492D01*
D02*
G37*
%LPD*%
D93*
X73332Y246998D02*
X71666Y246165D01*
X70000Y244499D01*
Y242833D01*
X70833Y242000D01*
X72499D01*
X73332Y242833D01*
Y243666D01*
X72499Y244499D01*
X70000D01*
D95*
X13500Y60500D02*
D03*
X-57500D02*
D03*
X-26000Y-215000D02*
D03*
X-120000Y29000D02*
D03*
X-115000D02*
D03*
X-110000D02*
D03*
Y34000D02*
D03*
X-115000D02*
D03*
X-120000D02*
D03*
X-229000Y-4500D02*
D03*
X232969Y-152000D02*
D03*
X237709Y-108000D02*
D03*
X-185000Y-182445D02*
D03*
X-223996Y-4500D02*
D03*
X-183000Y246756D02*
D03*
X-87500Y20000D02*
D03*
Y-70000D02*
D03*
X-92500D02*
D03*
Y20000D02*
D03*
D100*
X32000Y77000D02*
X36500Y81500D01*
X50100D01*
X18772Y77000D02*
X32000D01*
X14272Y81500D02*
X18772Y77000D01*
X-39000D02*
X-34500Y81500D01*
X-20900D01*
X-52228Y77000D02*
X-39000D01*
X-56728Y81500D02*
X-52228Y77000D01*
X13500Y60500D02*
X38500D01*
X-57500D02*
X-32500D01*
X55000Y77000D02*
Y107000D01*
X38500Y60500D02*
X55000Y77000D01*
X-32500Y60500D02*
X-16000Y77000D01*
Y107000D01*
D101*
X-100800Y174000D02*
X-69000D01*
X-105000Y169800D02*
X-100800Y174000D01*
X-105000Y130000D02*
X-72000Y163000D01*
Y171000D01*
D114*
X45000Y-217500D02*
D03*
X-80614Y-254500D02*
D03*
X-86586D02*
D03*
X-92557D02*
D03*
X-98529D02*
D03*
X-50757D02*
D03*
X-56729D02*
D03*
X-62700D02*
D03*
X-68672D02*
D03*
X-74643D02*
D03*
X-20900D02*
D03*
X-26871D02*
D03*
X-32843D02*
D03*
X-38814D02*
D03*
X-44786D02*
D03*
X8957D02*
D03*
X2986D02*
D03*
X-2986D02*
D03*
X-8957D02*
D03*
X-14929D02*
D03*
X38814D02*
D03*
X32843D02*
D03*
X26871D02*
D03*
X20900D02*
D03*
X14928D02*
D03*
X68671D02*
D03*
X62700D02*
D03*
X56728D02*
D03*
X50757D02*
D03*
X44785D02*
D03*
X98528D02*
D03*
X92557D02*
D03*
X86585D02*
D03*
X80614D02*
D03*
X74643D02*
D03*
X-89062Y254500D02*
D03*
X-59375D02*
D03*
X-65312D02*
D03*
X-71250D02*
D03*
X-77188D02*
D03*
X-83125D02*
D03*
X-29688D02*
D03*
X-35625D02*
D03*
X-41563D02*
D03*
X-47500D02*
D03*
X-53438D02*
D03*
X0D02*
D03*
X-5937D02*
D03*
X-11875D02*
D03*
X-17812D02*
D03*
X-23750D02*
D03*
X29688D02*
D03*
X23750D02*
D03*
X17812D02*
D03*
X11875D02*
D03*
X5937D02*
D03*
X59375D02*
D03*
X53438D02*
D03*
X47500D02*
D03*
X41563D02*
D03*
X35625D02*
D03*
X65312D02*
D03*
X71250D02*
D03*
X77188D02*
D03*
X83125D02*
D03*
X89062D02*
D03*
X-256800Y-216569D02*
D03*
Y-210539D02*
D03*
Y-204508D02*
D03*
Y-198477D02*
D03*
Y-138171D02*
D03*
Y-144201D02*
D03*
Y-150232D02*
D03*
Y-156263D02*
D03*
Y-162293D02*
D03*
Y-168324D02*
D03*
Y-174355D02*
D03*
Y-180385D02*
D03*
Y-186416D02*
D03*
Y-192447D02*
D03*
Y-77864D02*
D03*
Y-83895D02*
D03*
Y-89925D02*
D03*
Y-95956D02*
D03*
Y-101987D02*
D03*
Y-108018D02*
D03*
Y-114048D02*
D03*
Y-120079D02*
D03*
Y-126109D02*
D03*
Y-132140D02*
D03*
Y-17558D02*
D03*
Y-23588D02*
D03*
Y-29619D02*
D03*
Y-35649D02*
D03*
Y-41680D02*
D03*
Y-47711D02*
D03*
Y-53742D02*
D03*
Y-59772D02*
D03*
Y-65803D02*
D03*
Y-71833D02*
D03*
Y42749D02*
D03*
Y36718D02*
D03*
Y30688D02*
D03*
Y24657D02*
D03*
Y18626D02*
D03*
Y12596D02*
D03*
Y6565D02*
D03*
Y534D02*
D03*
Y-5496D02*
D03*
Y-11527D02*
D03*
Y103056D02*
D03*
Y97025D02*
D03*
Y90994D02*
D03*
Y84964D02*
D03*
Y78933D02*
D03*
Y72902D02*
D03*
Y66872D02*
D03*
Y60841D02*
D03*
Y54810D02*
D03*
Y48780D02*
D03*
Y163362D02*
D03*
Y157332D02*
D03*
Y151301D02*
D03*
Y145270D02*
D03*
Y139240D02*
D03*
Y133209D02*
D03*
Y127178D02*
D03*
Y121148D02*
D03*
Y115117D02*
D03*
Y109086D02*
D03*
Y169393D02*
D03*
Y175424D02*
D03*
Y181454D02*
D03*
Y187485D02*
D03*
Y193516D02*
D03*
Y199546D02*
D03*
Y205577D02*
D03*
Y211608D02*
D03*
Y217638D02*
D03*
Y223669D02*
D03*
X-95000Y230000D02*
D03*
X-175000D02*
D03*
X-175000Y254500D02*
D03*
X-232000D02*
D03*
X-256800Y229699D02*
D03*
Y-229700D02*
D03*
X-232000Y-254500D02*
D03*
X-149500D02*
D03*
X-149500Y-211500D02*
D03*
X-104500Y-211500D02*
D03*
Y-254500D02*
D03*
X-95000Y248375D02*
D03*
Y236125D02*
D03*
Y242250D02*
D03*
X-168846Y230000D02*
D03*
X-162692D02*
D03*
X-156538D02*
D03*
X-150385D02*
D03*
X-144231D02*
D03*
X-138077D02*
D03*
X-131923D02*
D03*
X-125769D02*
D03*
X-119615D02*
D03*
X-113461D02*
D03*
X-107308D02*
D03*
X-101154D02*
D03*
X-175000Y248375D02*
D03*
Y242250D02*
D03*
Y236125D02*
D03*
X-225667Y254500D02*
D03*
X-219333D02*
D03*
X-213000D02*
D03*
X-206667D02*
D03*
X-200333D02*
D03*
X-194000D02*
D03*
X-187667D02*
D03*
X-181333D02*
D03*
X-256800Y-222600D02*
D03*
X-226107Y-254500D02*
D03*
X-220214D02*
D03*
X-214321D02*
D03*
X-208429D02*
D03*
X-202536D02*
D03*
X-196643D02*
D03*
X-190750D02*
D03*
X-184857D02*
D03*
X-178964D02*
D03*
X-173071D02*
D03*
X-167178D02*
D03*
X-161286D02*
D03*
X-155393D02*
D03*
X-149500Y-248357D02*
D03*
Y-242214D02*
D03*
Y-236071D02*
D03*
Y-229929D02*
D03*
Y-223786D02*
D03*
Y-217643D02*
D03*
X-143071Y-211500D02*
D03*
X-136643Y-211500D02*
D03*
X-130214D02*
D03*
X-123786D02*
D03*
X-117357D02*
D03*
X-110929D02*
D03*
X-255300Y235800D02*
D03*
X-252700Y241542D02*
D03*
X-248700Y246400D02*
D03*
X-243842Y250400D02*
D03*
X-238100Y253000D02*
D03*
Y-253000D02*
D03*
X-243842Y-250400D02*
D03*
X-248700Y-246400D02*
D03*
X-252700Y-241542D02*
D03*
X-255300Y-235800D02*
D03*
X-104500Y-217643D02*
D03*
Y-223786D02*
D03*
Y-229928D02*
D03*
Y-236071D02*
D03*
Y-242214D02*
D03*
Y-248357D02*
D03*
X104500D02*
D03*
Y-242214D02*
D03*
Y-236071D02*
D03*
Y-229928D02*
D03*
Y-223786D02*
D03*
Y-217643D02*
D03*
X255300Y-235800D02*
D03*
X252700Y-241542D02*
D03*
X248700Y-246400D02*
D03*
X243842Y-250400D02*
D03*
X238100Y-253000D02*
D03*
Y253000D02*
D03*
X243842Y250400D02*
D03*
X248700Y246400D02*
D03*
X252700Y241542D02*
D03*
X255300Y235800D02*
D03*
X110929Y-211500D02*
D03*
X117357D02*
D03*
X123786D02*
D03*
X130214D02*
D03*
X136643D02*
D03*
X143071Y-211500D02*
D03*
X149500Y-217643D02*
D03*
Y-223786D02*
D03*
Y-229929D02*
D03*
Y-236071D02*
D03*
Y-242214D02*
D03*
Y-248357D02*
D03*
X155393Y-254500D02*
D03*
X161286D02*
D03*
X167178D02*
D03*
X173071D02*
D03*
X178964D02*
D03*
X184857D02*
D03*
X190750D02*
D03*
X196643D02*
D03*
X202536D02*
D03*
X208429D02*
D03*
X214321D02*
D03*
X220214D02*
D03*
X226107D02*
D03*
X256800Y-222600D02*
D03*
X239700Y-215500D02*
D03*
X245400D02*
D03*
X251100D02*
D03*
X234000Y-136572D02*
D03*
Y-142643D02*
D03*
Y-166929D02*
D03*
Y-173000D02*
D03*
Y-179071D02*
D03*
Y-185143D02*
D03*
Y-191214D02*
D03*
Y-197286D02*
D03*
Y-203357D02*
D03*
Y-209429D02*
D03*
X238500Y-119500D02*
D03*
Y-125000D02*
D03*
Y-114000D02*
D03*
X244600Y-96000D02*
D03*
X250700D02*
D03*
X256800Y223668D02*
D03*
Y217637D02*
D03*
Y211606D02*
D03*
Y151291D02*
D03*
Y157322D02*
D03*
Y163354D02*
D03*
Y169385D02*
D03*
Y175417D02*
D03*
Y181448D02*
D03*
Y187480D02*
D03*
Y193511D02*
D03*
Y199542D02*
D03*
Y205574D02*
D03*
Y90976D02*
D03*
Y97007D02*
D03*
Y103039D02*
D03*
Y109070D02*
D03*
Y115102D02*
D03*
Y121133D02*
D03*
Y127165D02*
D03*
Y133196D02*
D03*
Y139228D02*
D03*
Y145259D02*
D03*
Y30661D02*
D03*
Y36693D02*
D03*
Y42724D02*
D03*
Y48755D02*
D03*
Y54787D02*
D03*
Y60818D02*
D03*
Y66850D02*
D03*
Y72881D02*
D03*
Y78913D02*
D03*
Y84944D02*
D03*
Y-29654D02*
D03*
Y-23622D02*
D03*
Y-17591D02*
D03*
Y-11559D02*
D03*
Y-5528D02*
D03*
Y504D02*
D03*
Y6535D02*
D03*
Y12567D02*
D03*
Y18598D02*
D03*
Y24630D02*
D03*
Y-35685D02*
D03*
Y-41717D02*
D03*
Y-47748D02*
D03*
Y-53780D02*
D03*
Y-59811D02*
D03*
Y-65843D02*
D03*
Y-71874D02*
D03*
Y-77906D02*
D03*
Y-83937D02*
D03*
Y-89969D02*
D03*
X181333Y254500D02*
D03*
X187667D02*
D03*
X194000D02*
D03*
X200333D02*
D03*
X206667D02*
D03*
X213000D02*
D03*
X219333D02*
D03*
X225667D02*
D03*
X175000Y236125D02*
D03*
Y242250D02*
D03*
Y248375D02*
D03*
X101154Y230000D02*
D03*
X107308D02*
D03*
X113461D02*
D03*
X119615D02*
D03*
X125769D02*
D03*
X131923D02*
D03*
X138077D02*
D03*
X144231D02*
D03*
X150385D02*
D03*
X156538D02*
D03*
X162692D02*
D03*
X168846D02*
D03*
X95000Y242250D02*
D03*
Y236125D02*
D03*
Y248375D02*
D03*
X104500Y-254500D02*
D03*
X104500Y-211500D02*
D03*
X149500Y-211500D02*
D03*
X149500Y-254500D02*
D03*
X232000D02*
D03*
X256800Y-229700D02*
D03*
Y-215500D02*
D03*
X234000D02*
D03*
Y-130500D02*
D03*
X238500Y-130500D02*
D03*
Y-96000D02*
D03*
X256800D02*
D03*
Y229700D02*
D03*
X232000Y254500D02*
D03*
X175000D02*
D03*
X175000Y230000D02*
D03*
X95000D02*
D03*
Y254500D02*
D03*
X-95000D02*
D03*
X-208500Y183000D02*
D03*
X-247000Y62500D02*
D03*
X35500Y-19000D02*
D03*
X34000Y-52000D02*
D03*
X27500Y20000D02*
D03*
X8500Y-70500D02*
D03*
X43500Y-85500D02*
D03*
X-69000Y174000D02*
D03*
X-62000Y-16500D02*
D03*
X-45000Y-46500D02*
D03*
X-49000Y-42500D02*
D03*
X-68000Y16000D02*
D03*
X-46500Y-64500D02*
D03*
X-41000Y-79500D02*
D03*
X55000Y-88500D02*
D03*
X43500Y-94000D02*
D03*
X37000Y-66500D02*
D03*
Y-60500D02*
D03*
X-42000Y0D02*
D03*
X-46000D02*
D03*
X-163000Y-190685D02*
D03*
X-193000Y9000D02*
D03*
X-72000Y171000D02*
D03*
X-105000Y169800D02*
D03*
Y130000D02*
D03*
X-204000Y158000D02*
D03*
Y162949D02*
D03*
X-175700Y103000D02*
D03*
X-180600D02*
D03*
X-185654D02*
D03*
X90051Y-218000D02*
D03*
X-226000Y188949D02*
D03*
X-175000D02*
D03*
X-204000Y169051D02*
D03*
X46000Y-133000D02*
D03*
X50000Y-137000D02*
D03*
X2000Y-159000D02*
D03*
X-20900Y81500D02*
D03*
X-56728D02*
D03*
X-16000Y107000D02*
D03*
X55000D02*
D03*
X50100Y81500D02*
D03*
X14272D02*
D03*
D115*
X-217500Y-166500D02*
Y-72000D01*
X-193000Y-47500D02*
Y9000D01*
X-217500Y-72000D02*
X-193000Y-47500D01*
X-217500Y-166500D02*
X-179000Y-205000D01*
X-219000Y-167500D02*
X-180000Y-206500D01*
X-247000Y-44039D02*
X-219000Y-72039D01*
Y-167500D02*
Y-72039D01*
X-139500Y-137500D02*
X-74500Y-72500D01*
X-139500Y-167185D02*
Y-137500D01*
X-163000Y-190685D02*
X-139500Y-167185D01*
X40000Y-102787D02*
X67500Y-130288D01*
Y-190500D02*
X90051Y-213051D01*
X67500Y-190500D02*
Y-130288D01*
X38300Y-103492D02*
X66000Y-131192D01*
Y-190500D02*
Y-131192D01*
X45000Y-211500D02*
X66000Y-190500D01*
X45000Y-217500D02*
Y-211500D01*
X90051Y-218000D02*
Y-213051D01*
X-208500Y183000D02*
Y192000D01*
X-181800Y218700D02*
X-296D01*
X-226000Y188949D02*
Y192000D01*
X-175000Y188949D02*
Y192000D01*
X-149500Y217500D01*
X-208500Y192000D02*
X-181800Y218700D01*
X-198000Y220000D02*
X808D01*
X-226000Y192000D02*
X-198000Y220000D01*
X-149500Y217500D02*
X-1500D01*
X-185654Y103000D02*
X-150654Y68000D01*
X-120000D02*
X-95500Y43500D01*
X-150654Y68000D02*
X-120000D01*
X-119000Y70000D02*
X-94500Y45500D01*
X-147600Y70000D02*
X-119000D01*
X-180600Y103000D02*
X-147600Y70000D01*
X-118000Y72000D02*
X-93500Y47500D01*
X-144700Y72000D02*
X-118000D01*
X-175700Y103000D02*
X-144700Y72000D01*
X-93500Y47500D02*
X-76500D01*
X-94500Y45500D02*
X-77500D01*
X-95500Y43500D02*
X-78500D01*
X-67500Y32500D01*
X-77500Y45500D02*
X-65500Y33500D01*
X-76500Y47500D02*
X-63500Y34500D01*
Y24500D02*
Y34500D01*
X-67500Y22500D02*
Y32500D01*
X-65500Y23500D02*
Y33500D01*
X-67500Y22500D02*
X-55000Y10000D01*
X-63500Y24500D02*
X-51000Y12000D01*
X-55000Y-55812D02*
Y10000D01*
X-51000Y-4000D02*
Y12000D01*
Y-4000D02*
X-17500Y-37500D01*
X-53000Y-54750D02*
Y11000D01*
X-65500Y23500D02*
X-53000Y11000D01*
Y-54750D02*
X-44000Y-63750D01*
X-62700Y210000D02*
X-6300Y153600D01*
Y76700D02*
Y153600D01*
X-144500Y210000D02*
X-62700D01*
X-63000Y208500D02*
X-7500Y153000D01*
Y77500D02*
Y153000D01*
X-143500Y208500D02*
X-63000D01*
X-44500Y6500D02*
Y38500D01*
X-6300Y76700D01*
X-46000Y39000D02*
X-7500Y77500D01*
X-46000Y0D02*
Y39000D01*
X2000Y-159000D02*
Y-153500D01*
X-46000Y-125500D02*
X-26000D01*
X2000Y-153500D01*
X-72460Y-99041D02*
X-46000Y-125500D01*
X-72460Y-99041D02*
Y-22459D01*
X-74500Y-72500D02*
Y9500D01*
X27500Y20000D02*
X34500D01*
X44500Y10000D01*
Y-79000D02*
Y10000D01*
X-204000Y162949D02*
X-191551D01*
X-204000Y169051D02*
X-187949D01*
X-194000Y158000D02*
X-143500Y208500D01*
X-204000Y158000D02*
X-194000D01*
X-191551Y162949D02*
X-144500Y210000D01*
X-145500Y211500D02*
X-62303D01*
X-187949Y169051D02*
X-145500Y211500D01*
X-5100Y14600D02*
X2500Y7000D01*
X-5100Y14600D02*
Y154297D01*
X2500Y-64500D02*
Y7000D01*
X38300Y-82200D02*
X42000Y-78500D01*
X38300Y-103492D02*
Y-82200D01*
X42000Y-78500D02*
Y-60000D01*
X34000Y-52000D02*
X42000Y-60000D01*
X40000Y-83500D02*
X44500Y-79000D01*
X40000Y-102787D02*
Y-83500D01*
X-148500Y-206500D02*
X-137500Y-195500D01*
X-180000Y-206500D02*
X-148500D01*
X-149804Y-205000D02*
X-138804Y-194000D01*
X-179000Y-205000D02*
X-149804D01*
X-247000Y-44039D02*
Y62500D01*
X-137500Y-195500D02*
X-94500D01*
X-68500Y-221500D01*
X-138804Y-194000D02*
X-93500D01*
X-67500Y-220000D01*
X-13000D01*
X-68500Y-221500D02*
X-12000D01*
X15300Y-194200D01*
X36300D02*
X58500Y-172000D01*
X35803Y-192500D02*
X57000Y-171303D01*
X14500Y-192500D02*
X35803D01*
X15300Y-194200D02*
X36300D01*
X-13000Y-220000D02*
X14500Y-192500D01*
X58500Y-172000D02*
Y-131000D01*
X57000Y-171303D02*
Y-131500D01*
X30000Y-104500D02*
X57000Y-131500D01*
X31500Y-104000D02*
X58500Y-131000D01*
X30000Y-104500D02*
Y-67500D01*
X31500Y-104000D02*
Y-72000D01*
X37000Y-66500D01*
X30000Y-67500D02*
X37000Y-60500D01*
X-6000Y-101000D02*
Y-79500D01*
X-4500Y-100500D02*
Y-79000D01*
X30000Y-137000D02*
X50000D01*
X-6000Y-101000D02*
X30000Y-137000D01*
X28000Y-133000D02*
X46000D01*
X-4500Y-100500D02*
X28000Y-133000D01*
X-41000Y-42500D02*
X-4500Y-79000D01*
X-39000Y-46500D02*
X-6000Y-79500D01*
X-45000Y-46500D02*
X-39000D01*
X-49000Y-42500D02*
X-41000D01*
X-66500Y-16500D02*
X-62000D01*
X-72460Y-22459D02*
X-66500Y-16500D01*
X2000Y-75000D02*
X11000D01*
X17000Y-69000D02*
Y-44500D01*
X11000Y-75000D02*
X17000Y-69000D01*
X-17500Y-55500D02*
Y-37500D01*
Y-55500D02*
X2000Y-75000D01*
X17000Y-44500D02*
X35500Y-26000D01*
Y-19000D01*
X-55000Y-55812D02*
X-46500Y-64312D01*
X80500Y-88500D02*
X99300Y-69700D01*
X55000Y-88500D02*
X80500D01*
X-1500Y217500D02*
X99300Y116700D01*
X-296Y218700D02*
X101000Y117404D01*
X808Y220000D02*
X102700Y118108D01*
X-62303Y211500D02*
X-5100Y154297D01*
X2500Y-64500D02*
X8500Y-70500D01*
X-44500Y6500D02*
X-42000Y4000D01*
Y0D02*
Y4000D01*
X79904Y-91500D02*
X101000Y-70404D01*
X99300Y-69700D02*
Y116700D01*
X79808Y-94000D02*
X102700Y-71108D01*
X101000Y-70404D02*
Y117404D01*
X102700Y-71108D02*
Y118108D01*
X49500Y-91500D02*
X79904D01*
X43500Y-94000D02*
X79808D01*
X-44000Y-76500D02*
Y-63750D01*
Y-76500D02*
X-41000Y-79500D01*
X43500Y-85500D02*
X49500Y-91500D01*
X-74500Y9500D02*
X-68000Y16000D01*
X-46500Y-64500D02*
Y-64312D01*
M02*
