G04*
G04 #@! TF.GenerationSoftware,Altium Limited,Altium Designer,22.9.1 (49)*
G04*
G04 Layer_Color=128*
%FSLAX25Y25*%
%MOIN*%
G70*
G04*
G04 #@! TF.SameCoordinates,BD774D37-2A64-432E-85FC-E47F3F74055D*
G04*
G04*
G04 #@! TF.FilePolarity,Positive*
G04*
G01*
G75*
%ADD13R,0.04921X0.11024*%
%ADD14R,0.03740X0.03347*%
%ADD16R,0.07165X0.04882*%
G04:AMPARAMS|DCode=18|XSize=23.62mil|YSize=57.09mil|CornerRadius=11.81mil|HoleSize=0mil|Usage=FLASHONLY|Rotation=270.000|XOffset=0mil|YOffset=0mil|HoleType=Round|Shape=RoundedRectangle|*
%AMROUNDEDRECTD18*
21,1,0.02362,0.03347,0,0,270.0*
21,1,0.00000,0.05709,0,0,270.0*
1,1,0.02362,-0.01673,0.00000*
1,1,0.02362,-0.01673,0.00000*
1,1,0.02362,0.01673,0.00000*
1,1,0.02362,0.01673,0.00000*
%
%ADD18ROUNDEDRECTD18*%
%ADD19R,0.03937X0.03839*%
%ADD21R,0.03839X0.03937*%
%ADD29R,0.03347X0.03740*%
%ADD32R,0.03937X0.02362*%
%ADD33R,0.02362X0.03937*%
%ADD43R,0.06693X0.04134*%
%ADD117R,0.07874X0.05118*%
%ADD118R,0.05512X0.03543*%
%ADD119R,0.03937X0.02756*%
%ADD120R,0.02756X0.03937*%
%ADD121R,0.04528X0.04724*%
%ADD122R,0.05709X0.04724*%
%ADD123R,0.10287X0.13787*%
G04:AMPARAMS|DCode=124|XSize=31.58mil|YSize=59.25mil|CornerRadius=15.79mil|HoleSize=0mil|Usage=FLASHONLY|Rotation=270.000|XOffset=0mil|YOffset=0mil|HoleType=Round|Shape=RoundedRectangle|*
%AMROUNDEDRECTD124*
21,1,0.03158,0.02768,0,0,270.0*
21,1,0.00000,0.05925,0,0,270.0*
1,1,0.03158,-0.01384,0.00000*
1,1,0.03158,-0.01384,0.00000*
1,1,0.03158,0.01384,0.00000*
1,1,0.03158,0.01384,0.00000*
%
%ADD124ROUNDEDRECTD124*%
G04:AMPARAMS|DCode=125|XSize=23.62mil|YSize=57.09mil|CornerRadius=11.81mil|HoleSize=0mil|Usage=FLASHONLY|Rotation=0.000|XOffset=0mil|YOffset=0mil|HoleType=Round|Shape=RoundedRectangle|*
%AMROUNDEDRECTD125*
21,1,0.02362,0.03347,0,0,0.0*
21,1,0.00000,0.05709,0,0,0.0*
1,1,0.02362,0.00000,-0.01673*
1,1,0.02362,0.00000,-0.01673*
1,1,0.02362,0.00000,0.01673*
1,1,0.02362,0.00000,0.01673*
%
%ADD125ROUNDEDRECTD125*%
%ADD126R,0.05512X0.15748*%
%ADD127R,0.15748X0.05512*%
%ADD128R,0.08268X0.06299*%
%ADD129R,0.10906X0.02559*%
%ADD130R,0.14173X0.07087*%
%ADD131R,0.06299X0.08268*%
%ADD132R,0.13780X0.07008*%
%ADD133R,0.04724X0.09882*%
%ADD134R,0.04331X0.05512*%
G04:AMPARAMS|DCode=135|XSize=27.56mil|YSize=78.74mil|CornerRadius=13.78mil|HoleSize=0mil|Usage=FLASHONLY|Rotation=270.000|XOffset=0mil|YOffset=0mil|HoleType=Round|Shape=RoundedRectangle|*
%AMROUNDEDRECTD135*
21,1,0.02756,0.05118,0,0,270.0*
21,1,0.00000,0.07874,0,0,270.0*
1,1,0.02756,-0.02559,0.00000*
1,1,0.02756,-0.02559,0.00000*
1,1,0.02756,0.02559,0.00000*
1,1,0.02756,0.02559,0.00000*
%
%ADD135ROUNDEDRECTD135*%
%ADD136R,0.04331X0.07677*%
%ADD137R,0.14961X0.09843*%
%ADD138R,0.13386X0.09055*%
%ADD139R,0.31102X0.09055*%
%ADD140R,0.09882X0.04724*%
D13*
X6004Y89000D02*
D03*
X-6004D02*
D03*
Y103000D02*
D03*
X6004D02*
D03*
X-64996D02*
D03*
X-77004D02*
D03*
X-64996Y89000D02*
D03*
X-77004D02*
D03*
Y68000D02*
D03*
X-64996D02*
D03*
X-77004Y53000D02*
D03*
X-64996D02*
D03*
X-77004Y38000D02*
D03*
X-64996D02*
D03*
X6004Y68000D02*
D03*
X-6004D02*
D03*
X6004Y53000D02*
D03*
X-6004D02*
D03*
X6004Y38000D02*
D03*
X-6004D02*
D03*
X2004Y-35000D02*
D03*
X-10004D02*
D03*
D14*
X-191000Y-146551D02*
D03*
Y-140449D02*
D03*
X-198000D02*
D03*
Y-146551D02*
D03*
X-205000Y-140449D02*
D03*
Y-146551D02*
D03*
X-212000D02*
D03*
Y-140449D02*
D03*
X-230000Y-146551D02*
D03*
Y-140449D02*
D03*
X-237000Y-146551D02*
D03*
Y-140449D02*
D03*
X-244000Y-146551D02*
D03*
Y-140449D02*
D03*
X-81000Y-31051D02*
D03*
Y-24949D02*
D03*
X-75000Y-31051D02*
D03*
Y-24949D02*
D03*
X-81000Y-42949D02*
D03*
Y-49051D02*
D03*
X-75000Y-42949D02*
D03*
Y-49051D02*
D03*
Y-72949D02*
D03*
Y-79051D02*
D03*
X-98000Y-112051D02*
D03*
Y-105949D02*
D03*
X-77000Y-112051D02*
D03*
Y-105949D02*
D03*
X-70000Y-112051D02*
D03*
Y-105949D02*
D03*
X-60000Y-112051D02*
D03*
Y-105949D02*
D03*
X-39000Y-112051D02*
D03*
Y-105949D02*
D03*
X-32000Y-112051D02*
D03*
Y-105949D02*
D03*
X-22000Y-112051D02*
D03*
Y-105949D02*
D03*
X-1000Y-112051D02*
D03*
Y-105949D02*
D03*
X6000Y-112051D02*
D03*
Y-105949D02*
D03*
X16000Y-112051D02*
D03*
Y-105949D02*
D03*
X37000Y-112051D02*
D03*
Y-105949D02*
D03*
X44000Y-112051D02*
D03*
Y-105949D02*
D03*
X54000Y-112051D02*
D03*
Y-105949D02*
D03*
X75000Y-112051D02*
D03*
Y-105949D02*
D03*
X82000Y-112051D02*
D03*
Y-105949D02*
D03*
X92000D02*
D03*
Y-112051D02*
D03*
X113000D02*
D03*
Y-105949D02*
D03*
X120000Y-112051D02*
D03*
Y-105949D02*
D03*
X13500Y-70449D02*
D03*
Y-76551D02*
D03*
X-29509Y-86284D02*
D03*
Y-80182D02*
D03*
X-50500Y-56949D02*
D03*
Y-63051D02*
D03*
X-75000Y-1051D02*
D03*
Y5051D02*
D03*
X-98000Y41949D02*
D03*
Y48051D02*
D03*
X-91000Y41949D02*
D03*
Y48051D02*
D03*
X-92500Y135000D02*
D03*
Y128898D02*
D03*
X36000Y-221949D02*
D03*
Y-228051D02*
D03*
X45000Y-239949D02*
D03*
Y-246051D02*
D03*
X-198000Y169051D02*
D03*
Y162949D02*
D03*
X-192000Y169051D02*
D03*
Y162949D02*
D03*
D16*
X-90000Y1583D02*
D03*
Y14417D02*
D03*
Y-75583D02*
D03*
Y-88417D02*
D03*
D18*
X-91272Y72500D02*
D03*
Y67500D02*
D03*
Y62500D02*
D03*
Y57500D02*
D03*
X-112728Y72500D02*
D03*
Y67500D02*
D03*
Y62500D02*
D03*
Y57500D02*
D03*
D19*
X-81000Y-72900D02*
D03*
Y-79100D02*
D03*
X-70000Y-127000D02*
D03*
Y-120800D02*
D03*
X-32000Y-127000D02*
D03*
Y-120800D02*
D03*
X6000Y-127000D02*
D03*
Y-120800D02*
D03*
X44000Y-127000D02*
D03*
Y-120800D02*
D03*
X82000Y-127000D02*
D03*
Y-120800D02*
D03*
X120000Y-127000D02*
D03*
Y-120800D02*
D03*
X-81000Y-1100D02*
D03*
Y5100D02*
D03*
X-91000Y80900D02*
D03*
Y87100D02*
D03*
X45000Y-228100D02*
D03*
Y-221900D02*
D03*
X-218000Y-120900D02*
D03*
Y-127100D02*
D03*
D21*
X43900Y100000D02*
D03*
X50100D02*
D03*
X43900Y94000D02*
D03*
X50100D02*
D03*
X-20900D02*
D03*
X-27100D02*
D03*
X43900Y84500D02*
D03*
X50100D02*
D03*
X-27100D02*
D03*
X-20900D02*
D03*
Y100000D02*
D03*
X-27100D02*
D03*
X49600Y-19000D02*
D03*
X43400D02*
D03*
D29*
X21051Y107000D02*
D03*
X14949D02*
D03*
X35051D02*
D03*
X28949D02*
D03*
X43949D02*
D03*
X50051D02*
D03*
X-20949D02*
D03*
X-27051D02*
D03*
X-42051D02*
D03*
X-35949D02*
D03*
X-56051D02*
D03*
X-49949D02*
D03*
X-109051Y-17000D02*
D03*
X-102949D02*
D03*
X-88949D02*
D03*
X-95051D02*
D03*
X-102949Y-57000D02*
D03*
X-109051D02*
D03*
X-88949D02*
D03*
X-95051D02*
D03*
X71051Y111000D02*
D03*
X64949D02*
D03*
X82949D02*
D03*
X89051D02*
D03*
X71051Y59000D02*
D03*
X64949D02*
D03*
X89051D02*
D03*
X82949D02*
D03*
X71051Y7000D02*
D03*
X64949D02*
D03*
X89051D02*
D03*
X82949D02*
D03*
X71051Y-45000D02*
D03*
X64949D02*
D03*
X82949D02*
D03*
X89051D02*
D03*
X-7051Y-15000D02*
D03*
X-949D02*
D03*
X43449Y-31500D02*
D03*
X49551D02*
D03*
X30551Y-96000D02*
D03*
X24449D02*
D03*
X-34949Y-34000D02*
D03*
X-41051D02*
D03*
Y-40000D02*
D03*
X-34949D02*
D03*
X-55949Y16000D02*
D03*
X-62051D02*
D03*
D32*
X-82724Y-16740D02*
D03*
Y-9260D02*
D03*
X-73276Y-13000D02*
D03*
X-82724Y-64740D02*
D03*
Y-57260D02*
D03*
X-73276Y-61000D02*
D03*
X-104276Y46000D02*
D03*
X-113724Y49740D02*
D03*
Y42260D02*
D03*
X-104276Y84000D02*
D03*
X-113724Y87740D02*
D03*
Y80260D02*
D03*
X-207315Y-120260D02*
D03*
Y-124000D02*
D03*
Y-127740D02*
D03*
X-196685D02*
D03*
Y-124000D02*
D03*
Y-120260D02*
D03*
X-243315D02*
D03*
Y-124000D02*
D03*
Y-127740D02*
D03*
X-232685D02*
D03*
Y-124000D02*
D03*
Y-120260D02*
D03*
X-200315Y183740D02*
D03*
X-189685D02*
D03*
Y180000D02*
D03*
Y176260D02*
D03*
X-200315D02*
D03*
Y180000D02*
D03*
D33*
X-109740Y-41276D02*
D03*
X-102260D02*
D03*
X-106000Y-50724D02*
D03*
X-102260Y-32724D02*
D03*
X-109740D02*
D03*
X-106000Y-23276D02*
D03*
X-95740Y-32724D02*
D03*
X-92000Y-23276D02*
D03*
X-88260Y-32724D02*
D03*
X-88260Y-41276D02*
D03*
X-92000Y-50724D02*
D03*
X-95740Y-41276D02*
D03*
X30240Y-113624D02*
D03*
X22760D02*
D03*
X26500Y-104176D02*
D03*
X-83760Y-113624D02*
D03*
X-91240D02*
D03*
X-87500Y-104176D02*
D03*
X-45760Y-113624D02*
D03*
X-53240D02*
D03*
X-49500Y-104176D02*
D03*
X-7760Y-113624D02*
D03*
X-15240D02*
D03*
X-11500Y-104176D02*
D03*
X60760Y-113624D02*
D03*
X64500Y-104176D02*
D03*
X68240Y-113624D02*
D03*
X98760D02*
D03*
X102500Y-104176D02*
D03*
X106240Y-113624D02*
D03*
X68000Y95276D02*
D03*
X71740Y104724D02*
D03*
X64260D02*
D03*
X89740Y95276D02*
D03*
X86000Y104724D02*
D03*
X82260Y95276D02*
D03*
X64260Y52724D02*
D03*
X71740D02*
D03*
X68000Y43276D02*
D03*
X82260D02*
D03*
X86000Y52724D02*
D03*
X89740Y43276D02*
D03*
X64260Y724D02*
D03*
X71740D02*
D03*
X68000Y-8724D02*
D03*
X89740D02*
D03*
X82260D02*
D03*
X86000Y724D02*
D03*
X64260Y-51276D02*
D03*
X71740D02*
D03*
X68000Y-60724D02*
D03*
X89740D02*
D03*
X82260D02*
D03*
X86000Y-51276D02*
D03*
X-198740Y106685D02*
D03*
X-195000D02*
D03*
X-191260D02*
D03*
Y117315D02*
D03*
X-195000D02*
D03*
X-198740D02*
D03*
D43*
X-122000Y78390D02*
D03*
Y89610D02*
D03*
X-92500Y109000D02*
D03*
Y97780D02*
D03*
D117*
X35826Y-246500D02*
D03*
X-35827D02*
D03*
D118*
X-199872Y-92539D02*
D03*
D119*
X-199085Y-97067D02*
D03*
D120*
X-206368Y-107461D02*
D03*
X-210699D02*
D03*
X-215030D02*
D03*
X-219360D02*
D03*
X-223691D02*
D03*
X-228022D02*
D03*
X-232352D02*
D03*
X-236683D02*
D03*
D121*
X-240915Y-103327D02*
D03*
Y-93130D02*
D03*
D122*
X-199970Y-101594D02*
D03*
D123*
X-46000Y92000D02*
D03*
X25000D02*
D03*
D124*
X-35272Y99500D02*
D03*
Y94500D02*
D03*
Y89500D02*
D03*
Y84500D02*
D03*
X-56728Y99500D02*
D03*
Y94500D02*
D03*
Y89500D02*
D03*
Y84500D02*
D03*
X14272D02*
D03*
Y89500D02*
D03*
Y94500D02*
D03*
Y99500D02*
D03*
X35728Y84500D02*
D03*
Y89500D02*
D03*
Y94500D02*
D03*
Y99500D02*
D03*
D125*
X-92500Y163728D02*
D03*
X-87500D02*
D03*
X-82500D02*
D03*
X-77500D02*
D03*
X-92500Y142272D02*
D03*
X-87500D02*
D03*
X-82500D02*
D03*
X-77500D02*
D03*
D126*
X109280Y169467D02*
D03*
Y140333D02*
D03*
X81721Y169467D02*
D03*
Y140333D02*
D03*
X95500Y169467D02*
D03*
Y140333D02*
D03*
X43610Y140333D02*
D03*
Y169467D02*
D03*
X57390Y140333D02*
D03*
Y169467D02*
D03*
X95610Y-169467D02*
D03*
Y-140333D02*
D03*
X109390Y-169467D02*
D03*
Y-140333D02*
D03*
X71390D02*
D03*
Y-169467D02*
D03*
X57610Y-140333D02*
D03*
Y-169467D02*
D03*
X19610D02*
D03*
Y-140333D02*
D03*
X33390Y-169467D02*
D03*
Y-140333D02*
D03*
X-4610D02*
D03*
Y-169467D02*
D03*
X-18390Y-140333D02*
D03*
Y-169467D02*
D03*
X-56390D02*
D03*
Y-140333D02*
D03*
X-42610Y-169467D02*
D03*
Y-140333D02*
D03*
X-80610D02*
D03*
Y-169467D02*
D03*
X-94390Y-140333D02*
D03*
Y-169467D02*
D03*
D127*
X-136133Y-37000D02*
D03*
X-165267D02*
D03*
X-136133Y-50779D02*
D03*
X-165267D02*
D03*
X-136133Y-23221D02*
D03*
X-165267D02*
D03*
X165267Y67220D02*
D03*
X136133D02*
D03*
X165267Y94779D02*
D03*
X136133D02*
D03*
X165267Y81000D02*
D03*
X136133D02*
D03*
Y29000D02*
D03*
X165267D02*
D03*
X136133Y42779D02*
D03*
X165267D02*
D03*
X136133Y15221D02*
D03*
X165267D02*
D03*
Y-36779D02*
D03*
X136133D02*
D03*
X165267Y-9221D02*
D03*
X136133D02*
D03*
X165267Y-23000D02*
D03*
X136133D02*
D03*
Y-75000D02*
D03*
X165267D02*
D03*
X136133Y-61221D02*
D03*
X165267D02*
D03*
X136133Y-88779D02*
D03*
X165267D02*
D03*
X-165267Y52890D02*
D03*
X-136133D02*
D03*
X-165267Y39110D02*
D03*
X-136133D02*
D03*
Y1110D02*
D03*
X-165267D02*
D03*
X-136133Y14890D02*
D03*
X-165267D02*
D03*
Y90890D02*
D03*
X-136133D02*
D03*
X-165267Y77110D02*
D03*
X-136133D02*
D03*
Y-88890D02*
D03*
X-165267D02*
D03*
X-136133Y-75110D02*
D03*
X-165267D02*
D03*
D128*
X109185Y121000D02*
D03*
X94815D02*
D03*
X19315Y-123900D02*
D03*
X33685D02*
D03*
X-94685D02*
D03*
X-80315D02*
D03*
X-56685D02*
D03*
X-42315D02*
D03*
X-18685D02*
D03*
X-4315D02*
D03*
X57315D02*
D03*
X71685D02*
D03*
X95315D02*
D03*
X109685D02*
D03*
D129*
X-227933Y110000D02*
D03*
X-212067Y115000D02*
D03*
X-227933D02*
D03*
X-212067Y120000D02*
D03*
X-227933D02*
D03*
X-212067Y125000D02*
D03*
X-227933D02*
D03*
X-212067Y110000D02*
D03*
X-227933Y130000D02*
D03*
X-212067D02*
D03*
D130*
X-38000Y71716D02*
D03*
Y36283D02*
D03*
X33000Y71716D02*
D03*
Y36283D02*
D03*
D131*
X-120000Y-16815D02*
D03*
Y-31185D02*
D03*
Y-57185D02*
D03*
Y-42815D02*
D03*
Y-89185D02*
D03*
Y-74815D02*
D03*
Y815D02*
D03*
Y15185D02*
D03*
D132*
X-104000Y-71705D02*
D03*
Y-92295D02*
D03*
Y-2295D02*
D03*
Y18295D02*
D03*
D133*
X87000Y72484D02*
D03*
X77000Y85516D02*
D03*
X67000Y72484D02*
D03*
Y20484D02*
D03*
X77000Y33516D02*
D03*
X87000Y20484D02*
D03*
X67000Y-31516D02*
D03*
X77000Y-18484D02*
D03*
X87000Y-31516D02*
D03*
Y-83516D02*
D03*
X77000Y-70484D02*
D03*
X67000Y-83516D02*
D03*
D134*
X-8134Y-23000D02*
D03*
X134D02*
D03*
D135*
X101339Y-66338D02*
D03*
Y-74999D02*
D03*
Y-83661D02*
D03*
X118661D02*
D03*
Y-74999D02*
D03*
Y-66338D02*
D03*
Y-53739D02*
D03*
X101339D02*
D03*
Y-14338D02*
D03*
Y-22999D02*
D03*
Y-31661D02*
D03*
X118661D02*
D03*
Y-22999D02*
D03*
Y-14338D02*
D03*
Y-1739D02*
D03*
X101339D02*
D03*
Y37662D02*
D03*
Y29001D02*
D03*
Y20339D02*
D03*
X118661D02*
D03*
Y29001D02*
D03*
Y37662D02*
D03*
Y50261D02*
D03*
X101339D02*
D03*
Y89662D02*
D03*
Y81001D02*
D03*
Y72339D02*
D03*
X118661D02*
D03*
Y81001D02*
D03*
Y89662D02*
D03*
Y102261D02*
D03*
X101339D02*
D03*
D136*
X-92500Y119360D02*
D03*
X-75571D02*
D03*
D137*
X-10031Y143535D02*
D03*
Y160465D02*
D03*
X-63968D02*
D03*
Y143535D02*
D03*
D138*
X-49795Y172276D02*
D03*
D139*
X-40937Y131724D02*
D03*
D140*
X-213484Y170000D02*
D03*
X-226516Y160000D02*
D03*
Y180000D02*
D03*
X-213484Y190000D02*
D03*
X-226516Y200000D02*
D03*
M02*
