G04*
G04 #@! TF.GenerationSoftware,Altium Limited,Altium Designer,22.9.1 (49)*
G04*
G04 Layer_Physical_Order=3*
G04 Layer_Color=16440176*
%FSLAX25Y25*%
%MOIN*%
G70*
G04*
G04 #@! TF.SameCoordinates,BD774D37-2A64-432E-85FC-E47F3F74055D*
G04*
G04*
G04 #@! TF.FilePolarity,Positive*
G04*
G01*
G75*
%ADD93C,0.01000*%
%ADD95C,0.04000*%
%ADD101C,0.01200*%
%ADD110C,0.03543*%
%ADD114C,0.02000*%
%ADD115C,0.00500*%
G36*
X230315Y257477D02*
X231762D01*
X234642Y257193D01*
X237481Y256628D01*
X240251Y255788D01*
X242925Y254680D01*
X245477Y253316D01*
X247884Y251708D01*
X250121Y249872D01*
X252167Y247826D01*
X254004Y245588D01*
X255611Y243182D01*
X256976Y240629D01*
X258083Y237955D01*
X258924Y235186D01*
X259488Y232347D01*
X259772Y229467D01*
X259772Y228020D01*
X259772Y-99150D01*
X243606D01*
X242826Y-99305D01*
X242165Y-99747D01*
X241722Y-100409D01*
X241567Y-101189D01*
Y-133402D01*
X238882D01*
X238102Y-133557D01*
X237440Y-133999D01*
X236998Y-134661D01*
X236843Y-135441D01*
Y-210500D01*
X236998Y-211280D01*
X237440Y-211942D01*
X238102Y-212384D01*
X238882Y-212539D01*
X259772D01*
X259772Y-228004D01*
Y-229451D01*
X259488Y-232331D01*
X258924Y-235170D01*
X258083Y-237940D01*
X256976Y-240614D01*
X255611Y-243166D01*
X254004Y-245573D01*
X252167Y-247810D01*
X250121Y-249856D01*
X247884Y-251693D01*
X245477Y-253300D01*
X242925Y-254665D01*
X240251Y-255772D01*
X237481Y-256613D01*
X234642Y-257177D01*
X231762Y-257461D01*
X230315Y-257461D01*
X146724D01*
Y-216193D01*
X146569Y-215413D01*
X146127Y-214751D01*
X145465Y-214309D01*
X144685Y-214154D01*
X109252D01*
X108472Y-214309D01*
X107810Y-214751D01*
X107368Y-215413D01*
X107213Y-216193D01*
Y-257461D01*
X-107213D01*
Y-216193D01*
X-107368Y-215413D01*
X-107810Y-214751D01*
X-108472Y-214309D01*
X-109252Y-214154D01*
X-144685D01*
X-145465Y-214309D01*
X-146127Y-214751D01*
X-146569Y-215413D01*
X-146724Y-216193D01*
Y-257461D01*
X-230315Y-257461D01*
X-231762D01*
X-234642Y-257177D01*
X-237481Y-256613D01*
X-240251Y-255772D01*
X-242925Y-254665D01*
X-245477Y-253300D01*
X-247884Y-251693D01*
X-250121Y-249856D01*
X-252167Y-247810D01*
X-254004Y-245573D01*
X-255611Y-243166D01*
X-256976Y-240614D01*
X-258083Y-237940D01*
X-258924Y-235170D01*
X-259488Y-232331D01*
X-259772Y-229451D01*
X-259772Y-228004D01*
X-259772Y228020D01*
Y229467D01*
X-259488Y232347D01*
X-258924Y235186D01*
X-258083Y237955D01*
X-256976Y240629D01*
X-255611Y243182D01*
X-254004Y245588D01*
X-252167Y247826D01*
X-250121Y249872D01*
X-247884Y251708D01*
X-245477Y253316D01*
X-242925Y254680D01*
X-240251Y255788D01*
X-237481Y256628D01*
X-234642Y257193D01*
X-231762Y257477D01*
X-230315Y257477D01*
X-171882Y257477D01*
Y235016D01*
X-171726Y234235D01*
X-171284Y233574D01*
X-170623Y233132D01*
X-169843Y232977D01*
X-99843D01*
X-99062Y233132D01*
X-98401Y233574D01*
X-97959Y234235D01*
X-97803Y235016D01*
Y251500D01*
Y257477D01*
X97803D01*
Y251500D01*
Y235016D01*
X97959Y234235D01*
X98401Y233574D01*
X99062Y233132D01*
X99843Y232977D01*
X169843D01*
X170623Y233132D01*
X171284Y233574D01*
X171726Y234235D01*
X171882Y235016D01*
Y257477D01*
X230315Y257477D01*
D02*
G37*
%LPC*%
G36*
X-236919Y239900D02*
X-237481D01*
X-238039Y239837D01*
X-238586Y239712D01*
X-239116Y239527D01*
X-239622Y239283D01*
X-240098Y238984D01*
X-240537Y238634D01*
X-240934Y238237D01*
X-241284Y237798D01*
X-241583Y237322D01*
X-241827Y236816D01*
X-242012Y236286D01*
X-242137Y235739D01*
X-242200Y235181D01*
Y234619D01*
X-242137Y234061D01*
X-242012Y233514D01*
X-241827Y232984D01*
X-241583Y232478D01*
X-241284Y232002D01*
X-240934Y231563D01*
X-240537Y231166D01*
X-240098Y230816D01*
X-239622Y230517D01*
X-239116Y230273D01*
X-238586Y230088D01*
X-238039Y229963D01*
X-237481Y229900D01*
X-236919D01*
X-236361Y229963D01*
X-235814Y230088D01*
X-235284Y230273D01*
X-234778Y230517D01*
X-234302Y230816D01*
X-233863Y231166D01*
X-233466Y231563D01*
X-233116Y232002D01*
X-232817Y232478D01*
X-232573Y232984D01*
X-232388Y233514D01*
X-232263Y234061D01*
X-232200Y234619D01*
Y235181D01*
X-232263Y235739D01*
X-232388Y236286D01*
X-232573Y236816D01*
X-232817Y237322D01*
X-233116Y237798D01*
X-233466Y238237D01*
X-233863Y238634D01*
X-234302Y238984D01*
X-234778Y239283D01*
X-235284Y239527D01*
X-235814Y239712D01*
X-236361Y239837D01*
X-236919Y239900D01*
D02*
G37*
G36*
X221800Y251500D02*
X177800D01*
Y227000D01*
X91900D01*
Y251500D01*
X-91900D01*
Y227000D01*
X-177800D01*
Y251500D01*
X-221800D01*
Y219500D01*
X-253800D01*
Y-219500D01*
X-221800D01*
Y-251500D01*
X-152700D01*
Y-208200D01*
X-101300D01*
Y-251500D01*
X101300D01*
Y-208200D01*
X152700D01*
Y-251500D01*
X221800D01*
Y-219500D01*
X230900D01*
Y-127500D01*
X235600D01*
Y-93200D01*
X253800D01*
Y219500D01*
X221800D01*
Y251500D01*
D02*
G37*
G36*
X237593Y243900D02*
X236807D01*
X236024Y243831D01*
X235250Y243695D01*
X234491Y243492D01*
X233753Y243223D01*
X233040Y242891D01*
X232360Y242498D01*
X231716Y242047D01*
X231114Y241542D01*
X230558Y240986D01*
X230053Y240384D01*
X229602Y239740D01*
X229209Y239060D01*
X228877Y238347D01*
X228608Y237609D01*
X228405Y236850D01*
X228269Y236076D01*
X228200Y235293D01*
Y234507D01*
X228269Y233724D01*
X228405Y232950D01*
X228608Y232191D01*
X228877Y231453D01*
X229209Y230740D01*
X229602Y230060D01*
X230053Y229416D01*
X230558Y228814D01*
X231114Y228258D01*
X231716Y227753D01*
X232360Y227302D01*
X233040Y226909D01*
X233753Y226577D01*
X234491Y226308D01*
X235250Y226105D01*
X236024Y225969D01*
X236807Y225900D01*
X237593D01*
X238376Y225969D01*
X239150Y226105D01*
X239909Y226308D01*
X240647Y226577D01*
X241360Y226909D01*
X242040Y227302D01*
X242684Y227753D01*
X243286Y228258D01*
X243842Y228814D01*
X244347Y229416D01*
X244798Y230060D01*
X245191Y230740D01*
X245523Y231453D01*
X245792Y232191D01*
X245995Y232950D01*
X246131Y233724D01*
X246200Y234507D01*
Y235293D01*
X246131Y236076D01*
X245995Y236850D01*
X245792Y237609D01*
X245523Y238347D01*
X245191Y239060D01*
X244798Y239740D01*
X244347Y240384D01*
X243842Y240986D01*
X243286Y241542D01*
X242684Y242047D01*
X242040Y242498D01*
X241360Y242891D01*
X240647Y243223D01*
X239909Y243492D01*
X239150Y243695D01*
X238376Y243831D01*
X237593Y243900D01*
D02*
G37*
G36*
X237481Y-229900D02*
X236919D01*
X236361Y-229963D01*
X235814Y-230088D01*
X235284Y-230273D01*
X234778Y-230517D01*
X234302Y-230816D01*
X233863Y-231166D01*
X233466Y-231563D01*
X233116Y-232002D01*
X232817Y-232478D01*
X232573Y-232984D01*
X232388Y-233514D01*
X232263Y-234061D01*
X232200Y-234619D01*
Y-235181D01*
X232263Y-235739D01*
X232388Y-236286D01*
X232573Y-236816D01*
X232817Y-237322D01*
X233116Y-237798D01*
X233466Y-238237D01*
X233863Y-238634D01*
X234302Y-238984D01*
X234778Y-239283D01*
X235284Y-239527D01*
X235814Y-239712D01*
X236361Y-239837D01*
X236919Y-239900D01*
X237481D01*
X238039Y-239837D01*
X238586Y-239712D01*
X239116Y-239527D01*
X239622Y-239283D01*
X240098Y-238984D01*
X240537Y-238634D01*
X240934Y-238237D01*
X241284Y-237798D01*
X241583Y-237322D01*
X241827Y-236816D01*
X242012Y-236286D01*
X242137Y-235739D01*
X242200Y-235181D01*
Y-234619D01*
X242137Y-234061D01*
X242012Y-233514D01*
X241827Y-232984D01*
X241583Y-232478D01*
X241284Y-232002D01*
X240934Y-231563D01*
X240537Y-231166D01*
X240098Y-230816D01*
X239622Y-230517D01*
X239116Y-230273D01*
X238586Y-230088D01*
X238039Y-229963D01*
X237481Y-229900D01*
D02*
G37*
G36*
X-236807Y-225900D02*
X-237593D01*
X-238376Y-225969D01*
X-239150Y-226105D01*
X-239909Y-226308D01*
X-240647Y-226577D01*
X-241360Y-226909D01*
X-242040Y-227302D01*
X-242684Y-227753D01*
X-243286Y-228258D01*
X-243842Y-228814D01*
X-244347Y-229416D01*
X-244798Y-230060D01*
X-245191Y-230740D01*
X-245523Y-231453D01*
X-245792Y-232191D01*
X-245995Y-232950D01*
X-246131Y-233724D01*
X-246200Y-234507D01*
Y-235293D01*
X-246131Y-236076D01*
X-245995Y-236850D01*
X-245792Y-237609D01*
X-245523Y-238347D01*
X-245191Y-239060D01*
X-244798Y-239740D01*
X-244347Y-240384D01*
X-243842Y-240986D01*
X-243286Y-241542D01*
X-242684Y-242047D01*
X-242040Y-242498D01*
X-241360Y-242891D01*
X-240647Y-243223D01*
X-239909Y-243492D01*
X-239150Y-243695D01*
X-238376Y-243831D01*
X-237593Y-243900D01*
X-236807D01*
X-236024Y-243831D01*
X-235250Y-243695D01*
X-234491Y-243492D01*
X-233753Y-243223D01*
X-233040Y-242891D01*
X-232360Y-242498D01*
X-231716Y-242047D01*
X-231114Y-241542D01*
X-230558Y-240986D01*
X-230053Y-240384D01*
X-229602Y-239740D01*
X-229209Y-239060D01*
X-228877Y-238347D01*
X-228608Y-237609D01*
X-228405Y-236850D01*
X-228269Y-236076D01*
X-228200Y-235293D01*
Y-234507D01*
X-228269Y-233724D01*
X-228405Y-232950D01*
X-228608Y-232191D01*
X-228877Y-231453D01*
X-229209Y-230740D01*
X-229602Y-230060D01*
X-230053Y-229416D01*
X-230558Y-228814D01*
X-231114Y-228258D01*
X-231716Y-227753D01*
X-232360Y-227302D01*
X-233040Y-226909D01*
X-233753Y-226577D01*
X-234491Y-226308D01*
X-235250Y-226105D01*
X-236024Y-225969D01*
X-236807Y-225900D01*
D02*
G37*
%LPD*%
D93*
X47500Y246165D02*
X48333Y246998D01*
X49999D01*
X50832Y246165D01*
Y245332D01*
X49999Y244499D01*
X49166D01*
X49999D01*
X50832Y243666D01*
Y242833D01*
X49999Y242000D01*
X48333D01*
X47500Y242833D01*
D95*
X232969Y-152000D02*
D03*
X237709Y-108000D02*
D03*
D101*
X-221000Y28000D02*
X-214000Y21000D01*
X-219000Y-3000D02*
X-214000Y2000D01*
Y21000D01*
D110*
X-216929Y66441D02*
D03*
D114*
X-80614Y-254500D02*
D03*
X-86586D02*
D03*
X-92557D02*
D03*
X-98529D02*
D03*
X-50757D02*
D03*
X-56729D02*
D03*
X-62700D02*
D03*
X-68672D02*
D03*
X-74643D02*
D03*
X-20900D02*
D03*
X-26871D02*
D03*
X-32843D02*
D03*
X-38814D02*
D03*
X-44786D02*
D03*
X8957D02*
D03*
X2986D02*
D03*
X-2986D02*
D03*
X-8957D02*
D03*
X-14929D02*
D03*
X38814D02*
D03*
X32843D02*
D03*
X26871D02*
D03*
X20900D02*
D03*
X14928D02*
D03*
X68671D02*
D03*
X62700D02*
D03*
X56728D02*
D03*
X50757D02*
D03*
X44785D02*
D03*
X98528D02*
D03*
X92557D02*
D03*
X86585D02*
D03*
X80614D02*
D03*
X74643D02*
D03*
X-89062Y254500D02*
D03*
X-59375D02*
D03*
X-65312D02*
D03*
X-71250D02*
D03*
X-77188D02*
D03*
X-83125D02*
D03*
X-29688D02*
D03*
X-35625D02*
D03*
X-41563D02*
D03*
X-47500D02*
D03*
X-53438D02*
D03*
X0D02*
D03*
X-5937D02*
D03*
X-11875D02*
D03*
X-17812D02*
D03*
X-23750D02*
D03*
X29688D02*
D03*
X23750D02*
D03*
X17812D02*
D03*
X11875D02*
D03*
X5937D02*
D03*
X59375D02*
D03*
X53438D02*
D03*
X47500D02*
D03*
X41563D02*
D03*
X35625D02*
D03*
X65312D02*
D03*
X71250D02*
D03*
X77188D02*
D03*
X83125D02*
D03*
X89062D02*
D03*
X-256800Y-216569D02*
D03*
Y-210539D02*
D03*
Y-204508D02*
D03*
Y-198477D02*
D03*
Y-138171D02*
D03*
Y-144201D02*
D03*
Y-150232D02*
D03*
Y-156263D02*
D03*
Y-162293D02*
D03*
Y-168324D02*
D03*
Y-174355D02*
D03*
Y-180385D02*
D03*
Y-186416D02*
D03*
Y-192447D02*
D03*
Y-77864D02*
D03*
Y-83895D02*
D03*
Y-89925D02*
D03*
Y-95956D02*
D03*
Y-101987D02*
D03*
Y-108018D02*
D03*
Y-114048D02*
D03*
Y-120079D02*
D03*
Y-126109D02*
D03*
Y-132140D02*
D03*
Y-17558D02*
D03*
Y-23588D02*
D03*
Y-29619D02*
D03*
Y-35649D02*
D03*
Y-41680D02*
D03*
Y-47711D02*
D03*
Y-53742D02*
D03*
Y-59772D02*
D03*
Y-65803D02*
D03*
Y-71833D02*
D03*
Y42749D02*
D03*
Y36718D02*
D03*
Y30688D02*
D03*
Y24657D02*
D03*
Y18626D02*
D03*
Y12596D02*
D03*
Y6565D02*
D03*
Y534D02*
D03*
Y-5496D02*
D03*
Y-11527D02*
D03*
Y103056D02*
D03*
Y97025D02*
D03*
Y90994D02*
D03*
Y84964D02*
D03*
Y78933D02*
D03*
Y72902D02*
D03*
Y66872D02*
D03*
Y60841D02*
D03*
Y54810D02*
D03*
Y48780D02*
D03*
Y163362D02*
D03*
Y157332D02*
D03*
Y151301D02*
D03*
Y145270D02*
D03*
Y139240D02*
D03*
Y133209D02*
D03*
Y127178D02*
D03*
Y121148D02*
D03*
Y115117D02*
D03*
Y109086D02*
D03*
Y169393D02*
D03*
Y175424D02*
D03*
Y181454D02*
D03*
Y187485D02*
D03*
Y193516D02*
D03*
Y199546D02*
D03*
Y205577D02*
D03*
Y211608D02*
D03*
Y217638D02*
D03*
Y223669D02*
D03*
X-95000Y230000D02*
D03*
X-175000D02*
D03*
X-175000Y254500D02*
D03*
X-232000D02*
D03*
X-256800Y229699D02*
D03*
Y-229700D02*
D03*
X-232000Y-254500D02*
D03*
X-149500D02*
D03*
X-149500Y-211500D02*
D03*
X-104500Y-211500D02*
D03*
Y-254500D02*
D03*
X-95000Y248375D02*
D03*
Y236125D02*
D03*
Y242250D02*
D03*
X-168846Y230000D02*
D03*
X-162692D02*
D03*
X-156538D02*
D03*
X-150385D02*
D03*
X-144231D02*
D03*
X-138077D02*
D03*
X-131923D02*
D03*
X-125769D02*
D03*
X-119615D02*
D03*
X-113461D02*
D03*
X-107308D02*
D03*
X-101154D02*
D03*
X-175000Y248375D02*
D03*
Y242250D02*
D03*
Y236125D02*
D03*
X-225667Y254500D02*
D03*
X-219333D02*
D03*
X-213000D02*
D03*
X-206667D02*
D03*
X-200333D02*
D03*
X-194000D02*
D03*
X-187667D02*
D03*
X-181333D02*
D03*
X-256800Y-222600D02*
D03*
X-226107Y-254500D02*
D03*
X-220214D02*
D03*
X-214321D02*
D03*
X-208429D02*
D03*
X-202536D02*
D03*
X-196643D02*
D03*
X-190750D02*
D03*
X-184857D02*
D03*
X-178964D02*
D03*
X-173071D02*
D03*
X-167178D02*
D03*
X-161286D02*
D03*
X-155393D02*
D03*
X-149500Y-248357D02*
D03*
Y-242214D02*
D03*
Y-236071D02*
D03*
Y-229929D02*
D03*
Y-223786D02*
D03*
Y-217643D02*
D03*
X-143071Y-211500D02*
D03*
X-136643Y-211500D02*
D03*
X-130214D02*
D03*
X-123786D02*
D03*
X-117357D02*
D03*
X-110929D02*
D03*
X-255300Y235800D02*
D03*
X-252700Y241542D02*
D03*
X-248700Y246400D02*
D03*
X-243842Y250400D02*
D03*
X-238100Y253000D02*
D03*
Y-253000D02*
D03*
X-243842Y-250400D02*
D03*
X-248700Y-246400D02*
D03*
X-252700Y-241542D02*
D03*
X-255300Y-235800D02*
D03*
X-104500Y-217643D02*
D03*
Y-223786D02*
D03*
Y-229928D02*
D03*
Y-236071D02*
D03*
Y-242214D02*
D03*
Y-248357D02*
D03*
X104500D02*
D03*
Y-242214D02*
D03*
Y-236071D02*
D03*
Y-229928D02*
D03*
Y-223786D02*
D03*
Y-217643D02*
D03*
X255300Y-235800D02*
D03*
X252700Y-241542D02*
D03*
X248700Y-246400D02*
D03*
X243842Y-250400D02*
D03*
X238100Y-253000D02*
D03*
Y253000D02*
D03*
X243842Y250400D02*
D03*
X248700Y246400D02*
D03*
X252700Y241542D02*
D03*
X255300Y235800D02*
D03*
X110929Y-211500D02*
D03*
X117357D02*
D03*
X123786D02*
D03*
X130214D02*
D03*
X136643D02*
D03*
X143071Y-211500D02*
D03*
X149500Y-217643D02*
D03*
Y-223786D02*
D03*
Y-229929D02*
D03*
Y-236071D02*
D03*
Y-242214D02*
D03*
Y-248357D02*
D03*
X155393Y-254500D02*
D03*
X161286D02*
D03*
X167178D02*
D03*
X173071D02*
D03*
X178964D02*
D03*
X184857D02*
D03*
X190750D02*
D03*
X196643D02*
D03*
X202536D02*
D03*
X208429D02*
D03*
X214321D02*
D03*
X220214D02*
D03*
X226107D02*
D03*
X256800Y-222600D02*
D03*
X239700Y-215500D02*
D03*
X245400D02*
D03*
X251100D02*
D03*
X234000Y-136572D02*
D03*
Y-142643D02*
D03*
Y-166929D02*
D03*
Y-173000D02*
D03*
Y-179071D02*
D03*
Y-185143D02*
D03*
Y-191214D02*
D03*
Y-197286D02*
D03*
Y-203357D02*
D03*
Y-209429D02*
D03*
X238500Y-119500D02*
D03*
Y-125000D02*
D03*
Y-114000D02*
D03*
X244600Y-96000D02*
D03*
X250700D02*
D03*
X256800Y223668D02*
D03*
Y217637D02*
D03*
Y211606D02*
D03*
Y151291D02*
D03*
Y157322D02*
D03*
Y163354D02*
D03*
Y169385D02*
D03*
Y175417D02*
D03*
Y181448D02*
D03*
Y187480D02*
D03*
Y193511D02*
D03*
Y199542D02*
D03*
Y205574D02*
D03*
Y90976D02*
D03*
Y97007D02*
D03*
Y103039D02*
D03*
Y109070D02*
D03*
Y115102D02*
D03*
Y121133D02*
D03*
Y127165D02*
D03*
Y133196D02*
D03*
Y139228D02*
D03*
Y145259D02*
D03*
Y30661D02*
D03*
Y36693D02*
D03*
Y42724D02*
D03*
Y48755D02*
D03*
Y54787D02*
D03*
Y60818D02*
D03*
Y66850D02*
D03*
Y72881D02*
D03*
Y78913D02*
D03*
Y84944D02*
D03*
Y-29654D02*
D03*
Y-23622D02*
D03*
Y-17591D02*
D03*
Y-11559D02*
D03*
Y-5528D02*
D03*
Y504D02*
D03*
Y6535D02*
D03*
Y12567D02*
D03*
Y18598D02*
D03*
Y24630D02*
D03*
Y-35685D02*
D03*
Y-41717D02*
D03*
Y-47748D02*
D03*
Y-53780D02*
D03*
Y-59811D02*
D03*
Y-65843D02*
D03*
Y-71874D02*
D03*
Y-77906D02*
D03*
Y-83937D02*
D03*
Y-89969D02*
D03*
X181333Y254500D02*
D03*
X187667D02*
D03*
X194000D02*
D03*
X200333D02*
D03*
X206667D02*
D03*
X213000D02*
D03*
X219333D02*
D03*
X225667D02*
D03*
X175000Y236125D02*
D03*
Y242250D02*
D03*
Y248375D02*
D03*
X101154Y230000D02*
D03*
X107308D02*
D03*
X113461D02*
D03*
X119615D02*
D03*
X125769D02*
D03*
X131923D02*
D03*
X138077D02*
D03*
X144231D02*
D03*
X150385D02*
D03*
X156538D02*
D03*
X162692D02*
D03*
X168846D02*
D03*
X95000Y242250D02*
D03*
Y236125D02*
D03*
Y248375D02*
D03*
X104500Y-254500D02*
D03*
X104500Y-211500D02*
D03*
X149500Y-211500D02*
D03*
X149500Y-254500D02*
D03*
X232000D02*
D03*
X256800Y-229700D02*
D03*
Y-215500D02*
D03*
X234000D02*
D03*
Y-130500D02*
D03*
X238500Y-130500D02*
D03*
Y-96000D02*
D03*
X256800D02*
D03*
Y229700D02*
D03*
X232000Y254500D02*
D03*
X175000D02*
D03*
X175000Y230000D02*
D03*
X95000D02*
D03*
X188898Y168000D02*
D03*
X192047Y163000D02*
D03*
X195197Y159500D02*
D03*
X198346Y156086D02*
D03*
X148000Y104500D02*
D03*
X144500Y101000D02*
D03*
X199000Y113500D02*
D03*
X196000Y117000D02*
D03*
X202000D02*
D03*
X205000Y113500D02*
D03*
X-53500Y-96000D02*
D03*
X-79500Y-90000D02*
D03*
X-65000D02*
D03*
X36854Y5354D02*
D03*
X95000Y254500D02*
D03*
X-95000D02*
D03*
X164500Y140500D02*
D03*
X174500Y133000D02*
D03*
X41500Y19500D02*
D03*
X16669Y3500D02*
D03*
X-4984Y5500D02*
D03*
Y9500D02*
D03*
X-8921D02*
D03*
X38500Y-37500D02*
D03*
X51000Y-40000D02*
D03*
X22500Y-45500D02*
D03*
X56000Y-26142D02*
D03*
X-60000Y-33500D02*
D03*
X179449Y117000D02*
D03*
X4000Y-70500D02*
D03*
X40500Y9000D02*
D03*
X-61500Y-49764D02*
D03*
X48500Y-82000D02*
D03*
X25000Y-90000D02*
D03*
X-49169Y-22205D02*
D03*
X186000Y141500D02*
D03*
Y136500D02*
D03*
X201500Y152500D02*
D03*
X184500Y159500D02*
D03*
X171000D02*
D03*
X192000Y144000D02*
D03*
X127500Y182000D02*
D03*
X133000D02*
D03*
X138500D02*
D03*
X132500Y157000D02*
D03*
X122000Y148000D02*
D03*
X125500Y151000D02*
D03*
X129000Y154000D02*
D03*
X146500Y168000D02*
D03*
X151102D02*
D03*
X156000D02*
D03*
X160551D02*
D03*
X166850D02*
D03*
X204646Y177000D02*
D03*
X207809Y168000D02*
D03*
X192047Y132000D02*
D03*
X182598Y177000D02*
D03*
X179449Y123000D02*
D03*
X151500Y-136000D02*
D03*
X-77500Y-154000D02*
D03*
X-84000Y-156000D02*
D03*
X-90500Y-154000D02*
D03*
X-97000Y-156000D02*
D03*
X-101500Y-154000D02*
D03*
X-106000Y-156000D02*
D03*
X-117000D02*
D03*
X-121500Y-154000D02*
D03*
X-126000Y-156000D02*
D03*
X-135000D02*
D03*
X-78500Y-188500D02*
D03*
X-83673Y-181500D02*
D03*
X-75799D02*
D03*
X-70000D02*
D03*
X-65000D02*
D03*
X-61500Y-185000D02*
D03*
X-58000Y-188500D02*
D03*
X-111000Y-202500D02*
D03*
X-118500Y-200000D02*
D03*
X-114000D02*
D03*
X-107295Y-205000D02*
D03*
X-97453Y-207500D02*
D03*
X-93516Y-210000D02*
D03*
X-85642Y-212500D02*
D03*
X-125021Y-189622D02*
D03*
X-15000Y227500D02*
D03*
X-38500Y223500D02*
D03*
X-33000Y227500D02*
D03*
X-45016D02*
D03*
X-55000Y224500D02*
D03*
Y234000D02*
D03*
X-21000Y241000D02*
D03*
X-39000D02*
D03*
X15000Y-1000D02*
D03*
X-30500Y-5550D02*
D03*
X-26500Y-4000D02*
D03*
X-17500Y-8000D02*
D03*
X-22500Y-5500D02*
D03*
X-30500Y-13500D02*
D03*
X-22500D02*
D03*
X-26500Y-15000D02*
D03*
X-29000Y-46000D02*
D03*
X-7500Y-54000D02*
D03*
X-500D02*
D03*
X13500Y-55000D02*
D03*
X11000Y-61000D02*
D03*
X8500Y-65000D02*
D03*
X-10000Y-70000D02*
D03*
X-20000Y-69000D02*
D03*
X-63500Y500D02*
D03*
X-34500Y-15000D02*
D03*
X-24000Y-49000D02*
D03*
X-59000Y-45827D02*
D03*
X-62099Y-28110D02*
D03*
X-59000Y-24173D02*
D03*
X-30500Y-40000D02*
D03*
X-35000Y-101500D02*
D03*
X-31000D02*
D03*
Y-94500D02*
D03*
X-27000Y-97000D02*
D03*
X-29509Y-90500D02*
D03*
X60000Y-31500D02*
D03*
X20606Y-90000D02*
D03*
X31500Y9500D02*
D03*
X25500D02*
D03*
X-12858Y-80000D02*
D03*
X51000Y-98000D02*
D03*
Y-78500D02*
D03*
Y-74000D02*
D03*
X34500Y-79000D02*
D03*
X37000Y-72500D02*
D03*
X23500Y-64000D02*
D03*
X20000Y-61000D02*
D03*
X40000Y-52000D02*
D03*
X54000Y-31500D02*
D03*
X26500Y-43500D02*
D03*
X30500Y-41500D02*
D03*
X34500Y-39500D02*
D03*
X25500Y-27000D02*
D03*
X29500Y-24000D02*
D03*
X13669Y20000D02*
D03*
X17169Y24000D02*
D03*
X-16795Y9500D02*
D03*
X-24669D02*
D03*
X-35500D02*
D03*
X-8921Y19976D02*
D03*
X-12858Y9500D02*
D03*
X-20732D02*
D03*
X-18764Y19976D02*
D03*
X-24000Y20055D02*
D03*
X-38449Y19976D02*
D03*
X-29000Y20000D02*
D03*
X132205Y123000D02*
D03*
X138504D02*
D03*
X215000Y40500D02*
D03*
Y-6500D02*
D03*
X-123043Y-200000D02*
D03*
X-221000Y28000D02*
D03*
X-219000Y-3000D02*
D03*
X-194815Y51260D02*
D03*
X46000Y-133000D02*
D03*
X50000Y-137000D02*
D03*
Y-146500D02*
D03*
X46000Y-142500D02*
D03*
Y-166500D02*
D03*
Y-158500D02*
D03*
X50000Y-162500D02*
D03*
X46000Y-150500D02*
D03*
X50000Y-154500D02*
D03*
X-36576Y-54701D02*
D03*
X221000Y30500D02*
D03*
X218000Y35500D02*
D03*
X221000Y-16500D02*
D03*
X218000Y-11500D02*
D03*
X227299Y25500D02*
D03*
Y-21443D02*
D03*
X210500Y-80000D02*
D03*
X204500D02*
D03*
X198500D02*
D03*
X151000Y-160000D02*
D03*
Y-154000D02*
D03*
X218749Y-179900D02*
D03*
X186200D02*
D03*
X180200D02*
D03*
X-191000Y-136000D02*
D03*
X-198000D02*
D03*
X-205000D02*
D03*
X-212000D02*
D03*
X-230000D02*
D03*
X-237000D02*
D03*
X-244000D02*
D03*
X-9000Y189000D02*
D03*
X-15000D02*
D03*
X-55000Y229000D02*
D03*
X-130500Y-154000D02*
D03*
X-112500D02*
D03*
X-79736Y-184000D02*
D03*
X-40000Y-58000D02*
D03*
X50000Y16000D02*
D03*
X-19000Y-75124D02*
D03*
X-43264Y-61250D02*
D03*
X-59000Y500D02*
D03*
X-68000D02*
D03*
X38500Y-10394D02*
D03*
X2000Y20000D02*
D03*
X-500Y24000D02*
D03*
X-3000Y28000D02*
D03*
D115*
X120323Y116823D02*
G03*
X120321Y115057I884J-884D01*
G01*
X120326Y113290D02*
G03*
X120321Y115057I-886J881D01*
G01*
X94654Y89386D02*
G03*
X96422Y89386I884J884D01*
G01*
X94654Y91154D02*
G03*
X94654Y89386I884J-884D01*
G01*
X116788Y113288D02*
G03*
X116788Y115055I-884J884D01*
G01*
D02*
G03*
X115020Y115055I-884J-884D01*
G01*
X91116Y91152D02*
G03*
X91116Y89389I886J-881D01*
G01*
X91119Y87619D02*
G03*
X91116Y89389I-884J884D01*
G01*
X159493Y140500D02*
G03*
X159502Y140500I0J1250D01*
G01*
X144518Y140500D02*
G03*
X143636Y140136I0J-1250D01*
G01*
X136169Y132669D02*
G03*
X136169Y130902I884J-884D01*
G01*
D02*
G03*
X137937Y130902I884J884D01*
G01*
X145553Y138000D02*
G03*
X144672Y137636I0J-1250D01*
G01*
X160750Y136750D02*
G03*
X159500Y138000I-1250J0D01*
G01*
Y135500D02*
G03*
X160750Y136750I0J1250D01*
G01*
X146589Y135500D02*
G03*
X145707Y135136I0J-1250D01*
G01*
X136169Y127366D02*
G03*
X137935Y127364I884J884D01*
G01*
X134402Y129134D02*
G03*
X132634Y129134I-884J-884D01*
G01*
X42823Y69823D02*
G03*
X42819Y68059I884J-884D01*
G01*
X44593Y64522D02*
G03*
X44593Y66285I-886J881D01*
G01*
X21035Y42732D02*
G03*
X22803Y42732I884J884D01*
G01*
X21035Y44500D02*
G03*
X21035Y42732I884J-884D01*
G01*
X41055Y64520D02*
G03*
X41055Y66288I-884J884D01*
G01*
D02*
G03*
X39288Y66288I-884J-884D01*
G01*
X10482Y38000D02*
G03*
X11364Y38364I0J1250D01*
G01*
X80948Y95432D02*
G03*
X80945Y95429I878J-889D01*
G01*
X55452Y71704D02*
G03*
X57220Y71704I884J884D01*
G01*
X55452Y73472D02*
G03*
X55452Y71704I884J-884D01*
G01*
X77429Y95448D02*
G03*
X77429Y97216I-884J884D01*
G01*
D02*
G03*
X75661Y97216I-884J-884D01*
G01*
X51914Y73470D02*
G03*
X51914Y71707I886J-881D01*
G01*
X53685Y68169D02*
G03*
X53687Y69934I-884J884D01*
G01*
X-22287Y73976D02*
G03*
X-20522Y73978I881J886D01*
G01*
X-24057Y75746D02*
G03*
X-25823Y75748I-884J-884D01*
G01*
X-30165Y71406D02*
G03*
X-30165Y69638I884J-884D01*
G01*
D02*
G03*
X-28397Y69638I884J884D01*
G01*
X-24057Y72210D02*
G03*
X-25825Y72210I-884J-884D01*
G01*
X-24057Y70443D02*
G03*
X-24057Y72210I-884J884D01*
G01*
X-31136Y63364D02*
G03*
X-31500Y62482I886J-881D01*
G01*
X15518Y109500D02*
G03*
X14636Y109136I0J-1250D01*
G01*
X-2126Y94142D02*
G03*
X-359Y94142I884J884D01*
G01*
X-2126Y95909D02*
G03*
X-2126Y94142I884J-884D01*
G01*
X13081Y111116D02*
G03*
X13081Y112884I-884J884D01*
G01*
D02*
G03*
X11313Y112884I-884J-884D01*
G01*
X-5664Y95907D02*
G03*
X-5662Y94142I886J-881D01*
G01*
X-3894Y90606D02*
G03*
X-3891Y92371I-884J884D01*
G01*
X42636Y76136D02*
G03*
X43000Y77018I-886J881D01*
G01*
X37743Y73006D02*
G03*
X39506Y73006I881J886D01*
G01*
X35971Y74779D02*
G03*
X34208Y74779I-881J-886D01*
G01*
X15911Y57000D02*
G03*
X16793Y57364I0J1250D01*
G01*
X-1053Y57000D02*
G03*
X-1935Y56636I0J-1250D01*
G01*
X-5116Y53455D02*
G03*
X-5116Y51687I884J-884D01*
G01*
D02*
G03*
X-3348Y51687I884J884D01*
G01*
X-18Y54500D02*
G03*
X-899Y54136I0J-1250D01*
G01*
X16947Y54500D02*
G03*
X17828Y54864I0J1250D01*
G01*
X35973Y71241D02*
G03*
X34205Y71241I-884J-884D01*
G01*
X35973Y69473D02*
G03*
X35973Y71241I-884J884D01*
G01*
X17982Y52000D02*
G03*
X18864Y52364I0J1250D01*
G01*
X1018Y52000D02*
G03*
X136Y51636I0J-1250D01*
G01*
X-5136Y46364D02*
G03*
X-5500Y45482I886J-881D01*
G01*
X27137Y74900D02*
G03*
X28903Y74903I881J886D01*
G01*
X25365Y76673D02*
G03*
X23602Y76673I-881J-886D01*
G01*
X15911Y69500D02*
G03*
X16793Y69864I0J1250D01*
G01*
X7551Y69500D02*
G03*
X6301Y68250I0J-1250D01*
G01*
D02*
G03*
X7551Y67000I1250J0D01*
G01*
X16947D02*
G03*
X17828Y67364I0J1250D01*
G01*
X25367Y73135D02*
G03*
X23599Y73135I-884J-884D01*
G01*
X25367Y71367D02*
G03*
X25367Y73135I-884J884D01*
G01*
X17982Y64500D02*
G03*
X18864Y64864I0J1250D01*
G01*
X1518Y64500D02*
G03*
X636Y64136I0J-1250D01*
G01*
X-1092Y62408D02*
G03*
X-1091Y62409I-886J881D01*
G01*
X171488Y143256D02*
G03*
X173256Y143256I884J884D01*
G01*
X169837Y144907D02*
G03*
X168069Y144907I-884J-884D01*
G01*
X168069Y144907D02*
G03*
X168069Y143139I884J-884D01*
G01*
X169720Y139720D02*
G03*
X169720Y141488I-884J884D01*
G01*
X193221Y138625D02*
G03*
X191971Y137375I0J-1250D01*
G01*
X198447Y138625D02*
G03*
X198447Y141125I0J1250D01*
G01*
X189754Y141745D02*
G03*
X191259Y141125I1504J1513D01*
G01*
X185746Y166616D02*
G03*
X187514Y166616I884J884D01*
G01*
X180255Y172108D02*
G03*
X178488Y172108I-884J-884D01*
G01*
D02*
G03*
X178488Y170340I884J-884D01*
G01*
X184016Y163044D02*
G03*
X184016Y164811I-884J884D01*
G01*
X182248Y163044D02*
G03*
X184016Y163044I884J884D01*
G01*
X176720Y168572D02*
G03*
X174952Y168572I-884J-884D01*
G01*
X174952Y168572D02*
G03*
X174952Y166804I884J-884D01*
G01*
X180443Y159546D02*
G03*
X180443Y161313I-884J884D01*
G01*
X54876Y102640D02*
G03*
X56642Y102642I882J886D01*
G01*
X53106Y104410D02*
G03*
X51341Y104412I-884J-884D01*
G01*
X31599Y84670D02*
G03*
X31599Y82902I884J-884D01*
G01*
D02*
G03*
X33367Y82902I884J884D01*
G01*
X53106Y100874D02*
G03*
X51339Y100874I-884J-884D01*
G01*
X53106Y99107D02*
G03*
X53106Y100874I-884J884D01*
G01*
X34059Y80059D02*
G03*
X34060Y80060I-886J881D01*
G01*
X151194Y78194D02*
G03*
X151194Y76427I884J-884D01*
G01*
X151197Y74661D02*
G03*
X151194Y76427I-886J881D01*
G01*
X132903Y58135D02*
G03*
X134671Y58135I884J884D01*
G01*
X132903Y59903D02*
G03*
X132903Y58135I884J-884D01*
G01*
X147659Y74659D02*
G03*
X147659Y76427I-884J884D01*
G01*
D02*
G03*
X145891Y76427I-884J-884D01*
G01*
X129365Y59901D02*
G03*
X129365Y58138I886J-881D01*
G01*
X129368Y56368D02*
G03*
X129365Y58138I-884J884D01*
G01*
X145584Y86584D02*
G03*
X145582Y84819I884J-884D01*
G01*
X145587Y83051D02*
G03*
X145582Y84819I-886J881D01*
G01*
X124522Y63754D02*
G03*
X126290Y63754I884J884D01*
G01*
X124522Y65522D02*
G03*
X124522Y63754I884J-884D01*
G01*
X142049Y83049D02*
G03*
X142049Y84817I-884J884D01*
G01*
D02*
G03*
X140281Y84817I-884J-884D01*
G01*
X120984Y65520D02*
G03*
X120984Y63757I886J-881D01*
G01*
X120987Y61987D02*
G03*
X120984Y63757I-884J884D01*
G01*
X144019Y13519D02*
G03*
X144017Y11753I884J-884D01*
G01*
X144021Y9986D02*
G03*
X144017Y11753I-886J881D01*
G01*
X132850Y582D02*
G03*
X134618Y582I884J884D01*
G01*
X132850Y2350D02*
G03*
X132850Y582I884J-884D01*
G01*
X140351Y9851D02*
G03*
X140351Y11619I-884J884D01*
G01*
D02*
G03*
X138583Y11619I-884J-884D01*
G01*
X129312Y2348D02*
G03*
X129312Y585I886J-881D01*
G01*
X129315Y-1185D02*
G03*
X129312Y585I-884J884D01*
G01*
X144437Y29937D02*
G03*
X144436Y28169I884J-884D01*
G01*
X144439Y26403D02*
G03*
X144436Y28169I-886J881D01*
G01*
X115438Y-830D02*
G03*
X117206Y-830I884J884D01*
G01*
X115438Y938D02*
G03*
X115438Y-830I884J-884D01*
G01*
X140901Y26401D02*
G03*
X140901Y28169I-884J884D01*
G01*
D02*
G03*
X139133Y28169I-884J-884D01*
G01*
X111900Y936D02*
G03*
X111900Y-827I886J-881D01*
G01*
X111903Y-2597D02*
G03*
X111900Y-827I-884J884D01*
G01*
X135190Y36690D02*
G03*
X135188Y34925I884J-884D01*
G01*
X135193Y33157D02*
G03*
X135188Y34925I-886J881D01*
G01*
X108209Y7941D02*
G03*
X109977Y7941I884J884D01*
G01*
X108209Y9709D02*
G03*
X108209Y7941I884J-884D01*
G01*
X131655Y33155D02*
G03*
X131655Y34923I-884J884D01*
G01*
D02*
G03*
X129887Y34923I-884J-884D01*
G01*
X104671Y9707D02*
G03*
X104671Y7944I886J-881D01*
G01*
X104674Y6174D02*
G03*
X104671Y7944I-884J884D01*
G01*
X176731Y54231D02*
G03*
X176731Y52463I884J-884D01*
G01*
X176733Y50698D02*
G03*
X176731Y52463I-886J881D01*
G01*
X161056Y36788D02*
G03*
X162824Y36788I884J884D01*
G01*
X161056Y38556D02*
G03*
X161056Y36788I884J-884D01*
G01*
X173186Y50686D02*
G03*
X173186Y52454I-884J884D01*
G01*
D02*
G03*
X171418Y52454I-884J-884D01*
G01*
X157518Y38554D02*
G03*
X157518Y36791I886J-881D01*
G01*
X157521Y35021D02*
G03*
X157518Y36791I-884J884D01*
G01*
X174564Y68064D02*
G03*
X174562Y66298I884J-884D01*
G01*
X174566Y64531D02*
G03*
X174562Y66298I-886J881D01*
G01*
X146432Y38164D02*
G03*
X148199Y38164I884J884D01*
G01*
X146432Y39932D02*
G03*
X146432Y38164I884J-884D01*
G01*
X171028Y64528D02*
G03*
X171028Y66296I-884J884D01*
G01*
D02*
G03*
X169261Y66296I-884J-884D01*
G01*
X142894Y39929D02*
G03*
X142894Y38166I886J-881D01*
G01*
X142896Y36396D02*
G03*
X142894Y38166I-884J884D01*
G01*
X165264Y74764D02*
G03*
X165262Y72999I884J-884D01*
G01*
X165267Y71231D02*
G03*
X165262Y72999I-886J881D01*
G01*
X139236Y46968D02*
G03*
X141004Y46968I884J884D01*
G01*
X139236Y48736D02*
G03*
X139236Y46968I884J-884D01*
G01*
X161729Y71229D02*
G03*
X161729Y72997I-884J884D01*
G01*
D02*
G03*
X159961Y72997I-884J-884D01*
G01*
X135698Y48733D02*
G03*
X135698Y46971I886J-881D01*
G01*
X135700Y45200D02*
G03*
X135698Y46971I-884J884D01*
G01*
X184750Y130500D02*
G03*
X186000Y131750I0J1250D01*
G01*
X182850Y130500D02*
G03*
X182850Y128000I0J-1250D01*
G01*
X186000Y126750D02*
G03*
X184750Y128000I-1250J0D01*
G01*
X121140Y55140D02*
G03*
X121138Y53374I884J-884D01*
G01*
X121143Y51607D02*
G03*
X121138Y53374I-886J881D01*
G01*
X99940Y32173D02*
G03*
X101708Y32173I884J884D01*
G01*
X99940Y33940D02*
G03*
X99940Y32173I884J-884D01*
G01*
X117603Y51603D02*
G03*
X117603Y53371I-884J884D01*
G01*
D02*
G03*
X115835Y53371I-884J-884D01*
G01*
X96402Y33938D02*
G03*
X96402Y32175I886J-881D01*
G01*
X96405Y30405D02*
G03*
X96402Y32175I-884J884D01*
G01*
X114573Y62573D02*
G03*
X114571Y60807I884J-884D01*
G01*
X114576Y59040D02*
G03*
X114571Y60807I-886J881D01*
G01*
X91639Y37871D02*
G03*
X93407Y37871I884J884D01*
G01*
X91639Y39639D02*
G03*
X91639Y37871I884J-884D01*
G01*
X110865Y58865D02*
G03*
X110865Y60633I-884J884D01*
G01*
D02*
G03*
X109098Y60633I-884J-884D01*
G01*
X88101Y39636D02*
G03*
X88101Y37874I886J-881D01*
G01*
X88103Y36103D02*
G03*
X88101Y37874I-884J884D01*
G01*
X71275Y162500D02*
G03*
X70393Y162136I0J-1250D01*
G01*
X68536Y160279D02*
G03*
X68536Y158516I886J-881D01*
G01*
X70309Y154981D02*
G03*
X70309Y156743I-886J881D01*
G01*
X44946Y131386D02*
G03*
X46714Y131386I884J884D01*
G01*
X44946Y133154D02*
G03*
X44946Y131386I884J-884D01*
G01*
X66770Y154978D02*
G03*
X66770Y156746I-884J884D01*
G01*
D02*
G03*
X65003Y156746I-884J-884D01*
G01*
X40739Y133000D02*
G03*
X41621Y133364I0J1250D01*
G01*
X60186Y134186D02*
G03*
X60191Y134191I-875J893D01*
G01*
X59364Y133364D02*
G03*
X59000Y132482I886J-881D01*
G01*
X58636Y125136D02*
G03*
X59000Y126018I-886J881D01*
G01*
X35494Y103762D02*
G03*
X37262Y103762I884J884D01*
G01*
X35494Y105530D02*
G03*
X35494Y103762I884J-884D01*
G01*
X55158Y125194D02*
G03*
X55158Y126962I-884J884D01*
G01*
D02*
G03*
X53390Y126962I-884J-884D01*
G01*
X31956Y105527D02*
G03*
X31955Y103766I886J-881D01*
G01*
X33726Y100226D02*
G03*
X33729Y101991I-884J884D01*
G01*
X91352Y154352D02*
G03*
X91349Y154349I878J-889D01*
G01*
X66155Y130923D02*
G03*
X67923Y130923I884J884D01*
G01*
X66155Y132691D02*
G03*
X66155Y130923I884J-884D01*
G01*
X89584Y156119D02*
G03*
X89584Y157887I-884J884D01*
G01*
D02*
G03*
X87816Y157887I-884J-884D01*
G01*
X62617Y132688D02*
G03*
X62617Y130926I886J-881D01*
G01*
X64388Y127388D02*
G03*
X64390Y129153I-884J884D01*
G01*
X58479Y161479D02*
G03*
X58481Y161481I-886J881D01*
G01*
X39139Y142139D02*
G03*
X39139Y140371I884J-884D01*
G01*
D02*
G03*
X40907Y140371I884J884D01*
G01*
X60521Y158218D02*
G03*
X58754Y158218I-884J-884D01*
G01*
X60521Y156450D02*
G03*
X60521Y158218I-884J884D01*
G01*
X39139Y136836D02*
G03*
X40905Y136833I884J884D01*
G01*
X37371Y138604D02*
G03*
X35604Y138604I-884J-884D01*
G01*
X64826Y104826D02*
G03*
X64828Y104828I-886J881D01*
G01*
X52190Y92190D02*
G03*
X52190Y90422I884J-884D01*
G01*
D02*
G03*
X53957Y90422I884J884D01*
G01*
X66288Y100984D02*
G03*
X64520Y100985I-884J-884D01*
G01*
X66288Y99217D02*
G03*
X66288Y100984I-884J884D01*
G01*
X52192Y86884D02*
G03*
X53955Y86884I881J886D01*
G01*
X50422Y88654D02*
G03*
X48657Y88657I-884J-884D01*
G01*
X46864Y86864D02*
G03*
X46500Y85982I886J-881D01*
G01*
X46136Y76636D02*
G03*
X46500Y77518I-886J881D01*
G01*
X45649Y76149D02*
G03*
X45647Y76147I878J-889D01*
G01*
X138640Y100585D02*
G03*
X138636Y98821I884J-884D01*
G01*
X140410Y95284D02*
G03*
X140410Y97047I-886J881D01*
G01*
X82385Y39026D02*
G03*
X84152Y39026I884J884D01*
G01*
X82385Y40794D02*
G03*
X82385Y39026I884J-884D01*
G01*
X136872Y95281D02*
G03*
X136872Y97049I-884J884D01*
G01*
D02*
G03*
X135104Y97049I-884J-884D01*
G01*
X75586Y37531D02*
G03*
X75585Y37530I880J-888D01*
G01*
X24482Y88000D02*
G03*
X24477Y88000I-5J-1250D01*
G01*
X15518D02*
G03*
X14636Y87636I0J-1250D01*
G01*
X-991Y73777D02*
G03*
X777Y73777I884J884D01*
G01*
X-991Y75545D02*
G03*
X-991Y73777I884J-884D01*
G01*
X14482Y90500D02*
G03*
X13601Y90136I0J-1250D01*
G01*
X23847Y90500D02*
G03*
X25097Y91750I0J1250D01*
G01*
D02*
G03*
X23847Y93000I-1250J0D01*
G01*
X13447D02*
G03*
X12565Y92636I0J-1250D01*
G01*
X-4529Y75542D02*
G03*
X-4529Y73779I886J-881D01*
G01*
X-2759Y70241D02*
G03*
X-2756Y72006I-884J884D01*
G01*
X91045Y147239D02*
G03*
X91046Y147240I-886J881D01*
G01*
X64164Y120358D02*
G03*
X64164Y118590I884J-884D01*
G01*
D02*
G03*
X65931Y118590I884J884D01*
G01*
X93482Y144373D02*
G03*
X91715Y144373I-884J-884D01*
G01*
X93482Y142605D02*
G03*
X93482Y144373I-884J884D01*
G01*
X64167Y115051D02*
G03*
X65929Y115052I880J888D01*
G01*
X62393Y116825D02*
G03*
X60628Y116822I-881J-886D01*
G01*
X68261Y66995D02*
G03*
X68262Y66996I-886J881D01*
G01*
X40774Y39508D02*
G03*
X40774Y37740I884J-884D01*
G01*
D02*
G03*
X42541Y37740I884J884D01*
G01*
X71042Y64473D02*
G03*
X69274Y64473I-884J-884D01*
G01*
X71042Y62705D02*
G03*
X71042Y64473I-884J884D01*
G01*
X40778Y34201D02*
G03*
X42539Y34202I880J888D01*
G01*
X39003Y35975D02*
G03*
X37238Y35973I-881J-886D01*
G01*
X105538Y139135D02*
G03*
X105540Y139136I-886J881D01*
G01*
X82680Y116276D02*
G03*
X82680Y114509I884J-884D01*
G01*
D02*
G03*
X84448Y114509I884J884D01*
G01*
X109075Y137368D02*
G03*
X107307Y137368I-884J-884D01*
G01*
X109075Y135600D02*
G03*
X109075Y137368I-884J884D01*
G01*
X82684Y110969D02*
G03*
X84446Y110971I880J888D01*
G01*
X80910Y112743D02*
G03*
X79145Y112741I-881J-886D01*
G01*
X122871Y133355D02*
G03*
X122868Y133352I878J-889D01*
G01*
X100715Y112968D02*
G03*
X102483Y112968I884J884D01*
G01*
X100715Y114735D02*
G03*
X100715Y112968I884J-884D01*
G01*
X120329Y134348D02*
G03*
X120328Y136116I-884J884D01*
G01*
D02*
G03*
X118561Y136116I-884J-884D01*
G01*
X97177Y114733D02*
G03*
X97177Y112970I886J-881D01*
G01*
X98948Y109432D02*
G03*
X98950Y111197I-884J884D01*
G01*
X168491Y148500D02*
G03*
X168504Y148500I0J1250D01*
G01*
X142187Y148500D02*
G03*
X141306Y148136I0J-1250D01*
G01*
X123532Y130362D02*
G03*
X123532Y128595I884J-884D01*
G01*
D02*
G03*
X125299Y128595I884J884D01*
G01*
X143223Y146000D02*
G03*
X142341Y145636I0J-1250D01*
G01*
X160865Y144750D02*
G03*
X159615Y146000I-1250J0D01*
G01*
Y143500D02*
G03*
X160865Y144750I0J1250D01*
G01*
X144258Y143500D02*
G03*
X143377Y143136I0J-1250D01*
G01*
X123530Y125058D02*
G03*
X125296Y125055I884J884D01*
G01*
X121763Y126825D02*
G03*
X119995Y126825I-884J-884D01*
G01*
X-171075Y-161157D02*
G03*
X-171075Y-162925I884J-884D01*
G01*
X-168914Y-158996D02*
G03*
X-168914Y-157228I-884J884D01*
G01*
X-168914Y-157228D02*
G03*
X-170682Y-157228I-884J-884D01*
G01*
X-176128Y-160906D02*
G03*
X-174360Y-160906I884J884D01*
G01*
X-176128Y-159138D02*
G03*
X-176128Y-160906I884J-884D01*
G01*
X-172450Y-155461D02*
G03*
X-172450Y-153693I-884J884D01*
G01*
X-172450Y-153693D02*
G03*
X-174218Y-153693I-884J-884D01*
G01*
X-179663Y-157370D02*
G03*
X-177895Y-157370I884J884D01*
G01*
X-179663Y-155603D02*
G03*
X-179663Y-157370I884J-884D01*
G01*
X-175986Y-151925D02*
G03*
X-175986Y-150157I-884J884D01*
G01*
D02*
G03*
X-177753Y-150157I-884J-884D01*
G01*
X-183199Y-153835D02*
G03*
X-181431Y-153835I884J884D01*
G01*
X-183199Y-152067D02*
G03*
X-183199Y-153835I884J-884D01*
G01*
X-179521Y-148389D02*
G03*
X-179521Y-146622I-884J884D01*
G01*
X-179521Y-146622D02*
G03*
X-181289Y-146622I-884J-884D01*
G01*
X-186734Y-150299D02*
G03*
X-184966Y-150299I884J884D01*
G01*
X-186734Y-148532D02*
G03*
X-186734Y-150299I884J-884D01*
G01*
X-183057Y-144854D02*
G03*
X-183056Y-143086I-884J884D01*
G01*
D02*
G03*
X-184824Y-143086I-884J-884D01*
G01*
X-190270Y-146764D02*
G03*
X-188502Y-146764I884J884D01*
G01*
X-190270Y-144996D02*
G03*
X-190270Y-146764I884J-884D01*
G01*
X-187705Y-142431D02*
G03*
X-187705Y-140663I-884J884D01*
G01*
X-187705Y-140663D02*
G03*
X-189473Y-140663I-884J-884D01*
G01*
X-192288Y-141711D02*
G03*
X-190521Y-141711I884J884D01*
G01*
X-178386Y-166000D02*
G03*
X-178398Y-166000I-12J-1250D01*
G01*
X-187864Y-165636D02*
G03*
X-186982Y-166000I881J886D01*
G01*
X-194826Y-156906D02*
G03*
X-194826Y-158674I884J-884D01*
G01*
X-193058Y-156906D02*
G03*
X-194826Y-156906I-884J-884D01*
G01*
X-186828Y-163136D02*
G03*
X-185947Y-163500I881J886D01*
G01*
X-179710D02*
G03*
X-178460Y-162250I0J1250D01*
G01*
D02*
G03*
X-179710Y-161000I-1250J0D01*
G01*
X-185795Y-160634D02*
G03*
X-184911Y-161000I884J884D01*
G01*
X-193058Y-153371D02*
G03*
X-194823Y-153368I-884J-884D01*
G01*
X-198359Y-155141D02*
G03*
X-196596Y-155141I881J886D01*
G01*
X-199240Y-154261D02*
G03*
X-199240Y-154260I-884J-884D01*
G01*
X-178063Y-133000D02*
G03*
X-179313Y-134250I0J-1250D01*
G01*
D02*
G03*
X-178063Y-135500I1250J0D01*
G01*
X-145055Y-136750D02*
G03*
X-146305Y-135500I-1250J0D01*
G01*
Y-138000D02*
G03*
X-145055Y-136750I0J1250D01*
G01*
X-181813D02*
G03*
X-180563Y-138000I1250J0D01*
G01*
X-181813Y-134245D02*
G03*
X-183063Y-133000I-1250J-5D01*
G01*
X-179313Y-129750D02*
G03*
X-178063Y-131000I1250J0D01*
G01*
Y-128500D02*
G03*
X-179313Y-129750I0J-1250D01*
G01*
X-146250Y-128500D02*
G03*
X-145000Y-127250I0J1250D01*
G01*
D02*
G03*
X-146250Y-126000I-1250J0D01*
G01*
X-180563D02*
G03*
X-181813Y-127250I0J-1250D01*
G01*
X-183063Y-131000D02*
G03*
X-181813Y-129750I0J1250D01*
G01*
X-208500Y-149530D02*
G03*
X-209750Y-148280I-1250J0D01*
G01*
X-215029Y-145780D02*
G03*
X-215029Y-148280I0J-1250D01*
G01*
X-207273Y-145780D02*
G03*
X-207273Y-143280I0J1250D01*
G01*
X-215029Y-140779D02*
G03*
X-215029Y-143280I0J-1250D01*
G01*
X-207093Y-140779D02*
G03*
X-207093Y-138279I0J1250D01*
G01*
X-210342Y-137658D02*
G03*
X-208837Y-138279I1505J1512D01*
G01*
X-201500Y-149629D02*
G03*
X-202750Y-148379I-1250J0D01*
G01*
X-203525Y-145879D02*
G03*
X-203525Y-148379I0J-1250D01*
G01*
X-199946Y-145879D02*
G03*
X-199946Y-143379I0J1250D01*
G01*
X-203344Y-140879D02*
G03*
X-203344Y-143379I0J-1250D01*
G01*
X-199946Y-140879D02*
G03*
X-199946Y-138379I0J1250D01*
G01*
X-203242Y-137758D02*
G03*
X-201737Y-138379I1505J1512D01*
G01*
X124832Y105595D02*
G03*
X126597Y105597I881J886D01*
G01*
X123062Y107365D02*
G03*
X121296Y107367I-884J-884D01*
G01*
X96411Y83000D02*
G03*
X97293Y83364I0J1250D01*
G01*
X83724Y83000D02*
G03*
X82474Y81750I0J-1250D01*
G01*
D02*
G03*
X83724Y80500I1250J0D01*
G01*
X97447D02*
G03*
X98328Y80864I0J1250D01*
G01*
X123062Y103829D02*
G03*
X121294Y103829I-884J-884D01*
G01*
X123062Y102062D02*
G03*
X123062Y103829I-884J884D01*
G01*
X98482Y78000D02*
G03*
X99364Y78364I0J1250D01*
G01*
X-121500Y-129258D02*
G03*
X-120500Y-130258I1000J0D01*
G01*
X-119500Y-131258D02*
G03*
X-120500Y-130258I-1000J0D01*
G01*
Y-144840D02*
G03*
X-119500Y-143840I0J1000D01*
G01*
X-121500D02*
G03*
X-120500Y-144840I1000J0D01*
G01*
X-121500Y-133258D02*
G03*
X-122500Y-132258I-1000J0D01*
G01*
D02*
G03*
X-123500Y-133258I0J-1000D01*
G01*
Y-145840D02*
G03*
X-122500Y-146840I1000J0D01*
G01*
X-121500Y-147840D02*
G03*
X-122500Y-146840I-1000J0D01*
G01*
X-81455Y-123951D02*
G03*
X-81410Y-123910I-659J752D01*
G01*
X-81690Y-124158D02*
G03*
X-81737Y-124201I659J-752D01*
G01*
X-94709Y-137173D02*
G03*
X-95000Y-137879I709J-705D01*
G01*
X-96000Y-146426D02*
G03*
X-95000Y-145426I0J1000D01*
G01*
X-97000D02*
G03*
X-96000Y-146426I1000J0D01*
G01*
X-96709Y-136345D02*
G03*
X-97000Y-137050I709J-705D01*
G01*
X-82995Y-122632D02*
G03*
X-82995Y-121218I-707J707D01*
G01*
D02*
G03*
X-84410Y-121218I-707J-707D01*
G01*
X-98709Y-135517D02*
G03*
X-99000Y-136222I709J-705D01*
G01*
Y-147426D02*
G03*
X-98000Y-148426I1000J0D01*
G01*
X-97000Y-149426D02*
G03*
X-98000Y-148426I-1000J0D01*
G01*
X-74488Y-115574D02*
G03*
X-73074Y-115574I707J707D01*
G01*
X-74488Y-114160D02*
G03*
X-74488Y-115574I707J-707D01*
G01*
X-69631Y-109302D02*
G03*
X-69631Y-107888I-707J707D01*
G01*
X-69631Y-107888D02*
G03*
X-71045Y-107888I-707J-707D01*
G01*
X-77318Y-114161D02*
G03*
X-77318Y-115572I709J-705D01*
G01*
X-75902Y-118402D02*
G03*
X-75901Y-116990I-707J707D01*
G01*
X-57407Y-98496D02*
G03*
X-55994Y-98494I705J709D01*
G01*
X-58824Y-97078D02*
G03*
X-60235Y-97078I-705J-709D01*
G01*
X-68167Y-105010D02*
G03*
X-68167Y-106424I707J-707D01*
G01*
X-68167Y-106424D02*
G03*
X-66752Y-106424I707J707D01*
G01*
X-58821Y-101321D02*
G03*
X-60235Y-99906I-709J705D01*
G01*
X-63217Y-105717D02*
G03*
X-63217Y-107131I707J-707D01*
G01*
D02*
G03*
X-61803Y-107131I707J707D01*
G01*
X-53873Y-100615D02*
G03*
X-55287Y-100615I-707J-707D01*
G01*
X-53873Y-102030D02*
G03*
X-53873Y-100615I-707J707D01*
G01*
X-63215Y-109961D02*
G03*
X-61804Y-109961I705J709D01*
G01*
X-64633Y-108544D02*
G03*
X-66045Y-108545I-705J-709D01*
G01*
X-50320Y-121320D02*
G03*
X-50322Y-122733I707J-707D01*
G01*
X-50319Y-124147D02*
G03*
X-50322Y-122733I-709J705D01*
G01*
X-68326Y-140740D02*
G03*
X-66912Y-140740I707J707D01*
G01*
X-68326Y-139326D02*
G03*
X-68326Y-140740I707J-707D01*
G01*
X-53149Y-124149D02*
G03*
X-53149Y-122735I-707J707D01*
G01*
D02*
G03*
X-54563Y-122735I-707J-707D01*
G01*
X-71156Y-139328D02*
G03*
X-71156Y-140739I709J-705D01*
G01*
X-71154Y-142154D02*
G03*
X-71156Y-140739I-707J707D01*
G01*
X-45011Y-107004D02*
G03*
X-45012Y-108417I707J-707D01*
G01*
X-45009Y-109831D02*
G03*
X-45012Y-108417I-709J705D01*
G01*
X-81709Y-146531D02*
G03*
X-82000Y-147236I709J-705D01*
G01*
X-83000Y-149301D02*
G03*
X-82000Y-148301I0J1000D01*
G01*
X-84000D02*
G03*
X-83000Y-149301I1000J0D01*
G01*
X-83709Y-145702D02*
G03*
X-84000Y-146408I709J-705D01*
G01*
X-47839Y-109833D02*
G03*
X-47839Y-108419I-707J707D01*
G01*
D02*
G03*
X-49253Y-108419I-707J-707D01*
G01*
X-85709Y-144874D02*
G03*
X-86000Y-145580I709J-705D01*
G01*
Y-150301D02*
G03*
X-85000Y-151301I1000J0D01*
G01*
X-84000Y-152301D02*
G03*
X-85000Y-151301I-1000J0D01*
G01*
X-59931Y-111931D02*
G03*
X-59932Y-113344I707J-707D01*
G01*
X-59929Y-114758D02*
G03*
X-59932Y-113344I-709J705D01*
G01*
X-88209Y-143037D02*
G03*
X-88500Y-143743I709J-705D01*
G01*
X-89500Y-146508D02*
G03*
X-88500Y-145508I0J1000D01*
G01*
X-90500D02*
G03*
X-89500Y-146508I1000J0D01*
G01*
X-90209Y-142209D02*
G03*
X-90500Y-142914I709J-705D01*
G01*
X-62759Y-114759D02*
G03*
X-62759Y-113345I-707J707D01*
G01*
D02*
G03*
X-64174Y-113345I-707J-707D01*
G01*
X-92209Y-141380D02*
G03*
X-92500Y-142086I709J-705D01*
G01*
Y-147508D02*
G03*
X-91500Y-148507I1000J0D01*
G01*
X-90500Y-149507D02*
G03*
X-91500Y-148507I-1000J0D01*
G01*
X-68972Y-93972D02*
G03*
X-68973Y-95385I707J-707D01*
G01*
X-68971Y-96799D02*
G03*
X-68973Y-95385I-709J705D01*
G01*
X-103709Y-131537D02*
G03*
X-104000Y-132243I709J-705D01*
G01*
X-105000Y-144805D02*
G03*
X-104000Y-143805I0J1000D01*
G01*
X-106000D02*
G03*
X-105000Y-144805I1000J0D01*
G01*
X-105709Y-130709D02*
G03*
X-106000Y-131414I709J-705D01*
G01*
X-71801Y-96801D02*
G03*
X-71801Y-95386I-707J707D01*
G01*
D02*
G03*
X-73215Y-95386I-707J-707D01*
G01*
X-107709Y-129880D02*
G03*
X-108000Y-130586I709J-705D01*
G01*
Y-145805D02*
G03*
X-107000Y-146805I1000J0D01*
G01*
X-106000Y-147805D02*
G03*
X-107000Y-146805I-1000J0D01*
G01*
X-83561Y-94061D02*
G03*
X-83562Y-95474I707J-707D01*
G01*
X-83559Y-96887D02*
G03*
X-83562Y-95474I-709J705D01*
G01*
X-110209Y-123537D02*
G03*
X-110500Y-124243I709J-705D01*
G01*
X-111500Y-144786D02*
G03*
X-110500Y-143786I0J1000D01*
G01*
X-112500D02*
G03*
X-111500Y-144786I1000J0D01*
G01*
X-112209Y-122709D02*
G03*
X-112500Y-123414I709J-705D01*
G01*
X-86389Y-96889D02*
G03*
X-86389Y-95475I-707J707D01*
G01*
D02*
G03*
X-87803Y-95475I-707J-707D01*
G01*
X-114209Y-121880D02*
G03*
X-114500Y-122586I709J-705D01*
G01*
Y-145786D02*
G03*
X-113500Y-146786I1000J0D01*
G01*
X-112500Y-147786D02*
G03*
X-113500Y-146786I-1000J0D01*
G01*
X51000Y-103839D02*
G03*
X52250Y-105089I1250J0D01*
G01*
X56435Y-107589D02*
G03*
X56435Y-105089I0J1250D01*
G01*
X52238Y-107589D02*
G03*
X52238Y-110089I0J-1250D01*
G01*
X56435Y-112589D02*
G03*
X56435Y-110089I0J1250D01*
G01*
X52250Y-112589D02*
G03*
X51000Y-113839I0J-1250D01*
G01*
X-14367Y-156867D02*
G03*
X-14368Y-158280I707J-707D01*
G01*
X-14365Y-159694D02*
G03*
X-14368Y-158280I-709J705D01*
G01*
X-46180Y-190094D02*
G03*
X-44765Y-190094I707J707D01*
G01*
X-46180Y-188680D02*
G03*
X-46180Y-190094I707J-707D01*
G01*
X-17195Y-159695D02*
G03*
X-17195Y-158281I-707J707D01*
G01*
D02*
G03*
X-18609Y-158281I-707J-707D01*
G01*
X-49010Y-188681D02*
G03*
X-49009Y-190093I709J-705D01*
G01*
X-49008Y-191508D02*
G03*
X-49009Y-190093I-707J707D01*
G01*
X15101Y-121399D02*
G03*
X15100Y-122812I707J-707D01*
G01*
X15103Y-124226D02*
G03*
X15100Y-122812I-709J705D01*
G01*
X-17345Y-155259D02*
G03*
X-15931Y-155259I707J707D01*
G01*
X-17345Y-153845D02*
G03*
X-17345Y-155259I707J-707D01*
G01*
X12273Y-124227D02*
G03*
X12273Y-122813I-707J707D01*
G01*
D02*
G03*
X10859Y-122813I-707J-707D01*
G01*
X-20175Y-153847D02*
G03*
X-20175Y-155258I709J-705D01*
G01*
X-20174Y-156674D02*
G03*
X-20175Y-155258I-707J707D01*
G01*
X-32746Y-151246D02*
G03*
X-32747Y-152659I707J-707D01*
G01*
X-32745Y-154073D02*
G03*
X-32747Y-152659I-709J705D01*
G01*
X-58298Y-178212D02*
G03*
X-56884Y-178212I707J707D01*
G01*
X-58298Y-176798D02*
G03*
X-58298Y-178212I707J-707D01*
G01*
X-35575Y-154075D02*
G03*
X-35575Y-152660I-707J707D01*
G01*
D02*
G03*
X-36989Y-152660I-707J-707D01*
G01*
X-61128Y-176800D02*
G03*
X-61128Y-178211I709J-705D01*
G01*
X-61127Y-179627D02*
G03*
X-61128Y-178211I-707J707D01*
G01*
X-40443Y-170943D02*
G03*
X-40444Y-172356I707J-707D01*
G01*
X-40441Y-173770D02*
G03*
X-40444Y-172356I-709J705D01*
G01*
X-52261Y-184175D02*
G03*
X-50847Y-184175I707J707D01*
G01*
X-52261Y-182761D02*
G03*
X-52261Y-184175I707J-707D01*
G01*
X-43271Y-173771D02*
G03*
X-43271Y-172357I-707J707D01*
G01*
D02*
G03*
X-44685Y-172357I-707J-707D01*
G01*
X-55091Y-182762D02*
G03*
X-55090Y-184174I709J-705D01*
G01*
X-55089Y-185589D02*
G03*
X-55090Y-184174I-707J707D01*
G01*
X8942Y-115558D02*
G03*
X8941Y-116971I707J-707D01*
G01*
X8944Y-118384D02*
G03*
X8941Y-116971I-709J705D01*
G01*
X-17874Y-143788D02*
G03*
X-16459Y-143788I707J707D01*
G01*
X-17874Y-142374D02*
G03*
X-17874Y-143788I707J-707D01*
G01*
X6114Y-118386D02*
G03*
X6114Y-116972I-707J707D01*
G01*
D02*
G03*
X4700Y-116972I-707J-707D01*
G01*
X-20704Y-142375D02*
G03*
X-20703Y-143787I709J-705D01*
G01*
X-20702Y-145202D02*
G03*
X-20703Y-143787I-707J707D01*
G01*
X-44745Y190584D02*
G03*
X-42977Y190584I884J884D01*
G01*
X-46581Y192419D02*
G03*
X-48348Y192419I-884J-884D01*
G01*
X-48348Y192419D02*
G03*
X-48348Y190652I884J-884D01*
G01*
X-46293Y186828D02*
G03*
X-46293Y188596I-884J884D01*
G01*
X-48061Y186828D02*
G03*
X-46293Y186828I884J884D01*
G01*
X-50116Y188884D02*
G03*
X-51884Y188884I-884J-884D01*
G01*
D02*
G03*
X-51884Y187116I884J-884D01*
G01*
X-49828Y183293D02*
G03*
X-49828Y185061I-884J884D01*
G01*
X-51596Y183293D02*
G03*
X-49828Y183293I884J884D01*
G01*
X-53652Y185348D02*
G03*
X-55419Y185348I-884J-884D01*
G01*
X-55419Y185348D02*
G03*
X-55419Y183581I884J-884D01*
G01*
X-53584Y179977D02*
G03*
X-53584Y181745I-884J884D01*
G01*
X-18000Y219500D02*
G03*
X-16750Y218250I1250J0D01*
G01*
X-16311Y215750D02*
G03*
X-16311Y218250I0J1250D01*
G01*
X-19118Y215750D02*
G03*
X-19118Y213250I0J-1250D01*
G01*
X-16311Y210750D02*
G03*
X-16311Y213250I0J1250D01*
G01*
X-19118Y210750D02*
G03*
X-19118Y208250I0J-1250D01*
G01*
X-16311Y205750D02*
G03*
X-16311Y208250I0J1250D01*
G01*
X-16750Y205750D02*
G03*
X-18000Y204500I0J-1250D01*
G01*
X-58958Y220542D02*
G03*
X-58958Y218774I884J-884D01*
G01*
X-58479Y216527D02*
G03*
X-58479Y218295I-884J884D01*
G01*
X-60247Y216527D02*
G03*
X-58479Y216527I884J884D01*
G01*
X-60860Y217140D02*
G03*
X-62627Y217140I-884J-884D01*
G01*
D02*
G03*
X-62627Y215372I884J-884D01*
G01*
X-62015Y212991D02*
G03*
X-62015Y214759I-884J884D01*
G01*
X-63783Y212991D02*
G03*
X-62015Y212991I884J884D01*
G01*
X-64262Y213471D02*
G03*
X-66030Y213471I-884J-884D01*
G01*
X-33000Y217000D02*
G03*
X-31750Y215750I1250J0D01*
G01*
X-30240Y213250D02*
G03*
X-30240Y215750I0J1250D01*
G01*
X-32000Y213250D02*
G03*
X-32000Y210750I0J-1250D01*
G01*
X-30240Y208250D02*
G03*
X-30240Y210750I0J1250D01*
G01*
X-31750Y208250D02*
G03*
X-33000Y207000I0J-1250D01*
G01*
X-15291Y182709D02*
G03*
X-15291Y180941I884J-884D01*
G01*
X-14227Y178109D02*
G03*
X-14227Y179877I-884J884D01*
G01*
X-15994Y178109D02*
G03*
X-14227Y178109I884J884D01*
G01*
X-17464Y179579D02*
G03*
X-19232Y179579I-884J-884D01*
G01*
X-19232Y179579D02*
G03*
X-19232Y177812I884J-884D01*
G01*
X-17762Y174574D02*
G03*
X-17762Y176342I-884J884D01*
G01*
X-19530Y174574D02*
G03*
X-17762Y174574I884J884D01*
G01*
X-21000Y176044D02*
G03*
X-22768Y176044I-884J-884D01*
G01*
D02*
G03*
X-22768Y174276I884J-884D01*
G01*
X-21298Y171038D02*
G03*
X-21298Y172806I-884J884D01*
G01*
X-23065Y171038D02*
G03*
X-21298Y171038I884J884D01*
G01*
X-24130Y172102D02*
G03*
X-25897Y172102I-884J-884D01*
G01*
X-21998Y183770D02*
G03*
X-20230Y183770I884J884D01*
G01*
X-24452Y186223D02*
G03*
X-26219Y186223I-884J-884D01*
G01*
X-26219Y186223D02*
G03*
X-26219Y184456I884J-884D01*
G01*
X-23110Y179579D02*
G03*
X-23110Y181347I-884J884D01*
G01*
X-24878Y179579D02*
G03*
X-23110Y179579I884J884D01*
G01*
X-27987Y182688D02*
G03*
X-29755Y182688I-884J-884D01*
G01*
D02*
G03*
X-29755Y180920I884J-884D01*
G01*
X-26646Y176044D02*
G03*
X-26646Y177811I-884J884D01*
G01*
X-28414Y176044D02*
G03*
X-26646Y176044I884J884D01*
G01*
X-31523Y179152D02*
G03*
X-33290Y179153I-884J-884D01*
G01*
X-33290Y179152D02*
G03*
X-33290Y177385I884J-884D01*
G01*
X-30837Y173163D02*
G03*
X-30837Y174931I-884J884D01*
G01*
X120323Y116823D02*
X120500Y117000D01*
X96422Y89386D02*
X120326Y113290D01*
X94654Y91154D02*
X116788Y113288D01*
X91116Y91152D02*
X115020Y115055D01*
X90942Y87442D02*
X91119Y87619D01*
X89500Y86000D02*
X90942Y87442D01*
X161000Y140500D02*
X164500D01*
X160750D02*
X161000D01*
X159502Y140500D02*
X160750Y140500D01*
X144518Y140500D02*
X159493D01*
X136169Y132669D02*
X143636Y140136D01*
X137937Y130902D02*
X144672Y137636D01*
X145553Y138000D02*
X159500D01*
X146589Y135500D02*
X159500D01*
X137935Y127364D02*
X145707Y135136D01*
X134402Y129134D02*
X136169Y127366D01*
X132457Y128957D02*
X132634Y129134D01*
X120500Y117000D02*
X132457Y128957D01*
X82500Y86000D02*
X89500D01*
X120500Y117000D02*
Y117000D01*
X121317Y55317D02*
X175700Y109700D01*
Y119203D01*
X161500Y-74500D02*
X205000D01*
X109000Y-133000D02*
X155500Y-86500D01*
X46000Y-133000D02*
X109000D01*
X155000Y-93000D02*
X191500D01*
X108000Y-128000D02*
X161500Y-74500D01*
X45000Y-128000D02*
X108000D01*
X155500Y-86500D02*
X192000D01*
X50000Y-137000D02*
X111000D01*
X155000Y-93000D01*
X51000Y-78500D02*
X71366D01*
X101676Y-44824D02*
X208134D01*
X102819Y-47047D02*
X209209D01*
X71366Y-78500D02*
X102819Y-47047D01*
X52892Y-76000D02*
X70500D01*
X101676Y-44824D01*
X110000Y-20500D02*
X129138Y-1362D01*
X48455Y-30045D02*
X58000Y-20500D01*
X110000D01*
X101000Y-13500D02*
X111726Y-2774D01*
X34500Y-31500D02*
X52500Y-13500D01*
X51500Y-9500D02*
X89000D01*
X104497Y5997D01*
X26500Y-34500D02*
X51500Y-9500D01*
X52500Y-13500D02*
X101000D01*
X51000Y-7500D02*
X83000D01*
X60500Y-15500D02*
X107000D01*
X22500Y-36000D02*
X51000Y-7500D01*
X38500Y-37500D02*
X60500Y-15500D01*
X83000Y-7500D02*
X135524Y45024D01*
X107000Y-15500D02*
X157344Y34844D01*
X30500Y-33000D02*
X52000Y-11500D01*
X95000D01*
X142719Y36219D01*
X192000Y-86500D02*
X198500Y-80000D01*
X191500Y-93000D02*
X204500Y-80000D01*
X206540Y-42500D02*
X221000Y-28040D01*
Y-16500D01*
X208134Y-44824D02*
X223950Y-29008D01*
X71000Y-42500D02*
X206540D01*
X209209Y-47047D02*
X227299Y-28957D01*
X75500Y-37500D02*
X204000D01*
X223950Y-29008D02*
Y22150D01*
X73000Y-40000D02*
X205000D01*
X227299Y-28957D02*
Y-21443D01*
X215000Y-26500D02*
Y-6500D01*
X218000Y-27000D02*
Y-15500D01*
X205000Y-40000D02*
X218000Y-27000D01*
X204000Y-37500D02*
X215000Y-26500D01*
X43000Y70000D02*
X69000Y96000D01*
X42823Y69823D02*
X43000Y70000D01*
X42819Y68059D02*
X44593Y66285D01*
X22803Y42732D02*
X44593Y64522D01*
X21035Y44500D02*
X41055Y64520D01*
X11364Y38364D02*
X39288Y66288D01*
X6500Y38000D02*
X10482D01*
X5000D02*
X6500D01*
X20012Y37512D02*
X46609Y64109D01*
X48500Y66000D01*
X17746Y35246D02*
X20012Y37512D01*
X80948Y95432D02*
X82008Y96492D01*
X57220Y71704D02*
X80945Y95429D01*
X55452Y73472D02*
X77429Y95448D01*
X51914Y73470D02*
X75661Y97216D01*
X51914Y71707D02*
X53687Y69934D01*
X53508Y67992D02*
X53685Y68169D01*
X82008Y96492D02*
X89219Y103703D01*
X-4984Y9500D02*
X53508Y67992D01*
X5746Y35246D02*
X17746D01*
X48500Y66000D02*
Y72500D01*
X71000Y95000D02*
Y104596D01*
X48500Y72500D02*
X71000Y95000D01*
X69000Y96000D02*
Y106054D01*
X89219Y103703D02*
Y111219D01*
X-20522Y73978D02*
X-20345Y74155D01*
X-24057Y75746D02*
X-22287Y73976D01*
X-30165Y71406D02*
X-25823Y75748D01*
X-30165Y71406D02*
Y71406D01*
X-28397Y69638D02*
Y69638D01*
X-25825Y72210D01*
X-31136Y63364D02*
X-24057Y70443D01*
X-31500Y59500D02*
Y62482D01*
X-20345Y74155D02*
X-4071Y90429D01*
X-31500Y22555D02*
Y59500D01*
X15518Y109500D02*
X18500D01*
X-359Y94142D02*
X14636Y109136D01*
X-359Y94142D02*
Y94142D01*
X-2126Y95909D02*
Y95909D01*
X13081Y111116D01*
X-5664Y95907D02*
X11313Y112884D01*
X-5662Y94142D02*
X-3891Y92371D01*
X-4071Y90429D02*
X-3894Y90606D01*
X18500Y109500D02*
X23000D01*
X11000Y98000D02*
X31500D01*
X16000Y105500D02*
X25982D01*
X11000Y95500D02*
X32500D01*
X-21500Y65500D02*
X11000Y98000D01*
X-24000Y65500D02*
X16000Y105500D01*
X-21500Y10500D02*
Y65500D01*
X-18764Y65736D02*
X11000Y95500D01*
X-24000Y20055D02*
Y65500D01*
X-28897Y24702D02*
Y63103D01*
X15500Y107500D01*
X-18764Y19976D02*
Y65736D01*
X15500Y107500D02*
X24482D01*
X-500Y32500D02*
X5000Y38000D01*
X43000Y80471D02*
Y86000D01*
Y77018D02*
Y80471D01*
X39506Y73006D02*
X42636Y76136D01*
X35971Y74779D02*
X37743Y73006D01*
X16793Y57364D02*
X34208Y74779D01*
X-1053Y57000D02*
X15911D01*
X-5116Y53455D02*
X-1935Y56636D01*
X-3348Y51687D02*
X-899Y54136D01*
X-18Y54500D02*
X16947D01*
X17828Y54864D02*
X34205Y71241D01*
X18864Y52364D02*
X35973Y69473D01*
X1018Y52000D02*
X17982D01*
X-5136Y46364D02*
X136Y51636D01*
X-5500Y33680D02*
Y45482D01*
Y12921D02*
Y33680D01*
X43000Y86000D02*
X105000Y148000D01*
X28903Y74903D02*
X29079Y75079D01*
X25365Y76673D02*
X27137Y74900D01*
X16793Y69864D02*
X23602Y76673D01*
X7551Y69500D02*
X15911D01*
X7551Y67000D02*
X16947D01*
X17828Y67364D02*
X23599Y73135D01*
X18864Y64864D02*
X25367Y71367D01*
X1518Y64500D02*
X17982D01*
X-1091Y62409D02*
X636Y64136D01*
X-2152Y61348D02*
X-1092Y62408D01*
X-7500Y56000D02*
X-2152Y61348D01*
X29079Y75079D02*
X33000Y79000D01*
X173256Y143256D02*
X174459Y144459D01*
X169837Y144907D02*
X171488Y143256D01*
X169837Y144907D02*
X169837Y144907D01*
X168069Y144907D02*
X168069Y144907D01*
X168069Y143139D02*
X168069Y143139D01*
X169720Y141488D01*
X169720Y141488D02*
X169720Y141488D01*
X169544Y139543D02*
X169720Y139720D01*
X191971Y132076D02*
X192047Y132000D01*
X191971Y132076D02*
Y137375D01*
X193221Y138625D02*
X198447D01*
X191259Y141125D02*
X198447D01*
X189750Y141750D02*
X189754Y141745D01*
X189500Y142000D02*
X189750Y141750D01*
X187514Y166616D02*
X188792Y167895D01*
X180255Y172108D02*
X185746Y166616D01*
X180255Y172108D02*
X180255Y172108D01*
X178488Y170340D02*
X178488Y170340D01*
X184016Y164811D01*
X184016Y164811D02*
X184016Y164811D01*
X184016Y163044D02*
X184016Y163044D01*
X182248Y163044D02*
X182248Y163044D01*
X176720Y168572D02*
X182248Y163044D01*
X176720Y168572D02*
X176720Y168572D01*
X174952Y168572D02*
X174952Y168572D01*
X174952Y166804D02*
X174952Y166804D01*
X180443Y161313D01*
X180443Y161313D02*
X180443Y161313D01*
X180266Y159369D02*
X180443Y159546D01*
X56819Y102819D02*
X105000Y151000D01*
X56642Y102642D02*
X56819Y102819D01*
X53106Y104410D02*
X54876Y102640D01*
X31599Y84670D02*
X51341Y104412D01*
X33367Y82902D02*
X51339Y100874D01*
X34060Y80060D02*
X53106Y99107D01*
X33000Y79000D02*
X34059Y80059D01*
X-3000Y28000D02*
Y45000D01*
X2000Y50000D01*
X19500D01*
X44588Y75088D01*
X-7500Y21398D02*
Y56000D01*
X-37000Y83000D02*
Y139000D01*
X6000Y182000D02*
X127500D01*
X6500Y176500D02*
X133004D01*
X-35000Y138000D02*
X6000Y179000D01*
X6850Y174000D02*
X173186D01*
X-31000Y80743D02*
Y136150D01*
X-33000Y137000D02*
X6500Y176500D01*
X-33000Y81500D02*
Y137000D01*
X-35000Y82121D02*
Y138000D01*
X6000Y179000D02*
X130000D01*
X-31000Y136150D02*
X6850Y174000D01*
X-37000Y139000D02*
X6000Y182000D01*
X2000Y20000D02*
Y31500D01*
X5746Y35246D01*
X-500Y24000D02*
Y32500D01*
X174459Y144459D02*
X176500Y146500D01*
X97500Y67500D02*
X169544Y139543D01*
X187000Y144500D02*
X189500Y142000D01*
X-71000Y149757D02*
X-52478Y168280D01*
X-71000Y-500D02*
X-69000Y-2500D01*
X-71000Y-500D02*
Y149757D01*
X151371Y78371D02*
X179500Y106500D01*
X151194Y78194D02*
X151371Y78371D01*
X134671Y58135D02*
X151197Y74661D01*
X132903Y59903D02*
X147659Y74659D01*
X129365Y59901D02*
X145891Y76427D01*
X129191Y56191D02*
X129368Y56368D01*
X82500Y9500D02*
X129191Y56191D01*
X145761Y86761D02*
X148000Y89000D01*
X145584Y86584D02*
X145761Y86761D01*
X126290Y63754D02*
X145587Y83051D01*
X124522Y65522D02*
X142049Y83049D01*
X120984Y65520D02*
X140281Y84817D01*
X120810Y61810D02*
X120987Y61987D01*
X89500Y30500D02*
X120810Y61810D01*
X148000Y89000D02*
Y104500D01*
X33500Y133000D02*
X35602D01*
X31500Y111018D02*
Y131000D01*
X33500Y133000D01*
X29000Y132000D02*
X35427Y138427D01*
X29000Y112018D02*
Y132000D01*
X144019Y13519D02*
X144196Y13696D01*
X134618Y582D02*
X144021Y9986D01*
X132850Y2350D02*
X140351Y9851D01*
X129312Y2348D02*
X138583Y11619D01*
X129138Y-1362D02*
X129315Y-1185D01*
X144196Y13696D02*
X211000Y80500D01*
X144437Y29937D02*
X144613Y30113D01*
X117206Y-830D02*
X144439Y26403D01*
X115438Y938D02*
X140901Y26401D01*
X111900Y936D02*
X139133Y28169D01*
X111726Y-2774D02*
X111903Y-2597D01*
X144613Y30113D02*
X205000Y90500D01*
X135190Y36690D02*
X135367Y36867D01*
X109977Y7941D02*
X135193Y33157D01*
X108209Y9709D02*
X131655Y33155D01*
X104671Y9707D02*
X129887Y34923D01*
X104497Y5997D02*
X104674Y6174D01*
X135367Y36867D02*
X199000Y100500D01*
X176731Y54231D02*
X176908Y54408D01*
X162824Y36788D02*
X176733Y50698D01*
X161056Y38556D02*
X173186Y50686D01*
X157518Y38554D02*
X171418Y52454D01*
X157344Y34844D02*
X157521Y35021D01*
X176908Y54408D02*
X207809Y85309D01*
X174564Y68064D02*
X174741Y68241D01*
X148199Y38164D02*
X174566Y64531D01*
X146432Y39932D02*
X171028Y64528D01*
X142894Y39929D02*
X169261Y66296D01*
X142719Y36219D02*
X142896Y36396D01*
X174741Y68241D02*
X202000Y95500D01*
X165264Y74764D02*
X165441Y74941D01*
X141004Y46968D02*
X165267Y71231D01*
X139236Y48736D02*
X161729Y71229D01*
X135698Y48733D02*
X159961Y72997D01*
X135524Y45024D02*
X135700Y45200D01*
X165441Y74941D02*
X196000Y105500D01*
X186000Y131750D02*
Y133839D01*
X182850Y130500D02*
X184750D01*
X182850Y128000D02*
X184750D01*
X186000Y126500D02*
Y126750D01*
Y133839D02*
Y136500D01*
Y106000D02*
Y126500D01*
X87000Y7000D02*
X186000Y106000D01*
X78000Y12000D02*
X96228Y30228D01*
X121140Y55140D02*
X121317Y55317D01*
X101708Y32173D02*
X121143Y51607D01*
X99940Y33940D02*
X117603Y51603D01*
X96402Y33938D02*
X115835Y53371D01*
X96228Y30228D02*
X96405Y30405D01*
X196000Y105500D02*
Y117000D01*
X114573Y62573D02*
X114750Y62750D01*
X93407Y37871D02*
X114576Y59040D01*
X91639Y39639D02*
X110865Y58865D01*
X88101Y39636D02*
X109098Y60633D01*
X87927Y35927D02*
X88103Y36103D01*
X114750Y62750D02*
X144500Y92500D01*
X85000Y33000D02*
X87927Y35927D01*
X211000Y80500D02*
Y170646D01*
X207809Y85309D02*
Y168000D01*
X205000Y90500D02*
Y113500D01*
X202000Y95500D02*
Y117000D01*
X199000Y100500D02*
Y113500D01*
X52500Y7000D02*
X87000D01*
X52500Y9500D02*
X82500D01*
X179500Y106500D02*
Y116949D01*
X52500Y12000D02*
X78000D01*
X58500Y30500D02*
X89500D01*
X144500Y92500D02*
Y101000D01*
X58500Y33000D02*
X85000D01*
X71275Y162500D02*
X74000D01*
X68536Y160279D02*
X70393Y162136D01*
X68536Y158516D02*
X70309Y156743D01*
X46714Y131386D02*
X70309Y154981D01*
X44946Y133154D02*
X66770Y154978D01*
X41621Y133364D02*
X65003Y156746D01*
X35602Y133000D02*
X40739D01*
X74000Y162500D02*
X150500D01*
X60191Y134191D02*
X61250Y135250D01*
X59364Y133364D02*
X60186Y134186D01*
X59000Y126018D02*
Y132482D01*
X37262Y103762D02*
X58636Y125136D01*
X35494Y105530D02*
X55158Y125194D01*
X31956Y105527D02*
X53390Y126962D01*
X31955Y103766D02*
X33729Y101991D01*
X33549Y100049D02*
X33726Y100226D01*
X61250Y135250D02*
X87000Y161000D01*
X23000Y109500D02*
X26500Y113000D01*
Y132500D02*
X59500Y165500D01*
X26500Y113000D02*
Y132500D01*
X24482Y107500D02*
X29000Y112018D01*
X31500Y98000D02*
X33549Y100049D01*
X87000Y161000D02*
X153551D01*
X91352Y154352D02*
X92412Y155412D01*
X67923Y130923D02*
X91349Y154349D01*
X66155Y132691D02*
X89584Y156119D01*
X62617Y132688D02*
X87816Y157887D01*
X62617Y130926D02*
X64390Y129153D01*
X64211Y127211D02*
X64388Y127388D01*
X32500Y95500D02*
X64211Y127211D01*
X92412Y155412D02*
X96500Y159500D01*
X57500Y35500D02*
X73555D01*
X74526Y36471D01*
X41500Y19500D02*
X57500Y35500D01*
X25982Y105500D02*
X31500Y111018D01*
X96500Y159500D02*
X158500D01*
X28000Y88000D02*
X97000Y157000D01*
X132500D01*
X59541Y162541D02*
X61000Y164000D01*
X58481Y161481D02*
X59541Y162541D01*
X39139Y142139D02*
X58479Y161479D01*
X40907Y140371D02*
X58754Y158218D01*
X40905Y136833D02*
X60521Y156450D01*
X37371Y138604D02*
X39139Y136836D01*
X35427Y138427D02*
X35604Y138604D01*
X61000Y164000D02*
X147102D01*
X-35500Y9500D02*
Y73500D01*
X144094Y165500D02*
X146500Y167906D01*
X-20732Y9500D02*
Y9732D01*
X-28897Y24702D02*
X-26500Y22305D01*
X-21500Y10500D02*
X-20732Y9732D01*
X59500Y165500D02*
X144094D01*
X-35500Y73500D02*
X62500Y171500D01*
X168000D01*
X-26500Y11331D02*
Y22305D01*
X65889Y105889D02*
X105000Y145000D01*
X64828Y104828D02*
X65889Y105889D01*
X52190Y92190D02*
X64826Y104826D01*
X53957Y90422D02*
X64520Y100985D01*
X53955Y86884D02*
X66288Y99217D01*
X50422Y88654D02*
X52192Y86884D01*
X46864Y86864D02*
X48657Y88657D01*
X46500Y77518D02*
Y85982D01*
X45649Y76149D02*
X46136Y76636D01*
X44588Y75088D02*
X45647Y76147D01*
X138640Y100585D02*
X138816Y100761D01*
X138636Y98821D02*
X140410Y97047D01*
X84152Y39026D02*
X140410Y95284D01*
X82385Y40794D02*
X136872Y95281D01*
X75586Y37531D02*
X135104Y97049D01*
X74526Y36471D02*
X75585Y37530D01*
X105946Y143000D02*
X124879D01*
X69000Y106054D02*
X105946Y143000D01*
X105000Y145000D02*
X124500D01*
X105000Y148000D02*
X122000D01*
X105000Y151000D02*
X125500D01*
X-14500Y55879D02*
X15621Y86000D01*
X29806D02*
X60451Y116645D01*
X15621Y86000D02*
X29806D01*
X25982Y88000D02*
X28000D01*
X24482D02*
X25982D01*
X15518Y88000D02*
X24477D01*
X777Y73777D02*
X14636Y87636D01*
X777Y73777D02*
Y73777D01*
X-991Y75545D02*
Y75545D01*
X13601Y90136D01*
X14482Y90500D02*
X23847D01*
X13447Y93000D02*
X23847D01*
X-4529Y75542D02*
X12565Y92636D01*
X-4529Y73779D02*
X-2756Y72006D01*
X-2936Y70065D02*
X-2759Y70241D01*
X-16000Y57000D02*
X-2936Y70065D01*
X-16000Y11142D02*
Y57000D01*
X91046Y147240D02*
X92107Y148301D01*
X64164Y120358D02*
X91045Y147239D01*
X65931Y118590D02*
X91715Y144373D01*
X65929Y115052D02*
X93482Y142605D01*
X62393Y116825D02*
X64167Y115051D01*
X60451Y116645D02*
X60628Y116822D01*
X92107Y148301D02*
X97806Y154000D01*
X129000D01*
X176186Y177000D02*
X182598D01*
X173186Y174000D02*
X176186Y177000D01*
X135500Y156000D02*
X176898D01*
X180266Y159369D01*
X188792Y167895D02*
X188898Y168000D01*
X89219Y111219D02*
X117000Y139000D01*
X125960D01*
X68262Y66996D02*
X69323Y68057D01*
X40774Y39508D02*
X68261Y66995D01*
X42541Y37740D02*
X69274Y64473D01*
X42539Y34202D02*
X71042Y62705D01*
X39003Y35975D02*
X40778Y34201D01*
X37061Y35796D02*
X37238Y35973D01*
X69323Y68057D02*
X76266Y75000D01*
X-22908Y-24173D02*
X37061Y35796D01*
X71000Y104596D02*
X78968Y112564D01*
X105540Y139136D02*
X106600Y140197D01*
X82680Y116276D02*
X105538Y139135D01*
X84448Y114509D02*
X107307Y137368D01*
X84446Y110971D02*
X109075Y135600D01*
X80910Y112743D02*
X82684Y110969D01*
X78968Y112564D02*
X79145Y112741D01*
X106600Y140197D02*
X107404Y141000D01*
X125500D01*
X-16795Y9500D02*
Y9677D01*
X137500Y153000D02*
X182047D01*
X125500Y141000D02*
X137500Y153000D01*
X139516Y150000D02*
X192261D01*
X123931Y134415D02*
X139516Y150000D01*
X125960Y139000D02*
X138460Y151500D01*
X187197D01*
X124500Y145000D02*
X135500Y156000D01*
X124879Y143000D02*
X136379Y154500D01*
X-4984Y5500D02*
X98771Y109255D01*
X122871Y133355D02*
X123931Y134415D01*
X102483Y112968D02*
X122868Y133352D01*
X100715Y114735D02*
X120329Y134348D01*
X97177Y114733D02*
X118561Y136116D01*
X97177Y112970D02*
X98950Y111197D01*
X98771Y109255D02*
X98948Y109432D01*
X-14500Y11142D02*
Y55879D01*
X17169Y24000D02*
X119818Y126649D01*
X169750Y148500D02*
X170000D01*
X168504Y148500D02*
X169750Y148500D01*
X142187Y148500D02*
X168491D01*
X123532Y130362D02*
X141306Y148136D01*
X125299Y128595D02*
X142341Y145636D01*
X143223Y146000D02*
X159615D01*
X144258Y143500D02*
X159615D01*
X125296Y125055D02*
X143377Y143136D01*
X121763Y126825D02*
X123530Y125058D01*
X119818Y126649D02*
X119995Y126825D01*
X170000Y148500D02*
X197500D01*
X-38449Y19976D02*
Y73294D01*
X-31000Y80743D01*
X-43500Y71000D02*
X-33000Y81500D01*
X-45500Y18500D02*
Y71621D01*
X-47500Y72500D02*
X-37000Y83000D01*
X-45500Y71621D02*
X-35000Y82121D01*
X-43500Y16000D02*
Y71000D01*
X-47500Y21000D02*
Y72500D01*
X168000Y171500D02*
X171000Y168500D01*
X133004Y176500D02*
X138500Y181996D01*
X130000Y179000D02*
X133000Y182000D01*
X-170000Y-164000D02*
X-167739D01*
X-171075Y-162925D02*
X-170000Y-164000D01*
X-171075Y-162925D02*
X-171075Y-162925D01*
Y-161157D02*
X-168914Y-158996D01*
X-168914D02*
X-168914D01*
X-168914Y-157228D02*
X-168914Y-157228D01*
X-174360Y-160906D02*
X-170682Y-157228D01*
X-174360Y-160906D02*
X-174360D01*
X-176128Y-159138D02*
X-172450Y-155461D01*
X-172450D02*
X-172450D01*
X-172450Y-153693D02*
X-172450Y-153693D01*
X-177895Y-157370D02*
X-174218Y-153693D01*
X-177895Y-157370D02*
X-177895D01*
X-179663Y-157370D02*
X-179663Y-157370D01*
X-179663Y-157370D02*
X-179663Y-157370D01*
X-179663D02*
X-179663Y-157370D01*
Y-155603D02*
X-175986Y-151925D01*
X-175986D02*
X-175986D01*
X-181431Y-153835D02*
X-177753Y-150157D01*
X-181431Y-153835D02*
X-181431D01*
X-183199Y-153835D02*
X-183199Y-153835D01*
X-183199Y-153835D02*
X-183199Y-153835D01*
X-183199D02*
X-183199Y-153835D01*
Y-152067D02*
X-179521Y-148389D01*
X-179521D02*
X-179521D01*
X-179521Y-146622D02*
X-179521Y-146622D01*
X-184966Y-150299D02*
X-181289Y-146622D01*
X-184966Y-150299D02*
X-184966D01*
X-186734Y-150299D02*
X-186734Y-150299D01*
X-186734Y-150299D02*
X-186734Y-150299D01*
X-186734D02*
X-186734Y-150299D01*
Y-148532D02*
X-183056Y-144854D01*
X-183057D02*
X-183056D01*
X-188502Y-146764D02*
X-184824Y-143086D01*
X-188502Y-146764D02*
X-188502D01*
X-190270Y-146764D02*
X-190270Y-146764D01*
X-190270Y-146764D02*
X-190270Y-146764D01*
X-190270D02*
X-190270Y-146764D01*
Y-144996D02*
X-187705Y-142431D01*
X-187705D02*
X-187705D01*
X-187705Y-140663D02*
X-187705Y-140663D01*
X-190521Y-141711D02*
X-189473Y-140663D01*
X-192288Y-141711D02*
X-192288Y-141711D01*
X-192465Y-141535D02*
X-192288Y-141711D01*
X-198000Y-136000D02*
X-192465Y-141535D01*
X-167739Y-164000D02*
X-80500D01*
X-177139Y-166000D02*
X-176889D01*
X-178386Y-166000D02*
X-177139Y-166000D01*
X-186982Y-166000D02*
X-178398D01*
X-194826Y-158674D02*
X-187864Y-165636D01*
X-194826Y-156906D02*
X-194826Y-156906D01*
X-193058Y-156906D02*
X-186828Y-163136D01*
X-185947Y-163500D02*
X-179710D01*
X-184911Y-161000D02*
X-179710D01*
X-193058Y-153371D02*
X-185795Y-160634D01*
X-196596Y-155141D02*
X-194823Y-153368D01*
X-199240Y-154261D02*
X-198359Y-155141D01*
X-200129Y-153371D02*
X-199240Y-154260D01*
X-200306Y-153194D02*
X-200129Y-153371D01*
X-176889Y-166000D02*
X-80000D01*
X-178063Y-133000D02*
X-144805D01*
X-178063Y-135500D02*
X-146305D01*
X-180563Y-138000D02*
X-146305D01*
X-181813Y-136750D02*
Y-134245D01*
X-183313Y-133000D02*
X-183063D01*
X-234000D02*
X-183313D01*
X-178063Y-131000D02*
X-144750D01*
X-178063Y-128500D02*
X-146250D01*
X-180563Y-126000D02*
X-146250D01*
X-181813Y-129750D02*
Y-127250D01*
X-183313Y-131000D02*
X-183063D01*
X-239000D02*
X-183313D01*
X-144750D02*
X-143500D01*
X-144805Y-133000D02*
X-142500D01*
X-191000Y-136000D02*
X-188721Y-138279D01*
X-184721D02*
X-161000Y-162000D01*
X-188721Y-138279D02*
X-184721D01*
X-208500Y-151800D02*
Y-149530D01*
X-215029Y-148280D02*
X-209750D01*
X-215029Y-145780D02*
X-207273D01*
X-215029Y-143280D02*
X-207273D01*
X-215029Y-140779D02*
X-207093D01*
X-208837Y-138279D02*
X-207093D01*
X-210346Y-137654D02*
X-210342Y-137658D01*
X-210595Y-137405D02*
X-210346Y-137654D01*
X-212000Y-136000D02*
X-210595Y-137405D01*
X-201500Y-152000D02*
Y-149629D01*
X-203525Y-148379D02*
X-202750D01*
X-203525Y-145879D02*
X-199946D01*
X-203344Y-143379D02*
X-199946D01*
X-203344Y-140879D02*
X-199946D01*
X-201737Y-138379D02*
X-199946D01*
X-203246Y-137754D02*
X-203242Y-137758D01*
X-203496Y-137504D02*
X-203246Y-137754D01*
X138816Y100761D02*
X171055Y133000D01*
X100578Y75000D02*
X135500Y109922D01*
X76266Y75000D02*
X100578D01*
X126774Y105774D02*
X132205Y111205D01*
X126597Y105597D02*
X126774Y105774D01*
X123062Y107365D02*
X124832Y105595D01*
X97293Y83364D02*
X121296Y107367D01*
X83724Y83000D02*
X96411D01*
X83724Y80500D02*
X97447D01*
X98328Y80864D02*
X121294Y103829D01*
X99364Y78364D02*
X123062Y102062D01*
X79500Y78000D02*
X98482D01*
X135500Y109922D02*
Y119996D01*
X16500Y20000D02*
X82500Y86000D01*
X77072Y78000D02*
X79500D01*
X197500Y148500D02*
X201500Y152500D01*
X192261Y150000D02*
X198346Y156086D01*
X187197Y151500D02*
X195197Y159500D01*
X182047Y153000D02*
X192047Y163000D01*
X132205Y111205D02*
Y123000D01*
X98250Y65750D02*
X177000Y144500D01*
X82404Y64000D02*
X99000D01*
X30661Y16500D02*
X81661Y67500D01*
X99000Y64000D02*
X176500Y141500D01*
X31282Y15000D02*
X82033Y65750D01*
X81661Y67500D02*
X97500D01*
X82033Y65750D02*
X98250D01*
X31904Y13500D02*
X82404Y64000D01*
X204646Y177000D02*
X211000Y170646D01*
X-121500Y-129258D02*
Y-129008D01*
X-119500Y-143840D02*
Y-131258D01*
X-121500Y-143840D02*
Y-133258D01*
X-123500Y-145840D02*
Y-133258D01*
X-121500Y-148090D02*
Y-147840D01*
X-50000Y-200000D02*
X23000Y-127000D01*
Y-115500D01*
X-114000Y-200000D02*
X-50000D01*
X-52500Y-104500D02*
X-45718D01*
X-59754Y-111754D02*
X-52500Y-104500D01*
X-41257Y-100039D02*
Y-92500D01*
X-45718Y-104500D02*
X-41257Y-100039D01*
X-29000Y-83000D02*
X-15858D01*
X-37500Y-94401D02*
X-28832Y-85733D01*
X-29007Y-80250D02*
X-20250D01*
X-28832Y-85733D02*
X-13233D01*
X-41257Y-92500D02*
X-29007Y-80250D01*
X-39500Y-101494D02*
Y-93500D01*
X-37500Y-108500D02*
Y-94401D01*
X-39500Y-93500D02*
X-29000Y-83000D01*
X-81410Y-123910D02*
X-80680Y-123180D01*
X-81690Y-124158D02*
X-81455Y-123951D01*
X-94709Y-137173D02*
X-81737Y-124201D01*
X-95000Y-145426D02*
Y-137879D01*
X-97000Y-145426D02*
Y-137050D01*
X-96709Y-136345D02*
X-82995Y-122632D01*
X-84410Y-121218D02*
X-84410D01*
X-98709Y-135517D02*
X-84410Y-121218D01*
X-99000Y-147426D02*
Y-136222D01*
X-97000Y-149676D02*
Y-149426D01*
X-80680Y-123180D02*
X-76079Y-118579D01*
X-67510Y-110010D02*
X-67333Y-109833D01*
X-73074Y-115574D02*
X-67510Y-110010D01*
X-74488Y-114160D02*
X-74488D01*
X-69631Y-109302D01*
X-69631Y-107888D02*
X-69631Y-107888D01*
X-71045Y-107888D02*
X-71045Y-107888D01*
X-77318Y-114161D02*
X-71045Y-107888D01*
X-77318Y-115572D02*
X-75901Y-116990D01*
X-76079Y-118579D02*
X-75902Y-118402D01*
X-55994Y-98494D02*
X-55817Y-98317D01*
X-58824Y-97078D02*
X-57407Y-98496D01*
X-68167Y-105010D02*
X-60235Y-97078D01*
X-68167Y-105010D02*
X-68167Y-105010D01*
X-68167Y-106424D02*
X-68167Y-106424D01*
X-66752D02*
X-60235Y-99906D01*
X-63217Y-105717D02*
X-58821Y-101321D01*
X-63217Y-105717D02*
X-63217D01*
X-61803Y-107131D02*
X-55287Y-100615D01*
X-53873D02*
X-53873Y-100615D01*
Y-102029D02*
X-53873Y-102030D01*
X-61804Y-109961D02*
X-53873Y-102029D01*
X-64633Y-108544D02*
X-63215Y-109961D01*
X-66222Y-108722D02*
X-66045Y-108545D01*
X-97000Y-156000D02*
Y-149676D01*
X-67333Y-109833D02*
X-66222Y-108722D01*
X-55817Y-98317D02*
X-53500Y-96000D01*
X-50144Y-121144D02*
X-37500Y-108500D01*
X-50320Y-121320D02*
X-50144Y-121144D01*
X-66912Y-140740D02*
X-50319Y-124147D01*
X-68326Y-139326D02*
X-68326D01*
X-53149Y-124149D01*
X-54563Y-122735D02*
X-54563D01*
X-71156Y-139328D02*
X-54563Y-122735D01*
X-71331Y-142331D02*
X-71154Y-142154D01*
X-77500Y-148500D02*
X-71331Y-142331D01*
X-45011Y-107004D02*
X-44834Y-106828D01*
X-81709Y-146531D02*
X-45009Y-109831D01*
X-82000Y-148301D02*
Y-147236D01*
X-84000Y-148301D02*
Y-146408D01*
X-83709Y-145702D02*
X-47839Y-109833D01*
X-49253Y-108419D02*
X-49253D01*
X-85709Y-144874D02*
X-49253Y-108419D01*
X-86000Y-150301D02*
Y-145580D01*
X-84000Y-152551D02*
Y-152301D01*
X-44834Y-106828D02*
X-39500Y-101494D01*
X-59931Y-111931D02*
X-59754Y-111754D01*
X-88209Y-143037D02*
X-59929Y-114758D01*
X-88500Y-145508D02*
Y-143743D01*
X-90500Y-145508D02*
Y-142914D01*
X-90209Y-142209D02*
X-62759Y-114759D01*
X-64174Y-113345D02*
X-64174D01*
X-92209Y-141380D02*
X-64174Y-113345D01*
X-92500Y-147508D02*
Y-142086D01*
X-90500Y-149758D02*
Y-149507D01*
Y-154000D02*
Y-149758D01*
X-84000Y-156000D02*
Y-152551D01*
X-68796Y-93796D02*
X-65000Y-90000D01*
X-68972Y-93972D02*
X-68796Y-93796D01*
X-103709Y-131537D02*
X-68971Y-96799D01*
X-104000Y-143805D02*
Y-132243D01*
X-106000Y-143805D02*
Y-131414D01*
X-105709Y-130709D02*
X-71801Y-96801D01*
X-73215Y-95386D02*
X-73215D01*
X-107709Y-129880D02*
X-73215Y-95386D01*
X-108000Y-145805D02*
Y-130586D01*
X-106000Y-148055D02*
Y-147805D01*
X-121500Y-129008D02*
Y-123000D01*
Y-154000D02*
Y-148090D01*
X-106000Y-156000D02*
Y-148055D01*
X-83384Y-93884D02*
X-79500Y-90000D01*
X-83561Y-94061D02*
X-83384Y-93884D01*
X-110209Y-123537D02*
X-83559Y-96887D01*
X-110500Y-143786D02*
Y-124243D01*
X-112500Y-143786D02*
Y-123414D01*
X-112209Y-122709D02*
X-86389Y-96889D01*
X-87803Y-95475D02*
X-87803D01*
X-114209Y-121880D02*
X-87803Y-95475D01*
X-114500Y-145786D02*
Y-122586D01*
X-112500Y-148036D02*
Y-147786D01*
Y-154000D02*
Y-148036D01*
X-101500Y-154000D02*
Y-133500D01*
X-58000Y-90000D02*
X-47000D01*
X-101500Y-133500D02*
X-58000Y-90000D01*
X-77500Y-154000D02*
Y-148500D01*
X-135000Y-156000D02*
Y-128500D01*
X-130500Y-154000D02*
Y-126750D01*
X-126000Y-156000D02*
Y-125000D01*
X-81000Y-80000D02*
X-52000D01*
X-121500Y-123000D02*
X-80500Y-82000D01*
X-51000D01*
X-126000Y-125000D02*
X-81000Y-80000D01*
X-80000Y-84000D02*
X-50000D01*
X-117000Y-121000D02*
X-80000Y-84000D01*
X-117000Y-156000D02*
Y-121000D01*
X-47000Y-90000D02*
X-22500Y-65500D01*
X-50000Y-84000D02*
X-17500Y-51500D01*
X-51000Y-82000D02*
X-24000Y-55000D01*
X-52000Y-80000D02*
X-26732Y-54732D01*
X-53000Y-78000D02*
X-29000Y-54000D01*
X-81750Y-78000D02*
X-53000D01*
X-130500Y-126750D02*
X-81750Y-78000D01*
X-53500Y-76000D02*
X-32000Y-54500D01*
X-135000Y-128500D02*
X-82500Y-76000D01*
X-53500D01*
X-78000Y-65500D02*
X-67500D01*
X-77000Y-67500D02*
X-66500D01*
X-143500Y-131000D02*
X-78000Y-65500D01*
X-142500Y-133000D02*
X-77000Y-67500D01*
X51000Y-101601D02*
Y-98000D01*
Y-103839D02*
Y-101601D01*
X52250Y-105089D02*
X56435D01*
X52238Y-107589D02*
X56435D01*
X52238Y-110089D02*
X56435D01*
X52250Y-112589D02*
X56435D01*
X51000Y-116500D02*
Y-113839D01*
X50911Y-116589D02*
X51000Y-116500D01*
X35500Y-132000D02*
X50911Y-116589D01*
X-14367Y-156867D02*
X-14190Y-156690D01*
X-44765Y-190094D02*
X-14365Y-159694D01*
X-46180Y-188680D02*
X-46180D01*
X-17195Y-159695D01*
X-18609Y-158281D02*
X-18609D01*
X-49010Y-188681D02*
X-18609Y-158281D01*
X-49185Y-191685D02*
X-49008Y-191508D01*
X-14190Y-156690D02*
X19000Y-123500D01*
X-52000Y-194500D02*
X-49185Y-191685D01*
X15101Y-121399D02*
X15278Y-121222D01*
X-15931Y-155259D02*
X15103Y-124226D01*
X-17345Y-153845D02*
X-17345D01*
X12273Y-124227D01*
X10859Y-122813D02*
X10859D01*
X-20175Y-153847D02*
X10859Y-122813D01*
X-20350Y-156850D02*
X-20174Y-156674D01*
X15278Y-121222D02*
X17000Y-119500D01*
X-55500Y-192000D02*
X-20350Y-156850D01*
X-32569Y-151069D02*
X11000Y-107500D01*
X-32746Y-151246D02*
X-32569Y-151069D01*
X-56884Y-178212D02*
X-32745Y-154073D01*
X-58298Y-176798D02*
X-58298D01*
X-35575Y-154075D01*
X-36989Y-152660D02*
X-36989D01*
X-61128Y-176800D02*
X-36989Y-152660D01*
X-61303Y-179803D02*
X-61127Y-179627D01*
X-63000Y-181500D02*
X-61303Y-179803D01*
X-40266Y-170766D02*
X15000Y-115500D01*
X-40443Y-170943D02*
X-40266Y-170766D01*
X-50847Y-184175D02*
X-40441Y-173770D01*
X-52261Y-182761D02*
X-52261D01*
X-43271Y-173771D01*
X-44685Y-172357D02*
X-44685D01*
X-55091Y-182762D02*
X-44685Y-172357D01*
X-55266Y-185766D02*
X-55089Y-185589D01*
X-58000Y-188500D02*
X-55266Y-185766D01*
X-59000Y-183500D02*
X-20879Y-145379D01*
X8942Y-115558D02*
X9119Y-115381D01*
X-16459Y-143788D02*
X8944Y-118384D01*
X-17874Y-142374D02*
X-17874D01*
X6114Y-118386D01*
X4700Y-116972D02*
X4700D01*
X-20704Y-142375D02*
X4700Y-116972D01*
X-20879Y-145379D02*
X-20702Y-145202D01*
X9119Y-115381D02*
X13000Y-111500D01*
X-61500Y-185000D02*
X-59000Y-183500D01*
X19000Y-123500D02*
Y-96000D01*
X-72500Y-194500D02*
X-52000D01*
X-69379Y-192000D02*
X-55500D01*
X17000Y-119500D02*
Y-93606D01*
X15000Y-115500D02*
Y-91000D01*
X13000Y-111500D02*
Y-89000D01*
X-65000Y-181500D02*
X-63000D01*
X11000Y-107500D02*
Y-87000D01*
X-70000Y-179000D02*
X9000Y-100000D01*
Y-80500D01*
X-70000Y-181500D02*
Y-179000D01*
X7000Y-98701D02*
Y-78000D01*
X-75799Y-181500D02*
X7000Y-98701D01*
X-1500Y-104121D02*
Y-87000D01*
X-80173Y-178000D02*
X-75379D01*
X-1500Y-104121D01*
X-83432Y-176000D02*
X-76500D01*
X-4000Y-103500D02*
Y-86500D01*
X-76500Y-176000D02*
X-4000Y-103500D01*
X25500Y-145500D02*
Y-116000D01*
X-111000Y-202500D02*
X-31500D01*
X25500Y-145500D01*
X28000Y-146000D02*
Y-117000D01*
X-31000Y-205000D02*
X28000Y-146000D01*
X-107295Y-205000D02*
X-31000D01*
X30500Y-146500D02*
Y-130000D01*
X-97453Y-207500D02*
X-30500D01*
X30500Y-146500D01*
X-93516Y-210000D02*
X-30000D01*
X33000Y-147000D02*
Y-131000D01*
X-30000Y-210000D02*
X33000Y-147000D01*
X-29500Y-212500D02*
X35500Y-147500D01*
X50000Y12500D02*
Y16000D01*
X2250Y-42750D02*
Y-29250D01*
X36854Y5354D01*
X3750Y-44053D02*
Y-31250D01*
X40500Y5500D02*
Y9000D01*
X3750Y-31250D02*
X40500Y5500D01*
X5250Y-53250D02*
Y-32250D01*
X50000Y12500D01*
X6827Y-33673D02*
X52500Y12000D01*
X6827Y-55173D02*
Y-33673D01*
X-201500Y-152000D02*
X-200306Y-153194D01*
X-205000Y-136000D02*
X-203496Y-137504D01*
X-161000Y-162000D02*
X-81000D01*
X-199500Y-170000D02*
X-79000D01*
X-230000Y-139500D02*
Y-136000D01*
Y-139500D02*
X-199500Y-170000D01*
X-208500Y-154000D02*
Y-151800D01*
X-41471Y192090D02*
X-38500Y195061D01*
X-42977Y190584D02*
X-41471Y192090D01*
X-46580Y192419D02*
X-44745Y190584D01*
X-46581Y192419D02*
X-46580Y192419D01*
X-48348Y192419D02*
X-48348Y192419D01*
X-48348Y190652D02*
X-48348Y190652D01*
X-46293Y188596D01*
X-46293Y188596D02*
X-46293Y188596D01*
X-46293Y186828D02*
X-46293Y186828D01*
X-48061Y186828D02*
X-48061Y186828D01*
X-50116Y188884D02*
X-48061Y186828D01*
X-50116Y188884D02*
X-50116Y188884D01*
X-51884Y187116D02*
X-51884Y187116D01*
X-49828Y185061D01*
X-49828Y185061D02*
X-49828Y185061D01*
X-49828Y183293D02*
X-49828Y183293D01*
X-51596Y183293D02*
X-51596Y183293D01*
X-53652Y185348D02*
X-51596Y183293D01*
X-53652Y185348D02*
X-53652Y185348D01*
X-55419Y185348D02*
X-55419Y185348D01*
X-55419Y183581D02*
X-55419Y183581D01*
X-53584Y181745D01*
X-53584Y181745D02*
X-53584Y181745D01*
X-53761Y179801D02*
X-53584Y179977D01*
X-78500Y155061D02*
X-53761Y179801D01*
X-40799Y-54701D02*
X-36576D01*
X-64000Y-40000D02*
X-55500D01*
X-40799Y-54701D01*
X-100000Y-8500D02*
Y61243D01*
X-65500Y-43000D02*
X-57500D01*
X-100000Y-8500D02*
X-65500Y-43000D01*
X-98500Y-7793D02*
Y60621D01*
Y-7793D02*
X-64793Y-41500D01*
X-56500D01*
X-97000Y-7000D02*
X-64000Y-40000D01*
X-97000Y-7000D02*
Y60000D01*
X-36000Y-2500D02*
X-33500Y0D01*
X-69000Y-2500D02*
X-36000D01*
X-74000Y-1743D02*
Y152000D01*
Y-1743D02*
X-70193Y-5550D01*
X-72500Y-1121D02*
X-69621Y-4000D01*
X-34500D01*
X-70193Y-5550D02*
X-30500D01*
X-72500Y-1121D02*
Y150879D01*
X-86500Y34121D02*
X-80000Y27621D01*
Y-4228D02*
X-71728Y-12500D01*
X-81500Y-4849D02*
X-72349Y-14000D01*
X-80000Y-4228D02*
Y27621D01*
X-88000Y33500D02*
X-81500Y27000D01*
Y-4849D02*
Y27000D01*
X-75500Y-2364D02*
X-69864Y-8000D01*
X-77000Y-2985D02*
X-70485Y-9500D01*
X-78500Y-3607D02*
Y155061D01*
X-77000Y-2985D02*
Y154000D01*
X-78500Y-3607D02*
X-71107Y-11000D01*
X-75500Y-2364D02*
Y153000D01*
X-72500Y150879D02*
X-52379Y171000D01*
X-74000Y152000D02*
X-52379Y173621D01*
X-75500Y153000D02*
X-24000Y204500D01*
X-77000Y154000D02*
X-33000Y198000D01*
X-92500Y166364D02*
X-78500Y180364D01*
X-92500Y68743D02*
Y166364D01*
X-100000Y61243D02*
X-92500Y68743D01*
X-86500Y163806D02*
X-50806Y199500D01*
X-86500Y34121D02*
Y163806D01*
X-50806Y199500D02*
X-45000D01*
X-89500Y67500D02*
Y165121D01*
X-91000Y68121D02*
Y165743D01*
X-78500Y180364D02*
Y210500D01*
X-91000Y165743D02*
X-77000Y179743D01*
X-88000Y33500D02*
Y164500D01*
X-52000Y200500D02*
Y228000D01*
X-75500Y179121D02*
Y204000D01*
X-89500Y165121D02*
X-75500Y179121D01*
X-88000Y164500D02*
X-52000Y200500D01*
X-77000Y179743D02*
Y207000D01*
X-72349Y-14000D02*
X-40500D01*
X-52379Y171000D02*
X-33000D01*
X-52379Y173621D02*
X-45379D01*
X-33000Y198000D02*
Y204250D01*
X-38500Y195061D02*
Y223500D01*
X-24000Y204500D02*
Y238000D01*
X-69864Y-8000D02*
X-17500D01*
X-70485Y-9500D02*
X-26500D01*
X-18000Y201000D02*
Y201750D01*
Y219500D02*
Y221255D01*
X-16750Y218250D02*
X-16311D01*
X-19118Y215750D02*
X-16311D01*
X-19118Y213250D02*
X-16311D01*
X-19118Y210750D02*
X-16311D01*
X-19118Y208250D02*
X-16311D01*
X-16750Y205750D02*
X-16311D01*
X-18000Y201750D02*
Y204500D01*
Y221255D02*
Y224500D01*
X-58958Y220542D02*
X-57111Y222389D01*
X-58958Y218774D02*
X-58479Y218295D01*
X-58479Y218295D02*
X-58479Y218295D01*
X-58479Y216527D02*
X-58479Y216527D01*
X-60247Y216527D02*
X-60247Y216527D01*
X-60860Y217140D02*
X-60247Y216527D01*
X-60860Y217140D02*
X-60860Y217140D01*
X-62627Y215372D02*
X-62627Y215372D01*
X-62015Y214759D01*
X-62015Y214759D02*
X-62015Y214759D01*
X-62015Y212991D02*
X-62015Y212991D01*
X-63783Y212991D02*
X-63783Y212991D01*
X-64262Y213471D02*
X-63783Y212991D01*
X-64262Y213471D02*
X-64262Y213471D01*
X-67974Y211526D02*
X-66030Y213471D01*
X-57111Y222389D02*
X-55107Y224393D01*
X-75500Y204000D02*
X-67974Y211526D01*
X-33000Y218819D02*
Y227500D01*
Y217000D02*
Y218819D01*
X-31750Y215750D02*
X-30240D01*
X-32000Y213250D02*
X-30240D01*
X-32000Y210750D02*
X-30240D01*
X-31750Y208250D02*
X-30240D01*
X-33000Y204250D02*
Y207000D01*
X-29720Y168280D02*
X-27842Y170158D01*
X-15291Y182709D02*
X-14085Y183915D01*
X-15291Y180941D02*
X-14227Y179877D01*
X-14227Y179877D02*
X-14227Y179877D01*
X-14227Y178109D02*
X-14227Y178109D01*
X-15994Y178109D02*
X-15994Y178109D01*
X-17464Y179579D02*
X-15994Y178109D01*
X-17464Y179579D02*
X-17464Y179579D01*
X-19232Y179579D02*
X-19232Y179579D01*
X-19232Y177812D02*
X-19232Y177812D01*
X-17762Y176342D01*
X-17762Y176342D02*
X-17762Y176342D01*
X-17762Y174574D02*
X-17762Y174574D01*
X-19530Y174574D02*
X-19530Y174574D01*
X-21000Y176044D02*
X-19530Y174574D01*
X-21000Y176044D02*
X-21000Y176044D01*
X-22768Y174276D02*
X-22768Y174276D01*
X-21298Y172806D01*
X-21298Y172806D02*
X-21298Y172806D01*
X-21298Y171038D02*
X-21298Y171038D01*
X-23065Y171038D02*
X-23065Y171038D01*
X-24130Y172102D02*
X-23065Y171038D01*
X-24130Y172102D02*
X-24130Y172102D01*
X-27842Y170158D02*
X-25897Y172102D01*
X-14085Y183915D02*
X-9000Y189000D01*
X-20230Y183770D02*
X-18492Y185508D01*
X-24452Y186223D02*
X-21998Y183770D01*
X-24452Y186223D02*
X-24452Y186223D01*
X-26219Y186223D02*
X-26219Y186223D01*
X-26219Y184456D02*
X-26219Y184456D01*
X-23110Y181347D01*
X-23110Y181347D02*
X-23110Y181347D01*
X-23110Y179579D02*
X-23110Y179579D01*
X-24878Y179579D02*
X-24878Y179579D01*
X-27987Y182688D02*
X-24878Y179579D01*
X-27987Y182688D02*
X-27987Y182688D01*
X-29755Y180920D02*
X-29755Y180920D01*
X-26646Y177811D01*
X-26646Y177811D02*
X-26646Y177811D01*
X-26646Y176044D02*
X-26646Y176044D01*
X-28414Y176044D02*
X-28414Y176044D01*
X-31523Y179153D02*
X-28414Y176044D01*
X-31523Y179152D02*
X-31523Y179153D01*
X-33290Y179152D02*
X-33290Y179153D01*
X-33290Y177385D02*
X-33290Y177385D01*
X-30837Y174931D01*
X-30837Y174931D02*
X-30837Y174931D01*
X-31014Y172986D02*
X-30837Y173163D01*
X-33000Y171000D02*
X-31014Y172986D01*
X-18492Y185508D02*
X-15000Y189000D01*
X-52478Y168280D02*
X-29720D01*
X-45379Y173621D02*
X-18000Y201000D01*
X20654Y16500D02*
X30661D01*
X-26078Y-30232D02*
X20654Y16500D01*
X-58232Y-31732D02*
X-24967D01*
X-30500Y-40000D02*
X23000Y13500D01*
X31904D01*
X-24967Y-31732D02*
X21766Y15000D01*
X31282D01*
X-40300Y204200D02*
Y218800D01*
X-45016Y223516D02*
X-40300Y218800D01*
X-45016Y223516D02*
Y227500D01*
X-45000Y199500D02*
X-40300Y204200D01*
X-78500Y210500D02*
X-55180Y233820D01*
X-77000Y207000D02*
X-55000Y229000D01*
X-23133Y-22205D02*
X77072Y78000D01*
X135500Y119996D02*
X138504Y123000D01*
X158500Y159500D02*
X166850Y167850D01*
X150500Y162500D02*
X156000Y168000D01*
X153551Y161000D02*
X160551Y168000D01*
X147102Y164000D02*
X151102Y168000D01*
X146500Y167906D02*
Y168000D01*
X136379Y154500D02*
X179500D01*
X171000Y159500D02*
Y168500D01*
X-63500Y500D02*
X-45500Y18500D01*
X-59000Y500D02*
X-43500Y16000D01*
X-68000Y500D02*
X-47500Y21000D01*
X171055Y133000D02*
X174500D01*
X177000Y144500D02*
X187000D01*
X176500Y141500D02*
X186000D01*
X176500Y146500D02*
X189500D01*
X-750Y-26250D02*
X58500Y33000D01*
X750Y-27250D02*
X58500Y30500D01*
X-750Y-40493D02*
Y-26250D01*
X-49169Y-22205D02*
X-23133D01*
X-59000Y-24173D02*
X-22908D01*
X-43264Y-61250D02*
Y-57235D01*
X-57500Y-43000D02*
X-43264Y-57235D01*
X-67500Y-65500D02*
X-61500Y-59500D01*
Y-49764D01*
X-59000Y-60000D02*
Y-45827D01*
X-66500Y-67500D02*
X-59000Y-60000D01*
X-59977Y-30232D02*
X-26078D01*
X-32000Y-54500D02*
Y-45169D01*
X16669Y3500D01*
X-16795Y9500D02*
X-16000Y11142D01*
X-14500D02*
X-12858Y9500D01*
X13669Y20000D02*
X16500D01*
X-26500Y11331D02*
X-24669Y9500D01*
X-8921D02*
X-5500Y12921D01*
X8500Y-65000D02*
Y-34500D01*
X52500Y9500D01*
X11000Y-61000D02*
Y-34500D01*
X52500Y7000D01*
X16000Y-73500D02*
Y-32894D01*
X38500Y-10394D01*
X20000Y-36000D02*
X29500Y-26500D01*
Y-24000D01*
X20000Y-50000D02*
Y-36000D01*
X18000Y-34500D02*
X25500Y-27000D01*
X20000Y-50000D02*
X29000Y-59000D01*
X18000Y-51500D02*
X26500Y-60000D01*
X18000Y-51500D02*
Y-34500D01*
X9000Y-80500D02*
X16000Y-73500D01*
X22500Y-45500D02*
Y-36000D01*
X26500Y-43500D02*
Y-34500D01*
X30500Y-41500D02*
Y-33000D01*
X34500Y-39500D02*
Y-31500D01*
X48455Y-37455D02*
Y-30045D01*
Y-37455D02*
X51000Y-40000D01*
X56000Y-26142D02*
X64142D01*
X75500Y-37500D01*
X-31500Y22555D02*
X-29000Y20055D01*
X-8921Y19976D02*
X-7500Y21398D01*
X-60000Y-33500D02*
X-58232Y-31732D01*
X-62099Y-28110D02*
X-59977Y-30232D01*
X175700Y119203D02*
X179473Y122976D01*
X179449Y117000D02*
X179500Y116949D01*
X-17500Y-36500D02*
X25500Y6500D01*
X-17500Y-51500D02*
Y-36500D01*
X4000Y-70500D02*
Y-58000D01*
X6827Y-55173D01*
X1500Y-84000D02*
Y-57000D01*
X5250Y-53250D01*
X-1500Y-87000D02*
X1500Y-84000D01*
X-4000Y-86500D02*
X-500Y-83000D01*
X-6500Y-102873D02*
Y-86000D01*
X-77627Y-174000D02*
X-6500Y-102873D01*
Y-86000D02*
X-3000Y-82500D01*
X-7500Y-80000D02*
Y-54000D01*
X-13233Y-85733D02*
X-7500Y-80000D01*
X750Y-41750D02*
Y-27250D01*
X13500Y-71500D02*
Y-55000D01*
X7000Y-78000D02*
X13500Y-71500D01*
X26500Y-79500D02*
Y-60000D01*
X29000Y-109500D02*
Y-59000D01*
X25500Y6500D02*
Y9500D01*
X18957Y-3043D02*
Y-3043D01*
X-15500Y-52500D02*
Y-37500D01*
X18957Y-3043D01*
Y-3043D02*
X31500Y9500D01*
X-26732Y-54732D02*
Y-42732D01*
X15000Y-1000D01*
X-22500Y-59500D02*
X-15500Y-52500D01*
X-15858Y-83000D02*
X-12858Y-80000D01*
X-29000Y-54000D02*
Y-46000D01*
X-24000Y-55000D02*
Y-49000D01*
X-22500Y-65500D02*
Y-59500D01*
X-5000Y-50000D02*
X2250Y-42750D01*
X-5000Y-81000D02*
Y-50000D01*
X-17000Y-73124D02*
Y-59500D01*
X750Y-41750D01*
X-20000Y-59743D02*
X-750Y-40493D01*
X-20000Y-69000D02*
Y-59743D01*
X-18500Y-112000D02*
Y-94500D01*
X-5000Y-81000D01*
X-19000Y-75124D02*
X-17000Y-73124D01*
X-3000Y-50803D02*
X3750Y-44053D01*
X-3000Y-82500D02*
Y-50803D01*
X15000Y-91000D02*
X26500Y-79500D01*
X20000Y-78000D02*
Y-61000D01*
X23500Y-78500D02*
Y-64000D01*
X-500Y-83000D02*
Y-54000D01*
X-78500Y-172000D02*
X-18500Y-112000D01*
X-86354Y-172000D02*
X-78500D01*
X-79000Y-170000D02*
X-22500Y-113500D01*
Y-97509D01*
X-79500Y-168000D02*
X-25000Y-113500D01*
X-194500Y-168000D02*
X-79500D01*
X-25000Y-113500D02*
Y-99000D01*
X-83673Y-181500D02*
X-80173Y-178000D01*
X-101432Y-194000D02*
X-83432Y-176000D01*
X-84500Y-174000D02*
X-77627D01*
X-102500Y-192000D02*
X-84500Y-174000D01*
X-103975Y-189622D02*
X-86354Y-172000D01*
X23000Y-115500D02*
X29000Y-109500D01*
X-80000Y-166000D02*
X-27500Y-113500D01*
X-80500Y-164000D02*
X-31000Y-114500D01*
X-208500Y-154000D02*
X-194500Y-168000D01*
X-81000Y-162000D02*
X-35000Y-116000D01*
X-115043Y-192000D02*
X-102500D01*
X-123043Y-200000D02*
X-115043Y-192000D01*
X-125021Y-189622D02*
X-103975D01*
X-118500Y-200000D02*
X-112500Y-194000D01*
X-101432D01*
X48500Y-115500D02*
Y-82000D01*
X33000Y-131000D02*
X48500Y-115500D01*
X11000Y-87000D02*
X20000Y-78000D01*
X13000Y-89000D02*
X23500Y-78500D01*
X19000Y-96000D02*
X25000Y-90000D01*
X17000Y-93606D02*
X20606Y-90000D01*
X25500Y-116000D02*
X31949Y-109551D01*
Y-81551D01*
X37000Y-108000D02*
Y-72500D01*
X28000Y-117000D02*
X37000Y-108000D01*
X31949Y-81551D02*
X34500Y-79000D01*
X30500Y-130000D02*
X40000Y-120500D01*
X35500Y-147500D02*
Y-132000D01*
X40000Y-120500D02*
Y-52000D01*
X-85642Y-212500D02*
X-29500D01*
X-27500Y-113500D02*
Y-100500D01*
X-31000Y-114500D02*
Y-101500D01*
X-244000Y-136000D02*
X-239000Y-131000D01*
X-237000Y-136000D02*
X-234000Y-133000D01*
X51000Y-74108D02*
X52892Y-76000D01*
X61500Y-28500D02*
X73000Y-40000D01*
X57000Y-28500D02*
X61500D01*
X54000Y-31500D02*
X57000Y-28500D01*
X60000Y-31500D02*
X71000Y-42500D01*
X221000Y-16500D02*
Y30500D01*
X218000Y-11500D02*
Y35000D01*
X215000Y-6500D02*
Y40500D01*
X221000Y30500D02*
Y31032D01*
X218000Y-15500D02*
Y-11500D01*
X223950Y22150D02*
X227299Y25500D01*
X51000Y-74108D02*
Y-74000D01*
X39000Y-134000D02*
X45000Y-128000D01*
X39000Y-159500D02*
Y-134000D01*
Y-159500D02*
X46000Y-166500D01*
X44500Y-139500D02*
X131500D01*
X42500Y-141500D02*
X44500Y-139500D01*
X131500D02*
X135000Y-136000D01*
X151500D01*
X156000Y-184000D02*
X182100D01*
X186200Y-179900D01*
X139854Y-156854D02*
X157154D01*
X180200Y-179900D01*
X-35000Y-116000D02*
Y-101500D01*
X-29509Y-90500D02*
X-22500Y-97509D01*
X-27000Y-97000D02*
X-25000Y-99000D01*
X-31000Y-97000D02*
X-27500Y-100500D01*
X-31000Y-97000D02*
Y-94500D01*
X-26000Y0D02*
X-22500Y-3500D01*
X-33500Y0D02*
X-26000D01*
X-32500Y-2000D02*
X-28500D01*
X-26500Y-4000D01*
X-34500D02*
X-32500Y-2000D01*
X-98500Y60621D02*
X-91000Y68121D01*
X-97000Y60000D02*
X-89500Y67500D01*
X-71728Y-12500D02*
X-37000D01*
X-71107Y-11000D02*
X-33000D01*
X-56500Y-41500D02*
X-40000Y-58000D01*
X-52000Y228000D02*
X-39000Y241000D01*
X-18000Y224500D02*
X-15000Y227500D01*
X-24000Y238000D02*
X-21000Y241000D01*
X-22500Y-5500D02*
Y-3500D01*
X-40500Y-14000D02*
X-37000Y-17500D01*
X-29000D02*
X-26500Y-15000D01*
X-37000Y-17500D02*
X-29000D01*
X179500Y154500D02*
X184500Y159500D01*
X189500Y146500D02*
X192000Y144000D01*
X138500Y181996D02*
Y182000D01*
X166850Y167850D02*
Y168000D01*
X210649Y-188000D02*
X218749Y-179900D01*
X154000Y-188000D02*
X210649D01*
X42500Y-155000D02*
Y-141500D01*
Y-155000D02*
X46000Y-158500D01*
X205000Y-74500D02*
X210500Y-80000D01*
X50000Y-162500D02*
X128500D01*
X50000Y-154500D02*
X126500D01*
X46000Y-150500D02*
X128500D01*
X50000Y-146500D02*
X129500D01*
X46000Y-142500D02*
X131500D01*
X143000Y-154000D01*
X-78500Y-188500D02*
X-72500Y-194500D01*
X-77379Y-184000D02*
X-69379Y-192000D01*
X-83673Y-181500D02*
Y-181500D01*
X-79736Y-184000D02*
X-77379D01*
X-114000Y-200000D02*
X-114000Y-200000D01*
X-111000Y-202500D02*
X-111000Y-202500D01*
X-107295Y-205000D02*
X-107295Y-205000D01*
X-37000Y-12500D02*
X-34500Y-15000D01*
X-26500Y-9500D02*
X-22500Y-13500D01*
X-20250Y-80250D02*
X-10000Y-70000D01*
X-29000Y20000D02*
Y20055D01*
X-55107Y224393D02*
X-55000D01*
X129500Y-146500D02*
X139854Y-156854D01*
X126500Y-154500D02*
X156000Y-184000D01*
X128500Y-150500D02*
X138000Y-160000D01*
X151000D01*
X143000Y-154000D02*
X151000D01*
X128500Y-162500D02*
X154000Y-188000D01*
X-216929Y66441D02*
X-209996D01*
X-194815Y51260D01*
X-30518Y-13500D02*
Y-13482D01*
X-33000Y-11000D02*
X-30518Y-13482D01*
X-55180Y233820D02*
Y234000D01*
M02*
