G04*
G04 #@! TF.GenerationSoftware,Altium Limited,Altium Designer,22.9.1 (49)*
G04*
G04 Layer_Color=8388736*
%FSLAX25Y25*%
%MOIN*%
G70*
G04*
G04 #@! TF.SameCoordinates,BD774D37-2A64-432E-85FC-E47F3F74055D*
G04*
G04*
G04 #@! TF.FilePolarity,Negative*
G04*
G01*
G75*
%ADD44R,0.62500X0.12500*%
%ADD45R,0.05521X0.11624*%
%ADD46R,0.04340X0.03947*%
%ADD47R,0.06506X0.04143*%
%ADD48R,0.07765X0.05482*%
%ADD49R,0.03947X0.03553*%
G04:AMPARAMS|DCode=50|XSize=29.62mil|YSize=63.09mil|CornerRadius=14.81mil|HoleSize=0mil|Usage=FLASHONLY|Rotation=270.000|XOffset=0mil|YOffset=0mil|HoleType=Round|Shape=RoundedRectangle|*
%AMROUNDEDRECTD50*
21,1,0.02962,0.03347,0,0,270.0*
21,1,0.00000,0.06309,0,0,270.0*
1,1,0.02962,-0.01673,0.00000*
1,1,0.02962,-0.01673,0.00000*
1,1,0.02962,0.01673,0.00000*
1,1,0.02962,0.01673,0.00000*
%
%ADD50ROUNDEDRECTD50*%
%ADD51C,0.12000*%
%ADD52C,0.04537*%
%ADD53R,0.04537X0.04439*%
%ADD54R,0.03750X0.03356*%
%ADD55R,0.04439X0.04537*%
G04:AMPARAMS|DCode=56|XSize=19.81mil|YSize=63.12mil|CornerRadius=9.91mil|HoleSize=0mil|Usage=FLASHONLY|Rotation=270.000|XOffset=0mil|YOffset=0mil|HoleType=Round|Shape=RoundedRectangle|*
%AMROUNDEDRECTD56*
21,1,0.01981,0.04331,0,0,270.0*
21,1,0.00000,0.06312,0,0,270.0*
1,1,0.01981,-0.02165,0.00000*
1,1,0.01981,-0.02165,0.00000*
1,1,0.01981,0.02165,0.00000*
1,1,0.01981,0.02165,0.00000*
%
%ADD56ROUNDEDRECTD56*%
G04:AMPARAMS|DCode=57|XSize=19.81mil|YSize=63.12mil|CornerRadius=9.91mil|HoleSize=0mil|Usage=FLASHONLY|Rotation=180.000|XOffset=0mil|YOffset=0mil|HoleType=Round|Shape=RoundedRectangle|*
%AMROUNDEDRECTD57*
21,1,0.01981,0.04331,0,0,180.0*
21,1,0.00000,0.06312,0,0,180.0*
1,1,0.01981,0.00000,0.02165*
1,1,0.01981,0.00000,0.02165*
1,1,0.01981,0.00000,-0.02165*
1,1,0.01981,0.00000,-0.02165*
%
%ADD57ROUNDEDRECTD57*%
%ADD58R,0.05521X0.04537*%
G04:AMPARAMS|DCode=59|XSize=31.65mil|YSize=57.24mil|CornerRadius=15.83mil|HoleSize=0mil|Usage=FLASHONLY|Rotation=180.000|XOffset=0mil|YOffset=0mil|HoleType=Round|Shape=RoundedRectangle|*
%AMROUNDEDRECTD59*
21,1,0.03165,0.02559,0,0,180.0*
21,1,0.00000,0.05724,0,0,180.0*
1,1,0.03165,0.00000,0.01280*
1,1,0.03165,0.00000,0.01280*
1,1,0.03165,0.00000,-0.01280*
1,1,0.03165,0.00000,-0.01280*
%
%ADD59ROUNDEDRECTD59*%
%ADD60R,0.03801X0.08002*%
%ADD61R,0.08002X0.03801*%
%ADD62R,0.17923X0.17923*%
%ADD63R,0.11624X0.05521*%
%ADD64R,0.03947X0.04340*%
G04:AMPARAMS|DCode=65|XSize=19.81mil|YSize=39.5mil|CornerRadius=9.91mil|HoleSize=0mil|Usage=FLASHONLY|Rotation=180.000|XOffset=0mil|YOffset=0mil|HoleType=Round|Shape=RoundedRectangle|*
%AMROUNDEDRECTD65*
21,1,0.01981,0.01968,0,0,180.0*
21,1,0.00000,0.03950,0,0,180.0*
1,1,0.01981,0.00000,0.00984*
1,1,0.01981,0.00000,0.00984*
1,1,0.01981,0.00000,-0.00984*
1,1,0.01981,0.00000,-0.00984*
%
%ADD65ROUNDEDRECTD65*%
%ADD66R,0.04737X0.04737*%
%ADD67R,0.04537X0.02962*%
%ADD68R,0.02962X0.04537*%
G04:AMPARAMS|DCode=69|XSize=25.72mil|YSize=63.12mil|CornerRadius=12.86mil|HoleSize=0mil|Usage=FLASHONLY|Rotation=0.000|XOffset=0mil|YOffset=0mil|HoleType=Round|Shape=RoundedRectangle|*
%AMROUNDEDRECTD69*
21,1,0.02572,0.03740,0,0,0.0*
21,1,0.00000,0.06312,0,0,0.0*
1,1,0.02572,0.00000,-0.01870*
1,1,0.02572,0.00000,-0.01870*
1,1,0.02572,0.00000,0.01870*
1,1,0.02572,0.00000,0.01870*
%
%ADD69ROUNDEDRECTD69*%
%ADD70R,0.06112X0.05128*%
%ADD71R,0.11230X0.04537*%
G04:AMPARAMS|DCode=72|XSize=19.81mil|YSize=55.24mil|CornerRadius=9.91mil|HoleSize=0mil|Usage=FLASHONLY|Rotation=180.000|XOffset=0mil|YOffset=0mil|HoleType=Round|Shape=RoundedRectangle|*
%AMROUNDEDRECTD72*
21,1,0.01981,0.03543,0,0,180.0*
21,1,0.00000,0.05524,0,0,180.0*
1,1,0.01981,0.00000,0.01772*
1,1,0.01981,0.00000,0.01772*
1,1,0.01981,0.00000,-0.01772*
1,1,0.01981,0.00000,-0.01772*
%
%ADD72ROUNDEDRECTD72*%
%ADD73R,0.07099X0.07099*%
%ADD74R,0.02962X0.04734*%
%ADD75R,0.04537X0.11230*%
G04:AMPARAMS|DCode=76|XSize=19.78mil|YSize=33.56mil|CornerRadius=9.89mil|HoleSize=0mil|Usage=FLASHONLY|Rotation=180.000|XOffset=0mil|YOffset=0mil|HoleType=Round|Shape=RoundedRectangle|*
%AMROUNDEDRECTD76*
21,1,0.01978,0.01378,0,0,180.0*
21,1,0.00000,0.03356,0,0,180.0*
1,1,0.01978,0.00000,0.00689*
1,1,0.01978,0.00000,0.00689*
1,1,0.01978,0.00000,-0.00689*
1,1,0.01978,0.00000,-0.00689*
%
%ADD76ROUNDEDRECTD76*%
G04:AMPARAMS|DCode=77|XSize=19.78mil|YSize=33.56mil|CornerRadius=9.89mil|HoleSize=0mil|Usage=FLASHONLY|Rotation=90.000|XOffset=0mil|YOffset=0mil|HoleType=Round|Shape=RoundedRectangle|*
%AMROUNDEDRECTD77*
21,1,0.01978,0.01378,0,0,90.0*
21,1,0.00000,0.03356,0,0,90.0*
1,1,0.01978,0.00689,0.00000*
1,1,0.01978,0.00689,0.00000*
1,1,0.01978,-0.00689,0.00000*
1,1,0.01978,-0.00689,0.00000*
%
%ADD77ROUNDEDRECTD77*%
%ADD78R,0.10443X0.10443*%
%ADD79R,0.07293X0.04734*%
%ADD80C,0.10443*%
%ADD81C,0.06899*%
%ADD82R,0.06506X0.06506*%
%ADD83C,0.06506*%
%ADD84C,0.00600*%
%ADD85C,0.10836*%
%ADD86O,0.07883X0.03947*%
%ADD87C,0.04143*%
%ADD88C,0.08474*%
%ADD89R,0.08474X0.08474*%
%ADD90C,0.10600*%
%ADD91C,0.02600*%
G36*
X121363Y-166374D02*
X121414Y-166384D01*
X121464Y-166401D01*
X121511Y-166424D01*
X121555Y-166453D01*
X121594Y-166488D01*
X121629Y-166527D01*
X121658Y-166571D01*
X121681Y-166618D01*
X121698Y-166667D01*
X121708Y-166719D01*
X121712Y-166771D01*
Y-169717D01*
X125641Y-169717D01*
X125694Y-169720D01*
X125745Y-169730D01*
X125795Y-169747D01*
X125842Y-169771D01*
X125885Y-169800D01*
X125925Y-169834D01*
X125959Y-169874D01*
X125988Y-169917D01*
X126012Y-169964D01*
X126029Y-170014D01*
X126039Y-170065D01*
X126042Y-170118D01*
Y-178779D01*
X126039Y-178832D01*
X126029Y-178883D01*
X126012Y-178932D01*
X125988Y-178980D01*
X125959Y-179023D01*
X125925Y-179063D01*
X125885Y-179097D01*
X125842Y-179126D01*
X125795Y-179149D01*
X125745Y-179166D01*
X125694Y-179177D01*
X125641Y-179180D01*
X116192D01*
X116140Y-179177D01*
X116089Y-179166D01*
X116039Y-179149D01*
X115992Y-179126D01*
X115948Y-179097D01*
X115909Y-179063D01*
X115875Y-179023D01*
X115845Y-178980D01*
X115822Y-178932D01*
X115805Y-178883D01*
X115795Y-178832D01*
X115792Y-178779D01*
Y-166771D01*
X115795Y-166719D01*
X115805Y-166667D01*
X115822Y-166618D01*
X115845Y-166571D01*
X115875Y-166527D01*
X115909Y-166488D01*
X115948Y-166453D01*
X115992Y-166424D01*
X116039Y-166401D01*
X116089Y-166384D01*
X116140Y-166374D01*
X116192Y-166370D01*
X121311Y-166370D01*
X121363Y-166374D01*
D02*
G37*
G36*
X96560D02*
X96611Y-166384D01*
X96661Y-166401D01*
X96708Y-166424D01*
X96751Y-166453D01*
X96791Y-166488D01*
X96825Y-166527D01*
X96855Y-166571D01*
X96878Y-166618D01*
X96895Y-166667D01*
X96905Y-166719D01*
X96908Y-166771D01*
Y-178779D01*
X96905Y-178832D01*
X96895Y-178883D01*
X96878Y-178932D01*
X96855Y-178980D01*
X96825Y-179023D01*
X96791Y-179063D01*
X96751Y-179097D01*
X96708Y-179126D01*
X96661Y-179149D01*
X96611Y-179166D01*
X96560Y-179177D01*
X96508Y-179180D01*
X87059Y-179180D01*
X87006Y-179177D01*
X86955Y-179166D01*
X86905Y-179149D01*
X86858Y-179126D01*
X86815Y-179097D01*
X86775Y-179063D01*
X86741Y-179023D01*
X86712Y-178980D01*
X86688Y-178932D01*
X86672Y-178883D01*
X86661Y-178832D01*
X86658Y-178779D01*
Y-170118D01*
X86661Y-170065D01*
X86672Y-170014D01*
X86688Y-169964D01*
X86712Y-169917D01*
X86741Y-169874D01*
X86775Y-169834D01*
X86815Y-169800D01*
X86858Y-169771D01*
X86905Y-169747D01*
X86955Y-169730D01*
X87006Y-169720D01*
X87059Y-169717D01*
X90988Y-169717D01*
Y-166771D01*
X90992Y-166719D01*
X91002Y-166667D01*
X91019Y-166618D01*
X91042Y-166571D01*
X91071Y-166527D01*
X91106Y-166488D01*
X91145Y-166453D01*
X91189Y-166424D01*
X91236Y-166401D01*
X91286Y-166384D01*
X91337Y-166374D01*
X91389Y-166370D01*
X96508D01*
X96560Y-166374D01*
D02*
G37*
G36*
X-43070Y-177994D02*
X-43018Y-178004D01*
X-42969Y-178021D01*
X-42922Y-178044D01*
X-42878Y-178073D01*
X-42839Y-178108D01*
X-42804Y-178147D01*
X-42775Y-178191D01*
X-42752Y-178238D01*
X-42735Y-178288D01*
X-42725Y-178339D01*
X-42721Y-178391D01*
Y-184691D01*
X-42725Y-184743D01*
X-42735Y-184794D01*
X-42752Y-184844D01*
X-42775Y-184891D01*
X-42804Y-184935D01*
X-42839Y-184974D01*
X-42878Y-185009D01*
X-42922Y-185038D01*
X-42969Y-185061D01*
X-43018Y-185078D01*
X-43070Y-185088D01*
X-43122Y-185091D01*
X-45871D01*
Y-187840D01*
X-45874Y-187892D01*
X-45884Y-187944D01*
X-45901Y-187994D01*
X-45924Y-188041D01*
X-45954Y-188084D01*
X-45988Y-188124D01*
X-46028Y-188158D01*
X-46071Y-188187D01*
X-46118Y-188210D01*
X-46168Y-188227D01*
X-46219Y-188238D01*
X-46272Y-188241D01*
X-52571D01*
X-52623Y-188238D01*
X-52675Y-188227D01*
X-52724Y-188210D01*
X-52771Y-188187D01*
X-52815Y-188158D01*
X-52854Y-188124D01*
X-52889Y-188084D01*
X-52918Y-188041D01*
X-52941Y-187994D01*
X-52958Y-187944D01*
X-52968Y-187892D01*
X-52972Y-187840D01*
Y-184691D01*
Y-178391D01*
X-52968Y-178339D01*
X-52958Y-178288D01*
X-52941Y-178238D01*
X-52918Y-178191D01*
X-52889Y-178147D01*
X-52854Y-178108D01*
X-52815Y-178073D01*
X-52771Y-178044D01*
X-52724Y-178021D01*
X-52675Y-178004D01*
X-52623Y-177994D01*
X-52571Y-177990D01*
X-43122D01*
X-43070Y-177994D01*
D02*
G37*
G36*
X-136377D02*
X-136325Y-178004D01*
X-136276Y-178021D01*
X-136229Y-178044D01*
X-136185Y-178073D01*
X-136146Y-178108D01*
X-136111Y-178147D01*
X-136082Y-178191D01*
X-136059Y-178238D01*
X-136042Y-178288D01*
X-136032Y-178339D01*
X-136028Y-178391D01*
Y-187840D01*
X-136032Y-187892D01*
X-136042Y-187944D01*
X-136059Y-187994D01*
X-136082Y-188041D01*
X-136111Y-188084D01*
X-136146Y-188124D01*
X-136185Y-188158D01*
X-136229Y-188187D01*
X-136276Y-188210D01*
X-136325Y-188227D01*
X-136377Y-188238D01*
X-136429Y-188241D01*
X-142728D01*
X-142781Y-188238D01*
X-142832Y-188227D01*
X-142882Y-188210D01*
X-142929Y-188187D01*
X-142972Y-188158D01*
X-143012Y-188124D01*
X-143046Y-188084D01*
X-143076Y-188041D01*
X-143099Y-187994D01*
X-143116Y-187944D01*
X-143126Y-187892D01*
X-143129Y-187840D01*
Y-185091D01*
X-145878D01*
X-145930Y-185088D01*
X-145982Y-185078D01*
X-146031Y-185061D01*
X-146078Y-185038D01*
X-146122Y-185009D01*
X-146161Y-184974D01*
X-146196Y-184935D01*
X-146225Y-184891D01*
X-146248Y-184844D01*
X-146265Y-184794D01*
X-146275Y-184743D01*
X-146279Y-184691D01*
Y-178391D01*
X-146275Y-178339D01*
X-146265Y-178288D01*
X-146248Y-178238D01*
X-146225Y-178191D01*
X-146196Y-178147D01*
X-146161Y-178108D01*
X-146122Y-178073D01*
X-146078Y-178044D01*
X-146031Y-178021D01*
X-145982Y-178004D01*
X-145930Y-177994D01*
X-145878Y-177990D01*
X-136429D01*
X-136377Y-177994D01*
D02*
G37*
D44*
X59944Y244544D02*
D03*
D45*
X155996Y95000D02*
D03*
X168004D02*
D03*
X-157004Y-149000D02*
D03*
X-144996D02*
D03*
X-213996Y-93000D02*
D03*
X-226004D02*
D03*
X-225996Y28000D02*
D03*
X-238004D02*
D03*
X-225996Y5000D02*
D03*
X-238004D02*
D03*
X-112004Y183000D02*
D03*
X-99996D02*
D03*
D46*
X174000Y-169949D02*
D03*
Y-176051D02*
D03*
X202000Y35949D02*
D03*
Y42051D02*
D03*
X240000Y35949D02*
D03*
Y42051D02*
D03*
Y25051D02*
D03*
Y18949D02*
D03*
Y-21949D02*
D03*
Y-28051D02*
D03*
Y-11051D02*
D03*
Y-4949D02*
D03*
X202000Y-11051D02*
D03*
Y-4949D02*
D03*
X198500Y-90051D02*
D03*
Y-83949D02*
D03*
X204500Y-90051D02*
D03*
Y-83949D02*
D03*
X210500Y-90051D02*
D03*
Y-83949D02*
D03*
X216500Y-90051D02*
D03*
Y-83949D02*
D03*
X232969D02*
D03*
Y-90051D02*
D03*
X180200Y-176051D02*
D03*
Y-169949D02*
D03*
X186200Y-176051D02*
D03*
Y-169949D02*
D03*
X218749Y-176051D02*
D03*
Y-169949D02*
D03*
X120000Y-189949D02*
D03*
Y-196051D02*
D03*
X114000Y-189949D02*
D03*
Y-196051D02*
D03*
X108000Y-189949D02*
D03*
Y-196051D02*
D03*
X14000Y-180051D02*
D03*
Y-173949D02*
D03*
X-16000D02*
D03*
Y-180051D02*
D03*
X-247000Y66949D02*
D03*
Y73051D02*
D03*
X-200000Y9051D02*
D03*
Y2949D02*
D03*
X-183000Y51949D02*
D03*
Y58051D02*
D03*
X-189000D02*
D03*
Y51949D02*
D03*
X-3000Y199051D02*
D03*
Y192949D02*
D03*
X-9000Y199051D02*
D03*
Y192949D02*
D03*
X-15000Y199051D02*
D03*
Y192949D02*
D03*
X-21000Y199051D02*
D03*
Y192949D02*
D03*
X-15000Y237051D02*
D03*
Y230949D02*
D03*
X-21000D02*
D03*
Y237051D02*
D03*
X-27000D02*
D03*
Y230949D02*
D03*
X-33000D02*
D03*
Y237051D02*
D03*
X-39000Y230949D02*
D03*
Y237051D02*
D03*
X-45000Y230949D02*
D03*
Y237051D02*
D03*
X-180000Y188949D02*
D03*
Y195051D02*
D03*
X-188000Y188949D02*
D03*
Y195051D02*
D03*
X-196000Y188949D02*
D03*
Y195051D02*
D03*
X-204000Y188949D02*
D03*
Y195051D02*
D03*
X-212000Y188949D02*
D03*
Y195051D02*
D03*
X-220000Y188949D02*
D03*
Y195051D02*
D03*
D47*
X-189898Y241244D02*
D03*
Y246756D02*
D03*
X-202102Y241244D02*
D03*
Y246756D02*
D03*
D48*
X-123500Y195417D02*
D03*
Y182583D02*
D03*
X-144000Y195417D02*
D03*
Y182583D02*
D03*
D49*
X64657Y-19138D02*
D03*
Y-23272D02*
D03*
X59342D02*
D03*
Y-19138D02*
D03*
X-46657Y192067D02*
D03*
Y187933D02*
D03*
X-41342D02*
D03*
Y192067D02*
D03*
D50*
X231728Y-21500D02*
D03*
Y-16500D02*
D03*
Y-11500D02*
D03*
Y-6500D02*
D03*
X210272Y-21500D02*
D03*
Y-16500D02*
D03*
Y-11500D02*
D03*
Y-6500D02*
D03*
Y40500D02*
D03*
Y35500D02*
D03*
Y30500D02*
D03*
Y25500D02*
D03*
X231728Y40500D02*
D03*
Y35500D02*
D03*
Y30500D02*
D03*
Y25500D02*
D03*
D51*
X50000Y30000D02*
D03*
X160000Y-190000D02*
D03*
X-220000D02*
D03*
X-160000Y200000D02*
D03*
X200000D02*
D03*
D52*
X-160000Y-182500D02*
D03*
Y-209000D02*
D03*
D53*
X-41000Y180100D02*
D03*
Y173900D02*
D03*
X-47000Y180100D02*
D03*
Y173900D02*
D03*
X-36480Y31201D02*
D03*
Y25000D02*
D03*
X-30543D02*
D03*
Y31201D02*
D03*
X-14827D02*
D03*
Y25000D02*
D03*
X4858Y31201D02*
D03*
Y25000D02*
D03*
X30449Y24900D02*
D03*
Y31100D02*
D03*
Y-101201D02*
D03*
Y-95000D02*
D03*
X4858Y-101201D02*
D03*
Y-95000D02*
D03*
X-14827Y-101201D02*
D03*
Y-95000D02*
D03*
X-40417Y-101201D02*
D03*
Y-95000D02*
D03*
X164000Y181900D02*
D03*
Y188100D02*
D03*
X145000Y181900D02*
D03*
Y188100D02*
D03*
X211000Y118100D02*
D03*
Y111900D02*
D03*
X170000Y118100D02*
D03*
Y111900D02*
D03*
X154000Y118100D02*
D03*
Y111900D02*
D03*
X136000Y118100D02*
D03*
Y111900D02*
D03*
X128000Y118100D02*
D03*
Y111900D02*
D03*
X202000Y25100D02*
D03*
Y18900D02*
D03*
X195000Y25100D02*
D03*
Y18900D02*
D03*
X202000Y-21900D02*
D03*
Y-28100D02*
D03*
X195000Y-21900D02*
D03*
Y-28100D02*
D03*
X161000Y-115900D02*
D03*
Y-122100D02*
D03*
X148000Y-148100D02*
D03*
Y-141900D02*
D03*
X-200000Y16900D02*
D03*
Y23100D02*
D03*
X-27000Y199100D02*
D03*
Y192900D02*
D03*
X-33000Y199100D02*
D03*
Y192900D02*
D03*
X-15000Y211900D02*
D03*
Y218100D02*
D03*
X-21000Y211900D02*
D03*
Y218100D02*
D03*
X-27000Y211900D02*
D03*
Y218100D02*
D03*
D54*
X155441Y-143032D02*
D03*
Y-146968D02*
D03*
X160559D02*
D03*
Y-143032D02*
D03*
D55*
X-63900Y-69000D02*
D03*
X-70100D02*
D03*
Y-63000D02*
D03*
X-63900D02*
D03*
X-70201Y-41890D02*
D03*
X-64000D02*
D03*
Y-35795D02*
D03*
X-70201D02*
D03*
Y-20236D02*
D03*
X-64000D02*
D03*
X-70201Y4386D02*
D03*
X-64000D02*
D03*
X62201Y-551D02*
D03*
X56000D02*
D03*
X62201Y-8425D02*
D03*
X56000D02*
D03*
X80100Y-18000D02*
D03*
X73900D02*
D03*
X80100Y-24000D02*
D03*
X73900D02*
D03*
X62201Y-36016D02*
D03*
X56000D02*
D03*
X62201Y-48764D02*
D03*
X56000D02*
D03*
X75100Y-56047D02*
D03*
X68900D02*
D03*
X75100Y-61953D02*
D03*
X68900D02*
D03*
X62201Y-69480D02*
D03*
X56000D02*
D03*
X185600Y-83000D02*
D03*
X179400D02*
D03*
X185600Y-90000D02*
D03*
X179400D02*
D03*
X101100Y-190000D02*
D03*
X94900D02*
D03*
Y-196000D02*
D03*
X101100D02*
D03*
X20100Y-189000D02*
D03*
X13900D02*
D03*
X20100Y-197000D02*
D03*
X13900D02*
D03*
X-22100Y-189000D02*
D03*
X-15900D02*
D03*
X-131100Y-205000D02*
D03*
X-124900D02*
D03*
X-231900Y67000D02*
D03*
X-238100D02*
D03*
X-231900Y74000D02*
D03*
X-238100D02*
D03*
X-231900Y43000D02*
D03*
X-238100D02*
D03*
X-59900Y237000D02*
D03*
X-66100D02*
D03*
X-59900Y231000D02*
D03*
X-66100D02*
D03*
X-59900Y225000D02*
D03*
X-66100D02*
D03*
Y198949D02*
D03*
X-59900D02*
D03*
Y192949D02*
D03*
X-66100D02*
D03*
X-59900Y187000D02*
D03*
X-66100D02*
D03*
X-145000Y138400D02*
D03*
X-138799D02*
D03*
D56*
X46000Y-75354D02*
D03*
Y-12362D02*
D03*
Y-10394D02*
D03*
X-54000Y7323D02*
D03*
Y-75354D02*
D03*
Y-73386D02*
D03*
Y-71417D02*
D03*
Y-69449D02*
D03*
Y-67480D02*
D03*
Y-65512D02*
D03*
Y-63543D02*
D03*
Y-61575D02*
D03*
Y-59606D02*
D03*
Y-57638D02*
D03*
Y-55669D02*
D03*
Y-53701D02*
D03*
Y-51732D02*
D03*
Y-49764D02*
D03*
Y-47795D02*
D03*
Y-45827D02*
D03*
Y-43858D02*
D03*
Y-41890D02*
D03*
Y-39921D02*
D03*
Y-37953D02*
D03*
Y-35984D02*
D03*
Y-34016D02*
D03*
Y-32047D02*
D03*
Y-30079D02*
D03*
Y-28110D02*
D03*
Y-26142D02*
D03*
Y-24173D02*
D03*
Y-22205D02*
D03*
Y-20236D02*
D03*
Y-18268D02*
D03*
Y-16299D02*
D03*
Y-14331D02*
D03*
Y-12362D02*
D03*
Y-10394D02*
D03*
Y-8425D02*
D03*
Y-6457D02*
D03*
Y-4488D02*
D03*
Y-2520D02*
D03*
Y-551D02*
D03*
Y1417D02*
D03*
Y3386D02*
D03*
Y5354D02*
D03*
X46000Y7323D02*
D03*
Y5354D02*
D03*
Y3386D02*
D03*
Y1417D02*
D03*
Y-551D02*
D03*
Y-2520D02*
D03*
Y-4488D02*
D03*
Y-6457D02*
D03*
Y-8425D02*
D03*
Y-14331D02*
D03*
Y-16299D02*
D03*
Y-18268D02*
D03*
Y-20236D02*
D03*
Y-22205D02*
D03*
Y-24173D02*
D03*
Y-26142D02*
D03*
Y-28110D02*
D03*
Y-30079D02*
D03*
Y-32047D02*
D03*
Y-34016D02*
D03*
Y-35984D02*
D03*
Y-37953D02*
D03*
Y-39921D02*
D03*
Y-41890D02*
D03*
Y-43858D02*
D03*
Y-45827D02*
D03*
Y-47795D02*
D03*
Y-49764D02*
D03*
Y-51732D02*
D03*
Y-53701D02*
D03*
Y-55669D02*
D03*
Y-57638D02*
D03*
Y-59606D02*
D03*
Y-61575D02*
D03*
Y-63543D02*
D03*
Y-65512D02*
D03*
Y-67480D02*
D03*
Y-69449D02*
D03*
Y-71417D02*
D03*
Y-73386D02*
D03*
Y-77323D02*
D03*
X-54000D02*
D03*
D57*
X-1047Y-85000D02*
D03*
X12732Y15000D02*
D03*
X38323Y-85000D02*
D03*
X36354D02*
D03*
X34386D02*
D03*
X32417D02*
D03*
X30449D02*
D03*
X28480D02*
D03*
X26512D02*
D03*
X24543D02*
D03*
X22575D02*
D03*
X20606D02*
D03*
X18638D02*
D03*
X16669D02*
D03*
X14701D02*
D03*
X12732D02*
D03*
X10764D02*
D03*
X8795D02*
D03*
X6827D02*
D03*
X4858D02*
D03*
X2890D02*
D03*
X921D02*
D03*
X-3016D02*
D03*
X-4984D02*
D03*
X-6953D02*
D03*
X-8921D02*
D03*
X-10890D02*
D03*
X-12858D02*
D03*
X-14827D02*
D03*
X-16795D02*
D03*
X-18764D02*
D03*
X-20732D02*
D03*
X-22701D02*
D03*
X-24669D02*
D03*
X-26638D02*
D03*
X-28606D02*
D03*
X-30575D02*
D03*
X-32543D02*
D03*
X-34512D02*
D03*
X-36480D02*
D03*
X-38449D02*
D03*
X-40417D02*
D03*
X-42386D02*
D03*
X-44354D02*
D03*
X-46323D02*
D03*
Y15000D02*
D03*
X-44354D02*
D03*
X-42386D02*
D03*
X-40417D02*
D03*
X-38449D02*
D03*
X-36480D02*
D03*
X-34512D02*
D03*
X-32543D02*
D03*
X-30575D02*
D03*
X-28606D02*
D03*
X-26638D02*
D03*
X-24669D02*
D03*
X-22701D02*
D03*
X-20732D02*
D03*
X-18764D02*
D03*
X-16795D02*
D03*
X-14827D02*
D03*
X-12858D02*
D03*
X-10890D02*
D03*
X-8921D02*
D03*
X-6953D02*
D03*
X-4984D02*
D03*
X-3016D02*
D03*
X-1047D02*
D03*
X921D02*
D03*
X2890D02*
D03*
X4858D02*
D03*
X6827D02*
D03*
X8795D02*
D03*
X10764D02*
D03*
X14701D02*
D03*
X16669D02*
D03*
X18638D02*
D03*
X20606D02*
D03*
X22575D02*
D03*
X24543D02*
D03*
X26512D02*
D03*
X28480D02*
D03*
X30449D02*
D03*
X32417D02*
D03*
X34386D02*
D03*
X36354D02*
D03*
X38323D02*
D03*
D58*
X60000Y-56094D02*
D03*
Y-62000D02*
D03*
D59*
X210945Y172638D02*
D03*
X207795D02*
D03*
X204646D02*
D03*
X201496D02*
D03*
X198346D02*
D03*
X195197D02*
D03*
X192047D02*
D03*
X188898D02*
D03*
X185748D02*
D03*
X182598D02*
D03*
X179449D02*
D03*
X176299D02*
D03*
X173150D02*
D03*
X170000D02*
D03*
X166850D02*
D03*
X163701D02*
D03*
X160551D02*
D03*
X157402D02*
D03*
X154252D02*
D03*
X151102D02*
D03*
X147953D02*
D03*
X144803D02*
D03*
X141654D02*
D03*
X138504D02*
D03*
X135354D02*
D03*
X132205D02*
D03*
X129055D02*
D03*
X210945Y127362D02*
D03*
X207795D02*
D03*
X204646D02*
D03*
X201496D02*
D03*
X198346D02*
D03*
X195197D02*
D03*
X192047D02*
D03*
X188898D02*
D03*
X185748D02*
D03*
X182598D02*
D03*
X179449D02*
D03*
X176299D02*
D03*
X173150D02*
D03*
X170000D02*
D03*
X166850D02*
D03*
X163701D02*
D03*
X160551D02*
D03*
X157402D02*
D03*
X154252D02*
D03*
X151102D02*
D03*
X147953D02*
D03*
X144803D02*
D03*
X141654D02*
D03*
X138504D02*
D03*
X135354D02*
D03*
X132205D02*
D03*
X129055D02*
D03*
D60*
X232969Y-159189D02*
D03*
X228229D02*
D03*
X223489D02*
D03*
X214009D02*
D03*
X209268D02*
D03*
X204528D02*
D03*
X199788D02*
D03*
X195048D02*
D03*
X190308D02*
D03*
X237709Y-101189D02*
D03*
X228229D02*
D03*
X223489D02*
D03*
X218749D02*
D03*
X214009D02*
D03*
X195048D02*
D03*
X190308D02*
D03*
X185568D02*
D03*
X180828D02*
D03*
X199788D02*
D03*
X204528D02*
D03*
X218749Y-159189D02*
D03*
X185568D02*
D03*
X180828D02*
D03*
X209268Y-101189D02*
D03*
X232969D02*
D03*
D61*
X173013Y-144407D02*
D03*
Y-139667D02*
D03*
Y-134927D02*
D03*
Y-125447D02*
D03*
Y-120707D02*
D03*
Y-115966D02*
D03*
Y-111226D02*
D03*
Y-106486D02*
D03*
Y-153888D02*
D03*
Y-149148D02*
D03*
Y-130187D02*
D03*
D62*
X205800Y-130000D02*
D03*
D63*
X151000Y-122004D02*
D03*
Y-109996D02*
D03*
D64*
X154949Y-130000D02*
D03*
X161051D02*
D03*
X154949Y-136000D02*
D03*
X161051D02*
D03*
X154949Y-154000D02*
D03*
X161051D02*
D03*
X154949Y-160000D02*
D03*
X161051D02*
D03*
X90051Y-223000D02*
D03*
X83949D02*
D03*
X90051Y-231000D02*
D03*
X83949D02*
D03*
X6949Y-226000D02*
D03*
X13051D02*
D03*
X20949D02*
D03*
X27051D02*
D03*
X-15051D02*
D03*
X-8949D02*
D03*
X-29051D02*
D03*
X-22949D02*
D03*
X-15051Y-204000D02*
D03*
X-8949D02*
D03*
X1949Y-163000D02*
D03*
X8051D02*
D03*
X-10051D02*
D03*
X-3949D02*
D03*
X20949Y-204000D02*
D03*
X27051D02*
D03*
X-177051Y-209000D02*
D03*
X-170949D02*
D03*
X-208949Y3000D02*
D03*
X-215051D02*
D03*
Y-3000D02*
D03*
X-208949D02*
D03*
X-59949Y205000D02*
D03*
X-66051D02*
D03*
X-171000Y158400D02*
D03*
X-177102D02*
D03*
X-171000Y149400D02*
D03*
X-177102D02*
D03*
X-171000Y142400D02*
D03*
X-177102D02*
D03*
X-171000Y133400D02*
D03*
X-177102D02*
D03*
X-105000Y116000D02*
D03*
X-98898D02*
D03*
X-105000Y126000D02*
D03*
X-98898D02*
D03*
X-105000Y155800D02*
D03*
X-98898D02*
D03*
X-105000Y165800D02*
D03*
X-98898D02*
D03*
D65*
X103397Y-180354D02*
D03*
X109303D02*
D03*
X111271D02*
D03*
X107334D02*
D03*
X105366D02*
D03*
X101429D02*
D03*
D66*
X92041Y-173870D02*
D03*
X120659D02*
D03*
D67*
X77724Y-230740D02*
D03*
Y-223260D02*
D03*
X68276Y-227000D02*
D03*
X61724Y-230740D02*
D03*
X52276Y-227000D02*
D03*
X61724Y-223260D02*
D03*
X-206685Y16740D02*
D03*
Y13000D02*
D03*
Y9260D02*
D03*
X-217315D02*
D03*
Y13000D02*
D03*
Y16740D02*
D03*
X-209315Y58740D02*
D03*
Y55000D02*
D03*
Y51260D02*
D03*
X-198685D02*
D03*
Y55000D02*
D03*
Y58740D02*
D03*
D68*
X24000Y-219724D02*
D03*
X20260Y-210276D02*
D03*
X27740D02*
D03*
X10000Y-219724D02*
D03*
X6260Y-210276D02*
D03*
X13740D02*
D03*
X10000Y-241724D02*
D03*
X6260Y-232276D02*
D03*
X13740D02*
D03*
X-12000Y-219724D02*
D03*
X-15740Y-210276D02*
D03*
X-8260D02*
D03*
X-26000Y-219724D02*
D03*
X-29740Y-210276D02*
D03*
X-22260D02*
D03*
X-26000Y-241724D02*
D03*
X-29740Y-232276D02*
D03*
X-22260D02*
D03*
X24000Y-182724D02*
D03*
X20260Y-173276D02*
D03*
X27740D02*
D03*
X-22260D02*
D03*
X-29740D02*
D03*
X-26000Y-182724D02*
D03*
X-177740Y-201315D02*
D03*
X-174000D02*
D03*
X-170260D02*
D03*
Y-190685D02*
D03*
X-174000D02*
D03*
X-177740D02*
D03*
X-198740Y140685D02*
D03*
X-195000D02*
D03*
X-191260D02*
D03*
Y151315D02*
D03*
X-195000D02*
D03*
X-198740D02*
D03*
X-203740Y201276D02*
D03*
X-196260D02*
D03*
X-200000Y210724D02*
D03*
X-187740Y201276D02*
D03*
X-180260D02*
D03*
X-184000Y210724D02*
D03*
X-219740Y201276D02*
D03*
X-212260D02*
D03*
X-216000Y210724D02*
D03*
D69*
X6677Y-173386D02*
D03*
X4118D02*
D03*
X1559D02*
D03*
X-1000D02*
D03*
X-3559D02*
D03*
X-6118D02*
D03*
X-8677D02*
D03*
X6677Y-196614D02*
D03*
X4118D02*
D03*
X1559D02*
D03*
X-1000D02*
D03*
X-3559D02*
D03*
X-6118D02*
D03*
X-8677D02*
D03*
D70*
X-169000Y-175555D02*
D03*
Y-182445D02*
D03*
X-179000Y-175555D02*
D03*
Y-182445D02*
D03*
D71*
X-189000Y-191276D02*
D03*
Y-200724D02*
D03*
D72*
X-56114Y-193746D02*
D03*
X-58083D02*
D03*
X-60051D02*
D03*
X-62020D02*
D03*
X-63988D02*
D03*
X-65957D02*
D03*
X-67925D02*
D03*
X-69894D02*
D03*
X-71862D02*
D03*
X-73831D02*
D03*
X-75799D02*
D03*
X-77768D02*
D03*
X-79736D02*
D03*
X-81705D02*
D03*
X-83673D02*
D03*
X-85642D02*
D03*
X-87610D02*
D03*
X-89579D02*
D03*
X-91547D02*
D03*
X-93516D02*
D03*
X-95484D02*
D03*
X-97453D02*
D03*
X-99421D02*
D03*
X-101390D02*
D03*
X-103358D02*
D03*
X-105327D02*
D03*
X-107295D02*
D03*
X-109264D02*
D03*
X-111232D02*
D03*
X-113201D02*
D03*
X-115169D02*
D03*
X-117138D02*
D03*
X-119106D02*
D03*
X-121075D02*
D03*
X-123043D02*
D03*
X-125012D02*
D03*
X-126980D02*
D03*
X-128949D02*
D03*
X-130917D02*
D03*
X-132886D02*
D03*
D73*
X-49421Y-181541D02*
D03*
X-139579D02*
D03*
D74*
X-231260Y60413D02*
D03*
X-235000D02*
D03*
X-238740D02*
D03*
Y49587D02*
D03*
X-231260D02*
D03*
D75*
X-207276Y28000D02*
D03*
X-216724D02*
D03*
D76*
X-50921Y204323D02*
D03*
X-48953D02*
D03*
X-46984D02*
D03*
X-45016D02*
D03*
X-43047D02*
D03*
X-41079D02*
D03*
Y219677D02*
D03*
X-43047D02*
D03*
X-45016D02*
D03*
X-46984D02*
D03*
X-48953D02*
D03*
X-50921D02*
D03*
D77*
X-38323Y207079D02*
D03*
Y209047D02*
D03*
Y211016D02*
D03*
Y212984D02*
D03*
Y214953D02*
D03*
Y216921D02*
D03*
X-53677D02*
D03*
Y214953D02*
D03*
Y212984D02*
D03*
Y211016D02*
D03*
Y209047D02*
D03*
Y207079D02*
D03*
D78*
X-46000Y212000D02*
D03*
D79*
X-184000Y218390D02*
D03*
Y229610D02*
D03*
X-200000Y218390D02*
D03*
Y229610D02*
D03*
X-216000Y218390D02*
D03*
Y229610D02*
D03*
D80*
X39039Y123756D02*
D03*
X18961Y118244D02*
D03*
D81*
X-112500Y126000D02*
D03*
Y165800D02*
D03*
Y116000D02*
D03*
Y155800D02*
D03*
D82*
X-153700Y158400D02*
D03*
D83*
X-163700Y153400D02*
D03*
X-153700Y148400D02*
D03*
X-163700Y143400D02*
D03*
X-153700Y138400D02*
D03*
X-163700Y133400D02*
D03*
X-153700Y128400D02*
D03*
X-163700Y123400D02*
D03*
D84*
X-128700Y163400D02*
D03*
Y118400D02*
D03*
X-237200Y234900D02*
D03*
X237200D02*
D03*
Y-234900D02*
D03*
X-237200D02*
D03*
D85*
X-144000Y172200D02*
D03*
Y109600D02*
D03*
D86*
X-220000Y83075D02*
D03*
Y54925D02*
D03*
D87*
X-220866Y74118D02*
D03*
X-216929Y71559D02*
D03*
X-220866Y69000D02*
D03*
X-216929Y66441D02*
D03*
X-220866Y63882D02*
D03*
D88*
X12000Y162000D02*
D03*
Y152000D02*
D03*
X79961Y-192400D02*
D03*
D89*
X12000Y142000D02*
D03*
X50039Y-192400D02*
D03*
D90*
X-245000Y90000D02*
D03*
Y105000D02*
D03*
Y120000D02*
D03*
Y135000D02*
D03*
Y150000D02*
D03*
D91*
X-42850Y208850D02*
D03*
Y215150D02*
D03*
X-49150D02*
D03*
Y208850D02*
D03*
X-46000Y212000D02*
D03*
M02*
