G04*
G04 #@! TF.GenerationSoftware,Altium Limited,Altium Designer,22.9.1 (49)*
G04*
G04 Layer_Physical_Order=8*
G04 Layer_Color=16711680*
%FSLAX25Y25*%
%MOIN*%
G70*
G04*
G04 #@! TF.SameCoordinates,BD774D37-2A64-432E-85FC-E47F3F74055D*
G04*
G04*
G04 #@! TF.FilePolarity,Positive*
G04*
G01*
G75*
%ADD13R,0.04921X0.11024*%
%ADD14R,0.03740X0.03347*%
%ADD16R,0.07165X0.04882*%
G04:AMPARAMS|DCode=18|XSize=23.62mil|YSize=57.09mil|CornerRadius=11.81mil|HoleSize=0mil|Usage=FLASHONLY|Rotation=270.000|XOffset=0mil|YOffset=0mil|HoleType=Round|Shape=RoundedRectangle|*
%AMROUNDEDRECTD18*
21,1,0.02362,0.03347,0,0,270.0*
21,1,0.00000,0.05709,0,0,270.0*
1,1,0.02362,-0.01673,0.00000*
1,1,0.02362,-0.01673,0.00000*
1,1,0.02362,0.01673,0.00000*
1,1,0.02362,0.01673,0.00000*
%
%ADD18ROUNDEDRECTD18*%
%ADD19R,0.03937X0.03839*%
%ADD21R,0.03839X0.03937*%
%ADD29R,0.03347X0.03740*%
%ADD32R,0.03937X0.02362*%
%ADD33R,0.02362X0.03937*%
%ADD43R,0.06693X0.04134*%
%ADD91C,0.02600*%
%ADD93C,0.01000*%
%ADD95C,0.04000*%
%ADD96C,0.03937*%
%ADD99C,0.04000*%
%ADD100C,0.02000*%
%ADD101C,0.01200*%
%ADD102C,0.03000*%
%ADD103C,0.05000*%
%ADD104C,0.09843*%
%ADD105C,0.06299*%
%ADD106R,0.05906X0.05906*%
%ADD107C,0.05906*%
%ADD108C,0.10236*%
%ADD109O,0.07284X0.03347*%
%ADD110C,0.03543*%
%ADD111C,0.07874*%
%ADD112R,0.07874X0.07874*%
%ADD113C,0.10000*%
%ADD114C,0.02000*%
%ADD116C,0.00700*%
%ADD117R,0.07874X0.05118*%
%ADD118R,0.05512X0.03543*%
%ADD119R,0.03937X0.02756*%
%ADD120R,0.02756X0.03937*%
%ADD121R,0.04528X0.04724*%
%ADD122R,0.05709X0.04724*%
%ADD123R,0.10287X0.13787*%
G04:AMPARAMS|DCode=124|XSize=31.58mil|YSize=59.25mil|CornerRadius=15.79mil|HoleSize=0mil|Usage=FLASHONLY|Rotation=270.000|XOffset=0mil|YOffset=0mil|HoleType=Round|Shape=RoundedRectangle|*
%AMROUNDEDRECTD124*
21,1,0.03158,0.02768,0,0,270.0*
21,1,0.00000,0.05925,0,0,270.0*
1,1,0.03158,-0.01384,0.00000*
1,1,0.03158,-0.01384,0.00000*
1,1,0.03158,0.01384,0.00000*
1,1,0.03158,0.01384,0.00000*
%
%ADD124ROUNDEDRECTD124*%
G04:AMPARAMS|DCode=125|XSize=23.62mil|YSize=57.09mil|CornerRadius=11.81mil|HoleSize=0mil|Usage=FLASHONLY|Rotation=0.000|XOffset=0mil|YOffset=0mil|HoleType=Round|Shape=RoundedRectangle|*
%AMROUNDEDRECTD125*
21,1,0.02362,0.03347,0,0,0.0*
21,1,0.00000,0.05709,0,0,0.0*
1,1,0.02362,0.00000,-0.01673*
1,1,0.02362,0.00000,-0.01673*
1,1,0.02362,0.00000,0.01673*
1,1,0.02362,0.00000,0.01673*
%
%ADD125ROUNDEDRECTD125*%
%ADD126R,0.05512X0.15748*%
%ADD127R,0.15748X0.05512*%
%ADD128R,0.08268X0.06299*%
%ADD129R,0.10906X0.02559*%
%ADD130R,0.14173X0.07087*%
%ADD131R,0.06299X0.08268*%
%ADD132R,0.13780X0.07008*%
%ADD133R,0.04724X0.09882*%
%ADD134R,0.04331X0.05512*%
G04:AMPARAMS|DCode=135|XSize=27.56mil|YSize=78.74mil|CornerRadius=13.78mil|HoleSize=0mil|Usage=FLASHONLY|Rotation=270.000|XOffset=0mil|YOffset=0mil|HoleType=Round|Shape=RoundedRectangle|*
%AMROUNDEDRECTD135*
21,1,0.02756,0.05118,0,0,270.0*
21,1,0.00000,0.07874,0,0,270.0*
1,1,0.02756,-0.02559,0.00000*
1,1,0.02756,-0.02559,0.00000*
1,1,0.02756,0.02559,0.00000*
1,1,0.02756,0.02559,0.00000*
%
%ADD135ROUNDEDRECTD135*%
%ADD136R,0.04331X0.07677*%
%ADD137R,0.14961X0.09843*%
%ADD138R,0.13386X0.09055*%
%ADD139R,0.31102X0.09055*%
%ADD140R,0.09882X0.04724*%
G36*
X230315Y257477D02*
X231762D01*
X234642Y257193D01*
X237481Y256628D01*
X240251Y255788D01*
X242925Y254680D01*
X245477Y253316D01*
X247884Y251708D01*
X250121Y249872D01*
X252167Y247826D01*
X254004Y245588D01*
X255611Y243182D01*
X256976Y240629D01*
X258083Y237955D01*
X258924Y235186D01*
X259488Y232347D01*
X259772Y229467D01*
X259772Y228020D01*
X259772Y-99150D01*
X243606D01*
X242826Y-99305D01*
X242165Y-99747D01*
X241722Y-100409D01*
X241567Y-101189D01*
Y-133402D01*
X238882D01*
X238102Y-133557D01*
X237440Y-133999D01*
X236998Y-134661D01*
X236843Y-135441D01*
Y-210500D01*
X236998Y-211280D01*
X237440Y-211942D01*
X238102Y-212384D01*
X238882Y-212539D01*
X259772D01*
X259772Y-228004D01*
Y-229451D01*
X259488Y-232331D01*
X258924Y-235170D01*
X258083Y-237940D01*
X256976Y-240614D01*
X255611Y-243166D01*
X254004Y-245573D01*
X252167Y-247810D01*
X250121Y-249856D01*
X247884Y-251693D01*
X245477Y-253300D01*
X242925Y-254665D01*
X240251Y-255772D01*
X237481Y-256613D01*
X234642Y-257177D01*
X231762Y-257461D01*
X230315Y-257461D01*
X146724D01*
Y-216193D01*
X146569Y-215413D01*
X146127Y-214751D01*
X145465Y-214309D01*
X144685Y-214154D01*
X109252D01*
X108472Y-214309D01*
X107810Y-214751D01*
X107368Y-215413D01*
X107213Y-216193D01*
Y-257461D01*
X-107213D01*
Y-216193D01*
X-107368Y-215413D01*
X-107810Y-214751D01*
X-108472Y-214309D01*
X-109252Y-214154D01*
X-144685D01*
X-145465Y-214309D01*
X-146127Y-214751D01*
X-146569Y-215413D01*
X-146724Y-216193D01*
Y-257461D01*
X-230315Y-257461D01*
X-231762D01*
X-234642Y-257177D01*
X-237481Y-256613D01*
X-240251Y-255772D01*
X-242925Y-254665D01*
X-245477Y-253300D01*
X-247884Y-251693D01*
X-250121Y-249856D01*
X-252167Y-247810D01*
X-254004Y-245573D01*
X-255611Y-243166D01*
X-256976Y-240614D01*
X-258083Y-237940D01*
X-258924Y-235170D01*
X-259488Y-232331D01*
X-259772Y-229451D01*
X-259772Y-228004D01*
X-259772Y228020D01*
Y229467D01*
X-259488Y232347D01*
X-258924Y235186D01*
X-258083Y237955D01*
X-256976Y240629D01*
X-255611Y243182D01*
X-254004Y245588D01*
X-252167Y247826D01*
X-250121Y249872D01*
X-247884Y251708D01*
X-245477Y253316D01*
X-242925Y254680D01*
X-240251Y255788D01*
X-237481Y256628D01*
X-234642Y257193D01*
X-231762Y257477D01*
X-230315Y257477D01*
X-171882Y257477D01*
Y235016D01*
X-171726Y234235D01*
X-171284Y233574D01*
X-170623Y233132D01*
X-169843Y232977D01*
X-99843D01*
X-99062Y233132D01*
X-98401Y233574D01*
X-97959Y234235D01*
X-97803Y235016D01*
Y251500D01*
Y257477D01*
X97803D01*
Y251500D01*
Y235016D01*
X97959Y234235D01*
X98401Y233574D01*
X99062Y233132D01*
X99843Y232977D01*
X169843D01*
X170623Y233132D01*
X171284Y233574D01*
X171726Y234235D01*
X171882Y235016D01*
Y257477D01*
X230315Y257477D01*
D02*
G37*
%LPC*%
G36*
X-236919Y239900D02*
X-237481D01*
X-238039Y239837D01*
X-238586Y239712D01*
X-239116Y239527D01*
X-239622Y239283D01*
X-240098Y238984D01*
X-240537Y238634D01*
X-240934Y238237D01*
X-241284Y237798D01*
X-241583Y237322D01*
X-241827Y236816D01*
X-242012Y236286D01*
X-242137Y235739D01*
X-242200Y235181D01*
Y234619D01*
X-242137Y234061D01*
X-242012Y233514D01*
X-241827Y232984D01*
X-241583Y232478D01*
X-241284Y232002D01*
X-240934Y231563D01*
X-240537Y231166D01*
X-240098Y230816D01*
X-239622Y230517D01*
X-239116Y230273D01*
X-238586Y230088D01*
X-238039Y229963D01*
X-237481Y229900D01*
X-236919D01*
X-236361Y229963D01*
X-235814Y230088D01*
X-235284Y230273D01*
X-234778Y230517D01*
X-234302Y230816D01*
X-233863Y231166D01*
X-233466Y231563D01*
X-233116Y232002D01*
X-232817Y232478D01*
X-232573Y232984D01*
X-232388Y233514D01*
X-232263Y234061D01*
X-232200Y234619D01*
Y235181D01*
X-232263Y235739D01*
X-232388Y236286D01*
X-232573Y236816D01*
X-232817Y237322D01*
X-233116Y237798D01*
X-233466Y238237D01*
X-233863Y238634D01*
X-234302Y238984D01*
X-234778Y239283D01*
X-235284Y239527D01*
X-235814Y239712D01*
X-236361Y239837D01*
X-236919Y239900D01*
D02*
G37*
G36*
X221800Y251500D02*
X177800D01*
Y227000D01*
X91900D01*
Y251500D01*
X-91900D01*
Y227000D01*
X-177800D01*
Y251500D01*
X-221800D01*
Y219500D01*
X-253800D01*
Y-219500D01*
X-221800D01*
Y-251500D01*
X-152700D01*
Y-208200D01*
X-101300D01*
Y-251500D01*
X101300D01*
Y-208200D01*
X152700D01*
Y-251500D01*
X221800D01*
Y-219500D01*
X230900D01*
Y-127500D01*
X235600D01*
Y-93200D01*
X253800D01*
Y219500D01*
X221800D01*
Y251500D01*
D02*
G37*
G36*
X237593Y243900D02*
X236807D01*
X236024Y243831D01*
X235250Y243695D01*
X234491Y243492D01*
X233753Y243223D01*
X233040Y242891D01*
X232360Y242498D01*
X231716Y242047D01*
X231114Y241542D01*
X230558Y240986D01*
X230053Y240384D01*
X229602Y239740D01*
X229209Y239060D01*
X228877Y238347D01*
X228608Y237609D01*
X228405Y236850D01*
X228269Y236076D01*
X228200Y235293D01*
Y234507D01*
X228269Y233724D01*
X228405Y232950D01*
X228608Y232191D01*
X228877Y231453D01*
X229209Y230740D01*
X229602Y230060D01*
X230053Y229416D01*
X230558Y228814D01*
X231114Y228258D01*
X231716Y227753D01*
X232360Y227302D01*
X233040Y226909D01*
X233753Y226577D01*
X234491Y226308D01*
X235250Y226105D01*
X236024Y225969D01*
X236807Y225900D01*
X237593D01*
X238376Y225969D01*
X239150Y226105D01*
X239909Y226308D01*
X240647Y226577D01*
X241360Y226909D01*
X242040Y227302D01*
X242684Y227753D01*
X243286Y228258D01*
X243842Y228814D01*
X244347Y229416D01*
X244798Y230060D01*
X245191Y230740D01*
X245523Y231453D01*
X245792Y232191D01*
X245995Y232950D01*
X246131Y233724D01*
X246200Y234507D01*
Y235293D01*
X246131Y236076D01*
X245995Y236850D01*
X245792Y237609D01*
X245523Y238347D01*
X245191Y239060D01*
X244798Y239740D01*
X244347Y240384D01*
X243842Y240986D01*
X243286Y241542D01*
X242684Y242047D01*
X242040Y242498D01*
X241360Y242891D01*
X240647Y243223D01*
X239909Y243492D01*
X239150Y243695D01*
X238376Y243831D01*
X237593Y243900D01*
D02*
G37*
G36*
X237481Y-229900D02*
X236919D01*
X236361Y-229963D01*
X235814Y-230088D01*
X235284Y-230273D01*
X234778Y-230517D01*
X234302Y-230816D01*
X233863Y-231166D01*
X233466Y-231563D01*
X233116Y-232002D01*
X232817Y-232478D01*
X232573Y-232984D01*
X232388Y-233514D01*
X232263Y-234061D01*
X232200Y-234619D01*
Y-235181D01*
X232263Y-235739D01*
X232388Y-236286D01*
X232573Y-236816D01*
X232817Y-237322D01*
X233116Y-237798D01*
X233466Y-238237D01*
X233863Y-238634D01*
X234302Y-238984D01*
X234778Y-239283D01*
X235284Y-239527D01*
X235814Y-239712D01*
X236361Y-239837D01*
X236919Y-239900D01*
X237481D01*
X238039Y-239837D01*
X238586Y-239712D01*
X239116Y-239527D01*
X239622Y-239283D01*
X240098Y-238984D01*
X240537Y-238634D01*
X240934Y-238237D01*
X241284Y-237798D01*
X241583Y-237322D01*
X241827Y-236816D01*
X242012Y-236286D01*
X242137Y-235739D01*
X242200Y-235181D01*
Y-234619D01*
X242137Y-234061D01*
X242012Y-233514D01*
X241827Y-232984D01*
X241583Y-232478D01*
X241284Y-232002D01*
X240934Y-231563D01*
X240537Y-231166D01*
X240098Y-230816D01*
X239622Y-230517D01*
X239116Y-230273D01*
X238586Y-230088D01*
X238039Y-229963D01*
X237481Y-229900D01*
D02*
G37*
G36*
X-236807Y-225900D02*
X-237593D01*
X-238376Y-225969D01*
X-239150Y-226105D01*
X-239909Y-226308D01*
X-240647Y-226577D01*
X-241360Y-226909D01*
X-242040Y-227302D01*
X-242684Y-227753D01*
X-243286Y-228258D01*
X-243842Y-228814D01*
X-244347Y-229416D01*
X-244798Y-230060D01*
X-245191Y-230740D01*
X-245523Y-231453D01*
X-245792Y-232191D01*
X-245995Y-232950D01*
X-246131Y-233724D01*
X-246200Y-234507D01*
Y-235293D01*
X-246131Y-236076D01*
X-245995Y-236850D01*
X-245792Y-237609D01*
X-245523Y-238347D01*
X-245191Y-239060D01*
X-244798Y-239740D01*
X-244347Y-240384D01*
X-243842Y-240986D01*
X-243286Y-241542D01*
X-242684Y-242047D01*
X-242040Y-242498D01*
X-241360Y-242891D01*
X-240647Y-243223D01*
X-239909Y-243492D01*
X-239150Y-243695D01*
X-238376Y-243831D01*
X-237593Y-243900D01*
X-236807D01*
X-236024Y-243831D01*
X-235250Y-243695D01*
X-234491Y-243492D01*
X-233753Y-243223D01*
X-233040Y-242891D01*
X-232360Y-242498D01*
X-231716Y-242047D01*
X-231114Y-241542D01*
X-230558Y-240986D01*
X-230053Y-240384D01*
X-229602Y-239740D01*
X-229209Y-239060D01*
X-228877Y-238347D01*
X-228608Y-237609D01*
X-228405Y-236850D01*
X-228269Y-236076D01*
X-228200Y-235293D01*
Y-234507D01*
X-228269Y-233724D01*
X-228405Y-232950D01*
X-228608Y-232191D01*
X-228877Y-231453D01*
X-229209Y-230740D01*
X-229602Y-230060D01*
X-230053Y-229416D01*
X-230558Y-228814D01*
X-231114Y-228258D01*
X-231716Y-227753D01*
X-232360Y-227302D01*
X-233040Y-226909D01*
X-233753Y-226577D01*
X-234491Y-226308D01*
X-235250Y-226105D01*
X-236024Y-225969D01*
X-236807Y-225900D01*
D02*
G37*
%LPD*%
G36*
X28000Y160000D02*
X0D01*
Y152500D01*
X-20000D01*
Y171000D01*
X28000D01*
Y160000D01*
D02*
G37*
G36*
X-59900Y165886D02*
X-59968D01*
Y164465D01*
X-55988D01*
Y164500D01*
X-55000D01*
Y152000D01*
X-96000D01*
Y169000D01*
X-59900D01*
Y165886D01*
D02*
G37*
G36*
X102000Y115000D02*
X30000D01*
Y180000D01*
X50000D01*
Y129000D01*
X76000D01*
Y180000D01*
X102000D01*
Y115000D01*
D02*
G37*
G36*
X-39000Y142441D02*
X-35559Y139000D01*
X-22500D01*
Y124500D01*
X-59000D01*
Y136000D01*
X-73500D01*
Y151000D01*
X-54000D01*
Y166500D01*
X-59000D01*
Y180000D01*
X-39000D01*
Y142441D01*
D02*
G37*
G36*
X116000Y115000D02*
X103000D01*
Y181000D01*
X66000D01*
Y130000D01*
X51000D01*
Y181000D01*
X28000D01*
Y172000D01*
X-21000D01*
Y151500D01*
X0D01*
Y135500D01*
X-21500D01*
Y140000D01*
X-35000D01*
X-38000Y143000D01*
Y186000D01*
X0D01*
Y196000D01*
X116000D01*
Y115000D01*
D02*
G37*
G36*
X28000Y112000D02*
X12000D01*
Y125000D01*
X1000D01*
Y154000D01*
X28000D01*
Y112000D01*
D02*
G37*
G36*
X-135500Y168329D02*
X-135789Y167916D01*
X-136156Y167281D01*
X-136466Y166617D01*
X-136717Y165928D01*
X-136906Y165219D01*
X-137034Y164497D01*
X-137077Y164000D01*
X-161000Y164000D01*
X-169000Y156000D01*
X-169000Y128400D01*
X-167759Y126000D01*
X-167759Y126000D01*
X-167759D01*
X-167568Y125606D01*
X-167687Y125400D01*
X-159713D01*
X-159832Y125606D01*
X-159605Y126000D01*
X-159000D01*
X-152500Y119500D01*
X-137429Y119500D01*
X-137068Y119106D01*
X-137098Y118767D01*
Y118033D01*
X-137034Y117303D01*
X-136906Y116581D01*
X-136717Y115872D01*
X-136466Y115183D01*
X-136156Y114519D01*
X-135789Y113884D01*
X-135500Y113471D01*
Y99500D01*
X-156700D01*
X-177000Y119800D01*
Y163400D01*
X-157900Y182500D01*
X-135500D01*
Y168329D01*
D02*
G37*
G36*
X-74500Y135000D02*
X-59968D01*
Y123500D01*
X10500D01*
Y96079D01*
X14272D01*
Y92921D01*
X11500D01*
Y91079D01*
X14272D01*
Y87921D01*
X10500D01*
Y82000D01*
X500D01*
Y111000D01*
X-60500D01*
Y96079D01*
X-56728D01*
Y92921D01*
X-59500D01*
Y91079D01*
X-56728D01*
Y87921D01*
X-60500D01*
Y82000D01*
X-70500D01*
Y111000D01*
X-85000D01*
Y112500D01*
X-89000D01*
Y137500D01*
X-90500D01*
Y147000D01*
X-74500D01*
Y135000D01*
D02*
G37*
G36*
X39000Y76500D02*
X41500D01*
Y67000D01*
X25000D01*
Y76500D01*
X32500D01*
Y86500D01*
X39000D01*
Y76500D01*
D02*
G37*
G36*
X-32000D02*
X-29500D01*
Y67000D01*
X-46000D01*
Y76500D01*
X-38500D01*
Y86500D01*
X-32000D01*
Y76500D01*
D02*
G37*
G36*
X24000Y66000D02*
X41500D01*
Y31500D01*
X34915D01*
X34906Y31506D01*
X34596Y31635D01*
X34268Y31700D01*
X33933D01*
X33604Y31635D01*
X33295Y31506D01*
X33285Y31500D01*
X9610D01*
X9601Y31506D01*
X9291Y31635D01*
X8963Y31700D01*
X8628D01*
X8299Y31635D01*
X7990Y31506D01*
X7980Y31500D01*
X500D01*
Y74500D01*
X24000D01*
Y66000D01*
D02*
G37*
G36*
X-500Y81000D02*
X12647D01*
X12693Y80846D01*
X12851Y80551D01*
X13064Y80292D01*
X13323Y80080D01*
X13618Y79922D01*
X13938Y79825D01*
X14272Y79792D01*
X14605Y79825D01*
X14925Y79922D01*
X15221Y80080D01*
X15480Y80292D01*
X15692Y80551D01*
X15850Y80846D01*
X15897Y81000D01*
X18500D01*
Y103000D01*
Y104000D01*
X31500D01*
Y103000D01*
Y77500D01*
X24000D01*
Y75500D01*
X-500D01*
Y31500D01*
X-14000D01*
Y110000D01*
X-500D01*
Y81000D01*
D02*
G37*
G36*
X-47000Y66000D02*
X-29500D01*
Y31500D01*
X-39602D01*
X-39612Y31506D01*
X-39921Y31635D01*
X-40250Y31700D01*
X-40585D01*
X-40913Y31635D01*
X-41223Y31506D01*
X-41232Y31500D01*
X-70500D01*
Y74500D01*
X-47000D01*
Y66000D01*
D02*
G37*
G36*
X-71500Y81000D02*
X-58353D01*
X-58307Y80846D01*
X-58149Y80551D01*
X-57936Y80292D01*
X-57677Y80080D01*
X-57382Y79922D01*
X-57062Y79825D01*
X-56728Y79792D01*
X-56395Y79825D01*
X-56075Y79922D01*
X-55779Y80080D01*
X-55520Y80292D01*
X-55308Y80551D01*
X-55150Y80846D01*
X-55103Y81000D01*
X-52500D01*
Y103000D01*
Y104000D01*
X-39500D01*
Y103000D01*
Y77500D01*
X-47000D01*
Y75500D01*
X-71500D01*
Y31500D01*
X-85000Y31500D01*
Y110000D01*
X-71500D01*
Y81000D01*
D02*
G37*
G36*
X-85000Y10500D02*
X-95000D01*
Y23000D01*
X-85000D01*
Y10500D01*
D02*
G37*
G36*
X-96000Y9500D02*
X-123000D01*
Y10551D01*
Y15185D01*
Y19819D01*
Y21000D01*
X-113000D01*
Y23500D01*
X-96000D01*
Y9500D01*
D02*
G37*
G36*
X-85000Y-3000D02*
X-94000D01*
Y-7500D01*
X-112500D01*
Y6000D01*
X-85000D01*
Y-3000D01*
D02*
G37*
G36*
X-114000Y-10000D02*
X-126000D01*
Y-4000D01*
X-123000D01*
Y-3819D01*
Y815D01*
Y5449D01*
Y6500D01*
X-114000D01*
Y-10000D01*
D02*
G37*
G36*
X-85000Y-79500D02*
X-95000D01*
Y-67000D01*
X-85000D01*
Y-79500D01*
D02*
G37*
G36*
X-96000Y-80500D02*
X-123000D01*
Y-79449D01*
Y-74815D01*
Y-70181D01*
Y-69000D01*
X-113000D01*
Y-66500D01*
X-96000D01*
Y-80500D01*
D02*
G37*
G36*
X-85000Y-93000D02*
X-94000D01*
Y-97500D01*
X-112500D01*
Y-84000D01*
X-85000D01*
Y-93000D01*
D02*
G37*
G36*
X-114000Y-100000D02*
X-126000D01*
Y-94000D01*
X-123000D01*
Y-93819D01*
Y-89185D01*
Y-84551D01*
Y-83500D01*
X-114000D01*
Y-100000D01*
D02*
G37*
%LPC*%
G36*
X-2051Y165886D02*
X-6032D01*
Y164465D01*
X-2051D01*
Y165886D01*
D02*
G37*
G36*
X-14031D02*
X-18012D01*
Y164465D01*
X-14031D01*
Y165886D01*
D02*
G37*
G36*
X14000Y165969D02*
Y164000D01*
X15969D01*
X15697Y164470D01*
X15343Y164932D01*
X14932Y165343D01*
X14470Y165697D01*
X14000Y165969D01*
D02*
G37*
G36*
X10000D02*
X9530Y165697D01*
X9068Y165343D01*
X8657Y164932D01*
X8303Y164470D01*
X8031Y164000D01*
X10000D01*
Y165969D01*
D02*
G37*
G36*
X-2051Y156465D02*
X-6032D01*
Y155043D01*
X-2051D01*
Y156465D01*
D02*
G37*
G36*
X-14031D02*
X-18012D01*
Y155043D01*
X-14031D01*
Y156465D01*
D02*
G37*
G36*
X-76750Y166907D02*
Y164478D01*
X-75811D01*
Y165402D01*
X-75843Y165731D01*
X-75939Y166048D01*
X-76095Y166340D01*
X-76306Y166596D01*
X-76561Y166806D01*
X-76750Y166907D01*
D02*
G37*
G36*
X-78250D02*
X-78439Y166806D01*
X-78694Y166596D01*
X-78904Y166340D01*
X-79061Y166048D01*
X-79157Y165731D01*
X-79189Y165402D01*
Y164478D01*
X-78250D01*
Y166907D01*
D02*
G37*
G36*
X-81750D02*
Y164478D01*
X-80811D01*
Y165402D01*
X-80843Y165731D01*
X-80939Y166048D01*
X-81095Y166340D01*
X-81305Y166596D01*
X-81561Y166806D01*
X-81750Y166907D01*
D02*
G37*
G36*
X-83250D02*
X-83438Y166806D01*
X-83694Y166596D01*
X-83904Y166340D01*
X-84061Y166048D01*
X-84157Y165731D01*
X-84189Y165402D01*
Y164478D01*
X-83250D01*
Y166907D01*
D02*
G37*
G36*
X-86750D02*
Y164478D01*
X-85811D01*
Y165402D01*
X-85843Y165731D01*
X-85939Y166048D01*
X-86095Y166340D01*
X-86305Y166596D01*
X-86562Y166806D01*
X-86750Y166907D01*
D02*
G37*
G36*
X-88250D02*
X-88438Y166806D01*
X-88695Y166596D01*
X-88905Y166340D01*
X-89061Y166048D01*
X-89157Y165731D01*
X-89189Y165402D01*
Y164478D01*
X-88250D01*
Y166907D01*
D02*
G37*
G36*
X-91750D02*
Y164478D01*
X-90811D01*
Y165402D01*
X-90843Y165731D01*
X-90939Y166048D01*
X-91096Y166340D01*
X-91306Y166596D01*
X-91562Y166806D01*
X-91750Y166907D01*
D02*
G37*
G36*
X-93250D02*
X-93439Y166806D01*
X-93695Y166596D01*
X-93905Y166340D01*
X-94061Y166048D01*
X-94157Y165731D01*
X-94189Y165402D01*
Y164478D01*
X-93250D01*
Y166907D01*
D02*
G37*
G36*
X-67968Y165886D02*
X-71949D01*
Y164465D01*
X-67968D01*
Y165886D01*
D02*
G37*
G36*
X-75811Y162978D02*
X-76750D01*
Y160550D01*
X-76561Y160651D01*
X-76306Y160861D01*
X-76095Y161117D01*
X-75939Y161409D01*
X-75843Y161726D01*
X-75811Y162055D01*
Y162978D01*
D02*
G37*
G36*
X-78250D02*
X-79189D01*
Y162055D01*
X-79157Y161726D01*
X-79061Y161409D01*
X-78904Y161117D01*
X-78694Y160861D01*
X-78439Y160651D01*
X-78250Y160550D01*
Y162978D01*
D02*
G37*
G36*
X-80811D02*
X-81750D01*
Y160550D01*
X-81561Y160651D01*
X-81305Y160861D01*
X-81095Y161117D01*
X-80939Y161409D01*
X-80843Y161726D01*
X-80811Y162055D01*
Y162978D01*
D02*
G37*
G36*
X-83250D02*
X-84189D01*
Y162055D01*
X-84157Y161726D01*
X-84061Y161409D01*
X-83904Y161117D01*
X-83694Y160861D01*
X-83438Y160651D01*
X-83250Y160550D01*
Y162978D01*
D02*
G37*
G36*
X-85811D02*
X-86750D01*
Y160550D01*
X-86562Y160651D01*
X-86305Y160861D01*
X-86095Y161117D01*
X-85939Y161409D01*
X-85843Y161726D01*
X-85811Y162055D01*
Y162978D01*
D02*
G37*
G36*
X-88250D02*
X-89189D01*
Y162055D01*
X-89157Y161726D01*
X-89061Y161409D01*
X-88905Y161117D01*
X-88695Y160861D01*
X-88438Y160651D01*
X-88250Y160550D01*
Y162978D01*
D02*
G37*
G36*
X-90811D02*
X-91750D01*
Y160550D01*
X-91562Y160651D01*
X-91306Y160861D01*
X-91096Y161117D01*
X-90939Y161409D01*
X-90843Y161726D01*
X-90811Y162055D01*
Y162978D01*
D02*
G37*
G36*
X-93250D02*
X-94189D01*
Y162055D01*
X-94157Y161726D01*
X-94061Y161409D01*
X-93905Y161117D01*
X-93695Y160861D01*
X-93439Y160651D01*
X-93250Y160550D01*
Y162978D01*
D02*
G37*
G36*
X-55988Y156465D02*
X-59968D01*
Y155043D01*
X-55988D01*
Y156465D01*
D02*
G37*
G36*
X-67968D02*
X-71949D01*
Y155043D01*
X-67968D01*
Y156465D01*
D02*
G37*
G36*
X46866Y177841D02*
X46110D01*
Y171967D01*
X46866D01*
Y177841D01*
D02*
G37*
G36*
X41110D02*
X40354D01*
Y171967D01*
X41110D01*
Y177841D01*
D02*
G37*
G36*
X84976Y177841D02*
X84220D01*
Y171967D01*
X84976D01*
Y177841D01*
D02*
G37*
G36*
X98756D02*
X98000D01*
Y171967D01*
X98756D01*
Y177841D01*
D02*
G37*
G36*
X93000D02*
X92244D01*
Y171967D01*
X93000D01*
Y177841D01*
D02*
G37*
G36*
X79220D02*
X78465D01*
Y171967D01*
X79220D01*
Y177841D01*
D02*
G37*
G36*
X98756Y166967D02*
X98000D01*
Y161093D01*
X98756D01*
Y166967D01*
D02*
G37*
G36*
X93000D02*
X92244D01*
Y161093D01*
X93000D01*
Y166967D01*
D02*
G37*
G36*
X84976D02*
X84220D01*
Y161093D01*
X84976D01*
Y166967D01*
D02*
G37*
G36*
X79220D02*
X78465D01*
Y161093D01*
X79220D01*
Y166967D01*
D02*
G37*
G36*
X46866Y166967D02*
X46110D01*
Y161093D01*
X46866D01*
Y166967D01*
D02*
G37*
G36*
X41110D02*
X40354D01*
Y161093D01*
X41110D01*
Y166967D01*
D02*
G37*
G36*
X84976Y148707D02*
X84220D01*
Y142833D01*
X84976D01*
Y148707D01*
D02*
G37*
G36*
X98756D02*
X98000D01*
Y142833D01*
X98756D01*
Y148707D01*
D02*
G37*
G36*
X93000D02*
X92244D01*
Y142833D01*
X93000D01*
Y148707D01*
D02*
G37*
G36*
X79220D02*
X78465D01*
Y142833D01*
X79220D01*
Y148707D01*
D02*
G37*
G36*
X46866Y148707D02*
X46110D01*
Y142833D01*
X46866D01*
Y148707D01*
D02*
G37*
G36*
X41110D02*
X40354D01*
Y142833D01*
X41110D01*
Y148707D01*
D02*
G37*
G36*
X98756Y137833D02*
X98000D01*
Y131959D01*
X98756D01*
Y137833D01*
D02*
G37*
G36*
X93000D02*
X92244D01*
Y131959D01*
X93000D01*
Y137833D01*
D02*
G37*
G36*
X84976D02*
X84220D01*
Y131959D01*
X84976D01*
Y137833D01*
D02*
G37*
G36*
X79220D02*
X78465D01*
Y131959D01*
X79220D01*
Y137833D01*
D02*
G37*
G36*
X46866Y137833D02*
X46110D01*
Y131959D01*
X46866D01*
Y137833D01*
D02*
G37*
G36*
X41110D02*
X40354D01*
Y131959D01*
X41110D01*
Y137833D01*
D02*
G37*
G36*
X41539Y128569D02*
Y126256D01*
X43853D01*
X43792Y126382D01*
X43468Y126898D01*
X43088Y127374D01*
X42658Y127805D01*
X42181Y128184D01*
X41666Y128508D01*
X41539Y128569D01*
D02*
G37*
G36*
X36539Y128569D02*
X36413Y128508D01*
X35897Y128184D01*
X35421Y127805D01*
X34991Y127374D01*
X34611Y126898D01*
X34287Y126382D01*
X34226Y126256D01*
X36539D01*
Y128569D01*
D02*
G37*
G36*
X99449Y124650D02*
X97315D01*
Y123500D01*
X99449D01*
Y124650D01*
D02*
G37*
G36*
X92315D02*
X90181D01*
Y123500D01*
X92315D01*
Y124650D01*
D02*
G37*
G36*
X36539Y121256D02*
X34226D01*
X34287Y121129D01*
X34611Y120614D01*
X34991Y120138D01*
X35421Y119707D01*
X35897Y119328D01*
X36413Y119004D01*
X36539Y118943D01*
Y121256D01*
D02*
G37*
G36*
X43853D02*
X41539D01*
Y118943D01*
X41666Y119004D01*
X42181Y119328D01*
X42658Y119707D01*
X43088Y120138D01*
X43468Y120614D01*
X43792Y121129D01*
X43853Y121256D01*
D02*
G37*
G36*
X99449Y118500D02*
X97315D01*
Y117350D01*
X99449D01*
Y118500D01*
D02*
G37*
G36*
X92315D02*
X90181D01*
Y117350D01*
X92315D01*
Y118500D01*
D02*
G37*
G36*
X-42602Y177303D02*
X-45795D01*
Y176276D01*
X-42602D01*
Y177303D01*
D02*
G37*
G36*
X-53795D02*
X-56988D01*
Y176276D01*
X-53795D01*
Y177303D01*
D02*
G37*
G36*
X-42602Y168276D02*
X-45795D01*
Y167248D01*
X-42602D01*
Y168276D01*
D02*
G37*
G36*
X-53795D02*
X-56988D01*
Y167248D01*
X-53795D01*
Y168276D01*
D02*
G37*
G36*
X-55988Y148957D02*
X-59968D01*
Y147535D01*
X-55988D01*
Y148957D01*
D02*
G37*
G36*
X-67968D02*
X-71949D01*
Y147535D01*
X-67968D01*
Y148957D01*
D02*
G37*
G36*
X-55988Y139535D02*
X-59968D01*
Y138114D01*
X-55988D01*
Y139535D01*
D02*
G37*
G36*
X-67968D02*
X-71949D01*
Y138114D01*
X-67968D01*
Y139535D01*
D02*
G37*
G36*
X-24886Y136752D02*
X-36937D01*
Y135724D01*
X-24886D01*
Y136752D01*
D02*
G37*
G36*
X-44937D02*
X-56988D01*
Y135724D01*
X-44937D01*
Y136752D01*
D02*
G37*
G36*
X-24886Y127724D02*
X-36937D01*
Y126697D01*
X-24886D01*
Y127724D01*
D02*
G37*
G36*
X-44937D02*
X-56988D01*
Y126697D01*
X-44937D01*
Y127724D01*
D02*
G37*
G36*
X60646Y177841D02*
X59890D01*
Y171967D01*
X60646D01*
Y177841D01*
D02*
G37*
G36*
X54890D02*
X54134D01*
Y171967D01*
X54890D01*
Y177841D01*
D02*
G37*
G36*
X112535Y177841D02*
X111779D01*
Y171967D01*
X112535D01*
Y177841D01*
D02*
G37*
G36*
X106780D02*
X106024D01*
Y171967D01*
X106780D01*
Y177841D01*
D02*
G37*
G36*
X112535Y166967D02*
X111779D01*
Y161093D01*
X112535D01*
Y166967D01*
D02*
G37*
G36*
X106780D02*
X106024D01*
Y161093D01*
X106780D01*
Y166967D01*
D02*
G37*
G36*
X60646Y166967D02*
X59890D01*
Y161093D01*
X60646D01*
Y166967D01*
D02*
G37*
G36*
X54890D02*
X54134D01*
Y161093D01*
X54890D01*
Y166967D01*
D02*
G37*
G36*
X-2051Y148957D02*
X-6032D01*
Y147535D01*
X-2051D01*
Y148957D01*
D02*
G37*
G36*
X-14031D02*
X-18012D01*
Y147535D01*
X-14031D01*
Y148957D01*
D02*
G37*
G36*
X112535Y148707D02*
X111779D01*
Y142833D01*
X112535D01*
Y148707D01*
D02*
G37*
G36*
X106780D02*
X106024D01*
Y142833D01*
X106780D01*
Y148707D01*
D02*
G37*
G36*
X60646Y148707D02*
X59890D01*
Y142833D01*
X60646D01*
Y148707D01*
D02*
G37*
G36*
X54890D02*
X54134D01*
Y142833D01*
X54890D01*
Y148707D01*
D02*
G37*
G36*
X-2051Y139535D02*
X-6032D01*
Y138114D01*
X-2051D01*
Y139535D01*
D02*
G37*
G36*
X-14031D02*
X-18012D01*
Y138114D01*
X-14031D01*
Y139535D01*
D02*
G37*
G36*
X112535Y137833D02*
X111779D01*
Y131959D01*
X112535D01*
Y137833D01*
D02*
G37*
G36*
X106780D02*
X106024D01*
Y131959D01*
X106780D01*
Y137833D01*
D02*
G37*
G36*
X60646Y137833D02*
X59890D01*
Y131959D01*
X60646D01*
Y137833D01*
D02*
G37*
G36*
X54890D02*
X54134D01*
Y131959D01*
X54890D01*
Y137833D01*
D02*
G37*
G36*
X113819Y124650D02*
X111685D01*
Y123500D01*
X113819D01*
Y124650D01*
D02*
G37*
G36*
X106685D02*
X104551D01*
Y123500D01*
X106685D01*
Y124650D01*
D02*
G37*
G36*
X113819Y118500D02*
X111685D01*
Y117350D01*
X113819D01*
Y118500D01*
D02*
G37*
G36*
X106685D02*
X104551D01*
Y117350D01*
X106685D01*
Y118500D01*
D02*
G37*
G36*
X15969Y150000D02*
X14000D01*
Y148031D01*
X14470Y148303D01*
X14932Y148657D01*
X15343Y149068D01*
X15697Y149530D01*
X15969Y150000D01*
D02*
G37*
G36*
X10000D02*
X8031D01*
X8303Y149530D01*
X8657Y149068D01*
X9068Y148657D01*
X9530Y148303D01*
X10000Y148031D01*
Y150000D01*
D02*
G37*
G36*
X16437Y146437D02*
X7563D01*
Y137563D01*
X16437D01*
Y146437D01*
D02*
G37*
G36*
X21461Y123057D02*
Y120744D01*
X23774D01*
X23713Y120871D01*
X23389Y121386D01*
X23009Y121862D01*
X22579Y122293D01*
X22103Y122672D01*
X21587Y122996D01*
X21461Y123057D01*
D02*
G37*
G36*
X16461Y123057D02*
X16334Y122996D01*
X15819Y122672D01*
X15342Y122293D01*
X14912Y121862D01*
X14532Y121386D01*
X14208Y120871D01*
X14147Y120744D01*
X16461D01*
Y123057D01*
D02*
G37*
G36*
X23774Y115744D02*
X21461D01*
Y113431D01*
X21587Y113492D01*
X22103Y113816D01*
X22579Y114195D01*
X23009Y114626D01*
X23389Y115102D01*
X23713Y115618D01*
X23774Y115744D01*
D02*
G37*
G36*
X16461D02*
X14147D01*
X14208Y115618D01*
X14532Y115102D01*
X14912Y114626D01*
X15342Y114195D01*
X15819Y113816D01*
X16334Y113492D01*
X16461Y113431D01*
Y115744D01*
D02*
G37*
G36*
X-142000Y178509D02*
Y174200D01*
X-137691D01*
X-137761Y174432D01*
X-138010Y175033D01*
X-138317Y175607D01*
X-138678Y176147D01*
X-139090Y176650D01*
X-139550Y177110D01*
X-140053Y177522D01*
X-140594Y177883D01*
X-141167Y178190D01*
X-141768Y178439D01*
X-142000Y178509D01*
D02*
G37*
G36*
X-146000D02*
X-146232Y178439D01*
X-146833Y178190D01*
X-147406Y177883D01*
X-147947Y177522D01*
X-148450Y177110D01*
X-148910Y176650D01*
X-149322Y176147D01*
X-149683Y175607D01*
X-149990Y175033D01*
X-150239Y174432D01*
X-150309Y174200D01*
X-146000D01*
Y178509D01*
D02*
G37*
G36*
X-137691Y170200D02*
X-142000D01*
Y165891D01*
X-141768Y165961D01*
X-141167Y166210D01*
X-140594Y166517D01*
X-140053Y166878D01*
X-139550Y167290D01*
X-139090Y167750D01*
X-138678Y168253D01*
X-138317Y168793D01*
X-138010Y169367D01*
X-137761Y169968D01*
X-137691Y170200D01*
D02*
G37*
G36*
X-146000D02*
X-150309D01*
X-150239Y169968D01*
X-149990Y169367D01*
X-149683Y168793D01*
X-149322Y168253D01*
X-148910Y167750D01*
X-148450Y167290D01*
X-147947Y166878D01*
X-147406Y166517D01*
X-146833Y166210D01*
X-146232Y165961D01*
X-146000Y165891D01*
Y170200D01*
D02*
G37*
G36*
X-159713Y121400D02*
X-161700D01*
Y119413D01*
X-161221Y119690D01*
X-160758Y120045D01*
X-160345Y120458D01*
X-159990Y120921D01*
X-159713Y121400D01*
D02*
G37*
G36*
X-165700D02*
X-167687D01*
X-167410Y120921D01*
X-167055Y120458D01*
X-166642Y120045D01*
X-166179Y119690D01*
X-165700Y119413D01*
Y121400D01*
D02*
G37*
G36*
X-142000Y115909D02*
Y111600D01*
X-137691D01*
X-137761Y111832D01*
X-138010Y112433D01*
X-138317Y113006D01*
X-138678Y113547D01*
X-139090Y114050D01*
X-139550Y114510D01*
X-140053Y114922D01*
X-140594Y115283D01*
X-141167Y115590D01*
X-141768Y115839D01*
X-142000Y115909D01*
D02*
G37*
G36*
X-146000D02*
X-146232Y115839D01*
X-146833Y115590D01*
X-147406Y115283D01*
X-147947Y114922D01*
X-148450Y114510D01*
X-148910Y114050D01*
X-149322Y113547D01*
X-149683Y113006D01*
X-149990Y112433D01*
X-150239Y111832D01*
X-150309Y111600D01*
X-146000D01*
Y115909D01*
D02*
G37*
G36*
X-137691Y107600D02*
X-142000D01*
Y103291D01*
X-141768Y103361D01*
X-141167Y103610D01*
X-140594Y103917D01*
X-140053Y104278D01*
X-139550Y104690D01*
X-139090Y105150D01*
X-138678Y105653D01*
X-138317Y106193D01*
X-138010Y106767D01*
X-137761Y107368D01*
X-137691Y107600D01*
D02*
G37*
G36*
X-146000D02*
X-150309D01*
X-150239Y107368D01*
X-149990Y106767D01*
X-149683Y106193D01*
X-149322Y105653D01*
X-148910Y105150D01*
X-148450Y104690D01*
X-147947Y104278D01*
X-147406Y103917D01*
X-146833Y103610D01*
X-146232Y103361D01*
X-146000Y103291D01*
Y107600D01*
D02*
G37*
G36*
X-76750Y145450D02*
Y143022D01*
X-75811D01*
Y143945D01*
X-75843Y144274D01*
X-75939Y144591D01*
X-76095Y144883D01*
X-76306Y145139D01*
X-76561Y145349D01*
X-76750Y145450D01*
D02*
G37*
G36*
X-78250D02*
X-78439Y145349D01*
X-78694Y145139D01*
X-78904Y144883D01*
X-79061Y144591D01*
X-79157Y144274D01*
X-79189Y143945D01*
Y143022D01*
X-78250D01*
Y145450D01*
D02*
G37*
G36*
X-81750D02*
Y143022D01*
X-80811D01*
Y143945D01*
X-80843Y144274D01*
X-80939Y144591D01*
X-81095Y144883D01*
X-81305Y145139D01*
X-81561Y145349D01*
X-81750Y145450D01*
D02*
G37*
G36*
X-83250D02*
X-83438Y145349D01*
X-83694Y145139D01*
X-83904Y144883D01*
X-84061Y144591D01*
X-84157Y144274D01*
X-84189Y143945D01*
Y143022D01*
X-83250D01*
Y145450D01*
D02*
G37*
G36*
X-86750D02*
Y143022D01*
X-85811D01*
Y143945D01*
X-85843Y144274D01*
X-85939Y144591D01*
X-86095Y144883D01*
X-86305Y145139D01*
X-86562Y145349D01*
X-86750Y145450D01*
D02*
G37*
G36*
X-88250D02*
X-88438Y145349D01*
X-88695Y145139D01*
X-88905Y144883D01*
X-89061Y144591D01*
X-89157Y144274D01*
X-89189Y143945D01*
Y143022D01*
X-88250D01*
Y145450D01*
D02*
G37*
G36*
X-75811Y141522D02*
X-76750D01*
Y139093D01*
X-76561Y139194D01*
X-76306Y139404D01*
X-76095Y139660D01*
X-75939Y139952D01*
X-75843Y140269D01*
X-75811Y140598D01*
Y141522D01*
D02*
G37*
G36*
X-78250D02*
X-79189D01*
Y140598D01*
X-79157Y140269D01*
X-79061Y139952D01*
X-78904Y139660D01*
X-78694Y139404D01*
X-78439Y139194D01*
X-78250Y139093D01*
Y141522D01*
D02*
G37*
G36*
X-80811D02*
X-81750D01*
Y139093D01*
X-81561Y139194D01*
X-81305Y139404D01*
X-81095Y139660D01*
X-80939Y139952D01*
X-80843Y140269D01*
X-80811Y140598D01*
Y141522D01*
D02*
G37*
G36*
X-83250D02*
X-84189D01*
Y140598D01*
X-84157Y140269D01*
X-84061Y139952D01*
X-83904Y139660D01*
X-83694Y139404D01*
X-83438Y139194D01*
X-83250Y139093D01*
Y141522D01*
D02*
G37*
G36*
X-85811D02*
X-86750D01*
Y139093D01*
X-86562Y139194D01*
X-86305Y139404D01*
X-86095Y139660D01*
X-85939Y139952D01*
X-85843Y140269D01*
X-85811Y140598D01*
Y141522D01*
D02*
G37*
G36*
X-88250D02*
X-89189D01*
Y140598D01*
X-89157Y140269D01*
X-89061Y139952D01*
X-88905Y139660D01*
X-88695Y139404D01*
X-88438Y139194D01*
X-88250Y139093D01*
Y141522D01*
D02*
G37*
G36*
X-72905Y123698D02*
X-74571D01*
Y120360D01*
X-72905D01*
Y123698D01*
D02*
G37*
G36*
X-76571D02*
X-78236D01*
Y120360D01*
X-76571D01*
Y123698D01*
D02*
G37*
G36*
X-72905Y118360D02*
X-74571D01*
Y115021D01*
X-72905D01*
Y118360D01*
D02*
G37*
G36*
X-76571D02*
X-78236D01*
Y115021D01*
X-76571D01*
Y118360D01*
D02*
G37*
G36*
X8965Y109012D02*
X8504D01*
Y105500D01*
X8965D01*
Y109012D01*
D02*
G37*
G36*
X-62035D02*
X-62496D01*
Y105500D01*
X-62035D01*
Y109012D01*
D02*
G37*
G36*
X3504D02*
X3043D01*
Y105500D01*
X3504D01*
Y109012D01*
D02*
G37*
G36*
X-67496D02*
X-67957D01*
Y105500D01*
X-67496D01*
Y109012D01*
D02*
G37*
G36*
X8965Y100500D02*
X8504D01*
Y96988D01*
X8965D01*
Y100500D01*
D02*
G37*
G36*
X3504D02*
X3043D01*
Y96988D01*
X3504D01*
Y100500D01*
D02*
G37*
G36*
X-62035D02*
X-62496D01*
Y96988D01*
X-62035D01*
Y100500D01*
D02*
G37*
G36*
X-67496D02*
X-67957D01*
Y96988D01*
X-67496D01*
Y100500D01*
D02*
G37*
G36*
X8965Y95012D02*
X8504D01*
Y91500D01*
X8965D01*
Y95012D01*
D02*
G37*
G36*
X-62035D02*
X-62496D01*
Y91500D01*
X-62035D01*
Y95012D01*
D02*
G37*
G36*
X3504D02*
X3043D01*
Y91500D01*
X3504D01*
Y95012D01*
D02*
G37*
G36*
X-67496D02*
X-67957D01*
Y91500D01*
X-67496D01*
Y95012D01*
D02*
G37*
G36*
X8965Y86500D02*
X8504D01*
Y82988D01*
X8965D01*
Y86500D01*
D02*
G37*
G36*
X3504D02*
X3043D01*
Y82988D01*
X3504D01*
Y86500D01*
D02*
G37*
G36*
X-62035D02*
X-62496D01*
Y82988D01*
X-62035D01*
Y86500D01*
D02*
G37*
G36*
X-67496D02*
X-67957D01*
Y82988D01*
X-67496D01*
Y86500D01*
D02*
G37*
G36*
X8965Y74012D02*
X8504D01*
Y70500D01*
X8965D01*
Y74012D01*
D02*
G37*
G36*
X3504D02*
X3043D01*
Y70500D01*
X3504D01*
Y74012D01*
D02*
G37*
G36*
X8965Y65500D02*
X8504D01*
Y61988D01*
X8965D01*
Y65500D01*
D02*
G37*
G36*
X3504D02*
X3043D01*
Y61988D01*
X3504D01*
Y65500D01*
D02*
G37*
G36*
X8965Y59012D02*
X8504D01*
Y55500D01*
X8965D01*
Y59012D01*
D02*
G37*
G36*
X3504D02*
X3043D01*
Y55500D01*
X3504D01*
Y59012D01*
D02*
G37*
G36*
X8965Y50500D02*
X8504D01*
Y46988D01*
X8965D01*
Y50500D01*
D02*
G37*
G36*
X3504D02*
X3043D01*
Y46988D01*
X3504D01*
Y50500D01*
D02*
G37*
G36*
X8965Y44012D02*
X8504D01*
Y40500D01*
X8965D01*
Y44012D01*
D02*
G37*
G36*
X3504D02*
X3043D01*
Y40500D01*
X3504D01*
Y44012D01*
D02*
G37*
G36*
X40587Y40327D02*
X36500D01*
Y39783D01*
X40587D01*
Y40327D01*
D02*
G37*
G36*
X29500D02*
X25413D01*
Y39783D01*
X29500D01*
Y40327D01*
D02*
G37*
G36*
X40587Y32783D02*
X36500D01*
Y32240D01*
X40587D01*
Y32783D01*
D02*
G37*
G36*
X29500D02*
X25413D01*
Y32240D01*
X29500D01*
Y32783D01*
D02*
G37*
G36*
X8965Y35500D02*
X8504D01*
Y31988D01*
X8965D01*
Y35500D01*
D02*
G37*
G36*
X3504D02*
X3043D01*
Y31988D01*
X3504D01*
Y35500D01*
D02*
G37*
G36*
X-3043Y109012D02*
X-3504D01*
Y105500D01*
X-3043D01*
Y109012D01*
D02*
G37*
G36*
X-8504D02*
X-8965D01*
Y105500D01*
X-8504D01*
Y109012D01*
D02*
G37*
G36*
X-3043Y100500D02*
X-3504D01*
Y96988D01*
X-3043D01*
Y100500D01*
D02*
G37*
G36*
X-8504D02*
X-8965D01*
Y96988D01*
X-8504D01*
Y100500D01*
D02*
G37*
G36*
X30644Y99394D02*
X29000D01*
Y96000D01*
X30644D01*
Y99394D01*
D02*
G37*
G36*
X21000D02*
X19356D01*
Y96000D01*
X21000D01*
Y99394D01*
D02*
G37*
G36*
X-3043Y95012D02*
X-3504D01*
Y91500D01*
X-3043D01*
Y95012D01*
D02*
G37*
G36*
X-8504D02*
X-8965D01*
Y91500D01*
X-8504D01*
Y95012D01*
D02*
G37*
G36*
X30644Y88000D02*
X29000D01*
Y84606D01*
X30644D01*
Y88000D01*
D02*
G37*
G36*
X21000D02*
X19356D01*
Y84606D01*
X21000D01*
Y88000D01*
D02*
G37*
G36*
X-3043Y86500D02*
X-3504D01*
Y82988D01*
X-3043D01*
Y86500D01*
D02*
G37*
G36*
X-8504D02*
X-8965D01*
Y82988D01*
X-8504D01*
Y86500D01*
D02*
G37*
G36*
X-3043Y74012D02*
X-3504D01*
Y70500D01*
X-3043D01*
Y74012D01*
D02*
G37*
G36*
X-8504D02*
X-8965D01*
Y70500D01*
X-8504D01*
Y74012D01*
D02*
G37*
G36*
X-3043Y65500D02*
X-3504D01*
Y61988D01*
X-3043D01*
Y65500D01*
D02*
G37*
G36*
X-8504D02*
X-8965D01*
Y61988D01*
X-8504D01*
Y65500D01*
D02*
G37*
G36*
X-3043Y59012D02*
X-3504D01*
Y55500D01*
X-3043D01*
Y59012D01*
D02*
G37*
G36*
X-8504D02*
X-8965D01*
Y55500D01*
X-8504D01*
Y59012D01*
D02*
G37*
G36*
X-3043Y50500D02*
X-3504D01*
Y46988D01*
X-3043D01*
Y50500D01*
D02*
G37*
G36*
X-8504D02*
X-8965D01*
Y46988D01*
X-8504D01*
Y50500D01*
D02*
G37*
G36*
X-3043Y44012D02*
X-3504D01*
Y40500D01*
X-3043D01*
Y44012D01*
D02*
G37*
G36*
X-8504D02*
X-8965D01*
Y40500D01*
X-8504D01*
Y44012D01*
D02*
G37*
G36*
X-3043Y35500D02*
X-3504D01*
Y31988D01*
X-3043D01*
Y35500D01*
D02*
G37*
G36*
X-8504D02*
X-8965D01*
Y31988D01*
X-8504D01*
Y35500D01*
D02*
G37*
G36*
X-62035Y74012D02*
X-62496D01*
Y70500D01*
X-62035D01*
Y74012D01*
D02*
G37*
G36*
X-67496D02*
X-67957D01*
Y70500D01*
X-67496D01*
Y74012D01*
D02*
G37*
G36*
X-62035Y65500D02*
X-62496D01*
Y61988D01*
X-62035D01*
Y65500D01*
D02*
G37*
G36*
X-67496D02*
X-67957D01*
Y61988D01*
X-67496D01*
Y65500D01*
D02*
G37*
G36*
X-62035Y59012D02*
X-62496D01*
Y55500D01*
X-62035D01*
Y59012D01*
D02*
G37*
G36*
X-67496D02*
X-67957D01*
Y55500D01*
X-67496D01*
Y59012D01*
D02*
G37*
G36*
X-62035Y50500D02*
X-62496D01*
Y46988D01*
X-62035D01*
Y50500D01*
D02*
G37*
G36*
X-67496D02*
X-67957D01*
Y46988D01*
X-67496D01*
Y50500D01*
D02*
G37*
G36*
X-62035Y44012D02*
X-62496D01*
Y40500D01*
X-62035D01*
Y44012D01*
D02*
G37*
G36*
X-67496D02*
X-67957D01*
Y40500D01*
X-67496D01*
Y44012D01*
D02*
G37*
G36*
X-30413Y40327D02*
X-34500D01*
Y39783D01*
X-30413D01*
Y40327D01*
D02*
G37*
G36*
X-41500D02*
X-45587D01*
Y39783D01*
X-41500D01*
Y40327D01*
D02*
G37*
G36*
X-30413Y32783D02*
X-34500D01*
Y32240D01*
X-30413D01*
Y32783D01*
D02*
G37*
G36*
X-41500D02*
X-45587D01*
Y32240D01*
X-41500D01*
Y32783D01*
D02*
G37*
G36*
X-62035Y35500D02*
X-62496D01*
Y31988D01*
X-62035D01*
Y35500D01*
D02*
G37*
G36*
X-67496D02*
X-67957D01*
Y31988D01*
X-67496D01*
Y35500D01*
D02*
G37*
G36*
X-74043Y109012D02*
X-74504D01*
Y105500D01*
X-74043D01*
Y109012D01*
D02*
G37*
G36*
X-79504D02*
X-79965D01*
Y105500D01*
X-79504D01*
Y109012D01*
D02*
G37*
G36*
X-74043Y100500D02*
X-74504D01*
Y96988D01*
X-74043D01*
Y100500D01*
D02*
G37*
G36*
X-79504D02*
X-79965D01*
Y96988D01*
X-79504D01*
Y100500D01*
D02*
G37*
G36*
X-40356Y99394D02*
X-42000D01*
Y96000D01*
X-40356D01*
Y99394D01*
D02*
G37*
G36*
X-50000D02*
X-51644D01*
Y96000D01*
X-50000D01*
Y99394D01*
D02*
G37*
G36*
X-74043Y95012D02*
X-74504D01*
Y91500D01*
X-74043D01*
Y95012D01*
D02*
G37*
G36*
X-79504D02*
X-79965D01*
Y91500D01*
X-79504D01*
Y95012D01*
D02*
G37*
G36*
X-40356Y88000D02*
X-42000D01*
Y84606D01*
X-40356D01*
Y88000D01*
D02*
G37*
G36*
X-50000D02*
X-51644D01*
Y84606D01*
X-50000D01*
Y88000D01*
D02*
G37*
G36*
X-74043Y86500D02*
X-74504D01*
Y82988D01*
X-74043D01*
Y86500D01*
D02*
G37*
G36*
X-79504D02*
X-79965D01*
Y82988D01*
X-79504D01*
Y86500D01*
D02*
G37*
G36*
X-74043Y74012D02*
X-74504D01*
Y70500D01*
X-74043D01*
Y74012D01*
D02*
G37*
G36*
X-79504D02*
X-79965D01*
Y70500D01*
X-79504D01*
Y74012D01*
D02*
G37*
G36*
X-74043Y65500D02*
X-74504D01*
Y61988D01*
X-74043D01*
Y65500D01*
D02*
G37*
G36*
X-79504D02*
X-79965D01*
Y61988D01*
X-79504D01*
Y65500D01*
D02*
G37*
G36*
X-74043Y59012D02*
X-74504D01*
Y55500D01*
X-74043D01*
Y59012D01*
D02*
G37*
G36*
X-79504D02*
X-79965D01*
Y55500D01*
X-79504D01*
Y59012D01*
D02*
G37*
G36*
X-74043Y50500D02*
X-74504D01*
Y46988D01*
X-74043D01*
Y50500D01*
D02*
G37*
G36*
X-79504D02*
X-79965D01*
Y46988D01*
X-79504D01*
Y50500D01*
D02*
G37*
G36*
X-74043Y44012D02*
X-74504D01*
Y40500D01*
X-74043D01*
Y44012D01*
D02*
G37*
G36*
X-79504D02*
X-79965D01*
Y40500D01*
X-79504D01*
Y44012D01*
D02*
G37*
G36*
X-74043Y35500D02*
X-74504D01*
Y31988D01*
X-74043D01*
Y35500D01*
D02*
G37*
G36*
X-79504D02*
X-79965D01*
Y31988D01*
X-79504D01*
Y35500D01*
D02*
G37*
G36*
X-85917Y17358D02*
X-87750D01*
Y16667D01*
X-85917D01*
Y17358D01*
D02*
G37*
G36*
X-92250D02*
X-94083D01*
Y16667D01*
X-92250D01*
Y17358D01*
D02*
G37*
G36*
X-85917Y12167D02*
X-87750D01*
Y11476D01*
X-85917D01*
Y12167D01*
D02*
G37*
G36*
X-92250D02*
X-94083D01*
Y11476D01*
X-92250D01*
Y12167D01*
D02*
G37*
G36*
X-96610Y22299D02*
X-100500D01*
Y21795D01*
X-96610D01*
Y22299D01*
D02*
G37*
G36*
X-107500D02*
X-111390D01*
Y21795D01*
X-107500D01*
Y22299D01*
D02*
G37*
G36*
X-116350Y19819D02*
X-117000D01*
Y18185D01*
X-116350D01*
Y19819D01*
D02*
G37*
G36*
X-96610Y14795D02*
X-100500D01*
Y14291D01*
X-96610D01*
Y14795D01*
D02*
G37*
G36*
X-107500D02*
X-111390D01*
Y14291D01*
X-107500D01*
Y14795D01*
D02*
G37*
G36*
X-116350Y12185D02*
X-117000D01*
Y10551D01*
X-116350D01*
Y12185D01*
D02*
G37*
G36*
X-85917Y4524D02*
X-87750D01*
Y3833D01*
X-85917D01*
Y4524D01*
D02*
G37*
G36*
X-92250D02*
X-94083D01*
Y3833D01*
X-92250D01*
Y4524D01*
D02*
G37*
G36*
X-96610Y1709D02*
X-100500D01*
Y1205D01*
X-96610D01*
Y1709D01*
D02*
G37*
G36*
X-107500D02*
X-111390D01*
Y1205D01*
X-107500D01*
Y1709D01*
D02*
G37*
G36*
X-85917Y-667D02*
X-87750D01*
Y-1358D01*
X-85917D01*
Y-667D01*
D02*
G37*
G36*
X-92250D02*
X-94083D01*
Y-1358D01*
X-92250D01*
Y-667D01*
D02*
G37*
G36*
X-96610Y-5795D02*
X-100500D01*
Y-6299D01*
X-96610D01*
Y-5795D01*
D02*
G37*
G36*
X-107500D02*
X-111390D01*
Y-6299D01*
X-107500D01*
Y-5795D01*
D02*
G37*
G36*
X-116350Y5449D02*
X-117000D01*
Y3815D01*
X-116350D01*
Y5449D01*
D02*
G37*
G36*
Y-2185D02*
X-117000D01*
Y-3819D01*
X-116350D01*
Y-2185D01*
D02*
G37*
G36*
X-85917Y-72642D02*
X-87750D01*
Y-73333D01*
X-85917D01*
Y-72642D01*
D02*
G37*
G36*
X-92250D02*
X-94083D01*
Y-73333D01*
X-92250D01*
Y-72642D01*
D02*
G37*
G36*
X-85917Y-77833D02*
X-87750D01*
Y-78524D01*
X-85917D01*
Y-77833D01*
D02*
G37*
G36*
X-92250D02*
X-94083D01*
Y-78524D01*
X-92250D01*
Y-77833D01*
D02*
G37*
G36*
X-96610Y-67701D02*
X-100500D01*
Y-68205D01*
X-96610D01*
Y-67701D01*
D02*
G37*
G36*
X-107500D02*
X-111390D01*
Y-68205D01*
X-107500D01*
Y-67701D01*
D02*
G37*
G36*
X-116350Y-70181D02*
X-117000D01*
Y-71815D01*
X-116350D01*
Y-70181D01*
D02*
G37*
G36*
X-96610Y-75205D02*
X-100500D01*
Y-75709D01*
X-96610D01*
Y-75205D01*
D02*
G37*
G36*
X-107500D02*
X-111390D01*
Y-75709D01*
X-107500D01*
Y-75205D01*
D02*
G37*
G36*
X-116350Y-77815D02*
X-117000D01*
Y-79449D01*
X-116350D01*
Y-77815D01*
D02*
G37*
G36*
X-85917Y-85476D02*
X-87750D01*
Y-86167D01*
X-85917D01*
Y-85476D01*
D02*
G37*
G36*
X-92250D02*
X-94083D01*
Y-86167D01*
X-92250D01*
Y-85476D01*
D02*
G37*
G36*
X-96610Y-88291D02*
X-100500D01*
Y-88795D01*
X-96610D01*
Y-88291D01*
D02*
G37*
G36*
X-107500D02*
X-111390D01*
Y-88795D01*
X-107500D01*
Y-88291D01*
D02*
G37*
G36*
X-85917Y-90667D02*
X-87750D01*
Y-91358D01*
X-85917D01*
Y-90667D01*
D02*
G37*
G36*
X-92250D02*
X-94083D01*
Y-91358D01*
X-92250D01*
Y-90667D01*
D02*
G37*
G36*
X-96610Y-95795D02*
X-100500D01*
Y-96299D01*
X-96610D01*
Y-95795D01*
D02*
G37*
G36*
X-107500D02*
X-111390D01*
Y-96299D01*
X-107500D01*
Y-95795D01*
D02*
G37*
G36*
X-116350Y-84551D02*
X-117000D01*
Y-86185D01*
X-116350D01*
Y-84551D01*
D02*
G37*
G36*
Y-92185D02*
X-117000D01*
Y-93819D01*
X-116350D01*
Y-92185D01*
D02*
G37*
%LPD*%
D13*
X6004Y89000D02*
D03*
X-6004D02*
D03*
Y103000D02*
D03*
X6004D02*
D03*
X-64996D02*
D03*
X-77004D02*
D03*
X-64996Y89000D02*
D03*
X-77004D02*
D03*
Y68000D02*
D03*
X-64996D02*
D03*
X-77004Y53000D02*
D03*
X-64996D02*
D03*
X-77004Y38000D02*
D03*
X-64996D02*
D03*
X6004Y68000D02*
D03*
X-6004D02*
D03*
X6004Y53000D02*
D03*
X-6004D02*
D03*
X6004Y38000D02*
D03*
X-6004D02*
D03*
X2004Y-35000D02*
D03*
X-10004D02*
D03*
D14*
X-191000Y-146551D02*
D03*
Y-140449D02*
D03*
X-198000D02*
D03*
Y-146551D02*
D03*
X-205000Y-140449D02*
D03*
Y-146551D02*
D03*
X-212000D02*
D03*
Y-140449D02*
D03*
X-230000Y-146551D02*
D03*
Y-140449D02*
D03*
X-237000Y-146551D02*
D03*
Y-140449D02*
D03*
X-244000Y-146551D02*
D03*
Y-140449D02*
D03*
X-81000Y-31051D02*
D03*
Y-24949D02*
D03*
X-75000Y-31051D02*
D03*
Y-24949D02*
D03*
X-81000Y-42949D02*
D03*
Y-49051D02*
D03*
X-75000Y-42949D02*
D03*
Y-49051D02*
D03*
Y-72949D02*
D03*
Y-79051D02*
D03*
X-98000Y-112051D02*
D03*
Y-105949D02*
D03*
X-77000Y-112051D02*
D03*
Y-105949D02*
D03*
X-70000Y-112051D02*
D03*
Y-105949D02*
D03*
X-60000Y-112051D02*
D03*
Y-105949D02*
D03*
X-39000Y-112051D02*
D03*
Y-105949D02*
D03*
X-32000Y-112051D02*
D03*
Y-105949D02*
D03*
X-22000Y-112051D02*
D03*
Y-105949D02*
D03*
X-1000Y-112051D02*
D03*
Y-105949D02*
D03*
X6000Y-112051D02*
D03*
Y-105949D02*
D03*
X16000Y-112051D02*
D03*
Y-105949D02*
D03*
X37000Y-112051D02*
D03*
Y-105949D02*
D03*
X44000Y-112051D02*
D03*
Y-105949D02*
D03*
X54000Y-112051D02*
D03*
Y-105949D02*
D03*
X75000Y-112051D02*
D03*
Y-105949D02*
D03*
X82000Y-112051D02*
D03*
Y-105949D02*
D03*
X92000D02*
D03*
Y-112051D02*
D03*
X113000D02*
D03*
Y-105949D02*
D03*
X120000Y-112051D02*
D03*
Y-105949D02*
D03*
X13500Y-70449D02*
D03*
Y-76551D02*
D03*
X-29509Y-86284D02*
D03*
Y-80182D02*
D03*
X-50500Y-56949D02*
D03*
Y-63051D02*
D03*
X-75000Y-1051D02*
D03*
Y5051D02*
D03*
X-98000Y41949D02*
D03*
Y48051D02*
D03*
X-91000Y41949D02*
D03*
Y48051D02*
D03*
X-92500Y135000D02*
D03*
Y128898D02*
D03*
X36000Y-221949D02*
D03*
Y-228051D02*
D03*
X45000Y-239949D02*
D03*
Y-246051D02*
D03*
X-198000Y169051D02*
D03*
Y162949D02*
D03*
X-192000Y169051D02*
D03*
Y162949D02*
D03*
D16*
X-90000Y1583D02*
D03*
Y14417D02*
D03*
Y-75583D02*
D03*
Y-88417D02*
D03*
D18*
X-91272Y72500D02*
D03*
Y67500D02*
D03*
Y62500D02*
D03*
Y57500D02*
D03*
X-112728Y72500D02*
D03*
Y67500D02*
D03*
Y62500D02*
D03*
Y57500D02*
D03*
D19*
X-81000Y-72900D02*
D03*
Y-79100D02*
D03*
X-70000Y-127000D02*
D03*
Y-120800D02*
D03*
X-32000Y-127000D02*
D03*
Y-120800D02*
D03*
X6000Y-127000D02*
D03*
Y-120800D02*
D03*
X44000Y-127000D02*
D03*
Y-120800D02*
D03*
X82000Y-127000D02*
D03*
Y-120800D02*
D03*
X120000Y-127000D02*
D03*
Y-120800D02*
D03*
X-81000Y-1100D02*
D03*
Y5100D02*
D03*
X-91000Y80900D02*
D03*
Y87100D02*
D03*
X45000Y-228100D02*
D03*
Y-221900D02*
D03*
X-218000Y-120900D02*
D03*
Y-127100D02*
D03*
D21*
X43900Y100000D02*
D03*
X50100D02*
D03*
X43900Y94000D02*
D03*
X50100D02*
D03*
X-20900D02*
D03*
X-27100D02*
D03*
X43900Y84500D02*
D03*
X50100D02*
D03*
X-27100D02*
D03*
X-20900D02*
D03*
Y100000D02*
D03*
X-27100D02*
D03*
X49600Y-19000D02*
D03*
X43400D02*
D03*
D29*
X21051Y107000D02*
D03*
X14949D02*
D03*
X35051D02*
D03*
X28949D02*
D03*
X43949D02*
D03*
X50051D02*
D03*
X-20949D02*
D03*
X-27051D02*
D03*
X-42051D02*
D03*
X-35949D02*
D03*
X-56051D02*
D03*
X-49949D02*
D03*
X-109051Y-17000D02*
D03*
X-102949D02*
D03*
X-88949D02*
D03*
X-95051D02*
D03*
X-102949Y-57000D02*
D03*
X-109051D02*
D03*
X-88949D02*
D03*
X-95051D02*
D03*
X71051Y111000D02*
D03*
X64949D02*
D03*
X82949D02*
D03*
X89051D02*
D03*
X71051Y59000D02*
D03*
X64949D02*
D03*
X89051D02*
D03*
X82949D02*
D03*
X71051Y7000D02*
D03*
X64949D02*
D03*
X89051D02*
D03*
X82949D02*
D03*
X71051Y-45000D02*
D03*
X64949D02*
D03*
X82949D02*
D03*
X89051D02*
D03*
X-7051Y-15000D02*
D03*
X-949D02*
D03*
X43449Y-31500D02*
D03*
X49551D02*
D03*
X30551Y-96000D02*
D03*
X24449D02*
D03*
X-34949Y-34000D02*
D03*
X-41051D02*
D03*
Y-40000D02*
D03*
X-34949D02*
D03*
X-55949Y16000D02*
D03*
X-62051D02*
D03*
D32*
X-82724Y-16740D02*
D03*
Y-9260D02*
D03*
X-73276Y-13000D02*
D03*
X-82724Y-64740D02*
D03*
Y-57260D02*
D03*
X-73276Y-61000D02*
D03*
X-104276Y46000D02*
D03*
X-113724Y49740D02*
D03*
Y42260D02*
D03*
X-104276Y84000D02*
D03*
X-113724Y87740D02*
D03*
Y80260D02*
D03*
X-207315Y-120260D02*
D03*
Y-124000D02*
D03*
Y-127740D02*
D03*
X-196685D02*
D03*
Y-124000D02*
D03*
Y-120260D02*
D03*
X-243315D02*
D03*
Y-124000D02*
D03*
Y-127740D02*
D03*
X-232685D02*
D03*
Y-124000D02*
D03*
Y-120260D02*
D03*
X-200315Y183740D02*
D03*
X-189685D02*
D03*
Y180000D02*
D03*
Y176260D02*
D03*
X-200315D02*
D03*
Y180000D02*
D03*
D33*
X-109740Y-41276D02*
D03*
X-102260D02*
D03*
X-106000Y-50724D02*
D03*
X-102260Y-32724D02*
D03*
X-109740D02*
D03*
X-106000Y-23276D02*
D03*
X-95740Y-32724D02*
D03*
X-92000Y-23276D02*
D03*
X-88260Y-32724D02*
D03*
X-88260Y-41276D02*
D03*
X-92000Y-50724D02*
D03*
X-95740Y-41276D02*
D03*
X30240Y-113624D02*
D03*
X22760D02*
D03*
X26500Y-104176D02*
D03*
X-83760Y-113624D02*
D03*
X-91240D02*
D03*
X-87500Y-104176D02*
D03*
X-45760Y-113624D02*
D03*
X-53240D02*
D03*
X-49500Y-104176D02*
D03*
X-7760Y-113624D02*
D03*
X-15240D02*
D03*
X-11500Y-104176D02*
D03*
X60760Y-113624D02*
D03*
X64500Y-104176D02*
D03*
X68240Y-113624D02*
D03*
X98760D02*
D03*
X102500Y-104176D02*
D03*
X106240Y-113624D02*
D03*
X68000Y95276D02*
D03*
X71740Y104724D02*
D03*
X64260D02*
D03*
X89740Y95276D02*
D03*
X86000Y104724D02*
D03*
X82260Y95276D02*
D03*
X64260Y52724D02*
D03*
X71740D02*
D03*
X68000Y43276D02*
D03*
X82260D02*
D03*
X86000Y52724D02*
D03*
X89740Y43276D02*
D03*
X64260Y724D02*
D03*
X71740D02*
D03*
X68000Y-8724D02*
D03*
X89740D02*
D03*
X82260D02*
D03*
X86000Y724D02*
D03*
X64260Y-51276D02*
D03*
X71740D02*
D03*
X68000Y-60724D02*
D03*
X89740D02*
D03*
X82260D02*
D03*
X86000Y-51276D02*
D03*
X-198740Y106685D02*
D03*
X-195000D02*
D03*
X-191260D02*
D03*
Y117315D02*
D03*
X-195000D02*
D03*
X-198740D02*
D03*
D43*
X-122000Y78390D02*
D03*
Y89610D02*
D03*
X-92500Y109000D02*
D03*
Y97780D02*
D03*
D91*
X-42850Y208850D02*
D03*
Y215150D02*
D03*
X-49150D02*
D03*
Y208850D02*
D03*
X-46000Y212000D02*
D03*
D93*
X-92500Y119360D02*
Y128898D01*
Y135000D02*
Y142272D01*
X85000Y246165D02*
X85833Y246998D01*
X87499D01*
X88332Y246165D01*
Y245332D01*
X87499Y244499D01*
X88332Y243666D01*
Y242833D01*
X87499Y242000D01*
X85833D01*
X85000Y242833D01*
Y243666D01*
X85833Y244499D01*
X85000Y245332D01*
Y246165D01*
X85833Y244499D02*
X87499D01*
D95*
X190000Y-170000D02*
D03*
X-140000D02*
D03*
X-160000Y200000D02*
D03*
X150000Y150000D02*
D03*
X162000Y104000D02*
D03*
X156000D02*
D03*
X-145000Y-158000D02*
D03*
X-157000D02*
D03*
X-214000Y-102000D02*
D03*
X-226000D02*
D03*
X142500Y-122000D02*
D03*
X151000Y-104500D02*
D03*
X-226000Y16500D02*
D03*
X-238000D02*
D03*
X3500Y60500D02*
D03*
X8500D02*
D03*
X13500D02*
D03*
X3500Y45500D02*
D03*
X8500D02*
D03*
X13500D02*
D03*
X-57500D02*
D03*
X-62500D02*
D03*
X-67500D02*
D03*
X-57500Y60500D02*
D03*
X-62500D02*
D03*
X-67500D02*
D03*
X-99000Y97780D02*
D03*
X-144000Y202500D02*
D03*
X-138799Y133400D02*
D03*
X-145000D02*
D03*
X-26000Y-215000D02*
D03*
X77000Y71000D02*
D03*
Y19000D02*
D03*
Y-85000D02*
D03*
Y-33000D02*
D03*
X-120000Y29000D02*
D03*
X-115000D02*
D03*
X-110000D02*
D03*
Y34000D02*
D03*
X-115000D02*
D03*
X-120000D02*
D03*
X-229000Y-4500D02*
D03*
X-106000Y176000D02*
D03*
X-94000Y186000D02*
D03*
X-130000Y195500D02*
D03*
X-117000D02*
D03*
X-94000Y180000D02*
D03*
X-106000Y190000D02*
D03*
X194000Y-130000D02*
D03*
X205800Y-142000D02*
D03*
X218000Y-130000D02*
D03*
X205800Y-118000D02*
D03*
X180828Y-139667D02*
D03*
X195048Y-152000D02*
D03*
X232969D02*
D03*
X237709Y-108000D02*
D03*
X180828D02*
D03*
X10000Y-215000D02*
D03*
X-222149Y-120900D02*
D03*
Y-127100D02*
D03*
X-163000Y-175555D02*
D03*
X-185000Y-182445D02*
D03*
Y-175555D02*
D03*
X-174000Y-196000D02*
D03*
X-182000Y-209000D02*
D03*
X-136429Y-205000D02*
D03*
X-119958D02*
D03*
X-244000Y5000D02*
D03*
Y28000D02*
D03*
X-223996Y-4500D02*
D03*
X-228022Y-111978D02*
D03*
X-183000Y246756D02*
D03*
X-176000Y201276D02*
D03*
X-192000D02*
D03*
X-208000D02*
D03*
X77724Y-218000D02*
D03*
X-43000Y102000D02*
D03*
X-82000Y89000D02*
D03*
Y68000D02*
D03*
X-43000Y82000D02*
D03*
X-82000Y103000D02*
D03*
Y53000D02*
D03*
X-49000Y82000D02*
D03*
X-82000Y38000D02*
D03*
X-49000Y102000D02*
D03*
X-11000Y53000D02*
D03*
Y68000D02*
D03*
Y38000D02*
D03*
X28000Y102000D02*
D03*
X22000D02*
D03*
X28000Y82000D02*
D03*
X-11000Y89000D02*
D03*
X22000Y82000D02*
D03*
X-11000Y103000D02*
D03*
X-91272Y53000D02*
D03*
X-97000Y80900D02*
D03*
X-104276Y88100D02*
D03*
X-97000Y87100D02*
D03*
X-104276Y42260D02*
D03*
X-50000Y164000D02*
D03*
Y158000D02*
D03*
Y152000D02*
D03*
X-44000Y164000D02*
D03*
Y158000D02*
D03*
Y152000D02*
D03*
Y146000D02*
D03*
X-50000D02*
D03*
Y140000D02*
D03*
X-44000D02*
D03*
X-87500Y20000D02*
D03*
X-117000Y-7000D02*
D03*
X-123000D02*
D03*
X76000Y105000D02*
D03*
X81000D02*
D03*
X76000Y53000D02*
D03*
X81000D02*
D03*
X76000Y1000D02*
D03*
X81000D02*
D03*
X-78000Y-37000D02*
D03*
X-114000D02*
D03*
X81000Y-51000D02*
D03*
X-123000Y-97000D02*
D03*
X-87500Y-70000D02*
D03*
X-92500D02*
D03*
X-117000Y-97000D02*
D03*
X-92500Y20000D02*
D03*
X-80321Y-117994D02*
D03*
X-42321D02*
D03*
X-4321D02*
D03*
X33679D02*
D03*
X71679D02*
D03*
X109679D02*
D03*
X76000Y-51000D02*
D03*
D96*
X-8000Y-8000D02*
D03*
X186414Y-111746D02*
D03*
Y-118746D02*
D03*
X193414Y-111746D02*
D03*
X200414D02*
D03*
X186414Y-125746D02*
D03*
Y-132746D02*
D03*
X0Y-8000D02*
D03*
D99*
X-136133Y-37000D02*
X-120000D01*
X-9543Y-32000D02*
X-4000D01*
X-10004Y-32461D02*
X-9543Y-32000D01*
X1543Y-38000D02*
X2004Y-37539D01*
X-4000Y-38000D02*
X1543D01*
X2004Y-37539D02*
Y-35000D01*
D100*
X50100Y100000D02*
Y107000D01*
X-91360Y80900D02*
X-91000Y80539D01*
X-120000Y-57000D02*
X-109051D01*
X-235136Y130000D02*
X-227933D01*
X-235136Y120000D02*
X-227933D01*
X-235136Y115000D02*
X-227933D01*
X-195000Y106685D02*
Y110000D01*
X-226516Y180000D02*
X-220000D01*
X-200315D02*
X-197000D01*
X14272Y81500D02*
Y84500D01*
X-20900Y81500D02*
Y84500D01*
X28000Y102541D02*
X28949Y103490D01*
Y107000D01*
X28000Y102000D02*
Y102541D01*
X21051Y103490D02*
X22000Y102541D01*
X21051Y103490D02*
Y107000D01*
X22000Y102000D02*
Y102541D01*
X-43000D02*
X-42051Y103490D01*
Y107000D01*
X-43000Y102000D02*
Y102541D01*
X-49949Y103490D02*
X-49000Y102541D01*
X-49949Y103490D02*
Y107000D01*
X-49000Y102000D02*
Y102541D01*
X-91000Y80900D02*
Y81539D01*
Y80539D02*
Y80900D01*
Y72667D02*
Y80539D01*
X81000Y105000D02*
X92000D01*
X81000Y53000D02*
X92000D01*
X-20900Y100000D02*
Y107000D01*
X81000Y1000D02*
X92000D01*
X81000Y-51000D02*
X92000D01*
X-218000Y-120900D02*
Y-115051D01*
X-219360Y-113691D02*
Y-107461D01*
Y-113691D02*
X-218000Y-115051D01*
X-245197Y-93130D02*
X-240915D01*
X-245197Y-103327D02*
X-240915D01*
X-199872Y-92539D02*
X-194803D01*
X-199970Y-101594D02*
X-194803D01*
X-196685Y-124000D02*
X-193000D01*
X-211000D02*
X-207315D01*
X-232685D02*
X-229000D01*
X-247000D02*
X-243315D01*
X-228022Y-111978D02*
Y-107461D01*
X-195000Y117315D02*
Y121000D01*
X-189685Y180000D02*
X-186000D01*
X92000Y105000D02*
X94000Y107000D01*
X107000D01*
X71141Y-4000D02*
X85416D01*
X68181Y-6960D02*
X71141Y-4000D01*
X68181Y-7756D02*
Y-6960D01*
X68000Y-7937D02*
X68181Y-7756D01*
X78698Y-55200D02*
X84616D01*
X73174Y-60724D02*
X78698Y-55200D01*
X68000Y-60724D02*
X73174D01*
X84616Y-55200D02*
X89172Y-59756D01*
X-43500Y89500D02*
X-35272D01*
X-22071D02*
X-20900Y90672D01*
X-46000Y92000D02*
X-43500Y89500D01*
X-20900Y90672D02*
Y94000D01*
X-35272Y89500D02*
X-22071D01*
X-56728Y81500D02*
Y84500D01*
X-20900Y107000D02*
X-16000D01*
X-20949D02*
X-20900D01*
X-35272Y84500D02*
X-27100D01*
X-35949Y107000D02*
X-27051D01*
Y100000D02*
Y107000D01*
X-35272Y99500D02*
X-27100D01*
Y100000D01*
X-27051D01*
X-56051Y100035D02*
Y107000D01*
X-56728Y99500D02*
X-56586D01*
X-56051Y100035D01*
X-35272Y94500D02*
X-27600D01*
X-27100Y94000D01*
X35051Y107000D02*
X43949D01*
X43900Y100000D02*
X43949D01*
X43900Y99500D02*
Y100000D01*
X35728Y99500D02*
X43900D01*
X43949Y100000D02*
Y107000D01*
X50051D02*
X50100D01*
X55000D01*
X35728Y84500D02*
X43900D01*
X50100Y81500D02*
Y84500D01*
X43400Y94500D02*
X43900Y94000D01*
X35728Y94500D02*
X43400D01*
X48929Y89500D02*
X50100Y90672D01*
Y94000D01*
X35728Y89500D02*
X48929D01*
X14272Y99500D02*
X14414D01*
X14949Y100035D02*
Y107000D01*
X14414Y99500D02*
X14949Y100035D01*
X27500Y89500D02*
X35728D01*
X25000Y92000D02*
X27500Y89500D01*
X-91272Y53000D02*
Y57500D01*
X-97000Y80900D02*
X-91360D01*
X-104276Y84000D02*
Y88100D01*
X-97000Y87100D02*
X-91360D01*
X-91167Y72500D02*
X-91000Y72667D01*
X-91272Y72500D02*
X-91167D01*
X-99000Y97780D02*
X-92500D01*
X-104276Y42260D02*
Y46000D01*
X-81000Y-40000D02*
X-78000Y-37000D01*
X-81000Y-42949D02*
Y-40000D01*
Y-34000D02*
Y-31051D01*
Y-34000D02*
X-78000Y-37000D01*
X-84949Y-24949D02*
X-82000D01*
X-88260Y-28260D02*
X-84949Y-24949D01*
X96261Y102261D02*
X101339D01*
X89921Y96244D02*
X90244D01*
X96261Y102261D01*
X89740Y96063D02*
X89921Y96244D01*
X89740Y95276D02*
Y96063D01*
X89172Y96244D02*
X89559D01*
X89740Y96063D01*
X68000D02*
X71937Y100000D01*
X85416D02*
X89172Y96244D01*
X71937Y100000D02*
X85416D01*
X68000Y95276D02*
Y96063D01*
X111739Y102261D02*
X118661D01*
X107000Y107000D02*
X111739Y102261D01*
X71921Y105000D02*
X76000D01*
X71740Y104724D02*
Y104819D01*
X71921Y105000D01*
X96261Y50261D02*
X101339D01*
X89921Y44244D02*
X90244D01*
X96261Y50261D01*
X89740Y44063D02*
X89921Y44244D01*
X89740Y43276D02*
Y44063D01*
X89172Y44244D02*
X89559D01*
X89740Y44063D01*
X68000D02*
X71937Y48000D01*
X85416D02*
X89172Y44244D01*
X71937Y48000D02*
X85416D01*
X68000Y43276D02*
Y44063D01*
X111739Y50261D02*
X118661D01*
X94000Y55000D02*
X107000D01*
X92000Y53000D02*
X94000Y55000D01*
X107000D02*
X111739Y50261D01*
X71921Y53000D02*
X76000D01*
X71740Y52724D02*
Y52819D01*
X71921Y53000D01*
X96261Y-1739D02*
X101339D01*
X89921Y-7756D02*
X90244D01*
X96261Y-1739D01*
X89740Y-7937D02*
X89921Y-7756D01*
X89740Y-8724D02*
Y-7937D01*
X89172Y-7756D02*
X89559D01*
X89740Y-7937D01*
X85416Y-4000D02*
X89172Y-7756D01*
X68000Y-8724D02*
Y-7937D01*
X111739Y-1739D02*
X118661D01*
X94000Y3000D02*
X107000D01*
X92000Y1000D02*
X94000Y3000D01*
X107000D02*
X111739Y-1739D01*
X71921Y1000D02*
X76000D01*
X71740Y724D02*
Y819D01*
X71921Y1000D01*
X71740Y-51181D02*
X71921Y-51000D01*
X71740Y-51276D02*
Y-51181D01*
X71921Y-51000D02*
X76000D01*
X107000Y-49000D02*
X111739Y-53739D01*
X92000Y-51000D02*
X94000Y-49000D01*
X107000D01*
X111739Y-53739D02*
X118661D01*
X89559Y-59756D02*
X89740Y-59937D01*
X89172Y-59756D02*
X89559D01*
X89740Y-60724D02*
Y-59937D01*
X89921Y-59756D01*
X90244D02*
X96261Y-53739D01*
X89921Y-59756D02*
X90244D01*
X96261Y-53739D02*
X101339D01*
X-86000Y-49051D02*
X-81000D01*
X-92000Y-46000D02*
X-89051D01*
X-86000Y-49051D01*
X-95559Y-42441D02*
X-92000Y-46000D01*
X-95740Y-41276D02*
X-95559Y-41457D01*
Y-42441D02*
Y-41457D01*
X-95051Y-53776D02*
X-92968Y-51693D01*
X-95051Y-57000D02*
Y-53776D01*
X-92000Y-51512D02*
Y-50724D01*
X-92181Y-51693D02*
X-92000Y-51512D01*
X-92968Y-51693D02*
X-92181D01*
X-102949Y-57000D02*
X-95051D01*
X-106000Y-51512D02*
X-105819Y-51693D01*
X-106000Y-51512D02*
Y-50724D01*
X-105819Y-51693D02*
X-105032D01*
X-102949Y-53776D01*
Y-57000D02*
Y-53776D01*
X-88260Y-32724D02*
Y-28260D01*
X-109909Y-37000D02*
X-105819D01*
X-114000D02*
X-109909D01*
X-109740Y-37169D01*
Y-41276D02*
Y-37169D01*
X-105819Y-37000D02*
X-102512Y-33693D01*
X-102260Y-33512D02*
Y-32724D01*
X-102441Y-33693D02*
X-102260Y-33512D01*
X-102512Y-33693D02*
X-102441D01*
X-92000Y-23276D02*
Y-22488D01*
X-95051Y-20224D02*
Y-17000D01*
Y-20224D02*
X-92968Y-22307D01*
X-92181D01*
X-92000Y-22488D01*
X-106000D02*
X-105819Y-22307D01*
X-102949Y-20224D02*
Y-17000D01*
X-105032Y-22307D02*
X-102949Y-20224D01*
X-105819Y-22307D02*
X-105032D01*
X-106000Y-23276D02*
Y-22488D01*
X-102949Y-17000D02*
X-95051D01*
X-119201D02*
X-109051D01*
X-94685Y-123900D02*
Y-119315D01*
X-98000Y-116000D02*
X-94685Y-119315D01*
X-98000Y-116000D02*
Y-112051D01*
X-91240Y-113624D02*
Y-109000D01*
X-80315Y-123900D02*
Y-118000D01*
X-80321Y-117994D02*
X-80315Y-118000D01*
X-82921Y-117891D02*
X-80424D01*
X-83760Y-117052D02*
X-82921Y-117891D01*
X-83760Y-117052D02*
Y-113624D01*
X-93949Y-105949D02*
X-92176Y-104176D01*
X-87500D01*
X-98000Y-105949D02*
X-93949D01*
X-56685Y-123900D02*
Y-119315D01*
X-60000Y-116000D02*
X-56685Y-119315D01*
X-60000Y-116000D02*
Y-112051D01*
X-53240Y-113624D02*
Y-109000D01*
X-42315Y-123900D02*
Y-118000D01*
X-42321Y-117994D02*
X-42315Y-118000D01*
X-44921Y-117891D02*
X-42424D01*
X-45760Y-117052D02*
X-44921Y-117891D01*
X-45760Y-117052D02*
Y-113624D01*
X-55949Y-105949D02*
X-54176Y-104176D01*
X-49500D01*
X-60000Y-105949D02*
X-55949D01*
X-18685Y-123900D02*
Y-119315D01*
X-22000Y-116000D02*
X-18685Y-119315D01*
X-22000Y-116000D02*
Y-112051D01*
X-15240Y-113624D02*
Y-109000D01*
X-4315Y-123900D02*
Y-118000D01*
X-4321Y-117994D02*
X-4315Y-118000D01*
X-6921Y-117891D02*
X-4424D01*
X-7760Y-117052D02*
X-6921Y-117891D01*
X-7760Y-117052D02*
Y-113624D01*
X-17949Y-105949D02*
X-16176Y-104176D01*
X-11500D01*
X-22000Y-105949D02*
X-17949D01*
X19315Y-123900D02*
Y-119315D01*
X16000Y-116000D02*
X19315Y-119315D01*
X16000Y-116000D02*
Y-112051D01*
X22760Y-113624D02*
Y-109000D01*
X33685Y-123900D02*
Y-118000D01*
X33679Y-117994D02*
X33685Y-118000D01*
X31079Y-117891D02*
X33576D01*
X30240Y-117052D02*
X31079Y-117891D01*
X30240Y-117052D02*
Y-113624D01*
X20051Y-105949D02*
X21824Y-104176D01*
X26500D01*
X16000Y-105949D02*
X20051D01*
X57315Y-123900D02*
Y-119315D01*
X54000Y-116000D02*
X57315Y-119315D01*
X54000Y-116000D02*
Y-112051D01*
X60760Y-113624D02*
Y-109000D01*
X71685Y-123900D02*
Y-118000D01*
X71679Y-117994D02*
X71685Y-118000D01*
X69079Y-117891D02*
X71576D01*
X68240Y-117052D02*
X69079Y-117891D01*
X68240Y-117052D02*
Y-113624D01*
X58051Y-105949D02*
X59824Y-104176D01*
X64500D01*
X54000Y-105949D02*
X58051D01*
X92000D02*
X96051D01*
X97824Y-104176D02*
X102500D01*
X96051Y-105949D02*
X97824Y-104176D01*
X106240Y-117052D02*
Y-113624D01*
Y-117052D02*
X107079Y-117891D01*
X109576D01*
X109679Y-117994D02*
X109685Y-118000D01*
Y-123900D02*
Y-118000D01*
X98760Y-113624D02*
Y-109000D01*
X92000Y-116000D02*
Y-112051D01*
Y-116000D02*
X95315Y-119315D01*
Y-123900D02*
Y-119315D01*
X-92500Y109000D02*
Y119360D01*
D101*
X-117485Y80260D02*
G03*
X-122000Y78390I0J-6385D01*
G01*
Y89610D02*
G03*
X-117485Y87740I4515J4515D01*
G01*
X-125614Y39110D02*
G03*
X-122500Y40400I0J4403D01*
G01*
X-118010Y42260D02*
G03*
X-122500Y40400I0J-6350D01*
G01*
Y51600D02*
G03*
X-118010Y49740I4490J4490D01*
G01*
X-122500Y51600D02*
G03*
X-125614Y52890I-3114J-3114D01*
G01*
X45000Y-239949D02*
Y-236000D01*
Y-232500D02*
Y-228100D01*
X36000Y-246500D02*
Y-246051D01*
X35826D02*
X36000D01*
X45000Y-221949D02*
Y-217500D01*
X36000Y-221949D02*
X45000D01*
X-236000Y133000D02*
X-221703D01*
X-240000Y129000D02*
X-236000Y133000D01*
X-240000Y125000D02*
Y129000D01*
X-221000Y112000D02*
Y132297D01*
Y135000D02*
X-219000Y133000D01*
X-221703D02*
X-221000Y132297D01*
X-212067Y115000D02*
X-204642D01*
X-218120D02*
X-212067D01*
X-245000Y90000D02*
X-234000Y101000D01*
X-227933D01*
Y110000D01*
X-197000Y101000D02*
X-195000Y103000D01*
X-227933Y101000D02*
X-197000D01*
X-195000Y103000D02*
Y106685D01*
X-245000Y135000D02*
X-221000D01*
X-219000Y115880D02*
Y133000D01*
Y110000D02*
X-204642D01*
X-221000Y112000D02*
X-219000Y110000D01*
X-245000Y120000D02*
X-240000Y125000D01*
X-219000Y115880D02*
X-218120Y115000D01*
X-190100Y112100D02*
X-185654Y107654D01*
X-197937Y112100D02*
X-190100D01*
X-198740Y111297D02*
X-197937Y112100D01*
X-185654Y103000D02*
Y107654D01*
X-198740Y106685D02*
Y111297D01*
Y114746D02*
X-197994Y114000D01*
X-188000D02*
X-180600Y106600D01*
X-197994Y114000D02*
X-188000D01*
X-198740Y114746D02*
Y117315D01*
X-226516Y160000D02*
Y167984D01*
X-214500Y180000D02*
X-200315D01*
X-226516Y167984D02*
X-214500Y180000D01*
X-200315Y183740D02*
X-195503D01*
X-194800Y174909D02*
Y183037D01*
X-195503Y183740D02*
X-194800Y183037D01*
X-198000Y171709D02*
X-194800Y174909D01*
X-193000Y172709D02*
X-192000Y171709D01*
X-192253Y183740D02*
X-189685D01*
X-193000Y172709D02*
Y182994D01*
X-192253Y183740D01*
X-192000Y169051D02*
Y171709D01*
X-210740Y176260D02*
X-200315D01*
X-213484Y173516D02*
X-210740Y176260D01*
X-213484Y170000D02*
Y173516D01*
X-98000Y37000D02*
Y41949D01*
Y37000D02*
X-91000Y30000D01*
X-91272Y41949D02*
X-91000Y41677D01*
X-23500Y-41500D02*
Y-35000D01*
Y-41500D02*
X-15000Y-50000D01*
X22000D01*
X19500Y13500D02*
X40000D01*
X5100Y-900D02*
X19500Y13500D01*
X40000D02*
X63000Y36500D01*
X3500Y2000D02*
X18000Y16500D01*
X33500D02*
X58000Y41000D01*
X18000Y16500D02*
X33500D01*
X-31900Y-900D02*
X5100D01*
X-33000Y2000D02*
X3500D01*
X58000Y41000D02*
Y91969D01*
X-43051Y-105949D02*
X-32000D01*
X69176Y-104176D02*
X70949Y-105949D01*
X64500Y-104176D02*
X69176D01*
X-191000Y-151000D02*
Y-146551D01*
Y-140449D02*
Y-136000D01*
X-198000Y-151000D02*
Y-147051D01*
Y-140449D02*
Y-136000D01*
X-205000Y-151000D02*
Y-146551D01*
Y-140449D02*
Y-136000D01*
X-212000Y-151000D02*
Y-146551D01*
Y-140449D02*
Y-136000D01*
X-230000Y-140449D02*
Y-136000D01*
Y-151000D02*
Y-146551D01*
X-237000Y-140449D02*
Y-136000D01*
Y-151000D02*
Y-146551D01*
X-244000Y-151000D02*
Y-146551D01*
Y-140449D02*
Y-136000D01*
X-165267Y77110D02*
X-136133D01*
X-165267Y90890D02*
X-136133D01*
Y52890D02*
X-125614D01*
X-165267D02*
X-136133D01*
Y39110D02*
X-125614D01*
X-165267D02*
X-136133D01*
X-165267Y-50779D02*
X-136133D01*
X-165267Y-37000D02*
X-136133D01*
X-165267Y-23221D02*
X-136133D01*
X109390Y-169467D02*
Y-140333D01*
X95610Y-169467D02*
Y-140333D01*
X71390Y-169467D02*
Y-140333D01*
X57610Y-169467D02*
Y-140333D01*
X33390Y-169467D02*
Y-140333D01*
X19610Y-169467D02*
Y-140333D01*
X-4610Y-169467D02*
Y-140333D01*
X-18390Y-169467D02*
Y-140333D01*
X-42610Y-169467D02*
Y-140333D01*
X-56390Y-169467D02*
Y-140333D01*
X-80610Y-169467D02*
Y-140333D01*
X-94390Y-169467D02*
Y-140333D01*
X-134853Y78390D02*
X-122000D01*
X-117485Y80260D02*
X-113724D01*
X-134853Y89610D02*
X-122000D01*
X-117485Y87740D02*
X-113724D01*
X-118010Y42260D02*
X-113724D01*
X-118010Y49740D02*
X-113724D01*
X-237000Y-136000D02*
Y-132650D01*
X-236228Y-131878D02*
Y-121311D01*
X-237000Y-132650D02*
X-236228Y-131878D01*
Y-121311D02*
X-235177Y-120260D01*
X-232685D01*
Y-107793D01*
X-232352Y-107461D01*
X-243315Y-117000D02*
X-236683Y-110368D01*
X-243315Y-120260D02*
X-240746D01*
X-243315D02*
Y-117000D01*
X-21500Y-65000D02*
X-8000D01*
X-25500Y-69000D02*
X-21500Y-65000D01*
X-31000Y-69000D02*
X-25500D01*
X8500Y-70500D02*
X13500D01*
X-64897Y12000D02*
X-60500D01*
X-56000Y7500D01*
X63000Y36500D02*
Y44969D01*
X68000Y49968D01*
X-47500Y-57000D02*
X-46500Y-58000D01*
X-50449Y-57000D02*
X-47500D01*
X-46716Y-58000D02*
X-46500D01*
X-50500Y-56949D02*
X-50449Y-57000D01*
X33500Y-4500D02*
X58000Y20000D01*
X-4500Y-4500D02*
X33500D01*
X-8000Y-8000D02*
X-4500Y-4500D01*
X58000Y20000D02*
X62000D01*
X0Y-8000D02*
X34000D01*
X58000Y16000D01*
X38500Y-31500D02*
X43449D01*
X49551D02*
X54000D01*
X49600Y-19000D02*
X54000D01*
X35500D02*
X43400D01*
X12130Y-46370D02*
X35500Y-23000D01*
X57000D01*
X62000Y-18000D01*
X-43000Y-27000D02*
X-27000D01*
X-20000Y-34000D01*
Y-40000D02*
Y-34000D01*
X29000Y-57000D02*
X65031D01*
X22000Y-50000D02*
X29000Y-57000D01*
X-27000Y-65216D02*
Y-65000D01*
X-23218Y-61218D02*
X4146D01*
X-27000Y-65000D02*
X-23218Y-61218D01*
X-34000Y-72500D02*
X-13500D01*
X-38000Y-76500D02*
X-33500D01*
X7364Y-58000D02*
X24500D01*
X4146Y-61218D02*
X7364Y-58000D01*
X24500D02*
X36000Y-69500D01*
X13500Y-80500D02*
Y-76602D01*
X10500Y-83500D02*
X33000D01*
X-8000Y-65000D02*
X10500Y-83500D01*
X33000D02*
X38000Y-88500D01*
X48000D02*
X58500Y-99000D01*
X38000Y-88500D02*
X48000D01*
X-46000Y-11000D02*
X-33000Y2000D01*
X-46000Y-17000D02*
Y-11000D01*
X-38500Y-18000D02*
Y-7500D01*
X-43000Y-20000D02*
X-40500D01*
X-38500Y-18000D01*
X-200500Y-131674D02*
Y-121506D01*
X-199253Y-120260D01*
X-200500Y-131674D02*
X-198000Y-134174D01*
X-204747Y-120260D02*
X-203500Y-121506D01*
X-205000Y-133543D02*
X-203500Y-132043D01*
Y-121506D01*
X181583Y-102000D02*
X186414Y-106832D01*
X173013Y-102000D02*
X181583D01*
X190308Y-108640D02*
X193414Y-111746D01*
X190308Y-108640D02*
Y-106832D01*
X181000Y-113216D02*
X181400Y-113617D01*
X181000Y-113216D02*
Y-113000D01*
X181400Y-113732D02*
Y-113617D01*
Y-113732D02*
X186414Y-118746D01*
X181000Y-118000D02*
X183825Y-120825D01*
Y-123157D02*
Y-120825D01*
Y-123157D02*
X186414Y-125746D01*
X-91000Y36000D02*
Y41677D01*
X54000Y-81176D02*
Y-73000D01*
X36000Y-69500D02*
X50500D01*
X54000Y-73000D01*
Y-81176D02*
X66824Y-94000D01*
X-67000Y-65500D02*
Y-57000D01*
X-71100Y-69600D02*
X-67000Y-65500D01*
X-71500Y-52500D02*
X-67000Y-57000D01*
X-69000Y-20000D02*
Y-6725D01*
X-71500Y-4225D02*
X-69000Y-6725D01*
X-71500Y-22500D02*
X-69000Y-20000D01*
X66824Y-94000D02*
X116000D01*
X125000Y-119315D02*
Y-103000D01*
X116000Y-94000D02*
X125000Y-103000D01*
X30500Y-86500D02*
X49000Y-105000D01*
X500Y-86500D02*
X30500D01*
X49000Y-119315D02*
Y-105000D01*
X58500Y-99000D02*
X82500D01*
X87000Y-119315D02*
Y-103500D01*
X82500Y-99000D02*
X87000Y-103500D01*
X-13500Y-72500D02*
X500Y-86500D01*
X-8500Y-93000D02*
X2500D01*
X11000Y-119315D02*
Y-101500D01*
X2500Y-93000D02*
X11000Y-101500D01*
X-27000Y-74500D02*
X-8500Y-93000D01*
X-31500Y-74500D02*
X-27000D01*
X-33500Y-76500D02*
X-31500Y-74500D01*
X-27000Y-119315D02*
Y-102000D01*
X-54000Y-75000D02*
Y-500D01*
Y-75000D02*
X-27000Y-102000D01*
X-65000Y-119315D02*
Y-102000D01*
X-56000Y-93000D02*
Y7500D01*
X-65000Y-102000D02*
X-56000Y-93000D01*
X-28500Y-30000D02*
X-23500Y-35000D01*
X-20000Y-40000D02*
X-13630Y-46370D01*
X-47110Y-30000D02*
X-28500D01*
X65031Y-57000D02*
X68000Y-54031D01*
X62000Y-18000D02*
Y-8032D01*
X-13630Y-46370D02*
X12130D01*
X-38500Y-7500D02*
X-31900Y-900D01*
X-10004Y-28461D02*
X-8134Y-26591D01*
X-10004Y-32461D02*
Y-28461D01*
X-53913Y25500D02*
X-41413Y13000D01*
X-71500Y17500D02*
X-63500Y25500D01*
X-53913D01*
X-51940Y28500D02*
X-39440Y16000D01*
X-65500Y28500D02*
X-51940D01*
X-81000Y13000D02*
X-65500Y28500D01*
X-54000Y-500D02*
X-45500Y8000D01*
X-41000D01*
X-81000Y5100D02*
Y13000D01*
X-28500Y9500D02*
Y12500D01*
X-26500Y5500D02*
Y7500D01*
X-28500Y9500D02*
X-26500Y7500D01*
X-41413Y13000D02*
X-34500D01*
X-32500Y11000D01*
Y5500D02*
Y11000D01*
X-71500Y-4225D02*
Y17500D01*
X-72865Y-84000D02*
X-71100Y-82235D01*
X-79835Y-84000D02*
X-72865D01*
X-81000Y-82835D02*
X-79835Y-84000D01*
X-71100Y-82235D02*
Y-69600D01*
X-71500Y-52500D02*
Y-22500D01*
X-49000Y-28110D02*
X-49000D01*
X-47110Y-30000D01*
X-34949Y-34000D02*
X-30500D01*
X-34949Y-40000D02*
X-30500D01*
X-45500D02*
X-41051D01*
X-45500Y-34000D02*
X-41051D01*
X-68000Y16000D02*
X-62051D01*
X-56000Y16051D02*
Y22000D01*
Y16051D02*
X-55949Y16000D01*
X-50449Y-63000D02*
X-48000D01*
X-50500Y-63051D02*
X-50449Y-63000D01*
X-48000D02*
X-46500Y-64500D01*
X-29509Y-80182D02*
X-29009D01*
X-33000D02*
X-29509D01*
Y-90500D02*
Y-86284D01*
X30551Y-96000D02*
X34386D01*
X24449D02*
X24500Y-96051D01*
Y-100000D02*
Y-96051D01*
X-32000Y16000D02*
X-28500Y12500D01*
X-39440Y16000D02*
X-32000D01*
X-186661Y117315D02*
X-175700Y106354D01*
X-191260Y117315D02*
X-186661D01*
X-191260D02*
Y123260D01*
X-8134Y-26591D02*
Y-23000D01*
X134D02*
Y-19134D01*
X-949Y-18051D02*
X134Y-19134D01*
X-949Y-18051D02*
Y-15000D01*
X-7051D02*
Y-12000D01*
X-8000Y-11051D02*
Y-8000D01*
Y-11051D02*
X-7051Y-12000D01*
X-204000Y158000D02*
X-193628D01*
X-192000Y159628D01*
Y162949D01*
X-204000D02*
X-198000D01*
X-175700Y103000D02*
Y106354D01*
X-180600Y103000D02*
Y106600D01*
X-201327Y106685D02*
X-198740D01*
X-204642Y110000D02*
X-201327Y106685D01*
X-202327Y117315D02*
X-198740D01*
X-204642Y115000D02*
X-202327Y117315D01*
X-198000Y130000D02*
X-191260Y123260D01*
X181000Y-127332D02*
Y-123000D01*
Y-127332D02*
X186414Y-132746D01*
X195048Y-106832D02*
X199963Y-111746D01*
X200414D01*
X186414D02*
Y-106832D01*
X-226100Y-116100D02*
X-223691Y-113691D01*
X-226100Y-125819D02*
Y-116100D01*
X-228022Y-127740D02*
X-226100Y-125819D01*
X-232685Y-127740D02*
X-228022D01*
X-215030Y-112661D02*
Y-107461D01*
X-214000Y-126740D02*
Y-113691D01*
X-215030Y-112661D02*
X-214000Y-113691D01*
X-213000Y-127740D02*
X-207315D01*
X-214000Y-126740D02*
X-213000Y-127740D01*
X-244000Y-136000D02*
Y-134143D01*
X-239772Y-129915D02*
Y-121235D01*
X-244000Y-134143D02*
X-239772Y-129915D01*
X-198000Y-136000D02*
Y-134174D01*
X-205000Y-136000D02*
Y-133543D01*
X-199253Y-120260D02*
X-196685D01*
X-207315D02*
X-204747D01*
X-240746D02*
X-239772Y-121235D01*
X-195000Y-132233D02*
X-193157D01*
X-191000Y-136000D02*
Y-134390D01*
X-193157Y-132233D02*
X-191000Y-134390D01*
X-196685Y-130548D02*
X-195000Y-132233D01*
X-196685Y-130548D02*
Y-127740D01*
X-211847Y-134197D02*
X-207315Y-129665D01*
Y-127740D01*
X-211847Y-135847D02*
Y-134197D01*
X-212000Y-136000D02*
X-211847Y-135847D01*
X-230000Y-136000D02*
Y-133422D01*
X-232685Y-130737D02*
X-230000Y-133422D01*
X-232685Y-130737D02*
Y-127740D01*
X-199085Y-97067D02*
X-191933D01*
X-190000Y-125000D02*
Y-99000D01*
X-191933Y-97067D02*
X-190000Y-99000D01*
X-196685Y-127740D02*
X-192740D01*
X-190000Y-125000D01*
X-203756Y-114567D02*
X-199524D01*
X-196685Y-120260D02*
Y-117405D01*
X-199524Y-114567D02*
X-196685Y-117405D01*
X-206368Y-111955D02*
X-203756Y-114567D01*
X-206368Y-111955D02*
Y-107461D01*
X-207315Y-120260D02*
Y-115339D01*
X-210699Y-111955D02*
X-207315Y-115339D01*
X-210699Y-111955D02*
Y-107461D01*
X-223691Y-113691D02*
Y-107461D01*
X-236683Y-110368D02*
Y-107461D01*
X-228000Y150000D02*
X-212067Y134067D01*
Y130000D02*
Y134067D01*
X-245000Y150000D02*
X-228000D01*
X-212067Y130000D02*
X-198000D01*
X-226516Y196843D02*
Y200000D01*
Y196843D02*
X-224673Y195000D01*
X-198407D01*
X-189685Y186279D01*
X-200315Y172736D02*
Y176260D01*
X-204000Y169051D02*
X-200315Y172736D01*
X-189685Y183740D02*
Y186279D01*
X-213484Y190000D02*
X-204000D01*
X-200315Y186315D01*
Y183740D02*
Y186315D01*
X-198000Y169051D02*
Y171709D01*
X-49500Y-104176D02*
X-44824D01*
X-43051Y-105949D01*
X62000Y-8032D02*
X68000Y-2032D01*
X120000Y-120800D02*
X123515D01*
X125000Y-119315D01*
X82000Y-120800D02*
X85515D01*
X87000Y-119315D01*
X44000Y-120800D02*
X47515D01*
X49000Y-119315D01*
X6000Y-120800D02*
X9515D01*
X11000Y-119315D01*
X-32000Y-120800D02*
X-28485D01*
X-27000Y-119315D01*
X-66485Y-120800D02*
X-65000Y-119315D01*
X-70000Y-120800D02*
X-66485D01*
X68000Y-48248D02*
X71051Y-45197D01*
X68000Y-54031D02*
Y-48248D01*
Y3752D02*
X71051Y6803D01*
X68000Y-2032D02*
Y3752D01*
Y55752D02*
X71051Y58803D01*
X68000Y49968D02*
Y55752D01*
Y101969D02*
Y107752D01*
X71051Y110803D01*
Y111000D02*
X82949D01*
X71051Y110803D02*
Y111000D01*
X58000Y91969D02*
X68000Y101969D01*
X71051Y-45000D02*
X82949D01*
X71051Y7000D02*
X82949D01*
X71051Y59000D02*
X82949D01*
X-81000Y-82835D02*
Y-79100D01*
X120000Y-120800D02*
Y-112051D01*
X82000Y-120800D02*
Y-112051D01*
X44000Y-120800D02*
Y-112051D01*
X6000Y-120800D02*
Y-112051D01*
X-32000Y-120800D02*
Y-112051D01*
X-70000Y-120800D02*
Y-112051D01*
X-73000Y-67000D02*
Y-61000D01*
X-75000Y-69000D02*
X-73000Y-67000D01*
Y-61000D02*
Y-55000D01*
X102500Y-104176D02*
X107176D01*
X108949Y-105949D01*
X89051Y111000D02*
X94000D01*
X-96000Y52854D02*
Y61500D01*
Y52854D02*
X-91197Y48051D01*
X-96000Y67500D02*
X-91272D01*
X-98000Y65500D02*
X-96000Y67500D01*
X-98000Y48051D02*
Y65500D01*
X-95000Y62500D02*
X-91272D01*
X-96000Y61500D02*
X-95000Y62500D01*
X-83000Y-61000D02*
Y-57535D01*
X-82724Y-57260D01*
X-82982Y-9003D02*
Y-6982D01*
Y-9003D02*
X-82724Y-9260D01*
X-82982Y-6982D02*
X-81000Y-5000D01*
X-83000Y-13000D02*
Y-9535D01*
X-82724Y-9260D01*
Y-57260D02*
X-79740D01*
X-78000Y-66000D02*
Y-59000D01*
X-79740Y-57260D02*
X-78000Y-59000D01*
X-81000Y-69000D02*
X-78000Y-66000D01*
X-81000Y-72900D02*
Y-69000D01*
X-89000Y-57051D02*
X-88949Y-57000D01*
X-89000Y-62000D02*
Y-57051D01*
Y-62000D02*
X-86260Y-64740D01*
X-82724D01*
X-75000Y-72949D02*
Y-69000D01*
Y-53000D02*
X-73000Y-55000D01*
X-75000Y-53000D02*
Y-49051D01*
X-81000Y-79100D02*
X-80951Y-79051D01*
X-75000D01*
X-78000Y-37000D02*
X-75000Y-40000D01*
Y-42949D02*
Y-40000D01*
X-80951Y5051D02*
X-75000D01*
X-81000Y5100D02*
X-80951Y5051D01*
X-81000Y-5000D02*
Y-1100D01*
X-73000Y-19000D02*
Y-7000D01*
X-75000Y-5000D02*
Y-1051D01*
Y-5000D02*
X-73000Y-7000D01*
X-75000Y-24949D02*
Y-21000D01*
X-73000Y-19000D01*
X-78000Y-37000D02*
X-75000Y-34000D01*
Y-31051D01*
X64260Y110311D02*
X64949Y111000D01*
X64260Y104724D02*
Y110311D01*
X89051Y59000D02*
X94000D01*
X64260Y58311D02*
X64949Y59000D01*
X64260Y52724D02*
Y58311D01*
X89051Y7000D02*
X94000D01*
X64260Y6311D02*
X64949Y7000D01*
X64260Y724D02*
Y6311D01*
Y-51276D02*
Y-45689D01*
X64949Y-45000D01*
X89051D02*
X94000D01*
X-88949Y-17000D02*
X-88689Y-16740D01*
X-81724D01*
X-42000Y-246500D02*
X-35827D01*
X36000Y-246051D02*
X45000D01*
X36000D02*
Y-228051D01*
X35826Y-246500D02*
X36000D01*
X35826D02*
Y-246051D01*
X-73000Y-127000D02*
X-70000D01*
X-74000Y-126000D02*
X-73000Y-127000D01*
X-83000Y-109000D02*
X-79949Y-112051D01*
X-77000D01*
X-91240Y-109000D02*
X-83000D01*
X-80424Y-117891D02*
X-80321Y-117994D01*
X-74000Y-126000D02*
Y-118891D01*
X-80321Y-117994D02*
X-74897D01*
X-74000Y-118891D01*
X-77000Y-105949D02*
X-70000D01*
X-82824Y-104176D02*
X-81051Y-105949D01*
X-87500Y-104176D02*
X-82824D01*
X-81051Y-105949D02*
X-77000D01*
X-35000Y-127000D02*
X-32000D01*
X-36000Y-126000D02*
X-35000Y-127000D01*
X-45000Y-109000D02*
X-41949Y-112051D01*
X-39000D01*
X-53240Y-109000D02*
X-45000D01*
X-42424Y-117891D02*
X-42321Y-117994D01*
X-36000Y-126000D02*
Y-118891D01*
X-42321Y-117994D02*
X-36897D01*
X-36000Y-118891D01*
X3000Y-127000D02*
X6000D01*
X2000Y-126000D02*
X3000Y-127000D01*
X-7000Y-109000D02*
X-3949Y-112051D01*
X-1000D01*
X-15240Y-109000D02*
X-7000D01*
X-4424Y-117891D02*
X-4321Y-117994D01*
X2000Y-126000D02*
Y-118891D01*
X-4321Y-117994D02*
X1103D01*
X2000Y-118891D01*
X-1000Y-105949D02*
X6000D01*
X-6824Y-104176D02*
X-5051Y-105949D01*
X-11500Y-104176D02*
X-6824D01*
X-5051Y-105949D02*
X-1000D01*
X41000Y-127000D02*
X44000D01*
X40000Y-126000D02*
X41000Y-127000D01*
X31000Y-109000D02*
X34051Y-112051D01*
X37000D01*
X22760Y-109000D02*
X31000D01*
X33576Y-117891D02*
X33679Y-117994D01*
X40000Y-126000D02*
Y-118891D01*
X33679Y-117994D02*
X39103D01*
X40000Y-118891D01*
X37000Y-105949D02*
X44000D01*
X31176Y-104176D02*
X32949Y-105949D01*
X26500Y-104176D02*
X31176D01*
X32949Y-105949D02*
X37000D01*
X79000Y-127000D02*
X82000D01*
X78000Y-126000D02*
X79000Y-127000D01*
X69000Y-109000D02*
X72051Y-112051D01*
X75000D01*
X60760Y-109000D02*
X69000D01*
X71576Y-117891D02*
X71679Y-117994D01*
X78000Y-126000D02*
Y-118891D01*
X71679Y-117994D02*
X77103D01*
X78000Y-118891D01*
X75000Y-105949D02*
X82000D01*
X70949D02*
X75000D01*
X108949D02*
X113000D01*
X120000D01*
X115103Y-117994D02*
X116000Y-118891D01*
X109679Y-117994D02*
X115103D01*
X116000Y-126000D02*
Y-118891D01*
X109576Y-117891D02*
X109679Y-117994D01*
X98760Y-109000D02*
X107000D01*
X110051Y-112051D02*
X113000D01*
X107000Y-109000D02*
X110051Y-112051D01*
X116000Y-126000D02*
X117000Y-127000D01*
X120000D01*
D102*
X-120000Y-57000D02*
Y-56201D01*
Y-57185D02*
Y-57000D01*
X-120185D02*
X-120000D01*
X-121634Y-55551D02*
X-120185Y-57000D01*
X-136133Y-50779D02*
X-126406D01*
X-121634Y-55551D01*
X-120650D01*
X-120000Y-56201D01*
X-136133Y-23221D02*
X-126406D01*
X-121634Y-18449D02*
X-120650D01*
X-120000Y-17799D01*
X-126406Y-23221D02*
X-121634Y-18449D01*
X-120000Y-17799D02*
X-119201Y-17000D01*
X-120000Y-17799D02*
Y-16815D01*
X-222149Y-120900D02*
X-218000D01*
X-222149Y-127100D02*
X-218000D01*
X-80610Y-124195D02*
X-80315Y-123900D01*
X-80610Y-140333D02*
Y-124195D01*
X-94685Y-123900D02*
X-94390Y-124195D01*
Y-140333D02*
Y-124195D01*
X-42610Y-124195D02*
X-42315Y-123900D01*
X-42610Y-140333D02*
Y-124195D01*
X-56685Y-123900D02*
X-56390Y-124195D01*
Y-140333D02*
Y-124195D01*
X-4610Y-124195D02*
X-4315Y-123900D01*
X-4610Y-140333D02*
Y-124195D01*
X-18685Y-123900D02*
X-18390Y-124195D01*
Y-140333D02*
Y-124195D01*
X33390Y-124195D02*
X33685Y-123900D01*
X33390Y-140333D02*
Y-124195D01*
X19315Y-123900D02*
X19610Y-124195D01*
Y-140333D02*
Y-124195D01*
X71390Y-124195D02*
X71685Y-123900D01*
X71390Y-140333D02*
Y-124195D01*
X57315Y-123900D02*
X57610Y-124195D01*
Y-140333D02*
Y-124195D01*
X95610Y-140333D02*
Y-124195D01*
X95315Y-123900D02*
X95610Y-124195D01*
X109390Y-140333D02*
Y-124195D01*
X109685Y-123900D01*
D103*
X-120000Y-37000D02*
X-114000D01*
X-136133Y1110D02*
X-120295D01*
X-165267D02*
X-136133D01*
Y-88890D02*
X-120295D01*
X-165267D02*
X-136133D01*
X90658Y-22999D02*
X118661D01*
X87000Y-31516D02*
Y-26657D01*
X90658Y-22999D01*
X-120000Y-37000D02*
Y-31185D01*
Y-42815D02*
Y-37000D01*
X-165267Y14890D02*
X-120295D01*
X-165267Y-75110D02*
X-120295D01*
X77000Y71000D02*
Y85516D01*
Y19000D02*
Y33516D01*
Y-85000D02*
Y-70484D01*
Y-33000D02*
Y-18484D01*
X89929Y81001D02*
X118661D01*
X87000Y78072D02*
X89929Y81001D01*
X87000Y72484D02*
Y78072D01*
Y20484D02*
Y26072D01*
X89929Y29001D01*
X118661D01*
X87000Y-77928D02*
X89929Y-74999D01*
X87000Y-83516D02*
Y-77928D01*
X89929Y-74999D02*
X118661D01*
X98635Y-66338D02*
X118661D01*
X136133Y-61221D02*
X165267D01*
X126000D02*
X136133D01*
X120883Y-66338D02*
X126000Y-61221D01*
X118661Y-66338D02*
X120883D01*
X118661Y-74999D02*
X165266D01*
X118661Y-83661D02*
X120881D01*
X126000Y-88779D02*
X165267D01*
X120881Y-83661D02*
X126000Y-88779D01*
X118661Y-83661D02*
X120381D01*
X98635D02*
X120381D01*
X98635Y-31661D02*
X120881D01*
X126000Y-36779D01*
X165267D01*
X120881Y20339D02*
X126000Y15221D01*
X165267D01*
X118661Y20339D02*
X120881D01*
X98635D02*
X120661D01*
X120881Y72339D02*
X126000Y67220D01*
X98635Y72339D02*
X120881D01*
X126000Y67220D02*
X165267D01*
X98635Y-14338D02*
X118661D01*
X120883D01*
X126000Y-9221D01*
X136133D01*
X165267D01*
X118661Y-22999D02*
X165266D01*
X98635Y37662D02*
X118661D01*
X120883D01*
X126000Y42779D01*
X136133D01*
X165267D01*
X118661Y29001D02*
X165266D01*
X118661Y81001D02*
X165266D01*
X136133Y94779D02*
X165267D01*
X126000D02*
X136133D01*
X120883Y89662D02*
X126000Y94779D01*
X118661Y89662D02*
X120883D01*
X98635D02*
X118661D01*
D104*
X39039Y123756D02*
D03*
X18961Y118244D02*
D03*
D105*
X-112500Y126000D02*
D03*
Y165800D02*
D03*
Y116000D02*
D03*
Y155800D02*
D03*
D106*
X-153700Y158400D02*
D03*
D107*
X-163700Y153400D02*
D03*
X-153700Y148400D02*
D03*
X-163700Y143400D02*
D03*
X-153700Y138400D02*
D03*
X-163700Y133400D02*
D03*
X-153700Y128400D02*
D03*
X-163700Y123400D02*
D03*
D108*
X-144000Y172200D02*
D03*
Y109600D02*
D03*
D109*
X-220000Y83075D02*
D03*
Y54925D02*
D03*
D110*
X-220866Y74118D02*
D03*
X-216929Y71559D02*
D03*
X-220866Y69000D02*
D03*
X-216929Y66441D02*
D03*
X-220866Y63882D02*
D03*
D111*
X12000Y162000D02*
D03*
Y152000D02*
D03*
X79961Y-192400D02*
D03*
D112*
X12000Y142000D02*
D03*
X50039Y-192400D02*
D03*
D113*
X-245000Y90000D02*
D03*
Y105000D02*
D03*
Y120000D02*
D03*
Y135000D02*
D03*
Y150000D02*
D03*
D114*
X-185000Y-105000D02*
D03*
Y-120000D02*
D03*
X-170000Y-105000D02*
D03*
Y-120000D02*
D03*
X-155000Y-105000D02*
D03*
Y-120000D02*
D03*
X-140000D02*
D03*
Y-105000D02*
D03*
X-240000Y-60000D02*
D03*
Y-75000D02*
D03*
X-225000Y-60000D02*
D03*
Y-75000D02*
D03*
X-210000D02*
D03*
Y-60000D02*
D03*
X-240000Y-45000D02*
D03*
X-225000D02*
D03*
X-210000D02*
D03*
Y-15000D02*
D03*
Y-30000D02*
D03*
X-225000Y-15000D02*
D03*
Y-30000D02*
D03*
X-240000D02*
D03*
Y-15000D02*
D03*
X-225000Y-155000D02*
D03*
X-240000D02*
D03*
X-225000Y-170000D02*
D03*
X-240000D02*
D03*
X-210000Y-185000D02*
D03*
X-240000D02*
D03*
Y-215000D02*
D03*
Y-200000D02*
D03*
X-225000D02*
D03*
Y-215000D02*
D03*
X-210000Y-200000D02*
D03*
Y-245000D02*
D03*
Y-230000D02*
D03*
Y-215000D02*
D03*
X-195000D02*
D03*
Y-230000D02*
D03*
Y-245000D02*
D03*
X-180000Y-215000D02*
D03*
Y-230000D02*
D03*
Y-245000D02*
D03*
X-165000Y-215000D02*
D03*
Y-230000D02*
D03*
Y-245000D02*
D03*
X-95000Y-215000D02*
D03*
Y-230000D02*
D03*
X-80000D02*
D03*
X-65000D02*
D03*
X-50000D02*
D03*
Y-245000D02*
D03*
X-65000D02*
D03*
X-80000D02*
D03*
X-95000D02*
D03*
X60000D02*
D03*
X75000D02*
D03*
X90000D02*
D03*
X135000Y-180000D02*
D03*
Y-195000D02*
D03*
X150000D02*
D03*
X165000Y-240000D02*
D03*
Y-225000D02*
D03*
Y-210000D02*
D03*
Y-195000D02*
D03*
X180000D02*
D03*
Y-210000D02*
D03*
Y-225000D02*
D03*
Y-240000D02*
D03*
X195000D02*
D03*
Y-225000D02*
D03*
Y-195000D02*
D03*
Y-210000D02*
D03*
X225000Y-195000D02*
D03*
Y-210500D02*
D03*
X210000Y-195000D02*
D03*
Y-210500D02*
D03*
Y-225000D02*
D03*
Y-240000D02*
D03*
X200000Y-60000D02*
D03*
X215000D02*
D03*
X230000Y-75000D02*
D03*
Y-60000D02*
D03*
Y-45000D02*
D03*
X245000D02*
D03*
Y-60000D02*
D03*
Y-75000D02*
D03*
X200000Y50000D02*
D03*
X215000D02*
D03*
Y65000D02*
D03*
X230000D02*
D03*
Y80000D02*
D03*
X245000D02*
D03*
Y65000D02*
D03*
X230000Y50000D02*
D03*
X245000D02*
D03*
X230000Y110000D02*
D03*
Y125000D02*
D03*
X245000D02*
D03*
Y110000D02*
D03*
X230000Y95000D02*
D03*
X245000D02*
D03*
X230000Y155000D02*
D03*
Y170000D02*
D03*
X245000D02*
D03*
Y155000D02*
D03*
X230000Y140000D02*
D03*
X245000D02*
D03*
Y185000D02*
D03*
X230000D02*
D03*
X245000Y200000D02*
D03*
Y215000D02*
D03*
X230000D02*
D03*
Y200000D02*
D03*
X215000Y185000D02*
D03*
X200000D02*
D03*
X185000D02*
D03*
X200000Y215000D02*
D03*
X215000Y200000D02*
D03*
Y215000D02*
D03*
Y230000D02*
D03*
X200000D02*
D03*
X215000Y245000D02*
D03*
X200000D02*
D03*
X185000D02*
D03*
Y230000D02*
D03*
Y200000D02*
D03*
Y215000D02*
D03*
X170000Y200000D02*
D03*
Y215000D02*
D03*
X155000Y200000D02*
D03*
Y215000D02*
D03*
X140000Y200000D02*
D03*
Y215000D02*
D03*
X125500Y200000D02*
D03*
Y215000D02*
D03*
X110000Y200000D02*
D03*
Y215000D02*
D03*
X5000Y200000D02*
D03*
X35000D02*
D03*
X95000D02*
D03*
X80000D02*
D03*
X65000D02*
D03*
X50000D02*
D03*
X95000Y215000D02*
D03*
X80000D02*
D03*
Y230000D02*
D03*
X65000D02*
D03*
Y215000D02*
D03*
X50000D02*
D03*
Y230000D02*
D03*
X35000D02*
D03*
Y215000D02*
D03*
X20000D02*
D03*
Y230000D02*
D03*
X5000D02*
D03*
X-10000D02*
D03*
X20000Y245000D02*
D03*
X5000D02*
D03*
X-10000D02*
D03*
X-30000D02*
D03*
X-55000D02*
D03*
X-70000D02*
D03*
X-85000Y230000D02*
D03*
Y245000D02*
D03*
X-155000Y190000D02*
D03*
X-170000Y215000D02*
D03*
X-90000Y205000D02*
D03*
X-115000D02*
D03*
Y215000D02*
D03*
X-145000D02*
D03*
X-85000D02*
D03*
X-220000Y245000D02*
D03*
X-210000Y235000D02*
D03*
X-235000Y95000D02*
D03*
Y155000D02*
D03*
Y140000D02*
D03*
X-230000Y215000D02*
D03*
X-245000D02*
D03*
Y200000D02*
D03*
Y165000D02*
D03*
X79000Y-62047D02*
D03*
Y-59047D02*
D03*
X84000Y-18000D02*
D03*
Y-24000D02*
D03*
X174000Y-179900D02*
D03*
X120000Y-200000D02*
D03*
X108000D02*
D03*
X91000Y-190000D02*
D03*
Y-196000D02*
D03*
X-500Y-167500D02*
D03*
X-12000Y-170500D02*
D03*
X-10051Y-166974D02*
D03*
X-98898Y130000D02*
D03*
Y120000D02*
D03*
Y159800D02*
D03*
X-241630Y74000D02*
D03*
Y67000D02*
D03*
X-242000Y43000D02*
D03*
X45000Y-236000D02*
D03*
Y-217500D02*
D03*
X175700Y-90000D02*
D03*
Y-83000D02*
D03*
X202000Y15000D02*
D03*
X195000D02*
D03*
X202000Y-32000D02*
D03*
X195000D02*
D03*
X-235136Y130000D02*
D03*
Y120000D02*
D03*
Y115000D02*
D03*
X-195000Y110000D02*
D03*
X-220000Y180000D02*
D03*
X-197000D02*
D03*
X-80614Y-254500D02*
D03*
X-86586D02*
D03*
X-92557D02*
D03*
X-98529D02*
D03*
X-50757D02*
D03*
X-56729D02*
D03*
X-62700D02*
D03*
X-68672D02*
D03*
X-74643D02*
D03*
X-20900D02*
D03*
X-26871D02*
D03*
X-32843D02*
D03*
X-38814D02*
D03*
X-44786D02*
D03*
X8957D02*
D03*
X2986D02*
D03*
X-2986D02*
D03*
X-8957D02*
D03*
X-14929D02*
D03*
X38814D02*
D03*
X32843D02*
D03*
X26871D02*
D03*
X20900D02*
D03*
X14928D02*
D03*
X68671D02*
D03*
X62700D02*
D03*
X56728D02*
D03*
X50757D02*
D03*
X44785D02*
D03*
X98528D02*
D03*
X92557D02*
D03*
X86585D02*
D03*
X80614D02*
D03*
X74643D02*
D03*
X-89062Y254500D02*
D03*
X-59375D02*
D03*
X-65312D02*
D03*
X-71250D02*
D03*
X-77188D02*
D03*
X-83125D02*
D03*
X-29688D02*
D03*
X-35625D02*
D03*
X-41563D02*
D03*
X-47500D02*
D03*
X-53438D02*
D03*
X0D02*
D03*
X-5937D02*
D03*
X-11875D02*
D03*
X-17812D02*
D03*
X-23750D02*
D03*
X29688D02*
D03*
X23750D02*
D03*
X17812D02*
D03*
X11875D02*
D03*
X5937D02*
D03*
X59375D02*
D03*
X53438D02*
D03*
X47500D02*
D03*
X41563D02*
D03*
X35625D02*
D03*
X65312D02*
D03*
X71250D02*
D03*
X77188D02*
D03*
X83125D02*
D03*
X89062D02*
D03*
X-256800Y-216569D02*
D03*
Y-210539D02*
D03*
Y-204508D02*
D03*
Y-198477D02*
D03*
Y-138171D02*
D03*
Y-144201D02*
D03*
Y-150232D02*
D03*
Y-156263D02*
D03*
Y-162293D02*
D03*
Y-168324D02*
D03*
Y-174355D02*
D03*
Y-180385D02*
D03*
Y-186416D02*
D03*
Y-192447D02*
D03*
Y-77864D02*
D03*
Y-83895D02*
D03*
Y-89925D02*
D03*
Y-95956D02*
D03*
Y-101987D02*
D03*
Y-108018D02*
D03*
Y-114048D02*
D03*
Y-120079D02*
D03*
Y-126109D02*
D03*
Y-132140D02*
D03*
Y-17558D02*
D03*
Y-23588D02*
D03*
Y-29619D02*
D03*
Y-35649D02*
D03*
Y-41680D02*
D03*
Y-47711D02*
D03*
Y-53742D02*
D03*
Y-59772D02*
D03*
Y-65803D02*
D03*
Y-71833D02*
D03*
Y42749D02*
D03*
Y36718D02*
D03*
Y30688D02*
D03*
Y24657D02*
D03*
Y18626D02*
D03*
Y12596D02*
D03*
Y6565D02*
D03*
Y534D02*
D03*
Y-5496D02*
D03*
Y-11527D02*
D03*
Y103056D02*
D03*
Y97025D02*
D03*
Y90994D02*
D03*
Y84964D02*
D03*
Y78933D02*
D03*
Y72902D02*
D03*
Y66872D02*
D03*
Y60841D02*
D03*
Y54810D02*
D03*
Y48780D02*
D03*
Y163362D02*
D03*
Y157332D02*
D03*
Y151301D02*
D03*
Y145270D02*
D03*
Y139240D02*
D03*
Y133209D02*
D03*
Y127178D02*
D03*
Y121148D02*
D03*
Y115117D02*
D03*
Y109086D02*
D03*
Y169393D02*
D03*
Y175424D02*
D03*
Y181454D02*
D03*
Y187485D02*
D03*
Y193516D02*
D03*
Y199546D02*
D03*
Y205577D02*
D03*
Y211608D02*
D03*
Y217638D02*
D03*
Y223669D02*
D03*
X-95000Y230000D02*
D03*
X-175000D02*
D03*
X-175000Y254500D02*
D03*
X-232000D02*
D03*
X-256800Y229699D02*
D03*
Y-229700D02*
D03*
X-232000Y-254500D02*
D03*
X-149500D02*
D03*
X-149500Y-211500D02*
D03*
X-104500Y-211500D02*
D03*
Y-254500D02*
D03*
X-95000Y248375D02*
D03*
Y236125D02*
D03*
Y242250D02*
D03*
X-168846Y230000D02*
D03*
X-162692D02*
D03*
X-156538D02*
D03*
X-150385D02*
D03*
X-144231D02*
D03*
X-138077D02*
D03*
X-131923D02*
D03*
X-125769D02*
D03*
X-119615D02*
D03*
X-113461D02*
D03*
X-107308D02*
D03*
X-101154D02*
D03*
X-175000Y248375D02*
D03*
Y242250D02*
D03*
Y236125D02*
D03*
X-225667Y254500D02*
D03*
X-219333D02*
D03*
X-213000D02*
D03*
X-206667D02*
D03*
X-200333D02*
D03*
X-194000D02*
D03*
X-187667D02*
D03*
X-181333D02*
D03*
X-256800Y-222600D02*
D03*
X-226107Y-254500D02*
D03*
X-220214D02*
D03*
X-214321D02*
D03*
X-208429D02*
D03*
X-202536D02*
D03*
X-196643D02*
D03*
X-190750D02*
D03*
X-184857D02*
D03*
X-178964D02*
D03*
X-173071D02*
D03*
X-167178D02*
D03*
X-161286D02*
D03*
X-155393D02*
D03*
X-149500Y-248357D02*
D03*
Y-242214D02*
D03*
Y-236071D02*
D03*
Y-229929D02*
D03*
Y-223786D02*
D03*
Y-217643D02*
D03*
X-143071Y-211500D02*
D03*
X-136643Y-211500D02*
D03*
X-130214D02*
D03*
X-123786D02*
D03*
X-117357D02*
D03*
X-110929D02*
D03*
X-255300Y235800D02*
D03*
X-252700Y241542D02*
D03*
X-248700Y246400D02*
D03*
X-243842Y250400D02*
D03*
X-238100Y253000D02*
D03*
Y-253000D02*
D03*
X-243842Y-250400D02*
D03*
X-248700Y-246400D02*
D03*
X-252700Y-241542D02*
D03*
X-255300Y-235800D02*
D03*
X-104500Y-217643D02*
D03*
Y-223786D02*
D03*
Y-229928D02*
D03*
Y-236071D02*
D03*
Y-242214D02*
D03*
Y-248357D02*
D03*
X104500D02*
D03*
Y-242214D02*
D03*
Y-236071D02*
D03*
Y-229928D02*
D03*
Y-223786D02*
D03*
Y-217643D02*
D03*
X255300Y-235800D02*
D03*
X252700Y-241542D02*
D03*
X248700Y-246400D02*
D03*
X243842Y-250400D02*
D03*
X238100Y-253000D02*
D03*
Y253000D02*
D03*
X243842Y250400D02*
D03*
X248700Y246400D02*
D03*
X252700Y241542D02*
D03*
X255300Y235800D02*
D03*
X110929Y-211500D02*
D03*
X117357D02*
D03*
X123786D02*
D03*
X130214D02*
D03*
X136643D02*
D03*
X143071Y-211500D02*
D03*
X149500Y-217643D02*
D03*
Y-223786D02*
D03*
Y-229929D02*
D03*
Y-236071D02*
D03*
Y-242214D02*
D03*
Y-248357D02*
D03*
X155393Y-254500D02*
D03*
X161286D02*
D03*
X167178D02*
D03*
X173071D02*
D03*
X178964D02*
D03*
X184857D02*
D03*
X190750D02*
D03*
X196643D02*
D03*
X202536D02*
D03*
X208429D02*
D03*
X214321D02*
D03*
X220214D02*
D03*
X226107D02*
D03*
X256800Y-222600D02*
D03*
X239700Y-215500D02*
D03*
X245400D02*
D03*
X251100D02*
D03*
X234000Y-136572D02*
D03*
Y-142643D02*
D03*
Y-166929D02*
D03*
Y-173000D02*
D03*
Y-179071D02*
D03*
Y-185143D02*
D03*
Y-191214D02*
D03*
Y-197286D02*
D03*
Y-203357D02*
D03*
Y-209429D02*
D03*
X238500Y-119500D02*
D03*
Y-125000D02*
D03*
Y-114000D02*
D03*
X244600Y-96000D02*
D03*
X250700D02*
D03*
X256800Y223668D02*
D03*
Y217637D02*
D03*
Y211606D02*
D03*
Y151291D02*
D03*
Y157322D02*
D03*
Y163354D02*
D03*
Y169385D02*
D03*
Y175417D02*
D03*
Y181448D02*
D03*
Y187480D02*
D03*
Y193511D02*
D03*
Y199542D02*
D03*
Y205574D02*
D03*
Y90976D02*
D03*
Y97007D02*
D03*
Y103039D02*
D03*
Y109070D02*
D03*
Y115102D02*
D03*
Y121133D02*
D03*
Y127165D02*
D03*
Y133196D02*
D03*
Y139228D02*
D03*
Y145259D02*
D03*
Y30661D02*
D03*
Y36693D02*
D03*
Y42724D02*
D03*
Y48755D02*
D03*
Y54787D02*
D03*
Y60818D02*
D03*
Y66850D02*
D03*
Y72881D02*
D03*
Y78913D02*
D03*
Y84944D02*
D03*
Y-29654D02*
D03*
Y-23622D02*
D03*
Y-17591D02*
D03*
Y-11559D02*
D03*
Y-5528D02*
D03*
Y504D02*
D03*
Y6535D02*
D03*
Y12567D02*
D03*
Y18598D02*
D03*
Y24630D02*
D03*
Y-35685D02*
D03*
Y-41717D02*
D03*
Y-47748D02*
D03*
Y-53780D02*
D03*
Y-59811D02*
D03*
Y-65843D02*
D03*
Y-71874D02*
D03*
Y-77906D02*
D03*
Y-83937D02*
D03*
Y-89969D02*
D03*
X181333Y254500D02*
D03*
X187667D02*
D03*
X194000D02*
D03*
X200333D02*
D03*
X206667D02*
D03*
X213000D02*
D03*
X219333D02*
D03*
X225667D02*
D03*
X175000Y236125D02*
D03*
Y242250D02*
D03*
Y248375D02*
D03*
X101154Y230000D02*
D03*
X107308D02*
D03*
X113461D02*
D03*
X119615D02*
D03*
X125769D02*
D03*
X131923D02*
D03*
X138077D02*
D03*
X144231D02*
D03*
X150385D02*
D03*
X156538D02*
D03*
X162692D02*
D03*
X168846D02*
D03*
X95000Y242250D02*
D03*
Y236125D02*
D03*
Y248375D02*
D03*
X104500Y-254500D02*
D03*
X104500Y-211500D02*
D03*
X149500Y-211500D02*
D03*
X149500Y-254500D02*
D03*
X232000D02*
D03*
X256800Y-229700D02*
D03*
Y-215500D02*
D03*
X234000D02*
D03*
Y-130500D02*
D03*
X238500Y-130500D02*
D03*
Y-96000D02*
D03*
X256800D02*
D03*
Y229700D02*
D03*
X232000Y254500D02*
D03*
X175000D02*
D03*
X175000Y230000D02*
D03*
X95000D02*
D03*
X114000Y-177000D02*
D03*
X144803Y123000D02*
D03*
X188898Y168000D02*
D03*
X192047Y163000D02*
D03*
X195197Y159500D02*
D03*
X198346Y156086D02*
D03*
X148000Y104500D02*
D03*
X144500Y101000D02*
D03*
X199000Y113500D02*
D03*
X196000Y117000D02*
D03*
X202000D02*
D03*
X205000Y113500D02*
D03*
X-53500Y-96000D02*
D03*
X-79500Y-90000D02*
D03*
X-65000D02*
D03*
X36854Y5354D02*
D03*
X95000Y254500D02*
D03*
X-95000D02*
D03*
X-208500Y183000D02*
D03*
X-247000Y62500D02*
D03*
X164500Y140500D02*
D03*
X-62000Y9500D02*
D03*
X34100Y22500D02*
D03*
X-60000Y-38000D02*
D03*
X174500Y133000D02*
D03*
X41500Y19500D02*
D03*
X4795Y9500D02*
D03*
X-46500Y-58000D02*
D03*
X-26638Y31100D02*
D03*
X16669Y3500D02*
D03*
X-4984Y5500D02*
D03*
Y9500D02*
D03*
X-8921D02*
D03*
X41000Y-8000D02*
D03*
X38500Y-31500D02*
D03*
X35500Y-19000D02*
D03*
X40000Y-29000D02*
D03*
X38500Y-37500D02*
D03*
X54000Y-19000D02*
D03*
X51000Y-40000D02*
D03*
Y-37000D02*
D03*
X22500Y-45500D02*
D03*
X56000Y-26142D02*
D03*
X58000Y16000D02*
D03*
X62000Y20000D02*
D03*
X34000Y-52000D02*
D03*
X27500Y20000D02*
D03*
X-60000Y-33500D02*
D03*
X179449Y117000D02*
D03*
X4000Y-70500D02*
D03*
X40500Y9000D02*
D03*
X-61500Y-49764D02*
D03*
X8500Y-70500D02*
D03*
X10000Y-68000D02*
D03*
X13500Y-80500D02*
D03*
X48500Y-82000D02*
D03*
X25000Y-90000D02*
D03*
X46000Y-84000D02*
D03*
X43500Y-85500D02*
D03*
X-49169Y-22205D02*
D03*
X-46000Y-17000D02*
D03*
X-43000Y-20000D02*
D03*
Y-27000D02*
D03*
X186000Y141500D02*
D03*
Y136500D02*
D03*
X201500Y152500D02*
D03*
X184500Y159500D02*
D03*
X171000D02*
D03*
X192000Y144000D02*
D03*
X127500Y182000D02*
D03*
X133000D02*
D03*
X138500D02*
D03*
X132500Y157000D02*
D03*
X122000Y148000D02*
D03*
X125500Y151000D02*
D03*
X129000Y154000D02*
D03*
Y168000D02*
D03*
X135354D02*
D03*
X146500D02*
D03*
X151102D02*
D03*
X156000D02*
D03*
X160551D02*
D03*
X166850D02*
D03*
X204646Y177000D02*
D03*
X207809Y168000D02*
D03*
X192047Y132000D02*
D03*
X170000Y177000D02*
D03*
X182598D02*
D03*
X210945D02*
D03*
X179449Y123000D02*
D03*
X163701D02*
D03*
X161000Y-111500D02*
D03*
X173013Y-102000D02*
D03*
X190308Y-106832D02*
D03*
X181000Y-113000D02*
D03*
Y-118000D02*
D03*
X185600Y-79000D02*
D03*
X151500Y-136000D02*
D03*
Y-130000D02*
D03*
X-77500Y-154000D02*
D03*
X-84000Y-156000D02*
D03*
X-90500Y-154000D02*
D03*
X-97000Y-156000D02*
D03*
X-101500Y-154000D02*
D03*
X-106000Y-156000D02*
D03*
X-117000D02*
D03*
X-121500Y-154000D02*
D03*
X-126000Y-156000D02*
D03*
X-135000D02*
D03*
X-78500Y-188500D02*
D03*
X-83673Y-181500D02*
D03*
X-75799D02*
D03*
X-70000D02*
D03*
X-65000D02*
D03*
X-61500Y-185000D02*
D03*
X-58000Y-188500D02*
D03*
X-111000Y-202500D02*
D03*
X-118500Y-200000D02*
D03*
X-114000D02*
D03*
X-63988Y-197500D02*
D03*
X-77768D02*
D03*
X-107295Y-205000D02*
D03*
X-97453Y-207500D02*
D03*
X-93516Y-210000D02*
D03*
X-85642Y-212500D02*
D03*
X-125021Y-189622D02*
D03*
X-91000Y30000D02*
D03*
Y36000D02*
D03*
Y33000D02*
D03*
X-180500Y142438D02*
D03*
Y158438D02*
D03*
Y133438D02*
D03*
Y149438D02*
D03*
X-69000Y174000D02*
D03*
X-27000Y222000D02*
D03*
X-15000Y222041D02*
D03*
X-21000Y222000D02*
D03*
X-15000Y227500D02*
D03*
X-38500Y223500D02*
D03*
X-33000Y227500D02*
D03*
X-45016D02*
D03*
X-55000Y224500D02*
D03*
Y234000D02*
D03*
X-59900Y241500D02*
D03*
Y182500D02*
D03*
X-70500Y237000D02*
D03*
Y231000D02*
D03*
Y225000D02*
D03*
X-15000Y241000D02*
D03*
X-21000D02*
D03*
X-27000D02*
D03*
X-33000D02*
D03*
X-39000D02*
D03*
X-45000D02*
D03*
X15000Y-1000D02*
D03*
X-30500Y-5550D02*
D03*
X-26500Y-4000D02*
D03*
X-17500Y-8000D02*
D03*
X-22500Y-5500D02*
D03*
X-30500Y-13500D02*
D03*
X-22500D02*
D03*
X-26500Y-15000D02*
D03*
X-29000Y-46000D02*
D03*
X-7500Y-54000D02*
D03*
X-500D02*
D03*
X13500Y-55000D02*
D03*
X11000Y-61000D02*
D03*
X8500Y-65000D02*
D03*
X-10000Y-70000D02*
D03*
X-20000Y-69000D02*
D03*
X-49000Y-86500D02*
D03*
X-59000Y-16500D02*
D03*
X-63500Y500D02*
D03*
X-62000Y-16500D02*
D03*
X-34500Y-15000D02*
D03*
X-45000Y-46500D02*
D03*
X-24000Y-49000D02*
D03*
X-49000Y-42500D02*
D03*
X-59000Y-45827D02*
D03*
X-62099Y-28110D02*
D03*
X-59000Y-24173D02*
D03*
X-49000Y-28110D02*
D03*
X-30500Y-37000D02*
D03*
X-45500Y-34000D02*
D03*
X-30500Y-40000D02*
D03*
Y-34000D02*
D03*
X-45500Y-40000D02*
D03*
Y-37000D02*
D03*
X-56000Y22000D02*
D03*
X-53500Y19500D02*
D03*
X-68000Y16000D02*
D03*
X-46500Y-64500D02*
D03*
X-49000Y-67000D02*
D03*
X-27000Y-89500D02*
D03*
X-35000Y-101500D02*
D03*
X-31000D02*
D03*
Y-94500D02*
D03*
X-27000Y-97000D02*
D03*
X-29509Y-90500D02*
D03*
X-30509Y-77000D02*
D03*
X21500Y-100000D02*
D03*
X60000Y-31500D02*
D03*
X57000D02*
D03*
X-38000Y-76500D02*
D03*
X-41000Y-79500D02*
D03*
X20606Y-90000D02*
D03*
X31500Y9500D02*
D03*
X25500D02*
D03*
X-43500Y-90000D02*
D03*
X2000D02*
D03*
X-12858Y-80000D02*
D03*
X-16795D02*
D03*
X24500Y-100000D02*
D03*
X51000Y-98000D02*
D03*
X55000Y-88500D02*
D03*
X43500Y-94000D02*
D03*
X51000Y-78500D02*
D03*
Y-74000D02*
D03*
Y-53500D02*
D03*
X34500Y-79000D02*
D03*
X37000Y-72500D02*
D03*
Y-66500D02*
D03*
Y-60500D02*
D03*
X23500Y-64000D02*
D03*
X20000Y-61000D02*
D03*
X40000Y-52000D02*
D03*
X54000Y-31500D02*
D03*
X26500Y-43500D02*
D03*
X30500Y-41500D02*
D03*
X34500Y-39500D02*
D03*
X25500Y-27000D02*
D03*
X29500Y-24000D02*
D03*
X13669Y20000D02*
D03*
X17169Y24000D02*
D03*
X-16795Y9500D02*
D03*
X-26500Y5500D02*
D03*
X-24669Y9500D02*
D03*
X-32500Y5500D02*
D03*
X-35500Y9500D02*
D03*
X-8921Y19976D02*
D03*
X-12000Y20055D02*
D03*
X-12858Y9500D02*
D03*
X-20732D02*
D03*
X-18764Y19976D02*
D03*
X-24000Y20055D02*
D03*
X-38449Y19976D02*
D03*
X-29000Y20000D02*
D03*
X-41000Y8000D02*
D03*
X-42000Y0D02*
D03*
X-46000D02*
D03*
X-65000Y12000D02*
D03*
X-163000Y-190685D02*
D03*
X-191000Y-151000D02*
D03*
X-198000D02*
D03*
X-205000D02*
D03*
X-212000D02*
D03*
X-230000D02*
D03*
X-237000D02*
D03*
X-244000D02*
D03*
X-193000Y9000D02*
D03*
X-235000Y57000D02*
D03*
X-72000Y171000D02*
D03*
X-69000D02*
D03*
X-105000Y169800D02*
D03*
X-98898D02*
D03*
X-105000Y130000D02*
D03*
X-70601Y205051D02*
D03*
X-70500Y199000D02*
D03*
X-70650Y187000D02*
D03*
Y193000D02*
D03*
X-204000Y158000D02*
D03*
Y162949D02*
D03*
X-175700Y103000D02*
D03*
X-180600D02*
D03*
X-185654D02*
D03*
X-195000Y137000D02*
D03*
Y155000D02*
D03*
X-3000Y189000D02*
D03*
X-21000D02*
D03*
X-44000Y196000D02*
D03*
X-33000Y189000D02*
D03*
X-27000D02*
D03*
X-11000Y211900D02*
D03*
X-41342Y184000D02*
D03*
X68000Y-23272D02*
D03*
X-70000Y-59000D02*
D03*
X-65000Y8000D02*
D03*
X154252Y177000D02*
D03*
X132205Y123000D02*
D03*
X138504D02*
D03*
X240000Y15000D02*
D03*
X215000Y40500D02*
D03*
Y-6500D02*
D03*
X191000Y25100D02*
D03*
X240000Y46000D02*
D03*
X202000D02*
D03*
X227299Y40500D02*
D03*
X240000Y-32000D02*
D03*
Y-1000D02*
D03*
X202000D02*
D03*
X227299Y-6500D02*
D03*
X191000Y-21900D02*
D03*
X181000Y-123000D02*
D03*
X195048Y-106832D02*
D03*
X216500Y-80000D02*
D03*
X232969D02*
D03*
X165000Y-147000D02*
D03*
X144000Y-142000D02*
D03*
Y-148100D02*
D03*
X90051Y-218000D02*
D03*
X14000Y-201000D02*
D03*
X-12000Y-215000D02*
D03*
X24000D02*
D03*
X114000Y-200000D02*
D03*
X101100D02*
D03*
X-123043D02*
D03*
X-217315Y19000D02*
D03*
X-200000Y-1000D02*
D03*
X-221000Y28000D02*
D03*
X-219000Y-3000D02*
D03*
Y3000D02*
D03*
X-247000Y77000D02*
D03*
X-213000Y55000D02*
D03*
X-183000Y49000D02*
D03*
X-194815Y51260D02*
D03*
X-245197Y-93130D02*
D03*
Y-103327D02*
D03*
X-194803Y-92539D02*
D03*
Y-101594D02*
D03*
X-193000Y-124000D02*
D03*
X-211000D02*
D03*
X-229000D02*
D03*
X-247000D02*
D03*
X-195000Y121000D02*
D03*
X-226000Y188949D02*
D03*
X-186000Y180000D02*
D03*
X-36500Y-74000D02*
D03*
X-29500Y-66500D02*
D03*
X-241000Y-136000D02*
D03*
X-234000D02*
D03*
X-227000D02*
D03*
X-209000D02*
D03*
X-202000D02*
D03*
X-195000D02*
D03*
X-188000D02*
D03*
X-43000Y-17000D02*
D03*
X-46000Y-27500D02*
D03*
X-39500Y5500D02*
D03*
X-29500D02*
D03*
X-229000Y188949D02*
D03*
X-211500Y183000D02*
D03*
X-172000Y188949D02*
D03*
X-175000D02*
D03*
X43500Y-91000D02*
D03*
X55000Y-85500D02*
D03*
X24500Y20000D02*
D03*
X87000Y-218000D02*
D03*
X37000Y-52000D02*
D03*
X-195000Y6500D02*
D03*
X-250000Y62500D02*
D03*
X37000Y-63500D02*
D03*
X48000Y-135000D02*
D03*
X-47000Y-44500D02*
D03*
X-204000Y169051D02*
D03*
X-44000Y2000D02*
D03*
X32500Y-21500D02*
D03*
X-1000Y-159000D02*
D03*
X-164000Y-188000D02*
D03*
X-68000Y13000D02*
D03*
X-31000Y-69000D02*
D03*
X-34000Y-72500D02*
D03*
X46000Y-133000D02*
D03*
X50000Y-137000D02*
D03*
Y-146500D02*
D03*
X46000Y-142500D02*
D03*
Y-166500D02*
D03*
Y-158500D02*
D03*
X50000Y-162500D02*
D03*
X46000Y-150500D02*
D03*
X50000Y-154500D02*
D03*
X-40417Y30000D02*
D03*
X-36576Y-54701D02*
D03*
X221000Y30500D02*
D03*
X218000Y35500D02*
D03*
X221000Y-16500D02*
D03*
X218000Y-11500D02*
D03*
X227299Y25500D02*
D03*
Y-21443D02*
D03*
X210500Y-80000D02*
D03*
X204500D02*
D03*
X198500D02*
D03*
X151000Y-160000D02*
D03*
Y-154000D02*
D03*
X218749Y-179900D02*
D03*
X186200D02*
D03*
X180200D02*
D03*
X-191000Y-136000D02*
D03*
X-198000D02*
D03*
X-205000D02*
D03*
X-212000D02*
D03*
X-230000D02*
D03*
X-237000D02*
D03*
X-244000D02*
D03*
X-9000Y189000D02*
D03*
X-15000D02*
D03*
X-55000Y229000D02*
D03*
X-130500Y-154000D02*
D03*
X-112500D02*
D03*
X-79736Y-184000D02*
D03*
X-40000Y-58000D02*
D03*
X-27000Y-65000D02*
D03*
X-65000Y-73386D02*
D03*
X50000Y16000D02*
D03*
X-19000Y-75124D02*
D03*
X-4000Y-38000D02*
D03*
Y-32000D02*
D03*
X2000Y-159000D02*
D03*
X4118Y-192283D02*
D03*
X-26087Y-189000D02*
D03*
X24087Y-197000D02*
D03*
Y-189067D02*
D03*
X-43264Y-61250D02*
D03*
X-59000Y500D02*
D03*
X-68000D02*
D03*
X-33000Y-80182D02*
D03*
X38500Y-10394D02*
D03*
X140000Y113000D02*
D03*
Y117000D02*
D03*
X124000Y113000D02*
D03*
Y117000D02*
D03*
X158000D02*
D03*
Y113000D02*
D03*
X166000Y117000D02*
D03*
Y113000D02*
D03*
X215000Y117000D02*
D03*
Y113000D02*
D03*
X168000Y187000D02*
D03*
Y183000D02*
D03*
X149000D02*
D03*
Y187000D02*
D03*
X2000Y20000D02*
D03*
X-500Y24000D02*
D03*
X-3000Y28000D02*
D03*
X94000Y111000D02*
D03*
X-69000Y-31732D02*
D03*
X-65000D02*
D03*
X57000Y-4488D02*
D03*
X-20900Y81500D02*
D03*
X-56728D02*
D03*
X-16000Y107000D02*
D03*
X57000Y3386D02*
D03*
X-40417Y26000D02*
D03*
X-10890D02*
D03*
X-69000Y-73386D02*
D03*
X-65000Y-24299D02*
D03*
X-69000D02*
D03*
Y8000D02*
D03*
X34386Y-100000D02*
D03*
Y-96000D02*
D03*
X795D02*
D03*
Y-100000D02*
D03*
X-10764Y-96000D02*
D03*
Y-100000D02*
D03*
X-44480D02*
D03*
Y-96000D02*
D03*
X-10890Y30000D02*
D03*
X8795D02*
D03*
Y26000D02*
D03*
X34100D02*
D03*
Y30000D02*
D03*
X61000Y-4488D02*
D03*
Y3386D02*
D03*
X57000Y-39953D02*
D03*
X61000D02*
D03*
X57000Y-44827D02*
D03*
X61000D02*
D03*
Y-73417D02*
D03*
X57000D02*
D03*
X55000Y107000D02*
D03*
X50100Y81500D02*
D03*
X14272D02*
D03*
X-83000Y-13000D02*
D03*
Y-61000D02*
D03*
X94000Y59000D02*
D03*
Y7000D02*
D03*
Y-45000D02*
D03*
X-42000Y-246500D02*
D03*
X45000Y-232500D02*
D03*
X-91240Y-109000D02*
D03*
X-53240D02*
D03*
X-15240D02*
D03*
X22760D02*
D03*
X60760D02*
D03*
X98760D02*
D03*
D116*
X-134853Y78390D02*
G03*
X-136133Y77110I0J-1280D01*
G01*
Y90890D02*
G03*
X-134853Y89610I1280J0D01*
G01*
X-108000Y52772D02*
G03*
X-112728Y57500I-4728J0D01*
G01*
X-112000Y47000D02*
G03*
X-108000Y51000I0J4000D01*
G01*
X-113724Y48724D02*
G03*
X-112000Y47000I1724J0D01*
G01*
Y45100D02*
G03*
X-106100Y51000I0J5900D01*
G01*
Y56000D02*
G03*
X-112600Y62500I-6500J0D01*
G01*
X-112000Y45100D02*
G03*
X-113724Y43376I0J-1724D01*
G01*
Y86624D02*
G03*
X-112000Y84900I1724J0D01*
G01*
X-112728Y67500D02*
G03*
X-106100Y74128I0J6628D01*
G01*
Y79000D02*
G03*
X-112000Y84900I-5900J0D01*
G01*
Y83000D02*
G03*
X-113724Y81276I0J-1724D01*
G01*
X-112728Y72500D02*
G03*
X-108000Y77228I0J4728D01*
G01*
Y79000D02*
G03*
X-112000Y83000I-4000J0D01*
G01*
X-113724Y80260D02*
Y81276D01*
Y86624D02*
Y87740D01*
Y48724D02*
Y49740D01*
X-108000Y51000D02*
Y52772D01*
X-106100Y51000D02*
Y56000D01*
X-112728Y62500D02*
X-112600D01*
X-113724Y42260D02*
Y43376D01*
X-106100Y74128D02*
Y79000D01*
X-108000Y77228D02*
Y79000D01*
D117*
X35826Y-246500D02*
D03*
X-35827D02*
D03*
D118*
X-199872Y-92539D02*
D03*
D119*
X-199085Y-97067D02*
D03*
D120*
X-206368Y-107461D02*
D03*
X-210699D02*
D03*
X-215030D02*
D03*
X-219360D02*
D03*
X-223691D02*
D03*
X-228022D02*
D03*
X-232352D02*
D03*
X-236683D02*
D03*
D121*
X-240915Y-103327D02*
D03*
Y-93130D02*
D03*
D122*
X-199970Y-101594D02*
D03*
D123*
X-46000Y92000D02*
D03*
X25000D02*
D03*
D124*
X-35272Y99500D02*
D03*
Y94500D02*
D03*
Y89500D02*
D03*
Y84500D02*
D03*
X-56728Y99500D02*
D03*
Y94500D02*
D03*
Y89500D02*
D03*
Y84500D02*
D03*
X14272D02*
D03*
Y89500D02*
D03*
Y94500D02*
D03*
Y99500D02*
D03*
X35728Y84500D02*
D03*
Y89500D02*
D03*
Y94500D02*
D03*
Y99500D02*
D03*
D125*
X-92500Y163728D02*
D03*
X-87500D02*
D03*
X-82500D02*
D03*
X-77500D02*
D03*
X-92500Y142272D02*
D03*
X-87500D02*
D03*
X-82500D02*
D03*
X-77500D02*
D03*
D126*
X109280Y169467D02*
D03*
Y140333D02*
D03*
X81721Y169467D02*
D03*
Y140333D02*
D03*
X95500Y169467D02*
D03*
Y140333D02*
D03*
X43610Y140333D02*
D03*
Y169467D02*
D03*
X57390Y140333D02*
D03*
Y169467D02*
D03*
X95610Y-169467D02*
D03*
Y-140333D02*
D03*
X109390Y-169467D02*
D03*
Y-140333D02*
D03*
X71390D02*
D03*
Y-169467D02*
D03*
X57610Y-140333D02*
D03*
Y-169467D02*
D03*
X19610D02*
D03*
Y-140333D02*
D03*
X33390Y-169467D02*
D03*
Y-140333D02*
D03*
X-4610D02*
D03*
Y-169467D02*
D03*
X-18390Y-140333D02*
D03*
Y-169467D02*
D03*
X-56390D02*
D03*
Y-140333D02*
D03*
X-42610Y-169467D02*
D03*
Y-140333D02*
D03*
X-80610D02*
D03*
Y-169467D02*
D03*
X-94390Y-140333D02*
D03*
Y-169467D02*
D03*
D127*
X-136133Y-37000D02*
D03*
X-165267D02*
D03*
X-136133Y-50779D02*
D03*
X-165267D02*
D03*
X-136133Y-23221D02*
D03*
X-165267D02*
D03*
X165267Y67220D02*
D03*
X136133D02*
D03*
X165267Y94779D02*
D03*
X136133D02*
D03*
X165267Y81000D02*
D03*
X136133D02*
D03*
Y29000D02*
D03*
X165267D02*
D03*
X136133Y42779D02*
D03*
X165267D02*
D03*
X136133Y15221D02*
D03*
X165267D02*
D03*
Y-36779D02*
D03*
X136133D02*
D03*
X165267Y-9221D02*
D03*
X136133D02*
D03*
X165267Y-23000D02*
D03*
X136133D02*
D03*
Y-75000D02*
D03*
X165267D02*
D03*
X136133Y-61221D02*
D03*
X165267D02*
D03*
X136133Y-88779D02*
D03*
X165267D02*
D03*
X-165267Y52890D02*
D03*
X-136133D02*
D03*
X-165267Y39110D02*
D03*
X-136133D02*
D03*
Y1110D02*
D03*
X-165267D02*
D03*
X-136133Y14890D02*
D03*
X-165267D02*
D03*
Y90890D02*
D03*
X-136133D02*
D03*
X-165267Y77110D02*
D03*
X-136133D02*
D03*
Y-88890D02*
D03*
X-165267D02*
D03*
X-136133Y-75110D02*
D03*
X-165267D02*
D03*
D128*
X109185Y121000D02*
D03*
X94815D02*
D03*
X19315Y-123900D02*
D03*
X33685D02*
D03*
X-94685D02*
D03*
X-80315D02*
D03*
X-56685D02*
D03*
X-42315D02*
D03*
X-18685D02*
D03*
X-4315D02*
D03*
X57315D02*
D03*
X71685D02*
D03*
X95315D02*
D03*
X109685D02*
D03*
D129*
X-227933Y110000D02*
D03*
X-212067Y115000D02*
D03*
X-227933D02*
D03*
X-212067Y120000D02*
D03*
X-227933D02*
D03*
X-212067Y125000D02*
D03*
X-227933D02*
D03*
X-212067Y110000D02*
D03*
X-227933Y130000D02*
D03*
X-212067D02*
D03*
D130*
X-38000Y71716D02*
D03*
Y36283D02*
D03*
X33000Y71716D02*
D03*
Y36283D02*
D03*
D131*
X-120000Y-16815D02*
D03*
Y-31185D02*
D03*
Y-57185D02*
D03*
Y-42815D02*
D03*
Y-89185D02*
D03*
Y-74815D02*
D03*
Y815D02*
D03*
Y15185D02*
D03*
D132*
X-104000Y-71705D02*
D03*
Y-92295D02*
D03*
Y-2295D02*
D03*
Y18295D02*
D03*
D133*
X87000Y72484D02*
D03*
X77000Y85516D02*
D03*
X67000Y72484D02*
D03*
Y20484D02*
D03*
X77000Y33516D02*
D03*
X87000Y20484D02*
D03*
X67000Y-31516D02*
D03*
X77000Y-18484D02*
D03*
X87000Y-31516D02*
D03*
Y-83516D02*
D03*
X77000Y-70484D02*
D03*
X67000Y-83516D02*
D03*
D134*
X-8134Y-23000D02*
D03*
X134D02*
D03*
D135*
X101339Y-66338D02*
D03*
Y-74999D02*
D03*
Y-83661D02*
D03*
X118661D02*
D03*
Y-74999D02*
D03*
Y-66338D02*
D03*
Y-53739D02*
D03*
X101339D02*
D03*
Y-14338D02*
D03*
Y-22999D02*
D03*
Y-31661D02*
D03*
X118661D02*
D03*
Y-22999D02*
D03*
Y-14338D02*
D03*
Y-1739D02*
D03*
X101339D02*
D03*
Y37662D02*
D03*
Y29001D02*
D03*
Y20339D02*
D03*
X118661D02*
D03*
Y29001D02*
D03*
Y37662D02*
D03*
Y50261D02*
D03*
X101339D02*
D03*
Y89662D02*
D03*
Y81001D02*
D03*
Y72339D02*
D03*
X118661D02*
D03*
Y81001D02*
D03*
Y89662D02*
D03*
Y102261D02*
D03*
X101339D02*
D03*
D136*
X-92500Y119360D02*
D03*
X-75571D02*
D03*
D137*
X-10031Y143535D02*
D03*
Y160465D02*
D03*
X-63968D02*
D03*
Y143535D02*
D03*
D138*
X-49795Y172276D02*
D03*
D139*
X-40937Y131724D02*
D03*
D140*
X-213484Y170000D02*
D03*
X-226516Y160000D02*
D03*
Y180000D02*
D03*
X-213484Y190000D02*
D03*
X-226516Y200000D02*
D03*
M02*
