G04*
G04 #@! TF.GenerationSoftware,Altium Limited,Altium Designer,22.9.1 (49)*
G04*
G04 Layer_Physical_Order=1*
G04 Layer_Color=255*
%FSLAX25Y25*%
%MOIN*%
G70*
G04*
G04 #@! TF.SameCoordinates,BD774D37-2A64-432E-85FC-E47F3F74055D*
G04*
G04*
G04 #@! TF.FilePolarity,Positive*
G04*
G01*
G75*
%ADD13R,0.04921X0.11024*%
%ADD14R,0.03740X0.03347*%
%ADD15R,0.05906X0.03543*%
%ADD16R,0.07165X0.04882*%
%ADD17R,0.03347X0.02953*%
G04:AMPARAMS|DCode=18|XSize=23.62mil|YSize=57.09mil|CornerRadius=11.81mil|HoleSize=0mil|Usage=FLASHONLY|Rotation=270.000|XOffset=0mil|YOffset=0mil|HoleType=Round|Shape=RoundedRectangle|*
%AMROUNDEDRECTD18*
21,1,0.02362,0.03347,0,0,270.0*
21,1,0.00000,0.05709,0,0,270.0*
1,1,0.02362,-0.01673,0.00000*
1,1,0.02362,-0.01673,0.00000*
1,1,0.02362,0.01673,0.00000*
1,1,0.02362,0.01673,0.00000*
%
%ADD18ROUNDEDRECTD18*%
%ADD19R,0.03937X0.03839*%
%ADD20R,0.03150X0.02756*%
%ADD21R,0.03839X0.03937*%
G04:AMPARAMS|DCode=22|XSize=11.81mil|YSize=55.12mil|CornerRadius=5.91mil|HoleSize=0mil|Usage=FLASHONLY|Rotation=270.000|XOffset=0mil|YOffset=0mil|HoleType=Round|Shape=RoundedRectangle|*
%AMROUNDEDRECTD22*
21,1,0.01181,0.04331,0,0,270.0*
21,1,0.00000,0.05512,0,0,270.0*
1,1,0.01181,-0.02165,0.00000*
1,1,0.01181,-0.02165,0.00000*
1,1,0.01181,0.02165,0.00000*
1,1,0.01181,0.02165,0.00000*
%
%ADD22ROUNDEDRECTD22*%
G04:AMPARAMS|DCode=23|XSize=11.81mil|YSize=55.12mil|CornerRadius=5.91mil|HoleSize=0mil|Usage=FLASHONLY|Rotation=180.000|XOffset=0mil|YOffset=0mil|HoleType=Round|Shape=RoundedRectangle|*
%AMROUNDEDRECTD23*
21,1,0.01181,0.04331,0,0,180.0*
21,1,0.00000,0.05512,0,0,180.0*
1,1,0.01181,0.00000,0.02165*
1,1,0.01181,0.00000,0.02165*
1,1,0.01181,0.00000,-0.02165*
1,1,0.01181,0.00000,-0.02165*
%
%ADD23ROUNDEDRECTD23*%
%ADD24R,0.04921X0.03937*%
G04:AMPARAMS|DCode=25|XSize=21.65mil|YSize=47.24mil|CornerRadius=10.83mil|HoleSize=0mil|Usage=FLASHONLY|Rotation=180.000|XOffset=0mil|YOffset=0mil|HoleType=Round|Shape=RoundedRectangle|*
%AMROUNDEDRECTD25*
21,1,0.02165,0.02559,0,0,180.0*
21,1,0.00000,0.04724,0,0,180.0*
1,1,0.02165,0.00000,0.01280*
1,1,0.02165,0.00000,0.01280*
1,1,0.02165,0.00000,-0.01280*
1,1,0.02165,0.00000,-0.01280*
%
%ADD25ROUNDEDRECTD25*%
%ADD26R,0.03201X0.07402*%
%ADD27R,0.07402X0.03201*%
%ADD28R,0.11024X0.04921*%
%ADD29R,0.03347X0.03740*%
G04:AMPARAMS|DCode=30|XSize=11.81mil|YSize=31.5mil|CornerRadius=5.91mil|HoleSize=0mil|Usage=FLASHONLY|Rotation=180.000|XOffset=0mil|YOffset=0mil|HoleType=Round|Shape=RoundedRectangle|*
%AMROUNDEDRECTD30*
21,1,0.01181,0.01968,0,0,180.0*
21,1,0.00000,0.03150,0,0,180.0*
1,1,0.01181,0.00000,0.00984*
1,1,0.01181,0.00000,0.00984*
1,1,0.01181,0.00000,-0.00984*
1,1,0.01181,0.00000,-0.00984*
%
%ADD30ROUNDEDRECTD30*%
%ADD31R,0.03937X0.03937*%
%ADD32R,0.03937X0.02362*%
%ADD33R,0.02362X0.03937*%
G04:AMPARAMS|DCode=34|XSize=17.72mil|YSize=55.12mil|CornerRadius=8.86mil|HoleSize=0mil|Usage=FLASHONLY|Rotation=0.000|XOffset=0mil|YOffset=0mil|HoleType=Round|Shape=RoundedRectangle|*
%AMROUNDEDRECTD34*
21,1,0.01772,0.03740,0,0,0.0*
21,1,0.00000,0.05512,0,0,0.0*
1,1,0.01772,0.00000,-0.01870*
1,1,0.01772,0.00000,-0.01870*
1,1,0.01772,0.00000,0.01870*
1,1,0.01772,0.00000,0.01870*
%
%ADD34ROUNDEDRECTD34*%
%ADD35R,0.05512X0.04528*%
%ADD36R,0.10630X0.03937*%
G04:AMPARAMS|DCode=37|XSize=11.81mil|YSize=47.24mil|CornerRadius=5.91mil|HoleSize=0mil|Usage=FLASHONLY|Rotation=180.000|XOffset=0mil|YOffset=0mil|HoleType=Round|Shape=RoundedRectangle|*
%AMROUNDEDRECTD37*
21,1,0.01181,0.03543,0,0,180.0*
21,1,0.00000,0.04724,0,0,180.0*
1,1,0.01181,0.00000,0.01772*
1,1,0.01181,0.00000,0.01772*
1,1,0.01181,0.00000,-0.01772*
1,1,0.01181,0.00000,-0.01772*
%
%ADD37ROUNDEDRECTD37*%
%ADD38R,0.06299X0.06299*%
%ADD39R,0.02362X0.04134*%
%ADD40R,0.03937X0.10630*%
G04:AMPARAMS|DCode=41|XSize=13.78mil|YSize=27.56mil|CornerRadius=6.89mil|HoleSize=0mil|Usage=FLASHONLY|Rotation=180.000|XOffset=0mil|YOffset=0mil|HoleType=Round|Shape=RoundedRectangle|*
%AMROUNDEDRECTD41*
21,1,0.01378,0.01378,0,0,180.0*
21,1,0.00000,0.02756,0,0,180.0*
1,1,0.01378,0.00000,0.00689*
1,1,0.01378,0.00000,0.00689*
1,1,0.01378,0.00000,-0.00689*
1,1,0.01378,0.00000,-0.00689*
%
%ADD41ROUNDEDRECTD41*%
G04:AMPARAMS|DCode=42|XSize=13.78mil|YSize=27.56mil|CornerRadius=6.89mil|HoleSize=0mil|Usage=FLASHONLY|Rotation=90.000|XOffset=0mil|YOffset=0mil|HoleType=Round|Shape=RoundedRectangle|*
%AMROUNDEDRECTD42*
21,1,0.01378,0.01378,0,0,90.0*
21,1,0.00000,0.02756,0,0,90.0*
1,1,0.01378,0.00689,0.00000*
1,1,0.01378,0.00689,0.00000*
1,1,0.01378,-0.00689,0.00000*
1,1,0.01378,-0.00689,0.00000*
%
%ADD42ROUNDEDRECTD42*%
%ADD43R,0.06693X0.04134*%
%ADD91C,0.02600*%
%ADD92C,0.00800*%
%ADD93C,0.01000*%
%ADD94C,0.00800*%
%ADD95C,0.04000*%
%ADD96C,0.03937*%
%ADD97R,0.17323X0.17323*%
%ADD98R,0.09843X0.09843*%
%ADD99C,0.04000*%
%ADD100C,0.02000*%
%ADD101C,0.01200*%
%ADD102C,0.03000*%
%ADD103C,0.05000*%
%ADD104C,0.09843*%
%ADD105C,0.06299*%
%ADD106R,0.05906X0.05906*%
%ADD107C,0.05906*%
%ADD108C,0.10236*%
%ADD109O,0.07284X0.03347*%
%ADD110C,0.03543*%
%ADD111C,0.07874*%
%ADD112R,0.07874X0.07874*%
%ADD113C,0.10000*%
%ADD114C,0.02000*%
G36*
X230315Y257477D02*
X231762D01*
X234642Y257193D01*
X237481Y256628D01*
X240251Y255788D01*
X242925Y254680D01*
X245477Y253316D01*
X247884Y251708D01*
X250121Y249872D01*
X252167Y247826D01*
X254004Y245588D01*
X255611Y243182D01*
X256976Y240629D01*
X258083Y237955D01*
X258924Y235186D01*
X259488Y232347D01*
X259772Y229467D01*
X259772Y228020D01*
X259772Y-99150D01*
X243606D01*
X242826Y-99305D01*
X242165Y-99747D01*
X241722Y-100409D01*
X241567Y-101189D01*
Y-133402D01*
X238882D01*
X238102Y-133557D01*
X237440Y-133999D01*
X236998Y-134661D01*
X236843Y-135441D01*
Y-210500D01*
X236998Y-211280D01*
X237440Y-211942D01*
X238102Y-212384D01*
X238882Y-212539D01*
X259772D01*
X259772Y-228004D01*
Y-229451D01*
X259488Y-232331D01*
X258924Y-235170D01*
X258083Y-237940D01*
X256976Y-240614D01*
X255611Y-243166D01*
X254004Y-245573D01*
X252167Y-247810D01*
X250121Y-249856D01*
X247884Y-251693D01*
X245477Y-253300D01*
X242925Y-254665D01*
X240251Y-255772D01*
X237481Y-256613D01*
X234642Y-257177D01*
X231762Y-257461D01*
X230315Y-257461D01*
X146724D01*
Y-216193D01*
X146569Y-215413D01*
X146127Y-214751D01*
X145465Y-214309D01*
X144685Y-214154D01*
X109252D01*
X108472Y-214309D01*
X107810Y-214751D01*
X107368Y-215413D01*
X107213Y-216193D01*
Y-257461D01*
X-107213D01*
Y-216193D01*
X-107368Y-215413D01*
X-107810Y-214751D01*
X-108472Y-214309D01*
X-109252Y-214154D01*
X-144685D01*
X-145465Y-214309D01*
X-146127Y-214751D01*
X-146569Y-215413D01*
X-146724Y-216193D01*
Y-257461D01*
X-230315Y-257461D01*
X-231762D01*
X-234642Y-257177D01*
X-237481Y-256613D01*
X-240251Y-255772D01*
X-242925Y-254665D01*
X-245477Y-253300D01*
X-247884Y-251693D01*
X-250121Y-249856D01*
X-252167Y-247810D01*
X-254004Y-245573D01*
X-255611Y-243166D01*
X-256976Y-240614D01*
X-258083Y-237940D01*
X-258924Y-235170D01*
X-259488Y-232331D01*
X-259772Y-229451D01*
X-259772Y-228004D01*
X-259772Y228020D01*
Y229467D01*
X-259488Y232347D01*
X-258924Y235186D01*
X-258083Y237955D01*
X-256976Y240629D01*
X-255611Y243182D01*
X-254004Y245588D01*
X-252167Y247826D01*
X-250121Y249872D01*
X-247884Y251708D01*
X-245477Y253316D01*
X-242925Y254680D01*
X-240251Y255788D01*
X-237481Y256628D01*
X-234642Y257193D01*
X-231762Y257477D01*
X-230315Y257477D01*
X-171882Y257477D01*
Y235016D01*
X-171726Y234235D01*
X-171284Y233574D01*
X-170623Y233132D01*
X-169843Y232977D01*
X-99843D01*
X-99062Y233132D01*
X-98401Y233574D01*
X-97959Y234235D01*
X-97803Y235016D01*
Y251500D01*
Y257477D01*
X97803D01*
Y251500D01*
Y235016D01*
X97959Y234235D01*
X98401Y233574D01*
X99062Y233132D01*
X99843Y232977D01*
X169843D01*
X170623Y233132D01*
X171284Y233574D01*
X171726Y234235D01*
X171882Y235016D01*
Y257477D01*
X230315Y257477D01*
D02*
G37*
%LPC*%
G36*
X-236919Y239900D02*
X-237481D01*
X-238039Y239837D01*
X-238586Y239712D01*
X-239116Y239527D01*
X-239622Y239283D01*
X-240098Y238984D01*
X-240537Y238634D01*
X-240934Y238237D01*
X-241284Y237798D01*
X-241583Y237322D01*
X-241827Y236816D01*
X-242012Y236286D01*
X-242137Y235739D01*
X-242200Y235181D01*
Y234619D01*
X-242137Y234061D01*
X-242012Y233514D01*
X-241827Y232984D01*
X-241583Y232478D01*
X-241284Y232002D01*
X-240934Y231563D01*
X-240537Y231166D01*
X-240098Y230816D01*
X-239622Y230517D01*
X-239116Y230273D01*
X-238586Y230088D01*
X-238039Y229963D01*
X-237481Y229900D01*
X-236919D01*
X-236361Y229963D01*
X-235814Y230088D01*
X-235284Y230273D01*
X-234778Y230517D01*
X-234302Y230816D01*
X-233863Y231166D01*
X-233466Y231563D01*
X-233116Y232002D01*
X-232817Y232478D01*
X-232573Y232984D01*
X-232388Y233514D01*
X-232263Y234061D01*
X-232200Y234619D01*
Y235181D01*
X-232263Y235739D01*
X-232388Y236286D01*
X-232573Y236816D01*
X-232817Y237322D01*
X-233116Y237798D01*
X-233466Y238237D01*
X-233863Y238634D01*
X-234302Y238984D01*
X-234778Y239283D01*
X-235284Y239527D01*
X-235814Y239712D01*
X-236361Y239837D01*
X-236919Y239900D01*
D02*
G37*
G36*
X221800Y251500D02*
X177800D01*
Y227000D01*
X91900D01*
Y251500D01*
X-91900D01*
Y227000D01*
X-177800D01*
Y251500D01*
X-221800D01*
Y219500D01*
X-253800D01*
Y-219500D01*
X-221800D01*
Y-251500D01*
X-152700D01*
Y-208200D01*
X-101300D01*
Y-251500D01*
X101300D01*
Y-208200D01*
X152700D01*
Y-251500D01*
X221800D01*
Y-219500D01*
X230900D01*
Y-163390D01*
X231469D01*
Y-159189D01*
Y-154988D01*
X230900D01*
Y-127500D01*
X235600D01*
Y-105780D01*
X235609Y-105390D01*
X235994Y-105390D01*
X236210D01*
Y-101189D01*
Y-96988D01*
X235609D01*
X235600Y-96598D01*
Y-93200D01*
X253800D01*
Y219500D01*
X221800D01*
Y251500D01*
D02*
G37*
G36*
X237593Y243900D02*
X236807D01*
X236024Y243831D01*
X235250Y243695D01*
X234491Y243492D01*
X233753Y243223D01*
X233040Y242891D01*
X232360Y242498D01*
X231716Y242047D01*
X231114Y241542D01*
X230558Y240986D01*
X230053Y240384D01*
X229602Y239740D01*
X229209Y239060D01*
X228877Y238347D01*
X228608Y237609D01*
X228405Y236850D01*
X228269Y236076D01*
X228200Y235293D01*
Y234507D01*
X228269Y233724D01*
X228405Y232950D01*
X228608Y232191D01*
X228877Y231453D01*
X229209Y230740D01*
X229602Y230060D01*
X230053Y229416D01*
X230558Y228814D01*
X231114Y228258D01*
X231716Y227753D01*
X232360Y227302D01*
X233040Y226909D01*
X233753Y226577D01*
X234491Y226308D01*
X235250Y226105D01*
X236024Y225969D01*
X236807Y225900D01*
X237593D01*
X238376Y225969D01*
X239150Y226105D01*
X239909Y226308D01*
X240647Y226577D01*
X241360Y226909D01*
X242040Y227302D01*
X242684Y227753D01*
X243286Y228258D01*
X243842Y228814D01*
X244347Y229416D01*
X244798Y230060D01*
X245191Y230740D01*
X245523Y231453D01*
X245792Y232191D01*
X245995Y232950D01*
X246131Y233724D01*
X246200Y234507D01*
Y235293D01*
X246131Y236076D01*
X245995Y236850D01*
X245792Y237609D01*
X245523Y238347D01*
X245191Y239060D01*
X244798Y239740D01*
X244347Y240384D01*
X243842Y240986D01*
X243286Y241542D01*
X242684Y242047D01*
X242040Y242498D01*
X241360Y242891D01*
X240647Y243223D01*
X239909Y243492D01*
X239150Y243695D01*
X238376Y243831D01*
X237593Y243900D01*
D02*
G37*
G36*
X239210Y-96988D02*
Y-99689D01*
X239810D01*
Y-96988D01*
X239210D01*
D02*
G37*
G36*
X239810Y-102689D02*
X239210D01*
Y-105390D01*
X239810D01*
Y-102689D01*
D02*
G37*
G36*
X235070Y-154988D02*
X234469D01*
Y-157689D01*
X235070D01*
Y-154988D01*
D02*
G37*
G36*
Y-160689D02*
X234469D01*
Y-163390D01*
X235070D01*
Y-160689D01*
D02*
G37*
G36*
X237481Y-229900D02*
X236919D01*
X236361Y-229963D01*
X235814Y-230088D01*
X235284Y-230273D01*
X234778Y-230517D01*
X234302Y-230816D01*
X233863Y-231166D01*
X233466Y-231563D01*
X233116Y-232002D01*
X232817Y-232478D01*
X232573Y-232984D01*
X232388Y-233514D01*
X232263Y-234061D01*
X232200Y-234619D01*
Y-235181D01*
X232263Y-235739D01*
X232388Y-236286D01*
X232573Y-236816D01*
X232817Y-237322D01*
X233116Y-237798D01*
X233466Y-238237D01*
X233863Y-238634D01*
X234302Y-238984D01*
X234778Y-239283D01*
X235284Y-239527D01*
X235814Y-239712D01*
X236361Y-239837D01*
X236919Y-239900D01*
X237481D01*
X238039Y-239837D01*
X238586Y-239712D01*
X239116Y-239527D01*
X239622Y-239283D01*
X240098Y-238984D01*
X240537Y-238634D01*
X240934Y-238237D01*
X241284Y-237798D01*
X241583Y-237322D01*
X241827Y-236816D01*
X242012Y-236286D01*
X242137Y-235739D01*
X242200Y-235181D01*
Y-234619D01*
X242137Y-234061D01*
X242012Y-233514D01*
X241827Y-232984D01*
X241583Y-232478D01*
X241284Y-232002D01*
X240934Y-231563D01*
X240537Y-231166D01*
X240098Y-230816D01*
X239622Y-230517D01*
X239116Y-230273D01*
X238586Y-230088D01*
X238039Y-229963D01*
X237481Y-229900D01*
D02*
G37*
G36*
X-236807Y-225900D02*
X-237593D01*
X-238376Y-225969D01*
X-239150Y-226105D01*
X-239909Y-226308D01*
X-240647Y-226577D01*
X-241360Y-226909D01*
X-242040Y-227302D01*
X-242684Y-227753D01*
X-243286Y-228258D01*
X-243842Y-228814D01*
X-244347Y-229416D01*
X-244798Y-230060D01*
X-245191Y-230740D01*
X-245523Y-231453D01*
X-245792Y-232191D01*
X-245995Y-232950D01*
X-246131Y-233724D01*
X-246200Y-234507D01*
Y-235293D01*
X-246131Y-236076D01*
X-245995Y-236850D01*
X-245792Y-237609D01*
X-245523Y-238347D01*
X-245191Y-239060D01*
X-244798Y-239740D01*
X-244347Y-240384D01*
X-243842Y-240986D01*
X-243286Y-241542D01*
X-242684Y-242047D01*
X-242040Y-242498D01*
X-241360Y-242891D01*
X-240647Y-243223D01*
X-239909Y-243492D01*
X-239150Y-243695D01*
X-238376Y-243831D01*
X-237593Y-243900D01*
X-236807D01*
X-236024Y-243831D01*
X-235250Y-243695D01*
X-234491Y-243492D01*
X-233753Y-243223D01*
X-233040Y-242891D01*
X-232360Y-242498D01*
X-231716Y-242047D01*
X-231114Y-241542D01*
X-230558Y-240986D01*
X-230053Y-240384D01*
X-229602Y-239740D01*
X-229209Y-239060D01*
X-228877Y-238347D01*
X-228608Y-237609D01*
X-228405Y-236850D01*
X-228269Y-236076D01*
X-228200Y-235293D01*
Y-234507D01*
X-228269Y-233724D01*
X-228405Y-232950D01*
X-228608Y-232191D01*
X-228877Y-231453D01*
X-229209Y-230740D01*
X-229602Y-230060D01*
X-230053Y-229416D01*
X-230558Y-228814D01*
X-231114Y-228258D01*
X-231716Y-227753D01*
X-232360Y-227302D01*
X-233040Y-226909D01*
X-233753Y-226577D01*
X-234491Y-226308D01*
X-235250Y-226105D01*
X-236024Y-225969D01*
X-236807Y-225900D01*
D02*
G37*
%LPD*%
G36*
X-114000Y191000D02*
X-133000D01*
Y200000D01*
X-114000D01*
Y191000D01*
D02*
G37*
G36*
X-91000Y176000D02*
X-102500D01*
Y176988D01*
X-102496D01*
Y183000D01*
Y189012D01*
X-102500D01*
Y190000D01*
X-91000D01*
Y176000D01*
D02*
G37*
G36*
X-104000Y174000D02*
X-113000D01*
Y176000D01*
X-117000D01*
Y178000D01*
X-129000D01*
Y187000D01*
X-117000D01*
Y190000D01*
X-113000D01*
Y192000D01*
X-104000D01*
Y174000D01*
D02*
G37*
G36*
X-214700Y33815D02*
X-214824D01*
Y28000D01*
Y22185D01*
X-214700D01*
Y21000D01*
X-232000D01*
Y35500D01*
X-233500D01*
Y40532D01*
X-233500D01*
Y43000D01*
X-231900D01*
Y44600D01*
X-229480D01*
Y44639D01*
X-214700D01*
Y33815D01*
D02*
G37*
G36*
X-233500Y34990D02*
X-232510D01*
Y21000D01*
X-232500Y20951D01*
Y20500D01*
X-232049D01*
X-232000Y20490D01*
X-214700D01*
X-214651Y20500D01*
X-214010D01*
Y15500D01*
X-220000D01*
Y14549D01*
X-220010Y14500D01*
Y12500D01*
X-232500Y12500D01*
Y12500D01*
X-232500Y12500D01*
X-232500D01*
X-232500Y-2000D01*
X-247000D01*
Y35000D01*
X-233549D01*
X-233500Y34990D01*
D02*
G37*
G36*
X-204000Y24500D02*
X-198500D01*
Y21500D01*
X-203000D01*
Y18500D01*
X-209000D01*
Y18421D01*
X-209154D01*
Y15059D01*
X-209154D01*
Y14681D01*
X-209154D01*
Y11500D01*
X-219500D01*
Y14500D01*
X-213500D01*
Y36000D01*
X-204000D01*
Y24500D01*
D02*
G37*
G36*
X-220010Y11500D02*
X-220000Y11451D01*
Y10500D01*
X-214000D01*
Y6000D01*
X-221000D01*
Y-7000D01*
X-232000D01*
Y-2049D01*
X-231990Y-2000D01*
X-231990Y11990D01*
X-220010Y11990D01*
Y11500D01*
D02*
G37*
G36*
X92000Y16000D02*
X105000D01*
Y-54000D01*
X78500D01*
Y-51098D01*
X78508Y-51000D01*
X78500Y-50902D01*
Y-42000D01*
X73000D01*
Y-30000D01*
X88000D01*
Y-6000D01*
X73000D01*
Y41500D01*
X-101806D01*
X-101868Y41579D01*
X-101799Y41868D01*
X-101768Y42260D01*
X-101799Y42652D01*
X-101891Y43035D01*
X-102041Y43398D01*
X-102247Y43734D01*
X-102502Y44033D01*
X-102802Y44289D01*
X-103137Y44494D01*
X-103501Y44645D01*
X-103883Y44737D01*
X-104276Y44768D01*
X-104668Y44737D01*
X-105051Y44645D01*
X-105414Y44494D01*
X-105750Y44289D01*
X-106049Y44033D01*
X-106304Y43734D01*
X-106510Y43398D01*
X-106661Y43035D01*
X-106752Y42652D01*
X-106783Y42260D01*
X-106752Y41868D01*
X-106661Y41485D01*
X-106510Y41121D01*
X-106304Y40786D01*
X-106049Y40487D01*
X-105750Y40231D01*
X-105414Y40025D01*
X-105051Y39875D01*
X-104668Y39783D01*
X-104276Y39752D01*
X-104073Y39768D01*
X-104000Y39700D01*
Y23000D01*
X-127000D01*
Y64500D01*
X73000D01*
Y108000D01*
X92000D01*
Y16000D01*
D02*
G37*
G36*
X-160028Y-178000D02*
X-165744D01*
Y-177555D01*
X-172256D01*
Y-178000D01*
X-175744D01*
Y-177555D01*
X-182256D01*
Y-178000D01*
X-188000D01*
Y-173000D01*
X-182256D01*
Y-173555D01*
X-175744D01*
Y-173000D01*
X-172256D01*
Y-173555D01*
X-165744D01*
Y-173000D01*
X-160028D01*
Y-178000D01*
D02*
G37*
G36*
X121311Y-170118D02*
X125641Y-170118D01*
Y-178779D01*
X116192D01*
Y-166771D01*
X121311Y-166771D01*
Y-170118D01*
D02*
G37*
G36*
X96508Y-178779D02*
X87059Y-178779D01*
Y-170118D01*
X91389Y-170118D01*
Y-166771D01*
X96508D01*
Y-178779D01*
D02*
G37*
G36*
X-43122Y-184691D02*
X-46272D01*
Y-187840D01*
X-52571D01*
Y-184691D01*
Y-178391D01*
X-43122D01*
Y-184691D01*
D02*
G37*
G36*
X-136429D02*
Y-187840D01*
X-142728D01*
Y-184691D01*
X-145878D01*
Y-178391D01*
X-136429D01*
Y-184691D01*
D02*
G37*
G36*
X-177000Y-179681D02*
Y-182445D01*
Y-185209D01*
Y-187000D01*
X-176500Y-187500D01*
Y-188216D01*
X-176590D01*
Y-190685D01*
Y-193154D01*
X-176500D01*
Y-194500D01*
X-195500D01*
Y-188000D01*
X-182000D01*
Y-186000D01*
X-188000D01*
Y-179000D01*
X-177000D01*
Y-179681D01*
D02*
G37*
G36*
X-176500Y-198846D02*
X-176590D01*
Y-201315D01*
Y-203783D01*
X-176500D01*
Y-204500D01*
X-182000D01*
Y-204000D01*
X-195500D01*
Y-197500D01*
X-176500D01*
Y-198846D01*
D02*
G37*
%LPC*%
G36*
X-119417Y198358D02*
X-121250D01*
Y197667D01*
X-119417D01*
Y198358D01*
D02*
G37*
G36*
X-125750D02*
X-127583D01*
Y197667D01*
X-125750D01*
Y198358D01*
D02*
G37*
G36*
X-119417Y193167D02*
X-121250D01*
Y192476D01*
X-119417D01*
Y193167D01*
D02*
G37*
G36*
X-125750D02*
X-127583D01*
Y192476D01*
X-125750D01*
Y193167D01*
D02*
G37*
G36*
X-97035Y189012D02*
X-97496D01*
Y185500D01*
X-97035D01*
Y189012D01*
D02*
G37*
G36*
Y180500D02*
X-97496D01*
Y176988D01*
X-97035D01*
Y180500D01*
D02*
G37*
G36*
X-109043Y189012D02*
X-109504D01*
Y185500D01*
X-109043D01*
Y189012D01*
D02*
G37*
G36*
X-114504D02*
X-114965D01*
Y185500D01*
X-114504D01*
Y189012D01*
D02*
G37*
G36*
X-119417Y185524D02*
X-121250D01*
Y184833D01*
X-119417D01*
Y185524D01*
D02*
G37*
G36*
X-125750D02*
X-127583D01*
Y184833D01*
X-125750D01*
Y185524D01*
D02*
G37*
G36*
X-119417Y180333D02*
X-121250D01*
Y179642D01*
X-119417D01*
Y180333D01*
D02*
G37*
G36*
X-125750D02*
X-127583D01*
Y179642D01*
X-125750D01*
Y180333D01*
D02*
G37*
G36*
X-109043Y180500D02*
X-109504D01*
Y176988D01*
X-109043D01*
Y180500D01*
D02*
G37*
G36*
X-114504D02*
X-114965D01*
Y176988D01*
X-114504D01*
Y180500D01*
D02*
G37*
G36*
X-229480Y41400D02*
X-230300D01*
Y40532D01*
X-229480D01*
Y41400D01*
D02*
G37*
G36*
X-223035Y34012D02*
X-223496D01*
Y30500D01*
X-223035D01*
Y34012D01*
D02*
G37*
G36*
X-228496D02*
X-228957D01*
Y30500D01*
X-228496D01*
Y34012D01*
D02*
G37*
G36*
X-218624Y33815D02*
X-219193D01*
Y29900D01*
X-218624D01*
Y33815D01*
D02*
G37*
G36*
Y26100D02*
X-219193D01*
Y22185D01*
X-218624D01*
Y26100D01*
D02*
G37*
G36*
X-223035Y25500D02*
X-223496D01*
Y21988D01*
X-223035D01*
Y25500D01*
D02*
G37*
G36*
X-228496D02*
X-228957D01*
Y21988D01*
X-228496D01*
Y25500D01*
D02*
G37*
G36*
X-235043Y34012D02*
X-235504D01*
Y30500D01*
X-235043D01*
Y34012D01*
D02*
G37*
G36*
X-240504D02*
X-240965D01*
Y30500D01*
X-240504D01*
Y34012D01*
D02*
G37*
G36*
X-235043Y25500D02*
X-235504D01*
Y21988D01*
X-235043D01*
Y25500D01*
D02*
G37*
G36*
X-240504D02*
X-240965D01*
Y21988D01*
X-240504D01*
Y25500D01*
D02*
G37*
G36*
X-235043Y11012D02*
X-235504D01*
Y7500D01*
X-235043D01*
Y11012D01*
D02*
G37*
G36*
X-240504D02*
X-240965D01*
Y7500D01*
X-240504D01*
Y11012D01*
D02*
G37*
G36*
X-235043Y2500D02*
X-235504D01*
Y-1012D01*
X-235043D01*
Y2500D01*
D02*
G37*
G36*
X-240504D02*
X-240965D01*
Y-1012D01*
X-240504D01*
Y2500D01*
D02*
G37*
G36*
X-204807Y33815D02*
X-205376D01*
Y29900D01*
X-204807D01*
Y33815D01*
D02*
G37*
G36*
X-209176D02*
X-209744D01*
Y29900D01*
X-209176D01*
Y33815D01*
D02*
G37*
G36*
X-204807Y26100D02*
X-205376D01*
Y22185D01*
X-204807D01*
Y26100D01*
D02*
G37*
G36*
X-209176D02*
X-209744D01*
Y22185D01*
X-209176D01*
Y26100D01*
D02*
G37*
G36*
X-223035Y11012D02*
X-223496D01*
Y7500D01*
X-223035D01*
Y11012D01*
D02*
G37*
G36*
X-228496D02*
X-228957D01*
Y7500D01*
X-228496D01*
Y11012D01*
D02*
G37*
G36*
X-223035Y2500D02*
X-223496D01*
Y-1012D01*
X-223035D01*
Y2500D01*
D02*
G37*
G36*
X-228496D02*
X-228957D01*
Y-1012D01*
X-228496D01*
Y2500D01*
D02*
G37*
G36*
X76000Y107508D02*
X75608Y107477D01*
X75225Y107385D01*
X74862Y107234D01*
X74526Y107029D01*
X74227Y106773D01*
X73971Y106474D01*
X73766Y106139D01*
X73615Y105775D01*
X73523Y105392D01*
X73492Y105000D01*
X73523Y104608D01*
X73615Y104225D01*
X73766Y103861D01*
X73971Y103526D01*
X74227Y103227D01*
X74526Y102971D01*
X74862Y102766D01*
X75225Y102615D01*
X75608Y102523D01*
X76000Y102492D01*
X76392Y102523D01*
X76775Y102615D01*
X77139Y102766D01*
X77474Y102971D01*
X77773Y103227D01*
X78029Y103526D01*
X78234Y103861D01*
X78385Y104225D01*
X78477Y104608D01*
X78508Y105000D01*
X78477Y105392D01*
X78385Y105775D01*
X78234Y106139D01*
X78029Y106474D01*
X77773Y106773D01*
X77474Y107029D01*
X77139Y107234D01*
X76775Y107385D01*
X76392Y107477D01*
X76000Y107508D01*
D02*
G37*
G36*
X13500Y63008D02*
X13108Y62977D01*
X12725Y62885D01*
X12361Y62734D01*
X12026Y62529D01*
X11727Y62273D01*
X11471Y61974D01*
X11266Y61638D01*
X11115Y61275D01*
X11051Y61010D01*
X10949D01*
X10885Y61275D01*
X10734Y61638D01*
X10529Y61974D01*
X10273Y62273D01*
X9974Y62529D01*
X9639Y62734D01*
X9275Y62885D01*
X8892Y62977D01*
X8500Y63008D01*
X8108Y62977D01*
X7725Y62885D01*
X7361Y62734D01*
X7026Y62529D01*
X6727Y62273D01*
X6471Y61974D01*
X6266Y61638D01*
X6115Y61275D01*
X6051Y61010D01*
X5949D01*
X5885Y61275D01*
X5734Y61638D01*
X5529Y61974D01*
X5273Y62273D01*
X4974Y62529D01*
X4639Y62734D01*
X4275Y62885D01*
X3892Y62977D01*
X3500Y63008D01*
X3108Y62977D01*
X2725Y62885D01*
X2362Y62734D01*
X2026Y62529D01*
X1727Y62273D01*
X1471Y61974D01*
X1266Y61638D01*
X1115Y61275D01*
X1023Y60892D01*
X992Y60500D01*
X1023Y60108D01*
X1115Y59725D01*
X1266Y59361D01*
X1471Y59026D01*
X1727Y58727D01*
X2026Y58471D01*
X2362Y58266D01*
X2725Y58115D01*
X3108Y58023D01*
X3500Y57992D01*
X3892Y58023D01*
X4275Y58115D01*
X4639Y58266D01*
X4974Y58471D01*
X5273Y58727D01*
X5529Y59026D01*
X5734Y59361D01*
X5885Y59725D01*
X5949Y59990D01*
X6051D01*
X6115Y59725D01*
X6266Y59361D01*
X6471Y59026D01*
X6727Y58727D01*
X7026Y58471D01*
X7361Y58266D01*
X7725Y58115D01*
X8108Y58023D01*
X8500Y57992D01*
X8892Y58023D01*
X9275Y58115D01*
X9639Y58266D01*
X9974Y58471D01*
X10273Y58727D01*
X10529Y59026D01*
X10734Y59361D01*
X10885Y59725D01*
X10949Y59990D01*
X11051D01*
X11115Y59725D01*
X11266Y59361D01*
X11471Y59026D01*
X11727Y58727D01*
X12026Y58471D01*
X12361Y58266D01*
X12725Y58115D01*
X13108Y58023D01*
X13500Y57992D01*
X13892Y58023D01*
X14275Y58115D01*
X14638Y58266D01*
X14974Y58471D01*
X15273Y58727D01*
X15529Y59026D01*
X15734Y59361D01*
X15885Y59725D01*
X15977Y60108D01*
X16008Y60500D01*
X15977Y60892D01*
X15885Y61275D01*
X15734Y61638D01*
X15529Y61974D01*
X15273Y62273D01*
X14974Y62529D01*
X14638Y62734D01*
X14275Y62885D01*
X13892Y62977D01*
X13500Y63008D01*
D02*
G37*
G36*
X76000Y55508D02*
X75608Y55477D01*
X75225Y55385D01*
X74862Y55234D01*
X74526Y55029D01*
X74227Y54773D01*
X73971Y54474D01*
X73766Y54138D01*
X73615Y53775D01*
X73523Y53392D01*
X73492Y53000D01*
X73523Y52608D01*
X73615Y52225D01*
X73766Y51862D01*
X73971Y51526D01*
X74227Y51227D01*
X74526Y50971D01*
X74862Y50766D01*
X75225Y50615D01*
X75608Y50523D01*
X76000Y50492D01*
X76392Y50523D01*
X76775Y50615D01*
X77139Y50766D01*
X77474Y50971D01*
X77773Y51227D01*
X78029Y51526D01*
X78234Y51862D01*
X78385Y52225D01*
X78477Y52608D01*
X78508Y53000D01*
X78477Y53392D01*
X78385Y53775D01*
X78234Y54138D01*
X78029Y54474D01*
X77773Y54773D01*
X77474Y55029D01*
X77139Y55234D01*
X76775Y55385D01*
X76392Y55477D01*
X76000Y55508D01*
D02*
G37*
G36*
X-11000D02*
X-11392Y55477D01*
X-11775Y55385D01*
X-12139Y55234D01*
X-12474Y55029D01*
X-12773Y54773D01*
X-13029Y54474D01*
X-13234Y54138D01*
X-13385Y53775D01*
X-13477Y53392D01*
X-13508Y53000D01*
X-13477Y52608D01*
X-13385Y52225D01*
X-13234Y51862D01*
X-13029Y51526D01*
X-12773Y51227D01*
X-12474Y50971D01*
X-12139Y50766D01*
X-11775Y50615D01*
X-11392Y50523D01*
X-11000Y50492D01*
X-10608Y50523D01*
X-10225Y50615D01*
X-9861Y50766D01*
X-9526Y50971D01*
X-9227Y51227D01*
X-8971Y51526D01*
X-8766Y51862D01*
X-8615Y52225D01*
X-8523Y52608D01*
X-8492Y53000D01*
X-8523Y53392D01*
X-8615Y53775D01*
X-8766Y54138D01*
X-8971Y54474D01*
X-9227Y54773D01*
X-9526Y55029D01*
X-9861Y55234D01*
X-10225Y55385D01*
X-10608Y55477D01*
X-11000Y55508D01*
D02*
G37*
G36*
X-82000D02*
X-82392Y55477D01*
X-82775Y55385D01*
X-83139Y55234D01*
X-83474Y55029D01*
X-83773Y54773D01*
X-84029Y54474D01*
X-84234Y54138D01*
X-84385Y53775D01*
X-84477Y53392D01*
X-84508Y53000D01*
X-84477Y52608D01*
X-84385Y52225D01*
X-84234Y51862D01*
X-84029Y51526D01*
X-83773Y51227D01*
X-83474Y50971D01*
X-83139Y50766D01*
X-82775Y50615D01*
X-82392Y50523D01*
X-82000Y50492D01*
X-81608Y50523D01*
X-81225Y50615D01*
X-80862Y50766D01*
X-80526Y50971D01*
X-80227Y51227D01*
X-79971Y51526D01*
X-79766Y51862D01*
X-79615Y52225D01*
X-79523Y52608D01*
X-79492Y53000D01*
X-79523Y53392D01*
X-79615Y53775D01*
X-79766Y54138D01*
X-79971Y54474D01*
X-80227Y54773D01*
X-80526Y55029D01*
X-80862Y55234D01*
X-81225Y55385D01*
X-81608Y55477D01*
X-82000Y55508D01*
D02*
G37*
G36*
X-91272D02*
X-91664Y55477D01*
X-92047Y55385D01*
X-92410Y55234D01*
X-92746Y55029D01*
X-93045Y54773D01*
X-93300Y54474D01*
X-93506Y54138D01*
X-93657Y53775D01*
X-93748Y53392D01*
X-93779Y53000D01*
X-93748Y52608D01*
X-93657Y52225D01*
X-93506Y51862D01*
X-93300Y51526D01*
X-93045Y51227D01*
X-92746Y50971D01*
X-92410Y50766D01*
X-92047Y50615D01*
X-91664Y50523D01*
X-91272Y50492D01*
X-90879Y50523D01*
X-90497Y50615D01*
X-90133Y50766D01*
X-89798Y50971D01*
X-89498Y51227D01*
X-89243Y51526D01*
X-89037Y51862D01*
X-88887Y52225D01*
X-88795Y52608D01*
X-88764Y53000D01*
X-88795Y53392D01*
X-88887Y53775D01*
X-89037Y54138D01*
X-89243Y54474D01*
X-89498Y54773D01*
X-89798Y55029D01*
X-90133Y55234D01*
X-90497Y55385D01*
X-90879Y55477D01*
X-91272Y55508D01*
D02*
G37*
G36*
X13500Y48008D02*
X13108Y47977D01*
X12725Y47885D01*
X12361Y47734D01*
X12026Y47529D01*
X11727Y47273D01*
X11471Y46974D01*
X11266Y46639D01*
X11115Y46275D01*
X11051Y46010D01*
X10949D01*
X10885Y46275D01*
X10734Y46639D01*
X10529Y46974D01*
X10273Y47273D01*
X9974Y47529D01*
X9639Y47734D01*
X9275Y47885D01*
X8892Y47977D01*
X8500Y48008D01*
X8108Y47977D01*
X7725Y47885D01*
X7361Y47734D01*
X7026Y47529D01*
X6727Y47273D01*
X6471Y46974D01*
X6266Y46639D01*
X6115Y46275D01*
X6051Y46010D01*
X5949D01*
X5885Y46275D01*
X5734Y46639D01*
X5529Y46974D01*
X5273Y47273D01*
X4974Y47529D01*
X4639Y47734D01*
X4275Y47885D01*
X3892Y47977D01*
X3500Y48008D01*
X3108Y47977D01*
X2725Y47885D01*
X2362Y47734D01*
X2026Y47529D01*
X1727Y47273D01*
X1471Y46974D01*
X1266Y46639D01*
X1115Y46275D01*
X1023Y45892D01*
X992Y45500D01*
X1023Y45108D01*
X1115Y44725D01*
X1266Y44361D01*
X1471Y44026D01*
X1727Y43727D01*
X2026Y43471D01*
X2362Y43266D01*
X2725Y43115D01*
X3108Y43023D01*
X3500Y42992D01*
X3892Y43023D01*
X4275Y43115D01*
X4639Y43266D01*
X4974Y43471D01*
X5273Y43727D01*
X5529Y44026D01*
X5734Y44361D01*
X5885Y44725D01*
X5949Y44990D01*
X6051D01*
X6115Y44725D01*
X6266Y44361D01*
X6471Y44026D01*
X6727Y43727D01*
X7026Y43471D01*
X7361Y43266D01*
X7725Y43115D01*
X8108Y43023D01*
X8500Y42992D01*
X8892Y43023D01*
X9275Y43115D01*
X9639Y43266D01*
X9974Y43471D01*
X10273Y43727D01*
X10529Y44026D01*
X10734Y44361D01*
X10885Y44725D01*
X10949Y44990D01*
X11051D01*
X11115Y44725D01*
X11266Y44361D01*
X11471Y44026D01*
X11727Y43727D01*
X12026Y43471D01*
X12361Y43266D01*
X12725Y43115D01*
X13108Y43023D01*
X13500Y42992D01*
X13892Y43023D01*
X14275Y43115D01*
X14638Y43266D01*
X14974Y43471D01*
X15273Y43727D01*
X15529Y44026D01*
X15734Y44361D01*
X15885Y44725D01*
X15977Y45108D01*
X16008Y45500D01*
X15977Y45892D01*
X15885Y46275D01*
X15734Y46639D01*
X15529Y46974D01*
X15273Y47273D01*
X14974Y47529D01*
X14638Y47734D01*
X14275Y47885D01*
X13892Y47977D01*
X13500Y48008D01*
D02*
G37*
G36*
X77000Y21508D02*
X76608Y21477D01*
X76225Y21385D01*
X75862Y21234D01*
X75526Y21029D01*
X75227Y20773D01*
X74971Y20474D01*
X74766Y20139D01*
X74615Y19775D01*
X74523Y19392D01*
X74492Y19000D01*
X74523Y18608D01*
X74615Y18225D01*
X74766Y17862D01*
X74971Y17526D01*
X75227Y17227D01*
X75526Y16971D01*
X75862Y16766D01*
X76225Y16615D01*
X76608Y16523D01*
X77000Y16492D01*
X77392Y16523D01*
X77775Y16615D01*
X78139Y16766D01*
X78474Y16971D01*
X78773Y17227D01*
X79029Y17526D01*
X79234Y17862D01*
X79385Y18225D01*
X79477Y18608D01*
X79508Y19000D01*
X79477Y19392D01*
X79385Y19775D01*
X79234Y20139D01*
X79029Y20474D01*
X78773Y20773D01*
X78474Y21029D01*
X78139Y21234D01*
X77775Y21385D01*
X77392Y21477D01*
X77000Y21508D01*
D02*
G37*
G36*
X94000Y8708D02*
X93667Y8675D01*
X93346Y8578D01*
X93051Y8420D01*
X92792Y8208D01*
X92580Y7949D01*
X92422Y7654D01*
X92325Y7333D01*
X92292Y7000D01*
X92325Y6667D01*
X92422Y6346D01*
X92580Y6051D01*
X92792Y5792D01*
X93051Y5580D01*
X93346Y5422D01*
X93667Y5325D01*
X94000Y5292D01*
X94333Y5325D01*
X94654Y5422D01*
X94949Y5580D01*
X95208Y5792D01*
X95420Y6051D01*
X95578Y6346D01*
X95675Y6667D01*
X95708Y7000D01*
X95675Y7333D01*
X95578Y7654D01*
X95420Y7949D01*
X95208Y8208D01*
X94949Y8420D01*
X94654Y8578D01*
X94333Y8675D01*
X94000Y8708D01*
D02*
G37*
G36*
X76000Y3508D02*
X75608Y3477D01*
X75225Y3385D01*
X74862Y3234D01*
X74526Y3029D01*
X74227Y2773D01*
X73971Y2474D01*
X73766Y2138D01*
X73615Y1775D01*
X73523Y1392D01*
X73492Y1000D01*
X73523Y608D01*
X73615Y225D01*
X73766Y-138D01*
X73971Y-474D01*
X74227Y-773D01*
X74526Y-1029D01*
X74862Y-1234D01*
X75225Y-1385D01*
X75608Y-1477D01*
X76000Y-1508D01*
X76392Y-1477D01*
X76775Y-1385D01*
X77139Y-1234D01*
X77474Y-1029D01*
X77773Y-773D01*
X78029Y-474D01*
X78234Y-138D01*
X78385Y225D01*
X78477Y608D01*
X78508Y1000D01*
X78477Y1392D01*
X78385Y1775D01*
X78234Y2138D01*
X78029Y2474D01*
X77773Y2773D01*
X77474Y3029D01*
X77139Y3234D01*
X76775Y3385D01*
X76392Y3477D01*
X76000Y3508D01*
D02*
G37*
G36*
X94000Y-43292D02*
X93667Y-43325D01*
X93346Y-43422D01*
X93051Y-43580D01*
X92792Y-43792D01*
X92580Y-44051D01*
X92422Y-44346D01*
X92325Y-44667D01*
X92292Y-45000D01*
X92325Y-45333D01*
X92422Y-45654D01*
X92580Y-45949D01*
X92792Y-46208D01*
X93051Y-46420D01*
X93346Y-46578D01*
X93667Y-46675D01*
X94000Y-46708D01*
X94333Y-46675D01*
X94654Y-46578D01*
X94949Y-46420D01*
X95208Y-46208D01*
X95420Y-45949D01*
X95578Y-45654D01*
X95675Y-45333D01*
X95708Y-45000D01*
X95675Y-44667D01*
X95578Y-44346D01*
X95420Y-44051D01*
X95208Y-43792D01*
X94949Y-43580D01*
X94654Y-43422D01*
X94333Y-43325D01*
X94000Y-43292D01*
D02*
G37*
G36*
X-181000Y-179681D02*
X-182256D01*
Y-180445D01*
X-181000D01*
Y-179681D01*
D02*
G37*
G36*
Y-184445D02*
X-182256D01*
Y-185209D01*
X-181000D01*
Y-184445D01*
D02*
G37*
G36*
X-183185Y-188807D02*
X-187100D01*
Y-189376D01*
X-183185D01*
Y-188807D01*
D02*
G37*
G36*
X-190900D02*
X-194815D01*
Y-189376D01*
X-190900D01*
Y-188807D01*
D02*
G37*
G36*
X-178890Y-188216D02*
X-179421D01*
Y-189535D01*
X-178890D01*
Y-188216D01*
D02*
G37*
G36*
Y-191835D02*
X-179421D01*
Y-193154D01*
X-178890D01*
Y-191835D01*
D02*
G37*
G36*
X-183185Y-193176D02*
X-187100D01*
Y-193744D01*
X-183185D01*
Y-193176D01*
D02*
G37*
G36*
X-190900D02*
X-194815D01*
Y-193744D01*
X-190900D01*
Y-193176D01*
D02*
G37*
G36*
X-183185Y-198256D02*
X-187100D01*
Y-198824D01*
X-183185D01*
Y-198256D01*
D02*
G37*
G36*
X-190900D02*
X-194815D01*
Y-198824D01*
X-190900D01*
Y-198256D01*
D02*
G37*
G36*
X-178890Y-198846D02*
X-179421D01*
Y-200165D01*
X-178890D01*
Y-198846D01*
D02*
G37*
G36*
X-183185Y-202624D02*
X-187100D01*
Y-203193D01*
X-183185D01*
Y-202624D01*
D02*
G37*
G36*
X-190900D02*
X-194815D01*
Y-203193D01*
X-190900D01*
Y-202624D01*
D02*
G37*
G36*
X-178890Y-202465D02*
X-179421D01*
Y-203783D01*
X-178890D01*
Y-202465D01*
D02*
G37*
%LPD*%
D13*
X155996Y95000D02*
D03*
X168004D02*
D03*
X-157004Y-149000D02*
D03*
X-144996D02*
D03*
X-213996Y-93000D02*
D03*
X-226004D02*
D03*
X-225996Y28000D02*
D03*
X-238004D02*
D03*
X-225996Y5000D02*
D03*
X-238004D02*
D03*
X-112004Y183000D02*
D03*
X-99996D02*
D03*
D14*
X174000Y-169949D02*
D03*
Y-176051D02*
D03*
X202000Y35949D02*
D03*
Y42051D02*
D03*
X240000Y35949D02*
D03*
Y42051D02*
D03*
Y25051D02*
D03*
Y18949D02*
D03*
Y-21949D02*
D03*
Y-28051D02*
D03*
Y-11051D02*
D03*
Y-4949D02*
D03*
X202000Y-11051D02*
D03*
Y-4949D02*
D03*
X198500Y-90051D02*
D03*
Y-83949D02*
D03*
X204500Y-90051D02*
D03*
Y-83949D02*
D03*
X210500Y-90051D02*
D03*
Y-83949D02*
D03*
X216500Y-90051D02*
D03*
Y-83949D02*
D03*
X232969D02*
D03*
Y-90051D02*
D03*
X180200Y-176051D02*
D03*
Y-169949D02*
D03*
X186200Y-176051D02*
D03*
Y-169949D02*
D03*
X218749Y-176051D02*
D03*
Y-169949D02*
D03*
X120000Y-189949D02*
D03*
Y-196051D02*
D03*
X114000Y-189949D02*
D03*
Y-196051D02*
D03*
X108000Y-189949D02*
D03*
Y-196051D02*
D03*
X14000Y-180051D02*
D03*
Y-173949D02*
D03*
X-16000D02*
D03*
Y-180051D02*
D03*
X-247000Y66949D02*
D03*
Y73051D02*
D03*
X-200000Y9051D02*
D03*
Y2949D02*
D03*
X-183000Y51949D02*
D03*
Y58051D02*
D03*
X-189000D02*
D03*
Y51949D02*
D03*
X-3000Y199051D02*
D03*
Y192949D02*
D03*
X-9000Y199051D02*
D03*
Y192949D02*
D03*
X-15000Y199051D02*
D03*
Y192949D02*
D03*
X-21000Y199051D02*
D03*
Y192949D02*
D03*
X-15000Y237051D02*
D03*
Y230949D02*
D03*
X-21000D02*
D03*
Y237051D02*
D03*
X-27000D02*
D03*
Y230949D02*
D03*
X-33000D02*
D03*
Y237051D02*
D03*
X-39000Y230949D02*
D03*
Y237051D02*
D03*
X-45000Y230949D02*
D03*
Y237051D02*
D03*
X-180000Y188949D02*
D03*
Y195051D02*
D03*
X-188000Y188949D02*
D03*
Y195051D02*
D03*
X-196000Y188949D02*
D03*
Y195051D02*
D03*
X-204000Y188949D02*
D03*
Y195051D02*
D03*
X-212000Y188949D02*
D03*
Y195051D02*
D03*
X-220000Y188949D02*
D03*
Y195051D02*
D03*
D15*
X-189898Y241244D02*
D03*
Y246756D02*
D03*
X-202102Y241244D02*
D03*
Y246756D02*
D03*
D16*
X-123500Y195417D02*
D03*
Y182583D02*
D03*
X-144000Y195417D02*
D03*
Y182583D02*
D03*
D17*
X64657Y-19138D02*
D03*
Y-23272D02*
D03*
X59342D02*
D03*
Y-19138D02*
D03*
X-46657Y192067D02*
D03*
Y187933D02*
D03*
X-41342D02*
D03*
Y192067D02*
D03*
D18*
X231728Y-21500D02*
D03*
Y-16500D02*
D03*
Y-11500D02*
D03*
Y-6500D02*
D03*
X210272Y-21500D02*
D03*
Y-16500D02*
D03*
Y-11500D02*
D03*
Y-6500D02*
D03*
Y40500D02*
D03*
Y35500D02*
D03*
Y30500D02*
D03*
Y25500D02*
D03*
X231728Y40500D02*
D03*
Y35500D02*
D03*
Y30500D02*
D03*
Y25500D02*
D03*
D19*
X-41000Y180100D02*
D03*
Y173900D02*
D03*
X-47000Y180100D02*
D03*
Y173900D02*
D03*
X-36480Y31201D02*
D03*
Y25000D02*
D03*
X-30543D02*
D03*
Y31201D02*
D03*
X-14827D02*
D03*
Y25000D02*
D03*
X4858Y31201D02*
D03*
Y25000D02*
D03*
X30449Y24900D02*
D03*
Y31100D02*
D03*
Y-101201D02*
D03*
Y-95000D02*
D03*
X4858Y-101201D02*
D03*
Y-95000D02*
D03*
X-14827Y-101201D02*
D03*
Y-95000D02*
D03*
X-40417Y-101201D02*
D03*
Y-95000D02*
D03*
X164000Y181900D02*
D03*
Y188100D02*
D03*
X145000Y181900D02*
D03*
Y188100D02*
D03*
X211000Y118100D02*
D03*
Y111900D02*
D03*
X170000Y118100D02*
D03*
Y111900D02*
D03*
X154000Y118100D02*
D03*
Y111900D02*
D03*
X136000Y118100D02*
D03*
Y111900D02*
D03*
X128000Y118100D02*
D03*
Y111900D02*
D03*
X202000Y25100D02*
D03*
Y18900D02*
D03*
X195000Y25100D02*
D03*
Y18900D02*
D03*
X202000Y-21900D02*
D03*
Y-28100D02*
D03*
X195000Y-21900D02*
D03*
Y-28100D02*
D03*
X161000Y-115900D02*
D03*
Y-122100D02*
D03*
X148000Y-148100D02*
D03*
Y-141900D02*
D03*
X-200000Y16900D02*
D03*
Y23100D02*
D03*
X-27000Y199100D02*
D03*
Y192900D02*
D03*
X-33000Y199100D02*
D03*
Y192900D02*
D03*
X-15000Y211900D02*
D03*
Y218100D02*
D03*
X-21000Y211900D02*
D03*
Y218100D02*
D03*
X-27000Y211900D02*
D03*
Y218100D02*
D03*
D20*
X155441Y-143032D02*
D03*
Y-146968D02*
D03*
X160559D02*
D03*
Y-143032D02*
D03*
D21*
X-63900Y-69000D02*
D03*
X-70100D02*
D03*
Y-63000D02*
D03*
X-63900D02*
D03*
X-70201Y-41890D02*
D03*
X-64000D02*
D03*
Y-35795D02*
D03*
X-70201D02*
D03*
Y-20236D02*
D03*
X-64000D02*
D03*
X-70201Y4386D02*
D03*
X-64000D02*
D03*
X62201Y-551D02*
D03*
X56000D02*
D03*
X62201Y-8425D02*
D03*
X56000D02*
D03*
X80100Y-18000D02*
D03*
X73900D02*
D03*
X80100Y-24000D02*
D03*
X73900D02*
D03*
X62201Y-36016D02*
D03*
X56000D02*
D03*
X62201Y-48764D02*
D03*
X56000D02*
D03*
X75100Y-56047D02*
D03*
X68900D02*
D03*
X75100Y-61953D02*
D03*
X68900D02*
D03*
X62201Y-69480D02*
D03*
X56000D02*
D03*
X185600Y-83000D02*
D03*
X179400D02*
D03*
X185600Y-90000D02*
D03*
X179400D02*
D03*
X101100Y-190000D02*
D03*
X94900D02*
D03*
Y-196000D02*
D03*
X101100D02*
D03*
X20100Y-189000D02*
D03*
X13900D02*
D03*
X20100Y-197000D02*
D03*
X13900D02*
D03*
X-22100Y-189000D02*
D03*
X-15900D02*
D03*
X-131100Y-205000D02*
D03*
X-124900D02*
D03*
X-231900Y67000D02*
D03*
X-238100D02*
D03*
X-231900Y74000D02*
D03*
X-238100D02*
D03*
X-231900Y43000D02*
D03*
X-238100D02*
D03*
X-59900Y237000D02*
D03*
X-66100D02*
D03*
X-59900Y231000D02*
D03*
X-66100D02*
D03*
X-59900Y225000D02*
D03*
X-66100D02*
D03*
Y198949D02*
D03*
X-59900D02*
D03*
Y192949D02*
D03*
X-66100D02*
D03*
X-59900Y187000D02*
D03*
X-66100D02*
D03*
X-145000Y138400D02*
D03*
X-138799D02*
D03*
D22*
X46000Y-75354D02*
D03*
Y-12362D02*
D03*
Y-10394D02*
D03*
X-54000Y7323D02*
D03*
Y-75354D02*
D03*
Y-73386D02*
D03*
Y-71417D02*
D03*
Y-69449D02*
D03*
Y-67480D02*
D03*
Y-65512D02*
D03*
Y-63543D02*
D03*
Y-61575D02*
D03*
Y-59606D02*
D03*
Y-57638D02*
D03*
Y-55669D02*
D03*
Y-53701D02*
D03*
Y-51732D02*
D03*
Y-49764D02*
D03*
Y-47795D02*
D03*
Y-45827D02*
D03*
Y-43858D02*
D03*
Y-41890D02*
D03*
Y-39921D02*
D03*
Y-37953D02*
D03*
Y-35984D02*
D03*
Y-34016D02*
D03*
Y-32047D02*
D03*
Y-30079D02*
D03*
Y-28110D02*
D03*
Y-26142D02*
D03*
Y-24173D02*
D03*
Y-22205D02*
D03*
Y-20236D02*
D03*
Y-18268D02*
D03*
Y-16299D02*
D03*
Y-14331D02*
D03*
Y-12362D02*
D03*
Y-10394D02*
D03*
Y-8425D02*
D03*
Y-6457D02*
D03*
Y-4488D02*
D03*
Y-2520D02*
D03*
Y-551D02*
D03*
Y1417D02*
D03*
Y3386D02*
D03*
Y5354D02*
D03*
X46000Y7323D02*
D03*
Y5354D02*
D03*
Y3386D02*
D03*
Y1417D02*
D03*
Y-551D02*
D03*
Y-2520D02*
D03*
Y-4488D02*
D03*
Y-6457D02*
D03*
Y-8425D02*
D03*
Y-14331D02*
D03*
Y-16299D02*
D03*
Y-18268D02*
D03*
Y-20236D02*
D03*
Y-22205D02*
D03*
Y-24173D02*
D03*
Y-26142D02*
D03*
Y-28110D02*
D03*
Y-30079D02*
D03*
Y-32047D02*
D03*
Y-34016D02*
D03*
Y-35984D02*
D03*
Y-37953D02*
D03*
Y-39921D02*
D03*
Y-41890D02*
D03*
Y-43858D02*
D03*
Y-45827D02*
D03*
Y-47795D02*
D03*
Y-49764D02*
D03*
Y-51732D02*
D03*
Y-53701D02*
D03*
Y-55669D02*
D03*
Y-57638D02*
D03*
Y-59606D02*
D03*
Y-61575D02*
D03*
Y-63543D02*
D03*
Y-65512D02*
D03*
Y-67480D02*
D03*
Y-69449D02*
D03*
Y-71417D02*
D03*
Y-73386D02*
D03*
Y-77323D02*
D03*
X-54000D02*
D03*
D23*
X-1047Y-85000D02*
D03*
X12732Y15000D02*
D03*
X38323Y-85000D02*
D03*
X36354D02*
D03*
X34386D02*
D03*
X32417D02*
D03*
X30449D02*
D03*
X28480D02*
D03*
X26512D02*
D03*
X24543D02*
D03*
X22575D02*
D03*
X20606D02*
D03*
X18638D02*
D03*
X16669D02*
D03*
X14701D02*
D03*
X12732D02*
D03*
X10764D02*
D03*
X8795D02*
D03*
X6827D02*
D03*
X4858D02*
D03*
X2890D02*
D03*
X921D02*
D03*
X-3016D02*
D03*
X-4984D02*
D03*
X-6953D02*
D03*
X-8921D02*
D03*
X-10890D02*
D03*
X-12858D02*
D03*
X-14827D02*
D03*
X-16795D02*
D03*
X-18764D02*
D03*
X-20732D02*
D03*
X-22701D02*
D03*
X-24669D02*
D03*
X-26638D02*
D03*
X-28606D02*
D03*
X-30575D02*
D03*
X-32543D02*
D03*
X-34512D02*
D03*
X-36480D02*
D03*
X-38449D02*
D03*
X-40417D02*
D03*
X-42386D02*
D03*
X-44354D02*
D03*
X-46323D02*
D03*
Y15000D02*
D03*
X-44354D02*
D03*
X-42386D02*
D03*
X-40417D02*
D03*
X-38449D02*
D03*
X-36480D02*
D03*
X-34512D02*
D03*
X-32543D02*
D03*
X-30575D02*
D03*
X-28606D02*
D03*
X-26638D02*
D03*
X-24669D02*
D03*
X-22701D02*
D03*
X-20732D02*
D03*
X-18764D02*
D03*
X-16795D02*
D03*
X-14827D02*
D03*
X-12858D02*
D03*
X-10890D02*
D03*
X-8921D02*
D03*
X-6953D02*
D03*
X-4984D02*
D03*
X-3016D02*
D03*
X-1047D02*
D03*
X921D02*
D03*
X2890D02*
D03*
X4858D02*
D03*
X6827D02*
D03*
X8795D02*
D03*
X10764D02*
D03*
X14701D02*
D03*
X16669D02*
D03*
X18638D02*
D03*
X20606D02*
D03*
X22575D02*
D03*
X24543D02*
D03*
X26512D02*
D03*
X28480D02*
D03*
X30449D02*
D03*
X32417D02*
D03*
X34386D02*
D03*
X36354D02*
D03*
X38323D02*
D03*
D24*
X60000Y-56094D02*
D03*
Y-62000D02*
D03*
D25*
X210945Y172638D02*
D03*
X207795D02*
D03*
X204646D02*
D03*
X201496D02*
D03*
X198346D02*
D03*
X195197D02*
D03*
X192047D02*
D03*
X188898D02*
D03*
X185748D02*
D03*
X182598D02*
D03*
X179449D02*
D03*
X176299D02*
D03*
X173150D02*
D03*
X170000D02*
D03*
X166850D02*
D03*
X163701D02*
D03*
X160551D02*
D03*
X157402D02*
D03*
X154252D02*
D03*
X151102D02*
D03*
X147953D02*
D03*
X144803D02*
D03*
X141654D02*
D03*
X138504D02*
D03*
X135354D02*
D03*
X132205D02*
D03*
X129055D02*
D03*
X210945Y127362D02*
D03*
X207795D02*
D03*
X204646D02*
D03*
X201496D02*
D03*
X198346D02*
D03*
X195197D02*
D03*
X192047D02*
D03*
X188898D02*
D03*
X185748D02*
D03*
X182598D02*
D03*
X179449D02*
D03*
X176299D02*
D03*
X173150D02*
D03*
X170000D02*
D03*
X166850D02*
D03*
X163701D02*
D03*
X160551D02*
D03*
X157402D02*
D03*
X154252D02*
D03*
X151102D02*
D03*
X147953D02*
D03*
X144803D02*
D03*
X141654D02*
D03*
X138504D02*
D03*
X135354D02*
D03*
X132205D02*
D03*
X129055D02*
D03*
D26*
X232969Y-159189D02*
D03*
X228229D02*
D03*
X223489D02*
D03*
X214009D02*
D03*
X209268D02*
D03*
X204528D02*
D03*
X199788D02*
D03*
X195048D02*
D03*
X190308D02*
D03*
X237709Y-101189D02*
D03*
X228229D02*
D03*
X223489D02*
D03*
X218749D02*
D03*
X214009D02*
D03*
X195048D02*
D03*
X190308D02*
D03*
X185568D02*
D03*
X180828D02*
D03*
X199788D02*
D03*
X204528D02*
D03*
X218749Y-159189D02*
D03*
X185568D02*
D03*
X180828D02*
D03*
X209268Y-101189D02*
D03*
X232969D02*
D03*
D27*
X173013Y-144407D02*
D03*
Y-139667D02*
D03*
Y-134927D02*
D03*
Y-125447D02*
D03*
Y-120707D02*
D03*
Y-115966D02*
D03*
Y-111226D02*
D03*
Y-106486D02*
D03*
Y-153888D02*
D03*
Y-149148D02*
D03*
Y-130187D02*
D03*
D28*
X151000Y-122004D02*
D03*
Y-109996D02*
D03*
D29*
X154949Y-130000D02*
D03*
X161051D02*
D03*
X154949Y-136000D02*
D03*
X161051D02*
D03*
X154949Y-154000D02*
D03*
X161051D02*
D03*
X154949Y-160000D02*
D03*
X161051D02*
D03*
X90051Y-223000D02*
D03*
X83949D02*
D03*
X90051Y-231000D02*
D03*
X83949D02*
D03*
X6949Y-226000D02*
D03*
X13051D02*
D03*
X20949D02*
D03*
X27051D02*
D03*
X-15051D02*
D03*
X-8949D02*
D03*
X-29051D02*
D03*
X-22949D02*
D03*
X-15051Y-204000D02*
D03*
X-8949D02*
D03*
X1949Y-163000D02*
D03*
X8051D02*
D03*
X-10051D02*
D03*
X-3949D02*
D03*
X20949Y-204000D02*
D03*
X27051D02*
D03*
X-177051Y-209000D02*
D03*
X-170949D02*
D03*
X-208949Y3000D02*
D03*
X-215051D02*
D03*
Y-3000D02*
D03*
X-208949D02*
D03*
X-59949Y205000D02*
D03*
X-66051D02*
D03*
X-171000Y158400D02*
D03*
X-177102D02*
D03*
X-171000Y149400D02*
D03*
X-177102D02*
D03*
X-171000Y142400D02*
D03*
X-177102D02*
D03*
X-171000Y133400D02*
D03*
X-177102D02*
D03*
X-105000Y116000D02*
D03*
X-98898D02*
D03*
X-105000Y126000D02*
D03*
X-98898D02*
D03*
X-105000Y155800D02*
D03*
X-98898D02*
D03*
X-105000Y165800D02*
D03*
X-98898D02*
D03*
D30*
X103397Y-180354D02*
D03*
X109303D02*
D03*
X111271D02*
D03*
X107334D02*
D03*
X105366D02*
D03*
X101429D02*
D03*
D31*
X92041Y-173870D02*
D03*
X120659D02*
D03*
D32*
X77724Y-230740D02*
D03*
Y-223260D02*
D03*
X68276Y-227000D02*
D03*
X61724Y-230740D02*
D03*
X52276Y-227000D02*
D03*
X61724Y-223260D02*
D03*
X-206685Y16740D02*
D03*
Y13000D02*
D03*
Y9260D02*
D03*
X-217315D02*
D03*
Y13000D02*
D03*
Y16740D02*
D03*
X-209315Y58740D02*
D03*
Y55000D02*
D03*
Y51260D02*
D03*
X-198685D02*
D03*
Y55000D02*
D03*
Y58740D02*
D03*
D33*
X24000Y-219724D02*
D03*
X20260Y-210276D02*
D03*
X27740D02*
D03*
X10000Y-219724D02*
D03*
X6260Y-210276D02*
D03*
X13740D02*
D03*
X10000Y-241724D02*
D03*
X6260Y-232276D02*
D03*
X13740D02*
D03*
X-12000Y-219724D02*
D03*
X-15740Y-210276D02*
D03*
X-8260D02*
D03*
X-26000Y-219724D02*
D03*
X-29740Y-210276D02*
D03*
X-22260D02*
D03*
X-26000Y-241724D02*
D03*
X-29740Y-232276D02*
D03*
X-22260D02*
D03*
X24000Y-182724D02*
D03*
X20260Y-173276D02*
D03*
X27740D02*
D03*
X-22260D02*
D03*
X-29740D02*
D03*
X-26000Y-182724D02*
D03*
X-177740Y-201315D02*
D03*
X-174000D02*
D03*
X-170260D02*
D03*
Y-190685D02*
D03*
X-174000D02*
D03*
X-177740D02*
D03*
X-198740Y140685D02*
D03*
X-195000D02*
D03*
X-191260D02*
D03*
Y151315D02*
D03*
X-195000D02*
D03*
X-198740D02*
D03*
X-203740Y201276D02*
D03*
X-196260D02*
D03*
X-200000Y210724D02*
D03*
X-187740Y201276D02*
D03*
X-180260D02*
D03*
X-184000Y210724D02*
D03*
X-219740Y201276D02*
D03*
X-212260D02*
D03*
X-216000Y210724D02*
D03*
D34*
X6677Y-173386D02*
D03*
X4118D02*
D03*
X1559D02*
D03*
X-1000D02*
D03*
X-3559D02*
D03*
X-6118D02*
D03*
X-8677D02*
D03*
X6677Y-196614D02*
D03*
X4118D02*
D03*
X1559D02*
D03*
X-1000D02*
D03*
X-3559D02*
D03*
X-6118D02*
D03*
X-8677D02*
D03*
D35*
X-169000Y-175555D02*
D03*
Y-182445D02*
D03*
X-179000Y-175555D02*
D03*
Y-182445D02*
D03*
D36*
X-189000Y-191276D02*
D03*
Y-200724D02*
D03*
D37*
X-56114Y-193746D02*
D03*
X-58083D02*
D03*
X-60051D02*
D03*
X-62020D02*
D03*
X-63988D02*
D03*
X-65957D02*
D03*
X-67925D02*
D03*
X-69894D02*
D03*
X-71862D02*
D03*
X-73831D02*
D03*
X-75799D02*
D03*
X-77768D02*
D03*
X-79736D02*
D03*
X-81705D02*
D03*
X-83673D02*
D03*
X-85642D02*
D03*
X-87610D02*
D03*
X-89579D02*
D03*
X-91547D02*
D03*
X-93516D02*
D03*
X-95484D02*
D03*
X-97453D02*
D03*
X-99421D02*
D03*
X-101390D02*
D03*
X-103358D02*
D03*
X-105327D02*
D03*
X-107295D02*
D03*
X-109264D02*
D03*
X-111232D02*
D03*
X-113201D02*
D03*
X-115169D02*
D03*
X-117138D02*
D03*
X-119106D02*
D03*
X-121075D02*
D03*
X-123043D02*
D03*
X-125012D02*
D03*
X-126980D02*
D03*
X-128949D02*
D03*
X-130917D02*
D03*
X-132886D02*
D03*
D38*
X-49421Y-181541D02*
D03*
X-139579D02*
D03*
D39*
X-231260Y60413D02*
D03*
X-235000D02*
D03*
X-238740D02*
D03*
Y49587D02*
D03*
X-231260D02*
D03*
D40*
X-207276Y28000D02*
D03*
X-216724D02*
D03*
D41*
X-50921Y204323D02*
D03*
X-48953D02*
D03*
X-46984D02*
D03*
X-45016D02*
D03*
X-43047D02*
D03*
X-41079D02*
D03*
Y219677D02*
D03*
X-43047D02*
D03*
X-45016D02*
D03*
X-46984D02*
D03*
X-48953D02*
D03*
X-50921D02*
D03*
D42*
X-38323Y207079D02*
D03*
Y209047D02*
D03*
Y211016D02*
D03*
Y212984D02*
D03*
Y214953D02*
D03*
Y216921D02*
D03*
X-53677D02*
D03*
Y214953D02*
D03*
Y212984D02*
D03*
Y211016D02*
D03*
Y209047D02*
D03*
Y207079D02*
D03*
D43*
X-184000Y218390D02*
D03*
Y229610D02*
D03*
X-200000Y218390D02*
D03*
Y229610D02*
D03*
X-216000Y218390D02*
D03*
Y229610D02*
D03*
D91*
X-42850Y208850D02*
D03*
Y215150D02*
D03*
X-49150D02*
D03*
Y208850D02*
D03*
X-46000Y212000D02*
D03*
D92*
X-149402Y118902D02*
G03*
X-138997Y125842I-12136J29463D01*
G01*
X-138997Y125842D02*
G03*
X-138982Y125858I-561J570D01*
G01*
X-194318Y132901D02*
G03*
X-194318Y132875I800J-14D01*
G01*
X-194318Y132792D02*
G03*
X-178187Y116500I16145J-147D01*
G01*
X-116799Y135400D02*
G03*
X-138968Y125872I43J-30655D01*
G01*
X-194318Y132949D02*
G03*
X-194318Y132925I16138J-308D01*
G01*
X-194318Y132792D02*
G03*
X-194318Y132875I-3775J0D01*
G01*
X-161511Y115200D02*
G03*
X-138054Y124947I-26J33164D01*
G01*
X-161539Y116500D02*
G03*
X-149402Y118902I0J31868D01*
G01*
X-178179Y115200D02*
G03*
X-178172Y115200I7J17446D01*
G01*
X-195618Y132792D02*
G03*
X-178179Y115200I17445J-147D01*
G01*
X-138968Y125872D02*
G03*
X-138982Y125858I22212J-21127D01*
G01*
X-144303Y157965D02*
G03*
X-144307Y157968I-569J-562D01*
G01*
X-143387Y158887D02*
G03*
X-143390Y158890I-1485J-1485D01*
G01*
X-151139Y166639D02*
G03*
X-163599Y171800I-12460J-12460D01*
G01*
X-143382Y158882D02*
G03*
X-118800Y148700I24581J24579D01*
G01*
X-144298Y157960D02*
G03*
X-118806Y147400I25496J25499D01*
G01*
X-152041Y165703D02*
G03*
X-163623Y170500I-11581J-11581D01*
G01*
X-181772Y152228D02*
G03*
X-181776Y152224I1871J-1884D01*
G01*
X-179900Y153000D02*
G03*
X-181772Y152228I0J-2656D01*
G01*
X-188690Y147100D02*
G03*
X-185644Y148356I-0J4321D01*
G01*
D02*
G03*
X-185641Y148359I-3046J3065D01*
G01*
X-186124Y143924D02*
G03*
X-188689Y145000I-2576J-2547D01*
G01*
X-181297Y139097D02*
G03*
X-181304Y139104I-572J-559D01*
G01*
X-181296Y139096D02*
G03*
X-179846Y138500I1447J1458D01*
G01*
X-181175Y137449D02*
G03*
X-181126Y137429I1271J3120D01*
G01*
X-181557Y137633D02*
G03*
X-181175Y137449I1652J2936D01*
G01*
X-182412Y138312D02*
G03*
X-183897Y138312I-742J-742D01*
G01*
X-188258Y135437D02*
G03*
X-186773Y135437I742J742D01*
G01*
X-188258Y136922D02*
G03*
X-188258Y135437I742J-742D01*
G01*
X-185382Y139797D02*
G03*
X-185382Y141282I-742J742D01*
G01*
X-181126Y137429D02*
G03*
X-179905Y137200I1221J3140D01*
G01*
X-164700Y142400D02*
G03*
X-163700Y143400I0J1000D01*
G01*
X-182103Y153660D02*
G03*
X-182434Y153426I2196J-3447D01*
G01*
X-184687Y152698D02*
G03*
X-183202Y152698I742J742D01*
G01*
X-186933Y154944D02*
G03*
X-188418Y154944I-742J-742D01*
G01*
X-188418Y154944D02*
G03*
X-188418Y153459I742J-742D01*
G01*
X-186172Y149728D02*
G03*
X-186172Y151213I-742J742D01*
G01*
X-181128Y154113D02*
G03*
X-182103Y153660I1221J-3900D01*
G01*
X-180583Y154244D02*
G03*
X-181128Y154113I675J-4031D01*
G01*
X-179907Y154300D02*
G03*
X-180583Y154244I-0J-4087D01*
G01*
X-187935Y148503D02*
G03*
X-186652Y149249I-765J2794D01*
G01*
X-187164Y143064D02*
G03*
X-188700Y143700I-1536J-1536D01*
G01*
X-171000Y135600D02*
G03*
X-172600Y137200I-1600J0D01*
G01*
X-172700Y138500D02*
G03*
X-171000Y140200I0J1700D01*
G01*
X-66221Y210682D02*
G03*
X-81700Y195203I0J-15479D01*
G01*
X-107114Y135400D02*
G03*
X-81700Y160814I0J25414D01*
G01*
X-190460Y143700D02*
G03*
X-191260Y142900I0J-800D01*
G01*
X-192200Y136000D02*
G03*
X-191260Y138270I-2270J2270D01*
G01*
X-193658Y134542D02*
G03*
X-194318Y132949I1595J-1593D01*
G01*
X-66221Y209382D02*
G03*
X-80400Y195203I0J-14178D01*
G01*
X-107114Y134100D02*
G03*
X-80400Y160814I-0J26714D01*
G01*
X-196700Y145000D02*
G03*
X-198740Y142960I0J-2040D01*
G01*
X-195618Y132792D02*
G03*
X-196342Y134542I-2475J0D01*
G01*
X-198740Y138270D02*
G03*
X-197800Y136000I3210J0D01*
G01*
X-116767Y134100D02*
G03*
X-135232Y127556I18J-29375D01*
G01*
D02*
G03*
X-138054Y124947I18476J-22811D01*
G01*
X-193658Y134543D02*
G03*
X-193658Y134542I1594J-1594D01*
G01*
X-188700Y148400D02*
G03*
X-187935Y148503I0J2897D01*
G01*
X-172900Y154300D02*
G03*
X-171000Y156200I0J1900D01*
G01*
X-68620Y213318D02*
G03*
X-86000Y195939I0J-17380D01*
G01*
X-103191Y147400D02*
G03*
X-86000Y164591I0J17190D01*
G01*
X-183079Y170500D02*
G03*
X-194279Y159300I0J-11200D01*
G01*
Y158958D02*
G03*
X-193658Y157458I2120J0D01*
G01*
X-191260Y153730D02*
G03*
X-192200Y156000I-3210J0D01*
G01*
X-191260Y149200D02*
G03*
X-190460Y148400I800J0D01*
G01*
X-171000Y151600D02*
G03*
X-172400Y153000I-1400J0D01*
G01*
X-68620Y214618D02*
G03*
X-87300Y195939I0J-18680D01*
G01*
X-103191Y148700D02*
G03*
X-87300Y164591I0J15890D01*
G01*
X-183079Y171800D02*
G03*
X-195579Y159300I0J-12500D01*
G01*
X-196342Y157458D02*
G03*
X-195579Y159300I-1843J1842D01*
G01*
X-196343Y157457D02*
G03*
X-196342Y157458I-1843J1843D01*
G01*
X-197800Y156000D02*
G03*
X-198740Y153730I2270J-2270D01*
G01*
Y149040D02*
G03*
X-196800Y147100I1940J0D01*
G01*
X-138997Y125842D02*
X-138997Y125842D01*
X-178187Y116500D02*
X-161539Y116500D01*
X-178172Y115200D02*
X-161511Y115200D01*
X-194318Y132901D02*
X-194318Y132925D01*
X-194318Y132792D02*
X-194318D01*
X-144303Y157965D02*
X-144298Y157960D01*
X-151139Y166639D02*
X-143390Y158890D01*
X-143387Y158887D02*
X-143382Y158882D01*
X-152041Y165703D02*
X-144307Y157968D01*
X-118806Y147400D02*
X-103191D01*
X-183079Y171800D02*
X-163599D01*
X-183079Y170500D02*
X-163623D01*
X-185641Y148359D02*
X-181776Y152224D01*
X-179900Y153000D02*
X-172400D01*
X-181297Y139097D02*
X-181296Y139096D01*
X-179846Y138500D02*
X-179830Y138500D01*
X-172700D01*
X-186124Y143924D02*
X-181304Y139104D01*
X-196700Y145000D02*
X-188689D01*
X-182287Y138187D02*
X-181557Y137633D01*
X-182412Y138312D02*
X-182287Y138187D01*
X-182412Y138312D02*
X-182412Y138312D01*
X-186773Y135437D02*
X-183897Y138312D01*
X-188258Y136922D02*
Y136922D01*
X-185382Y139797D01*
X-186867Y142767D02*
X-185382Y141282D01*
X-187150Y143050D02*
X-186867Y142767D01*
X-179905Y137200D02*
X-172600D01*
X-196800Y147100D02*
X-188690D01*
X-182797Y153103D02*
X-182434Y153426D01*
X-183202Y152698D02*
X-182797Y153103D01*
X-184687Y152698D02*
X-184687Y152698D01*
X-186933Y154944D02*
X-184687Y152698D01*
X-186933Y154944D02*
X-186933Y154944D01*
X-188418Y154944D02*
X-188418Y154944D01*
X-188418Y153459D02*
X-188418Y153459D01*
X-186172Y151213D01*
X-186172Y149728D02*
X-186172Y149728D01*
X-186455Y149445D02*
X-186172Y149728D01*
X-181128Y154113D02*
X-181128D01*
X-181128Y154113D02*
Y154113D01*
X-186652Y149249D02*
X-186455Y149445D01*
X-180583Y154244D02*
X-180583Y154244D01*
X-187164Y143064D02*
X-187150Y143050D01*
X-171000Y133400D02*
Y135600D01*
Y140200D02*
Y142400D01*
X-66221Y210682D02*
X-56500D01*
X-81700Y160814D02*
Y195203D01*
X-116799Y135400D02*
X-107114D01*
X-190460Y143700D02*
X-188700D01*
X-191260Y140685D02*
Y142900D01*
X-193658Y134543D02*
X-192200Y136000D01*
X-66221Y209382D02*
X-56500D01*
X-80400Y160814D02*
Y195203D01*
X-107114Y134100D02*
X-107114D01*
X-116767Y134100D02*
X-107114Y134100D01*
X-198740Y140685D02*
Y142960D01*
Y138270D02*
Y140685D01*
X-197800Y136000D02*
X-196343Y134543D01*
X-171000Y142400D02*
X-170000Y143400D01*
X-163700D01*
X-54366Y209047D02*
X-53677Y209047D01*
X-56500Y209382D02*
X-54366Y209047D01*
X-171000Y133400D02*
X-163700D01*
X-54366Y211016D02*
X-53677Y211016D01*
X-56500Y210682D02*
X-54366Y211016D01*
X-191260Y138270D02*
Y140685D01*
X-179907Y154300D02*
X-172900D01*
X-68620Y213318D02*
X-56500D01*
X-86000Y164591D02*
Y195939D01*
X-194279Y158958D02*
Y159300D01*
X-193658Y157458D02*
X-192200Y156000D01*
X-190460Y148400D02*
X-188700D01*
X-191260Y151315D02*
Y153730D01*
X-191260Y149200D02*
Y151315D01*
X-171000Y149400D02*
Y151600D01*
X-68620Y214618D02*
X-56500D01*
X-87300Y164591D02*
Y195939D01*
X-118800Y148700D02*
X-103191D01*
X-196343Y157457D02*
X-196342Y157458D01*
X-197800Y156000D02*
X-196343Y157457D01*
X-198740Y151315D02*
Y153730D01*
Y149040D02*
Y151315D01*
X-170000Y148400D02*
X-153700D01*
X-171000Y149400D02*
X-170000Y148400D01*
X-54366Y214953D02*
X-53677Y214953D01*
X-56500Y214618D02*
X-54366Y214953D01*
X-171000Y158400D02*
X-153700D01*
X-171000Y156200D02*
Y158400D01*
X-54366Y212984D02*
X-53677Y212984D01*
X-56500Y213318D02*
X-54366Y212984D01*
D93*
X-111796Y-45204D02*
G03*
X-92967Y-53000I18853J18897D01*
G01*
X-112861Y-46260D02*
G03*
X-92962Y-54500I19918J19953D01*
G01*
X-204700Y50810D02*
G03*
X-200993Y41872I12657J11D01*
G01*
X-203200Y50806D02*
G03*
X-199943Y42943I11157J15D01*
G01*
X-66500Y-56000D02*
G03*
X-61980Y-57872I4519J4519D01*
G01*
X-66504Y-55996D02*
G03*
X-73737Y-53000I-7233J-7233D01*
G01*
X-198685Y61559D02*
G03*
X-208685Y71559I-10000J0D01*
G01*
X-200560Y58740D02*
G03*
X-203200Y56100I0J-2640D01*
G01*
X-67557Y-57065D02*
G03*
X-61986Y-59372I5571J5571D01*
G01*
X-67561Y-57061D02*
G03*
X-73743Y-54500I-6182J-6182D01*
G01*
X-220866Y69000D02*
G03*
X-224600Y65266I0J-3734D01*
G01*
Y64000D02*
G03*
X-219340Y58740I5260J0D01*
G01*
X-204700Y56100D02*
G03*
X-207340Y58740I-2640J0D01*
G01*
X-92962Y-54500D02*
X-92933Y-54500D01*
X-112885Y-46236D02*
X-112861Y-46260D01*
X-200993Y41872D02*
X-200985Y41864D01*
X-112885Y-46236D01*
X-204700Y50810D02*
X-204700Y50828D01*
X-199943Y42943D02*
X-111806Y-45194D01*
Y-45194D02*
X-111796Y-45204D01*
X-199943Y42943D02*
X-199943Y42943D01*
X-61986Y-59372D02*
X-59000D01*
X-56165Y-59606D02*
X-54000D01*
X-59000Y-59372D02*
X-56165Y-59606D01*
X-61980Y-57872D02*
X-59000D01*
X-56165Y-57638D02*
X-54000D01*
X-59000Y-57872D02*
X-56165Y-57638D01*
X-92967Y-53000D02*
X-73737D01*
X-198685Y58740D02*
Y61559D01*
X-66504Y-55996D02*
X-66500Y-56000D01*
X-200560Y58740D02*
X-198685D01*
X-216929Y71559D02*
X-208685D01*
X-203200Y50806D02*
Y56100D01*
X-92933Y-54500D02*
X-73743D01*
X-67561Y-57061D02*
X-67557Y-57065D01*
X-219340Y58740D02*
X-209315D01*
X-207340D01*
X-224600Y64000D02*
Y65266D01*
X-204700Y50828D02*
Y56100D01*
X-49425Y-61575D02*
X-46500Y-64500D01*
X-54000Y-61575D02*
X-49425D01*
X32500Y242000D02*
X34166D01*
X33333D01*
Y246998D01*
X32500Y246165D01*
D94*
X-196342Y134542D02*
D03*
D95*
X50000Y30000D02*
D03*
X160000Y-190000D02*
D03*
X-220000D02*
D03*
X-160000Y200000D02*
D03*
X200000D02*
D03*
X162000Y104000D02*
D03*
X156000D02*
D03*
X-145000Y-158000D02*
D03*
X-157000D02*
D03*
X-214000Y-102000D02*
D03*
X-226000D02*
D03*
X142500Y-122000D02*
D03*
X151000Y-104500D02*
D03*
X-226000Y16500D02*
D03*
X-238000D02*
D03*
X3500Y60500D02*
D03*
X8500D02*
D03*
X13500D02*
D03*
X3500Y45500D02*
D03*
X8500D02*
D03*
X13500D02*
D03*
X-57500D02*
D03*
X-62500D02*
D03*
X-67500D02*
D03*
X-57500Y60500D02*
D03*
X-62500D02*
D03*
X-67500D02*
D03*
X-99000Y97780D02*
D03*
X-144000Y202500D02*
D03*
X-138799Y133400D02*
D03*
X-145000D02*
D03*
X-26000Y-215000D02*
D03*
X77000Y71000D02*
D03*
Y19000D02*
D03*
Y-85000D02*
D03*
Y-33000D02*
D03*
X-120000Y29000D02*
D03*
X-115000D02*
D03*
X-110000D02*
D03*
Y34000D02*
D03*
X-115000D02*
D03*
X-120000D02*
D03*
X-229000Y-4500D02*
D03*
X-106000Y176000D02*
D03*
X-94000Y186000D02*
D03*
X-130000Y195500D02*
D03*
X-117000D02*
D03*
X-94000Y180000D02*
D03*
X-106000Y190000D02*
D03*
X194000Y-130000D02*
D03*
X205800Y-142000D02*
D03*
X218000Y-130000D02*
D03*
X205800Y-118000D02*
D03*
X180828Y-139667D02*
D03*
X195048Y-152000D02*
D03*
X232969D02*
D03*
X237709Y-108000D02*
D03*
X180828D02*
D03*
X10000Y-215000D02*
D03*
X-222149Y-120900D02*
D03*
Y-127100D02*
D03*
X-163000Y-175555D02*
D03*
X-185000Y-182445D02*
D03*
Y-175555D02*
D03*
X-174000Y-196000D02*
D03*
X-182000Y-209000D02*
D03*
X-136429Y-205000D02*
D03*
X-119958D02*
D03*
X-244000Y5000D02*
D03*
Y28000D02*
D03*
X-223996Y-4500D02*
D03*
X-228022Y-111978D02*
D03*
X-183000Y246756D02*
D03*
X-176000Y201276D02*
D03*
X-192000D02*
D03*
X-208000D02*
D03*
X77724Y-218000D02*
D03*
X-43000Y102000D02*
D03*
X-82000Y89000D02*
D03*
Y68000D02*
D03*
X-43000Y82000D02*
D03*
X-82000Y103000D02*
D03*
Y53000D02*
D03*
X-49000Y82000D02*
D03*
X-82000Y38000D02*
D03*
X-49000Y102000D02*
D03*
X-11000Y53000D02*
D03*
Y68000D02*
D03*
Y38000D02*
D03*
X28000Y102000D02*
D03*
X22000D02*
D03*
X28000Y82000D02*
D03*
X-11000Y89000D02*
D03*
X22000Y82000D02*
D03*
X-11000Y103000D02*
D03*
X-91272Y53000D02*
D03*
X-97000Y80900D02*
D03*
X-104276Y88100D02*
D03*
X-97000Y87100D02*
D03*
X-104276Y42260D02*
D03*
X-50000Y164000D02*
D03*
Y158000D02*
D03*
Y152000D02*
D03*
X-44000Y164000D02*
D03*
Y158000D02*
D03*
Y152000D02*
D03*
Y146000D02*
D03*
X-50000D02*
D03*
Y140000D02*
D03*
X-44000D02*
D03*
X-87500Y20000D02*
D03*
X-117000Y-7000D02*
D03*
X-123000D02*
D03*
X76000Y105000D02*
D03*
X81000D02*
D03*
X76000Y53000D02*
D03*
X81000D02*
D03*
X76000Y1000D02*
D03*
X81000D02*
D03*
X-78000Y-37000D02*
D03*
X-114000D02*
D03*
X81000Y-51000D02*
D03*
X-123000Y-97000D02*
D03*
X-87500Y-70000D02*
D03*
X-92500D02*
D03*
X-117000Y-97000D02*
D03*
X-92500Y20000D02*
D03*
X-80321Y-117994D02*
D03*
X-42321D02*
D03*
X-4321D02*
D03*
X33679D02*
D03*
X71679D02*
D03*
X109679D02*
D03*
X76000Y-51000D02*
D03*
D96*
X-160000Y-182500D02*
D03*
Y-209000D02*
D03*
D97*
X205800Y-130000D02*
D03*
D98*
X-46000Y212000D02*
D03*
D99*
X165661Y104000D02*
X168004Y101657D01*
Y95000D02*
Y101657D01*
X162000Y104000D02*
X165661D01*
X155996Y95000D02*
Y103996D01*
X156000Y104000D01*
X-157004Y-157996D02*
X-157000Y-158000D01*
X-145000D02*
X-144996Y-157996D01*
Y-149000D01*
X-157004Y-157996D02*
Y-149000D01*
X-214000Y-102000D02*
X-213996Y-101996D01*
Y-93000D01*
X-226004Y-101996D02*
X-226000Y-102000D01*
X-226004Y-101996D02*
Y-93000D01*
X142500Y-122000D02*
X151000D01*
Y-109996D02*
Y-104500D01*
X-144000Y195417D02*
Y202500D01*
Y172200D02*
Y182583D01*
D100*
X55900Y-614D02*
Y-551D01*
Y2285D01*
Y-8488D02*
Y-8425D01*
Y-5589D01*
Y-38852D02*
Y-36016D01*
Y-35953D01*
Y-72317D02*
Y-69480D01*
Y-48827D02*
Y-48764D01*
Y-45927D01*
Y-69480D02*
Y-69417D01*
X30449Y-94900D02*
X33285D01*
X30386D02*
X30449D01*
X4858Y24900D02*
X7695D01*
X4795D02*
X4858D01*
X-14890D02*
X-14827D01*
X-36480D02*
X-36417D01*
X-14827D02*
X-11990D01*
X-39317D02*
X-36480D01*
X-63900Y4285D02*
Y6900D01*
X4795Y31100D02*
X7695D01*
X-14890D02*
X-11990D01*
X62100Y-614D02*
Y2285D01*
Y-8488D02*
Y-5589D01*
Y-38852D02*
Y-35953D01*
Y-48827D02*
Y-45927D01*
Y-72317D02*
Y-69417D01*
X30386Y-101100D02*
X33285D01*
X-70601Y205051D02*
X-66051D01*
X-30647Y31100D02*
X-26638D01*
X-39317D02*
X-36417D01*
X-70100Y4000D02*
Y6900D01*
X-70000Y-63000D02*
Y-59000D01*
X-70100Y-41890D02*
Y-32833D01*
X10212Y-247000D02*
X19500D01*
X-24500D02*
X10212D01*
X10000Y-246788D02*
X10212Y-247000D01*
X10000Y-246788D02*
Y-241724D01*
X39500Y-227000D02*
X48000D01*
X19500Y-247000D02*
X39500Y-227000D01*
X48000D02*
Y-194439D01*
X50039Y-192400D01*
X48000Y-227000D02*
X52276D01*
X57000Y-229000D02*
X58740Y-230740D01*
X67000D01*
X57000Y-229000D02*
Y-215361D01*
X-26000Y-245500D02*
Y-241724D01*
Y-245500D02*
X-24500Y-247000D01*
X-172828Y-182445D02*
X-160055D01*
X91000Y-190000D02*
X94900D01*
X91000Y-196000D02*
X94900D01*
X-98898Y126000D02*
Y130000D01*
Y116000D02*
Y120000D01*
Y155800D02*
Y159800D01*
X-231900Y43000D02*
X-231260Y43640D01*
Y49587D01*
X-241630Y74000D02*
X-238100D01*
X-242000Y43000D02*
X-238100D01*
X-241630Y67000D02*
X-238100D01*
X202000Y15000D02*
Y18900D01*
X195000Y15000D02*
Y18900D01*
X202000Y-32000D02*
Y-28100D01*
X195000Y-32000D02*
Y-28100D01*
X-40417Y30000D02*
X-39317Y31100D01*
X33000Y24900D02*
X34100Y26000D01*
X30449Y24900D02*
X33000D01*
X30100D02*
X30449D01*
X-63900Y4000D02*
Y4285D01*
X-27000Y218100D02*
Y222000D01*
X-153000Y-189500D02*
X-130917D01*
X-160028Y-182472D02*
X-153000Y-189500D01*
X-138799Y133400D02*
Y138400D01*
X-145000Y133400D02*
Y138400D01*
X30449Y31100D02*
X33000D01*
X30100D02*
X30449D01*
X-98898Y165800D02*
Y169800D01*
X-235000Y57000D02*
Y60413D01*
X-150312Y153400D02*
X-145000Y148088D01*
X-163700Y153400D02*
X-150312D01*
X-145000Y138400D02*
Y148088D01*
X-153700Y138400D02*
X-145000D01*
X-112500Y155800D02*
X-105000D01*
X-112500Y165800D02*
X-105000D01*
Y169800D01*
Y126000D02*
Y130000D01*
X-112500Y126000D02*
X-105000D01*
X-112500Y116000D02*
X-105000D01*
X-65000Y8000D02*
X-63900Y6900D01*
X55900Y2285D02*
X57000Y3386D01*
X61000D02*
X62100Y2285D01*
X55900Y-5589D02*
X57000Y-4488D01*
X61000D02*
X62100Y-5589D01*
X61000Y-39953D02*
X62100Y-38852D01*
X55900D02*
X57000Y-39953D01*
X55900Y-45927D02*
X57000Y-44827D01*
X61000D02*
X62100Y-45927D01*
X61000Y-73417D02*
X62100Y-72317D01*
X55900D02*
X57000Y-73417D01*
X33285Y-94900D02*
X34386Y-96000D01*
X33285Y-101100D02*
X34386Y-100000D01*
X1896Y-101100D02*
X4795D01*
X795Y-100000D02*
X1896Y-101100D01*
X795Y-96000D02*
X1896Y-94900D01*
X4795D01*
X-14764D02*
X-11864D01*
X-10764Y-96000D01*
X-11864Y-101100D02*
X-10764Y-100000D01*
X-14764Y-101100D02*
X-11864D01*
X-43380D02*
X-40480D01*
X-44480Y-100000D02*
X-43380Y-101100D01*
X-44480Y-96000D02*
X-43380Y-94900D01*
X-40480D01*
X-63900Y-72285D02*
Y-69386D01*
X-65000Y-73386D02*
X-63900Y-72285D01*
X-70100D02*
X-69000Y-73386D01*
X-70100Y-72285D02*
Y-69386D01*
Y-32833D02*
X-69000Y-31732D01*
X-65000D02*
X-63900Y-32833D01*
Y-35732D02*
Y-32833D01*
Y-23199D02*
Y-20299D01*
X-65000Y-24299D02*
X-63900Y-23199D01*
X-70100D02*
X-69000Y-24299D01*
X-70100Y-23199D02*
Y-20299D01*
Y6900D02*
X-69000Y8000D01*
X33000Y31100D02*
X34100Y30000D01*
X7695Y31100D02*
X8795Y30000D01*
X7695Y24900D02*
X8795Y26000D01*
X-11990Y31100D02*
X-10890Y30000D01*
X-11990Y24900D02*
X-10890Y26000D01*
X-40417D02*
X-39317Y24900D01*
X164000Y188100D02*
X166900D01*
X168000Y187000D01*
X166900Y181900D02*
X168000Y183000D01*
X164000Y181900D02*
X166900D01*
X145000D02*
X147900D01*
X149000Y183000D01*
X147900Y188100D02*
X149000Y187000D01*
X145000Y188100D02*
X147900D01*
X211000Y118100D02*
X213900D01*
X215000Y117000D01*
X211000Y111900D02*
X213900D01*
X215000Y113000D01*
X166000D02*
X167100Y111900D01*
X170000D01*
X167100Y118100D02*
X170000D01*
X166000Y117000D02*
X167100Y118100D01*
X154000D02*
X154069Y118032D01*
X156968D02*
X158000Y117000D01*
X154069Y118032D02*
X156968D01*
X154000Y111900D02*
X156900D01*
X158000Y113000D01*
X125100Y111900D02*
X128000D01*
X124000Y113000D02*
X125100Y111900D01*
X124000Y117000D02*
X125100Y118100D01*
X128000D01*
X136000Y111900D02*
X138900D01*
X140000Y113000D01*
X138900Y118100D02*
X140000Y117000D01*
X136000Y118100D02*
X138900D01*
X191000Y25100D02*
X195000D01*
X202000D02*
X202400Y25500D01*
X195000Y25100D02*
X202000D01*
X227299Y40500D02*
X231728D01*
X202000Y-21900D02*
X202400Y-21500D01*
X195000Y-21900D02*
X202000D01*
X191000D02*
X195000D01*
X227299Y-6500D02*
X231728D01*
X57000Y-215361D02*
X79961Y-192400D01*
X67000Y-230740D02*
X68276Y-229465D01*
Y-227000D01*
X6260Y-232276D02*
Y-210276D01*
X-29740Y-232276D02*
Y-210276D01*
X10000Y-219724D02*
Y-215000D01*
X-26000Y-219724D02*
Y-215000D01*
X101100Y-196000D02*
Y-190000D01*
Y-200000D02*
Y-196000D01*
X-174000Y-201315D02*
Y-196000D01*
X-182000Y-209000D02*
X-177051D01*
X-170949D02*
Y-208803D01*
X-170260Y-208114D01*
X-170949Y-209000D02*
X-160000D01*
X-149000Y-198000D01*
X-132886D01*
X-174000Y-183616D02*
X-172828Y-182445D01*
X-174000Y-190685D02*
Y-183616D01*
X-231900Y67000D02*
X-231260Y66360D01*
Y60413D02*
Y66360D01*
X-213000Y55000D02*
X-209315D01*
X-180260Y201276D02*
X-176000D01*
X-196260D02*
X-192000D01*
X-212260D02*
X-208000D01*
X77724Y-223260D02*
Y-218000D01*
D101*
X101429Y-195672D02*
Y-180354D01*
X75100Y-62047D02*
X79000D01*
Y-59047D02*
Y-57500D01*
X77547Y-56047D02*
X79000Y-57500D01*
X75100Y-56047D02*
X77547D01*
X174000Y-169949D02*
X180200D01*
X174000Y-179900D02*
Y-176051D01*
X120000Y-200000D02*
Y-196051D01*
X108000Y-200000D02*
Y-196051D01*
X-2000Y-167500D02*
X-500D01*
X-3559Y-173386D02*
Y-169059D01*
X-2000Y-167500D01*
X-12000Y-170500D02*
X-11970Y-170530D01*
Y-172030D02*
X-10614Y-173386D01*
X-11970Y-172030D02*
Y-170530D01*
X-10614Y-173386D02*
X-8677D01*
X-10051Y-166974D02*
Y-163000D01*
X-217984Y77000D02*
X-202500D01*
X-194000Y68500D01*
Y56284D02*
Y68500D01*
X-223000Y49000D02*
X-214500D01*
X-193000Y9000D02*
Y27500D01*
X-214500Y49000D02*
X-193000Y27500D01*
X-27000Y-97010D02*
X-24669Y-94679D01*
X-59110Y-45827D02*
X-57142Y-47795D01*
X4000Y-70500D02*
X6827Y-73327D01*
Y-85000D02*
Y-73327D01*
X-41000Y171000D02*
Y173900D01*
X-47000Y171000D02*
Y173900D01*
X-41000Y180100D02*
X-37703D01*
X-46657Y180443D02*
Y187933D01*
X-47000Y180100D02*
X-46657Y180443D01*
X-44000Y168000D02*
X-41000Y171000D01*
X-44000Y164000D02*
Y168000D01*
X-47000Y171000D02*
X-44000Y168000D01*
X-37703Y180100D02*
X-37000Y180803D01*
Y191197D01*
X-37703Y191900D02*
X-37000Y191197D01*
X-41175Y191900D02*
X-37703D01*
X-41342Y192067D02*
X-41175Y191900D01*
X111271Y-180354D02*
Y-177703D01*
X111974Y-177000D02*
X114000D01*
X111271Y-177703D02*
X111974Y-177000D01*
X1949Y-163000D02*
X2000Y-161730D01*
Y-159000D01*
X-198685Y48985D02*
Y51260D01*
Y48985D02*
X-185300Y35600D01*
X-177200D01*
X-91600Y-50000D02*
X-68622D01*
X-177200Y35600D02*
X-91600Y-50000D01*
X-175700Y36900D02*
Y53700D01*
X-90800Y-48000D02*
X-67622D01*
X-175700Y36900D02*
X-90800Y-48000D01*
X-68622Y-50000D02*
X-62953Y-55669D01*
X-54000D01*
X-67622Y-48000D02*
X-61922Y-53701D01*
X172423Y140500D02*
X182598Y130324D01*
X164500Y140500D02*
X172423D01*
X141654Y120846D02*
Y127362D01*
Y120846D02*
X144500Y118000D01*
Y101000D02*
Y118000D01*
X144803Y123000D02*
Y127362D01*
X-117138Y-193746D02*
Y-176630D01*
X-130500Y-163268D02*
Y-154000D01*
Y-163268D02*
X-117138Y-176630D01*
X201496Y152500D02*
Y172638D01*
X188898Y168000D02*
Y172638D01*
X192047Y163000D02*
Y172638D01*
X195197Y159500D02*
Y172638D01*
X198346Y156086D02*
Y172638D01*
X147976Y104524D02*
X148000Y104500D01*
X147976Y104524D02*
Y127339D01*
X147953Y127362D02*
X147976Y127339D01*
X199000Y120000D02*
X201496Y122496D01*
X199000Y113500D02*
Y120000D01*
X201496Y122496D02*
Y127362D01*
X196000Y117000D02*
Y121500D01*
X198346Y123846D02*
Y127362D01*
X196000Y121500D02*
X198346Y123846D01*
X204646Y119646D02*
Y127362D01*
X202000Y117000D02*
X204646Y119646D01*
X205000Y113500D02*
X207795Y116295D01*
Y127362D01*
X-53500Y-96000D02*
X-46323Y-88823D01*
Y-85000D01*
X-57917Y-71417D02*
X-54000D01*
X-76500Y-90000D02*
X-57917Y-71417D01*
X-79500Y-90000D02*
X-76500D01*
X-65000D02*
Y-81500D01*
X-56886Y-73386D01*
X-87610Y-193746D02*
Y-167610D01*
X-77500Y-157500D01*
Y-154000D01*
X-84000Y-159716D02*
Y-156000D01*
X-89579Y-193746D02*
Y-165295D01*
X-84000Y-159716D01*
X-91547Y-163047D02*
X-90500Y-162000D01*
X-91547Y-193746D02*
Y-163047D01*
X-90500Y-162000D02*
Y-154000D01*
X-97000Y-161484D02*
X-95484Y-163000D01*
X-97000Y-161484D02*
Y-156000D01*
X-95484Y-193746D02*
Y-163000D01*
X-101500Y-162843D02*
Y-154000D01*
Y-162843D02*
X-99421Y-164921D01*
X-101390Y-193746D02*
Y-167937D01*
X-106000Y-163327D02*
Y-156000D01*
Y-163327D02*
X-101390Y-167937D01*
X-103427Y-191924D02*
Y-170557D01*
X-112500Y-161484D02*
Y-154000D01*
Y-161484D02*
X-103427Y-170557D01*
X-117000Y-161484D02*
X-105327Y-173158D01*
X-117000Y-161484D02*
Y-156000D01*
X-105327Y-193746D02*
Y-173158D01*
X-111232Y-193746D02*
Y-172268D01*
X-121500Y-162000D02*
Y-154000D01*
Y-162000D02*
X-111232Y-172268D01*
X-126000Y-162500D02*
Y-156000D01*
X-113201Y-193746D02*
Y-175299D01*
X-126000Y-162500D02*
X-113201Y-175299D01*
X-135000Y-164000D02*
Y-156000D01*
X-119106Y-193746D02*
Y-179894D01*
X-135000Y-164000D02*
X-119106Y-179894D01*
X36354Y18506D02*
X37348Y19500D01*
X36354Y15000D02*
Y18506D01*
X37348Y19500D02*
X41500D01*
X43000Y23000D02*
X50000Y16000D01*
X36854Y5354D02*
X46000D01*
X40500Y9000D02*
X42177Y7323D01*
X46000D01*
X-45000Y196000D02*
X-44000D01*
X-46657Y192067D02*
Y194343D01*
X-45000Y196000D01*
X-44153Y195847D02*
X-44000Y196000D01*
X-50000Y193852D02*
X-47016Y196836D01*
X-45016Y198836D01*
Y204323D01*
X-53000Y193921D02*
X-46984Y199937D01*
Y204323D01*
X-9000Y199051D02*
Y202500D01*
X-13500Y207000D02*
X-9000Y202500D01*
X-30000Y207000D02*
X-13500D01*
X-15000Y199051D02*
Y202500D01*
X-17500Y205000D02*
X-15000Y202500D01*
X-206000Y183000D02*
X-204000Y185000D01*
Y188949D01*
X-208500Y183000D02*
X-206000D01*
X-220000Y188949D02*
X-212000D01*
X-226000D02*
X-220000D01*
X-244243Y62500D02*
X-242157Y60413D01*
X-247000Y62500D02*
Y66949D01*
Y62500D02*
X-244243D01*
X-242157Y60413D02*
X-238740D01*
X138500Y148000D02*
X151102Y135398D01*
X122000Y148000D02*
X138500D01*
X125500Y151000D02*
X139500D01*
X157402Y133098D01*
X140500Y154000D02*
X160551Y133949D01*
X129000Y154000D02*
X140500D01*
X132500Y157000D02*
X141701D01*
X166850Y131850D01*
X-57854Y5354D02*
X-54000D01*
X-62000Y9500D02*
X-57854Y5354D01*
X-64897Y12000D02*
X-61000D01*
X-56323Y7323D01*
X32417Y15000D02*
Y20817D01*
X34100Y22500D01*
X30449Y15000D02*
Y24900D01*
X-60130Y-30079D02*
X-54000D01*
X-62099Y-28110D02*
X-60130Y-30079D01*
X174500Y133000D02*
X176299Y131201D01*
Y127362D02*
Y131201D01*
X38070Y23000D02*
X43000D01*
X34386Y19316D02*
X38070Y23000D01*
X179414Y156586D02*
Y172603D01*
Y156586D02*
X186000Y150000D01*
Y141500D02*
Y150000D01*
X34386Y15000D02*
Y19316D01*
X6827Y11531D02*
Y15000D01*
X4795Y9500D02*
X6827Y11531D01*
X55900Y-36016D02*
X56000D01*
X53016D02*
X55900D01*
X0Y20000D02*
X1500D01*
X-1047Y18953D02*
X0Y20000D01*
X-4984Y26016D02*
X-3000Y28000D01*
X-4984Y15000D02*
Y26016D01*
X-3016Y15000D02*
Y21484D01*
X-500Y24000D01*
X12732Y4850D02*
X14701Y6819D01*
X12732Y1268D02*
Y4850D01*
Y1268D02*
X15000Y-1000D01*
X14701Y6819D02*
Y15000D01*
X16669Y3500D02*
Y15000D01*
X18638Y5787D02*
X20000Y4425D01*
Y-500D02*
Y4425D01*
X16143Y-4357D02*
X20000Y-500D01*
X22575Y-2389D02*
Y5425D01*
X17964Y-7000D02*
X22575Y-2389D01*
X20606Y7394D02*
X22575Y5425D01*
X25335Y-3666D02*
Y5666D01*
X22575Y8425D02*
X25335Y5666D01*
X19500Y-9500D02*
X25335Y-3666D01*
X20606Y7394D02*
Y15000D01*
X18638Y5787D02*
Y15000D01*
X22575Y8425D02*
Y15000D01*
X-11496Y-4357D02*
X16143D01*
X24543Y10457D02*
X25500Y9500D01*
X24543Y10457D02*
Y15000D01*
X-30495Y-2995D02*
X-26500Y1000D01*
X5500D01*
X12732Y8232D01*
X-24500Y-2000D02*
X-13853D01*
X-11496Y-4357D01*
X-13500Y-7000D02*
X17964D01*
X-15000Y-5500D02*
X-13500Y-7000D01*
X-22500Y-5500D02*
X-15000D01*
X-16000Y-9500D02*
X19500D01*
X-32500Y-10500D02*
X-20500D01*
X-18500Y-12500D01*
X21000D01*
X-17500Y-8000D02*
X-16000Y-9500D01*
X21000Y-12500D02*
X28480Y-5020D01*
X-45016Y227500D02*
Y230933D01*
Y219677D02*
Y227500D01*
X22343Y-18500D02*
X42260Y1417D01*
X-23000Y-18500D02*
X22343D01*
X-26500Y-15000D02*
X-23000Y-18500D01*
X-20500Y-15500D02*
X22000D01*
X-22500Y-13500D02*
X-20500Y-15500D01*
X22000D02*
X40886Y3386D01*
X24500Y-21500D02*
X31669Y-14331D01*
X-30500Y-16500D02*
X-25500Y-21500D01*
X24500D01*
X28480Y-5020D02*
Y15000D01*
X40886Y3386D02*
X46000D01*
X42260Y1417D02*
X46000D01*
X31669Y-14331D02*
X46000D01*
X33201Y-16299D02*
X46000D01*
X29500Y-20000D02*
X33201Y-16299D01*
X29500Y-24000D02*
Y-20000D01*
X12732Y8232D02*
Y15000D01*
X12500Y20000D02*
X13669D01*
X-4984Y5500D02*
X-2530D01*
X2890Y10920D02*
Y15000D01*
X-2530Y5500D02*
X2890Y10920D01*
X-4984Y9500D02*
X-1807D01*
X921Y12228D01*
Y15000D01*
X-8921Y9500D02*
X-6953Y11468D01*
Y15000D01*
X58000Y16000D02*
X66500Y7500D01*
Y-10500D02*
Y7500D01*
X62000Y20000D02*
X69000Y13000D01*
Y-11187D02*
Y13000D01*
X41000Y-8000D02*
X42543Y-6457D01*
X46000D01*
X38500Y-31500D02*
X40500D01*
X41921Y-30079D02*
X46000D01*
X40500Y-31500D02*
X41921Y-30079D01*
X40516Y-34500D02*
X42968Y-32047D01*
X46000D01*
X42732Y-18268D02*
X46000D01*
X35500Y-19000D02*
X42000D01*
X42732Y-18268D01*
X-73821Y-193746D02*
Y-185321D01*
X37827Y-24173D02*
X46000D01*
X25500Y-27000D02*
X35000D01*
X37827Y-24173D01*
X19500Y-44000D02*
X29000Y-34500D01*
X40516D01*
X19500Y-47000D02*
Y-44000D01*
Y-47000D02*
X24500Y-52000D01*
X34000D01*
X24795Y-47795D02*
X46000D01*
X22500Y-45500D02*
X24795Y-47795D01*
X26500Y-43500D02*
X28827Y-45827D01*
X46000D01*
X32858Y-43858D02*
X46000D01*
X30500Y-41500D02*
X32858Y-43858D01*
X34500Y-39500D02*
X36890Y-41890D01*
X46000D01*
X40921Y-39921D02*
X46000D01*
X38500Y-37500D02*
X40921Y-39921D01*
X46000Y-20236D02*
X49264D01*
X53518Y-15982D01*
X63639D01*
X59274Y-19069D02*
X59342Y-19138D01*
X54000Y-19000D02*
X54069Y-19069D01*
X59274D01*
X46000Y-37953D02*
X48953D01*
X51000Y-40000D01*
X51016Y-34016D02*
X53016Y-36016D01*
X46000Y-34016D02*
X51016D01*
X49984Y-35984D02*
X51000Y-37000D01*
X46000Y-35984D02*
X49984D01*
X50783Y-37000D02*
X51000D01*
X55900Y-8425D02*
X56000D01*
X46000D02*
X55900D01*
Y-48764D02*
X56000D01*
X52930D02*
X55900D01*
Y-69480D02*
X56000D01*
X52993D02*
X55900D01*
X-27000Y237051D02*
Y241000D01*
Y237000D02*
Y237051D01*
X4858Y24900D02*
Y25000D01*
Y15000D02*
Y24900D01*
X-14827D02*
Y25000D01*
Y15000D02*
Y24900D01*
X-36480D02*
Y25000D01*
Y21980D02*
Y24900D01*
X-63900Y4285D02*
X-63000Y3386D01*
X-64000Y4386D02*
X-63900Y4285D01*
X38500Y-10394D02*
Y-5463D01*
X43403Y-561D01*
X46000Y-26142D02*
X56000D01*
X66187Y-14000D02*
X69000Y-11187D01*
X53500Y-12000D02*
X65000D01*
X66500Y-10500D01*
X52813Y-14000D02*
X66187D01*
X51894Y-10394D02*
X53500Y-12000D01*
X51175Y-12362D02*
X52813Y-14000D01*
X46000Y-12362D02*
X51175D01*
X46000Y-10394D02*
X51894D01*
X41701Y-53701D02*
X46000D01*
X40000Y-52000D02*
X41701Y-53701D01*
X90051Y-223000D02*
Y-218000D01*
Y-231000D02*
Y-223000D01*
X26506Y19006D02*
X27500Y20000D01*
X26506Y15006D02*
Y19006D01*
Y15006D02*
X26512Y15000D01*
X-1047D02*
Y18953D01*
X-58547Y-32047D02*
X-54000D01*
X-60000Y-33500D02*
X-58547Y-32047D01*
X182598Y127362D02*
Y130324D01*
X173150Y123299D02*
Y127362D01*
Y123299D02*
X179449Y117000D01*
X14500Y-61000D02*
X26521Y-73021D01*
Y-85000D02*
Y-73021D01*
X11000Y-61000D02*
X14500D01*
X8500Y-70500D02*
X18638Y-80638D01*
Y-85000D02*
Y-80638D01*
X8500Y-65000D02*
X12000D01*
X-5500Y-43500D02*
X2000D01*
X13500Y-55000D01*
X-61000Y-49764D02*
X-54000D01*
X-61922Y-53701D02*
X-54000D01*
X-28000Y-64000D02*
X-27000Y-65000D01*
X-35000Y-71500D02*
X-34000Y-72500D01*
X-41500Y-71500D02*
X-35000D01*
X-38449Y-85000D02*
Y-82051D01*
X-41000Y-79500D02*
X-38449Y-82051D01*
X-20000Y-71000D02*
Y-69000D01*
X-28606Y-79606D02*
X-20000Y-71000D01*
X-21124Y-75124D02*
X-19000D01*
X-26638Y-80638D02*
X-21124Y-75124D01*
X-26638Y-85000D02*
Y-80638D01*
X-28606Y-85000D02*
Y-79606D01*
X25331Y-55669D02*
X46000D01*
X20000Y-61000D02*
X25331Y-55669D01*
X29862Y-57638D02*
X46000D01*
X23500Y-64000D02*
X29862Y-57638D01*
X12000Y-65000D02*
X24543Y-77543D01*
Y-85000D02*
Y-77543D01*
X46500Y-80000D02*
X48500Y-82000D01*
X42000Y-78500D02*
X43500Y-80000D01*
X46500D01*
X42000Y-78500D02*
Y-74500D01*
X23856Y-88856D02*
X25000Y-90000D01*
X22584Y-87597D02*
Y-85009D01*
X23843Y-88856D02*
X23856D01*
X22584Y-87597D02*
X23843Y-88856D01*
X22575Y-85000D02*
X22584Y-85009D01*
X28480Y-91520D02*
Y-85000D01*
X24500Y-100000D02*
Y-95500D01*
X28480Y-91520D01*
X39000Y-81000D02*
X43500Y-85500D01*
X38323Y-87797D02*
X39026Y-88500D01*
X55000D01*
X-48669Y-14331D02*
X-46000Y-17000D01*
X-54000Y-14331D02*
X-48669D01*
X-47437Y-20000D02*
X-43000D01*
X-51138Y-16299D02*
X-47437Y-20000D01*
X-54000Y-16299D02*
X-51138D01*
X-54000Y-22205D02*
X-49169D01*
X-54000Y-26142D02*
X-51142D01*
X-50000Y-25000D02*
X-45000D01*
X-51142Y-26142D02*
X-50000Y-25000D01*
X-45000D02*
X-43000Y-27000D01*
X171000Y147000D02*
Y159500D01*
Y147000D02*
X185748Y132252D01*
Y127362D02*
Y132252D01*
X176299Y146201D02*
X186000Y136500D01*
X195197Y127362D02*
Y148803D01*
X184500Y159500D02*
X195197Y148803D01*
X151102Y127362D02*
Y135398D01*
X157402Y127362D02*
Y133098D01*
X160551Y127362D02*
Y133949D01*
X176299Y146201D02*
Y172638D01*
X188898Y137898D02*
X192000Y141000D01*
Y144000D01*
X188898Y127362D02*
Y137898D01*
X132205Y172638D02*
Y177295D01*
X127500Y182000D02*
X132205Y177295D01*
X138504Y172638D02*
Y176496D01*
X133000Y182000D02*
X138504Y176496D01*
X138500Y182000D02*
X138504D01*
X141654Y178850D01*
Y172638D02*
Y178850D01*
X129000Y168000D02*
X129055Y168055D01*
Y172638D01*
X135354Y168000D02*
Y172638D01*
X146500Y168000D02*
X147953Y169453D01*
Y172638D01*
X151102Y168000D02*
Y172638D01*
X156000Y168000D02*
X157402Y169402D01*
Y172638D01*
X160551Y168000D02*
Y172638D01*
X166850Y127362D02*
Y131850D01*
Y168000D02*
Y172638D01*
X204646D02*
Y177000D01*
X207809Y168000D02*
Y172624D01*
X192047Y127362D02*
Y132000D01*
X170000Y172638D02*
Y177000D01*
X182598Y172638D02*
Y177000D01*
X210945Y172638D02*
Y177000D01*
X179449Y123000D02*
Y127362D01*
X163701Y123000D02*
Y127362D01*
X173013Y-106486D02*
Y-102000D01*
X190308Y-106832D02*
Y-101189D01*
X173013Y-111226D02*
X179226D01*
X181000Y-113000D01*
X178966Y-115966D02*
X181000Y-118000D01*
X173013Y-115966D02*
X178966D01*
X151500Y-136000D02*
X154949D01*
X151500Y-130000D02*
X154949D01*
X22500Y-166500D02*
X46000D01*
X22698Y-162500D02*
X50000D01*
X23477Y-158500D02*
X46000D01*
X23500Y-154500D02*
X50000D01*
X24500Y-150500D02*
X46000D01*
X24758Y-146500D02*
X50000D01*
X25726Y-142500D02*
X46000D01*
X-103427Y-191924D02*
X-103368Y-191983D01*
X-41743Y-32257D02*
Y-32257D01*
Y-41833D02*
Y-32257D01*
X-99421Y-193746D02*
Y-164921D01*
X-79736Y-189736D02*
X-78500Y-188500D01*
X-79736Y-193746D02*
Y-189736D01*
X-75799Y-193746D02*
Y-181500D01*
X-73821Y-185321D02*
X-70000Y-181500D01*
X-83673Y-193746D02*
Y-181500D01*
X-65085Y-185000D02*
X-61500D01*
X-71862Y-193746D02*
Y-188362D01*
X-65000Y-181500D01*
X-69894Y-189809D02*
X-65085Y-185000D01*
X-67925Y-190925D02*
X-65500Y-188500D01*
X-69894Y-193746D02*
Y-189809D01*
X-65500Y-188500D02*
X-58000D01*
X-67925Y-193746D02*
Y-190925D01*
X-121075Y-197425D02*
Y-193746D01*
Y-197425D02*
X-118500Y-200000D01*
X-109264Y-200764D02*
Y-193746D01*
X-111000Y-202500D02*
X-109264Y-200764D01*
X-115169Y-198831D02*
Y-193746D01*
Y-198831D02*
X-114000Y-200000D01*
X-63988Y-197500D02*
Y-193746D01*
X-77768Y-197500D02*
Y-193746D01*
X-107295Y-205000D02*
Y-193746D01*
X-97453Y-207500D02*
Y-193746D01*
X-93516Y-210000D02*
Y-193746D01*
X-85642Y-212500D02*
Y-193746D01*
X-125021Y-193736D02*
Y-189622D01*
Y-193736D02*
X-125012Y-193746D01*
X-126980Y-200031D02*
X-124900Y-202112D01*
Y-205000D02*
Y-202112D01*
X-126980Y-200031D02*
Y-193746D01*
X-131100Y-202183D02*
X-128949Y-200031D01*
X-131100Y-205000D02*
Y-202183D01*
X-128949Y-200031D02*
Y-193746D01*
X-91000Y30000D02*
X-88879D01*
X-86879Y32000D01*
X-91000Y36000D02*
X-88764D01*
X-86764Y34000D01*
X-73000D01*
X-86879Y32000D02*
X-74000D01*
X-180500Y133438D02*
X-177141D01*
X-180500Y158438D02*
X-177141D01*
X-180500Y142438D02*
X-177141D01*
X-180500Y149438D02*
X-177141D01*
Y158438D02*
X-177102Y158400D01*
X-177141Y133438D02*
X-177102Y133400D01*
X-177141Y149438D02*
X-177102Y149400D01*
X-177141Y142438D02*
X-177102Y142400D01*
X-58000Y174000D02*
X-53000Y179000D01*
X-69000Y174000D02*
X-58000D01*
X-31000Y216000D02*
Y221500D01*
X-25000Y227500D01*
X-15000D01*
X-33000Y222500D02*
X-27056Y228444D01*
X-15000Y227500D02*
Y230949D01*
X-41079Y222424D02*
X-40031Y223471D01*
X-38528D02*
X-38500Y223500D01*
X-40031Y223471D02*
X-38528D01*
X-35047Y225453D02*
X-33000Y227500D01*
X-35047Y218219D02*
Y225453D01*
X-33000Y227500D02*
Y230949D01*
X-45016Y230933D02*
X-45000Y230949D01*
X-55000Y229000D02*
X-53560D01*
X-48953Y224393D01*
X-55000Y229000D02*
X-54940Y228940D01*
X-48953Y219677D02*
Y224393D01*
X-55000Y224500D02*
X-52997D01*
X-50921Y222424D01*
X-52000Y234000D02*
X-50410Y232410D01*
X-55000Y234000D02*
X-52000D01*
X-15000Y237051D02*
Y241000D01*
X-21000Y237051D02*
Y241000D01*
X-33000Y237051D02*
Y241000D01*
X-39000Y237051D02*
Y241000D01*
X-45000Y237051D02*
Y241000D01*
X-130917Y-193746D02*
Y-189500D01*
X-45530Y-39970D02*
X-45500Y-40000D01*
X-47030Y-39970D02*
X-45530D01*
X-54000Y-37953D02*
X-49047D01*
X-47030Y-39970D01*
X-45530Y-34030D02*
X-45500Y-34000D01*
X-54000Y-35984D02*
X-48984D01*
X-47030Y-34030D02*
X-45530D01*
X-48984Y-35984D02*
X-47030Y-34030D01*
X-26500Y-4000D02*
X-24500Y-2000D01*
X-30495Y-5545D02*
Y-2995D01*
X-30500Y-5550D02*
X-30495Y-5545D01*
X-34500Y-12500D02*
X-32500Y-10500D01*
X-30500Y-16500D02*
Y-13500D01*
X-34500Y-15000D02*
Y-12500D01*
X-39240Y-40614D02*
X-33854Y-46000D01*
X-29000D01*
X-33263Y-43000D02*
X-11500D01*
X-37000Y-39263D02*
X-33263Y-43000D01*
X-15000Y-34000D02*
X-5500Y-43500D01*
X-30500Y-34000D02*
X-15000D01*
X-51844Y-51723D02*
X-9777D01*
X-7500Y-54000D01*
X-11500Y-43000D02*
X-500Y-54000D01*
X-10000Y-70000D02*
X-9932D01*
X-3016Y-76916D01*
X165811Y-152189D02*
Y-151221D01*
X167884Y-149148D01*
X164000Y-154000D02*
X165811Y-152189D01*
X167884Y-149148D02*
X173013D01*
X161051Y-154000D02*
X164000D01*
X-54000Y-75354D02*
X-49354D01*
X-43000Y-69000D02*
X-31000D01*
X-49354Y-75354D02*
X-43000Y-69000D01*
X-47323Y-77323D02*
X-41500Y-71500D01*
X-33000Y217000D02*
Y222500D01*
X-27056Y228444D02*
Y230898D01*
X-21051D01*
X-59000Y-16500D02*
X-57232Y-18268D01*
X-54000D01*
X-62000Y-16500D02*
X-57862Y-12362D01*
X-54000D01*
X-63000Y3386D02*
X-54000D01*
X-68000Y-2500D02*
Y500D01*
Y-2500D02*
X-60106Y-10394D01*
X-63500Y-3500D02*
X-58575Y-8425D01*
X-63500Y-3500D02*
Y500D01*
X-59000Y-4500D02*
Y500D01*
Y-4500D02*
X-57043Y-6457D01*
X-56323Y7323D02*
X-54000D01*
X-60106Y-10394D02*
X-54000D01*
X-58575Y-8425D02*
X-54000D01*
X-57043Y-6457D02*
X-54000D01*
X-37000Y-39263D02*
Y7551D01*
X-40417Y10968D02*
X-37000Y7551D01*
X-44354Y6354D02*
X-39240Y1240D01*
Y-40614D02*
Y1240D01*
X-47000Y-30500D02*
X-43500D01*
X-41743Y-32257D01*
X-50516Y-34016D02*
X-47000Y-30500D01*
X-54000Y-34016D02*
X-50516D01*
X-49585Y-46600D02*
X-45203D01*
X-50358Y-45827D02*
X-49585Y-46600D01*
X-54000Y-45827D02*
X-50358D01*
X-54000Y-77323D02*
X-47323D01*
X-41796Y-64000D02*
X-28000D01*
X-44354Y-85000D02*
Y-78385D01*
X-42470Y-76500D01*
X-38000D01*
X-47245Y-69449D02*
X-41796Y-64000D01*
X-45203Y-46600D02*
X-45103Y-46500D01*
X-34576Y-49000D02*
X-24000D01*
X-41743Y-41833D02*
X-34576Y-49000D01*
X-17269Y-54701D02*
X921Y-72891D01*
X-36576Y-54701D02*
X-17269D01*
X-18000Y-58000D02*
X-1047Y-74953D01*
X-40000Y-58000D02*
X-18000D01*
X-22750Y-61250D02*
X-4984Y-79016D01*
X-43264Y-61250D02*
X-22750D01*
X-54000Y-43858D02*
X-50358D01*
X-49000Y-42500D01*
X-54000Y-65512D02*
X-50488D01*
X-49000Y-67000D01*
X-57142Y-47795D02*
X-54000D01*
Y-28110D02*
X-49000D01*
X-59000Y-24173D02*
X-54000D01*
X-60000Y-38000D02*
X-58079Y-39921D01*
X-54000D01*
X-189000Y58051D02*
X-183000D01*
X-180051D01*
X-56886Y-73386D02*
X-54000D01*
X-56000Y22000D02*
X-49444D01*
X-46323Y18879D01*
X-74000Y32000D02*
X-50000Y8000D01*
X-73000Y34000D02*
X-48000Y9000D01*
X-50000Y2400D02*
Y8000D01*
X-48000Y1293D02*
Y9000D01*
X-46323Y15000D02*
Y18879D01*
X-54000Y-69449D02*
X-47245D01*
X-24669Y-94679D02*
Y-85000D01*
X-32543Y-92957D02*
Y-85000D01*
Y-92957D02*
X-31000Y-94500D01*
X-36480Y-100020D02*
X-35000Y-101500D01*
X-36480Y-100020D02*
Y-85000D01*
X-34512Y-97988D02*
Y-85000D01*
Y-97988D02*
X-31000Y-101500D01*
X-33000Y-80182D02*
X-31394D01*
X-30575Y-85000D02*
Y-81001D01*
X-31394Y-80182D02*
X-30575Y-81001D01*
X52500Y-29000D02*
X57500D01*
X60000Y-31500D01*
X46000Y-28110D02*
X51610D01*
X52500Y-29000D01*
X20606Y-90000D02*
Y-85000D01*
X15000Y-115000D02*
Y-95000D01*
X16669Y-90669D02*
Y-85000D01*
Y-90669D02*
X19000Y-93000D01*
X14710Y-91710D02*
X17000Y-94000D01*
Y-114000D02*
Y-94000D01*
X12742Y-92742D02*
Y-85000D01*
X19000Y-113115D02*
Y-93000D01*
X10764Y-93764D02*
Y-85000D01*
X13000Y-116000D02*
Y-96000D01*
X10764Y-93764D02*
X13000Y-96000D01*
X14710Y-91710D02*
Y-85000D01*
X12742Y-92742D02*
X15000Y-95000D01*
X10773Y15010D02*
Y18273D01*
X12500Y20000D01*
X36000Y9500D02*
X38323Y11823D01*
X31603Y9500D02*
X36000D01*
X-43500Y-90000D02*
X-42386Y-88886D01*
Y-85000D01*
X2000Y-90000D02*
X2890Y-89110D01*
X2000Y-90000D02*
Y-89787D01*
X2890Y-89110D02*
Y-85000D01*
X-12858D02*
Y-80000D01*
X-16795Y-85000D02*
Y-80000D01*
X-3000Y-105500D02*
Y-93500D01*
X-5000Y-106500D02*
Y-94500D01*
X-3000Y-105500D02*
X5500Y-114000D01*
X-5000Y-106500D02*
X3500Y-115000D01*
X-7000Y-107500D02*
X1000Y-115500D01*
X5500Y-127242D02*
Y-114000D01*
X3500Y-129500D02*
Y-115000D01*
X1000Y-132000D02*
Y-115500D01*
X-7000Y-107500D02*
Y-95500D01*
X-10890Y-91610D02*
X-7000Y-95500D01*
X5500Y-127242D02*
X24758Y-146500D01*
X1000Y-132000D02*
X23500Y-154500D01*
X8795Y-125569D02*
Y-85000D01*
Y-125569D02*
X25726Y-142500D01*
X3500Y-129500D02*
X24500Y-150500D01*
X-8921Y-90579D02*
X-5000Y-94500D01*
X-6943Y-89557D02*
X-3000Y-93500D01*
X-10890Y-91610D02*
Y-85000D01*
X-8921Y-90579D02*
Y-85000D01*
X-6943Y-89557D02*
Y-87156D01*
X-1047Y-85000D02*
Y-74953D01*
X-3016Y-85000D02*
Y-76916D01*
X921Y-85000D02*
Y-72891D01*
X4858Y-95000D02*
Y-85000D01*
X107334Y-180354D02*
Y-168112D01*
X26700Y-123700D02*
X62923D01*
X107334Y-168112D01*
X109303Y-180354D02*
Y-166969D01*
X103397Y-180354D02*
Y-170397D01*
X25900Y-125900D02*
X62011D01*
X27386Y-121500D02*
X63834D01*
X105366Y-180354D02*
Y-169255D01*
X63834Y-121500D02*
X109303Y-166969D01*
X25000Y-128000D02*
X61000D01*
X103397Y-170397D01*
X62011Y-125900D02*
X105366Y-169255D01*
X13000Y-116000D02*
X25000Y-128000D01*
X17000Y-114000D02*
X26700Y-123700D01*
X19000Y-113115D02*
X27386Y-121500D01*
X15000Y-115000D02*
X25900Y-125900D01*
X103397Y-182397D02*
Y-180354D01*
X30449Y-94900D02*
Y-85000D01*
Y-95000D02*
Y-94900D01*
X36354Y-85000D02*
Y-82146D01*
X37500Y-81000D01*
X41332Y-98000D02*
X51000D01*
X38323Y-87797D02*
Y-85000D01*
X34395Y-87895D02*
Y-85009D01*
X40500Y-94000D02*
X43500D01*
X34395Y-87895D02*
X40500Y-94000D01*
X32417Y-89085D02*
X41332Y-98000D01*
X32417Y-89085D02*
Y-85000D01*
X37500Y-81000D02*
X39000D01*
X42000Y-74500D02*
X43114Y-73386D01*
X46000D01*
X34500Y-79000D02*
X42083Y-71417D01*
X46000D01*
Y-77323D02*
X49823D01*
X51000Y-78500D01*
X46000Y-75354D02*
X49897D01*
X50847Y-74404D02*
Y-74153D01*
X49897Y-75354D02*
X50847Y-74404D01*
Y-74153D02*
X51000Y-74000D01*
X49232Y-51732D02*
X51000Y-53500D01*
X37000Y-72500D02*
X40051Y-69449D01*
X46000D01*
X37000Y-66500D02*
X41000D01*
X41988Y-65512D02*
X46000D01*
X41000Y-66500D02*
X41988Y-65512D01*
X37000Y-60500D02*
X39000D01*
X42043Y-63543D01*
X46000D01*
Y-61575D02*
X60047D01*
X51894Y-59606D02*
X55405Y-56094D01*
X46000Y-59606D02*
X51894D01*
X55405Y-56094D02*
X60000D01*
X60047Y-56047D01*
X46000Y-51732D02*
X49232D01*
X50993Y-67480D02*
X52993Y-69480D01*
X46000Y-67480D02*
X50993D01*
X46000Y-49764D02*
X51930D01*
X52930Y-48764D01*
X-32543Y15000D02*
Y20084D01*
X-30593Y22035D01*
Y25000D01*
X-34512Y15000D02*
Y20012D01*
X-36480Y21980D02*
X-34512Y20012D01*
X52000Y-3579D02*
Y-2520D01*
X51091Y-4488D02*
X52000Y-3579D01*
X46000Y-4488D02*
X51091D01*
X46000Y-2520D02*
X52000D01*
X55900Y-551D02*
X56000D01*
X52703D02*
X55900D01*
X52000Y-2520D02*
Y-1254D01*
X52703Y-551D01*
X56189Y-23272D02*
X59342D01*
X55122Y-22205D02*
X56189Y-23272D01*
X46000Y-22205D02*
X55122D01*
X60201Y-27000D02*
X67731D01*
X59342Y-26142D02*
Y-23272D01*
Y-26142D02*
X60201Y-27000D01*
X67731D02*
X70731Y-24000D01*
X73900D01*
X64657Y-19138D02*
Y-17000D01*
X63639Y-15982D02*
X64657Y-17000D01*
Y-19138D02*
X69362D01*
X70500Y-18000D01*
X73900D01*
X38323Y11823D02*
Y15000D01*
X12789Y24000D02*
X17169D01*
X8795Y20006D02*
X12789Y24000D01*
X8795Y15000D02*
Y20006D01*
X-30575Y9640D02*
Y15000D01*
X-32500Y5500D02*
Y7715D01*
X-30575Y9640D01*
X-26500Y5500D02*
Y7500D01*
X-28606Y9606D02*
Y15000D01*
Y9606D02*
X-26500Y7500D01*
X-44354Y6354D02*
Y15000D01*
X-40417Y10968D02*
Y15000D01*
X-16795Y9500D02*
Y15000D01*
X-24669Y9500D02*
Y15000D01*
X-35500Y9500D02*
Y9623D01*
X-36480Y10603D02*
Y15000D01*
Y10603D02*
X-35500Y9623D01*
X-8921Y15000D02*
Y19976D01*
X-10890Y11468D02*
Y15000D01*
X-12858Y9500D02*
X-10890Y11468D01*
X-12858Y19197D02*
X-12000Y20055D01*
X-12858Y15000D02*
Y19197D01*
X-20732Y9500D02*
Y15000D01*
X-18764D02*
Y19976D01*
X-22701Y15000D02*
Y18756D01*
X-24000Y20055D02*
X-22701Y18756D01*
X-38449Y15000D02*
Y19976D01*
X-26647Y15010D02*
Y17647D01*
X-29000Y20000D02*
X-26647Y17647D01*
X-42386Y9386D02*
Y15000D01*
Y9386D02*
X-41000Y8000D01*
X-54000Y-4488D02*
X-46488D01*
X-42000Y0D01*
X-51844Y-2524D02*
X-48524D01*
X-46000Y0D01*
X-49844Y-551D02*
X-48000Y1293D01*
X-50982Y1417D02*
X-50000Y2400D01*
X-54000Y1417D02*
X-50982D01*
X-54000Y-551D02*
X-49844D01*
X-170260Y-190685D02*
X-163000D01*
X-228000Y54000D02*
X-223000Y49000D01*
X-238740Y49587D02*
Y52260D01*
X-237000Y54000D01*
X-228000D01*
X-199974Y9026D02*
X-193026D01*
X-193000Y9000D01*
X-53000Y179000D02*
Y193921D01*
X-70000Y177000D02*
X-59000D01*
X-56000Y180000D02*
Y194051D01*
X-59000Y177000D02*
X-56000Y180000D01*
Y194051D02*
X-48953Y201098D01*
X-72000Y175000D02*
X-70000Y177000D01*
X-72000Y171103D02*
Y175000D01*
X-34016Y212984D02*
X-31000Y216000D01*
X-38323Y212984D02*
X-34016D01*
X-36345Y216921D02*
X-35047Y218219D01*
X-38323Y216921D02*
X-36345D01*
X-41079Y219677D02*
Y222424D01*
X-50921Y219677D02*
Y222424D01*
X-59900Y219711D02*
Y225000D01*
Y219711D02*
X-57110Y216921D01*
X-53677D01*
X-59949Y205000D02*
X-58000D01*
X-55921Y207079D02*
X-53677D01*
X-58000Y205000D02*
X-55921Y207079D01*
X-195000Y137000D02*
Y140685D01*
Y151315D02*
Y155000D01*
X-3000Y189000D02*
Y192949D01*
X-21000Y189000D02*
Y192949D01*
X-9000Y189000D02*
Y192949D01*
X-15000Y189000D02*
Y192949D01*
X-21000Y199051D02*
X-15000D01*
X-9000D02*
X-3000D01*
X-30916Y205000D02*
X-17500D01*
X-27884Y211016D02*
X-27000Y211900D01*
X-38323Y211016D02*
X-27884D01*
X-37703Y199100D02*
X-33000D01*
X-41079Y202476D02*
Y204323D01*
Y202476D02*
X-37703Y199100D01*
X-41342Y192067D02*
Y197328D01*
X-43047Y199033D02*
X-41342Y197328D01*
X-43047Y199033D02*
Y200069D01*
Y204323D01*
X-32995Y207079D02*
X-30916Y205000D01*
X-32047Y209047D02*
X-30000Y207000D01*
X-41342Y184000D02*
Y187933D01*
X-50000Y189002D02*
Y193852D01*
Y189002D02*
X-48931Y187933D01*
X-46657D01*
X-59900Y198949D02*
X-54051D01*
X-50921Y202079D02*
Y204323D01*
X-48953Y201098D02*
Y204323D01*
X-54051Y198949D02*
X-50921Y202079D01*
X-60959Y-69000D02*
X-59439Y-67480D01*
X-63900Y-69000D02*
X-60959D01*
X-59439Y-67480D02*
X-54000D01*
X-63900Y-63000D02*
X-63356Y-63543D01*
X-54000D01*
X64657Y-23272D02*
X68000D01*
X80100Y-24000D02*
X84000D01*
X80100Y-18000D02*
X84000D01*
X60047Y-61953D02*
X68900D01*
X60000Y-62000D02*
X60047Y-61953D01*
Y-56047D02*
X68900D01*
X154252Y172638D02*
Y177000D01*
X132205Y123000D02*
Y127362D01*
X138504Y123000D02*
Y127362D01*
X240000Y15000D02*
Y18949D01*
X202400Y25500D02*
X210272D01*
Y40500D02*
X215000D01*
X210272Y-6500D02*
X215000D01*
X239551Y25500D02*
X240000Y25051D01*
X231728Y25500D02*
X239551D01*
X231728Y35500D02*
X239551D01*
X240000Y35949D01*
Y42051D02*
Y46000D01*
X202000Y42051D02*
Y46000D01*
X203830Y30500D02*
X210272D01*
X202000Y32330D02*
Y35949D01*
Y32330D02*
X203830Y30500D01*
X202400Y-21500D02*
X210272D01*
X240000Y-32000D02*
Y-28051D01*
Y-4949D02*
Y-1000D01*
X202000Y-4949D02*
Y-1000D01*
X204000Y-16500D02*
X210272D01*
X202000Y-14500D02*
Y-11051D01*
Y-14500D02*
X204000Y-16500D01*
X231728Y-11500D02*
X239551D01*
X240000Y-11051D01*
X239551Y-21500D02*
X240000Y-21949D01*
X231728Y-21500D02*
X239551D01*
X186200Y-169949D02*
Y-166000D01*
X185568Y-165368D02*
X186200Y-166000D01*
X185568Y-165368D02*
Y-159189D01*
X180200Y-169949D02*
Y-166000D01*
X180828Y-165372D01*
Y-159189D01*
X173013Y-120707D02*
X178707D01*
X181000Y-123000D01*
X195048Y-106832D02*
Y-101189D01*
X210500Y-90051D02*
X216500D01*
X198500Y-94000D02*
Y-90051D01*
Y-94000D02*
X199788Y-95288D01*
Y-101189D02*
Y-95288D01*
X210500Y-94000D02*
Y-90051D01*
X209268Y-95231D02*
X210500Y-94000D01*
X209268Y-101189D02*
Y-95231D01*
X204500Y-90051D02*
X204528Y-90079D01*
Y-101189D02*
Y-90079D01*
X216500Y-83949D02*
Y-80000D01*
X232969Y-83949D02*
Y-80000D01*
Y-101189D02*
Y-90051D01*
X152000Y-146266D02*
Y-143000D01*
X152703Y-146968D02*
X155441D01*
X152000Y-146266D02*
X152703Y-146968D01*
X160575Y-146984D02*
X164984D01*
X160559Y-146968D02*
X160575Y-146984D01*
X164984D02*
X165000Y-147000D01*
X144000Y-142000D02*
X147900D01*
X144000Y-148100D02*
X148000D01*
X147900Y-142000D02*
X148000Y-141900D01*
X160559Y-143032D02*
X164000D01*
X165811Y-141220D02*
Y-137000D01*
X164000Y-143032D02*
X165811Y-141220D01*
X167884Y-134927D02*
X173013D01*
X165811Y-137000D02*
X167884Y-134927D01*
X155409Y-143000D02*
X155441Y-143032D01*
X152000Y-143000D02*
X155409D01*
X148000Y-141900D02*
X150900D01*
X152000Y-143000D01*
X161051Y-136000D02*
Y-130000D01*
X161238Y-130187D01*
X173013D01*
X161051Y-160000D02*
X164000D01*
X166000Y-158000D01*
Y-156000D01*
X168112Y-153888D01*
X173013D01*
X218749Y-169949D02*
Y-159189D01*
Y-179900D02*
Y-176051D01*
X-15740Y-213000D02*
Y-210276D01*
Y-213000D02*
X-13740Y-215000D01*
X-12000D01*
X20260Y-213000D02*
X22260Y-215000D01*
X20260Y-213000D02*
Y-210276D01*
X22260Y-215000D02*
X24000D01*
X14000Y-201000D02*
Y-197100D01*
X6677Y-196736D02*
Y-196614D01*
X6941Y-197000D02*
X13900D01*
X6677Y-196736D02*
X6941Y-197000D01*
X13740Y-226000D02*
Y-210276D01*
Y-232276D02*
Y-226000D01*
X20949D01*
X13051D02*
X13740D01*
X27051D02*
Y-221000D01*
X25776Y-219724D02*
X27051Y-221000D01*
X24000Y-219724D02*
X25776D01*
X-8949Y-226000D02*
Y-221000D01*
X-10224Y-219724D02*
X-8949Y-221000D01*
X-12000Y-219724D02*
X-10224D01*
X-22260Y-226000D02*
Y-210276D01*
Y-232276D02*
Y-226000D01*
X-15051D01*
X-22949D02*
X-22260D01*
X27051Y-204000D02*
X27740Y-204689D01*
Y-210276D02*
Y-204689D01*
X-3559Y-201000D02*
Y-196614D01*
Y-201000D02*
X-559Y-204000D01*
X20949D01*
X-8949D02*
X-8260Y-204689D01*
Y-210276D02*
Y-204689D01*
X-15051Y-204000D02*
X-15000Y-203949D01*
Y-200000D01*
X-11614Y-196614D02*
X-8677D01*
X-15000Y-200000D02*
X-11614Y-196614D01*
X14000Y-180051D02*
X18000D01*
X20673Y-182724D02*
X24000D01*
X18000Y-180051D02*
X20673Y-182724D01*
X13900Y-189000D02*
X14000Y-188900D01*
Y-180051D01*
X-20000D02*
X-16000D01*
X-22673Y-182724D02*
X-20000Y-180051D01*
X-26000Y-182724D02*
X-22673D01*
X-16000Y-188900D02*
Y-180051D01*
Y-188900D02*
X-15900Y-189000D01*
X-1000Y-196614D02*
Y-192283D01*
X2283Y-189000D01*
X13900D01*
X-9402D02*
X-6118Y-192283D01*
Y-196614D02*
Y-192283D01*
X-15900Y-189000D02*
X-9402D01*
X17248Y-177000D02*
X24803D01*
X27740Y-174063D01*
Y-173276D01*
X14197Y-173949D02*
X17248Y-177000D01*
X14000Y-173949D02*
X14197D01*
X-21679D02*
X-16000D01*
X-22260Y-173368D02*
X-21679Y-173949D01*
X-22260Y-173368D02*
Y-173276D01*
X-1000Y-178000D02*
X5974D01*
X-9000D02*
X-1000D01*
Y-173386D01*
X-15949Y-174000D02*
X-13000D01*
X-16000Y-173949D02*
X-15949Y-174000D01*
X-13000D02*
X-9000Y-178000D01*
X5974D02*
X6677Y-177297D01*
Y-173386D01*
X14000Y-173949D02*
Y-171100D01*
X11900Y-169000D02*
X14000Y-171100D01*
X5000Y-169000D02*
X11900D01*
X4118Y-173386D02*
Y-169882D01*
X5000Y-169000D01*
X1559Y-169390D02*
X3974Y-166974D01*
X6677D01*
X8051Y-165600D02*
Y-163000D01*
X1559Y-173386D02*
Y-169390D01*
X6677Y-166974D02*
X8051Y-165600D01*
X118032Y-184031D02*
X120000Y-186000D01*
X109303Y-182063D02*
X111271Y-184031D01*
X118032D01*
X114000Y-200000D02*
Y-196051D01*
X101100Y-196000D02*
X101429Y-195672D01*
X103397Y-182397D02*
X108000Y-187000D01*
Y-189949D02*
Y-187000D01*
X107334Y-183334D02*
Y-180354D01*
Y-183334D02*
X110000Y-186000D01*
X113000D01*
X109303Y-182063D02*
Y-180354D01*
X114000Y-189949D02*
Y-187000D01*
X113000Y-186000D02*
X114000Y-187000D01*
X120000Y-189949D02*
Y-186000D01*
X-170260Y-208114D02*
Y-201315D01*
X-132886Y-198000D02*
Y-193746D01*
X-200000Y9051D02*
X-199974Y9026D01*
X-123043Y-200000D02*
Y-193746D01*
X-206685Y13000D02*
X-201500D01*
X-200000Y9051D02*
Y11500D01*
X-201500Y13000D02*
X-200000Y11500D01*
Y-1000D02*
Y2949D01*
X-219000Y-3000D02*
X-215051D01*
X-219000Y3000D02*
X-215051D01*
X-208694Y5470D02*
X-206685Y7479D01*
Y9260D01*
X-208949Y3000D02*
X-208694Y3255D01*
Y5470D01*
X-208949Y-3000D02*
Y3000D01*
X-206685Y16740D02*
X-200000D01*
Y16900D01*
X-247000Y73051D02*
Y77000D01*
X-194703Y55581D02*
X-194000Y56284D01*
X-198104Y55581D02*
X-194703D01*
X-198104Y54419D02*
X-194719D01*
X-192249Y51949D02*
X-189000D01*
X-194719Y54419D02*
X-192249Y51949D01*
X-198685Y55000D02*
X-198104Y55581D01*
X-180051Y58051D02*
X-175700Y53700D01*
X-183000Y49000D02*
Y51949D01*
X-198685Y51260D02*
X-194815D01*
X-198685Y55000D02*
X-198104Y54419D01*
X-220866Y74118D02*
X-217984Y77000D01*
X-180260Y195311D02*
X-180000Y195051D01*
X-180260Y195311D02*
Y201276D01*
X-196260Y195311D02*
X-196000Y195051D01*
X-196260Y195311D02*
Y201276D01*
X-212260Y195311D02*
X-212000Y195051D01*
X-212260Y195311D02*
Y201276D01*
X-220000Y195051D02*
X-219740Y195311D01*
Y201276D01*
X-204000Y195051D02*
X-203740Y195311D01*
Y201276D01*
X-188000Y195051D02*
X-187740Y195311D01*
Y201276D01*
X-188000Y188949D02*
X-180000D01*
X-204000D02*
X-196000D01*
X-180000D02*
X-175000D01*
X-22701Y-121299D02*
X22500Y-166500D01*
X-18764Y-116260D02*
X23477Y-158500D01*
X-20732Y-119070D02*
X22698Y-162500D01*
X-20732Y-119070D02*
Y-85000D01*
X-18764Y-116260D02*
Y-85000D01*
X221000Y30500D02*
X231728D01*
X210272Y35500D02*
X218000D01*
X221000Y-16500D02*
X231728D01*
X210272Y-11500D02*
X218000D01*
X227299Y25500D02*
X231728D01*
X227328Y-21472D02*
X231700D01*
X231728Y-21500D01*
X227299Y-21443D02*
X227328Y-21472D01*
X-22701Y-121299D02*
Y-85000D01*
X210500Y-83949D02*
Y-80000D01*
X204500Y-83949D02*
Y-80000D01*
X198500Y-83949D02*
Y-80000D01*
X151000Y-160000D02*
X154949D01*
X151000Y-154000D02*
X154949D01*
X186200Y-179900D02*
Y-176051D01*
X180200Y-179900D02*
Y-176051D01*
X-38323Y207079D02*
X-32995D01*
X-38323Y209047D02*
X-32047D01*
X-50410Y229641D02*
Y232410D01*
Y229641D02*
X-46984Y226215D01*
Y219677D02*
Y226215D01*
X-35047Y214953D02*
X-33000Y217000D01*
X-39000Y227546D02*
Y230949D01*
X-43047Y219677D02*
Y223499D01*
X-39000Y227546D01*
X-38323Y214953D02*
X-35047D01*
X-81705Y-185968D02*
X-79736Y-184000D01*
X-81705Y-193746D02*
Y-185968D01*
X34386Y-85000D02*
X34395Y-85009D01*
X-4984Y-85000D02*
Y-79016D01*
X-3949Y-163000D02*
X1949D01*
X83689Y-230740D02*
X83949Y-231000D01*
X77724Y-230740D02*
X83689D01*
X83689Y-223260D02*
X83949Y-223000D01*
X77724Y-223260D02*
X83689D01*
X4118Y-196614D02*
Y-192283D01*
X-26087Y-189000D02*
X-22100D01*
X20100Y-197000D02*
X24087D01*
X20100Y-197000D02*
X20100Y-197000D01*
X20100Y-189000D02*
X20167Y-189067D01*
X24087D01*
X13900Y-197000D02*
X14000Y-197100D01*
X43403Y-561D02*
X45991D01*
X46000Y-551D01*
X144803Y172638D02*
Y181703D01*
X145000Y181900D01*
X163701Y181600D02*
X164000Y181900D01*
X163701Y172638D02*
Y181600D01*
X210945Y118156D02*
Y127362D01*
Y118156D02*
X211000Y118100D01*
X170000D02*
Y127362D01*
X154000Y118100D02*
X154252Y118352D01*
Y127362D01*
X135354Y118746D02*
X136000Y118100D01*
X135354Y118746D02*
Y127362D01*
X129055Y119156D02*
Y127362D01*
X128000Y118100D02*
X129055Y119156D01*
X10764Y15000D02*
X10773Y15010D01*
X-26647D02*
X-26638Y15000D01*
X179414Y172603D02*
X179449Y172638D01*
X207795D02*
X207809Y172624D01*
X-14827Y-95000D02*
Y-85000D01*
X-40417Y-95000D02*
Y-85000D01*
X-64000Y-41890D02*
X-54000D01*
X-64000D02*
Y-35795D01*
Y-20236D02*
X-54000D01*
X56000Y-600D02*
Y-551D01*
D102*
X-70650Y193000D02*
X-66100D01*
X-70500Y199000D02*
X-66100D01*
X175700Y-90000D02*
X179400D01*
X175700Y-83000D02*
X179400D01*
X-202102Y235102D02*
X-200000Y233000D01*
Y229610D02*
Y233000D01*
X-202102Y235102D02*
Y241244D01*
X-206244Y246756D02*
X-202102D01*
X-216000Y229610D02*
Y237000D01*
X-206244Y246756D01*
X-185757Y241244D02*
X-184000Y239487D01*
X-189898Y241244D02*
X-185757D01*
X-184000Y229610D02*
Y239487D01*
X185600Y-83000D02*
Y-79000D01*
Y-90000D02*
Y-83000D01*
Y-90436D02*
Y-90000D01*
X-15000Y211900D02*
X-11000D01*
X-21000D02*
X-15000D01*
X161000Y-115900D02*
Y-111500D01*
X-15000Y218100D02*
Y222041D01*
X-21000Y218100D02*
Y222000D01*
X-59900Y237000D02*
Y241500D01*
Y231000D02*
Y237000D01*
Y187000D02*
Y192949D01*
Y182500D02*
Y187000D01*
X-70650D02*
X-66100D01*
X-70500Y237000D02*
X-66100D01*
X-70500Y231000D02*
X-66100D01*
X-70500Y225000D02*
X-66100D01*
X-59900Y192949D02*
Y198949D01*
Y225000D02*
Y231000D01*
X-33000Y199100D02*
X-27000D01*
X-33000Y189000D02*
Y192900D01*
X-27000Y189000D02*
Y192900D01*
Y211900D02*
X-21000D01*
X237709Y-108000D02*
Y-101189D01*
X180828Y-108000D02*
Y-101189D01*
X173013Y-139667D02*
X180828D01*
X195048Y-159189D02*
Y-152000D01*
X232969Y-159189D02*
Y-152000D01*
X185568Y-101189D02*
Y-90469D01*
X161000Y-122100D02*
X161049D01*
X164396Y-125447D02*
X173013D01*
X161049Y-122100D02*
X164396Y-125447D01*
X160952Y-122052D02*
X161000Y-122100D01*
X151000Y-122004D02*
X151048Y-122052D01*
X160952D01*
X-136429Y-205000D02*
X-131100D01*
X-124900D02*
X-119958D01*
X-231782Y74118D02*
X-220866D01*
X-231900Y74000D02*
X-231782Y74118D01*
X-231900Y67000D02*
Y74000D01*
X-189898Y246756D02*
X-183000D01*
X-184000Y210724D02*
Y218390D01*
X-200000Y210724D02*
Y218390D01*
X-216000Y210724D02*
Y218390D01*
D103*
X205800Y-130000D02*
X218000D01*
X194000D02*
X205800D01*
Y-118000D01*
Y-142000D02*
Y-130000D01*
D104*
X39039Y123756D02*
D03*
X18961Y118244D02*
D03*
D105*
X-112500Y126000D02*
D03*
Y165800D02*
D03*
Y116000D02*
D03*
Y155800D02*
D03*
D106*
X-153700Y158400D02*
D03*
D107*
X-163700Y153400D02*
D03*
X-153700Y148400D02*
D03*
X-163700Y143400D02*
D03*
X-153700Y138400D02*
D03*
X-163700Y133400D02*
D03*
X-153700Y128400D02*
D03*
X-163700Y123400D02*
D03*
D108*
X-144000Y172200D02*
D03*
Y109600D02*
D03*
D109*
X-220000Y83075D02*
D03*
Y54925D02*
D03*
D110*
X-220866Y74118D02*
D03*
X-216929Y71559D02*
D03*
X-220866Y69000D02*
D03*
X-216929Y66441D02*
D03*
X-220866Y63882D02*
D03*
D111*
X12000Y162000D02*
D03*
Y152000D02*
D03*
X79961Y-192400D02*
D03*
D112*
X12000Y142000D02*
D03*
X50039Y-192400D02*
D03*
D113*
X-245000Y90000D02*
D03*
Y105000D02*
D03*
Y120000D02*
D03*
Y135000D02*
D03*
Y150000D02*
D03*
D114*
X-185000Y-105000D02*
D03*
Y-120000D02*
D03*
X-170000Y-105000D02*
D03*
Y-120000D02*
D03*
X-155000Y-105000D02*
D03*
Y-120000D02*
D03*
X-140000D02*
D03*
Y-105000D02*
D03*
X-240000Y-60000D02*
D03*
Y-75000D02*
D03*
X-225000Y-60000D02*
D03*
Y-75000D02*
D03*
X-210000D02*
D03*
Y-60000D02*
D03*
X-240000Y-45000D02*
D03*
X-225000D02*
D03*
X-210000D02*
D03*
Y-15000D02*
D03*
Y-30000D02*
D03*
X-225000Y-15000D02*
D03*
Y-30000D02*
D03*
X-240000D02*
D03*
Y-15000D02*
D03*
X-225000Y-155000D02*
D03*
X-240000D02*
D03*
X-225000Y-170000D02*
D03*
X-240000D02*
D03*
X-210000Y-185000D02*
D03*
X-240000D02*
D03*
Y-215000D02*
D03*
Y-200000D02*
D03*
X-225000D02*
D03*
Y-215000D02*
D03*
X-210000Y-200000D02*
D03*
Y-245000D02*
D03*
Y-230000D02*
D03*
Y-215000D02*
D03*
X-195000D02*
D03*
Y-230000D02*
D03*
Y-245000D02*
D03*
X-180000Y-215000D02*
D03*
Y-230000D02*
D03*
Y-245000D02*
D03*
X-165000Y-215000D02*
D03*
Y-230000D02*
D03*
Y-245000D02*
D03*
X-95000Y-215000D02*
D03*
Y-230000D02*
D03*
X-80000D02*
D03*
X-65000D02*
D03*
X-50000D02*
D03*
Y-245000D02*
D03*
X-65000D02*
D03*
X-80000D02*
D03*
X-95000D02*
D03*
X60000D02*
D03*
X75000D02*
D03*
X90000D02*
D03*
X135000Y-180000D02*
D03*
Y-195000D02*
D03*
X150000D02*
D03*
X165000Y-240000D02*
D03*
Y-225000D02*
D03*
Y-210000D02*
D03*
Y-195000D02*
D03*
X180000D02*
D03*
Y-210000D02*
D03*
Y-225000D02*
D03*
Y-240000D02*
D03*
X195000D02*
D03*
Y-225000D02*
D03*
Y-195000D02*
D03*
Y-210000D02*
D03*
X225000Y-195000D02*
D03*
Y-210500D02*
D03*
X210000Y-195000D02*
D03*
Y-210500D02*
D03*
Y-225000D02*
D03*
Y-240000D02*
D03*
X200000Y-60000D02*
D03*
X215000D02*
D03*
X230000Y-75000D02*
D03*
Y-60000D02*
D03*
Y-45000D02*
D03*
X245000D02*
D03*
Y-60000D02*
D03*
Y-75000D02*
D03*
X200000Y50000D02*
D03*
X215000D02*
D03*
Y65000D02*
D03*
X230000D02*
D03*
Y80000D02*
D03*
X245000D02*
D03*
Y65000D02*
D03*
X230000Y50000D02*
D03*
X245000D02*
D03*
X230000Y110000D02*
D03*
Y125000D02*
D03*
X245000D02*
D03*
Y110000D02*
D03*
X230000Y95000D02*
D03*
X245000D02*
D03*
X230000Y155000D02*
D03*
Y170000D02*
D03*
X245000D02*
D03*
Y155000D02*
D03*
X230000Y140000D02*
D03*
X245000D02*
D03*
Y185000D02*
D03*
X230000D02*
D03*
X245000Y200000D02*
D03*
Y215000D02*
D03*
X230000D02*
D03*
Y200000D02*
D03*
X215000Y185000D02*
D03*
X200000D02*
D03*
X185000D02*
D03*
X200000Y215000D02*
D03*
X215000Y200000D02*
D03*
Y215000D02*
D03*
Y230000D02*
D03*
X200000D02*
D03*
X215000Y245000D02*
D03*
X200000D02*
D03*
X185000D02*
D03*
Y230000D02*
D03*
Y200000D02*
D03*
Y215000D02*
D03*
X170000Y200000D02*
D03*
Y215000D02*
D03*
X155000Y200000D02*
D03*
Y215000D02*
D03*
X140000Y200000D02*
D03*
Y215000D02*
D03*
X125500Y200000D02*
D03*
Y215000D02*
D03*
X110000Y200000D02*
D03*
Y215000D02*
D03*
X5000Y200000D02*
D03*
X35000D02*
D03*
X95000D02*
D03*
X80000D02*
D03*
X65000D02*
D03*
X50000D02*
D03*
X95000Y215000D02*
D03*
X80000D02*
D03*
Y230000D02*
D03*
X65000D02*
D03*
Y215000D02*
D03*
X50000D02*
D03*
Y230000D02*
D03*
X35000D02*
D03*
Y215000D02*
D03*
X20000D02*
D03*
Y230000D02*
D03*
X5000D02*
D03*
X-10000D02*
D03*
X20000Y245000D02*
D03*
X5000D02*
D03*
X-10000D02*
D03*
X-30000D02*
D03*
X-55000D02*
D03*
X-70000D02*
D03*
X-85000Y230000D02*
D03*
Y245000D02*
D03*
X-155000Y190000D02*
D03*
X-170000Y215000D02*
D03*
X-90000Y205000D02*
D03*
X-115000D02*
D03*
Y215000D02*
D03*
X-145000D02*
D03*
X-85000D02*
D03*
X-220000Y245000D02*
D03*
X-210000Y235000D02*
D03*
X-235000Y95000D02*
D03*
Y155000D02*
D03*
Y140000D02*
D03*
X-230000Y215000D02*
D03*
X-245000D02*
D03*
Y200000D02*
D03*
Y165000D02*
D03*
X79000Y-62047D02*
D03*
Y-59047D02*
D03*
X84000Y-18000D02*
D03*
Y-24000D02*
D03*
X174000Y-179900D02*
D03*
X120000Y-200000D02*
D03*
X108000D02*
D03*
X91000Y-190000D02*
D03*
Y-196000D02*
D03*
X-500Y-167500D02*
D03*
X-12000Y-170500D02*
D03*
X-10051Y-166974D02*
D03*
X-98898Y130000D02*
D03*
Y120000D02*
D03*
Y159800D02*
D03*
X-241630Y74000D02*
D03*
Y67000D02*
D03*
X-242000Y43000D02*
D03*
X45000Y-236000D02*
D03*
Y-217500D02*
D03*
X175700Y-90000D02*
D03*
Y-83000D02*
D03*
X202000Y15000D02*
D03*
X195000D02*
D03*
X202000Y-32000D02*
D03*
X195000D02*
D03*
X-235136Y130000D02*
D03*
Y120000D02*
D03*
Y115000D02*
D03*
X-195000Y110000D02*
D03*
X-220000Y180000D02*
D03*
X-197000D02*
D03*
X-80614Y-254500D02*
D03*
X-86586D02*
D03*
X-92557D02*
D03*
X-98529D02*
D03*
X-50757D02*
D03*
X-56729D02*
D03*
X-62700D02*
D03*
X-68672D02*
D03*
X-74643D02*
D03*
X-20900D02*
D03*
X-26871D02*
D03*
X-32843D02*
D03*
X-38814D02*
D03*
X-44786D02*
D03*
X8957D02*
D03*
X2986D02*
D03*
X-2986D02*
D03*
X-8957D02*
D03*
X-14929D02*
D03*
X38814D02*
D03*
X32843D02*
D03*
X26871D02*
D03*
X20900D02*
D03*
X14928D02*
D03*
X68671D02*
D03*
X62700D02*
D03*
X56728D02*
D03*
X50757D02*
D03*
X44785D02*
D03*
X98528D02*
D03*
X92557D02*
D03*
X86585D02*
D03*
X80614D02*
D03*
X74643D02*
D03*
X-89062Y254500D02*
D03*
X-59375D02*
D03*
X-65312D02*
D03*
X-71250D02*
D03*
X-77188D02*
D03*
X-83125D02*
D03*
X-29688D02*
D03*
X-35625D02*
D03*
X-41563D02*
D03*
X-47500D02*
D03*
X-53438D02*
D03*
X0D02*
D03*
X-5937D02*
D03*
X-11875D02*
D03*
X-17812D02*
D03*
X-23750D02*
D03*
X29688D02*
D03*
X23750D02*
D03*
X17812D02*
D03*
X11875D02*
D03*
X5937D02*
D03*
X59375D02*
D03*
X53438D02*
D03*
X47500D02*
D03*
X41563D02*
D03*
X35625D02*
D03*
X65312D02*
D03*
X71250D02*
D03*
X77188D02*
D03*
X83125D02*
D03*
X89062D02*
D03*
X-256800Y-216569D02*
D03*
Y-210539D02*
D03*
Y-204508D02*
D03*
Y-198477D02*
D03*
Y-138171D02*
D03*
Y-144201D02*
D03*
Y-150232D02*
D03*
Y-156263D02*
D03*
Y-162293D02*
D03*
Y-168324D02*
D03*
Y-174355D02*
D03*
Y-180385D02*
D03*
Y-186416D02*
D03*
Y-192447D02*
D03*
Y-77864D02*
D03*
Y-83895D02*
D03*
Y-89925D02*
D03*
Y-95956D02*
D03*
Y-101987D02*
D03*
Y-108018D02*
D03*
Y-114048D02*
D03*
Y-120079D02*
D03*
Y-126109D02*
D03*
Y-132140D02*
D03*
Y-17558D02*
D03*
Y-23588D02*
D03*
Y-29619D02*
D03*
Y-35649D02*
D03*
Y-41680D02*
D03*
Y-47711D02*
D03*
Y-53742D02*
D03*
Y-59772D02*
D03*
Y-65803D02*
D03*
Y-71833D02*
D03*
Y42749D02*
D03*
Y36718D02*
D03*
Y30688D02*
D03*
Y24657D02*
D03*
Y18626D02*
D03*
Y12596D02*
D03*
Y6565D02*
D03*
Y534D02*
D03*
Y-5496D02*
D03*
Y-11527D02*
D03*
Y103056D02*
D03*
Y97025D02*
D03*
Y90994D02*
D03*
Y84964D02*
D03*
Y78933D02*
D03*
Y72902D02*
D03*
Y66872D02*
D03*
Y60841D02*
D03*
Y54810D02*
D03*
Y48780D02*
D03*
Y163362D02*
D03*
Y157332D02*
D03*
Y151301D02*
D03*
Y145270D02*
D03*
Y139240D02*
D03*
Y133209D02*
D03*
Y127178D02*
D03*
Y121148D02*
D03*
Y115117D02*
D03*
Y109086D02*
D03*
Y169393D02*
D03*
Y175424D02*
D03*
Y181454D02*
D03*
Y187485D02*
D03*
Y193516D02*
D03*
Y199546D02*
D03*
Y205577D02*
D03*
Y211608D02*
D03*
Y217638D02*
D03*
Y223669D02*
D03*
X-95000Y230000D02*
D03*
X-175000D02*
D03*
X-175000Y254500D02*
D03*
X-232000D02*
D03*
X-256800Y229699D02*
D03*
Y-229700D02*
D03*
X-232000Y-254500D02*
D03*
X-149500D02*
D03*
X-149500Y-211500D02*
D03*
X-104500Y-211500D02*
D03*
Y-254500D02*
D03*
X-95000Y248375D02*
D03*
Y236125D02*
D03*
Y242250D02*
D03*
X-168846Y230000D02*
D03*
X-162692D02*
D03*
X-156538D02*
D03*
X-150385D02*
D03*
X-144231D02*
D03*
X-138077D02*
D03*
X-131923D02*
D03*
X-125769D02*
D03*
X-119615D02*
D03*
X-113461D02*
D03*
X-107308D02*
D03*
X-101154D02*
D03*
X-175000Y248375D02*
D03*
Y242250D02*
D03*
Y236125D02*
D03*
X-225667Y254500D02*
D03*
X-219333D02*
D03*
X-213000D02*
D03*
X-206667D02*
D03*
X-200333D02*
D03*
X-194000D02*
D03*
X-187667D02*
D03*
X-181333D02*
D03*
X-256800Y-222600D02*
D03*
X-226107Y-254500D02*
D03*
X-220214D02*
D03*
X-214321D02*
D03*
X-208429D02*
D03*
X-202536D02*
D03*
X-196643D02*
D03*
X-190750D02*
D03*
X-184857D02*
D03*
X-178964D02*
D03*
X-173071D02*
D03*
X-167178D02*
D03*
X-161286D02*
D03*
X-155393D02*
D03*
X-149500Y-248357D02*
D03*
Y-242214D02*
D03*
Y-236071D02*
D03*
Y-229929D02*
D03*
Y-223786D02*
D03*
Y-217643D02*
D03*
X-143071Y-211500D02*
D03*
X-136643Y-211500D02*
D03*
X-130214D02*
D03*
X-123786D02*
D03*
X-117357D02*
D03*
X-110929D02*
D03*
X-255300Y235800D02*
D03*
X-252700Y241542D02*
D03*
X-248700Y246400D02*
D03*
X-243842Y250400D02*
D03*
X-238100Y253000D02*
D03*
Y-253000D02*
D03*
X-243842Y-250400D02*
D03*
X-248700Y-246400D02*
D03*
X-252700Y-241542D02*
D03*
X-255300Y-235800D02*
D03*
X-104500Y-217643D02*
D03*
Y-223786D02*
D03*
Y-229928D02*
D03*
Y-236071D02*
D03*
Y-242214D02*
D03*
Y-248357D02*
D03*
X104500D02*
D03*
Y-242214D02*
D03*
Y-236071D02*
D03*
Y-229928D02*
D03*
Y-223786D02*
D03*
Y-217643D02*
D03*
X255300Y-235800D02*
D03*
X252700Y-241542D02*
D03*
X248700Y-246400D02*
D03*
X243842Y-250400D02*
D03*
X238100Y-253000D02*
D03*
Y253000D02*
D03*
X243842Y250400D02*
D03*
X248700Y246400D02*
D03*
X252700Y241542D02*
D03*
X255300Y235800D02*
D03*
X110929Y-211500D02*
D03*
X117357D02*
D03*
X123786D02*
D03*
X130214D02*
D03*
X136643D02*
D03*
X143071Y-211500D02*
D03*
X149500Y-217643D02*
D03*
Y-223786D02*
D03*
Y-229929D02*
D03*
Y-236071D02*
D03*
Y-242214D02*
D03*
Y-248357D02*
D03*
X155393Y-254500D02*
D03*
X161286D02*
D03*
X167178D02*
D03*
X173071D02*
D03*
X178964D02*
D03*
X184857D02*
D03*
X190750D02*
D03*
X196643D02*
D03*
X202536D02*
D03*
X208429D02*
D03*
X214321D02*
D03*
X220214D02*
D03*
X226107D02*
D03*
X256800Y-222600D02*
D03*
X239700Y-215500D02*
D03*
X245400D02*
D03*
X251100D02*
D03*
X234000Y-136572D02*
D03*
Y-142643D02*
D03*
Y-166929D02*
D03*
Y-173000D02*
D03*
Y-179071D02*
D03*
Y-185143D02*
D03*
Y-191214D02*
D03*
Y-197286D02*
D03*
Y-203357D02*
D03*
Y-209429D02*
D03*
X238500Y-119500D02*
D03*
Y-125000D02*
D03*
Y-114000D02*
D03*
X244600Y-96000D02*
D03*
X250700D02*
D03*
X256800Y223668D02*
D03*
Y217637D02*
D03*
Y211606D02*
D03*
Y151291D02*
D03*
Y157322D02*
D03*
Y163354D02*
D03*
Y169385D02*
D03*
Y175417D02*
D03*
Y181448D02*
D03*
Y187480D02*
D03*
Y193511D02*
D03*
Y199542D02*
D03*
Y205574D02*
D03*
Y90976D02*
D03*
Y97007D02*
D03*
Y103039D02*
D03*
Y109070D02*
D03*
Y115102D02*
D03*
Y121133D02*
D03*
Y127165D02*
D03*
Y133196D02*
D03*
Y139228D02*
D03*
Y145259D02*
D03*
Y30661D02*
D03*
Y36693D02*
D03*
Y42724D02*
D03*
Y48755D02*
D03*
Y54787D02*
D03*
Y60818D02*
D03*
Y66850D02*
D03*
Y72881D02*
D03*
Y78913D02*
D03*
Y84944D02*
D03*
Y-29654D02*
D03*
Y-23622D02*
D03*
Y-17591D02*
D03*
Y-11559D02*
D03*
Y-5528D02*
D03*
Y504D02*
D03*
Y6535D02*
D03*
Y12567D02*
D03*
Y18598D02*
D03*
Y24630D02*
D03*
Y-35685D02*
D03*
Y-41717D02*
D03*
Y-47748D02*
D03*
Y-53780D02*
D03*
Y-59811D02*
D03*
Y-65843D02*
D03*
Y-71874D02*
D03*
Y-77906D02*
D03*
Y-83937D02*
D03*
Y-89969D02*
D03*
X181333Y254500D02*
D03*
X187667D02*
D03*
X194000D02*
D03*
X200333D02*
D03*
X206667D02*
D03*
X213000D02*
D03*
X219333D02*
D03*
X225667D02*
D03*
X175000Y236125D02*
D03*
Y242250D02*
D03*
Y248375D02*
D03*
X101154Y230000D02*
D03*
X107308D02*
D03*
X113461D02*
D03*
X119615D02*
D03*
X125769D02*
D03*
X131923D02*
D03*
X138077D02*
D03*
X144231D02*
D03*
X150385D02*
D03*
X156538D02*
D03*
X162692D02*
D03*
X168846D02*
D03*
X95000Y242250D02*
D03*
Y236125D02*
D03*
Y248375D02*
D03*
X104500Y-254500D02*
D03*
X104500Y-211500D02*
D03*
X149500Y-211500D02*
D03*
X149500Y-254500D02*
D03*
X232000D02*
D03*
X256800Y-229700D02*
D03*
Y-215500D02*
D03*
X234000D02*
D03*
Y-130500D02*
D03*
X238500Y-130500D02*
D03*
Y-96000D02*
D03*
X256800D02*
D03*
Y229700D02*
D03*
X232000Y254500D02*
D03*
X175000D02*
D03*
X175000Y230000D02*
D03*
X95000D02*
D03*
X114000Y-177000D02*
D03*
X144803Y123000D02*
D03*
X188898Y168000D02*
D03*
X192047Y163000D02*
D03*
X195197Y159500D02*
D03*
X198346Y156086D02*
D03*
X148000Y104500D02*
D03*
X144500Y101000D02*
D03*
X199000Y113500D02*
D03*
X196000Y117000D02*
D03*
X202000D02*
D03*
X205000Y113500D02*
D03*
X-53500Y-96000D02*
D03*
X-79500Y-90000D02*
D03*
X-65000D02*
D03*
X36854Y5354D02*
D03*
X95000Y254500D02*
D03*
X-95000D02*
D03*
X-208500Y183000D02*
D03*
X-247000Y62500D02*
D03*
X164500Y140500D02*
D03*
X-62000Y9500D02*
D03*
X34100Y22500D02*
D03*
X-60000Y-38000D02*
D03*
X174500Y133000D02*
D03*
X41500Y19500D02*
D03*
X4795Y9500D02*
D03*
X-46500Y-58000D02*
D03*
X-26638Y31100D02*
D03*
X16669Y3500D02*
D03*
X-4984Y5500D02*
D03*
Y9500D02*
D03*
X-8921D02*
D03*
X41000Y-8000D02*
D03*
X38500Y-31500D02*
D03*
X35500Y-19000D02*
D03*
X40000Y-29000D02*
D03*
X38500Y-37500D02*
D03*
X54000Y-19000D02*
D03*
X51000Y-40000D02*
D03*
Y-37000D02*
D03*
X22500Y-45500D02*
D03*
X56000Y-26142D02*
D03*
X58000Y16000D02*
D03*
X62000Y20000D02*
D03*
X34000Y-52000D02*
D03*
X27500Y20000D02*
D03*
X-60000Y-33500D02*
D03*
X179449Y117000D02*
D03*
X4000Y-70500D02*
D03*
X40500Y9000D02*
D03*
X-61500Y-49764D02*
D03*
X8500Y-70500D02*
D03*
X10000Y-68000D02*
D03*
X13500Y-80500D02*
D03*
X48500Y-82000D02*
D03*
X25000Y-90000D02*
D03*
X46000Y-84000D02*
D03*
X43500Y-85500D02*
D03*
X-49169Y-22205D02*
D03*
X-46000Y-17000D02*
D03*
X-43000Y-20000D02*
D03*
Y-27000D02*
D03*
X186000Y141500D02*
D03*
Y136500D02*
D03*
X201500Y152500D02*
D03*
X184500Y159500D02*
D03*
X171000D02*
D03*
X192000Y144000D02*
D03*
X127500Y182000D02*
D03*
X133000D02*
D03*
X138500D02*
D03*
X132500Y157000D02*
D03*
X122000Y148000D02*
D03*
X125500Y151000D02*
D03*
X129000Y154000D02*
D03*
Y168000D02*
D03*
X135354D02*
D03*
X146500D02*
D03*
X151102D02*
D03*
X156000D02*
D03*
X160551D02*
D03*
X166850D02*
D03*
X204646Y177000D02*
D03*
X207809Y168000D02*
D03*
X192047Y132000D02*
D03*
X170000Y177000D02*
D03*
X182598D02*
D03*
X210945D02*
D03*
X179449Y123000D02*
D03*
X163701D02*
D03*
X161000Y-111500D02*
D03*
X173013Y-102000D02*
D03*
X190308Y-106832D02*
D03*
X181000Y-113000D02*
D03*
Y-118000D02*
D03*
X185600Y-79000D02*
D03*
X151500Y-136000D02*
D03*
Y-130000D02*
D03*
X-77500Y-154000D02*
D03*
X-84000Y-156000D02*
D03*
X-90500Y-154000D02*
D03*
X-97000Y-156000D02*
D03*
X-101500Y-154000D02*
D03*
X-106000Y-156000D02*
D03*
X-117000D02*
D03*
X-121500Y-154000D02*
D03*
X-126000Y-156000D02*
D03*
X-135000D02*
D03*
X-78500Y-188500D02*
D03*
X-83673Y-181500D02*
D03*
X-75799D02*
D03*
X-70000D02*
D03*
X-65000D02*
D03*
X-61500Y-185000D02*
D03*
X-58000Y-188500D02*
D03*
X-111000Y-202500D02*
D03*
X-118500Y-200000D02*
D03*
X-114000D02*
D03*
X-63988Y-197500D02*
D03*
X-77768D02*
D03*
X-107295Y-205000D02*
D03*
X-97453Y-207500D02*
D03*
X-93516Y-210000D02*
D03*
X-85642Y-212500D02*
D03*
X-125021Y-189622D02*
D03*
X-91000Y30000D02*
D03*
Y36000D02*
D03*
Y33000D02*
D03*
X-180500Y142438D02*
D03*
Y158438D02*
D03*
Y133438D02*
D03*
Y149438D02*
D03*
X-69000Y174000D02*
D03*
X-27000Y222000D02*
D03*
X-15000Y222041D02*
D03*
X-21000Y222000D02*
D03*
X-15000Y227500D02*
D03*
X-38500Y223500D02*
D03*
X-33000Y227500D02*
D03*
X-45016D02*
D03*
X-55000Y224500D02*
D03*
Y234000D02*
D03*
X-59900Y241500D02*
D03*
Y182500D02*
D03*
X-70500Y237000D02*
D03*
Y231000D02*
D03*
Y225000D02*
D03*
X-15000Y241000D02*
D03*
X-21000D02*
D03*
X-27000D02*
D03*
X-33000D02*
D03*
X-39000D02*
D03*
X-45000D02*
D03*
X15000Y-1000D02*
D03*
X-30500Y-5550D02*
D03*
X-26500Y-4000D02*
D03*
X-17500Y-8000D02*
D03*
X-22500Y-5500D02*
D03*
X-30500Y-13500D02*
D03*
X-22500D02*
D03*
X-26500Y-15000D02*
D03*
X-29000Y-46000D02*
D03*
X-7500Y-54000D02*
D03*
X-500D02*
D03*
X13500Y-55000D02*
D03*
X11000Y-61000D02*
D03*
X8500Y-65000D02*
D03*
X-10000Y-70000D02*
D03*
X-20000Y-69000D02*
D03*
X-49000Y-86500D02*
D03*
X-59000Y-16500D02*
D03*
X-63500Y500D02*
D03*
X-62000Y-16500D02*
D03*
X-34500Y-15000D02*
D03*
X-45000Y-46500D02*
D03*
X-24000Y-49000D02*
D03*
X-49000Y-42500D02*
D03*
X-59000Y-45827D02*
D03*
X-62099Y-28110D02*
D03*
X-59000Y-24173D02*
D03*
X-49000Y-28110D02*
D03*
X-30500Y-37000D02*
D03*
X-45500Y-34000D02*
D03*
X-30500Y-40000D02*
D03*
Y-34000D02*
D03*
X-45500Y-40000D02*
D03*
Y-37000D02*
D03*
X-56000Y22000D02*
D03*
X-53500Y19500D02*
D03*
X-68000Y16000D02*
D03*
X-46500Y-64500D02*
D03*
X-49000Y-67000D02*
D03*
X-27000Y-89500D02*
D03*
X-35000Y-101500D02*
D03*
X-31000D02*
D03*
Y-94500D02*
D03*
X-27000Y-97000D02*
D03*
X-29509Y-90500D02*
D03*
X-30509Y-77000D02*
D03*
X21500Y-100000D02*
D03*
X60000Y-31500D02*
D03*
X57000D02*
D03*
X-38000Y-76500D02*
D03*
X-41000Y-79500D02*
D03*
X20606Y-90000D02*
D03*
X31500Y9500D02*
D03*
X25500D02*
D03*
X-43500Y-90000D02*
D03*
X2000D02*
D03*
X-12858Y-80000D02*
D03*
X-16795D02*
D03*
X24500Y-100000D02*
D03*
X51000Y-98000D02*
D03*
X55000Y-88500D02*
D03*
X43500Y-94000D02*
D03*
X51000Y-78500D02*
D03*
Y-74000D02*
D03*
Y-53500D02*
D03*
X34500Y-79000D02*
D03*
X37000Y-72500D02*
D03*
Y-66500D02*
D03*
Y-60500D02*
D03*
X23500Y-64000D02*
D03*
X20000Y-61000D02*
D03*
X40000Y-52000D02*
D03*
X54000Y-31500D02*
D03*
X26500Y-43500D02*
D03*
X30500Y-41500D02*
D03*
X34500Y-39500D02*
D03*
X25500Y-27000D02*
D03*
X29500Y-24000D02*
D03*
X13669Y20000D02*
D03*
X17169Y24000D02*
D03*
X-16795Y9500D02*
D03*
X-26500Y5500D02*
D03*
X-24669Y9500D02*
D03*
X-32500Y5500D02*
D03*
X-35500Y9500D02*
D03*
X-8921Y19976D02*
D03*
X-12000Y20055D02*
D03*
X-12858Y9500D02*
D03*
X-20732D02*
D03*
X-18764Y19976D02*
D03*
X-24000Y20055D02*
D03*
X-38449Y19976D02*
D03*
X-29000Y20000D02*
D03*
X-41000Y8000D02*
D03*
X-42000Y0D02*
D03*
X-46000D02*
D03*
X-65000Y12000D02*
D03*
X-163000Y-190685D02*
D03*
X-191000Y-151000D02*
D03*
X-198000D02*
D03*
X-205000D02*
D03*
X-212000D02*
D03*
X-230000D02*
D03*
X-237000D02*
D03*
X-244000D02*
D03*
X-193000Y9000D02*
D03*
X-235000Y57000D02*
D03*
X-72000Y171000D02*
D03*
X-69000D02*
D03*
X-105000Y169800D02*
D03*
X-98898D02*
D03*
X-105000Y130000D02*
D03*
X-70601Y205051D02*
D03*
X-70500Y199000D02*
D03*
X-70650Y187000D02*
D03*
Y193000D02*
D03*
X-204000Y158000D02*
D03*
Y162949D02*
D03*
X-175700Y103000D02*
D03*
X-180600D02*
D03*
X-185654D02*
D03*
X-195000Y137000D02*
D03*
Y155000D02*
D03*
X-3000Y189000D02*
D03*
X-21000D02*
D03*
X-44000Y196000D02*
D03*
X-33000Y189000D02*
D03*
X-27000D02*
D03*
X-11000Y211900D02*
D03*
X-41342Y184000D02*
D03*
X68000Y-23272D02*
D03*
X-70000Y-59000D02*
D03*
X-65000Y8000D02*
D03*
X154252Y177000D02*
D03*
X132205Y123000D02*
D03*
X138504D02*
D03*
X240000Y15000D02*
D03*
X215000Y40500D02*
D03*
Y-6500D02*
D03*
X191000Y25100D02*
D03*
X240000Y46000D02*
D03*
X202000D02*
D03*
X227299Y40500D02*
D03*
X240000Y-32000D02*
D03*
Y-1000D02*
D03*
X202000D02*
D03*
X227299Y-6500D02*
D03*
X191000Y-21900D02*
D03*
X181000Y-123000D02*
D03*
X195048Y-106832D02*
D03*
X216500Y-80000D02*
D03*
X232969D02*
D03*
X165000Y-147000D02*
D03*
X144000Y-142000D02*
D03*
Y-148100D02*
D03*
X90051Y-218000D02*
D03*
X14000Y-201000D02*
D03*
X-12000Y-215000D02*
D03*
X24000D02*
D03*
X114000Y-200000D02*
D03*
X101100D02*
D03*
X-123043D02*
D03*
X-217315Y19000D02*
D03*
X-200000Y-1000D02*
D03*
X-221000Y28000D02*
D03*
X-219000Y-3000D02*
D03*
Y3000D02*
D03*
X-247000Y77000D02*
D03*
X-213000Y55000D02*
D03*
X-183000Y49000D02*
D03*
X-194815Y51260D02*
D03*
X-245197Y-93130D02*
D03*
Y-103327D02*
D03*
X-194803Y-92539D02*
D03*
Y-101594D02*
D03*
X-193000Y-124000D02*
D03*
X-211000D02*
D03*
X-229000D02*
D03*
X-247000D02*
D03*
X-195000Y121000D02*
D03*
X-226000Y188949D02*
D03*
X-186000Y180000D02*
D03*
X-36500Y-74000D02*
D03*
X-29500Y-66500D02*
D03*
X-241000Y-136000D02*
D03*
X-234000D02*
D03*
X-227000D02*
D03*
X-209000D02*
D03*
X-202000D02*
D03*
X-195000D02*
D03*
X-188000D02*
D03*
X-43000Y-17000D02*
D03*
X-46000Y-27500D02*
D03*
X-39500Y5500D02*
D03*
X-29500D02*
D03*
X-229000Y188949D02*
D03*
X-211500Y183000D02*
D03*
X-172000Y188949D02*
D03*
X-175000D02*
D03*
X43500Y-91000D02*
D03*
X55000Y-85500D02*
D03*
X24500Y20000D02*
D03*
X87000Y-218000D02*
D03*
X37000Y-52000D02*
D03*
X-195000Y6500D02*
D03*
X-250000Y62500D02*
D03*
X37000Y-63500D02*
D03*
X48000Y-135000D02*
D03*
X-47000Y-44500D02*
D03*
X-204000Y169051D02*
D03*
X-44000Y2000D02*
D03*
X32500Y-21500D02*
D03*
X-1000Y-159000D02*
D03*
X-164000Y-188000D02*
D03*
X-68000Y13000D02*
D03*
X-31000Y-69000D02*
D03*
X-34000Y-72500D02*
D03*
X46000Y-133000D02*
D03*
X50000Y-137000D02*
D03*
Y-146500D02*
D03*
X46000Y-142500D02*
D03*
Y-166500D02*
D03*
Y-158500D02*
D03*
X50000Y-162500D02*
D03*
X46000Y-150500D02*
D03*
X50000Y-154500D02*
D03*
X-40417Y30000D02*
D03*
X-36576Y-54701D02*
D03*
X221000Y30500D02*
D03*
X218000Y35500D02*
D03*
X221000Y-16500D02*
D03*
X218000Y-11500D02*
D03*
X227299Y25500D02*
D03*
Y-21443D02*
D03*
X210500Y-80000D02*
D03*
X204500D02*
D03*
X198500D02*
D03*
X151000Y-160000D02*
D03*
Y-154000D02*
D03*
X218749Y-179900D02*
D03*
X186200D02*
D03*
X180200D02*
D03*
X-191000Y-136000D02*
D03*
X-198000D02*
D03*
X-205000D02*
D03*
X-212000D02*
D03*
X-230000D02*
D03*
X-237000D02*
D03*
X-244000D02*
D03*
X-9000Y189000D02*
D03*
X-15000D02*
D03*
X-55000Y229000D02*
D03*
X-130500Y-154000D02*
D03*
X-112500D02*
D03*
X-79736Y-184000D02*
D03*
X-40000Y-58000D02*
D03*
X-27000Y-65000D02*
D03*
X-65000Y-73386D02*
D03*
X50000Y16000D02*
D03*
X-19000Y-75124D02*
D03*
X-4000Y-38000D02*
D03*
Y-32000D02*
D03*
X2000Y-159000D02*
D03*
X4118Y-192283D02*
D03*
X-26087Y-189000D02*
D03*
X24087Y-197000D02*
D03*
Y-189067D02*
D03*
X-43264Y-61250D02*
D03*
X-59000Y500D02*
D03*
X-68000D02*
D03*
X-33000Y-80182D02*
D03*
X38500Y-10394D02*
D03*
X140000Y113000D02*
D03*
Y117000D02*
D03*
X124000Y113000D02*
D03*
Y117000D02*
D03*
X158000D02*
D03*
Y113000D02*
D03*
X166000Y117000D02*
D03*
Y113000D02*
D03*
X215000Y117000D02*
D03*
Y113000D02*
D03*
X168000Y187000D02*
D03*
Y183000D02*
D03*
X149000D02*
D03*
Y187000D02*
D03*
X2000Y20000D02*
D03*
X-500Y24000D02*
D03*
X-3000Y28000D02*
D03*
X94000Y111000D02*
D03*
X-69000Y-31732D02*
D03*
X-65000D02*
D03*
X57000Y-4488D02*
D03*
X-20900Y81500D02*
D03*
X-56728D02*
D03*
X-16000Y107000D02*
D03*
X57000Y3386D02*
D03*
X-40417Y26000D02*
D03*
X-10890D02*
D03*
X-69000Y-73386D02*
D03*
X-65000Y-24299D02*
D03*
X-69000D02*
D03*
Y8000D02*
D03*
X34386Y-100000D02*
D03*
Y-96000D02*
D03*
X795D02*
D03*
Y-100000D02*
D03*
X-10764Y-96000D02*
D03*
Y-100000D02*
D03*
X-44480D02*
D03*
Y-96000D02*
D03*
X-10890Y30000D02*
D03*
X8795D02*
D03*
Y26000D02*
D03*
X34100D02*
D03*
Y30000D02*
D03*
X61000Y-4488D02*
D03*
Y3386D02*
D03*
X57000Y-39953D02*
D03*
X61000D02*
D03*
X57000Y-44827D02*
D03*
X61000D02*
D03*
Y-73417D02*
D03*
X57000D02*
D03*
X55000Y107000D02*
D03*
X50100Y81500D02*
D03*
X14272D02*
D03*
X-83000Y-13000D02*
D03*
Y-61000D02*
D03*
X94000Y59000D02*
D03*
Y7000D02*
D03*
Y-45000D02*
D03*
X-42000Y-246500D02*
D03*
X45000Y-232500D02*
D03*
X-91240Y-109000D02*
D03*
X-53240D02*
D03*
X-15240D02*
D03*
X22760D02*
D03*
X60760D02*
D03*
X98760D02*
D03*
M02*
