G04*
G04 #@! TF.GenerationSoftware,Altium Limited,Altium Designer,22.9.1 (49)*
G04*
G04 Layer_Color=128*
%FSLAX25Y25*%
%MOIN*%
G70*
G04*
G04 #@! TF.SameCoordinates,BD774D37-2A64-432E-85FC-E47F3F74055D*
G04*
G04*
G04 #@! TF.FilePolarity,Positive*
G04*
G01*
G75*
%ADD166C,0.00200*%
D166*
X36677Y123756D02*
X41402D01*
X39039Y121394D02*
Y126118D01*
X16598Y118244D02*
X21323D01*
X18961Y115882D02*
Y120606D01*
X-114508Y126000D02*
X-110492D01*
X-112500Y123992D02*
Y128008D01*
X-155472Y158400D02*
X-151928D01*
X-153700Y156628D02*
Y160172D01*
X-165472Y153400D02*
X-161928D01*
X-163700Y151628D02*
Y155172D01*
X-155472Y148400D02*
X-151928D01*
X-153700Y146628D02*
Y150172D01*
X-165472Y143400D02*
X-161928D01*
X-163700Y141628D02*
Y145172D01*
X-155472Y138400D02*
X-151928D01*
X-153700Y136628D02*
Y140172D01*
X-165472Y133400D02*
X-161928D01*
X-163700Y131628D02*
Y135172D01*
X-155472Y128400D02*
X-151928D01*
X-153700Y126628D02*
Y130172D01*
X-165472Y123400D02*
X-161928D01*
X-163700Y121628D02*
Y125172D01*
X-135098Y163400D02*
X-122302D01*
X-128700Y157002D02*
Y169798D01*
X-135098Y118400D02*
X-122302D01*
X-128700Y112002D02*
Y124798D01*
X-147150Y172200D02*
X-140850D01*
X-144000Y169050D02*
Y175350D01*
X-147150Y109600D02*
X-140850D01*
X-144000Y106450D02*
Y112750D01*
X-114508Y165800D02*
X-110492D01*
X-112500Y163792D02*
Y167808D01*
X-114508Y116000D02*
X-110492D01*
X-112500Y113992D02*
Y118008D01*
X-114508Y155800D02*
X-110492D01*
X-112500Y153792D02*
Y157808D01*
X-220689Y83075D02*
X-219311D01*
X-220000Y82386D02*
Y83764D01*
X-220689Y54925D02*
X-219311D01*
X-220000Y54236D02*
Y55614D01*
X-221654Y74118D02*
X-220079D01*
X-220866Y73331D02*
Y74906D01*
X-217717Y71559D02*
X-216142D01*
X-216929Y70772D02*
Y72347D01*
X-221654Y69000D02*
X-220079D01*
X-220866Y68213D02*
Y69787D01*
X-217717Y66441D02*
X-216142D01*
X-216929Y65654D02*
Y67228D01*
X-221654Y63882D02*
X-220079D01*
X-220866Y63095D02*
Y64669D01*
X9835Y162000D02*
X14165D01*
X12000Y159835D02*
Y164165D01*
X9835Y152000D02*
X14165D01*
X12000Y149835D02*
Y154165D01*
X9835Y142000D02*
X14165D01*
X12000Y139835D02*
Y144165D01*
X-248000Y90000D02*
X-242000D01*
X-245000Y87000D02*
Y93000D01*
X-248000Y105000D02*
X-242000D01*
X-245000Y102000D02*
Y108000D01*
X-248000Y120000D02*
X-242000D01*
X-245000Y117000D02*
Y123000D01*
X-248000Y135000D02*
X-242000D01*
X-245000Y132000D02*
Y138000D01*
X-248000Y150000D02*
X-242000D01*
X-245000Y147000D02*
Y153000D01*
X48465Y-192400D02*
X51614D01*
X50039Y-193975D02*
Y-190825D01*
X78386Y-192400D02*
X81535D01*
X79961Y-193975D02*
Y-190825D01*
X-43350Y208850D02*
X-42350D01*
X-42850Y208350D02*
Y209350D01*
X-43350Y215150D02*
X-42350D01*
X-42850Y214650D02*
Y215650D01*
X-49650Y215150D02*
X-48650D01*
X-49150Y214650D02*
Y215650D01*
X-49650Y208850D02*
X-48650D01*
X-49150Y208350D02*
Y209350D01*
X-46500Y212000D02*
X-45500D01*
X-46000Y211500D02*
Y212500D01*
X-241700Y234900D02*
X-232700D01*
X-237200Y230400D02*
Y239400D01*
X228700Y234900D02*
X245700D01*
X237200Y226400D02*
Y243400D01*
X232700Y-234900D02*
X241700D01*
X237200Y-239400D02*
Y-230400D01*
X-245700Y-234900D02*
X-228700D01*
X-237200Y-243400D02*
Y-226400D01*
X-185500Y-105000D02*
X-184500D01*
X-185000Y-105500D02*
Y-104500D01*
X-185500Y-120000D02*
X-184500D01*
X-185000Y-120500D02*
Y-119500D01*
X-170500Y-105000D02*
X-169500D01*
X-170000Y-105500D02*
Y-104500D01*
X-170500Y-120000D02*
X-169500D01*
X-170000Y-120500D02*
Y-119500D01*
X-155500Y-105000D02*
X-154500D01*
X-155000Y-105500D02*
Y-104500D01*
X-155500Y-120000D02*
X-154500D01*
X-155000Y-120500D02*
Y-119500D01*
X-140500Y-120000D02*
X-139500D01*
X-140000Y-120500D02*
Y-119500D01*
X-140500Y-105000D02*
X-139500D01*
X-140000Y-105500D02*
Y-104500D01*
X-240500Y-60000D02*
X-239500D01*
X-240000Y-60500D02*
Y-59500D01*
X-240500Y-75000D02*
X-239500D01*
X-240000Y-75500D02*
Y-74500D01*
X-225500Y-60000D02*
X-224500D01*
X-225000Y-60500D02*
Y-59500D01*
X-225500Y-75000D02*
X-224500D01*
X-225000Y-75500D02*
Y-74500D01*
X-210500Y-75000D02*
X-209500D01*
X-210000Y-75500D02*
Y-74500D01*
X-210500Y-60000D02*
X-209500D01*
X-210000Y-60500D02*
Y-59500D01*
X-240500Y-45000D02*
X-239500D01*
X-240000Y-45500D02*
Y-44500D01*
X-225500Y-45000D02*
X-224500D01*
X-225000Y-45500D02*
Y-44500D01*
X-210500Y-45000D02*
X-209500D01*
X-210000Y-45500D02*
Y-44500D01*
X-210500Y-15000D02*
X-209500D01*
X-210000Y-15500D02*
Y-14500D01*
X-210500Y-30000D02*
X-209500D01*
X-210000Y-30500D02*
Y-29500D01*
X-225500Y-15000D02*
X-224500D01*
X-225000Y-15500D02*
Y-14500D01*
X-225500Y-30000D02*
X-224500D01*
X-225000Y-30500D02*
Y-29500D01*
X-240500Y-30000D02*
X-239500D01*
X-240000Y-30500D02*
Y-29500D01*
X-240500Y-15000D02*
X-239500D01*
X-240000Y-15500D02*
Y-14500D01*
X-225500Y-155000D02*
X-224500D01*
X-225000Y-155500D02*
Y-154500D01*
X-240500Y-155000D02*
X-239500D01*
X-240000Y-155500D02*
Y-154500D01*
X-225500Y-170000D02*
X-224500D01*
X-225000Y-170500D02*
Y-169500D01*
X-240500Y-170000D02*
X-239500D01*
X-240000Y-170500D02*
Y-169500D01*
X-210500Y-185000D02*
X-209500D01*
X-210000Y-185500D02*
Y-184500D01*
X-240500Y-185000D02*
X-239500D01*
X-240000Y-185500D02*
Y-184500D01*
X-240500Y-215000D02*
X-239500D01*
X-240000Y-215500D02*
Y-214500D01*
X-240500Y-200000D02*
X-239500D01*
X-240000Y-200500D02*
Y-199500D01*
X-225500Y-200000D02*
X-224500D01*
X-225000Y-200500D02*
Y-199500D01*
X-225500Y-215000D02*
X-224500D01*
X-225000Y-215500D02*
Y-214500D01*
X-210500Y-200000D02*
X-209500D01*
X-210000Y-200500D02*
Y-199500D01*
X-210500Y-245000D02*
X-209500D01*
X-210000Y-245500D02*
Y-244500D01*
X-210500Y-230000D02*
X-209500D01*
X-210000Y-230500D02*
Y-229500D01*
X-210500Y-215000D02*
X-209500D01*
X-210000Y-215500D02*
Y-214500D01*
X-195500Y-215000D02*
X-194500D01*
X-195000Y-215500D02*
Y-214500D01*
X-195500Y-230000D02*
X-194500D01*
X-195000Y-230500D02*
Y-229500D01*
X-195500Y-245000D02*
X-194500D01*
X-195000Y-245500D02*
Y-244500D01*
X-180500Y-215000D02*
X-179500D01*
X-180000Y-215500D02*
Y-214500D01*
X-180500Y-230000D02*
X-179500D01*
X-180000Y-230500D02*
Y-229500D01*
X-180500Y-245000D02*
X-179500D01*
X-180000Y-245500D02*
Y-244500D01*
X-165500Y-215000D02*
X-164500D01*
X-165000Y-215500D02*
Y-214500D01*
X-165500Y-230000D02*
X-164500D01*
X-165000Y-230500D02*
Y-229500D01*
X-165500Y-245000D02*
X-164500D01*
X-165000Y-245500D02*
Y-244500D01*
X-95500Y-215000D02*
X-94500D01*
X-95000Y-215500D02*
Y-214500D01*
X-95500Y-230000D02*
X-94500D01*
X-95000Y-230500D02*
Y-229500D01*
X-80500Y-230000D02*
X-79500D01*
X-80000Y-230500D02*
Y-229500D01*
X-65500Y-230000D02*
X-64500D01*
X-65000Y-230500D02*
Y-229500D01*
X-50500Y-230000D02*
X-49500D01*
X-50000Y-230500D02*
Y-229500D01*
X-50500Y-245000D02*
X-49500D01*
X-50000Y-245500D02*
Y-244500D01*
X-65500Y-245000D02*
X-64500D01*
X-65000Y-245500D02*
Y-244500D01*
X-80500Y-245000D02*
X-79500D01*
X-80000Y-245500D02*
Y-244500D01*
X-95500Y-245000D02*
X-94500D01*
X-95000Y-245500D02*
Y-244500D01*
X59500Y-245000D02*
X60500D01*
X60000Y-245500D02*
Y-244500D01*
X74500Y-245000D02*
X75500D01*
X75000Y-245500D02*
Y-244500D01*
X89500Y-245000D02*
X90500D01*
X90000Y-245500D02*
Y-244500D01*
X134500Y-180000D02*
X135500D01*
X135000Y-180500D02*
Y-179500D01*
X134500Y-195000D02*
X135500D01*
X135000Y-195500D02*
Y-194500D01*
X149500Y-195000D02*
X150500D01*
X150000Y-195500D02*
Y-194500D01*
X164500Y-240000D02*
X165500D01*
X165000Y-240500D02*
Y-239500D01*
X164500Y-225000D02*
X165500D01*
X165000Y-225500D02*
Y-224500D01*
X164500Y-210000D02*
X165500D01*
X165000Y-210500D02*
Y-209500D01*
X164500Y-195000D02*
X165500D01*
X165000Y-195500D02*
Y-194500D01*
X179500Y-195000D02*
X180500D01*
X180000Y-195500D02*
Y-194500D01*
X179500Y-210000D02*
X180500D01*
X180000Y-210500D02*
Y-209500D01*
X179500Y-225000D02*
X180500D01*
X180000Y-225500D02*
Y-224500D01*
X179500Y-240000D02*
X180500D01*
X180000Y-240500D02*
Y-239500D01*
X194500Y-240000D02*
X195500D01*
X195000Y-240500D02*
Y-239500D01*
X194500Y-225000D02*
X195500D01*
X195000Y-225500D02*
Y-224500D01*
X194500Y-195000D02*
X195500D01*
X195000Y-195500D02*
Y-194500D01*
X194500Y-210000D02*
X195500D01*
X195000Y-210500D02*
Y-209500D01*
X224500Y-195000D02*
X225500D01*
X225000Y-195500D02*
Y-194500D01*
X224500Y-210500D02*
X225500D01*
X225000Y-211000D02*
Y-210000D01*
X209500Y-195000D02*
X210500D01*
X210000Y-195500D02*
Y-194500D01*
X209500Y-210500D02*
X210500D01*
X210000Y-211000D02*
Y-210000D01*
X209500Y-225000D02*
X210500D01*
X210000Y-225500D02*
Y-224500D01*
X209500Y-240000D02*
X210500D01*
X210000Y-240500D02*
Y-239500D01*
X199500Y-60000D02*
X200500D01*
X200000Y-60500D02*
Y-59500D01*
X214500Y-60000D02*
X215500D01*
X215000Y-60500D02*
Y-59500D01*
X229500Y-75000D02*
X230500D01*
X230000Y-75500D02*
Y-74500D01*
X229500Y-60000D02*
X230500D01*
X230000Y-60500D02*
Y-59500D01*
X229500Y-45000D02*
X230500D01*
X230000Y-45500D02*
Y-44500D01*
X244500Y-45000D02*
X245500D01*
X245000Y-45500D02*
Y-44500D01*
X244500Y-60000D02*
X245500D01*
X245000Y-60500D02*
Y-59500D01*
X244500Y-75000D02*
X245500D01*
X245000Y-75500D02*
Y-74500D01*
X199500Y50000D02*
X200500D01*
X200000Y49500D02*
Y50500D01*
X214500Y50000D02*
X215500D01*
X215000Y49500D02*
Y50500D01*
X214500Y65000D02*
X215500D01*
X215000Y64500D02*
Y65500D01*
X229500Y65000D02*
X230500D01*
X230000Y64500D02*
Y65500D01*
X229500Y80000D02*
X230500D01*
X230000Y79500D02*
Y80500D01*
X244500Y80000D02*
X245500D01*
X245000Y79500D02*
Y80500D01*
X244500Y65000D02*
X245500D01*
X245000Y64500D02*
Y65500D01*
X229500Y50000D02*
X230500D01*
X230000Y49500D02*
Y50500D01*
X244500Y50000D02*
X245500D01*
X245000Y49500D02*
Y50500D01*
X229500Y110000D02*
X230500D01*
X230000Y109500D02*
Y110500D01*
X229500Y125000D02*
X230500D01*
X230000Y124500D02*
Y125500D01*
X244500Y125000D02*
X245500D01*
X245000Y124500D02*
Y125500D01*
X244500Y110000D02*
X245500D01*
X245000Y109500D02*
Y110500D01*
X229500Y95000D02*
X230500D01*
X230000Y94500D02*
Y95500D01*
X244500Y95000D02*
X245500D01*
X245000Y94500D02*
Y95500D01*
X229500Y155000D02*
X230500D01*
X230000Y154500D02*
Y155500D01*
X229500Y170000D02*
X230500D01*
X230000Y169500D02*
Y170500D01*
X244500Y170000D02*
X245500D01*
X245000Y169500D02*
Y170500D01*
X244500Y155000D02*
X245500D01*
X245000Y154500D02*
Y155500D01*
X229500Y140000D02*
X230500D01*
X230000Y139500D02*
Y140500D01*
X244500Y140000D02*
X245500D01*
X245000Y139500D02*
Y140500D01*
X244500Y185000D02*
X245500D01*
X245000Y184500D02*
Y185500D01*
X229500Y185000D02*
X230500D01*
X230000Y184500D02*
Y185500D01*
X244500Y200000D02*
X245500D01*
X245000Y199500D02*
Y200500D01*
X244500Y215000D02*
X245500D01*
X245000Y214500D02*
Y215500D01*
X229500Y215000D02*
X230500D01*
X230000Y214500D02*
Y215500D01*
X229500Y200000D02*
X230500D01*
X230000Y199500D02*
Y200500D01*
X214500Y185000D02*
X215500D01*
X215000Y184500D02*
Y185500D01*
X199500Y185000D02*
X200500D01*
X200000Y184500D02*
Y185500D01*
X184500Y185000D02*
X185500D01*
X185000Y184500D02*
Y185500D01*
X199500Y215000D02*
X200500D01*
X200000Y214500D02*
Y215500D01*
X214500Y200000D02*
X215500D01*
X215000Y199500D02*
Y200500D01*
X214500Y215000D02*
X215500D01*
X215000Y214500D02*
Y215500D01*
X214500Y230000D02*
X215500D01*
X215000Y229500D02*
Y230500D01*
X199500Y230000D02*
X200500D01*
X200000Y229500D02*
Y230500D01*
X214500Y245000D02*
X215500D01*
X215000Y244500D02*
Y245500D01*
X199500Y245000D02*
X200500D01*
X200000Y244500D02*
Y245500D01*
X184500Y245000D02*
X185500D01*
X185000Y244500D02*
Y245500D01*
X184500Y230000D02*
X185500D01*
X185000Y229500D02*
Y230500D01*
X184500Y200000D02*
X185500D01*
X185000Y199500D02*
Y200500D01*
X184500Y215000D02*
X185500D01*
X185000Y214500D02*
Y215500D01*
X169500Y200000D02*
X170500D01*
X170000Y199500D02*
Y200500D01*
X169500Y215000D02*
X170500D01*
X170000Y214500D02*
Y215500D01*
X154500Y200000D02*
X155500D01*
X155000Y199500D02*
Y200500D01*
X154500Y215000D02*
X155500D01*
X155000Y214500D02*
Y215500D01*
X139500Y200000D02*
X140500D01*
X140000Y199500D02*
Y200500D01*
X139500Y215000D02*
X140500D01*
X140000Y214500D02*
Y215500D01*
X125000Y200000D02*
X126000D01*
X125500Y199500D02*
Y200500D01*
X125000Y215000D02*
X126000D01*
X125500Y214500D02*
Y215500D01*
X109500Y200000D02*
X110500D01*
X110000Y199500D02*
Y200500D01*
X109500Y215000D02*
X110500D01*
X110000Y214500D02*
Y215500D01*
X4500Y200000D02*
X5500D01*
X5000Y199500D02*
Y200500D01*
X34500Y200000D02*
X35500D01*
X35000Y199500D02*
Y200500D01*
X94500Y200000D02*
X95500D01*
X95000Y199500D02*
Y200500D01*
X79500Y200000D02*
X80500D01*
X80000Y199500D02*
Y200500D01*
X64500Y200000D02*
X65500D01*
X65000Y199500D02*
Y200500D01*
X49500Y200000D02*
X50500D01*
X50000Y199500D02*
Y200500D01*
X94500Y215000D02*
X95500D01*
X95000Y214500D02*
Y215500D01*
X79500Y215000D02*
X80500D01*
X80000Y214500D02*
Y215500D01*
X79500Y230000D02*
X80500D01*
X80000Y229500D02*
Y230500D01*
X64500Y230000D02*
X65500D01*
X65000Y229500D02*
Y230500D01*
X64500Y215000D02*
X65500D01*
X65000Y214500D02*
Y215500D01*
X49500Y215000D02*
X50500D01*
X50000Y214500D02*
Y215500D01*
X49500Y230000D02*
X50500D01*
X50000Y229500D02*
Y230500D01*
X34500Y230000D02*
X35500D01*
X35000Y229500D02*
Y230500D01*
X34500Y215000D02*
X35500D01*
X35000Y214500D02*
Y215500D01*
X19500Y215000D02*
X20500D01*
X20000Y214500D02*
Y215500D01*
X19500Y230000D02*
X20500D01*
X20000Y229500D02*
Y230500D01*
X4500Y230000D02*
X5500D01*
X5000Y229500D02*
Y230500D01*
X-10500Y230000D02*
X-9500D01*
X-10000Y229500D02*
Y230500D01*
X19500Y245000D02*
X20500D01*
X20000Y244500D02*
Y245500D01*
X4500Y245000D02*
X5500D01*
X5000Y244500D02*
Y245500D01*
X-10500Y245000D02*
X-9500D01*
X-10000Y244500D02*
Y245500D01*
X-30500Y245000D02*
X-29500D01*
X-30000Y244500D02*
Y245500D01*
X-55500Y245000D02*
X-54500D01*
X-55000Y244500D02*
Y245500D01*
X-70500Y245000D02*
X-69500D01*
X-70000Y244500D02*
Y245500D01*
X-85500Y230000D02*
X-84500D01*
X-85000Y229500D02*
Y230500D01*
X-85500Y245000D02*
X-84500D01*
X-85000Y244500D02*
Y245500D01*
X-155500Y190000D02*
X-154500D01*
X-155000Y189500D02*
Y190500D01*
X-170500Y215000D02*
X-169500D01*
X-170000Y214500D02*
Y215500D01*
X-90500Y205000D02*
X-89500D01*
X-90000Y204500D02*
Y205500D01*
X-115500Y205000D02*
X-114500D01*
X-115000Y204500D02*
Y205500D01*
X-115500Y215000D02*
X-114500D01*
X-115000Y214500D02*
Y215500D01*
X-145500Y215000D02*
X-144500D01*
X-145000Y214500D02*
Y215500D01*
X-85500Y215000D02*
X-84500D01*
X-85000Y214500D02*
Y215500D01*
X-220500Y245000D02*
X-219500D01*
X-220000Y244500D02*
Y245500D01*
X-210500Y235000D02*
X-209500D01*
X-210000Y234500D02*
Y235500D01*
X-235500Y95000D02*
X-234500D01*
X-235000Y94500D02*
Y95500D01*
X-235500Y155000D02*
X-234500D01*
X-235000Y154500D02*
Y155500D01*
X-235500Y140000D02*
X-234500D01*
X-235000Y139500D02*
Y140500D01*
X-230500Y215000D02*
X-229500D01*
X-230000Y214500D02*
Y215500D01*
X-245500Y215000D02*
X-244500D01*
X-245000Y214500D02*
Y215500D01*
X-245500Y200000D02*
X-244500D01*
X-245000Y199500D02*
Y200500D01*
X-245500Y165000D02*
X-244500D01*
X-245000Y164500D02*
Y165500D01*
X160750Y104000D02*
X163250D01*
X162000Y102750D02*
Y105250D01*
X154750Y104000D02*
X157250D01*
X156000Y102750D02*
Y105250D01*
X-146250Y-158000D02*
X-143750D01*
X-145000Y-159250D02*
Y-156750D01*
X-158250Y-158000D02*
X-155750D01*
X-157000Y-159250D02*
Y-156750D01*
X-215250Y-102000D02*
X-212750D01*
X-214000Y-103250D02*
Y-100750D01*
X-227250Y-102000D02*
X-224750D01*
X-226000Y-103250D02*
Y-100750D01*
X141250Y-122000D02*
X143750D01*
X142500Y-123250D02*
Y-120750D01*
X149750Y-104500D02*
X152250D01*
X151000Y-105750D02*
Y-103250D01*
X78500Y-62047D02*
X79500D01*
X79000Y-62547D02*
Y-61547D01*
X78500Y-59047D02*
X79500D01*
X79000Y-59547D02*
Y-58547D01*
X83500Y-18000D02*
X84500D01*
X84000Y-18500D02*
Y-17500D01*
X83500Y-24000D02*
X84500D01*
X84000Y-24500D02*
Y-23500D01*
X173500Y-179900D02*
X174500D01*
X174000Y-180400D02*
Y-179400D01*
X119500Y-200000D02*
X120500D01*
X120000Y-200500D02*
Y-199500D01*
X107500Y-200000D02*
X108500D01*
X108000Y-200500D02*
Y-199500D01*
X90500Y-190000D02*
X91500D01*
X91000Y-190500D02*
Y-189500D01*
X90500Y-196000D02*
X91500D01*
X91000Y-196500D02*
Y-195500D01*
X-1000Y-167500D02*
X0D01*
X-500Y-168000D02*
Y-167000D01*
X-12500Y-170500D02*
X-11500D01*
X-12000Y-171000D02*
Y-170000D01*
X-10551Y-166974D02*
X-9551D01*
X-10051Y-167474D02*
Y-166474D01*
X-99398Y130000D02*
X-98398D01*
X-98898Y129500D02*
Y130500D01*
X-99398Y120000D02*
X-98398D01*
X-98898Y119500D02*
Y120500D01*
X-99398Y159800D02*
X-98398D01*
X-98898Y159300D02*
Y160300D01*
X-242130Y74000D02*
X-241130D01*
X-241630Y73500D02*
Y74500D01*
X-242130Y67000D02*
X-241130D01*
X-241630Y66500D02*
Y67500D01*
X-242500Y43000D02*
X-241500D01*
X-242000Y42500D02*
Y43500D01*
X-227250Y16500D02*
X-224750D01*
X-226000Y15250D02*
Y17750D01*
X-239250Y16500D02*
X-236750D01*
X-238000Y15250D02*
Y17750D01*
X44500Y-236000D02*
X45500D01*
X45000Y-236500D02*
Y-235500D01*
X44500Y-217500D02*
X45500D01*
X45000Y-218000D02*
Y-217000D01*
X175200Y-90000D02*
X176200D01*
X175700Y-90500D02*
Y-89500D01*
X175200Y-83000D02*
X176200D01*
X175700Y-83500D02*
Y-82500D01*
X201500Y15000D02*
X202500D01*
X202000Y14500D02*
Y15500D01*
X194500Y15000D02*
X195500D01*
X195000Y14500D02*
Y15500D01*
X201500Y-32000D02*
X202500D01*
X202000Y-32500D02*
Y-31500D01*
X194500Y-32000D02*
X195500D01*
X195000Y-32500D02*
Y-31500D01*
X-235636Y130000D02*
X-234636D01*
X-235136Y129500D02*
Y130500D01*
X-235636Y120000D02*
X-234636D01*
X-235136Y119500D02*
Y120500D01*
X-235636Y115000D02*
X-234636D01*
X-235136Y114500D02*
Y115500D01*
X-195500Y110000D02*
X-194500D01*
X-195000Y109500D02*
Y110500D01*
X-220500Y180000D02*
X-219500D01*
X-220000Y179500D02*
Y180500D01*
X-197500Y180000D02*
X-196500D01*
X-197000Y179500D02*
Y180500D01*
X2250Y60500D02*
X4750D01*
X3500Y59250D02*
Y61750D01*
X7250Y60500D02*
X9750D01*
X8500Y59250D02*
Y61750D01*
X12250Y60500D02*
X14750D01*
X13500Y59250D02*
Y61750D01*
X2250Y45500D02*
X4750D01*
X3500Y44250D02*
Y46750D01*
X7250Y45500D02*
X9750D01*
X8500Y44250D02*
Y46750D01*
X12250Y45500D02*
X14750D01*
X13500Y44250D02*
Y46750D01*
X-58750Y45500D02*
X-56250D01*
X-57500Y44250D02*
Y46750D01*
X-63750Y45500D02*
X-61250D01*
X-62500Y44250D02*
Y46750D01*
X-68750Y45500D02*
X-66250D01*
X-67500Y44250D02*
Y46750D01*
X-58750Y60500D02*
X-56250D01*
X-57500Y59250D02*
Y61750D01*
X-63750Y60500D02*
X-61250D01*
X-62500Y59250D02*
Y61750D01*
X-68750Y60500D02*
X-66250D01*
X-67500Y59250D02*
Y61750D01*
X-81114Y-254500D02*
X-80114D01*
X-80614Y-255000D02*
Y-254000D01*
X-87086Y-254500D02*
X-86086D01*
X-86586Y-255000D02*
Y-254000D01*
X-93057Y-254500D02*
X-92057D01*
X-92557Y-255000D02*
Y-254000D01*
X-99029Y-254500D02*
X-98029D01*
X-98529Y-255000D02*
Y-254000D01*
X-51257Y-254500D02*
X-50257D01*
X-50757Y-255000D02*
Y-254000D01*
X-57229Y-254500D02*
X-56229D01*
X-56729Y-255000D02*
Y-254000D01*
X-63200Y-254500D02*
X-62200D01*
X-62700Y-255000D02*
Y-254000D01*
X-69172Y-254500D02*
X-68172D01*
X-68672Y-255000D02*
Y-254000D01*
X-75143Y-254500D02*
X-74143D01*
X-74643Y-255000D02*
Y-254000D01*
X-21400Y-254500D02*
X-20400D01*
X-20900Y-255000D02*
Y-254000D01*
X-27371Y-254500D02*
X-26371D01*
X-26871Y-255000D02*
Y-254000D01*
X-33343Y-254500D02*
X-32343D01*
X-32843Y-255000D02*
Y-254000D01*
X-39314Y-254500D02*
X-38314D01*
X-38814Y-255000D02*
Y-254000D01*
X-45286Y-254500D02*
X-44286D01*
X-44786Y-255000D02*
Y-254000D01*
X8457Y-254500D02*
X9457D01*
X8957Y-255000D02*
Y-254000D01*
X2486Y-254500D02*
X3486D01*
X2986Y-255000D02*
Y-254000D01*
X-3486Y-254500D02*
X-2486D01*
X-2986Y-255000D02*
Y-254000D01*
X-9457Y-254500D02*
X-8457D01*
X-8957Y-255000D02*
Y-254000D01*
X-15429Y-254500D02*
X-14429D01*
X-14929Y-255000D02*
Y-254000D01*
X38314Y-254500D02*
X39314D01*
X38814Y-255000D02*
Y-254000D01*
X32343Y-254500D02*
X33343D01*
X32843Y-255000D02*
Y-254000D01*
X26371Y-254500D02*
X27371D01*
X26871Y-255000D02*
Y-254000D01*
X20400Y-254500D02*
X21400D01*
X20900Y-255000D02*
Y-254000D01*
X14428Y-254500D02*
X15428D01*
X14928Y-255000D02*
Y-254000D01*
X68171Y-254500D02*
X69171D01*
X68671Y-255000D02*
Y-254000D01*
X62200Y-254500D02*
X63200D01*
X62700Y-255000D02*
Y-254000D01*
X56228Y-254500D02*
X57228D01*
X56728Y-255000D02*
Y-254000D01*
X50257Y-254500D02*
X51257D01*
X50757Y-255000D02*
Y-254000D01*
X44286Y-254500D02*
X45285D01*
X44785Y-255000D02*
Y-254000D01*
X98028Y-254500D02*
X99028D01*
X98528Y-255000D02*
Y-254000D01*
X92057Y-254500D02*
X93057D01*
X92557Y-255000D02*
Y-254000D01*
X86085Y-254500D02*
X87085D01*
X86585Y-255000D02*
Y-254000D01*
X80114Y-254500D02*
X81114D01*
X80614Y-255000D02*
Y-254000D01*
X74143Y-254500D02*
X75143D01*
X74643Y-255000D02*
Y-254000D01*
X-89562Y254500D02*
X-88563D01*
X-89062Y254000D02*
Y255000D01*
X-59875Y254500D02*
X-58875D01*
X-59375Y254000D02*
Y255000D01*
X-65812Y254500D02*
X-64812D01*
X-65312Y254000D02*
Y255000D01*
X-71750Y254500D02*
X-70750D01*
X-71250Y254000D02*
Y255000D01*
X-77688Y254500D02*
X-76688D01*
X-77188Y254000D02*
Y255000D01*
X-83625Y254500D02*
X-82625D01*
X-83125Y254000D02*
Y255000D01*
X-30187Y254500D02*
X-29188D01*
X-29688Y254000D02*
Y255000D01*
X-36125Y254500D02*
X-35125D01*
X-35625Y254000D02*
Y255000D01*
X-42063Y254500D02*
X-41063D01*
X-41563Y254000D02*
Y255000D01*
X-48000Y254500D02*
X-47000D01*
X-47500Y254000D02*
Y255000D01*
X-53938Y254500D02*
X-52938D01*
X-53438Y254000D02*
Y255000D01*
X-500Y254500D02*
X500D01*
X0Y254000D02*
Y255000D01*
X-6437Y254500D02*
X-5438D01*
X-5937Y254000D02*
Y255000D01*
X-12375Y254500D02*
X-11375D01*
X-11875Y254000D02*
Y255000D01*
X-18313Y254500D02*
X-17312D01*
X-17812Y254000D02*
Y255000D01*
X-24250Y254500D02*
X-23250D01*
X-23750Y254000D02*
Y255000D01*
X29188Y254500D02*
X30187D01*
X29688Y254000D02*
Y255000D01*
X23250Y254500D02*
X24250D01*
X23750Y254000D02*
Y255000D01*
X17312Y254500D02*
X18313D01*
X17812Y254000D02*
Y255000D01*
X11375Y254500D02*
X12375D01*
X11875Y254000D02*
Y255000D01*
X5438Y254500D02*
X6437D01*
X5937Y254000D02*
Y255000D01*
X58875Y254500D02*
X59875D01*
X59375Y254000D02*
Y255000D01*
X52938Y254500D02*
X53938D01*
X53438Y254000D02*
Y255000D01*
X47000Y254500D02*
X48000D01*
X47500Y254000D02*
Y255000D01*
X41063Y254500D02*
X42063D01*
X41563Y254000D02*
Y255000D01*
X35125Y254500D02*
X36125D01*
X35625Y254000D02*
Y255000D01*
X64812Y254500D02*
X65812D01*
X65312Y254000D02*
Y255000D01*
X70750Y254500D02*
X71750D01*
X71250Y254000D02*
Y255000D01*
X76688Y254500D02*
X77688D01*
X77188Y254000D02*
Y255000D01*
X82625Y254500D02*
X83625D01*
X83125Y254000D02*
Y255000D01*
X88563Y254500D02*
X89562D01*
X89062Y254000D02*
Y255000D01*
X-257300Y-216569D02*
X-256300D01*
X-256800Y-217069D02*
Y-216069D01*
X-257300Y-210539D02*
X-256300D01*
X-256800Y-211039D02*
Y-210039D01*
X-257300Y-204508D02*
X-256300D01*
X-256800Y-205008D02*
Y-204008D01*
X-257300Y-198477D02*
X-256300D01*
X-256800Y-198977D02*
Y-197977D01*
X-257300Y-138171D02*
X-256300D01*
X-256800Y-138671D02*
Y-137671D01*
X-257300Y-144201D02*
X-256300D01*
X-256800Y-144701D02*
Y-143701D01*
X-257300Y-150232D02*
X-256300D01*
X-256800Y-150732D02*
Y-149732D01*
X-257300Y-156263D02*
X-256300D01*
X-256800Y-156763D02*
Y-155763D01*
X-257300Y-162293D02*
X-256300D01*
X-256800Y-162793D02*
Y-161793D01*
X-257300Y-168324D02*
X-256300D01*
X-256800Y-168824D02*
Y-167824D01*
X-257300Y-174355D02*
X-256300D01*
X-256800Y-174855D02*
Y-173855D01*
X-257300Y-180385D02*
X-256300D01*
X-256800Y-180885D02*
Y-179885D01*
X-257300Y-186416D02*
X-256300D01*
X-256800Y-186916D02*
Y-185916D01*
X-257300Y-192447D02*
X-256300D01*
X-256800Y-192947D02*
Y-191947D01*
X-257300Y-77864D02*
X-256300D01*
X-256800Y-78364D02*
Y-77364D01*
X-257300Y-83895D02*
X-256300D01*
X-256800Y-84395D02*
Y-83395D01*
X-257300Y-89925D02*
X-256300D01*
X-256800Y-90425D02*
Y-89425D01*
X-257300Y-95956D02*
X-256300D01*
X-256800Y-96456D02*
Y-95456D01*
X-257300Y-101987D02*
X-256300D01*
X-256800Y-102487D02*
Y-101487D01*
X-257300Y-108018D02*
X-256300D01*
X-256800Y-108518D02*
Y-107518D01*
X-257300Y-114048D02*
X-256300D01*
X-256800Y-114548D02*
Y-113548D01*
X-257300Y-120079D02*
X-256300D01*
X-256800Y-120579D02*
Y-119579D01*
X-257300Y-126109D02*
X-256300D01*
X-256800Y-126609D02*
Y-125609D01*
X-257300Y-132140D02*
X-256300D01*
X-256800Y-132640D02*
Y-131640D01*
X-257300Y-17558D02*
X-256300D01*
X-256800Y-18058D02*
Y-17058D01*
X-257300Y-23588D02*
X-256300D01*
X-256800Y-24088D02*
Y-23088D01*
X-257300Y-29619D02*
X-256300D01*
X-256800Y-30119D02*
Y-29119D01*
X-257300Y-35649D02*
X-256300D01*
X-256800Y-36149D02*
Y-35149D01*
X-257300Y-41680D02*
X-256300D01*
X-256800Y-42180D02*
Y-41180D01*
X-257300Y-47711D02*
X-256300D01*
X-256800Y-48211D02*
Y-47211D01*
X-257300Y-53742D02*
X-256300D01*
X-256800Y-54242D02*
Y-53241D01*
X-257300Y-59772D02*
X-256300D01*
X-256800Y-60272D02*
Y-59272D01*
X-257300Y-65803D02*
X-256300D01*
X-256800Y-66303D02*
Y-65303D01*
X-257300Y-71833D02*
X-256300D01*
X-256800Y-72334D02*
Y-71333D01*
X-257300Y42749D02*
X-256300D01*
X-256800Y42249D02*
Y43249D01*
X-257300Y36718D02*
X-256300D01*
X-256800Y36218D02*
Y37218D01*
X-257300Y30688D02*
X-256300D01*
X-256800Y30188D02*
Y31188D01*
X-257300Y24657D02*
X-256300D01*
X-256800Y24157D02*
Y25157D01*
X-257300Y18626D02*
X-256300D01*
X-256800Y18126D02*
Y19126D01*
X-257300Y12596D02*
X-256300D01*
X-256800Y12096D02*
Y13096D01*
X-257300Y6565D02*
X-256300D01*
X-256800Y6065D02*
Y7065D01*
X-257300Y534D02*
X-256300D01*
X-256800Y34D02*
Y1034D01*
X-257300Y-5496D02*
X-256300D01*
X-256800Y-5996D02*
Y-4996D01*
X-257300Y-11527D02*
X-256300D01*
X-256800Y-12027D02*
Y-11027D01*
X-257300Y103056D02*
X-256300D01*
X-256800Y102556D02*
Y103556D01*
X-257300Y97025D02*
X-256300D01*
X-256800Y96525D02*
Y97525D01*
X-257300Y90994D02*
X-256300D01*
X-256800Y90494D02*
Y91494D01*
X-257300Y84964D02*
X-256300D01*
X-256800Y84464D02*
Y85464D01*
X-257300Y78933D02*
X-256300D01*
X-256800Y78433D02*
Y79433D01*
X-257300Y72902D02*
X-256300D01*
X-256800Y72402D02*
Y73402D01*
X-257300Y66872D02*
X-256300D01*
X-256800Y66372D02*
Y67372D01*
X-257300Y60841D02*
X-256300D01*
X-256800Y60341D02*
Y61341D01*
X-257300Y54810D02*
X-256300D01*
X-256800Y54310D02*
Y55310D01*
X-257300Y48780D02*
X-256300D01*
X-256800Y48280D02*
Y49280D01*
X-257300Y163362D02*
X-256300D01*
X-256800Y162862D02*
Y163862D01*
X-257300Y157332D02*
X-256300D01*
X-256800Y156832D02*
Y157832D01*
X-257300Y151301D02*
X-256300D01*
X-256800Y150801D02*
Y151801D01*
X-257300Y145270D02*
X-256300D01*
X-256800Y144770D02*
Y145770D01*
X-257300Y139240D02*
X-256300D01*
X-256800Y138740D02*
Y139740D01*
X-257300Y133209D02*
X-256300D01*
X-256800Y132709D02*
Y133709D01*
X-257300Y127178D02*
X-256300D01*
X-256800Y126678D02*
Y127678D01*
X-257300Y121148D02*
X-256300D01*
X-256800Y120648D02*
Y121648D01*
X-257300Y115117D02*
X-256300D01*
X-256800Y114617D02*
Y115617D01*
X-257300Y109086D02*
X-256300D01*
X-256800Y108586D02*
Y109586D01*
X-257300Y169393D02*
X-256300D01*
X-256800Y168893D02*
Y169893D01*
X-257300Y175424D02*
X-256300D01*
X-256800Y174924D02*
Y175924D01*
X-257300Y181454D02*
X-256300D01*
X-256800Y180954D02*
Y181954D01*
X-257300Y187485D02*
X-256300D01*
X-256800Y186985D02*
Y187985D01*
X-257300Y193516D02*
X-256300D01*
X-256800Y193016D02*
Y194016D01*
X-257300Y199546D02*
X-256300D01*
X-256800Y199046D02*
Y200046D01*
X-257300Y205577D02*
X-256300D01*
X-256800Y205077D02*
Y206077D01*
X-257300Y211608D02*
X-256300D01*
X-256800Y211107D02*
Y212107D01*
X-257300Y217638D02*
X-256300D01*
X-256800Y217138D02*
Y218138D01*
X-257300Y223669D02*
X-256300D01*
X-256800Y223169D02*
Y224169D01*
X-95500Y230000D02*
X-94500D01*
X-95000Y229500D02*
Y230500D01*
X-175500Y230000D02*
X-174500D01*
X-175000Y229500D02*
Y230500D01*
X-175500Y254500D02*
X-174500D01*
X-175000Y254000D02*
Y255000D01*
X-232500Y254500D02*
X-231500D01*
X-232000Y254000D02*
Y255000D01*
X-257300Y229699D02*
X-256300D01*
X-256800Y229200D02*
Y230200D01*
X-257300Y-229700D02*
X-256300D01*
X-256800Y-230200D02*
Y-229200D01*
X-232500Y-254500D02*
X-231500D01*
X-232000Y-255000D02*
Y-254000D01*
X-150000Y-254500D02*
X-149000D01*
X-149500Y-255000D02*
Y-254000D01*
X-150000Y-211500D02*
X-149000D01*
X-149500Y-212000D02*
Y-211000D01*
X-105000Y-211500D02*
X-104000D01*
X-104500Y-212000D02*
Y-211000D01*
X-105000Y-254500D02*
X-104000D01*
X-104500Y-255000D02*
Y-254000D01*
X-95500Y248375D02*
X-94500D01*
X-95000Y247875D02*
Y248875D01*
X-95500Y236125D02*
X-94500D01*
X-95000Y235625D02*
Y236625D01*
X-95500Y242250D02*
X-94500D01*
X-95000Y241750D02*
Y242750D01*
X-169346Y230000D02*
X-168346D01*
X-168846Y229500D02*
Y230500D01*
X-163192Y230000D02*
X-162192D01*
X-162692Y229500D02*
Y230500D01*
X-157038Y230000D02*
X-156038D01*
X-156538Y229500D02*
Y230500D01*
X-150885Y230000D02*
X-149885D01*
X-150385Y229500D02*
Y230500D01*
X-144731Y230000D02*
X-143731D01*
X-144231Y229500D02*
Y230500D01*
X-138577Y230000D02*
X-137577D01*
X-138077Y229500D02*
Y230500D01*
X-132423Y230000D02*
X-131423D01*
X-131923Y229500D02*
Y230500D01*
X-126269Y230000D02*
X-125269D01*
X-125769Y229500D02*
Y230500D01*
X-120115Y230000D02*
X-119115D01*
X-119615Y229500D02*
Y230500D01*
X-113962Y230000D02*
X-112961D01*
X-113461Y229500D02*
Y230500D01*
X-107808Y230000D02*
X-106808D01*
X-107308Y229500D02*
Y230500D01*
X-101654Y230000D02*
X-100654D01*
X-101154Y229500D02*
Y230500D01*
X-175500Y248375D02*
X-174500D01*
X-175000Y247875D02*
Y248875D01*
X-175500Y242250D02*
X-174500D01*
X-175000Y241750D02*
Y242750D01*
X-175500Y236125D02*
X-174500D01*
X-175000Y235625D02*
Y236625D01*
X-226167Y254500D02*
X-225167D01*
X-225667Y254000D02*
Y255000D01*
X-219833Y254500D02*
X-218833D01*
X-219333Y254000D02*
Y255000D01*
X-213500Y254500D02*
X-212500D01*
X-213000Y254000D02*
Y255000D01*
X-207167Y254500D02*
X-206167D01*
X-206667Y254000D02*
Y255000D01*
X-200833Y254500D02*
X-199833D01*
X-200333Y254000D02*
Y255000D01*
X-194500Y254500D02*
X-193500D01*
X-194000Y254000D02*
Y255000D01*
X-188167Y254500D02*
X-187167D01*
X-187667Y254000D02*
Y255000D01*
X-181833Y254500D02*
X-180833D01*
X-181333Y254000D02*
Y255000D01*
X-257300Y-222600D02*
X-256300D01*
X-256800Y-223100D02*
Y-222100D01*
X-226607Y-254500D02*
X-225607D01*
X-226107Y-255000D02*
Y-254000D01*
X-220714Y-254500D02*
X-219714D01*
X-220214Y-255000D02*
Y-254000D01*
X-214821Y-254500D02*
X-213821D01*
X-214321Y-255000D02*
Y-254000D01*
X-208928Y-254500D02*
X-207928D01*
X-208429Y-255000D02*
Y-254000D01*
X-203036Y-254500D02*
X-202036D01*
X-202536Y-255000D02*
Y-254000D01*
X-197143Y-254500D02*
X-196143D01*
X-196643Y-255000D02*
Y-254000D01*
X-191250Y-254500D02*
X-190250D01*
X-190750Y-255000D02*
Y-254000D01*
X-185357Y-254500D02*
X-184357D01*
X-184857Y-255000D02*
Y-254000D01*
X-179464Y-254500D02*
X-178464D01*
X-178964Y-255000D02*
Y-254000D01*
X-173571Y-254500D02*
X-172571D01*
X-173071Y-255000D02*
Y-254000D01*
X-167678Y-254500D02*
X-166679D01*
X-167178Y-255000D02*
Y-254000D01*
X-161786Y-254500D02*
X-160786D01*
X-161286Y-255000D02*
Y-254000D01*
X-155893Y-254500D02*
X-154893D01*
X-155393Y-255000D02*
Y-254000D01*
X-150000Y-248357D02*
X-149000D01*
X-149500Y-248857D02*
Y-247857D01*
X-150000Y-242214D02*
X-149000D01*
X-149500Y-242714D02*
Y-241714D01*
X-150000Y-236071D02*
X-149000D01*
X-149500Y-236572D02*
Y-235572D01*
X-150000Y-229929D02*
X-149000D01*
X-149500Y-230429D02*
Y-229429D01*
X-150000Y-223786D02*
X-149000D01*
X-149500Y-224286D02*
Y-223286D01*
X-150000Y-217643D02*
X-149000D01*
X-149500Y-218143D02*
Y-217143D01*
X-143571Y-211500D02*
X-142571D01*
X-143071Y-212000D02*
Y-211000D01*
X-137143Y-211500D02*
X-136143D01*
X-136643Y-212000D02*
Y-211000D01*
X-130714Y-211500D02*
X-129714D01*
X-130214Y-212000D02*
Y-211000D01*
X-124286Y-211500D02*
X-123286D01*
X-123786Y-212000D02*
Y-211000D01*
X-117857Y-211500D02*
X-116857D01*
X-117357Y-212000D02*
Y-211000D01*
X-111429Y-211500D02*
X-110429D01*
X-110929Y-212000D02*
Y-211000D01*
X-255800Y235800D02*
X-254800D01*
X-255300Y235300D02*
Y236300D01*
X-253200Y241542D02*
X-252200D01*
X-252700Y241042D02*
Y242042D01*
X-249200Y246400D02*
X-248200D01*
X-248700Y245900D02*
Y246900D01*
X-244342Y250400D02*
X-243342D01*
X-243842Y249900D02*
Y250900D01*
X-238600Y253000D02*
X-237600D01*
X-238100Y252500D02*
Y253500D01*
X-238600Y-253000D02*
X-237600D01*
X-238100Y-253500D02*
Y-252500D01*
X-244342Y-250400D02*
X-243342D01*
X-243842Y-250900D02*
Y-249900D01*
X-249200Y-246400D02*
X-248200D01*
X-248700Y-246900D02*
Y-245900D01*
X-253200Y-241542D02*
X-252200D01*
X-252700Y-242042D02*
Y-241042D01*
X-255800Y-235800D02*
X-254800D01*
X-255300Y-236300D02*
Y-235300D01*
X-105000Y-217643D02*
X-104000D01*
X-104500Y-218143D02*
Y-217143D01*
X-105000Y-223786D02*
X-104000D01*
X-104500Y-224286D02*
Y-223286D01*
X-105000Y-229928D02*
X-104000D01*
X-104500Y-230429D02*
Y-229429D01*
X-105000Y-236071D02*
X-104000D01*
X-104500Y-236571D02*
Y-235571D01*
X-105000Y-242214D02*
X-104000D01*
X-104500Y-242714D02*
Y-241714D01*
X-105000Y-248357D02*
X-104000D01*
X-104500Y-248857D02*
Y-247857D01*
X104000Y-248357D02*
X105000D01*
X104500Y-248857D02*
Y-247857D01*
X104000Y-242214D02*
X105000D01*
X104500Y-242714D02*
Y-241714D01*
X104000Y-236071D02*
X105000D01*
X104500Y-236571D02*
Y-235571D01*
X104000Y-229928D02*
X105000D01*
X104500Y-230429D02*
Y-229429D01*
X104000Y-223786D02*
X105000D01*
X104500Y-224286D02*
Y-223286D01*
X104000Y-217643D02*
X105000D01*
X104500Y-218143D02*
Y-217143D01*
X254800Y-235800D02*
X255800D01*
X255300Y-236300D02*
Y-235300D01*
X252200Y-241542D02*
X253200D01*
X252700Y-242042D02*
Y-241042D01*
X248200Y-246400D02*
X249200D01*
X248700Y-246900D02*
Y-245900D01*
X243342Y-250400D02*
X244342D01*
X243842Y-250900D02*
Y-249900D01*
X237600Y-253000D02*
X238600D01*
X238100Y-253500D02*
Y-252500D01*
X237600Y253000D02*
X238600D01*
X238100Y252500D02*
Y253500D01*
X243342Y250400D02*
X244342D01*
X243842Y249900D02*
Y250900D01*
X248200Y246400D02*
X249200D01*
X248700Y245900D02*
Y246900D01*
X252200Y241542D02*
X253200D01*
X252700Y241042D02*
Y242042D01*
X254800Y235800D02*
X255800D01*
X255300Y235300D02*
Y236300D01*
X110429Y-211500D02*
X111429D01*
X110929Y-212000D02*
Y-211000D01*
X116857Y-211500D02*
X117857D01*
X117357Y-212000D02*
Y-211000D01*
X123286Y-211500D02*
X124286D01*
X123786Y-212000D02*
Y-211000D01*
X129714Y-211500D02*
X130714D01*
X130214Y-212000D02*
Y-211000D01*
X136143Y-211500D02*
X137143D01*
X136643Y-212000D02*
Y-211000D01*
X142571Y-211500D02*
X143571D01*
X143071Y-212000D02*
Y-211000D01*
X149000Y-217643D02*
X150000D01*
X149500Y-218143D02*
Y-217143D01*
X149000Y-223786D02*
X150000D01*
X149500Y-224286D02*
Y-223286D01*
X149000Y-229929D02*
X150000D01*
X149500Y-230429D02*
Y-229429D01*
X149000Y-236071D02*
X150000D01*
X149500Y-236572D02*
Y-235572D01*
X149000Y-242214D02*
X150000D01*
X149500Y-242714D02*
Y-241714D01*
X149000Y-248357D02*
X150000D01*
X149500Y-248857D02*
Y-247857D01*
X154893Y-254500D02*
X155893D01*
X155393Y-255000D02*
Y-254000D01*
X160786Y-254500D02*
X161786D01*
X161286Y-255000D02*
Y-254000D01*
X166679Y-254500D02*
X167678D01*
X167178Y-255000D02*
Y-254000D01*
X172571Y-254500D02*
X173571D01*
X173071Y-255000D02*
Y-254000D01*
X178464Y-254500D02*
X179464D01*
X178964Y-255000D02*
Y-254000D01*
X184357Y-254500D02*
X185357D01*
X184857Y-255000D02*
Y-254000D01*
X190250Y-254500D02*
X191250D01*
X190750Y-255000D02*
Y-254000D01*
X196143Y-254500D02*
X197143D01*
X196643Y-255000D02*
Y-254000D01*
X202036Y-254500D02*
X203036D01*
X202536Y-255000D02*
Y-254000D01*
X207928Y-254500D02*
X208928D01*
X208429Y-255000D02*
Y-254000D01*
X213821Y-254500D02*
X214821D01*
X214321Y-255000D02*
Y-254000D01*
X219714Y-254500D02*
X220714D01*
X220214Y-255000D02*
Y-254000D01*
X225607Y-254500D02*
X226607D01*
X226107Y-255000D02*
Y-254000D01*
X256300Y-222600D02*
X257300D01*
X256800Y-223100D02*
Y-222100D01*
X239200Y-215500D02*
X240200D01*
X239700Y-216000D02*
Y-215000D01*
X244900Y-215500D02*
X245900D01*
X245400Y-216000D02*
Y-215000D01*
X250600Y-215500D02*
X251600D01*
X251100Y-216000D02*
Y-215000D01*
X233500Y-136572D02*
X234500D01*
X234000Y-137072D02*
Y-136072D01*
X233500Y-142643D02*
X234500D01*
X234000Y-143143D02*
Y-142143D01*
X233500Y-166929D02*
X234500D01*
X234000Y-167429D02*
Y-166429D01*
X233500Y-173000D02*
X234500D01*
X234000Y-173500D02*
Y-172500D01*
X233500Y-179071D02*
X234500D01*
X234000Y-179571D02*
Y-178571D01*
X233500Y-185143D02*
X234500D01*
X234000Y-185643D02*
Y-184643D01*
X233500Y-191214D02*
X234500D01*
X234000Y-191714D02*
Y-190714D01*
X233500Y-197286D02*
X234500D01*
X234000Y-197786D02*
Y-196786D01*
X233500Y-203357D02*
X234500D01*
X234000Y-203857D02*
Y-202857D01*
X233500Y-209429D02*
X234500D01*
X234000Y-209929D02*
Y-208929D01*
X238000Y-119500D02*
X239000D01*
X238500Y-120000D02*
Y-119000D01*
X238000Y-125000D02*
X239000D01*
X238500Y-125500D02*
Y-124500D01*
X238000Y-114000D02*
X239000D01*
X238500Y-114500D02*
Y-113500D01*
X244100Y-96000D02*
X245100D01*
X244600Y-96500D02*
Y-95500D01*
X250200Y-96000D02*
X251200D01*
X250700Y-96500D02*
Y-95500D01*
X256300Y223668D02*
X257300D01*
X256800Y223168D02*
Y224168D01*
X256300Y217637D02*
X257300D01*
X256800Y217137D02*
Y218137D01*
X256300Y211606D02*
X257300D01*
X256800Y211105D02*
Y212105D01*
X256300Y151291D02*
X257300D01*
X256800Y150791D02*
Y151791D01*
X256300Y157322D02*
X257300D01*
X256800Y156822D02*
Y157822D01*
X256300Y163354D02*
X257300D01*
X256800Y162854D02*
Y163854D01*
X256300Y169385D02*
X257300D01*
X256800Y168885D02*
Y169885D01*
X256300Y175417D02*
X257300D01*
X256800Y174917D02*
Y175917D01*
X256300Y181448D02*
X257300D01*
X256800Y180948D02*
Y181948D01*
X256300Y187480D02*
X257300D01*
X256800Y186980D02*
Y187980D01*
X256300Y193511D02*
X257300D01*
X256800Y193011D02*
Y194011D01*
X256300Y199542D02*
X257300D01*
X256800Y199042D02*
Y200043D01*
X256300Y205574D02*
X257300D01*
X256800Y205074D02*
Y206074D01*
X256300Y90976D02*
X257300D01*
X256800Y90476D02*
Y91476D01*
X256300Y97007D02*
X257300D01*
X256800Y96507D02*
Y97507D01*
X256300Y103039D02*
X257300D01*
X256800Y102539D02*
Y103539D01*
X256300Y109070D02*
X257300D01*
X256800Y108570D02*
Y109570D01*
X256300Y115102D02*
X257300D01*
X256800Y114602D02*
Y115602D01*
X256300Y121133D02*
X257300D01*
X256800Y120633D02*
Y121633D01*
X256300Y127165D02*
X257300D01*
X256800Y126665D02*
Y127665D01*
X256300Y133196D02*
X257300D01*
X256800Y132696D02*
Y133696D01*
X256300Y139228D02*
X257300D01*
X256800Y138728D02*
Y139728D01*
X256300Y145259D02*
X257300D01*
X256800Y144759D02*
Y145759D01*
X256300Y30661D02*
X257300D01*
X256800Y30161D02*
Y31161D01*
X256300Y36693D02*
X257300D01*
X256800Y36193D02*
Y37193D01*
X256300Y42724D02*
X257300D01*
X256800Y42224D02*
Y43224D01*
X256300Y48755D02*
X257300D01*
X256800Y48256D02*
Y49255D01*
X256300Y54787D02*
X257300D01*
X256800Y54287D02*
Y55287D01*
X256300Y60818D02*
X257300D01*
X256800Y60318D02*
Y61318D01*
X256300Y66850D02*
X257300D01*
X256800Y66350D02*
Y67350D01*
X256300Y72881D02*
X257300D01*
X256800Y72381D02*
Y73381D01*
X256300Y78913D02*
X257300D01*
X256800Y78413D02*
Y79413D01*
X256300Y84944D02*
X257300D01*
X256800Y84444D02*
Y85444D01*
X256300Y-29654D02*
X257300D01*
X256800Y-30154D02*
Y-29154D01*
X256300Y-23622D02*
X257300D01*
X256800Y-24122D02*
Y-23122D01*
X256300Y-17591D02*
X257300D01*
X256800Y-18091D02*
Y-17091D01*
X256300Y-11559D02*
X257300D01*
X256800Y-12059D02*
Y-11059D01*
X256300Y-5528D02*
X257300D01*
X256800Y-6028D02*
Y-5028D01*
X256300Y504D02*
X257300D01*
X256800Y4D02*
Y1004D01*
X256300Y6535D02*
X257300D01*
X256800Y6035D02*
Y7035D01*
X256300Y12567D02*
X257300D01*
X256800Y12067D02*
Y13067D01*
X256300Y18598D02*
X257300D01*
X256800Y18098D02*
Y19098D01*
X256300Y24630D02*
X257300D01*
X256800Y24130D02*
Y25130D01*
X256300Y-35685D02*
X257300D01*
X256800Y-36185D02*
Y-35185D01*
X256300Y-41717D02*
X257300D01*
X256800Y-42217D02*
Y-41217D01*
X256300Y-47748D02*
X257300D01*
X256800Y-48248D02*
Y-47248D01*
X256300Y-53780D02*
X257300D01*
X256800Y-54280D02*
Y-53280D01*
X256300Y-59811D02*
X257300D01*
X256800Y-60311D02*
Y-59311D01*
X256300Y-65843D02*
X257300D01*
X256800Y-66343D02*
Y-65343D01*
X256300Y-71874D02*
X257300D01*
X256800Y-72374D02*
Y-71374D01*
X256300Y-77906D02*
X257300D01*
X256800Y-78406D02*
Y-77406D01*
X256300Y-83937D02*
X257300D01*
X256800Y-84437D02*
Y-83437D01*
X256300Y-89969D02*
X257300D01*
X256800Y-90469D02*
Y-89468D01*
X180833Y254500D02*
X181833D01*
X181333Y254000D02*
Y255000D01*
X187167Y254500D02*
X188167D01*
X187667Y254000D02*
Y255000D01*
X193500Y254500D02*
X194500D01*
X194000Y254000D02*
Y255000D01*
X199833Y254500D02*
X200833D01*
X200333Y254000D02*
Y255000D01*
X206167Y254500D02*
X207167D01*
X206667Y254000D02*
Y255000D01*
X212500Y254500D02*
X213500D01*
X213000Y254000D02*
Y255000D01*
X218833Y254500D02*
X219833D01*
X219333Y254000D02*
Y255000D01*
X225167Y254500D02*
X226167D01*
X225667Y254000D02*
Y255000D01*
X174500Y236125D02*
X175500D01*
X175000Y235625D02*
Y236625D01*
X174500Y242250D02*
X175500D01*
X175000Y241750D02*
Y242750D01*
X174500Y248375D02*
X175500D01*
X175000Y247875D02*
Y248875D01*
X100654Y230000D02*
X101654D01*
X101154Y229500D02*
Y230500D01*
X106808Y230000D02*
X107808D01*
X107308Y229500D02*
Y230500D01*
X112961Y230000D02*
X113962D01*
X113461Y229500D02*
Y230500D01*
X119115Y230000D02*
X120115D01*
X119615Y229500D02*
Y230500D01*
X125269Y230000D02*
X126269D01*
X125769Y229500D02*
Y230500D01*
X131423Y230000D02*
X132423D01*
X131923Y229500D02*
Y230500D01*
X137577Y230000D02*
X138577D01*
X138077Y229500D02*
Y230500D01*
X143731Y230000D02*
X144731D01*
X144231Y229500D02*
Y230500D01*
X149885Y230000D02*
X150885D01*
X150385Y229500D02*
Y230500D01*
X156038Y230000D02*
X157038D01*
X156538Y229500D02*
Y230500D01*
X162192Y230000D02*
X163192D01*
X162692Y229500D02*
Y230500D01*
X168346Y230000D02*
X169346D01*
X168846Y229500D02*
Y230500D01*
X94500Y242250D02*
X95500D01*
X95000Y241750D02*
Y242750D01*
X94500Y236125D02*
X95500D01*
X95000Y235625D02*
Y236625D01*
X94500Y248375D02*
X95500D01*
X95000Y247875D02*
Y248875D01*
X104000Y-254500D02*
X105000D01*
X104500Y-255000D02*
Y-254000D01*
X104000Y-211500D02*
X105000D01*
X104500Y-212000D02*
Y-211000D01*
X149000Y-211500D02*
X150000D01*
X149500Y-212000D02*
Y-211000D01*
X149000Y-254500D02*
X150000D01*
X149500Y-255000D02*
Y-254000D01*
X231500Y-254500D02*
X232500D01*
X232000Y-255000D02*
Y-254000D01*
X256300Y-229700D02*
X257300D01*
X256800Y-230200D02*
Y-229200D01*
X256300Y-215500D02*
X257300D01*
X256800Y-216000D02*
Y-215000D01*
X233500Y-215500D02*
X234500D01*
X234000Y-216000D02*
Y-215000D01*
X233500Y-130500D02*
X234500D01*
X234000Y-131000D02*
Y-130000D01*
X238000Y-130500D02*
X239000D01*
X238500Y-131000D02*
Y-130000D01*
X238000Y-96000D02*
X239000D01*
X238500Y-96500D02*
Y-95500D01*
X256300Y-96000D02*
X257300D01*
X256800Y-96500D02*
Y-95500D01*
X256300Y229700D02*
X257300D01*
X256800Y229200D02*
Y230200D01*
X231500Y254500D02*
X232500D01*
X232000Y254000D02*
Y255000D01*
X174500Y254500D02*
X175500D01*
X175000Y254000D02*
Y255000D01*
X174500Y230000D02*
X175500D01*
X175000Y229500D02*
Y230500D01*
X94500Y230000D02*
X95500D01*
X95000Y229500D02*
Y230500D01*
X113500Y-177000D02*
X114500D01*
X114000Y-177500D02*
Y-176500D01*
X144303Y123000D02*
X145303D01*
X144803Y122500D02*
Y123500D01*
X188398Y168000D02*
X189398D01*
X188898Y167500D02*
Y168500D01*
X191547Y163000D02*
X192547D01*
X192047Y162500D02*
Y163500D01*
X194697Y159500D02*
X195697D01*
X195197Y159000D02*
Y160000D01*
X197846Y156086D02*
X198846D01*
X198346Y155586D02*
Y156586D01*
X147500Y104500D02*
X148500D01*
X148000Y104000D02*
Y105000D01*
X144000Y101000D02*
X145000D01*
X144500Y100500D02*
Y101500D01*
X198500Y113500D02*
X199500D01*
X199000Y113000D02*
Y114000D01*
X195500Y117000D02*
X196500D01*
X196000Y116500D02*
Y117500D01*
X201500Y117000D02*
X202500D01*
X202000Y116500D02*
Y117500D01*
X204500Y113500D02*
X205500D01*
X205000Y113000D02*
Y114000D01*
X-54000Y-96000D02*
X-53000D01*
X-53500Y-96500D02*
Y-95500D01*
X-80000Y-90000D02*
X-79000D01*
X-79500Y-90500D02*
Y-89500D01*
X-65500Y-90000D02*
X-64500D01*
X-65000Y-90500D02*
Y-89500D01*
X36354Y5354D02*
X37354D01*
X36854Y4854D02*
Y5854D01*
X94500Y254500D02*
X95500D01*
X95000Y254000D02*
Y255000D01*
X-95500Y254500D02*
X-94500D01*
X-95000Y254000D02*
Y255000D01*
X-209000Y183000D02*
X-208000D01*
X-208500Y182500D02*
Y183500D01*
X-247500Y62500D02*
X-246500D01*
X-247000Y62000D02*
Y63000D01*
X164000Y140500D02*
X165000D01*
X164500Y140000D02*
Y141000D01*
X-62500Y9500D02*
X-61500D01*
X-62000Y9000D02*
Y10000D01*
X-100250Y97780D02*
X-97750D01*
X-99000Y96530D02*
Y99029D01*
X33600Y22500D02*
X34600D01*
X34100Y22000D02*
Y23000D01*
X-60500Y-38000D02*
X-59500D01*
X-60000Y-38500D02*
Y-37500D01*
X174000Y133000D02*
X175000D01*
X174500Y132500D02*
Y133500D01*
X41000Y19500D02*
X42000D01*
X41500Y19000D02*
Y20000D01*
X4295Y9500D02*
X5295D01*
X4795Y9000D02*
Y10000D01*
X-47000Y-58000D02*
X-46000D01*
X-46500Y-58500D02*
Y-57500D01*
X-27138Y31100D02*
X-26138D01*
X-26638Y30600D02*
Y31600D01*
X16169Y3500D02*
X17169D01*
X16669Y3000D02*
Y4000D01*
X-5484Y5500D02*
X-4484D01*
X-4984Y5000D02*
Y6000D01*
X-5484Y9500D02*
X-4484D01*
X-4984Y9000D02*
Y10000D01*
X-9421Y9500D02*
X-8421D01*
X-8921Y9000D02*
Y10000D01*
X40500Y-8000D02*
X41500D01*
X41000Y-8500D02*
Y-7500D01*
X38000Y-31500D02*
X39000D01*
X38500Y-32000D02*
Y-31000D01*
X35000Y-19000D02*
X36000D01*
X35500Y-19500D02*
Y-18500D01*
X39500Y-29000D02*
X40500D01*
X40000Y-29500D02*
Y-28500D01*
X38000Y-37500D02*
X39000D01*
X38500Y-38000D02*
Y-37000D01*
X53500Y-19000D02*
X54500D01*
X54000Y-19500D02*
Y-18500D01*
X50500Y-40000D02*
X51500D01*
X51000Y-40500D02*
Y-39500D01*
X50500Y-37000D02*
X51500D01*
X51000Y-37500D02*
Y-36500D01*
X22000Y-45500D02*
X23000D01*
X22500Y-46000D02*
Y-45000D01*
X55500Y-26142D02*
X56500D01*
X56000Y-26642D02*
Y-25642D01*
X57500Y16000D02*
X58500D01*
X58000Y15500D02*
Y16500D01*
X61500Y20000D02*
X62500D01*
X62000Y19500D02*
Y20500D01*
X33500Y-52000D02*
X34500D01*
X34000Y-52500D02*
Y-51500D01*
X27000Y20000D02*
X28000D01*
X27500Y19500D02*
Y20500D01*
X-60500Y-33500D02*
X-59500D01*
X-60000Y-34000D02*
Y-33000D01*
X178949Y117000D02*
X179949D01*
X179449Y116500D02*
Y117500D01*
X3500Y-70500D02*
X4500D01*
X4000Y-71000D02*
Y-70000D01*
X40000Y9000D02*
X41000D01*
X40500Y8500D02*
Y9500D01*
X-62000Y-49764D02*
X-61000D01*
X-61500Y-50264D02*
Y-49264D01*
X8000Y-70500D02*
X9000D01*
X8500Y-71000D02*
Y-70000D01*
X9500Y-68000D02*
X10500D01*
X10000Y-68500D02*
Y-67500D01*
X13000Y-80500D02*
X14000D01*
X13500Y-81000D02*
Y-80000D01*
X48000Y-82000D02*
X49000D01*
X48500Y-82500D02*
Y-81500D01*
X24500Y-90000D02*
X25500D01*
X25000Y-90500D02*
Y-89500D01*
X45500Y-84000D02*
X46500D01*
X46000Y-84500D02*
Y-83500D01*
X43000Y-85500D02*
X44000D01*
X43500Y-86000D02*
Y-85000D01*
X-49669Y-22205D02*
X-48669D01*
X-49169Y-22705D02*
Y-21705D01*
X-46500Y-17000D02*
X-45500D01*
X-46000Y-17500D02*
Y-16500D01*
X-43500Y-20000D02*
X-42500D01*
X-43000Y-20500D02*
Y-19500D01*
X-43500Y-27000D02*
X-42500D01*
X-43000Y-27500D02*
Y-26500D01*
X185500Y141500D02*
X186500D01*
X186000Y141000D02*
Y142000D01*
X185500Y136500D02*
X186500D01*
X186000Y136000D02*
Y137000D01*
X201000Y152500D02*
X202000D01*
X201500Y152000D02*
Y153000D01*
X184000Y159500D02*
X185000D01*
X184500Y159000D02*
Y160000D01*
X170500Y159500D02*
X171500D01*
X171000Y159000D02*
Y160000D01*
X191500Y144000D02*
X192500D01*
X192000Y143500D02*
Y144500D01*
X127000Y182000D02*
X128000D01*
X127500Y181500D02*
Y182500D01*
X132500Y182000D02*
X133500D01*
X133000Y181500D02*
Y182500D01*
X138000Y182000D02*
X139000D01*
X138500Y181500D02*
Y182500D01*
X132000Y157000D02*
X133000D01*
X132500Y156500D02*
Y157500D01*
X121500Y148000D02*
X122500D01*
X122000Y147500D02*
Y148500D01*
X125000Y151000D02*
X126000D01*
X125500Y150500D02*
Y151500D01*
X128500Y154000D02*
X129500D01*
X129000Y153500D02*
Y154500D01*
X128500Y168000D02*
X129500D01*
X129000Y167500D02*
Y168500D01*
X134854Y168000D02*
X135854D01*
X135354Y167500D02*
Y168500D01*
X146000Y168000D02*
X147000D01*
X146500Y167500D02*
Y168500D01*
X150602Y168000D02*
X151602D01*
X151102Y167500D02*
Y168500D01*
X155500Y168000D02*
X156500D01*
X156000Y167500D02*
Y168500D01*
X160051Y168000D02*
X161051D01*
X160551Y167500D02*
Y168500D01*
X166350Y168000D02*
X167350D01*
X166850Y167500D02*
Y168500D01*
X204146Y177000D02*
X205146D01*
X204646Y176500D02*
Y177500D01*
X207309Y168000D02*
X208309D01*
X207809Y167500D02*
Y168500D01*
X191547Y132000D02*
X192547D01*
X192047Y131500D02*
Y132500D01*
X169500Y177000D02*
X170500D01*
X170000Y176500D02*
Y177500D01*
X182098Y177000D02*
X183098D01*
X182598Y176500D02*
Y177500D01*
X210445Y177000D02*
X211445D01*
X210945Y176500D02*
Y177500D01*
X178949Y123000D02*
X179949D01*
X179449Y122500D02*
Y123500D01*
X163201Y123000D02*
X164201D01*
X163701Y122500D02*
Y123500D01*
X160500Y-111500D02*
X161500D01*
X161000Y-112000D02*
Y-111000D01*
X172513Y-102000D02*
X173513D01*
X173013Y-102500D02*
Y-101500D01*
X189808Y-106832D02*
X190808D01*
X190308Y-107332D02*
Y-106332D01*
X180500Y-113000D02*
X181500D01*
X181000Y-113500D02*
Y-112500D01*
X180500Y-118000D02*
X181500D01*
X181000Y-118500D02*
Y-117500D01*
X185100Y-79000D02*
X186100D01*
X185600Y-79500D02*
Y-78500D01*
X151000Y-136000D02*
X152000D01*
X151500Y-136500D02*
Y-135500D01*
X151000Y-130000D02*
X152000D01*
X151500Y-130500D02*
Y-129500D01*
X-78000Y-154000D02*
X-77000D01*
X-77500Y-154500D02*
Y-153500D01*
X-84500Y-156000D02*
X-83500D01*
X-84000Y-156500D02*
Y-155500D01*
X-91000Y-154000D02*
X-90000D01*
X-90500Y-154500D02*
Y-153500D01*
X-97500Y-156000D02*
X-96500D01*
X-97000Y-156500D02*
Y-155500D01*
X-102000Y-154000D02*
X-101000D01*
X-101500Y-154500D02*
Y-153500D01*
X-106500Y-156000D02*
X-105500D01*
X-106000Y-156500D02*
Y-155500D01*
X-117500Y-156000D02*
X-116500D01*
X-117000Y-156500D02*
Y-155500D01*
X-122000Y-154000D02*
X-121000D01*
X-121500Y-154500D02*
Y-153500D01*
X-126500Y-156000D02*
X-125500D01*
X-126000Y-156500D02*
Y-155500D01*
X-135500Y-156000D02*
X-134500D01*
X-135000Y-156500D02*
Y-155500D01*
X-79000Y-188500D02*
X-78000D01*
X-78500Y-189000D02*
Y-188000D01*
X-84173Y-181500D02*
X-83173D01*
X-83673Y-182000D02*
Y-181000D01*
X-76299Y-181500D02*
X-75299D01*
X-75799Y-182000D02*
Y-181000D01*
X-70500Y-181500D02*
X-69500D01*
X-70000Y-182000D02*
Y-181000D01*
X-65500Y-181500D02*
X-64500D01*
X-65000Y-182000D02*
Y-181000D01*
X-62000Y-185000D02*
X-61000D01*
X-61500Y-185500D02*
Y-184500D01*
X-58500Y-188500D02*
X-57500D01*
X-58000Y-189000D02*
Y-188000D01*
X-111500Y-202500D02*
X-110500D01*
X-111000Y-203000D02*
Y-202000D01*
X-119000Y-200000D02*
X-118000D01*
X-118500Y-200500D02*
Y-199500D01*
X-114500Y-200000D02*
X-113500D01*
X-114000Y-200500D02*
Y-199500D01*
X-64488Y-197500D02*
X-63488D01*
X-63988Y-198000D02*
Y-197000D01*
X-78268Y-197500D02*
X-77268D01*
X-77768Y-198000D02*
Y-197000D01*
X-107795Y-205000D02*
X-106795D01*
X-107295Y-205500D02*
Y-204500D01*
X-97953Y-207500D02*
X-96953D01*
X-97453Y-208000D02*
Y-207000D01*
X-94016Y-210000D02*
X-93016D01*
X-93516Y-210500D02*
Y-209500D01*
X-86142Y-212500D02*
X-85142D01*
X-85642Y-213000D02*
Y-212000D01*
X-125521Y-189622D02*
X-124521D01*
X-125021Y-190122D02*
Y-189122D01*
X-91500Y30000D02*
X-90500D01*
X-91000Y29500D02*
Y30500D01*
X-91500Y36000D02*
X-90500D01*
X-91000Y35500D02*
Y36500D01*
X-91500Y33000D02*
X-90500D01*
X-91000Y32500D02*
Y33500D01*
X-145250Y202500D02*
X-142750D01*
X-144000Y201250D02*
Y203750D01*
X-181000Y142438D02*
X-180000D01*
X-180500Y141938D02*
Y142938D01*
X-181000Y158438D02*
X-180000D01*
X-180500Y157938D02*
Y158938D01*
X-181000Y133438D02*
X-180000D01*
X-180500Y132938D02*
Y133938D01*
X-181000Y149438D02*
X-180000D01*
X-180500Y148938D02*
Y149938D01*
X-69500Y174000D02*
X-68500D01*
X-69000Y173500D02*
Y174500D01*
X-27500Y222000D02*
X-26500D01*
X-27000Y221500D02*
Y222500D01*
X-15500Y222041D02*
X-14500D01*
X-15000Y221541D02*
Y222541D01*
X-21500Y222000D02*
X-20500D01*
X-21000Y221500D02*
Y222500D01*
X-15500Y227500D02*
X-14500D01*
X-15000Y227000D02*
Y228000D01*
X-39000Y223500D02*
X-38000D01*
X-38500Y223000D02*
Y224000D01*
X-33500Y227500D02*
X-32500D01*
X-33000Y227000D02*
Y228000D01*
X-45516Y227500D02*
X-44516D01*
X-45016Y227000D02*
Y228000D01*
X-55500Y224500D02*
X-54500D01*
X-55000Y224000D02*
Y225000D01*
X-55500Y234000D02*
X-54500D01*
X-55000Y233500D02*
Y234500D01*
X-60400Y241500D02*
X-59400D01*
X-59900Y241000D02*
Y242000D01*
X-60400Y182500D02*
X-59400D01*
X-59900Y182000D02*
Y183000D01*
X-71000Y237000D02*
X-70000D01*
X-70500Y236500D02*
Y237500D01*
X-71000Y231000D02*
X-70000D01*
X-70500Y230500D02*
Y231500D01*
X-71000Y225000D02*
X-70000D01*
X-70500Y224500D02*
Y225500D01*
X-15500Y241000D02*
X-14500D01*
X-15000Y240500D02*
Y241500D01*
X-21500Y241000D02*
X-20500D01*
X-21000Y240500D02*
Y241500D01*
X-27500Y241000D02*
X-26500D01*
X-27000Y240500D02*
Y241500D01*
X-33500Y241000D02*
X-32500D01*
X-33000Y240500D02*
Y241500D01*
X-39500Y241000D02*
X-38500D01*
X-39000Y240500D02*
Y241500D01*
X-45500Y241000D02*
X-44500D01*
X-45000Y240500D02*
Y241500D01*
X14500Y-1000D02*
X15500D01*
X15000Y-1500D02*
Y-500D01*
X-31000Y-5550D02*
X-30000D01*
X-30500Y-6050D02*
Y-5050D01*
X-27000Y-4000D02*
X-26000D01*
X-26500Y-4500D02*
Y-3500D01*
X-18000Y-8000D02*
X-17000D01*
X-17500Y-8500D02*
Y-7500D01*
X-23000Y-5500D02*
X-22000D01*
X-22500Y-6000D02*
Y-5000D01*
X-31000Y-13500D02*
X-30000D01*
X-30500Y-14000D02*
Y-13000D01*
X-23000Y-13500D02*
X-22000D01*
X-22500Y-14000D02*
Y-13000D01*
X-27000Y-15000D02*
X-26000D01*
X-26500Y-15500D02*
Y-14500D01*
X-29500Y-46000D02*
X-28500D01*
X-29000Y-46500D02*
Y-45500D01*
X-8000Y-54000D02*
X-7000D01*
X-7500Y-54500D02*
Y-53500D01*
X-1000Y-54000D02*
X0D01*
X-500Y-54500D02*
Y-53500D01*
X13000Y-55000D02*
X14000D01*
X13500Y-55500D02*
Y-54500D01*
X10500Y-61000D02*
X11500D01*
X11000Y-61500D02*
Y-60500D01*
X8000Y-65000D02*
X9000D01*
X8500Y-65500D02*
Y-64500D01*
X-10500Y-70000D02*
X-9500D01*
X-10000Y-70500D02*
Y-69500D01*
X-20500Y-69000D02*
X-19500D01*
X-20000Y-69500D02*
Y-68500D01*
X-49500Y-86500D02*
X-48500D01*
X-49000Y-87000D02*
Y-86000D01*
X-59500Y-16500D02*
X-58500D01*
X-59000Y-17000D02*
Y-16000D01*
X-64000Y500D02*
X-63000D01*
X-63500Y0D02*
Y1000D01*
X-62500Y-16500D02*
X-61500D01*
X-62000Y-17000D02*
Y-16000D01*
X-35000Y-15000D02*
X-34000D01*
X-34500Y-15500D02*
Y-14500D01*
X-45500Y-46500D02*
X-44500D01*
X-45000Y-47000D02*
Y-46000D01*
X-24500Y-49000D02*
X-23500D01*
X-24000Y-49500D02*
Y-48500D01*
X-49500Y-42500D02*
X-48500D01*
X-49000Y-43000D02*
Y-42000D01*
X-59500Y-45827D02*
X-58500D01*
X-59000Y-46327D02*
Y-45327D01*
X-62599Y-28110D02*
X-61599D01*
X-62099Y-28610D02*
Y-27610D01*
X-59500Y-24173D02*
X-58500D01*
X-59000Y-24673D02*
Y-23673D01*
X-49500Y-28110D02*
X-48500D01*
X-49000Y-28610D02*
Y-27610D01*
X-31000Y-37000D02*
X-30000D01*
X-30500Y-37500D02*
Y-36500D01*
X-46000Y-34000D02*
X-45000D01*
X-45500Y-34500D02*
Y-33500D01*
X-31000Y-40000D02*
X-30000D01*
X-30500Y-40500D02*
Y-39500D01*
X-31000Y-34000D02*
X-30000D01*
X-30500Y-34500D02*
Y-33500D01*
X-46000Y-40000D02*
X-45000D01*
X-45500Y-40500D02*
Y-39500D01*
X-46000Y-37000D02*
X-45000D01*
X-45500Y-37500D02*
Y-36500D01*
X-56500Y22000D02*
X-55500D01*
X-56000Y21500D02*
Y22500D01*
X-54000Y19500D02*
X-53000D01*
X-53500Y19000D02*
Y20000D01*
X-68500Y16000D02*
X-67500D01*
X-68000Y15500D02*
Y16500D01*
X-47000Y-64500D02*
X-46000D01*
X-46500Y-65000D02*
Y-64000D01*
X-49500Y-67000D02*
X-48500D01*
X-49000Y-67500D02*
Y-66500D01*
X-27500Y-89500D02*
X-26500D01*
X-27000Y-90000D02*
Y-89000D01*
X-35500Y-101500D02*
X-34500D01*
X-35000Y-102000D02*
Y-101000D01*
X-31500Y-101500D02*
X-30500D01*
X-31000Y-102000D02*
Y-101000D01*
X-31500Y-94500D02*
X-30500D01*
X-31000Y-95000D02*
Y-94000D01*
X-27500Y-97000D02*
X-26500D01*
X-27000Y-97500D02*
Y-96500D01*
X-30009Y-90500D02*
X-29009D01*
X-29509Y-91000D02*
Y-90000D01*
X-31009Y-77000D02*
X-30009D01*
X-30509Y-77500D02*
Y-76500D01*
X21000Y-100000D02*
X22000D01*
X21500Y-100500D02*
Y-99500D01*
X59500Y-31500D02*
X60500D01*
X60000Y-32000D02*
Y-31000D01*
X56500Y-31500D02*
X57500D01*
X57000Y-32000D02*
Y-31000D01*
X-38500Y-76500D02*
X-37500D01*
X-38000Y-77000D02*
Y-76000D01*
X-41500Y-79500D02*
X-40500D01*
X-41000Y-80000D02*
Y-79000D01*
X20106Y-90000D02*
X21106D01*
X20606Y-90500D02*
Y-89500D01*
X31000Y9500D02*
X32000D01*
X31500Y9000D02*
Y10000D01*
X25000Y9500D02*
X26000D01*
X25500Y9000D02*
Y10000D01*
X-44000Y-90000D02*
X-43000D01*
X-43500Y-90500D02*
Y-89500D01*
X1500Y-90000D02*
X2500D01*
X2000Y-90500D02*
Y-89500D01*
X-13358Y-80000D02*
X-12358D01*
X-12858Y-80500D02*
Y-79500D01*
X-17295Y-80000D02*
X-16295D01*
X-16795Y-80500D02*
Y-79500D01*
X24000Y-100000D02*
X25000D01*
X24500Y-100500D02*
Y-99500D01*
X50500Y-98000D02*
X51500D01*
X51000Y-98500D02*
Y-97500D01*
X54500Y-88500D02*
X55500D01*
X55000Y-89000D02*
Y-88000D01*
X43000Y-94000D02*
X44000D01*
X43500Y-94500D02*
Y-93500D01*
X50500Y-78500D02*
X51500D01*
X51000Y-79000D02*
Y-78000D01*
X50500Y-74000D02*
X51500D01*
X51000Y-74500D02*
Y-73500D01*
X50500Y-53500D02*
X51500D01*
X51000Y-54000D02*
Y-53000D01*
X34000Y-79000D02*
X35000D01*
X34500Y-79500D02*
Y-78500D01*
X36500Y-72500D02*
X37500D01*
X37000Y-73000D02*
Y-72000D01*
X36500Y-66500D02*
X37500D01*
X37000Y-67000D02*
Y-66000D01*
X36500Y-60500D02*
X37500D01*
X37000Y-61000D02*
Y-60000D01*
X23000Y-64000D02*
X24000D01*
X23500Y-64500D02*
Y-63500D01*
X19500Y-61000D02*
X20500D01*
X20000Y-61500D02*
Y-60500D01*
X39500Y-52000D02*
X40500D01*
X40000Y-52500D02*
Y-51500D01*
X53500Y-31500D02*
X54500D01*
X54000Y-32000D02*
Y-31000D01*
X26000Y-43500D02*
X27000D01*
X26500Y-44000D02*
Y-43000D01*
X30000Y-41500D02*
X31000D01*
X30500Y-42000D02*
Y-41000D01*
X34000Y-39500D02*
X35000D01*
X34500Y-40000D02*
Y-39000D01*
X25000Y-27000D02*
X26000D01*
X25500Y-27500D02*
Y-26500D01*
X29000Y-24000D02*
X30000D01*
X29500Y-24500D02*
Y-23500D01*
X13169Y20000D02*
X14169D01*
X13669Y19500D02*
Y20500D01*
X16669Y24000D02*
X17669D01*
X17169Y23500D02*
Y24500D01*
X-17295Y9500D02*
X-16295D01*
X-16795Y9000D02*
Y10000D01*
X-27000Y5500D02*
X-26000D01*
X-26500Y5000D02*
Y6000D01*
X-25169Y9500D02*
X-24169D01*
X-24669Y9000D02*
Y10000D01*
X-33000Y5500D02*
X-32000D01*
X-32500Y5000D02*
Y6000D01*
X-36000Y9500D02*
X-35000D01*
X-35500Y9000D02*
Y10000D01*
X-9421Y19976D02*
X-8421D01*
X-8921Y19476D02*
Y20476D01*
X-12500Y20055D02*
X-11500D01*
X-12000Y19555D02*
Y20555D01*
X-13358Y9500D02*
X-12358D01*
X-12858Y9000D02*
Y10000D01*
X-21232Y9500D02*
X-20232D01*
X-20732Y9000D02*
Y10000D01*
X-19264Y19976D02*
X-18264D01*
X-18764Y19476D02*
Y20476D01*
X-24500Y20055D02*
X-23500D01*
X-24000Y19555D02*
Y20555D01*
X-38949Y19976D02*
X-37949D01*
X-38449Y19476D02*
Y20476D01*
X-29500Y20000D02*
X-28500D01*
X-29000Y19500D02*
Y20500D01*
X-41500Y8000D02*
X-40500D01*
X-41000Y7500D02*
Y8500D01*
X-42500Y0D02*
X-41500D01*
X-42000Y-500D02*
Y500D01*
X-46500Y0D02*
X-45500D01*
X-46000Y-500D02*
Y500D01*
X-65500Y12000D02*
X-64500D01*
X-65000Y11500D02*
Y12500D01*
X-140049Y133400D02*
X-137549D01*
X-138799Y132150D02*
Y134650D01*
X-146250Y133400D02*
X-143750D01*
X-145000Y132150D02*
Y134650D01*
X-163500Y-190685D02*
X-162500D01*
X-163000Y-191185D02*
Y-190185D01*
X-191500Y-151000D02*
X-190500D01*
X-191000Y-151500D02*
Y-150500D01*
X-198500Y-151000D02*
X-197500D01*
X-198000Y-151500D02*
Y-150500D01*
X-205500Y-151000D02*
X-204500D01*
X-205000Y-151500D02*
Y-150500D01*
X-212500Y-151000D02*
X-211500D01*
X-212000Y-151500D02*
Y-150500D01*
X-230500Y-151000D02*
X-229500D01*
X-230000Y-151500D02*
Y-150500D01*
X-237500Y-151000D02*
X-236500D01*
X-237000Y-151500D02*
Y-150500D01*
X-244500Y-151000D02*
X-243500D01*
X-244000Y-151500D02*
Y-150500D01*
X-27250Y-215000D02*
X-24750D01*
X-26000Y-216250D02*
Y-213750D01*
X-193500Y9000D02*
X-192500D01*
X-193000Y8500D02*
Y9500D01*
X-235500Y57000D02*
X-234500D01*
X-235000Y56500D02*
Y57500D01*
X75750Y71000D02*
X78250D01*
X77000Y69750D02*
Y72250D01*
X75750Y19000D02*
X78250D01*
X77000Y17750D02*
Y20250D01*
X75750Y-85000D02*
X78250D01*
X77000Y-86250D02*
Y-83750D01*
X75750Y-33000D02*
X78250D01*
X77000Y-34250D02*
Y-31750D01*
X-121250Y29000D02*
X-118750D01*
X-120000Y27750D02*
Y30250D01*
X-116250Y29000D02*
X-113750D01*
X-115000Y27750D02*
Y30250D01*
X-111250Y29000D02*
X-108750D01*
X-110000Y27750D02*
Y30250D01*
X-111250Y34000D02*
X-108750D01*
X-110000Y32750D02*
Y35250D01*
X-116250Y34000D02*
X-113750D01*
X-115000Y32750D02*
Y35250D01*
X-121250Y34000D02*
X-118750D01*
X-120000Y32750D02*
Y35250D01*
X-230250Y-4500D02*
X-227750D01*
X-229000Y-5750D02*
Y-3250D01*
X-107250Y176000D02*
X-104750D01*
X-106000Y174750D02*
Y177250D01*
X-95250Y186000D02*
X-92750D01*
X-94000Y184750D02*
Y187250D01*
X-131250Y195500D02*
X-128750D01*
X-130000Y194250D02*
Y196750D01*
X-118250Y195500D02*
X-115750D01*
X-117000Y194250D02*
Y196750D01*
X-95250Y180000D02*
X-92750D01*
X-94000Y178750D02*
Y181250D01*
X-107250Y190000D02*
X-104750D01*
X-106000Y188750D02*
Y191250D01*
X-72500Y171000D02*
X-71500D01*
X-72000Y170500D02*
Y171500D01*
X-69500Y171000D02*
X-68500D01*
X-69000Y170500D02*
Y171500D01*
X-105500Y169800D02*
X-104500D01*
X-105000Y169300D02*
Y170300D01*
X-99398Y169800D02*
X-98398D01*
X-98898Y169300D02*
Y170300D01*
X-105500Y130000D02*
X-104500D01*
X-105000Y129500D02*
Y130500D01*
X-71101Y205051D02*
X-70101D01*
X-70601Y204551D02*
Y205551D01*
X-71000Y199000D02*
X-70000D01*
X-70500Y198500D02*
Y199500D01*
X-71150Y187000D02*
X-70150D01*
X-70650Y186500D02*
Y187500D01*
X-71150Y193000D02*
X-70150D01*
X-70650Y192500D02*
Y193500D01*
X-204500Y158000D02*
X-203500D01*
X-204000Y157500D02*
Y158500D01*
X-204500Y162949D02*
X-203500D01*
X-204000Y162449D02*
Y163449D01*
X-176200Y103000D02*
X-175200D01*
X-175700Y102500D02*
Y103500D01*
X-181100Y103000D02*
X-180100D01*
X-180600Y102500D02*
Y103500D01*
X-186154Y103000D02*
X-185154D01*
X-185654Y102500D02*
Y103500D01*
X-195500Y137000D02*
X-194500D01*
X-195000Y136500D02*
Y137500D01*
X-195500Y155000D02*
X-194500D01*
X-195000Y154500D02*
Y155500D01*
X-3500Y189000D02*
X-2500D01*
X-3000Y188500D02*
Y189500D01*
X-21500Y189000D02*
X-20500D01*
X-21000Y188500D02*
Y189500D01*
X-44500Y196000D02*
X-43500D01*
X-44000Y195500D02*
Y196500D01*
X-33500Y189000D02*
X-32500D01*
X-33000Y188500D02*
Y189500D01*
X-27500Y189000D02*
X-26500D01*
X-27000Y188500D02*
Y189500D01*
X-11500Y211900D02*
X-10500D01*
X-11000Y211400D02*
Y212400D01*
X-41842Y184000D02*
X-40843D01*
X-41342Y183500D02*
Y184500D01*
X67500Y-23272D02*
X68500D01*
X68000Y-23772D02*
Y-22772D01*
X-70500Y-59000D02*
X-69500D01*
X-70000Y-59500D02*
Y-58500D01*
X-65500Y8000D02*
X-64500D01*
X-65000Y7500D02*
Y8500D01*
X153752Y177000D02*
X154752D01*
X154252Y176500D02*
Y177500D01*
X131705Y123000D02*
X132705D01*
X132205Y122500D02*
Y123500D01*
X138004Y123000D02*
X139004D01*
X138504Y122500D02*
Y123500D01*
X239500Y15000D02*
X240500D01*
X240000Y14500D02*
Y15500D01*
X214500Y40500D02*
X215500D01*
X215000Y40000D02*
Y41000D01*
X214500Y-6500D02*
X215500D01*
X215000Y-7000D02*
Y-6000D01*
X190500Y25100D02*
X191500D01*
X191000Y24600D02*
Y25600D01*
X239500Y46000D02*
X240500D01*
X240000Y45500D02*
Y46500D01*
X201500Y46000D02*
X202500D01*
X202000Y45500D02*
Y46500D01*
X226799Y40500D02*
X227799D01*
X227299Y40000D02*
Y41000D01*
X239500Y-32000D02*
X240500D01*
X240000Y-32500D02*
Y-31500D01*
X239500Y-1000D02*
X240500D01*
X240000Y-1500D02*
Y-500D01*
X201500Y-1000D02*
X202500D01*
X202000Y-1500D02*
Y-500D01*
X226799Y-6500D02*
X227799D01*
X227299Y-7000D02*
Y-6000D01*
X190500Y-21900D02*
X191500D01*
X191000Y-22400D02*
Y-21400D01*
X180500Y-123000D02*
X181500D01*
X181000Y-123500D02*
Y-122500D01*
X194548Y-106832D02*
X195548D01*
X195048Y-107332D02*
Y-106332D01*
X216000Y-80000D02*
X217000D01*
X216500Y-80500D02*
Y-79500D01*
X232469Y-80000D02*
X233469D01*
X232969Y-80500D02*
Y-79500D01*
X192750Y-130000D02*
X195250D01*
X194000Y-131250D02*
Y-128750D01*
X204550Y-142000D02*
X207050D01*
X205800Y-143250D02*
Y-140750D01*
X216750Y-130000D02*
X219250D01*
X218000Y-131250D02*
Y-128750D01*
X204550Y-118000D02*
X207050D01*
X205800Y-119250D02*
Y-116750D01*
X179578Y-139667D02*
X182078D01*
X180828Y-140917D02*
Y-138417D01*
X193798Y-152000D02*
X196298D01*
X195048Y-153250D02*
Y-150750D01*
X231719Y-152000D02*
X234219D01*
X232969Y-153250D02*
Y-150750D01*
X236459Y-108000D02*
X238960D01*
X237709Y-109250D02*
Y-106750D01*
X179578Y-108000D02*
X182078D01*
X180828Y-109250D02*
Y-106750D01*
X164500Y-147000D02*
X165500D01*
X165000Y-147500D02*
Y-146500D01*
X143500Y-142000D02*
X144500D01*
X144000Y-142500D02*
Y-141500D01*
X143500Y-148100D02*
X144500D01*
X144000Y-148600D02*
Y-147600D01*
X89551Y-218000D02*
X90551D01*
X90051Y-218500D02*
Y-217500D01*
X13500Y-201000D02*
X14500D01*
X14000Y-201500D02*
Y-200500D01*
X-12500Y-215000D02*
X-11500D01*
X-12000Y-215500D02*
Y-214500D01*
X23500Y-215000D02*
X24500D01*
X24000Y-215500D02*
Y-214500D01*
X8750Y-215000D02*
X11250D01*
X10000Y-216250D02*
Y-213750D01*
X113500Y-200000D02*
X114500D01*
X114000Y-200500D02*
Y-199500D01*
X100600Y-200000D02*
X101600D01*
X101100Y-200500D02*
Y-199500D01*
X-223399Y-120900D02*
X-220899D01*
X-222149Y-122150D02*
Y-119650D01*
X-223399Y-127100D02*
X-220899D01*
X-222149Y-128350D02*
Y-125850D01*
X-164250Y-175555D02*
X-161750D01*
X-163000Y-176805D02*
Y-174305D01*
X-186250Y-182445D02*
X-183750D01*
X-185000Y-183695D02*
Y-181195D01*
X-186250Y-175555D02*
X-183750D01*
X-185000Y-176805D02*
Y-174305D01*
X-175250Y-196000D02*
X-172750D01*
X-174000Y-197250D02*
Y-194750D01*
X-183250Y-209000D02*
X-180750D01*
X-182000Y-210250D02*
Y-207750D01*
X-137679Y-205000D02*
X-135179D01*
X-136429Y-206250D02*
Y-203750D01*
X-121208Y-205000D02*
X-118708D01*
X-119958Y-206250D02*
Y-203750D01*
X-123543Y-200000D02*
X-122543D01*
X-123043Y-200500D02*
Y-199500D01*
X-217815Y19000D02*
X-216815D01*
X-217315Y18500D02*
Y19500D01*
X-245250Y5000D02*
X-242750D01*
X-244000Y3750D02*
Y6250D01*
X-245250Y28000D02*
X-242750D01*
X-244000Y26750D02*
Y29250D01*
X-225246Y-4500D02*
X-222746D01*
X-223996Y-5750D02*
Y-3250D01*
X-200500Y-1000D02*
X-199500D01*
X-200000Y-1500D02*
Y-500D01*
X-221500Y28000D02*
X-220500D01*
X-221000Y27500D02*
Y28500D01*
X-219500Y-3000D02*
X-218500D01*
X-219000Y-3500D02*
Y-2500D01*
X-219500Y3000D02*
X-218500D01*
X-219000Y2500D02*
Y3500D01*
X-247500Y77000D02*
X-246500D01*
X-247000Y76500D02*
Y77500D01*
X-213500Y55000D02*
X-212500D01*
X-213000Y54500D02*
Y55500D01*
X-183500Y49000D02*
X-182500D01*
X-183000Y48500D02*
Y49500D01*
X-195315Y51260D02*
X-194315D01*
X-194815Y50760D02*
Y51760D01*
X-229272Y-111978D02*
X-226772D01*
X-228022Y-113228D02*
Y-110728D01*
X-245697Y-93130D02*
X-244697D01*
X-245197Y-93630D02*
Y-92630D01*
X-245697Y-103327D02*
X-244697D01*
X-245197Y-103827D02*
Y-102827D01*
X-195303Y-92539D02*
X-194303D01*
X-194803Y-93039D02*
Y-92039D01*
X-195303Y-101594D02*
X-194303D01*
X-194803Y-102094D02*
Y-101094D01*
X-193500Y-124000D02*
X-192500D01*
X-193000Y-124500D02*
Y-123500D01*
X-211500Y-124000D02*
X-210500D01*
X-211000Y-124500D02*
Y-123500D01*
X-229500Y-124000D02*
X-228500D01*
X-229000Y-124500D02*
Y-123500D01*
X-247500Y-124000D02*
X-246500D01*
X-247000Y-124500D02*
Y-123500D01*
X-195500Y121000D02*
X-194500D01*
X-195000Y120500D02*
Y121500D01*
X-226500Y188949D02*
X-225500D01*
X-226000Y188449D02*
Y189449D01*
X-186500Y180000D02*
X-185500D01*
X-186000Y179500D02*
Y180500D01*
X-184250Y246756D02*
X-181750D01*
X-183000Y245506D02*
Y248006D01*
X-177250Y201276D02*
X-174750D01*
X-176000Y200026D02*
Y202526D01*
X-193250Y201276D02*
X-190750D01*
X-192000Y200026D02*
Y202526D01*
X-209250Y201276D02*
X-206750D01*
X-208000Y200026D02*
Y202526D01*
X-37000Y-74000D02*
X-36000D01*
X-36500Y-74500D02*
Y-73500D01*
X-30000Y-66500D02*
X-29000D01*
X-29500Y-67000D02*
Y-66000D01*
X-241500Y-136000D02*
X-240500D01*
X-241000Y-136500D02*
Y-135500D01*
X-234500Y-136000D02*
X-233500D01*
X-234000Y-136500D02*
Y-135500D01*
X-227500Y-136000D02*
X-226500D01*
X-227000Y-136500D02*
Y-135500D01*
X-209500Y-136000D02*
X-208500D01*
X-209000Y-136500D02*
Y-135500D01*
X-202500Y-136000D02*
X-201500D01*
X-202000Y-136500D02*
Y-135500D01*
X-195500Y-136000D02*
X-194500D01*
X-195000Y-136500D02*
Y-135500D01*
X-188500Y-136000D02*
X-187500D01*
X-188000Y-136500D02*
Y-135500D01*
X-43500Y-17000D02*
X-42500D01*
X-43000Y-17500D02*
Y-16500D01*
X-46500Y-27500D02*
X-45500D01*
X-46000Y-28000D02*
Y-27000D01*
X-40000Y5500D02*
X-39000D01*
X-39500Y5000D02*
Y6000D01*
X-30000Y5500D02*
X-29000D01*
X-29500Y5000D02*
Y6000D01*
X-229500Y188949D02*
X-228500D01*
X-229000Y188449D02*
Y189449D01*
X-212000Y183000D02*
X-211000D01*
X-211500Y182500D02*
Y183500D01*
X-172500Y188949D02*
X-171500D01*
X-172000Y188449D02*
Y189449D01*
X-175500Y188949D02*
X-174500D01*
X-175000Y188449D02*
Y189449D01*
X43000Y-91000D02*
X44000D01*
X43500Y-91500D02*
Y-90500D01*
X54500Y-85500D02*
X55500D01*
X55000Y-86000D02*
Y-85000D01*
X24000Y20000D02*
X25000D01*
X24500Y19500D02*
Y20500D01*
X86500Y-218000D02*
X87500D01*
X87000Y-218500D02*
Y-217500D01*
X36500Y-52000D02*
X37500D01*
X37000Y-52500D02*
Y-51500D01*
X-195500Y6500D02*
X-194500D01*
X-195000Y6000D02*
Y7000D01*
X-250500Y62500D02*
X-249500D01*
X-250000Y62000D02*
Y63000D01*
X36500Y-63500D02*
X37500D01*
X37000Y-64000D02*
Y-63000D01*
X47500Y-135000D02*
X48500D01*
X48000Y-135500D02*
Y-134500D01*
X-47500Y-44500D02*
X-46500D01*
X-47000Y-45000D02*
Y-44000D01*
X-204500Y169051D02*
X-203500D01*
X-204000Y168551D02*
Y169551D01*
X-44500Y2000D02*
X-43500D01*
X-44000Y1500D02*
Y2500D01*
X32000Y-21500D02*
X33000D01*
X32500Y-22000D02*
Y-21000D01*
X-1500Y-159000D02*
X-500D01*
X-1000Y-159500D02*
Y-158500D01*
X-164500Y-188000D02*
X-163500D01*
X-164000Y-188500D02*
Y-187500D01*
X-68500Y13000D02*
X-67500D01*
X-68000Y12500D02*
Y13500D01*
X-31500Y-69000D02*
X-30500D01*
X-31000Y-69500D02*
Y-68500D01*
X-34500Y-72500D02*
X-33500D01*
X-34000Y-73000D02*
Y-72000D01*
X45500Y-133000D02*
X46500D01*
X46000Y-133500D02*
Y-132500D01*
X49500Y-137000D02*
X50500D01*
X50000Y-137500D02*
Y-136500D01*
X49500Y-146500D02*
X50500D01*
X50000Y-147000D02*
Y-146000D01*
X45500Y-142500D02*
X46500D01*
X46000Y-143000D02*
Y-142000D01*
X45500Y-166500D02*
X46500D01*
X46000Y-167000D02*
Y-166000D01*
X45500Y-158500D02*
X46500D01*
X46000Y-159000D02*
Y-158000D01*
X49500Y-162500D02*
X50500D01*
X50000Y-163000D02*
Y-162000D01*
X45500Y-150500D02*
X46500D01*
X46000Y-151000D02*
Y-150000D01*
X49500Y-154500D02*
X50500D01*
X50000Y-155000D02*
Y-154000D01*
X-40917Y30000D02*
X-39917D01*
X-40417Y29500D02*
Y30500D01*
X-37076Y-54701D02*
X-36076D01*
X-36576Y-55201D02*
Y-54201D01*
X220500Y30500D02*
X221500D01*
X221000Y30000D02*
Y31000D01*
X217500Y35500D02*
X218500D01*
X218000Y35000D02*
Y36000D01*
X220500Y-16500D02*
X221500D01*
X221000Y-17000D02*
Y-16000D01*
X217500Y-11500D02*
X218500D01*
X218000Y-12000D02*
Y-11000D01*
X226799Y25500D02*
X227799D01*
X227299Y25000D02*
Y26000D01*
X226799Y-21443D02*
X227799D01*
X227299Y-21943D02*
Y-20943D01*
X210000Y-80000D02*
X211000D01*
X210500Y-80500D02*
Y-79500D01*
X204000Y-80000D02*
X205000D01*
X204500Y-80500D02*
Y-79500D01*
X198000Y-80000D02*
X199000D01*
X198500Y-80500D02*
Y-79500D01*
X150500Y-160000D02*
X151500D01*
X151000Y-160500D02*
Y-159500D01*
X150500Y-154000D02*
X151500D01*
X151000Y-154500D02*
Y-153500D01*
X218249Y-179900D02*
X219249D01*
X218749Y-180400D02*
Y-179400D01*
X185700Y-179900D02*
X186700D01*
X186200Y-180400D02*
Y-179400D01*
X179700Y-179900D02*
X180700D01*
X180200Y-180400D02*
Y-179400D01*
X-191500Y-136000D02*
X-190500D01*
X-191000Y-136500D02*
Y-135500D01*
X-198500Y-136000D02*
X-197500D01*
X-198000Y-136500D02*
Y-135500D01*
X-205500Y-136000D02*
X-204500D01*
X-205000Y-136500D02*
Y-135500D01*
X-212500Y-136000D02*
X-211500D01*
X-212000Y-136500D02*
Y-135500D01*
X-230500Y-136000D02*
X-229500D01*
X-230000Y-136500D02*
Y-135500D01*
X-237500Y-136000D02*
X-236500D01*
X-237000Y-136500D02*
Y-135500D01*
X-244500Y-136000D02*
X-243500D01*
X-244000Y-136500D02*
Y-135500D01*
X-9500Y189000D02*
X-8500D01*
X-9000Y188500D02*
Y189500D01*
X-15500Y189000D02*
X-14500D01*
X-15000Y188500D02*
Y189500D01*
X-55500Y229000D02*
X-54500D01*
X-55000Y228500D02*
Y229500D01*
X-131000Y-154000D02*
X-130000D01*
X-130500Y-154500D02*
Y-153500D01*
X-113000Y-154000D02*
X-112000D01*
X-112500Y-154500D02*
Y-153500D01*
X-80236Y-184000D02*
X-79236D01*
X-79736Y-184500D02*
Y-183500D01*
X-40500Y-58000D02*
X-39500D01*
X-40000Y-58500D02*
Y-57500D01*
X-27500Y-65000D02*
X-26500D01*
X-27000Y-65500D02*
Y-64500D01*
X-65500Y-73386D02*
X-64500D01*
X-65000Y-73886D02*
Y-72886D01*
X49500Y16000D02*
X50500D01*
X50000Y15500D02*
Y16500D01*
X-19500Y-75124D02*
X-18500D01*
X-19000Y-75624D02*
Y-74624D01*
X-4500Y-38000D02*
X-3500D01*
X-4000Y-38500D02*
Y-37500D01*
X-4500Y-32000D02*
X-3500D01*
X-4000Y-32500D02*
Y-31500D01*
X1500Y-159000D02*
X2500D01*
X2000Y-159500D02*
Y-158500D01*
X76474Y-218000D02*
X78974D01*
X77724Y-219250D02*
Y-216750D01*
X3618Y-192283D02*
X4618D01*
X4118Y-192783D02*
Y-191783D01*
X-26587Y-189000D02*
X-25587D01*
X-26087Y-189500D02*
Y-188500D01*
X23587Y-197000D02*
X24587D01*
X24087Y-197500D02*
Y-196500D01*
X23587Y-189067D02*
X24587D01*
X24087Y-189567D02*
Y-188567D01*
X-43764Y-61250D02*
X-42764D01*
X-43264Y-61750D02*
Y-60750D01*
X-59500Y500D02*
X-58500D01*
X-59000Y0D02*
Y1000D01*
X-68500Y500D02*
X-67500D01*
X-68000Y0D02*
Y1000D01*
X-33500Y-80182D02*
X-32500D01*
X-33000Y-80682D02*
Y-79682D01*
X38000Y-10394D02*
X39000D01*
X38500Y-10894D02*
Y-9894D01*
X139500Y113000D02*
X140500D01*
X140000Y112500D02*
Y113500D01*
X139500Y117000D02*
X140500D01*
X140000Y116500D02*
Y117500D01*
X123500Y113000D02*
X124500D01*
X124000Y112500D02*
Y113500D01*
X123500Y117000D02*
X124500D01*
X124000Y116500D02*
Y117500D01*
X157500Y117000D02*
X158500D01*
X158000Y116500D02*
Y117500D01*
X157500Y113000D02*
X158500D01*
X158000Y112500D02*
Y113500D01*
X165500Y117000D02*
X166500D01*
X166000Y116500D02*
Y117500D01*
X165500Y113000D02*
X166500D01*
X166000Y112500D02*
Y113500D01*
X214500Y117000D02*
X215500D01*
X215000Y116500D02*
Y117500D01*
X214500Y113000D02*
X215500D01*
X215000Y112500D02*
Y113500D01*
X167500Y187000D02*
X168500D01*
X168000Y186500D02*
Y187500D01*
X167500Y183000D02*
X168500D01*
X168000Y182500D02*
Y183500D01*
X148500Y183000D02*
X149500D01*
X149000Y182500D02*
Y183500D01*
X148500Y187000D02*
X149500D01*
X149000Y186500D02*
Y187500D01*
X1500Y20000D02*
X2500D01*
X2000Y19500D02*
Y20500D01*
X-1000Y24000D02*
X0D01*
X-500Y23500D02*
Y24500D01*
X-3500Y28000D02*
X-2500D01*
X-3000Y27500D02*
Y28500D01*
X93500Y111000D02*
X94500D01*
X94000Y110500D02*
Y111500D01*
X-69500Y-31732D02*
X-68500D01*
X-69000Y-32232D02*
Y-31232D01*
X-65500Y-31732D02*
X-64500D01*
X-65000Y-32232D02*
Y-31232D01*
X56500Y-4488D02*
X57500D01*
X57000Y-4988D02*
Y-3988D01*
X-44250Y102000D02*
X-41750D01*
X-43000Y100750D02*
Y103250D01*
X-83250Y89000D02*
X-80750D01*
X-82000Y87750D02*
Y90250D01*
X-83250Y68000D02*
X-80750D01*
X-82000Y66750D02*
Y69250D01*
X-44250Y82000D02*
X-41750D01*
X-43000Y80750D02*
Y83250D01*
X-83250Y103000D02*
X-80750D01*
X-82000Y101750D02*
Y104250D01*
X-83250Y53000D02*
X-80750D01*
X-82000Y51750D02*
Y54250D01*
X-50250Y82000D02*
X-47750D01*
X-49000Y80750D02*
Y83250D01*
X-83250Y38000D02*
X-80750D01*
X-82000Y36750D02*
Y39250D01*
X-50250Y102000D02*
X-47750D01*
X-49000Y100750D02*
Y103250D01*
X-21400Y81500D02*
X-20400D01*
X-20900Y81000D02*
Y82000D01*
X-57228Y81500D02*
X-56228D01*
X-56728Y81000D02*
Y82000D01*
X-16500Y107000D02*
X-15500D01*
X-16000Y106500D02*
Y107500D01*
X56500Y3386D02*
X57500D01*
X57000Y2886D02*
Y3886D01*
X-40917Y26000D02*
X-39917D01*
X-40417Y25500D02*
Y26500D01*
X-11390Y26000D02*
X-10390D01*
X-10890Y25500D02*
Y26500D01*
X-69500Y-73386D02*
X-68500D01*
X-69000Y-73886D02*
Y-72886D01*
X-65500Y-24299D02*
X-64500D01*
X-65000Y-24799D02*
Y-23799D01*
X-69500Y-24299D02*
X-68500D01*
X-69000Y-24799D02*
Y-23799D01*
X-69500Y8000D02*
X-68500D01*
X-69000Y7500D02*
Y8500D01*
X33886Y-100000D02*
X34886D01*
X34386Y-100500D02*
Y-99500D01*
X33886Y-96000D02*
X34886D01*
X34386Y-96500D02*
Y-95500D01*
X295Y-96000D02*
X1295D01*
X795Y-96500D02*
Y-95500D01*
X295Y-100000D02*
X1295D01*
X795Y-100500D02*
Y-99500D01*
X-11264Y-96000D02*
X-10264D01*
X-10764Y-96500D02*
Y-95500D01*
X-11264Y-100000D02*
X-10264D01*
X-10764Y-100500D02*
Y-99500D01*
X-44980Y-100000D02*
X-43980D01*
X-44480Y-100500D02*
Y-99500D01*
X-44980Y-96000D02*
X-43980D01*
X-44480Y-96500D02*
Y-95500D01*
X-11390Y30000D02*
X-10390D01*
X-10890Y29500D02*
Y30500D01*
X8295Y30000D02*
X9295D01*
X8795Y29500D02*
Y30500D01*
X8295Y26000D02*
X9295D01*
X8795Y25500D02*
Y26500D01*
X33600Y26000D02*
X34600D01*
X34100Y25500D02*
Y26500D01*
X33600Y30000D02*
X34600D01*
X34100Y29500D02*
Y30500D01*
X60500Y-4488D02*
X61500D01*
X61000Y-4988D02*
Y-3988D01*
X60500Y3386D02*
X61500D01*
X61000Y2886D02*
Y3886D01*
X56500Y-39953D02*
X57500D01*
X57000Y-40453D02*
Y-39453D01*
X60500Y-39953D02*
X61500D01*
X61000Y-40453D02*
Y-39453D01*
X56500Y-44827D02*
X57500D01*
X57000Y-45327D02*
Y-44327D01*
X60500Y-44827D02*
X61500D01*
X61000Y-45327D02*
Y-44327D01*
X60500Y-73417D02*
X61500D01*
X61000Y-73917D02*
Y-72917D01*
X56500Y-73417D02*
X57500D01*
X57000Y-73917D02*
Y-72917D01*
X54500Y107000D02*
X55500D01*
X55000Y106500D02*
Y107500D01*
X49600Y81500D02*
X50600D01*
X50100Y81000D02*
Y82000D01*
X13772Y81500D02*
X14772D01*
X14272Y81000D02*
Y82000D01*
X-12250Y53000D02*
X-9750D01*
X-11000Y51750D02*
Y54250D01*
X-12250Y68000D02*
X-9750D01*
X-11000Y66750D02*
Y69250D01*
X-12250Y38000D02*
X-9750D01*
X-11000Y36750D02*
Y39250D01*
X26750Y102000D02*
X29250D01*
X28000Y100750D02*
Y103250D01*
X20750Y102000D02*
X23250D01*
X22000Y100750D02*
Y103250D01*
X26750Y82000D02*
X29250D01*
X28000Y80750D02*
Y83250D01*
X-12250Y89000D02*
X-9750D01*
X-11000Y87750D02*
Y90250D01*
X20750Y82000D02*
X23250D01*
X22000Y80750D02*
Y83250D01*
X-12250Y103000D02*
X-9750D01*
X-11000Y101750D02*
Y104250D01*
X-92522Y53000D02*
X-90022D01*
X-91272Y51750D02*
Y54250D01*
X-98250Y80900D02*
X-95750D01*
X-97000Y79650D02*
Y82150D01*
X-105526Y88100D02*
X-103026D01*
X-104276Y86850D02*
Y89350D01*
X-98250Y87100D02*
X-95750D01*
X-97000Y85850D02*
Y88350D01*
X-105526Y42260D02*
X-103026D01*
X-104276Y41010D02*
Y43510D01*
X-51250Y164000D02*
X-48750D01*
X-50000Y162750D02*
Y165250D01*
X-51250Y158000D02*
X-48750D01*
X-50000Y156750D02*
Y159250D01*
X-51250Y152000D02*
X-48750D01*
X-50000Y150750D02*
Y153250D01*
X-45250Y164000D02*
X-42750D01*
X-44000Y162750D02*
Y165250D01*
X-45250Y158000D02*
X-42750D01*
X-44000Y156750D02*
Y159250D01*
X-45250Y152000D02*
X-42750D01*
X-44000Y150750D02*
Y153250D01*
X-45250Y146000D02*
X-42750D01*
X-44000Y144750D02*
Y147250D01*
X-51250Y146000D02*
X-48750D01*
X-50000Y144750D02*
Y147250D01*
X-51250Y140000D02*
X-48750D01*
X-50000Y138750D02*
Y141250D01*
X-45250Y140000D02*
X-42750D01*
X-44000Y138750D02*
Y141250D01*
X-83500Y-13000D02*
X-82500D01*
X-83000Y-13500D02*
Y-12500D01*
X-83500Y-61000D02*
X-82500D01*
X-83000Y-61500D02*
Y-60500D01*
X-88750Y20000D02*
X-86250D01*
X-87500Y18750D02*
Y21250D01*
X-118250Y-7000D02*
X-115750D01*
X-117000Y-8250D02*
Y-5750D01*
X-124250Y-7000D02*
X-121750D01*
X-123000Y-8250D02*
Y-5750D01*
X74750Y105000D02*
X77250D01*
X76000Y103750D02*
Y106250D01*
X79750Y105000D02*
X82250D01*
X81000Y103750D02*
Y106250D01*
X74750Y53000D02*
X77250D01*
X76000Y51750D02*
Y54250D01*
X79750Y53000D02*
X82250D01*
X81000Y51750D02*
Y54250D01*
X93500Y59000D02*
X94500D01*
X94000Y58500D02*
Y59500D01*
X74750Y1000D02*
X77250D01*
X76000Y-250D02*
Y2250D01*
X79750Y1000D02*
X82250D01*
X81000Y-250D02*
Y2250D01*
X93500Y7000D02*
X94500D01*
X94000Y6500D02*
Y7500D01*
X93500Y-45000D02*
X94500D01*
X94000Y-45500D02*
Y-44500D01*
X-79250Y-37000D02*
X-76750D01*
X-78000Y-38250D02*
Y-35750D01*
X-115250Y-37000D02*
X-112750D01*
X-114000Y-38250D02*
Y-35750D01*
X79750Y-51000D02*
X82250D01*
X81000Y-52250D02*
Y-49750D01*
X-124250Y-97000D02*
X-121750D01*
X-123000Y-98250D02*
Y-95750D01*
X-88750Y-70000D02*
X-86250D01*
X-87500Y-71250D02*
Y-68750D01*
X-93750Y-70000D02*
X-91250D01*
X-92500Y-71250D02*
Y-68750D01*
X-118250Y-97000D02*
X-115750D01*
X-117000Y-98250D02*
Y-95750D01*
X-93750Y20000D02*
X-91250D01*
X-92500Y18750D02*
Y21250D01*
X-42500Y-246500D02*
X-41500D01*
X-42000Y-247000D02*
Y-246000D01*
X44500Y-232500D02*
X45500D01*
X45000Y-233000D02*
Y-232000D01*
X-91740Y-109000D02*
X-90740D01*
X-91240Y-109500D02*
Y-108500D01*
X-81571Y-117994D02*
X-79071D01*
X-80321Y-119244D02*
Y-116744D01*
X-53740Y-109000D02*
X-52740D01*
X-53240Y-109500D02*
Y-108500D01*
X-43571Y-117994D02*
X-41071D01*
X-42321Y-119244D02*
Y-116744D01*
X-15740Y-109000D02*
X-14740D01*
X-15240Y-109500D02*
Y-108500D01*
X-5571Y-117994D02*
X-3071D01*
X-4321Y-119244D02*
Y-116744D01*
X22260Y-109000D02*
X23260D01*
X22760Y-109500D02*
Y-108500D01*
X32429Y-117994D02*
X34929D01*
X33679Y-119244D02*
Y-116744D01*
X60260Y-109000D02*
X61260D01*
X60760Y-109500D02*
Y-108500D01*
X70429Y-117994D02*
X72929D01*
X71679Y-119244D02*
Y-116744D01*
X108429Y-117994D02*
X110929D01*
X109679Y-119244D02*
Y-116744D01*
X98260Y-109000D02*
X99260D01*
X98760Y-109500D02*
Y-108500D01*
X74750Y-51000D02*
X77250D01*
X76000Y-52250D02*
Y-49750D01*
M02*
