G04*
G04 #@! TF.GenerationSoftware,Altium Limited,Altium Designer,22.9.1 (49)*
G04*
G04 Layer_Color=16711935*
%FSLAX25Y25*%
%MOIN*%
G70*
G04*
G04 #@! TF.SameCoordinates,BD774D37-2A64-432E-85FC-E47F3F74055D*
G04*
G04*
G04 #@! TF.FilePolarity,Positive*
G04*
G01*
G75*
%ADD93C,0.01000*%
D93*
X261811Y228020D02*
G03*
X230315Y259516I-31496J0D01*
G01*
X-230315D02*
G03*
X-261811Y228020I0J-31496D01*
G01*
Y-228004D02*
G03*
X-230315Y-259500I31496J0D01*
G01*
X230315D02*
G03*
X261811Y-228004I0J31496D01*
G01*
X243606Y-135441D02*
Y-101189D01*
X238882Y-135441D02*
X243606D01*
Y-101189D02*
X261811D01*
X238882Y-210500D02*
X261811D01*
X238882D02*
Y-135441D01*
X261811Y-228004D02*
Y-210500D01*
X261811Y-101189D02*
X261811Y228020D01*
X169843Y259516D02*
X230315D01*
X169843Y235016D02*
Y259516D01*
X99843Y235016D02*
X169843D01*
X99843D02*
Y259516D01*
X-99843D02*
X99843D01*
X-99843Y235016D02*
Y259516D01*
X-169843Y235016D02*
X-99843D01*
X-169843D02*
Y259516D01*
X-230315D02*
X-169843D01*
X-261811Y-228004D02*
Y228020D01*
X-230315Y-259500D02*
X-144685D01*
Y-216193D01*
X-109252D01*
Y-259500D02*
Y-216193D01*
Y-259500D02*
X109252D01*
Y-216193D01*
X144685D01*
Y-259500D02*
Y-216193D01*
Y-259500D02*
X230315D01*
M02*
