G04*
G04 #@! TF.GenerationSoftware,Altium Limited,Altium Designer,22.10.1 (41)*
G04*
G04 Layer_Physical_Order=4*
G04 Layer_Color=16711680*
%FSLAX43Y43*%
%MOMM*%
G71*
G04*
G04 #@! TF.SameCoordinates,7233D645-3E92-44BA-85C6-A03B5A4407AC*
G04*
G04*
G04 #@! TF.FilePolarity,Positive*
G04*
G01*
G75*
%ADD14C,0.200*%
%ADD74C,1.000*%
%ADD76C,0.300*%
%ADD79C,2.300*%
%ADD80C,3.316*%
%ADD81C,1.428*%
%ADD82R,1.428X1.428*%
%ADD83C,1.600*%
%ADD84R,1.600X1.600*%
%ADD85C,1.500*%
%ADD86C,2.400*%
%ADD87R,2.400X2.400*%
%ADD88C,0.700*%
D14*
X31825Y-13150D02*
Y-9110D01*
X27356Y-8190D02*
X30905D01*
X31825Y-9110D01*
X24785Y-10762D02*
X27356Y-8190D01*
X27039Y-7536D02*
X31141D01*
X32794Y-9188D01*
X33141Y-20244D02*
Y-10453D01*
X35157Y-8437D02*
X36627D01*
X33141Y-10453D02*
X35157Y-8437D01*
X27084Y-5898D02*
X35698D01*
X22222Y-10761D02*
X27084Y-5898D01*
X20239Y-10761D02*
X22222D01*
X20239Y-13585D02*
X20990D01*
X27039Y-7536D01*
X22022Y-14535D02*
X26657Y-9900D01*
X29082D02*
X29794Y-9188D01*
X26657Y-9900D02*
X29082D01*
X20239Y-14535D02*
X22022D01*
X20239Y-12600D02*
X21134D01*
X27083Y-6651D01*
X34904D01*
X32675Y-10313D02*
X34904Y-8084D01*
Y-6651D01*
X32675Y-20414D02*
Y-10313D01*
X35698Y-5898D02*
X36627Y-6827D01*
X32675Y-20414D02*
X37645Y-25383D01*
X33141Y-20244D02*
X36697Y-23800D01*
X38000D01*
X39583Y-25383D01*
X34470Y-10417D02*
X36424D01*
X41300Y-5541D01*
X36627Y-8437D02*
Y-6827D01*
X41300Y-5541D02*
Y-4600D01*
D74*
X-19711Y-20147D02*
D03*
X-17342D02*
D03*
X-17252Y-24596D02*
D03*
X12359Y-12797D02*
D03*
X4579D02*
D03*
X3082Y-14299D02*
D03*
X27444Y695D02*
D03*
X33650Y375D02*
D03*
X35425Y3000D02*
D03*
X23723Y3350D02*
D03*
X21100Y5200D02*
D03*
X-23906Y-25846D02*
D03*
X5994Y-18700D02*
D03*
X-20325Y-9875D02*
D03*
X-42092Y-23422D02*
D03*
X-43890Y-23504D02*
D03*
X-42980Y-7037D02*
D03*
X-23263Y-21331D02*
D03*
X-24932Y-18963D02*
D03*
X-18526Y-20147D02*
D03*
X-20895D02*
D03*
X-22079D02*
D03*
X-23263D02*
D03*
X-24447D02*
D03*
Y-21331D02*
D03*
X-25632D02*
D03*
Y-20147D02*
D03*
X-26816Y-21331D02*
D03*
Y-20147D02*
D03*
X-26116Y-18963D02*
D03*
X-27300D02*
D03*
X-28484D02*
D03*
X-28630Y-25658D02*
D03*
X-47992Y-24589D02*
D03*
X-36313Y-24592D02*
D03*
X-34217Y-6263D02*
D03*
X45867Y-22648D02*
D03*
X43900Y-22667D02*
D03*
X27267Y-22648D02*
D03*
X25300Y-22667D02*
D03*
X40761Y24393D02*
D03*
X45438Y29821D02*
D03*
X25138D02*
D03*
D76*
X-44091Y-19125D02*
X-43138Y-20077D01*
X-44091Y-19125D02*
Y-13892D01*
X-37749Y-7551D01*
X-30129D01*
D79*
X8151Y2286D02*
D03*
X15651D02*
D03*
X8151Y22586D02*
D03*
X15651Y19086D02*
D03*
Y26086D02*
D03*
X-5651Y26086D02*
D03*
Y19086D02*
D03*
X-13151Y22586D02*
D03*
X-5651Y2286D02*
D03*
X-13151D02*
D03*
X-28151D02*
D03*
X-20651D02*
D03*
X-28151Y22586D02*
D03*
X-20651Y19086D02*
D03*
Y26086D02*
D03*
X-35651D02*
D03*
Y19086D02*
D03*
X-43151Y22586D02*
D03*
X-35651Y2286D02*
D03*
X-43151D02*
D03*
D80*
X16925Y-30165D02*
D03*
X4885D02*
D03*
D81*
X12155Y-27455D02*
D03*
X9655D02*
D03*
Y-25455D02*
D03*
D82*
X12155D02*
D03*
D83*
X33780Y-2742D02*
D03*
X36320D02*
D03*
X38860D02*
D03*
X41400D02*
D03*
X43940D02*
D03*
X46487Y1068D02*
D03*
D84*
X46480Y-2742D02*
D03*
X43947Y1068D02*
D03*
D85*
X45413Y-14587D02*
D03*
Y-9707D02*
D03*
D86*
X46251Y-35300D02*
D03*
X41251D02*
D03*
X-20651Y-35300D02*
D03*
X26251Y-35300D02*
D03*
X31251D02*
D03*
X-30651Y-35300D02*
D03*
X-40651D02*
D03*
X5651Y35300D02*
D03*
X10651D02*
D03*
X40651Y35300D02*
D03*
X-45651D02*
D03*
X-40651D02*
D03*
X30651D02*
D03*
X20651D02*
D03*
X-30651D02*
D03*
X-25651D02*
D03*
X-10651D02*
D03*
X-15651D02*
D03*
D87*
X36251Y-35300D02*
D03*
X-25651Y-35300D02*
D03*
X21251Y-35300D02*
D03*
X-35651Y-35300D02*
D03*
X-45651D02*
D03*
X15651Y35300D02*
D03*
X45651Y35300D02*
D03*
X-35651D02*
D03*
X35651D02*
D03*
X25651D02*
D03*
X-20651D02*
D03*
X-5651D02*
D03*
D88*
X28092Y12555D02*
D03*
X46592Y12547D02*
D03*
X37378Y12563D02*
D03*
X31825Y-13150D02*
D03*
X28894Y-9188D02*
D03*
X29794D02*
D03*
X24785Y-10762D02*
D03*
X25282Y-14363D02*
D03*
X13790Y-20166D02*
D03*
X18095Y-25027D02*
D03*
X-12423Y-13576D02*
D03*
X2903Y-12197D02*
D03*
X-11614Y-16126D02*
D03*
X28804Y-4539D02*
D03*
X27213Y-4548D02*
D03*
X34904Y-6651D02*
D03*
X12956Y-18660D02*
D03*
X12056D02*
D03*
X12956Y-17727D02*
D03*
X12056D02*
D03*
Y-16793D02*
D03*
X12956D02*
D03*
X32794Y-9188D02*
D03*
X33788Y-15106D02*
D03*
X34470Y-10417D02*
D03*
X34400Y-11400D02*
D03*
X37645Y-25383D02*
D03*
X39583D02*
D03*
X21000Y-11800D02*
D03*
X39071Y-9316D02*
D03*
X36627Y-8437D02*
D03*
X20239Y-14535D02*
D03*
Y-13585D02*
D03*
Y-12600D02*
D03*
Y-10761D02*
D03*
X41300Y-4600D02*
D03*
X30794Y-9188D02*
D03*
X28582Y-14394D02*
D03*
X29900Y-2500D02*
D03*
Y-1500D02*
D03*
X30900Y-4000D02*
D03*
Y-3000D02*
D03*
Y-2000D02*
D03*
Y-1000D02*
D03*
X21976Y-1773D02*
D03*
Y-873D02*
D03*
X21043Y-1773D02*
D03*
Y-873D02*
D03*
X20110D02*
D03*
Y-1773D02*
D03*
X40801Y3600D02*
D03*
X32304Y-21248D02*
D03*
X47150Y4972D02*
D03*
X41750Y-8114D02*
D03*
X37800Y-6600D02*
D03*
X38225Y-20975D02*
D03*
X41285Y-20985D02*
D03*
X37774Y-16850D02*
D03*
X41734Y-16875D02*
D03*
X39102Y-10918D02*
D03*
X35878Y-19755D02*
D03*
Y-17055D02*
D03*
X34278Y-19755D02*
D03*
X25283Y-18434D02*
D03*
X-19500Y-13100D02*
D03*
Y-14000D02*
D03*
X-18567Y-13100D02*
D03*
Y-14000D02*
D03*
X4600Y-3100D02*
D03*
X-16600Y-3000D02*
D03*
X-6977Y-11300D02*
D03*
X-4500D02*
D03*
X-4113Y-3433D02*
D03*
X-19097Y-3449D02*
D03*
X-17633Y-14000D02*
D03*
Y-13100D02*
D03*
X-16700Y-14000D02*
D03*
Y-13100D02*
D03*
X17406Y-2300D02*
D03*
X-3900Y-2300D02*
D03*
X-18820D02*
D03*
X-33900D02*
D03*
X-42791Y-15245D02*
D03*
Y-16395D02*
D03*
Y-17545D02*
D03*
X-45500Y-17500D02*
D03*
Y-16350D02*
D03*
Y-15200D02*
D03*
X17211Y-3382D02*
D03*
X-39048Y-22502D02*
D03*
X-43138Y-20077D02*
D03*
X-36571Y-3569D02*
D03*
X-30129Y-7551D02*
D03*
X-31504Y-3113D02*
D03*
X41517Y-25383D02*
D03*
X23017Y-25433D02*
D03*
X-22603Y-29721D02*
D03*
X-16123Y-29721D02*
D03*
X-20383Y-4449D02*
D03*
X30966Y11385D02*
D03*
Y9734D02*
D03*
X35956Y5742D02*
D03*
X45170Y5734D02*
D03*
X40181Y11376D02*
D03*
Y9726D02*
D03*
X21681D02*
D03*
Y11376D02*
D03*
X-39642Y-8089D02*
D03*
X-14845Y-959D02*
D03*
X15830Y-4432D02*
D03*
X26670Y5734D02*
D03*
X-44845Y-959D02*
D03*
Y-5259D02*
D03*
X-29845Y-959D02*
D03*
X-5483Y-4449D02*
D03*
X6456Y-959D02*
D03*
M02*
