G04*
G04 #@! TF.GenerationSoftware,Altium Limited,Altium Designer,22.10.1 (41)*
G04*
G04 Layer_Color=16711935*
%FSLAX43Y43*%
%MOMM*%
G71*
G04*
G04 #@! TF.SameCoordinates,12196C2A-3433-47B0-B4A9-8DE0C645B0E6*
G04*
G04*
G04 #@! TF.FilePolarity,Negative*
G04*
G01*
G75*
%ADD62C,2.500*%
%ADD63C,3.468*%
%ADD64C,1.580*%
%ADD65R,1.580X1.580*%
%ADD66C,1.752*%
%ADD67R,1.752X1.752*%
%ADD68C,1.652*%
%ADD69C,2.552*%
%ADD70R,2.552X2.552*%
%ADD71C,0.152*%
D62*
X8151Y2286D02*
D03*
X15651D02*
D03*
X8151Y22586D02*
D03*
X15651Y19086D02*
D03*
Y26086D02*
D03*
X-5651Y26086D02*
D03*
Y19086D02*
D03*
X-13151Y22586D02*
D03*
X-5651Y2286D02*
D03*
X-13151D02*
D03*
X-28151D02*
D03*
X-20651D02*
D03*
X-28151Y22586D02*
D03*
X-20651Y19086D02*
D03*
Y26086D02*
D03*
X-35651D02*
D03*
Y19086D02*
D03*
X-43151Y22586D02*
D03*
X-35651Y2286D02*
D03*
X-43151D02*
D03*
D63*
X16925Y-30165D02*
D03*
X4885D02*
D03*
D64*
X12155Y-27455D02*
D03*
X9655D02*
D03*
Y-25455D02*
D03*
D65*
X12155D02*
D03*
D66*
X33780Y-2742D02*
D03*
X36320D02*
D03*
X38860D02*
D03*
X41400D02*
D03*
X43940D02*
D03*
X46487Y1068D02*
D03*
D67*
X46480Y-2742D02*
D03*
X43947Y1068D02*
D03*
D68*
X45413Y-14587D02*
D03*
Y-9707D02*
D03*
D69*
X46251Y-35300D02*
D03*
X41251D02*
D03*
X-20651Y-35300D02*
D03*
X26251Y-35300D02*
D03*
X31251D02*
D03*
X-30651Y-35300D02*
D03*
X-40651D02*
D03*
X5651Y35300D02*
D03*
X10651D02*
D03*
X40651Y35300D02*
D03*
X-45651D02*
D03*
X-40651D02*
D03*
X30651D02*
D03*
X20651D02*
D03*
X-30651D02*
D03*
X-25651D02*
D03*
X-10651D02*
D03*
X-15651D02*
D03*
D70*
X36251Y-35300D02*
D03*
X-25651Y-35300D02*
D03*
X21251Y-35300D02*
D03*
X-35651Y-35300D02*
D03*
X-45651D02*
D03*
X15651Y35300D02*
D03*
X45651Y35300D02*
D03*
X-35651D02*
D03*
X35651D02*
D03*
X25651D02*
D03*
X-20651D02*
D03*
X-5651D02*
D03*
D71*
X32500Y-27500D02*
D03*
X-32500D02*
D03*
X32500Y27500D02*
D03*
M02*
