G04*
G04 #@! TF.GenerationSoftware,Altium Limited,Altium Designer,22.10.1 (41)*
G04*
G04 Layer_Physical_Order=2*
G04 Layer_Color=1930808*
%FSLAX43Y43*%
%MOMM*%
G71*
G04*
G04 #@! TF.SameCoordinates,EA9DE7AC-8BC7-4C06-A1B2-E8C90DB669E4*
G04*
G04*
G04 #@! TF.FilePolarity,Positive*
G04*
G01*
G75*
%ADD74C,1.000*%
%ADD80C,3.316*%
%ADD81C,1.428*%
%ADD83C,1.600*%
%ADD86C,2.400*%
%ADD87R,2.400X2.400*%
%ADD88C,0.700*%
G36*
X47792Y39962D02*
X47974Y39886D01*
X48138Y39777D01*
X48277Y39638D01*
X48386Y39474D01*
X48462Y39292D01*
X48482Y39189D01*
X48482Y15311D01*
X48462Y15208D01*
X48386Y15026D01*
X48277Y14862D01*
X48138Y14723D01*
X47974Y14614D01*
X47792Y14538D01*
X47625Y14505D01*
X47500Y14500D01*
X47500Y14500D01*
X23724Y14500D01*
X23529Y14491D01*
X23147Y14415D01*
X22786Y14265D01*
X22462Y14048D01*
X22317Y13917D01*
X22317Y13917D01*
X22317Y13917D01*
X19112Y10712D01*
X18997Y10585D01*
X18806Y10300D01*
X18675Y9983D01*
X18608Y9647D01*
X18600Y9476D01*
X18600Y9476D01*
X18600Y9476D01*
X18600Y-5100D01*
X18600Y-5227D01*
X18503Y-5463D01*
X18323Y-5643D01*
X18087Y-5740D01*
X17960Y-5740D01*
Y-5740D01*
X17960D01*
Y-5740D01*
X-14240Y-5740D01*
X-14319Y-5744D01*
X-14475Y-5775D01*
X-14621Y-5835D01*
X-14753Y-5924D01*
X-14865Y-6036D01*
X-14954Y-6168D01*
X-15014Y-6314D01*
X-15037Y-6427D01*
X-15045Y-6470D01*
X-15049Y-6549D01*
X-15049Y-6549D01*
X-15049Y-6549D01*
X-15049Y-21449D01*
X-15049Y-21523D01*
X-15078Y-21668D01*
X-15134Y-21805D01*
X-15217Y-21928D01*
X-15321Y-22032D01*
X-15444Y-22115D01*
X-15581Y-22171D01*
X-15677Y-22190D01*
X-15800Y-22200D01*
X-15800Y-22200D01*
X-32400Y-22200D01*
X-32470Y-22203D01*
X-32608Y-22231D01*
X-32738Y-22285D01*
X-32856Y-22363D01*
X-32955Y-22462D01*
X-33033Y-22580D01*
X-33087Y-22710D01*
X-33104Y-22797D01*
X-33115Y-22848D01*
X-33118Y-22918D01*
X-33118Y-22918D01*
X-33118Y-22918D01*
Y-24803D01*
X-33146Y-24808D01*
X-33559Y-24942D01*
X-33947Y-25139D01*
X-34298Y-25395D01*
X-34605Y-25702D01*
X-34861Y-26053D01*
X-35058Y-26441D01*
X-35192Y-26854D01*
X-35260Y-27283D01*
Y-27717D01*
X-35192Y-28146D01*
X-35058Y-28559D01*
X-34861Y-28947D01*
X-34605Y-29298D01*
X-34298Y-29605D01*
X-33947Y-29861D01*
X-33559Y-30058D01*
X-33146Y-30192D01*
X-32717Y-30260D01*
X-32283D01*
X-31854Y-30192D01*
X-31441Y-30058D01*
X-31053Y-29861D01*
X-30702Y-29605D01*
X-30395Y-29298D01*
X-30139Y-28947D01*
X-29942Y-28559D01*
X-29808Y-28146D01*
X-29740Y-27717D01*
Y-27283D01*
X-29808Y-26854D01*
X-29942Y-26441D01*
X-30139Y-26053D01*
X-30395Y-25702D01*
X-30702Y-25395D01*
X-31053Y-25139D01*
X-31441Y-24942D01*
X-31854Y-24808D01*
X-32283Y-24740D01*
X-32500D01*
Y-23500D01*
X-32500Y-23431D01*
X-32473Y-23296D01*
X-32420Y-23168D01*
X-32344Y-23054D01*
X-32246Y-22956D01*
X-32132Y-22880D01*
X-32004Y-22827D01*
X-31869Y-22800D01*
X-31800Y-22800D01*
X-31800Y-22800D01*
X-15200D01*
X-15126Y-22796D01*
X-14982Y-22768D01*
X-14846Y-22711D01*
X-14724Y-22630D01*
X-14620Y-22526D01*
X-14538Y-22403D01*
X-14482Y-22267D01*
X-14453Y-22123D01*
X-14449Y-22049D01*
X-14449Y-22049D01*
Y-7148D01*
Y-7071D01*
X-14419Y-6920D01*
X-14360Y-6777D01*
X-14274Y-6649D01*
X-14165Y-6540D01*
X-14037Y-6454D01*
X-13895Y-6395D01*
X-13743Y-6365D01*
X-13666Y-6365D01*
X-13666Y-6365D01*
X18524Y-6363D01*
X18590Y-6360D01*
X18720Y-6334D01*
X18842Y-6283D01*
X18953Y-6209D01*
X19046Y-6116D01*
X19120Y-6005D01*
X19171Y-5883D01*
X19197Y-5753D01*
X19200Y-5686D01*
X19200Y-5686D01*
Y9559D01*
Y9664D01*
X19241Y9869D01*
X19321Y10063D01*
X19438Y10238D01*
X19512Y10312D01*
X22517Y13317D01*
X22656Y13456D01*
X22982Y13674D01*
X23344Y13824D01*
X23728Y13900D01*
X23924Y13900D01*
X23924Y13900D01*
X47500Y13900D01*
X47599Y13900D01*
X47792Y13862D01*
X47974Y13786D01*
X48137Y13677D01*
X48277Y13538D01*
X48386Y13374D01*
X48461Y13192D01*
X48482Y13087D01*
X48482Y-39167D01*
X48457Y-39296D01*
X48382Y-39477D01*
X48273Y-39640D01*
X48134Y-39778D01*
X47971Y-39887D01*
X47790Y-39962D01*
X47689Y-39982D01*
X3379Y-39982D01*
X3258Y-39958D01*
X3059Y-39876D01*
X2880Y-39756D01*
X2728Y-39604D01*
X2608Y-39425D01*
X2526Y-39226D01*
X2484Y-39015D01*
X2484Y-38907D01*
Y-31237D01*
X-13905D01*
Y-38905D01*
Y-39013D01*
X-13948Y-39225D01*
X-14030Y-39424D01*
X-14150Y-39603D01*
X-14302Y-39756D01*
X-14482Y-39875D01*
X-14681Y-39958D01*
X-14802Y-39982D01*
X-47599Y-39982D01*
X-47721Y-39958D01*
X-47921Y-39875D01*
X-48101Y-39754D01*
X-48254Y-39601D01*
X-48375Y-39421D01*
X-48458Y-39221D01*
X-48482Y-39098D01*
X-48482Y15299D01*
X-48457Y15424D01*
X-48374Y15626D01*
X-48252Y15808D01*
X-48097Y15962D01*
X-47916Y16084D01*
X-47714Y16168D01*
X-47499Y16210D01*
X-47390Y16210D01*
X-47390Y16210D01*
X15459D01*
X15684Y16221D01*
X16126Y16309D01*
X16542Y16481D01*
X16916Y16732D01*
X17083Y16883D01*
X18025Y17825D01*
X18155Y17968D01*
X18368Y18288D01*
X18516Y18643D01*
X18591Y19020D01*
X18600Y19212D01*
X18600Y19213D01*
X18600Y38970D01*
X18600Y39072D01*
X18640Y39271D01*
X18717Y39458D01*
X18830Y39627D01*
X18973Y39770D01*
X19142Y39883D01*
X19329Y39960D01*
X19438Y39982D01*
X47689Y39982D01*
X47792Y39962D01*
D02*
G37*
%LPC*%
G36*
X41051Y36750D02*
Y35700D01*
X42101D01*
X42093Y35738D01*
X41980Y36011D01*
X41816Y36256D01*
X41607Y36465D01*
X41361Y36629D01*
X41088Y36742D01*
X41051Y36750D01*
D02*
G37*
G36*
X40251D02*
X40213Y36742D01*
X39940Y36629D01*
X39695Y36465D01*
X39486Y36256D01*
X39321Y36011D01*
X39208Y35738D01*
X39201Y35700D01*
X40251D01*
Y36750D01*
D02*
G37*
G36*
X31051D02*
Y35700D01*
X32101D01*
X32093Y35738D01*
X31980Y36011D01*
X31816Y36256D01*
X31607Y36465D01*
X31362Y36629D01*
X31089Y36742D01*
X31051Y36750D01*
D02*
G37*
G36*
X30251D02*
X30214Y36742D01*
X29941Y36629D01*
X29695Y36465D01*
X29486Y36256D01*
X29322Y36011D01*
X29209Y35738D01*
X29201Y35700D01*
X30251D01*
Y36750D01*
D02*
G37*
G36*
X21051D02*
Y35700D01*
X22101D01*
X22093Y35738D01*
X21980Y36011D01*
X21816Y36256D01*
X21607Y36465D01*
X21361Y36629D01*
X21088Y36742D01*
X21051Y36750D01*
D02*
G37*
G36*
X20251D02*
X20213Y36742D01*
X19940Y36629D01*
X19695Y36465D01*
X19486Y36256D01*
X19322Y36011D01*
X19208Y35738D01*
X19201Y35700D01*
X20251D01*
Y36750D01*
D02*
G37*
G36*
X46978Y36627D02*
X44324D01*
Y33973D01*
X46978D01*
Y36627D01*
D02*
G37*
G36*
X36978D02*
X34324D01*
Y33973D01*
X36978D01*
Y36627D01*
D02*
G37*
G36*
X26978D02*
X24324D01*
Y33973D01*
X26978D01*
Y36627D01*
D02*
G37*
G36*
X42101Y34900D02*
X41051D01*
Y33850D01*
X41088Y33858D01*
X41361Y33971D01*
X41607Y34135D01*
X41816Y34344D01*
X41980Y34590D01*
X42093Y34863D01*
X42101Y34900D01*
D02*
G37*
G36*
X40251D02*
X39201D01*
X39208Y34863D01*
X39321Y34590D01*
X39486Y34344D01*
X39695Y34135D01*
X39940Y33971D01*
X40213Y33858D01*
X40251Y33850D01*
Y34900D01*
D02*
G37*
G36*
X32101D02*
X31051D01*
Y33850D01*
X31089Y33858D01*
X31362Y33971D01*
X31607Y34135D01*
X31816Y34344D01*
X31980Y34590D01*
X32093Y34863D01*
X32101Y34900D01*
D02*
G37*
G36*
X30251D02*
X29201D01*
X29209Y34863D01*
X29322Y34590D01*
X29486Y34344D01*
X29695Y34135D01*
X29941Y33971D01*
X30214Y33858D01*
X30251Y33850D01*
Y34900D01*
D02*
G37*
G36*
X22101D02*
X21051D01*
Y33850D01*
X21088Y33858D01*
X21361Y33971D01*
X21607Y34135D01*
X21816Y34344D01*
X21980Y34590D01*
X22093Y34863D01*
X22101Y34900D01*
D02*
G37*
G36*
X20251D02*
X19201D01*
X19208Y34863D01*
X19322Y34590D01*
X19486Y34344D01*
X19695Y34135D01*
X19940Y33971D01*
X20213Y33858D01*
X20251Y33850D01*
Y34900D01*
D02*
G37*
G36*
X45563Y30448D02*
X45313D01*
X45083Y30352D01*
X44907Y30176D01*
X44811Y29946D01*
Y29696D01*
X44907Y29466D01*
X45083Y29289D01*
X45313Y29194D01*
X45563D01*
X45793Y29289D01*
X45970Y29466D01*
X46065Y29696D01*
Y29946D01*
X45970Y30176D01*
X45793Y30352D01*
X45563Y30448D01*
D02*
G37*
G36*
X25263D02*
X25013D01*
X24783Y30352D01*
X24607Y30176D01*
X24511Y29946D01*
Y29696D01*
X24607Y29466D01*
X24783Y29289D01*
X25013Y29194D01*
X25263D01*
X25493Y29289D01*
X25670Y29466D01*
X25765Y29696D01*
Y29946D01*
X25670Y30176D01*
X25493Y30352D01*
X25263Y30448D01*
D02*
G37*
G36*
X32717Y30260D02*
X32283D01*
X31854Y30192D01*
X31441Y30058D01*
X31053Y29861D01*
X30702Y29605D01*
X30395Y29298D01*
X30139Y28947D01*
X29942Y28559D01*
X29808Y28146D01*
X29740Y27717D01*
Y27283D01*
X29808Y26854D01*
X29942Y26441D01*
X30139Y26053D01*
X30395Y25702D01*
X30702Y25395D01*
X31053Y25139D01*
X31441Y24942D01*
X31854Y24808D01*
X32283Y24740D01*
X32717D01*
X33146Y24808D01*
X33559Y24942D01*
X33947Y25139D01*
X34298Y25395D01*
X34605Y25702D01*
X34861Y26053D01*
X35058Y26441D01*
X35192Y26854D01*
X35260Y27283D01*
Y27717D01*
X35192Y28146D01*
X35058Y28559D01*
X34861Y28947D01*
X34605Y29298D01*
X34298Y29605D01*
X33947Y29861D01*
X33559Y30058D01*
X33146Y30192D01*
X32717Y30260D01*
D02*
G37*
G36*
X40885Y25020D02*
X40636D01*
X40405Y24924D01*
X40229Y24748D01*
X40134Y24517D01*
Y24268D01*
X40229Y24038D01*
X40405Y23861D01*
X40636Y23766D01*
X40885D01*
X41116Y23861D01*
X41292Y24038D01*
X41388Y24268D01*
Y24517D01*
X41292Y24748D01*
X41116Y24924D01*
X40885Y25020D01*
D02*
G37*
G36*
X37473Y13032D02*
X37283D01*
X37108Y12959D01*
X36973Y12825D01*
X36901Y12650D01*
Y12460D01*
X36973Y12285D01*
X37108Y12151D01*
X37283Y12078D01*
X37473D01*
X37648Y12151D01*
X37782Y12285D01*
X37855Y12460D01*
Y12650D01*
X37782Y12825D01*
X37648Y12959D01*
X37473Y13032D01*
D02*
G37*
G36*
X46687Y13024D02*
X46497D01*
X46322Y12951D01*
X46188Y12817D01*
X46115Y12642D01*
Y12452D01*
X46188Y12277D01*
X46322Y12142D01*
X46497Y12070D01*
X46687D01*
X46862Y12142D01*
X46996Y12277D01*
X47069Y12452D01*
Y12642D01*
X46996Y12817D01*
X46862Y12951D01*
X46687Y13024D01*
D02*
G37*
G36*
X28187D02*
X27997D01*
X27822Y12951D01*
X27688Y12817D01*
X27615Y12642D01*
Y12452D01*
X27688Y12277D01*
X27822Y12142D01*
X27997Y12070D01*
X28187D01*
X28362Y12142D01*
X28496Y12277D01*
X28569Y12452D01*
Y12642D01*
X28496Y12817D01*
X28362Y12951D01*
X28187Y13024D01*
D02*
G37*
G36*
X47244Y5449D02*
X47055D01*
X46879Y5376D01*
X46745Y5242D01*
X46673Y5067D01*
Y4877D01*
X46745Y4702D01*
X46879Y4568D01*
X47055Y4495D01*
X47244D01*
X47420Y4568D01*
X47554Y4702D01*
X47627Y4877D01*
Y5067D01*
X47554Y5242D01*
X47420Y5376D01*
X47244Y5449D01*
D02*
G37*
G36*
X46887Y2100D02*
Y1468D01*
X47518D01*
X47512Y1493D01*
X47367Y1743D01*
X47162Y1948D01*
X46911Y2093D01*
X46887Y2100D01*
D02*
G37*
G36*
X46087Y2100D02*
X46062Y2093D01*
X45811Y1948D01*
X45607Y1743D01*
X45462Y1493D01*
X45455Y1468D01*
X46087D01*
Y2100D01*
D02*
G37*
G36*
X15819Y3563D02*
X15482D01*
X15158Y3476D01*
X14866Y3307D01*
X14629Y3070D01*
X14461Y2778D01*
X14374Y2454D01*
Y2117D01*
X14461Y1793D01*
X14629Y1501D01*
X14866Y1264D01*
X15158Y1096D01*
X15482Y1009D01*
X15819D01*
X16143Y1096D01*
X16435Y1264D01*
X16672Y1501D01*
X16841Y1793D01*
X16928Y2117D01*
Y2454D01*
X16841Y2778D01*
X16672Y3070D01*
X16435Y3307D01*
X16143Y3476D01*
X15819Y3563D01*
D02*
G37*
G36*
X8319D02*
X7982D01*
X7658Y3476D01*
X7366Y3307D01*
X7129Y3070D01*
X6961Y2778D01*
X6874Y2454D01*
Y2117D01*
X6961Y1793D01*
X7129Y1501D01*
X7366Y1264D01*
X7658Y1096D01*
X7982Y1009D01*
X8319D01*
X8643Y1096D01*
X8935Y1264D01*
X9172Y1501D01*
X9341Y1793D01*
X9428Y2117D01*
Y2454D01*
X9341Y2778D01*
X9172Y3070D01*
X8935Y3307D01*
X8643Y3476D01*
X8319Y3563D01*
D02*
G37*
G36*
X-5483Y3563D02*
X-5819D01*
X-6144Y3476D01*
X-6435Y3307D01*
X-6673Y3070D01*
X-6841Y2778D01*
X-6928Y2454D01*
Y2117D01*
X-6841Y1793D01*
X-6673Y1501D01*
X-6435Y1264D01*
X-6144Y1096D01*
X-5819Y1009D01*
X-5483D01*
X-5158Y1096D01*
X-4867Y1264D01*
X-4629Y1501D01*
X-4461Y1793D01*
X-4374Y2117D01*
Y2454D01*
X-4461Y2778D01*
X-4629Y3070D01*
X-4867Y3307D01*
X-5158Y3476D01*
X-5483Y3563D01*
D02*
G37*
G36*
X-12983D02*
X-13319D01*
X-13644Y3476D01*
X-13935Y3307D01*
X-14173Y3070D01*
X-14341Y2778D01*
X-14428Y2454D01*
Y2117D01*
X-14341Y1793D01*
X-14173Y1501D01*
X-13935Y1264D01*
X-13644Y1096D01*
X-13319Y1009D01*
X-12983D01*
X-12658Y1096D01*
X-12367Y1264D01*
X-12129Y1501D01*
X-11961Y1793D01*
X-11874Y2117D01*
Y2454D01*
X-11961Y2778D01*
X-12129Y3070D01*
X-12367Y3307D01*
X-12658Y3476D01*
X-12983Y3563D01*
D02*
G37*
G36*
X-20483D02*
X-20819D01*
X-21144Y3476D01*
X-21435Y3307D01*
X-21673Y3070D01*
X-21841Y2778D01*
X-21928Y2454D01*
Y2117D01*
X-21841Y1793D01*
X-21673Y1501D01*
X-21435Y1264D01*
X-21144Y1096D01*
X-20819Y1009D01*
X-20483D01*
X-20158Y1096D01*
X-19867Y1264D01*
X-19629Y1501D01*
X-19461Y1793D01*
X-19374Y2117D01*
Y2454D01*
X-19461Y2778D01*
X-19629Y3070D01*
X-19867Y3307D01*
X-20158Y3476D01*
X-20483Y3563D01*
D02*
G37*
G36*
X-27983D02*
X-28319D01*
X-28644Y3476D01*
X-28935Y3307D01*
X-29173Y3070D01*
X-29341Y2778D01*
X-29428Y2454D01*
Y2117D01*
X-29341Y1793D01*
X-29173Y1501D01*
X-28935Y1264D01*
X-28644Y1096D01*
X-28319Y1009D01*
X-27983D01*
X-27658Y1096D01*
X-27367Y1264D01*
X-27129Y1501D01*
X-26961Y1793D01*
X-26874Y2117D01*
Y2454D01*
X-26961Y2778D01*
X-27129Y3070D01*
X-27367Y3307D01*
X-27658Y3476D01*
X-27983Y3563D01*
D02*
G37*
G36*
X-35483D02*
X-35819D01*
X-36144Y3476D01*
X-36435Y3307D01*
X-36673Y3070D01*
X-36841Y2778D01*
X-36928Y2454D01*
Y2117D01*
X-36841Y1793D01*
X-36673Y1501D01*
X-36435Y1264D01*
X-36144Y1096D01*
X-35819Y1009D01*
X-35483D01*
X-35158Y1096D01*
X-34867Y1264D01*
X-34629Y1501D01*
X-34461Y1793D01*
X-34374Y2117D01*
Y2454D01*
X-34461Y2778D01*
X-34629Y3070D01*
X-34867Y3307D01*
X-35158Y3476D01*
X-35483Y3563D01*
D02*
G37*
G36*
X-42983D02*
X-43319D01*
X-43644Y3476D01*
X-43935Y3307D01*
X-44173Y3070D01*
X-44341Y2778D01*
X-44428Y2454D01*
Y2117D01*
X-44341Y1793D01*
X-44173Y1501D01*
X-43935Y1264D01*
X-43644Y1096D01*
X-43319Y1009D01*
X-42983D01*
X-42658Y1096D01*
X-42367Y1264D01*
X-42129Y1501D01*
X-41961Y1793D01*
X-41874Y2117D01*
Y2454D01*
X-41961Y2778D01*
X-42129Y3070D01*
X-42367Y3307D01*
X-42658Y3476D01*
X-42983Y3563D01*
D02*
G37*
G36*
X44874Y1995D02*
X43020D01*
Y141D01*
X44874D01*
Y1995D01*
D02*
G37*
G36*
X47518Y668D02*
X46887D01*
Y36D01*
X46911Y43D01*
X47162Y188D01*
X47367Y393D01*
X47512Y643D01*
X47518Y668D01*
D02*
G37*
G36*
X46087D02*
X45455D01*
X45462Y643D01*
X45607Y393D01*
X45811Y188D01*
X46062Y43D01*
X46087Y36D01*
Y668D01*
D02*
G37*
G36*
X22071Y-396D02*
X21882D01*
X21706Y-468D01*
X21581Y-593D01*
X21510Y-598D01*
X21438Y-593D01*
X21313Y-468D01*
X21138Y-396D01*
X20948D01*
X20773Y-468D01*
X20648Y-593D01*
X20576Y-598D01*
X20505Y-593D01*
X20380Y-468D01*
X20205Y-396D01*
X20015D01*
X19840Y-468D01*
X19705Y-602D01*
X19633Y-778D01*
Y-967D01*
X19705Y-1143D01*
X19807Y-1244D01*
X19827Y-1323D01*
X19807Y-1401D01*
X19705Y-1502D01*
X19633Y-1678D01*
Y-1867D01*
X19705Y-2043D01*
X19840Y-2177D01*
X20015Y-2250D01*
X20205D01*
X20380Y-2177D01*
X20505Y-2052D01*
X20576Y-2047D01*
X20648Y-2052D01*
X20773Y-2177D01*
X20948Y-2250D01*
X21138D01*
X21313Y-2177D01*
X21438Y-2052D01*
X21510Y-2047D01*
X21581Y-2052D01*
X21706Y-2177D01*
X21882Y-2250D01*
X22071D01*
X22247Y-2177D01*
X22381Y-2043D01*
X22453Y-1867D01*
Y-1678D01*
X22381Y-1502D01*
X22279Y-1401D01*
X22259Y-1323D01*
X22279Y-1244D01*
X22381Y-1143D01*
X22453Y-967D01*
Y-778D01*
X22381Y-602D01*
X22247Y-468D01*
X22071Y-396D01*
D02*
G37*
G36*
X41800Y-1710D02*
Y-2342D01*
X42432D01*
X42425Y-2317D01*
X42280Y-2067D01*
X42075Y-1862D01*
X41824Y-1717D01*
X41800Y-1710D01*
D02*
G37*
G36*
X41000D02*
X40975Y-1717D01*
X40724Y-1862D01*
X40520Y-2067D01*
X40375Y-2317D01*
X40368Y-2342D01*
X41000D01*
Y-1710D01*
D02*
G37*
G36*
X17501Y-1823D02*
X17311D01*
X17136Y-1896D01*
X17002Y-2030D01*
X16929Y-2205D01*
Y-2395D01*
X17002Y-2570D01*
X17136Y-2704D01*
X17311Y-2777D01*
X17501D01*
X17676Y-2704D01*
X17811Y-2570D01*
X17883Y-2395D01*
Y-2205D01*
X17811Y-2030D01*
X17676Y-1896D01*
X17501Y-1823D01*
D02*
G37*
G36*
X-3805Y-1823D02*
X-3995D01*
X-4170Y-1896D01*
X-4304Y-2030D01*
X-4377Y-2205D01*
Y-2395D01*
X-4304Y-2570D01*
X-4170Y-2704D01*
X-3995Y-2777D01*
X-3805D01*
X-3630Y-2704D01*
X-3496Y-2570D01*
X-3423Y-2395D01*
Y-2205D01*
X-3496Y-2030D01*
X-3630Y-1896D01*
X-3805Y-1823D01*
D02*
G37*
G36*
X-18725D02*
X-18915D01*
X-19090Y-1896D01*
X-19224Y-2030D01*
X-19297Y-2205D01*
Y-2395D01*
X-19224Y-2570D01*
X-19090Y-2704D01*
X-18915Y-2777D01*
X-18725D01*
X-18550Y-2704D01*
X-18416Y-2570D01*
X-18343Y-2395D01*
Y-2205D01*
X-18416Y-2030D01*
X-18550Y-1896D01*
X-18725Y-1823D01*
D02*
G37*
G36*
X-33805D02*
X-33995D01*
X-34170Y-1896D01*
X-34304Y-2030D01*
X-34377Y-2205D01*
Y-2395D01*
X-34304Y-2570D01*
X-34170Y-2704D01*
X-33995Y-2777D01*
X-33805D01*
X-33630Y-2704D01*
X-33496Y-2570D01*
X-33423Y-2395D01*
Y-2205D01*
X-33496Y-2030D01*
X-33630Y-1896D01*
X-33805Y-1823D01*
D02*
G37*
G36*
X29995Y-1023D02*
X29805D01*
X29630Y-1096D01*
X29496Y-1230D01*
X29423Y-1405D01*
Y-1595D01*
X29496Y-1770D01*
X29630Y-1904D01*
X29695Y-1931D01*
Y-2069D01*
X29630Y-2096D01*
X29496Y-2230D01*
X29423Y-2405D01*
Y-2595D01*
X29496Y-2770D01*
X29630Y-2904D01*
X29805Y-2977D01*
X29995D01*
X30170Y-2904D01*
X30304Y-2770D01*
X30377Y-2595D01*
Y-2405D01*
X30304Y-2230D01*
X30170Y-2096D01*
X30105Y-2069D01*
Y-1931D01*
X30170Y-1904D01*
X30304Y-1770D01*
X30377Y-1595D01*
Y-1405D01*
X30304Y-1230D01*
X30170Y-1096D01*
X29995Y-1023D01*
D02*
G37*
G36*
X47407Y-1815D02*
X45553D01*
Y-3669D01*
X47407D01*
Y-1815D01*
D02*
G37*
G36*
X44062D02*
X43818D01*
X43582Y-1878D01*
X43371Y-2000D01*
X43198Y-2173D01*
X43076Y-2384D01*
X43013Y-2620D01*
Y-2864D01*
X43076Y-3100D01*
X43198Y-3311D01*
X43371Y-3484D01*
X43582Y-3606D01*
X43818Y-3669D01*
X44062D01*
X44298Y-3606D01*
X44509Y-3484D01*
X44682Y-3311D01*
X44804Y-3100D01*
X44867Y-2864D01*
Y-2620D01*
X44804Y-2384D01*
X44682Y-2173D01*
X44509Y-2000D01*
X44298Y-1878D01*
X44062Y-1815D01*
D02*
G37*
G36*
X38982D02*
X38738D01*
X38502Y-1878D01*
X38291Y-2000D01*
X38118Y-2173D01*
X37996Y-2384D01*
X37933Y-2620D01*
Y-2864D01*
X37996Y-3100D01*
X38118Y-3311D01*
X38291Y-3484D01*
X38502Y-3606D01*
X38738Y-3669D01*
X38982D01*
X39218Y-3606D01*
X39429Y-3484D01*
X39602Y-3311D01*
X39724Y-3100D01*
X39787Y-2864D01*
Y-2620D01*
X39724Y-2384D01*
X39602Y-2173D01*
X39429Y-2000D01*
X39218Y-1878D01*
X38982Y-1815D01*
D02*
G37*
G36*
X36442D02*
X36198D01*
X35962Y-1878D01*
X35751Y-2000D01*
X35578Y-2173D01*
X35456Y-2384D01*
X35393Y-2620D01*
Y-2864D01*
X35456Y-3100D01*
X35578Y-3311D01*
X35751Y-3484D01*
X35962Y-3606D01*
X36198Y-3669D01*
X36442D01*
X36678Y-3606D01*
X36889Y-3484D01*
X37062Y-3311D01*
X37184Y-3100D01*
X37247Y-2864D01*
Y-2620D01*
X37184Y-2384D01*
X37062Y-2173D01*
X36889Y-2000D01*
X36678Y-1878D01*
X36442Y-1815D01*
D02*
G37*
G36*
X33902D02*
X33658D01*
X33422Y-1878D01*
X33211Y-2000D01*
X33038Y-2173D01*
X32916Y-2384D01*
X32853Y-2620D01*
Y-2864D01*
X32916Y-3100D01*
X33038Y-3311D01*
X33211Y-3484D01*
X33422Y-3606D01*
X33658Y-3669D01*
X33902D01*
X34138Y-3606D01*
X34349Y-3484D01*
X34522Y-3311D01*
X34644Y-3100D01*
X34707Y-2864D01*
Y-2620D01*
X34644Y-2384D01*
X34522Y-2173D01*
X34349Y-2000D01*
X34138Y-1878D01*
X33902Y-1815D01*
D02*
G37*
G36*
X42432Y-3142D02*
X41800D01*
Y-3774D01*
X41824Y-3767D01*
X42075Y-3622D01*
X42280Y-3417D01*
X42425Y-3167D01*
X42432Y-3142D01*
D02*
G37*
G36*
X41000D02*
X40368D01*
X40375Y-3167D01*
X40520Y-3417D01*
X40724Y-3622D01*
X40975Y-3767D01*
X41000Y-3774D01*
Y-3142D01*
D02*
G37*
G36*
X30995Y-523D02*
X30805D01*
X30630Y-596D01*
X30496Y-730D01*
X30423Y-905D01*
Y-1095D01*
X30496Y-1270D01*
X30630Y-1404D01*
X30695Y-1431D01*
Y-1569D01*
X30630Y-1596D01*
X30496Y-1730D01*
X30423Y-1905D01*
Y-2095D01*
X30496Y-2270D01*
X30630Y-2404D01*
X30695Y-2431D01*
Y-2569D01*
X30630Y-2596D01*
X30496Y-2730D01*
X30423Y-2905D01*
Y-3095D01*
X30496Y-3270D01*
X30630Y-3404D01*
X30695Y-3431D01*
Y-3569D01*
X30630Y-3596D01*
X30496Y-3730D01*
X30423Y-3905D01*
Y-4095D01*
X30496Y-4270D01*
X30630Y-4404D01*
X30805Y-4477D01*
X30995D01*
X31170Y-4404D01*
X31304Y-4270D01*
X31377Y-4095D01*
Y-3905D01*
X31304Y-3730D01*
X31170Y-3596D01*
X31105Y-3569D01*
Y-3431D01*
X31170Y-3404D01*
X31304Y-3270D01*
X31377Y-3095D01*
Y-2905D01*
X31304Y-2730D01*
X31170Y-2596D01*
X31105Y-2569D01*
Y-2431D01*
X31170Y-2404D01*
X31304Y-2270D01*
X31377Y-2095D01*
Y-1905D01*
X31304Y-1730D01*
X31170Y-1596D01*
X31105Y-1569D01*
Y-1431D01*
X31170Y-1404D01*
X31304Y-1270D01*
X31377Y-1095D01*
Y-905D01*
X31304Y-730D01*
X31170Y-596D01*
X30995Y-523D01*
D02*
G37*
G36*
X28899Y-4062D02*
X28709D01*
X28534Y-4135D01*
X28400Y-4269D01*
X28327Y-4444D01*
Y-4634D01*
X28400Y-4809D01*
X28534Y-4944D01*
X28709Y-5016D01*
X28899D01*
X29074Y-4944D01*
X29208Y-4809D01*
X29281Y-4634D01*
Y-4444D01*
X29208Y-4269D01*
X29074Y-4135D01*
X28899Y-4062D01*
D02*
G37*
G36*
X41395Y-4123D02*
X41205D01*
X41030Y-4196D01*
X40896Y-4330D01*
X40823Y-4505D01*
Y-4695D01*
X40896Y-4870D01*
X41030Y-5004D01*
X41205Y-5077D01*
X41395D01*
X41570Y-5004D01*
X41704Y-4870D01*
X41777Y-4695D01*
Y-4505D01*
X41704Y-4330D01*
X41570Y-4196D01*
X41395Y-4123D01*
D02*
G37*
G36*
X34999Y-6174D02*
X34809D01*
X34634Y-6247D01*
X34500Y-6381D01*
X34427Y-6556D01*
Y-6746D01*
X34500Y-6921D01*
X34634Y-7055D01*
X34809Y-7128D01*
X34999D01*
X35174Y-7055D01*
X35308Y-6921D01*
X35381Y-6746D01*
Y-6556D01*
X35308Y-6381D01*
X35174Y-6247D01*
X34999Y-6174D01*
D02*
G37*
G36*
X-30034Y-7074D02*
X-30224D01*
X-30399Y-7146D01*
X-30533Y-7280D01*
X-30606Y-7456D01*
Y-7646D01*
X-30533Y-7821D01*
X-30399Y-7955D01*
X-30224Y-8028D01*
X-30034D01*
X-29859Y-7955D01*
X-29724Y-7821D01*
X-29652Y-7646D01*
Y-7456D01*
X-29724Y-7280D01*
X-29859Y-7146D01*
X-30034Y-7074D01*
D02*
G37*
G36*
X36722Y-7960D02*
X36532D01*
X36357Y-8033D01*
X36223Y-8167D01*
X36150Y-8342D01*
Y-8532D01*
X36223Y-8707D01*
X36357Y-8841D01*
X36532Y-8914D01*
X36722D01*
X36897Y-8841D01*
X37031Y-8707D01*
X37104Y-8532D01*
Y-8342D01*
X37031Y-8167D01*
X36897Y-8033D01*
X36722Y-7960D01*
D02*
G37*
G36*
X32889Y-8711D02*
X32699D01*
X32524Y-8784D01*
X32390Y-8918D01*
X32317Y-9093D01*
Y-9283D01*
X32390Y-9459D01*
X32524Y-9593D01*
X32699Y-9665D01*
X32889D01*
X33064Y-9593D01*
X33198Y-9459D01*
X33271Y-9283D01*
Y-9093D01*
X33198Y-8918D01*
X33064Y-8784D01*
X32889Y-8711D01*
D02*
G37*
G36*
X29889D02*
X29699D01*
X29524Y-8784D01*
X29390Y-8918D01*
X29317Y-9093D01*
Y-9283D01*
X29390Y-9459D01*
X29524Y-9593D01*
X29699Y-9665D01*
X29889D01*
X30064Y-9593D01*
X30198Y-9459D01*
X30271Y-9283D01*
Y-9093D01*
X30198Y-8918D01*
X30064Y-8784D01*
X29889Y-8711D01*
D02*
G37*
G36*
X45529Y-8830D02*
X45298D01*
X45075Y-8890D01*
X44875Y-9005D01*
X44712Y-9169D01*
X44596Y-9369D01*
X44536Y-9592D01*
Y-9823D01*
X44596Y-10046D01*
X44712Y-10246D01*
X44875Y-10409D01*
X45075Y-10524D01*
X45298Y-10584D01*
X45529D01*
X45752Y-10524D01*
X45952Y-10409D01*
X46115Y-10246D01*
X46231Y-10046D01*
X46290Y-9823D01*
Y-9592D01*
X46231Y-9369D01*
X46115Y-9169D01*
X45952Y-9005D01*
X45752Y-8890D01*
X45529Y-8830D01*
D02*
G37*
G36*
X34565Y-9940D02*
X34375D01*
X34200Y-10013D01*
X34066Y-10147D01*
X33993Y-10322D01*
Y-10512D01*
X34066Y-10687D01*
X34200Y-10822D01*
X34375Y-10894D01*
X34565D01*
X34740Y-10822D01*
X34874Y-10687D01*
X34947Y-10512D01*
Y-10322D01*
X34874Y-10147D01*
X34740Y-10013D01*
X34565Y-9940D01*
D02*
G37*
G36*
X20334Y-10284D02*
X20145D01*
X19969Y-10356D01*
X19835Y-10490D01*
X19762Y-10666D01*
Y-10855D01*
X19835Y-11031D01*
X19969Y-11165D01*
X20145Y-11238D01*
X20334D01*
X20510Y-11165D01*
X20644Y-11031D01*
X20716Y-10855D01*
Y-10666D01*
X20644Y-10490D01*
X20510Y-10356D01*
X20334Y-10284D01*
D02*
G37*
G36*
X24880Y-10285D02*
X24690D01*
X24515Y-10357D01*
X24381Y-10491D01*
X24308Y-10667D01*
Y-10856D01*
X24381Y-11032D01*
X24515Y-11166D01*
X24690Y-11239D01*
X24880D01*
X25055Y-11166D01*
X25189Y-11032D01*
X25262Y-10856D01*
Y-10667D01*
X25189Y-10491D01*
X25055Y-10357D01*
X24880Y-10285D01*
D02*
G37*
G36*
X39197Y-10441D02*
X39007D01*
X38832Y-10513D01*
X38698Y-10647D01*
X38625Y-10823D01*
Y-11013D01*
X38698Y-11188D01*
X38832Y-11322D01*
X39007Y-11395D01*
X39197D01*
X39372Y-11322D01*
X39507Y-11188D01*
X39579Y-11013D01*
Y-10823D01*
X39507Y-10647D01*
X39372Y-10513D01*
X39197Y-10441D01*
D02*
G37*
G36*
X-4405Y-10823D02*
X-4595D01*
X-4770Y-10896D01*
X-4904Y-11030D01*
X-4977Y-11205D01*
Y-11395D01*
X-4904Y-11570D01*
X-4770Y-11704D01*
X-4595Y-11777D01*
X-4405D01*
X-4230Y-11704D01*
X-4096Y-11570D01*
X-4023Y-11395D01*
Y-11205D01*
X-4096Y-11030D01*
X-4230Y-10896D01*
X-4405Y-10823D01*
D02*
G37*
G36*
X-6882D02*
X-7072D01*
X-7247Y-10896D01*
X-7381Y-11030D01*
X-7454Y-11205D01*
Y-11395D01*
X-7381Y-11570D01*
X-7247Y-11704D01*
X-7072Y-11777D01*
X-6882D01*
X-6706Y-11704D01*
X-6572Y-11570D01*
X-6500Y-11395D01*
Y-11205D01*
X-6572Y-11030D01*
X-6706Y-10896D01*
X-6882Y-10823D01*
D02*
G37*
G36*
X21095Y-11323D02*
X20905D01*
X20730Y-11396D01*
X20596Y-11530D01*
X20523Y-11705D01*
Y-11895D01*
X20596Y-12070D01*
X20730Y-12204D01*
X20905Y-12277D01*
X21095D01*
X21270Y-12204D01*
X21404Y-12070D01*
X21477Y-11895D01*
Y-11705D01*
X21404Y-11530D01*
X21270Y-11396D01*
X21095Y-11323D01*
D02*
G37*
G36*
X2998Y-11720D02*
X2809D01*
X2633Y-11792D01*
X2499Y-11926D01*
X2426Y-12102D01*
Y-12291D01*
X2499Y-12467D01*
X2633Y-12601D01*
X2809Y-12674D01*
X2998D01*
X3174Y-12601D01*
X3308Y-12467D01*
X3380Y-12291D01*
Y-12102D01*
X3308Y-11926D01*
X3174Y-11792D01*
X2998Y-11720D01*
D02*
G37*
G36*
X-16605Y-12623D02*
X-16795D01*
X-16970Y-12696D01*
X-17095Y-12821D01*
X-17167Y-12826D01*
X-17238Y-12821D01*
X-17363Y-12696D01*
X-17538Y-12623D01*
X-17728D01*
X-17904Y-12696D01*
X-18029Y-12821D01*
X-18100Y-12826D01*
X-18171Y-12821D01*
X-18296Y-12696D01*
X-18472Y-12623D01*
X-18662D01*
X-18837Y-12696D01*
X-18962Y-12821D01*
X-19033Y-12826D01*
X-19105Y-12821D01*
X-19230Y-12696D01*
X-19405Y-12623D01*
X-19595D01*
X-19770Y-12696D01*
X-19904Y-12830D01*
X-19977Y-13005D01*
Y-13195D01*
X-19904Y-13370D01*
X-19803Y-13472D01*
X-19782Y-13550D01*
X-19803Y-13628D01*
X-19904Y-13730D01*
X-19977Y-13905D01*
Y-14095D01*
X-19904Y-14270D01*
X-19770Y-14404D01*
X-19595Y-14477D01*
X-19405D01*
X-19230Y-14404D01*
X-19105Y-14279D01*
X-19033Y-14274D01*
X-18962Y-14279D01*
X-18837Y-14404D01*
X-18662Y-14477D01*
X-18472D01*
X-18296Y-14404D01*
X-18171Y-14279D01*
X-18100Y-14274D01*
X-18029Y-14279D01*
X-17904Y-14404D01*
X-17728Y-14477D01*
X-17538D01*
X-17363Y-14404D01*
X-17238Y-14279D01*
X-17167Y-14274D01*
X-17095Y-14279D01*
X-16970Y-14404D01*
X-16795Y-14477D01*
X-16605D01*
X-16430Y-14404D01*
X-16296Y-14270D01*
X-16223Y-14095D01*
Y-13905D01*
X-16296Y-13730D01*
X-16397Y-13628D01*
X-16418Y-13550D01*
X-16397Y-13472D01*
X-16296Y-13370D01*
X-16223Y-13195D01*
Y-13005D01*
X-16296Y-12830D01*
X-16430Y-12696D01*
X-16605Y-12623D01*
D02*
G37*
G36*
X31920Y-12673D02*
X31730D01*
X31555Y-12746D01*
X31421Y-12880D01*
X31348Y-13055D01*
Y-13245D01*
X31421Y-13420D01*
X31555Y-13554D01*
X31730Y-13627D01*
X31920D01*
X32095Y-13554D01*
X32229Y-13420D01*
X32302Y-13245D01*
Y-13055D01*
X32229Y-12880D01*
X32095Y-12746D01*
X31920Y-12673D01*
D02*
G37*
G36*
X25377Y-13887D02*
X25187D01*
X25012Y-13959D01*
X24878Y-14093D01*
X24805Y-14269D01*
Y-14458D01*
X24878Y-14634D01*
X25012Y-14768D01*
X25187Y-14840D01*
X25377D01*
X25552Y-14768D01*
X25687Y-14634D01*
X25759Y-14458D01*
Y-14269D01*
X25687Y-14093D01*
X25552Y-13959D01*
X25377Y-13887D01*
D02*
G37*
G36*
X20334Y-12123D02*
X20145D01*
X19969Y-12196D01*
X19835Y-12330D01*
X19762Y-12505D01*
Y-12695D01*
X19835Y-12870D01*
X19969Y-13004D01*
X20016Y-13024D01*
Y-13161D01*
X19969Y-13180D01*
X19835Y-13315D01*
X19762Y-13490D01*
Y-13680D01*
X19835Y-13855D01*
X19969Y-13989D01*
X19986Y-13996D01*
Y-14123D01*
X19969Y-14130D01*
X19835Y-14264D01*
X19762Y-14440D01*
Y-14630D01*
X19835Y-14805D01*
X19969Y-14939D01*
X20145Y-15012D01*
X20334D01*
X20510Y-14939D01*
X20644Y-14805D01*
X20716Y-14630D01*
Y-14440D01*
X20644Y-14264D01*
X20510Y-14130D01*
X20493Y-14123D01*
Y-13996D01*
X20510Y-13989D01*
X20644Y-13855D01*
X20716Y-13680D01*
Y-13490D01*
X20644Y-13315D01*
X20510Y-13180D01*
X20463Y-13161D01*
Y-13024D01*
X20510Y-13004D01*
X20644Y-12870D01*
X20716Y-12695D01*
Y-12505D01*
X20644Y-12330D01*
X20510Y-12196D01*
X20334Y-12123D01*
D02*
G37*
G36*
X45529Y-13710D02*
X45298D01*
X45075Y-13770D01*
X44875Y-13885D01*
X44712Y-14049D01*
X44596Y-14249D01*
X44536Y-14472D01*
Y-14703D01*
X44596Y-14926D01*
X44712Y-15126D01*
X44875Y-15289D01*
X45075Y-15404D01*
X45298Y-15464D01*
X45529D01*
X45752Y-15404D01*
X45952Y-15289D01*
X46115Y-15126D01*
X46231Y-14926D01*
X46290Y-14703D01*
Y-14472D01*
X46231Y-14249D01*
X46115Y-14049D01*
X45952Y-13885D01*
X45752Y-13770D01*
X45529Y-13710D01*
D02*
G37*
G36*
X13051Y-16316D02*
X12861D01*
X12686Y-16389D01*
X12585Y-16490D01*
X12506Y-16511D01*
X12428Y-16490D01*
X12326Y-16389D01*
X12151Y-16316D01*
X11961D01*
X11786Y-16389D01*
X11652Y-16523D01*
X11579Y-16698D01*
Y-16888D01*
X11652Y-17063D01*
X11777Y-17188D01*
X11782Y-17260D01*
X11777Y-17331D01*
X11652Y-17456D01*
X11579Y-17632D01*
Y-17821D01*
X11652Y-17997D01*
X11777Y-18122D01*
X11782Y-18193D01*
X11777Y-18265D01*
X11652Y-18390D01*
X11579Y-18565D01*
Y-18755D01*
X11652Y-18930D01*
X11786Y-19064D01*
X11961Y-19137D01*
X12151D01*
X12326Y-19064D01*
X12428Y-18963D01*
X12506Y-18942D01*
X12585Y-18963D01*
X12686Y-19064D01*
X12861Y-19137D01*
X13051D01*
X13226Y-19064D01*
X13361Y-18930D01*
X13433Y-18755D01*
Y-18565D01*
X13361Y-18390D01*
X13236Y-18265D01*
X13231Y-18193D01*
X13236Y-18122D01*
X13361Y-17997D01*
X13433Y-17821D01*
Y-17632D01*
X13361Y-17456D01*
X13236Y-17331D01*
X13231Y-17260D01*
X13236Y-17188D01*
X13361Y-17063D01*
X13433Y-16888D01*
Y-16698D01*
X13361Y-16523D01*
X13226Y-16389D01*
X13051Y-16316D01*
D02*
G37*
G36*
X34373Y-19278D02*
X34183D01*
X34008Y-19351D01*
X33874Y-19485D01*
X33801Y-19660D01*
Y-19850D01*
X33874Y-20025D01*
X34008Y-20160D01*
X34183Y-20232D01*
X34373D01*
X34548Y-20160D01*
X34683Y-20025D01*
X34755Y-19850D01*
Y-19660D01*
X34683Y-19485D01*
X34548Y-19351D01*
X34373Y-19278D01*
D02*
G37*
G36*
X-43044Y-19600D02*
X-43233D01*
X-43409Y-19673D01*
X-43543Y-19807D01*
X-43615Y-19983D01*
Y-20172D01*
X-43543Y-20348D01*
X-43409Y-20482D01*
X-43233Y-20554D01*
X-43044D01*
X-42868Y-20482D01*
X-42734Y-20348D01*
X-42661Y-20172D01*
Y-19983D01*
X-42734Y-19807D01*
X-42868Y-19673D01*
X-43044Y-19600D01*
D02*
G37*
G36*
X38320Y-20498D02*
X38130D01*
X37955Y-20571D01*
X37821Y-20705D01*
X37748Y-20881D01*
Y-21070D01*
X37821Y-21246D01*
X37955Y-21380D01*
X38130Y-21452D01*
X38320D01*
X38495Y-21380D01*
X38629Y-21246D01*
X38702Y-21070D01*
Y-20881D01*
X38629Y-20705D01*
X38495Y-20571D01*
X38320Y-20498D01*
D02*
G37*
G36*
X18190Y-24550D02*
X18000D01*
X17825Y-24623D01*
X17691Y-24757D01*
X17618Y-24932D01*
Y-25122D01*
X17691Y-25298D01*
X17825Y-25432D01*
X18000Y-25504D01*
X18190D01*
X18365Y-25432D01*
X18499Y-25298D01*
X18572Y-25122D01*
Y-24932D01*
X18499Y-24757D01*
X18365Y-24623D01*
X18190Y-24550D01*
D02*
G37*
G36*
X41612Y-24906D02*
X41423D01*
X41247Y-24979D01*
X41113Y-25113D01*
X41040Y-25289D01*
Y-25478D01*
X41113Y-25654D01*
X41247Y-25788D01*
X41423Y-25861D01*
X41612D01*
X41788Y-25788D01*
X41922Y-25654D01*
X41994Y-25478D01*
Y-25289D01*
X41922Y-25113D01*
X41788Y-24979D01*
X41612Y-24906D01*
D02*
G37*
G36*
X39678D02*
X39489D01*
X39313Y-24979D01*
X39179Y-25113D01*
X39106Y-25289D01*
Y-25478D01*
X39179Y-25654D01*
X39313Y-25788D01*
X39489Y-25861D01*
X39678D01*
X39854Y-25788D01*
X39988Y-25654D01*
X40061Y-25478D01*
Y-25289D01*
X39988Y-25113D01*
X39854Y-24979D01*
X39678Y-24906D01*
D02*
G37*
G36*
X37739D02*
X37550D01*
X37374Y-24979D01*
X37240Y-25113D01*
X37168Y-25289D01*
Y-25478D01*
X37240Y-25654D01*
X37374Y-25788D01*
X37550Y-25861D01*
X37739D01*
X37915Y-25788D01*
X38049Y-25654D01*
X38122Y-25478D01*
Y-25289D01*
X38049Y-25113D01*
X37915Y-24979D01*
X37739Y-24906D01*
D02*
G37*
G36*
X23112Y-24956D02*
X22922D01*
X22747Y-25028D01*
X22613Y-25163D01*
X22540Y-25338D01*
Y-25528D01*
X22613Y-25703D01*
X22747Y-25837D01*
X22922Y-25910D01*
X23112D01*
X23287Y-25837D01*
X23421Y-25703D01*
X23494Y-25528D01*
Y-25338D01*
X23421Y-25163D01*
X23287Y-25028D01*
X23112Y-24956D01*
D02*
G37*
G36*
X12996Y-24614D02*
X11314D01*
Y-26296D01*
X12996D01*
Y-24614D01*
D02*
G37*
G36*
X9765D02*
X9544D01*
X9330Y-24671D01*
X9138Y-24782D01*
X8982Y-24939D01*
X8871Y-25131D01*
X8814Y-25344D01*
Y-25566D01*
X8871Y-25780D01*
X8982Y-25972D01*
X9138Y-26128D01*
X9330Y-26239D01*
X9544Y-26296D01*
X9765D01*
X9979Y-26239D01*
X10171Y-26128D01*
X10328Y-25972D01*
X10438Y-25780D01*
X10496Y-25566D01*
Y-25344D01*
X10438Y-25131D01*
X10328Y-24939D01*
X10171Y-24782D01*
X9979Y-24671D01*
X9765Y-24614D01*
D02*
G37*
G36*
X12555Y-26515D02*
Y-27055D01*
X13095D01*
X12966Y-26833D01*
X12777Y-26644D01*
X12555Y-26515D01*
D02*
G37*
G36*
X11755D02*
X11532Y-26644D01*
X11343Y-26833D01*
X11215Y-27055D01*
X11755D01*
Y-26515D01*
D02*
G37*
G36*
X9765Y-26614D02*
X9544D01*
X9330Y-26671D01*
X9138Y-26782D01*
X8982Y-26939D01*
X8871Y-27131D01*
X8814Y-27344D01*
Y-27566D01*
X8871Y-27780D01*
X8982Y-27972D01*
X9138Y-28128D01*
X9330Y-28239D01*
X9544Y-28296D01*
X9765D01*
X9979Y-28239D01*
X10171Y-28128D01*
X10328Y-27972D01*
X10438Y-27780D01*
X10496Y-27566D01*
Y-27344D01*
X10438Y-27131D01*
X10328Y-26939D01*
X10171Y-26782D01*
X9979Y-26671D01*
X9765Y-26614D01*
D02*
G37*
G36*
X13095Y-27855D02*
X12555D01*
Y-28395D01*
X12777Y-28267D01*
X12966Y-28078D01*
X13095Y-27855D01*
D02*
G37*
G36*
X11755D02*
X11215D01*
X11343Y-28078D01*
X11532Y-28267D01*
X11755Y-28395D01*
Y-27855D01*
D02*
G37*
G36*
X17325Y-28248D02*
Y-29765D01*
X18842D01*
X18808Y-29594D01*
X18660Y-29238D01*
X18446Y-28917D01*
X18173Y-28644D01*
X17852Y-28430D01*
X17496Y-28282D01*
X17325Y-28248D01*
D02*
G37*
G36*
X16525D02*
X16354Y-28282D01*
X15997Y-28430D01*
X15677Y-28644D01*
X15404Y-28917D01*
X15190Y-29238D01*
X15042Y-29594D01*
X15008Y-29765D01*
X16525D01*
Y-28248D01*
D02*
G37*
G36*
X5285D02*
Y-29765D01*
X6802D01*
X6768Y-29594D01*
X6620Y-29238D01*
X6406Y-28917D01*
X6133Y-28644D01*
X5812Y-28430D01*
X5456Y-28282D01*
X5285Y-28248D01*
D02*
G37*
G36*
X4485D02*
X4314Y-28282D01*
X3957Y-28430D01*
X3637Y-28644D01*
X3364Y-28917D01*
X3150Y-29238D01*
X3002Y-29594D01*
X2968Y-29765D01*
X4485D01*
Y-28248D01*
D02*
G37*
G36*
X-22508Y-29244D02*
X-22698D01*
X-22873Y-29316D01*
X-23008Y-29451D01*
X-23080Y-29626D01*
Y-29816D01*
X-23008Y-29991D01*
X-22873Y-30125D01*
X-22698Y-30198D01*
X-22508D01*
X-22333Y-30125D01*
X-22199Y-29991D01*
X-22126Y-29816D01*
Y-29626D01*
X-22199Y-29451D01*
X-22333Y-29316D01*
X-22508Y-29244D01*
D02*
G37*
G36*
X32717Y-24740D02*
X32283D01*
X31854Y-24808D01*
X31441Y-24942D01*
X31053Y-25139D01*
X30702Y-25395D01*
X30395Y-25702D01*
X30139Y-26053D01*
X29942Y-26441D01*
X29808Y-26854D01*
X29740Y-27283D01*
Y-27717D01*
X29808Y-28146D01*
X29942Y-28559D01*
X30139Y-28947D01*
X30395Y-29298D01*
X30702Y-29605D01*
X31053Y-29861D01*
X31441Y-30058D01*
X31854Y-30192D01*
X32283Y-30260D01*
X32717D01*
X33146Y-30192D01*
X33559Y-30058D01*
X33947Y-29861D01*
X34298Y-29605D01*
X34605Y-29298D01*
X34861Y-28947D01*
X35058Y-28559D01*
X35192Y-28146D01*
X35260Y-27717D01*
Y-27283D01*
X35192Y-26854D01*
X35058Y-26441D01*
X34861Y-26053D01*
X34605Y-25702D01*
X34298Y-25395D01*
X33947Y-25139D01*
X33559Y-24942D01*
X33146Y-24808D01*
X32717Y-24740D01*
D02*
G37*
G36*
X18842Y-30565D02*
X17325D01*
Y-32082D01*
X17496Y-32048D01*
X17852Y-31900D01*
X18173Y-31686D01*
X18446Y-31413D01*
X18660Y-31093D01*
X18808Y-30736D01*
X18842Y-30565D01*
D02*
G37*
G36*
X16525D02*
X15008D01*
X15042Y-30736D01*
X15190Y-31093D01*
X15404Y-31413D01*
X15677Y-31686D01*
X15997Y-31900D01*
X16354Y-32048D01*
X16525Y-32082D01*
Y-30565D01*
D02*
G37*
G36*
X6802D02*
X5285D01*
Y-32082D01*
X5456Y-32048D01*
X5812Y-31900D01*
X6133Y-31686D01*
X6406Y-31413D01*
X6620Y-31093D01*
X6768Y-30736D01*
X6802Y-30565D01*
D02*
G37*
G36*
X4485D02*
X2968D01*
X3002Y-30736D01*
X3150Y-31093D01*
X3364Y-31413D01*
X3637Y-31686D01*
X3957Y-31900D01*
X4314Y-32048D01*
X4485Y-32082D01*
Y-30565D01*
D02*
G37*
G36*
X46651Y-33850D02*
Y-34900D01*
X47701D01*
X47693Y-34863D01*
X47580Y-34590D01*
X47416Y-34344D01*
X47207Y-34135D01*
X46961Y-33971D01*
X46688Y-33858D01*
X46651Y-33850D01*
D02*
G37*
G36*
X45851Y-33850D02*
X45813Y-33858D01*
X45540Y-33971D01*
X45295Y-34135D01*
X45086Y-34344D01*
X44921Y-34590D01*
X44808Y-34863D01*
X44801Y-34900D01*
X45851D01*
Y-33850D01*
D02*
G37*
G36*
X-40251Y-33850D02*
Y-34900D01*
X-39201D01*
X-39208Y-34863D01*
X-39321Y-34590D01*
X-39486Y-34344D01*
X-39695Y-34135D01*
X-39940Y-33971D01*
X-40213Y-33858D01*
X-40251Y-33850D01*
D02*
G37*
G36*
X-34151Y-33800D02*
X-35251D01*
Y-34900D01*
X-34151D01*
Y-33800D01*
D02*
G37*
G36*
X-41051Y-33850D02*
X-41088Y-33858D01*
X-41361Y-33971D01*
X-41607Y-34135D01*
X-41816Y-34344D01*
X-41980Y-34590D01*
X-42093Y-34863D01*
X-42101Y-34900D01*
X-41051D01*
Y-33850D01*
D02*
G37*
G36*
X-36051Y-33800D02*
X-37151D01*
Y-34900D01*
X-36051D01*
Y-33800D01*
D02*
G37*
G36*
X31651Y-33850D02*
Y-34900D01*
X32701D01*
X32693Y-34863D01*
X32580Y-34590D01*
X32416Y-34344D01*
X32207Y-34135D01*
X31961Y-33971D01*
X31688Y-33858D01*
X31651Y-33850D01*
D02*
G37*
G36*
X30851Y-33850D02*
X30813Y-33858D01*
X30540Y-33971D01*
X30295Y-34135D01*
X30086Y-34344D01*
X29921Y-34590D01*
X29808Y-34863D01*
X29801Y-34900D01*
X30851D01*
Y-33850D01*
D02*
G37*
G36*
X-20477Y-33973D02*
X-20826D01*
X-21164Y-34064D01*
X-21466Y-34238D01*
X-21713Y-34485D01*
X-21888Y-34788D01*
X-21978Y-35125D01*
Y-35475D01*
X-21888Y-35812D01*
X-21713Y-36115D01*
X-21466Y-36362D01*
X-21164Y-36537D01*
X-20826Y-36627D01*
X-20477D01*
X-20139Y-36537D01*
X-19837Y-36362D01*
X-19590Y-36115D01*
X-19415Y-35812D01*
X-19324Y-35475D01*
Y-35125D01*
X-19415Y-34788D01*
X-19590Y-34485D01*
X-19837Y-34238D01*
X-20139Y-34064D01*
X-20477Y-33973D01*
D02*
G37*
G36*
X-24324D02*
X-26978D01*
Y-36627D01*
X-24324D01*
Y-33973D01*
D02*
G37*
G36*
X-30476D02*
X-30826D01*
X-31163Y-34064D01*
X-31466Y-34238D01*
X-31713Y-34485D01*
X-31888Y-34788D01*
X-31978Y-35125D01*
Y-35475D01*
X-31888Y-35812D01*
X-31713Y-36115D01*
X-31466Y-36362D01*
X-31163Y-36537D01*
X-30826Y-36627D01*
X-30476D01*
X-30139Y-36537D01*
X-29836Y-36362D01*
X-29589Y-36115D01*
X-29415Y-35812D01*
X-29324Y-35475D01*
Y-35125D01*
X-29415Y-34788D01*
X-29589Y-34485D01*
X-29836Y-34238D01*
X-30139Y-34064D01*
X-30476Y-33973D01*
D02*
G37*
G36*
X-44324D02*
X-46978D01*
Y-36627D01*
X-44324D01*
Y-33973D01*
D02*
G37*
G36*
X41425Y-33973D02*
X41076D01*
X40739Y-34064D01*
X40436Y-34238D01*
X40189Y-34485D01*
X40014Y-34788D01*
X39924Y-35125D01*
Y-35475D01*
X40014Y-35812D01*
X40189Y-36115D01*
X40436Y-36362D01*
X40739Y-36537D01*
X41076Y-36627D01*
X41425D01*
X41763Y-36537D01*
X42066Y-36362D01*
X42313Y-36115D01*
X42487Y-35812D01*
X42578Y-35475D01*
Y-35125D01*
X42487Y-34788D01*
X42313Y-34485D01*
X42066Y-34238D01*
X41763Y-34064D01*
X41425Y-33973D01*
D02*
G37*
G36*
X37578D02*
X34924D01*
Y-36627D01*
X37578D01*
Y-33973D01*
D02*
G37*
G36*
X26425Y-33973D02*
X26076D01*
X25739Y-34064D01*
X25436Y-34238D01*
X25189Y-34485D01*
X25014Y-34788D01*
X24924Y-35125D01*
Y-35475D01*
X25014Y-35812D01*
X25189Y-36115D01*
X25436Y-36362D01*
X25739Y-36537D01*
X26076Y-36627D01*
X26425D01*
X26763Y-36537D01*
X27066Y-36362D01*
X27313Y-36115D01*
X27487Y-35812D01*
X27578Y-35475D01*
Y-35125D01*
X27487Y-34788D01*
X27313Y-34485D01*
X27066Y-34238D01*
X26763Y-34064D01*
X26425Y-33973D01*
D02*
G37*
G36*
X22578D02*
X19924D01*
Y-36627D01*
X22578D01*
Y-33973D01*
D02*
G37*
G36*
X-41051Y-35700D02*
X-42101D01*
X-42093Y-35738D01*
X-41980Y-36011D01*
X-41816Y-36256D01*
X-41607Y-36465D01*
X-41361Y-36629D01*
X-41088Y-36742D01*
X-41051Y-36750D01*
Y-35700D01*
D02*
G37*
G36*
X47701Y-35700D02*
X46651D01*
Y-36750D01*
X46688Y-36742D01*
X46961Y-36629D01*
X47207Y-36465D01*
X47416Y-36256D01*
X47580Y-36011D01*
X47693Y-35738D01*
X47701Y-35700D01*
D02*
G37*
G36*
X-39201Y-35700D02*
X-40251D01*
Y-36750D01*
X-40213Y-36742D01*
X-39940Y-36629D01*
X-39695Y-36465D01*
X-39486Y-36256D01*
X-39321Y-36011D01*
X-39208Y-35738D01*
X-39201Y-35700D01*
D02*
G37*
G36*
X45851Y-35700D02*
X44801D01*
X44808Y-35738D01*
X44921Y-36011D01*
X45086Y-36256D01*
X45295Y-36465D01*
X45540Y-36629D01*
X45813Y-36742D01*
X45851Y-36750D01*
Y-35700D01*
D02*
G37*
G36*
X32701Y-35700D02*
X31651D01*
Y-36750D01*
X31688Y-36742D01*
X31961Y-36629D01*
X32207Y-36465D01*
X32416Y-36256D01*
X32580Y-36011D01*
X32693Y-35738D01*
X32701Y-35700D01*
D02*
G37*
G36*
X30851D02*
X29801D01*
X29808Y-35738D01*
X29921Y-36011D01*
X30086Y-36256D01*
X30295Y-36465D01*
X30540Y-36629D01*
X30813Y-36742D01*
X30851Y-36750D01*
Y-35700D01*
D02*
G37*
G36*
X-34151Y-35700D02*
X-35251D01*
Y-36800D01*
X-34151D01*
Y-35700D01*
D02*
G37*
G36*
X-36051D02*
X-37151D01*
Y-36800D01*
X-36051D01*
Y-35700D01*
D02*
G37*
%LPD*%
D74*
X-19711Y-20147D02*
D03*
X-17342D02*
D03*
X-17252Y-24596D02*
D03*
X12359Y-12797D02*
D03*
X4579D02*
D03*
X3082Y-14299D02*
D03*
X27444Y695D02*
D03*
X33650Y375D02*
D03*
X35425Y3000D02*
D03*
X23723Y3350D02*
D03*
X21100Y5200D02*
D03*
X-23906Y-25846D02*
D03*
X5994Y-18700D02*
D03*
X-20325Y-9875D02*
D03*
X-42092Y-23422D02*
D03*
X-43890Y-23504D02*
D03*
X-42980Y-7037D02*
D03*
X-23263Y-21331D02*
D03*
X-24932Y-18963D02*
D03*
X-18526Y-20147D02*
D03*
X-20895D02*
D03*
X-22079D02*
D03*
X-23263D02*
D03*
X-24447D02*
D03*
Y-21331D02*
D03*
X-25632D02*
D03*
Y-20147D02*
D03*
X-26816Y-21331D02*
D03*
Y-20147D02*
D03*
X-26116Y-18963D02*
D03*
X-27300D02*
D03*
X-28484D02*
D03*
X-28630Y-25658D02*
D03*
X-47992Y-24589D02*
D03*
X-36313Y-24592D02*
D03*
X-34217Y-6263D02*
D03*
X45867Y-22648D02*
D03*
X43900Y-22667D02*
D03*
X27267Y-22648D02*
D03*
X25300Y-22667D02*
D03*
D80*
X16925Y-30165D02*
D03*
X4885D02*
D03*
D81*
X12155Y-27455D02*
D03*
D83*
X41400Y-2742D02*
D03*
X46487Y1068D02*
D03*
D86*
X46251Y-35300D02*
D03*
X31251Y-35300D02*
D03*
X-40651Y-35300D02*
D03*
X40651Y35300D02*
D03*
X30651D02*
D03*
X20651D02*
D03*
D87*
X-35651Y-35300D02*
D03*
D88*
X28894Y-9188D02*
D03*
X13790Y-20166D02*
D03*
X-12423Y-13576D02*
D03*
X-11614Y-16126D02*
D03*
X27213Y-4548D02*
D03*
X33788Y-15106D02*
D03*
X34400Y-11400D02*
D03*
X39071Y-9316D02*
D03*
X30794Y-9188D02*
D03*
X28582Y-14394D02*
D03*
X40801Y3600D02*
D03*
X32304Y-21248D02*
D03*
X41750Y-8114D02*
D03*
X37800Y-6600D02*
D03*
X41285Y-20985D02*
D03*
X37774Y-16850D02*
D03*
X41734Y-16875D02*
D03*
X35878Y-19755D02*
D03*
Y-17055D02*
D03*
X25283Y-18434D02*
D03*
X4600Y-3100D02*
D03*
X-16600Y-3000D02*
D03*
X-4113Y-3433D02*
D03*
X-19097Y-3449D02*
D03*
X-42791Y-15245D02*
D03*
Y-16395D02*
D03*
Y-17545D02*
D03*
X-45500Y-17500D02*
D03*
Y-16350D02*
D03*
Y-15200D02*
D03*
X17211Y-3382D02*
D03*
X-39048Y-22502D02*
D03*
X-36571Y-3569D02*
D03*
X-31504Y-3113D02*
D03*
X-16123Y-29721D02*
D03*
X-20383Y-4449D02*
D03*
X30966Y11385D02*
D03*
Y9734D02*
D03*
X35956Y5742D02*
D03*
X45170Y5734D02*
D03*
X40181Y11376D02*
D03*
Y9726D02*
D03*
X21681D02*
D03*
Y11376D02*
D03*
X-39642Y-8089D02*
D03*
X-14845Y-959D02*
D03*
X15830Y-4432D02*
D03*
X26670Y5734D02*
D03*
X-44845Y-959D02*
D03*
Y-5259D02*
D03*
X-29845Y-959D02*
D03*
X-5483Y-4449D02*
D03*
X6456Y-959D02*
D03*
M02*
