G04*
G04 #@! TF.GenerationSoftware,Altium Limited,Altium Designer,22.10.1 (41)*
G04*
G04 Layer_Physical_Order=1*
G04 Layer_Color=16776960*
%FSLAX43Y43*%
%MOMM*%
G71*
G04*
G04 #@! TF.SameCoordinates,12196C2A-3433-47B0-B4A9-8DE0C645B0E6*
G04*
G04*
G04 #@! TF.FilePolarity,Positive*
G04*
G01*
G75*
%ADD10C,0.500*%
%ADD13C,0.600*%
%ADD14C,0.200*%
G04:AMPARAMS|DCode=17|XSize=2.8mm|YSize=1.25mm|CornerRadius=0.156mm|HoleSize=0mm|Usage=FLASHONLY|Rotation=0.000|XOffset=0mm|YOffset=0mm|HoleType=Round|Shape=RoundedRectangle|*
%AMROUNDEDRECTD17*
21,1,2.800,0.938,0,0,0.0*
21,1,2.487,1.250,0,0,0.0*
1,1,0.313,1.244,-0.469*
1,1,0.313,-1.244,-0.469*
1,1,0.313,-1.244,0.469*
1,1,0.313,1.244,0.469*
%
%ADD17ROUNDEDRECTD17*%
G04:AMPARAMS|DCode=18|XSize=1.1mm|YSize=1.7mm|CornerRadius=0.138mm|HoleSize=0mm|Usage=FLASHONLY|Rotation=180.000|XOffset=0mm|YOffset=0mm|HoleType=Round|Shape=RoundedRectangle|*
%AMROUNDEDRECTD18*
21,1,1.100,1.425,0,0,180.0*
21,1,0.825,1.700,0,0,180.0*
1,1,0.275,-0.413,0.713*
1,1,0.275,0.413,0.713*
1,1,0.275,0.413,-0.713*
1,1,0.275,-0.413,-0.713*
%
%ADD18ROUNDEDRECTD18*%
G04:AMPARAMS|DCode=19|XSize=2mm|YSize=1.2mm|CornerRadius=0.15mm|HoleSize=0mm|Usage=FLASHONLY|Rotation=180.000|XOffset=0mm|YOffset=0mm|HoleType=Round|Shape=RoundedRectangle|*
%AMROUNDEDRECTD19*
21,1,2.000,0.900,0,0,180.0*
21,1,1.700,1.200,0,0,180.0*
1,1,0.300,-0.850,0.450*
1,1,0.300,0.850,0.450*
1,1,0.300,0.850,-0.450*
1,1,0.300,-0.850,-0.450*
%
%ADD19ROUNDEDRECTD19*%
G04:AMPARAMS|DCode=20|XSize=0.3mm|YSize=1.2mm|CornerRadius=0.075mm|HoleSize=0mm|Usage=FLASHONLY|Rotation=270.000|XOffset=0mm|YOffset=0mm|HoleType=Round|Shape=RoundedRectangle|*
%AMROUNDEDRECTD20*
21,1,0.300,1.050,0,0,270.0*
21,1,0.150,1.200,0,0,270.0*
1,1,0.150,-0.525,-0.075*
1,1,0.150,-0.525,0.075*
1,1,0.150,0.525,0.075*
1,1,0.150,0.525,-0.075*
%
%ADD20ROUNDEDRECTD20*%
G04:AMPARAMS|DCode=21|XSize=0.3mm|YSize=1.2mm|CornerRadius=0.075mm|HoleSize=0mm|Usage=FLASHONLY|Rotation=180.000|XOffset=0mm|YOffset=0mm|HoleType=Round|Shape=RoundedRectangle|*
%AMROUNDEDRECTD21*
21,1,0.300,1.050,0,0,180.0*
21,1,0.150,1.200,0,0,180.0*
1,1,0.150,-0.075,0.525*
1,1,0.150,0.075,0.525*
1,1,0.150,0.075,-0.525*
1,1,0.150,-0.075,-0.525*
%
%ADD21ROUNDEDRECTD21*%
G04:AMPARAMS|DCode=22|XSize=0.92mm|YSize=1.08mm|CornerRadius=0.115mm|HoleSize=0mm|Usage=FLASHONLY|Rotation=180.000|XOffset=0mm|YOffset=0mm|HoleType=Round|Shape=RoundedRectangle|*
%AMROUNDEDRECTD22*
21,1,0.920,0.850,0,0,180.0*
21,1,0.690,1.080,0,0,180.0*
1,1,0.230,-0.345,0.425*
1,1,0.230,0.345,0.425*
1,1,0.230,0.345,-0.425*
1,1,0.230,-0.345,-0.425*
%
%ADD22ROUNDEDRECTD22*%
G04:AMPARAMS|DCode=23|XSize=0.63mm|YSize=1.24mm|CornerRadius=0.079mm|HoleSize=0mm|Usage=FLASHONLY|Rotation=270.000|XOffset=0mm|YOffset=0mm|HoleType=Round|Shape=RoundedRectangle|*
%AMROUNDEDRECTD23*
21,1,0.630,1.083,0,0,270.0*
21,1,0.472,1.240,0,0,270.0*
1,1,0.158,-0.541,-0.236*
1,1,0.158,-0.541,0.236*
1,1,0.158,0.541,0.236*
1,1,0.158,0.541,-0.236*
%
%ADD23ROUNDEDRECTD23*%
G04:AMPARAMS|DCode=24|XSize=0.94mm|YSize=1.03mm|CornerRadius=0.118mm|HoleSize=0mm|Usage=FLASHONLY|Rotation=180.000|XOffset=0mm|YOffset=0mm|HoleType=Round|Shape=RoundedRectangle|*
%AMROUNDEDRECTD24*
21,1,0.940,0.795,0,0,180.0*
21,1,0.705,1.030,0,0,180.0*
1,1,0.235,-0.353,0.398*
1,1,0.235,0.353,0.398*
1,1,0.235,0.353,-0.398*
1,1,0.235,-0.353,-0.398*
%
%ADD24ROUNDEDRECTD24*%
G04:AMPARAMS|DCode=25|XSize=0.6mm|YSize=1mm|CornerRadius=0.075mm|HoleSize=0mm|Usage=FLASHONLY|Rotation=270.000|XOffset=0mm|YOffset=0mm|HoleType=Round|Shape=RoundedRectangle|*
%AMROUNDEDRECTD25*
21,1,0.600,0.850,0,0,270.0*
21,1,0.450,1.000,0,0,270.0*
1,1,0.150,-0.425,-0.225*
1,1,0.150,-0.425,0.225*
1,1,0.150,0.425,0.225*
1,1,0.150,0.425,-0.225*
%
%ADD25ROUNDEDRECTD25*%
G04:AMPARAMS|DCode=26|XSize=0.92mm|YSize=1.08mm|CornerRadius=0.115mm|HoleSize=0mm|Usage=FLASHONLY|Rotation=90.000|XOffset=0mm|YOffset=0mm|HoleType=Round|Shape=RoundedRectangle|*
%AMROUNDEDRECTD26*
21,1,0.920,0.850,0,0,90.0*
21,1,0.690,1.080,0,0,90.0*
1,1,0.230,0.425,0.345*
1,1,0.230,0.425,-0.345*
1,1,0.230,-0.425,-0.345*
1,1,0.230,-0.425,0.345*
%
%ADD26ROUNDEDRECTD26*%
G04:AMPARAMS|DCode=27|XSize=2.8mm|YSize=1.25mm|CornerRadius=0.156mm|HoleSize=0mm|Usage=FLASHONLY|Rotation=270.000|XOffset=0mm|YOffset=0mm|HoleType=Round|Shape=RoundedRectangle|*
%AMROUNDEDRECTD27*
21,1,2.800,0.938,0,0,270.0*
21,1,2.487,1.250,0,0,270.0*
1,1,0.313,-0.469,-1.244*
1,1,0.313,-0.469,1.244*
1,1,0.313,0.469,1.244*
1,1,0.313,0.469,-1.244*
%
%ADD27ROUNDEDRECTD27*%
G04:AMPARAMS|DCode=28|XSize=0.94mm|YSize=1.03mm|CornerRadius=0.118mm|HoleSize=0mm|Usage=FLASHONLY|Rotation=90.000|XOffset=0mm|YOffset=0mm|HoleType=Round|Shape=RoundedRectangle|*
%AMROUNDEDRECTD28*
21,1,0.940,0.795,0,0,90.0*
21,1,0.705,1.030,0,0,90.0*
1,1,0.235,0.398,0.353*
1,1,0.235,0.398,-0.353*
1,1,0.235,-0.398,-0.353*
1,1,0.235,-0.398,0.353*
%
%ADD28ROUNDEDRECTD28*%
G04:AMPARAMS|DCode=29|XSize=0.87mm|YSize=1.2mm|CornerRadius=0.217mm|HoleSize=0mm|Usage=FLASHONLY|Rotation=270.000|XOffset=0mm|YOffset=0mm|HoleType=Round|Shape=RoundedRectangle|*
%AMROUNDEDRECTD29*
21,1,0.870,0.765,0,0,270.0*
21,1,0.435,1.200,0,0,270.0*
1,1,0.435,-0.383,-0.217*
1,1,0.435,-0.383,0.217*
1,1,0.435,0.383,0.217*
1,1,0.435,0.383,-0.217*
%
%ADD29ROUNDEDRECTD29*%
G04:AMPARAMS|DCode=30|XSize=0.6mm|YSize=1.05mm|CornerRadius=0.075mm|HoleSize=0mm|Usage=FLASHONLY|Rotation=90.000|XOffset=0mm|YOffset=0mm|HoleType=Round|Shape=RoundedRectangle|*
%AMROUNDEDRECTD30*
21,1,0.600,0.900,0,0,90.0*
21,1,0.450,1.050,0,0,90.0*
1,1,0.150,0.450,0.225*
1,1,0.150,0.450,-0.225*
1,1,0.150,-0.450,-0.225*
1,1,0.150,-0.450,0.225*
%
%ADD30ROUNDEDRECTD30*%
G04:AMPARAMS|DCode=31|XSize=2.743mm|YSize=2.159mm|CornerRadius=0.27mm|HoleSize=0mm|Usage=FLASHONLY|Rotation=180.000|XOffset=0mm|YOffset=0mm|HoleType=Round|Shape=RoundedRectangle|*
%AMROUNDEDRECTD31*
21,1,2.743,1.619,0,0,180.0*
21,1,2.203,2.159,0,0,180.0*
1,1,0.540,-1.102,0.810*
1,1,0.540,1.102,0.810*
1,1,0.540,1.102,-0.810*
1,1,0.540,-1.102,-0.810*
%
%ADD31ROUNDEDRECTD31*%
G04:AMPARAMS|DCode=32|XSize=10mm|YSize=3.6mm|CornerRadius=0.9mm|HoleSize=0mm|Usage=FLASHONLY|Rotation=90.000|XOffset=0mm|YOffset=0mm|HoleType=Round|Shape=RoundedRectangle|*
%AMROUNDEDRECTD32*
21,1,10.000,1.800,0,0,90.0*
21,1,8.200,3.600,0,0,90.0*
1,1,1.800,0.900,4.100*
1,1,1.800,0.900,-4.100*
1,1,1.800,-0.900,-4.100*
1,1,1.800,-0.900,4.100*
%
%ADD32ROUNDEDRECTD32*%
G04:AMPARAMS|DCode=33|XSize=3.14mm|YSize=1.54mm|CornerRadius=0.193mm|HoleSize=0mm|Usage=FLASHONLY|Rotation=90.000|XOffset=0mm|YOffset=0mm|HoleType=Round|Shape=RoundedRectangle|*
%AMROUNDEDRECTD33*
21,1,3.140,1.155,0,0,90.0*
21,1,2.755,1.540,0,0,90.0*
1,1,0.385,0.578,1.378*
1,1,0.385,0.578,-1.378*
1,1,0.385,-0.578,-1.378*
1,1,0.385,-0.578,1.378*
%
%ADD33ROUNDEDRECTD33*%
G04:AMPARAMS|DCode=34|XSize=0.802mm|YSize=1.505mm|CornerRadius=0.1mm|HoleSize=0mm|Usage=FLASHONLY|Rotation=0.000|XOffset=0mm|YOffset=0mm|HoleType=Round|Shape=RoundedRectangle|*
%AMROUNDEDRECTD34*
21,1,0.802,1.305,0,0,0.0*
21,1,0.602,1.505,0,0,0.0*
1,1,0.201,0.301,-0.652*
1,1,0.201,-0.301,-0.652*
1,1,0.201,-0.301,0.652*
1,1,0.201,0.301,0.652*
%
%ADD34ROUNDEDRECTD34*%
G04:AMPARAMS|DCode=35|XSize=2.613mm|YSize=3.502mm|CornerRadius=0.327mm|HoleSize=0mm|Usage=FLASHONLY|Rotation=270.000|XOffset=0mm|YOffset=0mm|HoleType=Round|Shape=RoundedRectangle|*
%AMROUNDEDRECTD35*
21,1,2.613,2.849,0,0,270.0*
21,1,1.960,3.502,0,0,270.0*
1,1,0.653,-1.424,-0.980*
1,1,0.653,-1.424,0.980*
1,1,0.653,1.424,0.980*
1,1,0.653,1.424,-0.980*
%
%ADD35ROUNDEDRECTD35*%
G04:AMPARAMS|DCode=36|XSize=1mm|YSize=1.4mm|CornerRadius=0.125mm|HoleSize=0mm|Usage=FLASHONLY|Rotation=270.000|XOffset=0mm|YOffset=0mm|HoleType=Round|Shape=RoundedRectangle|*
%AMROUNDEDRECTD36*
21,1,1.000,1.150,0,0,270.0*
21,1,0.750,1.400,0,0,270.0*
1,1,0.250,-0.575,-0.375*
1,1,0.250,-0.575,0.375*
1,1,0.250,0.575,0.375*
1,1,0.250,0.575,-0.375*
%
%ADD36ROUNDEDRECTD36*%
G04:AMPARAMS|DCode=37|XSize=1.3mm|YSize=3.5mm|CornerRadius=0.163mm|HoleSize=0mm|Usage=FLASHONLY|Rotation=0.000|XOffset=0mm|YOffset=0mm|HoleType=Round|Shape=RoundedRectangle|*
%AMROUNDEDRECTD37*
21,1,1.300,3.175,0,0,0.0*
21,1,0.975,3.500,0,0,0.0*
1,1,0.325,0.488,-1.588*
1,1,0.325,-0.488,-1.588*
1,1,0.325,-0.488,1.588*
1,1,0.325,0.488,1.588*
%
%ADD37ROUNDEDRECTD37*%
G04:AMPARAMS|DCode=38|XSize=2.743mm|YSize=2.159mm|CornerRadius=0.27mm|HoleSize=0mm|Usage=FLASHONLY|Rotation=270.000|XOffset=0mm|YOffset=0mm|HoleType=Round|Shape=RoundedRectangle|*
%AMROUNDEDRECTD38*
21,1,2.743,1.619,0,0,270.0*
21,1,2.203,2.159,0,0,270.0*
1,1,0.540,-0.810,-1.102*
1,1,0.540,-0.810,1.102*
1,1,0.540,0.810,1.102*
1,1,0.540,0.810,-1.102*
%
%ADD38ROUNDEDRECTD38*%
%ADD72C,0.190*%
%ADD73C,0.800*%
%ADD74C,1.000*%
%ADD75C,1.000*%
%ADD76C,0.300*%
%ADD77C,0.508*%
%ADD78C,2.000*%
%ADD79C,2.300*%
%ADD80C,3.316*%
%ADD81C,1.428*%
%ADD82R,1.428X1.428*%
%ADD83C,1.600*%
%ADD84R,1.600X1.600*%
%ADD85C,1.500*%
%ADD86C,2.400*%
%ADD87R,2.400X2.400*%
%ADD88C,0.700*%
G36*
X31050Y-439D02*
X31165Y-416D01*
X31273Y-344D01*
X31377Y-382D01*
X31400Y-400D01*
Y-4034D01*
X31400Y-4034D01*
Y-4107D01*
X31358Y-4247D01*
X31277Y-4368D01*
X31164Y-4460D01*
X31029Y-4516D01*
X30885Y-4530D01*
X30742Y-4502D01*
X30613Y-4433D01*
X29454Y-3274D01*
X29330Y-3088D01*
X29244Y-2880D01*
X29200Y-2660D01*
Y-1593D01*
X29200Y-1515D01*
X29231Y-1361D01*
X29291Y-1215D01*
X29378Y-1085D01*
X30082Y-381D01*
X30135Y-416D01*
X30250Y-439D01*
Y375D01*
X31050D01*
Y-439D01*
D02*
G37*
G36*
X19921Y1500D02*
X22233Y1500D01*
X22233Y1500D01*
X22233Y1500D01*
X22233D01*
X22350Y1488D01*
X22484Y1432D01*
X22609Y1308D01*
X22676Y1145D01*
X22676Y1056D01*
X22676Y-1770D01*
X22676Y-1770D01*
X22676Y-1890D01*
X22585Y-2111D01*
X22415Y-2281D01*
X22194Y-2373D01*
X22074Y-2373D01*
X20072D01*
X19948Y-2373D01*
X19717Y-2277D01*
X19541Y-2101D01*
X19445Y-1870D01*
X19445Y-1745D01*
Y1024D01*
X19457Y1146D01*
X19518Y1294D01*
X19651Y1428D01*
X19826Y1500D01*
X19921Y1500D01*
D02*
G37*
G36*
X-38495Y-14744D02*
X-38495Y-14744D01*
X-38376Y-14762D01*
X-38274Y-14804D01*
X-38165Y-14914D01*
X-38105Y-15057D01*
X-38105Y-15135D01*
X-38105Y-17659D01*
X-38105Y-17659D01*
X-38105Y-17736D01*
X-38164Y-17878D01*
X-38273Y-17987D01*
X-38416Y-18046D01*
X-38493Y-18046D01*
X-43141D01*
X-43241Y-17924D01*
X-44060D01*
X-44878D01*
X-44979Y-18046D01*
X-45723D01*
X-45850Y-17994D01*
X-45947Y-17896D01*
X-46000Y-17769D01*
Y-15029D01*
X-45946Y-14899D01*
X-45846Y-14799D01*
X-45715Y-14744D01*
X-45015D01*
X-44918Y-14871D01*
X-44922Y-14892D01*
X-44085D01*
X-43247D01*
X-43252Y-14871D01*
X-43155Y-14744D01*
X-38495D01*
X-38495Y-14744D01*
D02*
G37*
G36*
X-19598Y-12500D02*
X-16600Y-12500D01*
X-16600Y-12500D01*
X-16600Y-12500D01*
X-16600D01*
X-16482Y-12510D01*
X-16407Y-12525D01*
X-16287Y-12575D01*
X-16178Y-12648D01*
X-16086Y-12740D01*
X-16014Y-12848D01*
X-15964Y-12968D01*
X-15939Y-13096D01*
X-15939Y-13161D01*
X-15939Y-15897D01*
X-20200D01*
Y-13222D01*
X-20200Y-13102D01*
X-20200Y-13102D01*
X-20200Y-13102D01*
X-20200Y-12983D01*
X-20108Y-12761D01*
X-19939Y-12592D01*
X-19717Y-12500D01*
X-19598Y-12500D01*
D02*
G37*
G36*
X-24471Y-17795D02*
X-24482Y-17853D01*
Y-17922D01*
X-22773D01*
Y-18322D01*
X-22373D01*
Y-19256D01*
X-21530D01*
X-21352Y-19220D01*
X-21236Y-19143D01*
X-21120Y-19220D01*
X-20942Y-19256D01*
X-20099D01*
Y-18322D01*
X-19299D01*
Y-19256D01*
X-18455D01*
X-18277Y-19220D01*
X-18161Y-19143D01*
X-18046Y-19220D01*
X-17868Y-19256D01*
X-17024D01*
Y-18322D01*
X-16224D01*
Y-19256D01*
X-15427D01*
X-15300Y-19350D01*
X-15300Y-19496D01*
X-15349Y-19743D01*
X-15446Y-19976D01*
X-15585Y-20185D01*
X-15675Y-20275D01*
X-15675Y-20275D01*
X-15675Y-20275D01*
X-16340Y-20940D01*
X-16449Y-21049D01*
X-16707Y-21221D01*
X-16993Y-21340D01*
X-17296Y-21400D01*
X-17451Y-21400D01*
Y-21400D01*
X-17451Y-21400D01*
Y-21400D01*
X-22117Y-21400D01*
X-22160Y-21402D01*
X-22245Y-21419D01*
X-22325Y-21452D01*
X-22397Y-21500D01*
X-22429Y-21529D01*
X-22429Y-21529D01*
X-22429Y-21529D01*
X-22856Y-21956D01*
X-22914Y-22014D01*
X-23050Y-22105D01*
X-23202Y-22168D01*
X-23363Y-22200D01*
X-23445Y-22200D01*
X-27545D01*
Y-21763D01*
X-28624D01*
Y-21363D01*
X-29024D01*
Y-19483D01*
X-29202D01*
X-29202Y-19483D01*
Y-19029D01*
X-29173Y-18885D01*
X-29117Y-18750D01*
X-29036Y-18628D01*
X-28933Y-18525D01*
X-28811Y-18444D01*
X-28676Y-18388D01*
X-28532Y-18359D01*
X-28459D01*
X-28459Y-18359D01*
X-25829D01*
X-25713Y-18353D01*
X-25485Y-18308D01*
X-25270Y-18219D01*
X-25077Y-18090D01*
X-24990Y-18012D01*
X-24990Y-18012D01*
X-24676Y-17697D01*
X-24676D01*
X-24676Y-17697D01*
X-24676Y-17697D01*
X-24551D01*
X-24471Y-17795D01*
D02*
G37*
G36*
X-35058Y-7473D02*
X-31638Y-7473D01*
X-31638Y-7473D01*
X-31638Y-7473D01*
X-31509Y-7473D01*
X-31273Y-7571D01*
X-31091Y-7752D01*
X-30993Y-7989D01*
X-30993Y-8117D01*
X-30993Y-16709D01*
Y-19322D01*
X-30993Y-19322D01*
X-30993Y-19452D01*
X-31019Y-19711D01*
X-31070Y-19967D01*
X-31145Y-20216D01*
X-31245Y-20457D01*
X-31368Y-20686D01*
X-31512Y-20903D01*
X-31678Y-21104D01*
X-31770Y-21196D01*
X-33810Y-23236D01*
X-33810D01*
X-33911Y-23338D01*
X-34149Y-23497D01*
X-34414Y-23607D01*
X-34695Y-23662D01*
X-35814D01*
X-36101Y-23605D01*
X-36371Y-23493D01*
X-36615Y-23331D01*
X-38481Y-21464D01*
X-38481Y-21464D01*
X-38577Y-21369D01*
X-38726Y-21145D01*
X-38829Y-20897D01*
X-38881Y-20634D01*
X-38881Y-20499D01*
Y-20276D01*
X-38811Y-20219D01*
Y-19120D01*
X-38411D01*
Y-18720D01*
X-37702D01*
Y-18468D01*
X-37733Y-18312D01*
X-37708Y-18229D01*
X-37577Y-18175D01*
X-37416Y-18015D01*
X-37379Y-17927D01*
X-37356Y-17913D01*
X-37227Y-17891D01*
X-37132Y-17954D01*
X-36972Y-17986D01*
Y-17208D01*
X-36572D01*
Y-16808D01*
X-35758D01*
X-35781Y-16692D01*
X-35840Y-16605D01*
X-35752Y-16517D01*
X-35701Y-16395D01*
X-35688Y-16362D01*
X-35679Y-16278D01*
X-35679Y-16278D01*
X-35679Y-16160D01*
X-35679Y-8095D01*
X-35679Y-8095D01*
X-35679Y-8095D01*
X-35679Y-7971D01*
X-35585Y-7743D01*
X-35410Y-7568D01*
X-35181Y-7473D01*
X-35058Y-7473D01*
D02*
G37*
G36*
X12843Y-15400D02*
Y-15400D01*
X12965Y-15400D01*
X13190Y-15493D01*
X13363Y-15666D01*
X13456Y-15891D01*
X13456Y-16013D01*
X13456Y-18660D01*
X13456Y-18660D01*
X13456Y-18725D01*
X13431Y-18853D01*
X13381Y-18973D01*
X13309Y-19081D01*
X13216Y-19174D01*
X13108Y-19246D01*
X12988Y-19296D01*
X12860Y-19321D01*
X12795Y-19321D01*
X11346D01*
Y-19100D01*
X10412D01*
Y-18300D01*
X11346D01*
Y-17456D01*
X11310Y-17278D01*
X11209Y-17127D01*
X11059Y-17026D01*
X10881Y-16991D01*
X10059D01*
Y-16855D01*
X11254D01*
X11432Y-16820D01*
X11583Y-16719D01*
X11684Y-16568D01*
X11719Y-16390D01*
Y-16322D01*
X10011D01*
Y-15522D01*
X11719D01*
Y-15453D01*
X11763Y-15400D01*
X12843D01*
X12843Y-15400D01*
D02*
G37*
%LPC*%
G36*
X-38891Y-14953D02*
X-39300D01*
Y-15379D01*
X-38436D01*
X-38464Y-15238D01*
X-38564Y-15088D01*
X-38714Y-14988D01*
X-38891Y-14953D01*
D02*
G37*
G36*
X-41332D02*
X-41740D01*
X-41917Y-14988D01*
X-42067Y-15088D01*
X-42168Y-15238D01*
X-42196Y-15379D01*
X-41332D01*
Y-14953D01*
D02*
G37*
G36*
X-43247Y-15692D02*
X-43685D01*
Y-16060D01*
X-43660D01*
X-43498Y-16028D01*
X-43360Y-15936D01*
X-43269Y-15799D01*
X-43247Y-15692D01*
D02*
G37*
G36*
X-44485D02*
X-44922D01*
X-44901Y-15799D01*
X-44809Y-15936D01*
X-44672Y-16028D01*
X-44510Y-16060D01*
X-44485D01*
Y-15692D01*
D02*
G37*
G36*
X-43660Y-16746D02*
Y-17124D01*
X-43246D01*
X-43269Y-17009D01*
X-43361Y-16871D01*
X-43499Y-16778D01*
X-43660Y-16746D01*
D02*
G37*
G36*
X-44460D02*
X-44620Y-16778D01*
X-44758Y-16871D01*
X-44850Y-17009D01*
X-44873Y-17124D01*
X-44460D01*
Y-16746D01*
D02*
G37*
G36*
X-38436Y-17411D02*
X-39300D01*
Y-17838D01*
X-38891D01*
X-38714Y-17803D01*
X-38564Y-17702D01*
X-38464Y-17552D01*
X-38436Y-17411D01*
D02*
G37*
G36*
X-41332D02*
X-42196D01*
X-42168Y-17552D01*
X-42067Y-17702D01*
X-41917Y-17803D01*
X-41740Y-17838D01*
X-41332D01*
Y-17411D01*
D02*
G37*
G36*
X-23173Y-18722D02*
X-24482D01*
Y-18791D01*
X-24447Y-18969D01*
X-24346Y-19120D01*
X-24195Y-19220D01*
X-24017Y-19256D01*
X-23173D01*
Y-18722D01*
D02*
G37*
G36*
X-28047Y-19483D02*
X-28224D01*
Y-20963D01*
X-27545D01*
Y-19986D01*
X-27583Y-19793D01*
X-27692Y-19631D01*
X-27855Y-19522D01*
X-28047Y-19483D01*
D02*
G37*
G36*
X-35758Y-17608D02*
X-36172D01*
Y-17986D01*
X-36012Y-17954D01*
X-35874Y-17861D01*
X-35781Y-17723D01*
X-35758Y-17608D01*
D02*
G37*
G36*
X-37702Y-19520D02*
X-38011D01*
Y-20161D01*
X-37954Y-20150D01*
X-37822Y-20061D01*
X-37733Y-19929D01*
X-37702Y-19773D01*
Y-19520D01*
D02*
G37*
G36*
X-34697Y-19483D02*
X-34874D01*
Y-20963D01*
X-34195D01*
Y-19986D01*
X-34233Y-19793D01*
X-34342Y-19631D01*
X-34505Y-19522D01*
X-34697Y-19483D01*
D02*
G37*
G36*
X-35674D02*
X-35852D01*
X-36044Y-19522D01*
X-36207Y-19631D01*
X-36316Y-19793D01*
X-36354Y-19986D01*
Y-20963D01*
X-35674D01*
Y-19483D01*
D02*
G37*
G36*
X-34195Y-21763D02*
X-34874D01*
Y-23243D01*
X-34697D01*
X-34505Y-23205D01*
X-34342Y-23096D01*
X-34233Y-22933D01*
X-34195Y-22741D01*
Y-21763D01*
D02*
G37*
G36*
X-35674D02*
X-36354D01*
Y-22741D01*
X-36316Y-22933D01*
X-36207Y-23096D01*
X-36044Y-23205D01*
X-35852Y-23243D01*
X-35674D01*
Y-21763D01*
D02*
G37*
%LPD*%
D10*
X30875Y3000D02*
G03*
X30650Y2457I543J-543D01*
G01*
X23723Y350D02*
G03*
X23877Y196I154J0D01*
G01*
X21100Y575D02*
G03*
X21643Y350I543J543D01*
G01*
X30650Y2246D02*
Y2457D01*
X-19372Y-24596D02*
X-17252D01*
X10011Y-12797D02*
X12359D01*
X4579D02*
X6927D01*
X23723Y1950D02*
Y3350D01*
X-47992Y-24589D02*
X-45957D01*
X3082Y-14299D02*
X4446D01*
X41251Y-35300D02*
X44851Y-31700D01*
Y-28341D01*
X26057Y1146D02*
X26982D01*
X27433Y695D01*
X27444D01*
X33925Y3000D02*
X35425D01*
X33850D02*
X33925D01*
X24969Y196D02*
X26057D01*
X32250Y375D02*
X33650D01*
X30650D02*
Y2246D01*
X30500Y2096D02*
X30650Y2246D01*
X28807Y2096D02*
X30500D01*
X26010Y2049D02*
X26057Y2096D01*
X25262Y2049D02*
X26010D01*
X24969Y196D02*
Y1756D01*
X25262Y2049D01*
X23877Y196D02*
X24969D01*
X21643Y350D02*
X23723D01*
X21100Y3625D02*
Y5200D01*
X-26002Y-28476D02*
X-25866Y-28341D01*
X5994Y-18700D02*
X7358D01*
X-20651Y-35300D02*
X-20465D01*
X-19387Y-34222D02*
Y-28341D01*
X-20465Y-35300D02*
X-19387Y-34222D01*
X-42092Y-24786D02*
Y-23422D01*
X-43985Y-23600D02*
X-43890Y-23504D01*
X-44578D02*
X-43890D01*
X-42980Y-8401D02*
Y-7037D01*
X-27746Y-24774D02*
X-26060D01*
X-28630Y-25658D02*
X-27746Y-24774D01*
X-25651Y-35300D02*
Y-28476D01*
X-45654Y-24581D02*
X-44578Y-23504D01*
X-45957Y-24581D02*
X-45654D01*
X-37868Y-24593D02*
X-36313D01*
X-36313Y-24592D01*
X-38411Y-13670D02*
X-37223D01*
X-36572Y-15608D02*
Y-14321D01*
X-37223Y-13670D02*
X-36572Y-14321D01*
X-34217Y-6263D02*
X-32614D01*
X-31014D02*
X-29248D01*
X26251Y-35300D02*
Y-28341D01*
X45867Y-23640D02*
Y-22648D01*
X44851Y-24581D02*
X45867Y-23640D01*
X43900Y-23701D02*
Y-22667D01*
Y-23701D02*
X44851Y-24581D01*
X27267Y-23640D02*
Y-22648D01*
X26251Y-24581D02*
X27267Y-23640D01*
X25300Y-23701D02*
Y-22667D01*
Y-23701D02*
X26251Y-24581D01*
X32927Y20666D02*
Y21755D01*
X36225Y25053D02*
Y26390D01*
X32927Y21755D02*
X36225Y25053D01*
X32788Y20527D02*
X32927Y20666D01*
X34539Y20653D02*
X34660Y20533D01*
X34539Y20653D02*
X34552Y20666D01*
X36353D01*
X34660Y18138D02*
Y20533D01*
X32788Y18082D02*
Y20527D01*
X32482Y17776D02*
X32788Y18082D01*
X34660Y18138D02*
X35022Y17776D01*
X36353Y20701D02*
X36365Y20713D01*
X42013Y20527D02*
X42152Y20666D01*
X41819Y27226D02*
X42152Y26892D01*
Y20666D02*
Y26892D01*
X36225Y26390D02*
X37964Y28130D01*
X35651Y35300D02*
X38264Y32687D01*
Y28130D02*
Y32687D01*
X23565Y20579D02*
Y21931D01*
X23513Y20527D02*
X23565Y20579D01*
X21519Y23977D02*
X23565Y21931D01*
X21519Y23977D02*
Y27226D01*
X41819D02*
Y33083D01*
X43994Y35258D01*
X45502Y21218D02*
Y22549D01*
X45527Y22524D01*
X44950Y20666D02*
X45502Y21218D01*
X43752Y20666D02*
X44950D01*
X45609Y35258D02*
X45651Y35300D01*
X43994Y35258D02*
X45609D01*
X41707Y17776D02*
X42013Y18082D01*
Y20527D01*
X43885Y18138D02*
X44247Y17776D01*
X43885Y18138D02*
Y20533D01*
X43752Y20666D02*
X43885Y20533D01*
X21519Y27226D02*
Y29342D01*
X25651Y33474D01*
Y35300D01*
X25227Y20691D02*
Y22524D01*
X25202Y22549D02*
X25227Y22524D01*
Y20691D02*
X25252Y20666D01*
X25385Y20533D01*
Y18138D02*
Y20533D01*
Y18138D02*
X25747Y17776D01*
X23513Y18082D02*
Y20527D01*
X23207Y17776D02*
X23513Y18082D01*
D13*
X-22773Y-9875D02*
X-20325D01*
X-39681Y-19120D02*
Y-16395D01*
X-24300Y-24600D02*
X-23906Y-24994D01*
Y-25846D02*
Y-24994D01*
X-25866Y-24581D02*
X-25847Y-24600D01*
X-24300D01*
X-40316Y-16395D02*
X-39681D01*
D14*
X41450Y-13641D02*
G03*
X39654Y-12897I-1796J-1796D01*
G01*
X45413Y-14587D02*
G03*
X43815Y-13925I-1599J-1599D01*
G01*
X39833Y-12397D02*
G03*
X40550Y-12100I0J1015D01*
G01*
X43158Y-10910D02*
G03*
X44954Y-10166I0J2540D01*
G01*
X17194Y-6206D02*
G03*
X17200Y-6200I-356J368D01*
G01*
X-4462Y-6353D02*
G03*
X-4100Y-6203I0J512D01*
G01*
X-10197Y-12197D02*
X-9511D01*
X-10403Y-12403D02*
X-10197Y-12197D01*
X25282Y-15483D02*
Y-14363D01*
Y-15483D02*
X25283Y-15484D01*
X26016D01*
X12744Y-21700D02*
X13483D01*
X13901Y-24967D02*
Y-22118D01*
X13790Y-21290D02*
X14154Y-21654D01*
X14997D01*
X13790Y-21290D02*
Y-20166D01*
X13483Y-21700D02*
X13901Y-22118D01*
X13413Y-25455D02*
X13901Y-24967D01*
X18095Y-23797D02*
X18095Y-23797D01*
X18095Y-25027D02*
Y-23797D01*
X21669Y-27941D02*
Y-25061D01*
X25105Y-21624D02*
X30116D01*
X21669Y-25061D02*
X25105Y-21624D01*
X-12903Y-13096D02*
X-12423Y-13576D01*
X-12903Y-13096D02*
Y-12197D01*
X1535D02*
X2903D01*
X-65D02*
Y-11418D01*
X194Y-11158D01*
X-354Y-16002D02*
X387Y-15262D01*
X-65Y-12940D02*
X387Y-13392D01*
Y-15262D02*
Y-13392D01*
X-65Y-12940D02*
Y-12197D01*
X-11153Y-15614D02*
X-10758D01*
X-11692Y-15075D02*
X-11153Y-15614D01*
X-11692Y-15075D02*
Y-13439D01*
X-11264Y-13011D01*
X-10263Y-17167D02*
Y-16109D01*
X-10758Y-15614D02*
X-10263Y-16109D01*
X-13192Y-17887D02*
X-10983D01*
X-10263Y-17167D01*
X26955Y-3700D02*
X28869D01*
X30291Y-7897D02*
Y-5123D01*
X28869Y-3700D02*
X30291Y-5123D01*
X28804Y-5889D02*
Y-4539D01*
X31291Y-7897D02*
Y-5574D01*
X28624Y-2907D02*
Y-1202D01*
Y-2907D02*
X31291Y-5574D01*
X25200Y-5455D02*
X26955Y-3700D01*
X27213Y-5898D02*
Y-4548D01*
X33141Y-21820D02*
Y-17724D01*
X32791Y-17374D02*
Y-16397D01*
Y-17374D02*
X33141Y-17724D01*
X33528Y-22919D02*
Y-17528D01*
X33478Y-23283D02*
Y-22969D01*
X33325Y-23436D02*
X33478Y-23283D01*
Y-22969D02*
X33528Y-22919D01*
X33291Y-17291D02*
X33528Y-17528D01*
X33291Y-17291D02*
Y-16397D01*
X31525Y-23436D02*
X33141Y-21820D01*
X34274Y-7880D02*
X34291Y-7897D01*
X34274Y-7880D02*
Y-7280D01*
X35155Y-5608D02*
X35308Y-5455D01*
X33791Y-6578D02*
X34761Y-5608D01*
X35155D01*
X33791Y-7897D02*
Y-6578D01*
X34274Y-7280D02*
X34904Y-6651D01*
X33341Y-7847D02*
Y-5564D01*
X33291Y-7897D02*
X33341Y-7847D01*
Y-5564D02*
X33450Y-5455D01*
X26603Y-14897D02*
X27291D01*
X26016Y-15484D02*
X26603Y-14897D01*
X27350Y-18122D02*
X28650D01*
X29291Y-17481D02*
Y-16397D01*
X28650Y-18122D02*
X29291Y-17481D01*
X26291Y-19180D02*
X27350Y-18122D01*
X28222Y-19180D02*
X30283Y-17119D01*
Y-16405D02*
X30291Y-16397D01*
X28096Y-19180D02*
X28222D01*
X30283Y-17119D02*
Y-16405D01*
X29900Y-19180D02*
Y-18100D01*
X30791Y-17209D01*
X30800Y-18379D02*
Y-17748D01*
X31281Y-17267D01*
X30791Y-17209D02*
Y-16397D01*
X30800Y-18379D02*
X31791Y-17388D01*
Y-16397D01*
X30800Y-20941D02*
Y-18379D01*
X31281Y-17267D02*
Y-16408D01*
X30116Y-21624D02*
X30800Y-20941D01*
X22379Y-10890D02*
X23742D01*
X25249Y-12397D02*
X27291D01*
X23742Y-10890D02*
X25249Y-12397D01*
X-12536Y-8936D02*
X22424D01*
X25385Y-11897D02*
X27291D01*
X22424Y-8936D02*
X25385Y-11897D01*
X-12825Y-8479D02*
X22658D01*
X25576Y-11397D02*
X27291D01*
X22658Y-8479D02*
X25576Y-11397D01*
X22883Y-8002D02*
X25779Y-10897D01*
X-24071Y-8002D02*
X22883D01*
X25779Y-10897D02*
X27291D01*
X-14390Y-7543D02*
X23182D01*
X26037Y-10397D01*
X27291D01*
X5241Y-7093D02*
X23401D01*
X26206Y-9897D02*
X27291D01*
X23401Y-7093D02*
X26206Y-9897D01*
X21245Y-6627D02*
X23660D01*
X26430Y-9397D02*
X27291D01*
X23660Y-6627D02*
X26430Y-9397D01*
X29791Y-9188D02*
Y-7897D01*
X32791Y-9188D02*
Y-7897D01*
X28894Y-9188D02*
X29291Y-8791D01*
Y-7897D01*
X33788Y-15106D02*
X33791D01*
Y-16397D02*
Y-15106D01*
X29791Y-15076D02*
X34450Y-10417D01*
X34470D01*
X28791Y-16397D02*
Y-15078D01*
X36592Y-7277D01*
X38999D01*
X28555Y-13500D02*
X29790D01*
X37913Y-5377D01*
X38999D01*
X29791Y-16397D02*
Y-15076D01*
X34403Y-11397D02*
X35791D01*
X34400Y-11400D02*
X34403Y-11397D01*
X37799Y-10910D02*
X37807Y-10918D01*
X37786Y-10897D02*
X37799Y-10910D01*
X21656Y-12456D02*
X22345D01*
X21000Y-11800D02*
X21656Y-12456D01*
X22345D02*
X22379Y-12490D01*
X37805Y-9316D02*
X39071D01*
X37799Y-9310D02*
X37805Y-9316D01*
X35791Y-9397D02*
X35803Y-9386D01*
X36510D02*
X36627Y-9268D01*
Y-8437D01*
X35803Y-9386D02*
X36510D01*
X16685Y-13585D02*
X20239D01*
X13798Y-10698D02*
X16685Y-13585D01*
X13559Y-11158D02*
X16935Y-14535D01*
X20198D01*
X194Y-11158D02*
X13559D01*
X-4827Y-9816D02*
X15629D01*
X-5700Y-10689D02*
X-4827Y-9816D01*
X15629D02*
X16574Y-10761D01*
X14246Y-10246D02*
X16600Y-12600D01*
X-4528Y-10246D02*
X14246D01*
X-5216Y-10934D02*
X-4528Y-10246D01*
X-1336Y-10698D02*
X13798D01*
X-1899Y-11261D02*
X-1336Y-10698D01*
X41707Y10271D02*
Y10831D01*
X32493Y10279D02*
Y10839D01*
X23207Y10271D02*
Y10831D01*
X17200Y-4600D02*
Y-3372D01*
X30791Y-9188D02*
Y-7897D01*
X27291Y-14397D02*
X28582D01*
X32304Y-21184D02*
Y-19984D01*
Y-21248D02*
Y-21184D01*
X-4113Y-4590D02*
X-4100Y-4603D01*
X-39653Y-8100D02*
X-38425D01*
X-1899Y-12197D02*
Y-11261D01*
X16574Y-10761D02*
X17350D01*
X-6200Y-10563D02*
X-4999Y-9362D01*
X19972D01*
X21501Y-10890D01*
X-14541Y-10941D02*
X-12536Y-8936D01*
X-14905Y-10559D02*
X-12825Y-8479D01*
X-26810Y-5263D02*
X-24071Y-8002D01*
X-15900Y-6033D02*
X-14390Y-7543D01*
X1649Y-3500D02*
X5241Y-7093D01*
X20400Y-5782D02*
X21245Y-6627D01*
X20400Y-5782D02*
Y-3850D01*
X17200Y-6206D02*
X19100D01*
X18950Y-12600D02*
X20239D01*
X18950Y-10761D02*
X20239D01*
X21501Y-10890D02*
X22379D01*
X21669Y-27941D02*
X22105Y-28377D01*
X23050D01*
X31281Y-16408D02*
X31291Y-16397D01*
X41300Y-5377D02*
Y-4600D01*
Y-5377D02*
X43823D01*
X41299D02*
X41300D01*
X40200Y-7000D02*
Y-4379D01*
X40604Y-3976D02*
X42706D01*
X40200Y-4379D02*
X40604Y-3976D01*
X42706D02*
X43940Y-2742D01*
X30791Y-9188D02*
X30794D01*
X27291Y-13897D02*
X28157D01*
X28555Y-13500D01*
X28582Y-14397D02*
Y-14394D01*
X28624Y-1202D02*
X29654Y-172D01*
Y762D01*
X22747Y7661D02*
X23702D01*
X36953Y-4193D02*
X37566Y-3580D01*
Y-1885D02*
X38162Y-1288D01*
X37566Y-3580D02*
Y-1885D01*
X38162Y-1288D02*
X44488D01*
X36320Y-19D02*
X37407Y1068D01*
X36320Y-2742D02*
Y-19D01*
X37407Y1068D02*
X43947D01*
X41328Y5734D02*
X42198D01*
X33528Y-1072D02*
X34521D01*
X41328Y5734D01*
X35231Y-4193D02*
X36953D01*
X43823Y-5377D02*
X45200Y-4000D01*
Y-2000D01*
X44488Y-1288D02*
X45200Y-2000D01*
X33780Y-2742D02*
X35231Y-4193D01*
X40801Y3600D02*
X42173D01*
X32300Y-21180D02*
X32304Y-21184D01*
X45223Y-7277D02*
X48136Y-4364D01*
X47358Y2436D02*
X48136Y1659D01*
Y-4364D02*
Y1659D01*
X45836Y2436D02*
X47358D01*
X45549Y2723D02*
X45836Y2436D01*
X45549Y2723D02*
Y3600D01*
X47150D02*
Y4972D01*
X45549Y3600D02*
Y4389D01*
X45286Y4653D02*
X45549Y4389D01*
X44116Y4653D02*
X45286D01*
X43773Y4310D02*
X44116Y4653D01*
X43773Y3600D02*
Y4310D01*
Y1242D02*
X43947Y1068D01*
X43773Y1242D02*
Y3600D01*
X41485Y6509D02*
X42081D01*
X41194Y6800D02*
Y7344D01*
Y6800D02*
X41485Y6509D01*
X42081D02*
X42198Y6392D01*
Y5734D02*
Y6392D01*
X41194Y7344D02*
X41495Y7644D01*
X42202D01*
X34235Y-665D02*
X36700Y1800D01*
X35844Y4756D02*
X36700Y3900D01*
Y1800D02*
Y3900D01*
X33300Y-665D02*
X34235D01*
X31791Y-2174D02*
X33300Y-665D01*
X31791Y-7897D02*
Y-2174D01*
X41299Y-7277D02*
X45223D01*
X41299Y-6327D02*
X44404D01*
X46480Y-4251D01*
X40899Y-7492D02*
X41114Y-7277D01*
X41299D01*
X40899Y-7847D02*
Y-7492D01*
X40355Y-8391D02*
X40899Y-7847D01*
X40355Y-11017D02*
Y-8391D01*
X41734Y-9310D02*
X41750Y-9294D01*
Y-8114D01*
X37800Y-6600D02*
X38073Y-6327D01*
X38999D01*
X38860Y-5237D02*
X38999Y-5377D01*
X38860Y-5237D02*
Y-2742D01*
X39923Y-7277D02*
X40200Y-7000D01*
X38999Y-7277D02*
X39923D01*
X46480Y-4251D02*
Y-2742D01*
X24862Y4600D02*
X28260Y1202D01*
X29214D01*
X29654Y762D01*
X24068Y4600D02*
X24862D01*
X23698Y4970D02*
X24068Y4600D01*
X23698Y4970D02*
Y5734D01*
X22341Y6094D02*
Y7255D01*
X22747Y7661D01*
X22700Y5734D02*
X23698D01*
X22341Y6094D02*
X22700Y5734D01*
X32291Y-7897D02*
Y-2309D01*
X33528Y-1072D01*
X32033Y7669D02*
X32988D01*
X31986Y5742D02*
X32984D01*
X35791Y-11897D02*
X39475D01*
X40355Y-11017D01*
X41734Y-13925D02*
X43815D01*
X41450Y-13641D02*
X41734Y-13925D01*
X35791Y-12897D02*
X39654D01*
X36550Y-14400D02*
X37050Y-13900D01*
X37774D01*
X35791Y-14397D02*
X35794Y-14400D01*
X36550D01*
X37774Y-16850D02*
Y-15500D01*
X41734Y-16875D02*
Y-15525D01*
X35791Y-12397D02*
X39833D01*
X41734Y-10910D02*
X43158D01*
X40550Y-12100D02*
X41734Y-10916D01*
Y-10910D01*
X37807Y-10918D02*
X39102D01*
X35878Y-18405D02*
Y-17055D01*
Y-19755D02*
Y-18405D01*
X34278Y-19755D02*
Y-18405D01*
X34291Y-18392D01*
Y-16397D01*
X32291Y-18371D02*
Y-16397D01*
Y-18371D02*
X32300Y-18380D01*
X44954Y-10166D02*
X45413Y-9707D01*
X35791Y-10897D02*
X37786D01*
X28791Y-7897D02*
Y-5902D01*
X28804Y-5889D01*
X25283Y-18434D02*
Y-17084D01*
X16600Y-12600D02*
X17350D01*
X39600Y-26737D02*
Y-25400D01*
X37661Y-26737D02*
Y-25400D01*
X33039Y5036D02*
X33320Y4756D01*
X35844D01*
X33039Y5036D02*
Y5679D01*
X32984Y5734D02*
X33039Y5679D01*
X-22320Y-22162D02*
X-16816D01*
X-14905Y-20251D01*
X-22636Y-22478D02*
X-22320Y-22162D01*
X-22636Y-23363D02*
Y-22478D01*
X-10403Y-12843D02*
Y-12403D01*
Y-12843D02*
X-9676Y-13570D01*
Y-18314D02*
Y-13570D01*
X-7911Y-12197D02*
X-7197D01*
X-6977Y-11977D02*
Y-11300D01*
X-7197Y-12197D02*
X-6977Y-11977D01*
X-7681Y-13500D02*
X-6200Y-12019D01*
Y-10563D01*
X-4500Y-11945D02*
Y-11300D01*
Y-11945D02*
X-4249Y-12197D01*
X-3499D01*
X-5216Y-12043D02*
X-3712Y-13547D01*
Y-24765D02*
Y-13547D01*
X-5216Y-12043D02*
Y-10934D01*
X-5700Y-24767D02*
Y-10689D01*
X-7681Y-18281D02*
Y-13500D01*
X-4113Y-4590D02*
Y-3433D01*
X-19100Y-4603D02*
X-19097Y-4600D01*
Y-3449D01*
X19400Y-3497D02*
X20047D01*
X20400Y-3850D01*
X-14541Y-20532D02*
Y-10941D01*
X-14905Y-20251D02*
Y-10559D01*
X-16463Y-4600D02*
X-15900Y-5163D01*
Y-6033D02*
Y-5163D01*
X-17200Y-4600D02*
X-16463D01*
X-21451Y-6353D02*
X-19250D01*
X-19100Y-6203D01*
X-19100Y-7000D02*
Y-6353D01*
Y-6203D01*
Y-7000D02*
X-18900Y-7200D01*
X-17450D01*
X-17200Y-6950D01*
Y-6200D01*
X-354Y-25215D02*
Y-16002D01*
X318Y-25887D02*
X1808D01*
X-354Y-25215D02*
X318Y-25887D01*
X-1681Y-27988D02*
Y-12415D01*
X-1899Y-12197D02*
X-1681Y-12415D01*
Y-27988D02*
X218Y-29887D01*
X-8833D02*
X-3712Y-24765D01*
X-13192Y-29887D02*
X-8833D01*
X218D02*
X1808D01*
X-8820Y-27887D02*
X-5700Y-24767D01*
X-13192Y-27887D02*
X-8820D01*
X-13192Y-21887D02*
X-11287D01*
X-7681Y-18281D01*
X-11249Y-19887D02*
X-9676Y-18314D01*
X-13192Y-19887D02*
X-11249D01*
X-11264Y-13011D02*
Y-12235D01*
X-11303Y-12197D02*
X-11264Y-12235D01*
X17047Y-6353D02*
X17194Y-6206D01*
X17200Y-6200D02*
Y-6197D01*
X14751Y-6353D02*
X17047D01*
X19100Y-3797D02*
X19400Y-3497D01*
X19100Y-4597D02*
Y-3797D01*
X-1900Y-3500D02*
X1649D01*
X-2200Y-4600D02*
Y-3800D01*
X-1900Y-3500D01*
X-4100Y-6203D02*
Y-6200D01*
Y-7000D02*
Y-6203D01*
X-2200Y-6950D02*
Y-6200D01*
X-2450Y-7200D02*
X-2200Y-6950D01*
X-3900Y-7200D02*
X-2450D01*
X-4100Y-7000D02*
X-3900Y-7200D01*
X-6551Y-6353D02*
X-4462D01*
X-16156Y-26777D02*
Y-22147D01*
X-14541Y-20532D01*
X-37194Y-5263D02*
X-26810D01*
X-38274Y-6343D02*
X-37194Y-5263D01*
X-39670Y-6343D02*
X-38274D01*
X-40427Y-7100D02*
X-39670Y-6343D01*
X-40427Y-9990D02*
Y-7100D01*
Y-9990D02*
X-39317Y-11100D01*
X-37148D01*
X-36825Y-10776D01*
Y-10008D01*
X12155Y-25455D02*
X13413D01*
X-36825Y-8866D02*
Y-8100D01*
X-36497Y-6990D02*
Y-6407D01*
X-36825Y-8100D02*
Y-7317D01*
X-36497Y-6990D01*
X-36551Y-6353D02*
X-36497Y-6407D01*
X37378Y11183D02*
Y12555D01*
X35578Y9583D02*
X37378D01*
X35033Y10128D02*
X35578Y9583D01*
X34584Y5742D02*
X35956D01*
X36622Y7669D02*
X37378Y8425D01*
Y9583D01*
X34588Y7669D02*
X36622D01*
X31626Y6102D02*
X31986Y5742D01*
X31626Y7263D02*
X32033Y7669D01*
X31626Y6102D02*
Y7263D01*
X30966Y11385D02*
X31948D01*
Y9734D02*
X32493Y10279D01*
X30966Y9734D02*
X31948D01*
Y11385D02*
X32493Y10839D01*
X35033Y10128D02*
Y10559D01*
X43798Y5734D02*
X45170D01*
X46592Y11175D02*
Y12547D01*
X44247Y10120D02*
Y10551D01*
X44792Y9575D02*
X46592D01*
X44247Y10120D02*
X44792Y9575D01*
X45836Y7661D02*
X46592Y8417D01*
Y9575D01*
X43802Y7661D02*
X45836D01*
X40181Y11376D02*
X41162D01*
X41707Y10831D01*
X41162Y9726D02*
X41707Y10271D01*
X40181Y9726D02*
X41162D01*
X21681D02*
X22662D01*
X23207Y10271D01*
X22662Y11376D02*
X23207Y10831D01*
X21681Y11376D02*
X22662D01*
X25302Y7661D02*
X27336D01*
X28092Y8417D02*
Y9575D01*
X27336Y7661D02*
X28092Y8417D01*
X25747Y10120D02*
X26292Y9575D01*
X28092D01*
X25747Y10120D02*
Y10551D01*
X28092Y11175D02*
Y12547D01*
X-39339Y-10008D02*
X-38425D01*
X-39579Y-9768D02*
X-39339Y-10008D01*
X-39579Y-9768D02*
Y-9297D01*
X-39353Y-9071D01*
X-37030D01*
X-36825Y-8866D01*
X25298Y5734D02*
X26670D01*
D17*
X-22773Y-9875D02*
D03*
Y-12925D02*
D03*
Y-15272D02*
D03*
Y-18322D02*
D03*
X21100Y575D02*
D03*
Y3625D02*
D03*
X10011Y-12872D02*
D03*
Y-15922D02*
D03*
X6927Y-12872D02*
D03*
Y-15922D02*
D03*
X-19699Y-18322D02*
D03*
Y-15272D02*
D03*
X-16624Y-18322D02*
D03*
Y-15272D02*
D03*
X-42987Y-8408D02*
D03*
Y-11458D02*
D03*
X-42098Y-24793D02*
D03*
Y-27843D02*
D03*
D18*
X-10692Y-14387D02*
D03*
X-8692D02*
D03*
X-6692D02*
D03*
X-4692D02*
D03*
X-2692D02*
D03*
X-692D02*
D03*
D19*
X-13192Y-29887D02*
D03*
Y-27887D02*
D03*
Y-25887D02*
D03*
Y-23887D02*
D03*
Y-21887D02*
D03*
Y-19887D02*
D03*
Y-17887D02*
D03*
Y-15887D02*
D03*
X1808D02*
D03*
Y-17887D02*
D03*
Y-19887D02*
D03*
Y-21887D02*
D03*
Y-23887D02*
D03*
Y-25887D02*
D03*
Y-27887D02*
D03*
Y-29887D02*
D03*
D20*
X35791Y-14897D02*
D03*
Y-14397D02*
D03*
Y-13897D02*
D03*
Y-13397D02*
D03*
Y-12897D02*
D03*
Y-12397D02*
D03*
Y-11897D02*
D03*
Y-11397D02*
D03*
Y-10897D02*
D03*
Y-10397D02*
D03*
Y-9897D02*
D03*
Y-9397D02*
D03*
X27291D02*
D03*
Y-9897D02*
D03*
Y-10397D02*
D03*
Y-10897D02*
D03*
Y-11397D02*
D03*
Y-11897D02*
D03*
Y-12397D02*
D03*
Y-12897D02*
D03*
Y-13397D02*
D03*
Y-13897D02*
D03*
Y-14397D02*
D03*
Y-14897D02*
D03*
D21*
X34291Y-7897D02*
D03*
X33791D02*
D03*
X33291D02*
D03*
X32791D02*
D03*
X32291D02*
D03*
X31791D02*
D03*
X31291D02*
D03*
X30791D02*
D03*
X30291D02*
D03*
X29791D02*
D03*
X29291D02*
D03*
X28791D02*
D03*
Y-16397D02*
D03*
X29291D02*
D03*
X29791D02*
D03*
X30291D02*
D03*
X30791D02*
D03*
X31291D02*
D03*
X31791D02*
D03*
X32291D02*
D03*
X32791D02*
D03*
X33291D02*
D03*
X33791D02*
D03*
X34291D02*
D03*
D22*
X21498Y-20737D02*
D03*
X19898D02*
D03*
Y-22577D02*
D03*
X21498D02*
D03*
X18950Y-12600D02*
D03*
X17350D02*
D03*
X43802Y7644D02*
D03*
X42202D02*
D03*
X47149Y3600D02*
D03*
X45549D02*
D03*
X17350Y-10761D02*
D03*
X18950D02*
D03*
X-3499Y-12197D02*
D03*
X-1899D02*
D03*
X-9511D02*
D03*
X-7911D02*
D03*
X-12903D02*
D03*
X-11303D02*
D03*
X-65D02*
D03*
X1535D02*
D03*
X-44860Y-21147D02*
D03*
X-43260D02*
D03*
X-29248Y-6263D02*
D03*
X-27648D02*
D03*
X-32614D02*
D03*
X-31014D02*
D03*
X36353Y20666D02*
D03*
X37953D02*
D03*
X25302Y7644D02*
D03*
X23702D02*
D03*
X34588D02*
D03*
X32988D02*
D03*
X-38425Y-10008D02*
D03*
X-36825D02*
D03*
X-38425Y-8100D02*
D03*
X-36825D02*
D03*
D23*
X12703Y-21660D02*
D03*
X15003Y-22610D02*
D03*
Y-21660D02*
D03*
Y-20710D02*
D03*
X12703D02*
D03*
Y-22610D02*
D03*
X38999Y-5377D02*
D03*
X41299Y-7277D02*
D03*
Y-5377D02*
D03*
X38999Y-7277D02*
D03*
Y-6327D02*
D03*
X41299D02*
D03*
D24*
X42173Y3600D02*
D03*
X43773D02*
D03*
X35878Y-18405D02*
D03*
X34278D02*
D03*
X27204Y-5889D02*
D03*
X28804D02*
D03*
X30650Y375D02*
D03*
X32250D02*
D03*
X-41452Y-21143D02*
D03*
X-39852D02*
D03*
X-39468Y-24593D02*
D03*
X-37868D02*
D03*
X34527Y20666D02*
D03*
X32927D02*
D03*
X32984Y5734D02*
D03*
X34584D02*
D03*
X42198D02*
D03*
X43798D02*
D03*
X43752Y20666D02*
D03*
X42152D02*
D03*
X25298Y5734D02*
D03*
X23698D02*
D03*
X23652Y20666D02*
D03*
X25252D02*
D03*
D25*
X-36551Y-6353D02*
D03*
Y-4453D02*
D03*
X-38951Y-5403D02*
D03*
X12351Y-5403D02*
D03*
X14751Y-4453D02*
D03*
Y-6353D02*
D03*
X-21451Y-6353D02*
D03*
Y-4453D02*
D03*
X-23851Y-5403D02*
D03*
X-6551Y-6353D02*
D03*
Y-4453D02*
D03*
X-8951Y-5403D02*
D03*
D26*
X22379Y-10890D02*
D03*
Y-12490D02*
D03*
X37774Y-15500D02*
D03*
Y-13900D02*
D03*
X32300Y-19980D02*
D03*
Y-18380D02*
D03*
X18095Y-23797D02*
D03*
Y-22197D02*
D03*
X-19100Y-4603D02*
D03*
Y-6203D02*
D03*
X-4100Y-4600D02*
D03*
Y-6200D02*
D03*
X39600Y-26737D02*
D03*
Y-28337D02*
D03*
X37661Y-26737D02*
D03*
Y-28337D02*
D03*
X-44085Y-15292D02*
D03*
Y-13692D02*
D03*
X23050Y-28377D02*
D03*
Y-26777D02*
D03*
X41550Y-28337D02*
D03*
Y-26737D02*
D03*
X-22636Y-23363D02*
D03*
Y-24963D02*
D03*
X-16156Y-28377D02*
D03*
Y-26777D02*
D03*
X-22636Y-26777D02*
D03*
Y-28377D02*
D03*
X37378Y11175D02*
D03*
Y9575D02*
D03*
X-2200Y-4600D02*
D03*
Y-6200D02*
D03*
X17200Y-6200D02*
D03*
Y-4600D02*
D03*
X25202Y22549D02*
D03*
Y24149D02*
D03*
X45502Y22549D02*
D03*
Y24149D02*
D03*
X46592Y11175D02*
D03*
Y9575D02*
D03*
X19100Y-6200D02*
D03*
Y-4600D02*
D03*
X-17200Y-6200D02*
D03*
Y-4600D02*
D03*
X28092Y9575D02*
D03*
Y11175D02*
D03*
D27*
X38225Y-19006D02*
D03*
X41275D02*
D03*
X7362Y-18700D02*
D03*
X10412D02*
D03*
X33925Y3000D02*
D03*
X30875D02*
D03*
D28*
X37799Y-9310D02*
D03*
Y-10910D02*
D03*
X41734Y-9310D02*
D03*
Y-10910D02*
D03*
Y-15525D02*
D03*
Y-13925D02*
D03*
X25283Y-17084D02*
D03*
Y-15484D02*
D03*
X4450Y-15900D02*
D03*
Y-14300D02*
D03*
X23723Y350D02*
D03*
Y1950D02*
D03*
X-44060Y-17524D02*
D03*
Y-19124D02*
D03*
X-36572Y-15608D02*
D03*
Y-17208D02*
D03*
D29*
X12951Y-2309D02*
D03*
X16051D02*
D03*
X-38356Y-2309D02*
D03*
X-35256D02*
D03*
X-20176D02*
D03*
X-23276D02*
D03*
X-5256D02*
D03*
X-8356D02*
D03*
D30*
X26057Y2096D02*
D03*
Y1146D02*
D03*
Y196D02*
D03*
X28807D02*
D03*
Y2096D02*
D03*
D31*
X-45957Y-24581D02*
D03*
Y-28341D02*
D03*
X-25866Y-24581D02*
D03*
Y-28341D02*
D03*
X26251Y-24581D02*
D03*
Y-28341D02*
D03*
X44851Y-24581D02*
D03*
Y-28341D02*
D03*
X-19387Y-24581D02*
D03*
Y-28341D02*
D03*
X38264Y24370D02*
D03*
Y28130D02*
D03*
D32*
X-26914Y-12683D02*
D03*
X-33314D02*
D03*
D33*
X-35274Y-21363D02*
D03*
X-28624D02*
D03*
D34*
X-38411Y-13670D02*
D03*
X-39681D02*
D03*
X-40951D02*
D03*
X-42221D02*
D03*
X-38411Y-19120D02*
D03*
X-39681D02*
D03*
X-40951D02*
D03*
X-42221D02*
D03*
D35*
X-40316Y-16395D02*
D03*
D36*
X-39293Y-26343D02*
D03*
Y-28093D02*
D03*
D37*
X23207Y10551D02*
D03*
X25747D02*
D03*
X23207Y17776D02*
D03*
X25747D02*
D03*
X44247D02*
D03*
X41707D02*
D03*
X44247Y10551D02*
D03*
X41707D02*
D03*
X32457D02*
D03*
X34997D02*
D03*
X32457Y17776D02*
D03*
X34997D02*
D03*
D38*
X25279Y27226D02*
D03*
X21519D02*
D03*
X45579D02*
D03*
X41819D02*
D03*
X6456Y-3109D02*
D03*
X10216D02*
D03*
X-44845Y-3109D02*
D03*
X-41085D02*
D03*
X-26085D02*
D03*
X-29845D02*
D03*
X-11085D02*
D03*
X-14845D02*
D03*
D72*
X19133Y-21501D02*
G03*
X19898Y-20737I0J764D01*
G01*
Y-22577D02*
G03*
X19139Y-21818I-759J0D01*
G01*
X11600Y-21483D02*
G03*
X10750Y-22333I0J-850D01*
G01*
X9655Y-25821D02*
G03*
X10130Y-26297I475J0D01*
G01*
X10153D02*
G03*
X10750Y-25700I0J597D01*
G01*
X11600Y-21800D02*
G03*
X11067Y-22333I0J-533D01*
G01*
X10153Y-26614D02*
G03*
X11067Y-25700I0J914D01*
G01*
X10130Y-26614D02*
G03*
X9655Y-27089I0J-475D01*
G01*
X27205Y-12983D02*
G03*
X27291Y-12897I0J86D01*
G01*
X25175Y-12983D02*
G03*
X23425Y-14733I0J-1750D01*
G01*
X22652Y-21498D02*
G03*
X23425Y-20725I0J773D01*
G01*
X21498Y-20748D02*
G03*
X22248Y-21498I750J0D01*
G01*
X27291Y-13397D02*
G03*
X27194Y-13300I-97J0D01*
G01*
X25175D02*
G03*
X23742Y-14733I0J-1433D01*
G01*
X22652Y-21815D02*
G03*
X23742Y-20725I0J1090D01*
G01*
X22248Y-21815D02*
G03*
X21498Y-22565I0J-750D01*
G01*
X15957Y-21818D02*
X19139D01*
X15003Y-20710D02*
X15308D01*
X15845Y-21247D01*
Y-21390D02*
Y-21247D01*
Y-21390D02*
X15957Y-21501D01*
X19133D01*
X15845Y-21930D02*
X15957Y-21818D01*
X15308Y-22610D02*
X15845Y-22073D01*
Y-21930D01*
X15003Y-22610D02*
X15308D01*
X10750Y-25700D02*
Y-22333D01*
X9655Y-25821D02*
Y-25455D01*
X10130Y-26297D02*
X10153D01*
X11600Y-21483D02*
X11750D01*
X11067Y-25700D02*
Y-22333D01*
X10130Y-26614D02*
X10153D01*
X9655Y-27455D02*
Y-27089D01*
X11600Y-21800D02*
X11732D01*
X11750Y-21483D02*
X11861Y-21372D01*
Y-21247D01*
X12398Y-20710D01*
X12703D01*
X11732Y-21800D02*
X11861Y-21930D01*
Y-22073D02*
Y-21930D01*
X12398Y-22610D02*
X12703D01*
X11861Y-22073D02*
X12398Y-22610D01*
X25175Y-12983D02*
X27205D01*
X23425Y-20725D02*
Y-14733D01*
X22248Y-21498D02*
X22652D01*
X21498Y-20748D02*
Y-20737D01*
X25175Y-13300D02*
X27194D01*
X23742Y-20725D02*
Y-14733D01*
X22248Y-21815D02*
X22652D01*
X21498Y-22577D02*
Y-22565D01*
D73*
X-39468Y-25920D02*
G03*
X-39293Y-26343I597J0D01*
G01*
X-19699Y-18322D02*
X-16624D01*
X-22773D02*
X-19699D01*
X10187Y-15922D02*
X10412Y-16147D01*
Y-18700D02*
Y-16147D01*
X10011Y-15922D02*
X10187D01*
X6927D02*
X10011D01*
X4461Y-15911D02*
X6916D01*
X4450Y-15900D02*
X4461Y-15911D01*
X6916D02*
X6927Y-15922D01*
X1815Y-15893D02*
X4443D01*
X1808Y-15887D02*
X1815Y-15893D01*
X4443D02*
X4450Y-15900D01*
X-47815Y-20841D02*
X-46298Y-22357D01*
X-40757D02*
X-39501Y-23613D01*
X-46298Y-22357D02*
X-40757D01*
X-47815Y-20841D02*
Y-12860D01*
X-46413Y-11458D02*
X-42987D01*
X-47815Y-12860D02*
X-46413Y-11458D01*
X-37185Y-29992D02*
Y-27181D01*
X-34805Y-32371D02*
X-31698D01*
X-37185Y-29992D02*
X-34805Y-32371D01*
X-30651Y-35300D02*
Y-33418D01*
X-31698Y-32371D02*
X-30651Y-33418D01*
X-38023Y-26343D02*
X-37185Y-27181D01*
X-39293Y-26343D02*
X-38023D01*
X-39468Y-25920D02*
Y-24593D01*
X-45957Y-27843D02*
X-42098D01*
X-41098Y-28066D02*
X-39593D01*
X-42098Y-27843D02*
X-41098Y-28066D01*
X-39593D02*
X-39293Y-28093D01*
X-45804Y-35147D02*
Y-28341D01*
X-45957D02*
Y-27843D01*
X-39501Y-24560D02*
Y-23613D01*
Y-24560D02*
X-39468Y-24593D01*
X-40994Y-11458D02*
X-40278D01*
X-42987D02*
X-40994D01*
X-40951Y-11501D01*
Y-13670D02*
Y-11501D01*
X-40278Y-11458D02*
X-39681Y-12055D01*
Y-13670D02*
Y-12055D01*
X-45804Y-35147D02*
X-45651Y-35300D01*
D74*
X29900Y-19180D02*
D03*
X28096D02*
D03*
X35308Y-5455D02*
D03*
X33450D02*
D03*
X31525Y-23436D02*
D03*
X33325D02*
D03*
X25200Y-5455D02*
D03*
X26291Y-19180D02*
D03*
X-19711Y-20147D02*
D03*
X-17342D02*
D03*
X-17252Y-24596D02*
D03*
X12359Y-12797D02*
D03*
X4579D02*
D03*
X3082Y-14299D02*
D03*
X27444Y695D02*
D03*
X33650Y375D02*
D03*
X35425Y3000D02*
D03*
X23723Y3350D02*
D03*
X21100Y5200D02*
D03*
X-23906Y-25846D02*
D03*
X5994Y-18700D02*
D03*
X-20325Y-9875D02*
D03*
X-42092Y-23422D02*
D03*
X-43890Y-23504D02*
D03*
X-42980Y-7037D02*
D03*
X-23263Y-21331D02*
D03*
X-24932Y-18963D02*
D03*
X-18526Y-20147D02*
D03*
X-20895D02*
D03*
X-22079D02*
D03*
X-23263D02*
D03*
X-24447D02*
D03*
Y-21331D02*
D03*
X-25632D02*
D03*
Y-20147D02*
D03*
X-26816Y-21331D02*
D03*
Y-20147D02*
D03*
X-26116Y-18963D02*
D03*
X-27300D02*
D03*
X-28484D02*
D03*
X-28630Y-25658D02*
D03*
X-47992Y-24589D02*
D03*
X-36313Y-24592D02*
D03*
X-34217Y-6263D02*
D03*
X45867Y-22648D02*
D03*
X43900Y-22667D02*
D03*
X27267Y-22648D02*
D03*
X25300Y-22667D02*
D03*
X40761Y24393D02*
D03*
X45438Y29821D02*
D03*
X25138D02*
D03*
D75*
X-22773Y-15272D02*
Y-12925D01*
X-26671D02*
X-22773D01*
Y-15272D02*
X-19699D01*
X-26914Y-12683D02*
X-26671Y-12925D01*
X-19699Y-15272D02*
X-16624D01*
D76*
X-12692Y-15887D02*
X-12453Y-16126D01*
X-11614D01*
X41517Y-25393D02*
X41534Y-25410D01*
Y-26721D02*
Y-25410D01*
X-6551Y-4451D02*
X-5485D01*
X-21451D02*
X-20385D01*
X38215Y-18996D02*
X38225Y-19006D01*
Y-20975D02*
Y-19006D01*
X41285Y-20985D02*
Y-19016D01*
X41275Y-19006D02*
X41285Y-19016D01*
X37250Y-19006D02*
X38225D01*
X36950Y-18706D02*
Y-16800D01*
Y-18706D02*
X37250Y-19006D01*
X35791Y-15641D02*
X36950Y-16800D01*
X35791Y-15641D02*
Y-14897D01*
X41550Y-28337D02*
X44551D01*
X44847D01*
X37661Y-28337D02*
X39600D01*
X41550D01*
X41550Y-28337D01*
X44847D02*
X44851Y-28341D01*
X6447Y-3100D02*
X6456Y-3109D01*
X4600Y-3100D02*
X6447D01*
X6456Y-3109D02*
Y-959D01*
X-16600Y-3000D02*
X-14954D01*
X-14845Y-3109D01*
Y-959D01*
X-17404Y-28077D02*
Y-26953D01*
X-17668Y-28341D02*
X-17404Y-28077D01*
X-19387Y-28341D02*
X-17668D01*
X-17229Y-26777D02*
X-16156D01*
X-17404Y-26953D02*
X-17229Y-26777D01*
X-25582Y-26777D02*
X-22636D01*
X-21813D01*
X-22461Y-25880D02*
X-21813D01*
X-21637Y-26601D02*
Y-26055D01*
X-21813Y-25880D02*
X-21637Y-26055D01*
X-22636Y-25704D02*
X-22461Y-25880D01*
X-25866Y-27061D02*
X-25582Y-26777D01*
X-25866Y-28341D02*
Y-27061D01*
X-20176Y-2309D02*
Y1811D01*
X-25706Y-5403D02*
X-23851D01*
X-24950Y2286D02*
X-21800Y-865D01*
Y-1800D02*
Y-865D01*
X-22309Y-2309D02*
X-21800Y-1800D01*
X-23276Y-2309D02*
X-22309D01*
X-24255D02*
X-23276D01*
X-24431Y-2133D02*
X-24255Y-2309D01*
X-24431Y-2133D02*
Y-1433D01*
X-26085Y-3109D02*
Y-1439D01*
X-25747Y-1101D01*
X-24763D02*
X-24431Y-1433D01*
X-25747Y-1101D02*
X-24763D01*
X17402Y-2304D02*
X17406Y-2300D01*
X16064Y-2301D02*
X16067Y-2304D01*
X17402D01*
X10481Y-1070D02*
X11676D01*
X10216Y-5024D02*
Y-1335D01*
X11851Y-2114D02*
X12046Y-2309D01*
X10216Y-1335D02*
X10481Y-1070D01*
X11676D02*
X11851Y-1246D01*
Y-2114D02*
Y-1246D01*
X12951Y-2250D02*
X13958D01*
X12046Y-2309D02*
X12951D01*
X-10747Y-1101D02*
X-9763D01*
X-9431Y-2094D02*
Y-1433D01*
X-9763Y-1101D02*
X-9431Y-1433D01*
Y-2094D02*
X-9255Y-2270D01*
X-8395D01*
X-11085Y-1439D02*
X-10747Y-1101D01*
X-8395Y-2270D02*
X-8356Y-2309D01*
X-3905Y-2305D02*
X-3900Y-2300D01*
X-5240Y-2305D02*
X-3905D01*
X-5243Y-2301D02*
X-5240Y-2305D01*
X-18825D02*
X-18820Y-2300D01*
X-20159Y-2305D02*
X-18825D01*
X-20163Y-2301D02*
X-20159Y-2305D01*
X-35243Y-2301D02*
X-35239Y-2305D01*
X-33904D01*
X-33900Y-2300D01*
X-39447Y-2125D02*
X-39230Y-2342D01*
X-40757Y-959D02*
X-39776D01*
X-41085Y-1287D02*
X-40757Y-959D01*
X-41085Y-5024D02*
Y-1287D01*
X-39776Y-959D02*
X-39447Y-1287D01*
Y-2125D02*
Y-1287D01*
X-38389Y-2342D02*
X-38356Y-2309D01*
X-39230Y-2342D02*
X-38389D01*
X-38356Y-2309D02*
X-37385D01*
X-44860Y-21147D02*
X-44670Y-20957D01*
Y-20367D01*
X-44172Y-19868D01*
Y-19236D02*
X-44060Y-19124D01*
X-44172Y-19868D02*
Y-19236D01*
X-42648Y-20037D02*
X-42472Y-19861D01*
Y-19371D01*
X-42221Y-19120D01*
X-43098Y-20037D02*
X-42648D01*
X13958Y-2250D02*
X14133Y-2075D01*
Y-497D01*
X11351Y2286D02*
X14133Y-497D01*
X15651Y2286D02*
X16051Y1886D01*
Y-2309D02*
Y1886D01*
X-39852Y-21147D02*
X-39532Y-21467D01*
X-39224D02*
X-39048Y-21643D01*
Y-22502D02*
Y-21643D01*
X-39852Y-21147D02*
Y-21143D01*
X-39532Y-21467D02*
X-39224D01*
X-43138Y-20077D02*
X-43098Y-20037D01*
X-41454Y-21145D02*
X-41452Y-21143D01*
X-41229Y-20919D01*
X-40963Y-20147D02*
Y-19151D01*
X-41229Y-20413D02*
X-40963Y-20147D01*
X-41229Y-20919D02*
Y-20413D01*
X-43258Y-21145D02*
X-41454D01*
X-43260Y-21147D02*
X-43258Y-21145D01*
X-40963Y-19151D02*
X-40941Y-19130D01*
X-43695Y-13673D02*
X-42472D01*
X-42221Y-13670D01*
X-44085Y-13692D02*
X-43695Y-13673D01*
X-36561Y-4438D02*
X-36558Y-4440D01*
X-36561Y-4438D02*
Y-3579D01*
X-36571Y-3569D02*
X-36561Y-3579D01*
X-30730Y-6949D02*
X-30129Y-7551D01*
X-31014Y-6263D02*
X-30730Y-6546D01*
Y-6949D02*
Y-6546D01*
X-30129Y-7551D02*
X-30129D01*
X-31504Y-3113D02*
X-29850D01*
X-29845Y-3109D01*
Y-959D01*
X-5651Y2286D02*
X-5256Y1891D01*
Y-2309D02*
Y1891D01*
X-8356Y-2309D02*
X-8349Y-2302D01*
X-7482D02*
X-7165Y-1985D01*
Y-500D01*
X-8349Y-2302D02*
X-7482D01*
X-9950Y2286D02*
X-7165Y-500D01*
X-35651Y2286D02*
X-35256Y1891D01*
Y-2309D02*
Y1891D01*
X-37385Y-2309D02*
X-37209Y-2133D01*
X-39950Y2286D02*
X-37209Y-456D01*
Y-2133D02*
Y-456D01*
X-20651Y2286D02*
X-20176Y1811D01*
X41534Y-26721D02*
X41550Y-26737D01*
X23017Y-25433D02*
X23033Y-25449D01*
Y-26760D02*
Y-25449D01*
Y-26760D02*
X23050Y-26777D01*
X26215Y-28377D02*
X26251Y-28341D01*
X23050Y-28377D02*
X26215D01*
X-22620Y-29704D02*
X-22603Y-29721D01*
X-22620Y-29704D02*
Y-28393D01*
X-22636Y-28377D02*
X-22620Y-28393D01*
X-22636Y-25704D02*
Y-24963D01*
X-21813Y-26777D02*
X-21637Y-26601D01*
X-16156Y-28377D02*
X-16140Y-28393D01*
Y-29704D02*
Y-28393D01*
Y-29704D02*
X-16123Y-29721D01*
X-13151Y2286D02*
X-9950D01*
X-11085Y-5024D02*
Y-3109D01*
Y-5024D02*
X-10706Y-5403D01*
X-11085Y-3109D02*
Y-1439D01*
X-10706Y-5403D02*
X-8951D01*
X14751Y-4453D02*
X14761Y-4443D01*
X15819D02*
X15830Y-4432D01*
X14761Y-4443D02*
X15819D01*
X-44845Y-3109D02*
Y-959D01*
Y-5259D02*
Y-3109D01*
X-43151Y2286D02*
X-39950D01*
X-40706Y-5403D02*
X-38951D01*
X-41085Y-5024D02*
X-40706Y-5403D01*
X-28151Y2286D02*
X-24950D01*
X-26085Y-5024D02*
X-25706Y-5403D01*
X-26085Y-5024D02*
Y-3109D01*
X-5485Y-4451D02*
X-5483Y-4449D01*
X8151Y2286D02*
X11351D01*
X10596Y-5403D02*
X12351D01*
X10216Y-5024D02*
X10596Y-5403D01*
D77*
X-27604Y-11993D02*
Y-6307D01*
Y-11993D02*
X-26914Y-12683D01*
X-27648Y-6263D02*
X-27604Y-6307D01*
X39418Y20963D02*
Y22198D01*
X38562Y22496D02*
X39120D01*
Y20666D02*
X39418Y20963D01*
X39120Y22496D02*
X39418Y22198D01*
X37953Y20666D02*
X39120D01*
X38264Y22793D02*
X38562Y22496D01*
X38264Y22793D02*
Y24370D01*
X38287Y24393D01*
X40761D01*
X45502Y24149D02*
Y27149D01*
X45579Y27226D01*
X45438Y27366D02*
X45579Y27226D01*
X45438Y27366D02*
Y29821D01*
X25138Y27366D02*
Y29821D01*
Y27366D02*
X25279Y27226D01*
X25202Y27149D02*
X25279Y27226D01*
X25202Y24149D02*
Y27149D01*
D78*
X-46806Y20551D02*
Y34036D01*
X-45651Y35192D01*
Y35300D01*
X-46806Y20551D02*
X-45341Y19086D01*
X-35651D01*
X-5651Y26086D02*
Y35300D01*
X-16811Y20555D02*
X-15341Y19086D01*
X-16811Y20555D02*
Y34032D01*
X-15599Y35244D01*
X-15341Y19086D02*
X-5651D01*
X-15599Y35244D02*
Y35352D01*
X-13151Y22586D02*
Y22667D01*
X-10599Y25219D01*
Y35352D01*
X4491Y20555D02*
Y34032D01*
X-40599Y25219D02*
Y35352D01*
X-43151Y22586D02*
Y22667D01*
X-40599Y25219D01*
X-35651Y26086D02*
Y35300D01*
X-25599Y25219D02*
Y35352D01*
X-28151Y22586D02*
Y22667D01*
X-25599Y25219D01*
X-30599Y35244D02*
Y35352D01*
X-30341Y19086D02*
X-20651D01*
X-31811Y34032D02*
X-30599Y35244D01*
X-31811Y20555D02*
Y34032D01*
Y20555D02*
X-30341Y19086D01*
X-20651Y26086D02*
Y35300D01*
X4491Y34032D02*
X5703Y35244D01*
X4491Y20555D02*
X5960Y19086D01*
X8151Y22667D02*
X10703Y25219D01*
X8151Y22586D02*
Y22667D01*
X15651Y26086D02*
Y35300D01*
X5960Y19086D02*
X15651D01*
X10703Y25219D02*
Y35352D01*
X5703Y35244D02*
Y35352D01*
D79*
X8151Y2286D02*
D03*
X15651D02*
D03*
X8151Y22586D02*
D03*
X15651Y19086D02*
D03*
Y26086D02*
D03*
X-5651Y26086D02*
D03*
Y19086D02*
D03*
X-13151Y22586D02*
D03*
X-5651Y2286D02*
D03*
X-13151D02*
D03*
X-28151D02*
D03*
X-20651D02*
D03*
X-28151Y22586D02*
D03*
X-20651Y19086D02*
D03*
Y26086D02*
D03*
X-35651D02*
D03*
Y19086D02*
D03*
X-43151Y22586D02*
D03*
X-35651Y2286D02*
D03*
X-43151D02*
D03*
D80*
X16925Y-30165D02*
D03*
X4885D02*
D03*
D81*
X12155Y-27455D02*
D03*
X9655D02*
D03*
Y-25455D02*
D03*
D82*
X12155D02*
D03*
D83*
X33780Y-2742D02*
D03*
X36320D02*
D03*
X38860D02*
D03*
X41400D02*
D03*
X43940D02*
D03*
X46487Y1068D02*
D03*
D84*
X46480Y-2742D02*
D03*
X43947Y1068D02*
D03*
D85*
X45413Y-14587D02*
D03*
Y-9707D02*
D03*
D86*
X46251Y-35300D02*
D03*
X41251D02*
D03*
X-20651Y-35300D02*
D03*
X26251Y-35300D02*
D03*
X31251D02*
D03*
X-30651Y-35300D02*
D03*
X-40651D02*
D03*
X5651Y35300D02*
D03*
X10651D02*
D03*
X40651Y35300D02*
D03*
X-45651D02*
D03*
X-40651D02*
D03*
X30651D02*
D03*
X20651D02*
D03*
X-30651D02*
D03*
X-25651D02*
D03*
X-10651D02*
D03*
X-15651D02*
D03*
D87*
X36251Y-35300D02*
D03*
X-25651Y-35300D02*
D03*
X21251Y-35300D02*
D03*
X-35651Y-35300D02*
D03*
X-45651D02*
D03*
X15651Y35300D02*
D03*
X45651Y35300D02*
D03*
X-35651D02*
D03*
X35651D02*
D03*
X25651D02*
D03*
X-20651D02*
D03*
X-5651D02*
D03*
D88*
X25282Y-14363D02*
D03*
X13790Y-20166D02*
D03*
X18095Y-25027D02*
D03*
X-12423Y-13576D02*
D03*
X2903Y-12197D02*
D03*
X-11614Y-16126D02*
D03*
X28804Y-4539D02*
D03*
X27213Y-4548D02*
D03*
X34904Y-6651D02*
D03*
X12956Y-18660D02*
D03*
X12056D02*
D03*
X12956Y-17727D02*
D03*
X12056D02*
D03*
Y-16793D02*
D03*
X12956D02*
D03*
X29794Y-9188D02*
D03*
X32794D02*
D03*
X33788Y-15106D02*
D03*
X34470Y-10417D02*
D03*
X34400Y-11400D02*
D03*
X37645Y-25383D02*
D03*
X39583D02*
D03*
X21000Y-11800D02*
D03*
X39071Y-9316D02*
D03*
X36627Y-8437D02*
D03*
X20239Y-14535D02*
D03*
Y-13585D02*
D03*
Y-12600D02*
D03*
Y-10761D02*
D03*
X41300Y-4600D02*
D03*
X30794Y-9188D02*
D03*
X28894D02*
D03*
X28582Y-14394D02*
D03*
X29900Y-2500D02*
D03*
Y-1500D02*
D03*
X30900Y-4000D02*
D03*
Y-3000D02*
D03*
Y-2000D02*
D03*
Y-1000D02*
D03*
X21976Y-1773D02*
D03*
Y-873D02*
D03*
X21043Y-1773D02*
D03*
Y-873D02*
D03*
X20110D02*
D03*
Y-1773D02*
D03*
X40801Y3600D02*
D03*
X32304Y-21248D02*
D03*
X47150Y4972D02*
D03*
X41750Y-8114D02*
D03*
X37800Y-6600D02*
D03*
X38225Y-20975D02*
D03*
X41285Y-20985D02*
D03*
X37774Y-16850D02*
D03*
X41734Y-16875D02*
D03*
X39102Y-10918D02*
D03*
X35878Y-19755D02*
D03*
Y-17055D02*
D03*
X34278Y-19755D02*
D03*
X25283Y-18434D02*
D03*
X-19500Y-13100D02*
D03*
Y-14000D02*
D03*
X-18567Y-13100D02*
D03*
Y-14000D02*
D03*
X4600Y-3100D02*
D03*
X-16600Y-3000D02*
D03*
X-6977Y-11300D02*
D03*
X-4500D02*
D03*
X-4113Y-3433D02*
D03*
X-19097Y-3449D02*
D03*
X-17633Y-14000D02*
D03*
Y-13100D02*
D03*
X-16700Y-14000D02*
D03*
Y-13100D02*
D03*
X17406Y-2300D02*
D03*
X-3900Y-2300D02*
D03*
X-18820D02*
D03*
X-33900D02*
D03*
X-42791Y-15245D02*
D03*
Y-16395D02*
D03*
Y-17545D02*
D03*
X-45500Y-17500D02*
D03*
Y-16350D02*
D03*
Y-15200D02*
D03*
X17211Y-3382D02*
D03*
X-39048Y-22502D02*
D03*
X-43138Y-20077D02*
D03*
X-36571Y-3569D02*
D03*
X-30129Y-7551D02*
D03*
X-31504Y-3113D02*
D03*
X41517Y-25383D02*
D03*
X23017Y-25433D02*
D03*
X-22603Y-29721D02*
D03*
X-16123Y-29721D02*
D03*
X-20383Y-4449D02*
D03*
X30966Y11385D02*
D03*
Y9734D02*
D03*
X35956Y5742D02*
D03*
X37378Y12555D02*
D03*
X45170Y5734D02*
D03*
X46592Y12547D02*
D03*
X40181Y11376D02*
D03*
Y9726D02*
D03*
X21681D02*
D03*
Y11376D02*
D03*
X28092Y12547D02*
D03*
X-39642Y-8089D02*
D03*
X-14845Y-959D02*
D03*
X15830Y-4432D02*
D03*
X26670Y5734D02*
D03*
X-44845Y-959D02*
D03*
Y-5259D02*
D03*
X-29845Y-959D02*
D03*
X-5483Y-4449D02*
D03*
X6456Y-959D02*
D03*
M02*
