G04*
G04 #@! TF.GenerationSoftware,Altium Limited,Altium Designer,22.10.1 (41)*
G04*
G04 Layer_Color=2752767*
%FSLAX43Y43*%
%MOMM*%
G71*
G04*
G04 #@! TF.SameCoordinates,12196C2A-3433-47B0-B4A9-8DE0C645B0E6*
G04*
G04*
G04 #@! TF.FilePolarity,Positive*
G04*
G01*
G75*
%ADD90C,0.051*%
%ADD91C,0.068*%
%ADD92C,0.034*%
D90*
X7947Y2082D02*
Y2489D01*
X8354D01*
Y2082D01*
X7947D01*
X15447D02*
Y2489D01*
X15854D01*
Y2082D01*
X15447D01*
X7947Y22382D02*
Y22789D01*
X8354D01*
Y22382D01*
X7947D01*
X15447Y18882D02*
Y19289D01*
X15854D01*
Y18882D01*
X15447D01*
Y25882D02*
Y26289D01*
X15854D01*
Y25882D01*
X15447D01*
X-5854Y25882D02*
Y26289D01*
X-5448D01*
Y25882D01*
X-5854D01*
Y18882D02*
Y19289D01*
X-5448D01*
Y18882D01*
X-5854D01*
X-13354Y22382D02*
Y22789D01*
X-12948D01*
Y22382D01*
X-13354D01*
X-5854Y2082D02*
Y2489D01*
X-5448D01*
Y2082D01*
X-5854D01*
X-13354D02*
Y2489D01*
X-12948D01*
Y2082D01*
X-13354D01*
X-28354D02*
Y2489D01*
X-27948D01*
Y2082D01*
X-28354D01*
X-20854D02*
Y2489D01*
X-20448D01*
Y2082D01*
X-20854D01*
X-28354Y22382D02*
Y22789D01*
X-27948D01*
Y22382D01*
X-28354D01*
X-20854Y18882D02*
Y19289D01*
X-20448D01*
Y18882D01*
X-20854D01*
Y25882D02*
Y26289D01*
X-20448D01*
Y25882D01*
X-20854D01*
X-35854D02*
Y26289D01*
X-35448D01*
Y25882D01*
X-35854D01*
Y18882D02*
Y19289D01*
X-35448D01*
Y18882D01*
X-35854D01*
X-43354Y22382D02*
Y22789D01*
X-42948D01*
Y22382D01*
X-43354D01*
X-35854Y2082D02*
Y2489D01*
X-35448D01*
Y2082D01*
X-35854D01*
X-43354D02*
Y2489D01*
X-42948D01*
Y2082D01*
X-43354D01*
X16925Y-30368D02*
X16722Y-29962D01*
X17128D01*
X16925Y-30368D01*
X4885D02*
X4682Y-29962D01*
X5088D01*
X4885Y-30368D01*
X12155Y-27658D02*
X12256Y-27557D01*
X12358D01*
X12256Y-27455D01*
X12358Y-27354D01*
X12256D01*
X12155Y-27252D01*
X12053Y-27354D01*
X11952D01*
X12053Y-27455D01*
X11952Y-27557D01*
X12053D01*
X12155Y-27658D01*
X9655D02*
X9756Y-27557D01*
X9858D01*
X9756Y-27455D01*
X9858Y-27354D01*
X9756D01*
X9655Y-27252D01*
X9553Y-27354D01*
X9452D01*
X9553Y-27455D01*
X9452Y-27557D01*
X9553D01*
X9655Y-27658D01*
X12155Y-25658D02*
X12256Y-25557D01*
X12358D01*
X12256Y-25455D01*
X12358Y-25354D01*
X12256D01*
X12155Y-25252D01*
X12053Y-25354D01*
X11952D01*
X12053Y-25455D01*
X11952Y-25557D01*
X12053D01*
X12155Y-25658D01*
X9655D02*
X9756Y-25557D01*
X9858D01*
X9756Y-25455D01*
X9858Y-25354D01*
X9756D01*
X9655Y-25252D01*
X9553Y-25354D01*
X9452D01*
X9553Y-25455D01*
X9452Y-25557D01*
X9553D01*
X9655Y-25658D01*
X33577Y-2945D02*
X33678D01*
X33780Y-2844D01*
X33882Y-2945D01*
X33983D01*
Y-2844D01*
X33882Y-2742D01*
X33983Y-2640D01*
Y-2539D01*
X33882D01*
X33780Y-2640D01*
X33678Y-2539D01*
X33577D01*
Y-2640D01*
X33678Y-2742D01*
X33577Y-2844D01*
Y-2945D01*
X36117D02*
X36218D01*
X36320Y-2844D01*
X36422Y-2945D01*
X36523D01*
Y-2844D01*
X36422Y-2742D01*
X36523Y-2640D01*
Y-2539D01*
X36422D01*
X36320Y-2640D01*
X36218Y-2539D01*
X36117D01*
Y-2640D01*
X36218Y-2742D01*
X36117Y-2844D01*
Y-2945D01*
X38657D02*
X38758D01*
X38860Y-2844D01*
X38962Y-2945D01*
X39063D01*
Y-2844D01*
X38962Y-2742D01*
X39063Y-2640D01*
Y-2539D01*
X38962D01*
X38860Y-2640D01*
X38758Y-2539D01*
X38657D01*
Y-2640D01*
X38758Y-2742D01*
X38657Y-2844D01*
Y-2945D01*
X41197D02*
X41298D01*
X41400Y-2844D01*
X41502Y-2945D01*
X41603D01*
Y-2844D01*
X41502Y-2742D01*
X41603Y-2640D01*
Y-2539D01*
X41502D01*
X41400Y-2640D01*
X41298Y-2539D01*
X41197D01*
Y-2640D01*
X41298Y-2742D01*
X41197Y-2844D01*
Y-2945D01*
X46277D02*
X46378D01*
X46480Y-2844D01*
X46582Y-2945D01*
X46683D01*
Y-2844D01*
X46582Y-2742D01*
X46683Y-2640D01*
Y-2539D01*
X46582D01*
X46480Y-2640D01*
X46378Y-2539D01*
X46277D01*
Y-2640D01*
X46378Y-2742D01*
X46277Y-2844D01*
Y-2945D01*
X43737D02*
X43838D01*
X43940Y-2844D01*
X44042Y-2945D01*
X44143D01*
Y-2844D01*
X44042Y-2742D01*
X44143Y-2640D01*
Y-2539D01*
X44042D01*
X43940Y-2640D01*
X43838Y-2539D01*
X43737D01*
Y-2640D01*
X43838Y-2742D01*
X43737Y-2844D01*
Y-2945D01*
X45210Y-14587D02*
X45413Y-14384D01*
X45617Y-14587D01*
X45413Y-14790D01*
X45210Y-14587D01*
Y-9707D02*
X45413Y-9504D01*
X45617Y-9707D01*
X45413Y-9910D01*
X45210Y-9707D01*
X43744Y865D02*
X43845D01*
X43947Y966D01*
X44048Y865D01*
X44150D01*
Y966D01*
X44048Y1068D01*
X44150Y1170D01*
Y1271D01*
X44048D01*
X43947Y1170D01*
X43845Y1271D01*
X43744D01*
Y1170D01*
X43845Y1068D01*
X43744Y966D01*
Y865D01*
X46284D02*
X46385D01*
X46487Y966D01*
X46588Y865D01*
X46690D01*
Y966D01*
X46588Y1068D01*
X46690Y1170D01*
Y1271D01*
X46588D01*
X46487Y1170D01*
X46385Y1271D01*
X46284D01*
Y1170D01*
X46385Y1068D01*
X46284Y966D01*
Y865D01*
X32500Y-27703D02*
X32297Y-27297D01*
X32703D01*
X32500Y-27703D01*
Y-27602D02*
X32398Y-27398D01*
X32602D01*
X32500Y-27602D01*
X-32500Y-27703D02*
X-32703Y-27297D01*
X-32297D01*
X-32500Y-27703D01*
Y-27602D02*
X-32602Y-27398D01*
X-32398D01*
X-32500Y-27602D01*
X32500Y27297D02*
X32297Y27703D01*
X32703D01*
X32500Y27297D01*
Y27398D02*
X32398Y27602D01*
X32602D01*
X32500Y27398D01*
X25079Y-14567D02*
Y-14160D01*
X25485D01*
Y-14567D01*
X25079D01*
X25181Y-14465D02*
Y-14262D01*
X25384D01*
Y-14465D01*
X25181D01*
X13587Y-20369D02*
Y-19962D01*
X13994D01*
Y-20369D01*
X13587D01*
X13689Y-20267D02*
Y-20064D01*
X13892D01*
Y-20267D01*
X13689D01*
X17892Y-25231D02*
Y-24824D01*
X18298D01*
Y-25231D01*
X17892D01*
X17993Y-25129D02*
Y-24926D01*
X18197D01*
Y-25129D01*
X17993D01*
X-12626Y-13779D02*
Y-13373D01*
X-12220D01*
Y-13779D01*
X-12626D01*
X-12524Y-13678D02*
Y-13474D01*
X-12321D01*
Y-13678D01*
X-12524D01*
X2700Y-12400D02*
Y-11993D01*
X3107D01*
Y-12400D01*
X2700D01*
X2802Y-12298D02*
Y-12095D01*
X3005D01*
Y-12298D01*
X2802D01*
X-11817Y-16329D02*
Y-15923D01*
X-11411D01*
Y-16329D01*
X-11817D01*
X-11716Y-16228D02*
Y-16025D01*
X-11513D01*
Y-16228D01*
X-11716D01*
X28601Y-4742D02*
Y-4336D01*
X29007D01*
Y-4742D01*
X28601D01*
X28703Y-4641D02*
Y-4438D01*
X28906D01*
Y-4641D01*
X28703D01*
X27010Y-4751D02*
Y-4345D01*
X27416D01*
Y-4751D01*
X27010D01*
X27111Y-4650D02*
Y-4446D01*
X27315D01*
Y-4650D01*
X27111D01*
X34701Y-6854D02*
Y-6448D01*
X35107D01*
Y-6854D01*
X34701D01*
X34802Y-6753D02*
Y-6549D01*
X35006D01*
Y-6753D01*
X34802D01*
X12753Y-18863D02*
Y-18457D01*
X13159D01*
Y-18863D01*
X12753D01*
X12855Y-18761D02*
Y-18558D01*
X13058D01*
Y-18761D01*
X12855D01*
X11853Y-18863D02*
Y-18457D01*
X12259D01*
Y-18863D01*
X11853D01*
X11955Y-18761D02*
Y-18558D01*
X12158D01*
Y-18761D01*
X11955D01*
X12753Y-17930D02*
Y-17523D01*
X13159D01*
Y-17930D01*
X12753D01*
X12855Y-17828D02*
Y-17625D01*
X13058D01*
Y-17828D01*
X12855D01*
X11853Y-17930D02*
Y-17523D01*
X12259D01*
Y-17930D01*
X11853D01*
X11955Y-17828D02*
Y-17625D01*
X12158D01*
Y-17828D01*
X11955D01*
X11853Y-16996D02*
Y-16590D01*
X12259D01*
Y-16996D01*
X11853D01*
X11955Y-16895D02*
Y-16692D01*
X12158D01*
Y-16895D01*
X11955D01*
X12753Y-16996D02*
Y-16590D01*
X13159D01*
Y-16996D01*
X12753D01*
X12855Y-16895D02*
Y-16692D01*
X13058D01*
Y-16895D01*
X12855D01*
X29591Y-9392D02*
Y-8985D01*
X29997D01*
Y-9392D01*
X29591D01*
X29692Y-9290D02*
Y-9087D01*
X29896D01*
Y-9290D01*
X29692D01*
X32591Y-9392D02*
Y-8985D01*
X32997D01*
Y-9392D01*
X32591D01*
X32692Y-9290D02*
Y-9087D01*
X32896D01*
Y-9290D01*
X32692D01*
X33585Y-15309D02*
Y-14903D01*
X33992D01*
Y-15309D01*
X33585D01*
X33687Y-15208D02*
Y-15004D01*
X33890D01*
Y-15208D01*
X33687D01*
X34267Y-10620D02*
Y-10214D01*
X34673D01*
Y-10620D01*
X34267D01*
X34368Y-10519D02*
Y-10316D01*
X34572D01*
Y-10519D01*
X34368D01*
X34197Y-11603D02*
Y-11197D01*
X34603D01*
Y-11603D01*
X34197D01*
X34298Y-11502D02*
Y-11298D01*
X34502D01*
Y-11502D01*
X34298D01*
X37441Y-25587D02*
Y-25180D01*
X37848D01*
Y-25587D01*
X37441D01*
X37543Y-25485D02*
Y-25282D01*
X37746D01*
Y-25485D01*
X37543D01*
X39380Y-25587D02*
Y-25180D01*
X39787D01*
Y-25587D01*
X39380D01*
X39482Y-25485D02*
Y-25282D01*
X39685D01*
Y-25485D01*
X39482D01*
X20797Y-12003D02*
Y-11597D01*
X21203D01*
Y-12003D01*
X20797D01*
X20898Y-11902D02*
Y-11698D01*
X21102D01*
Y-11902D01*
X20898D01*
X38868Y-9519D02*
Y-9113D01*
X39274D01*
Y-9519D01*
X38868D01*
X38970Y-9418D02*
Y-9214D01*
X39173D01*
Y-9418D01*
X38970D01*
X36424Y-8640D02*
Y-8234D01*
X36830D01*
Y-8640D01*
X36424D01*
X36525Y-8539D02*
Y-8335D01*
X36729D01*
Y-8539D01*
X36525D01*
X20036Y-14738D02*
Y-14331D01*
X20443D01*
Y-14738D01*
X20036D01*
X20138Y-14636D02*
Y-14433D01*
X20341D01*
Y-14636D01*
X20138D01*
X20036Y-13788D02*
Y-13382D01*
X20443D01*
Y-13788D01*
X20036D01*
X20138Y-13686D02*
Y-13483D01*
X20341D01*
Y-13686D01*
X20138D01*
X20036Y-12803D02*
Y-12397D01*
X20443D01*
Y-12803D01*
X20036D01*
X20138Y-12702D02*
Y-12498D01*
X20341D01*
Y-12702D01*
X20138D01*
X20036Y-10964D02*
Y-10557D01*
X20443D01*
Y-10964D01*
X20036D01*
X20138Y-10862D02*
Y-10659D01*
X20341D01*
Y-10862D01*
X20138D01*
X41097Y-4803D02*
Y-4397D01*
X41503D01*
Y-4803D01*
X41097D01*
X41198Y-4702D02*
Y-4498D01*
X41402D01*
Y-4702D01*
X41198D01*
X30591Y-9392D02*
Y-8985D01*
X30997D01*
Y-9392D01*
X30591D01*
X30692Y-9290D02*
Y-9087D01*
X30896D01*
Y-9290D01*
X30692D01*
X28691Y-9392D02*
Y-8985D01*
X29097D01*
Y-9392D01*
X28691D01*
X28792Y-9290D02*
Y-9087D01*
X28996D01*
Y-9290D01*
X28792D01*
X28379Y-14598D02*
Y-14191D01*
X28786D01*
Y-14598D01*
X28379D01*
X28481Y-14496D02*
Y-14293D01*
X28684D01*
Y-14496D01*
X28481D01*
X29697Y-2703D02*
Y-2297D01*
X30103D01*
Y-2703D01*
X29697D01*
X29798Y-2602D02*
Y-2398D01*
X30002D01*
Y-2602D01*
X29798D01*
X29697Y-1703D02*
Y-1297D01*
X30103D01*
Y-1703D01*
X29697D01*
X29798Y-1602D02*
Y-1398D01*
X30002D01*
Y-1602D01*
X29798D01*
X30697Y-4203D02*
Y-3797D01*
X31103D01*
Y-4203D01*
X30697D01*
X30798Y-4102D02*
Y-3898D01*
X31002D01*
Y-4102D01*
X30798D01*
X30697Y-3203D02*
Y-2797D01*
X31103D01*
Y-3203D01*
X30697D01*
X30798Y-3102D02*
Y-2898D01*
X31002D01*
Y-3102D01*
X30798D01*
X30697Y-2203D02*
Y-1797D01*
X31103D01*
Y-2203D01*
X30697D01*
X30798Y-2102D02*
Y-1898D01*
X31002D01*
Y-2102D01*
X30798D01*
X30697Y-1203D02*
Y-797D01*
X31103D01*
Y-1203D01*
X30697D01*
X30798Y-1102D02*
Y-898D01*
X31002D01*
Y-1102D01*
X30798D01*
X21773Y-1976D02*
Y-1569D01*
X22180D01*
Y-1976D01*
X21773D01*
X21875Y-1874D02*
Y-1671D01*
X22078D01*
Y-1874D01*
X21875D01*
X21773Y-1076D02*
Y-669D01*
X22180D01*
Y-1076D01*
X21773D01*
X21875Y-974D02*
Y-771D01*
X22078D01*
Y-974D01*
X21875D01*
X20840Y-1976D02*
Y-1569D01*
X21246D01*
Y-1976D01*
X20840D01*
X20941Y-1874D02*
Y-1671D01*
X21145D01*
Y-1874D01*
X20941D01*
X20840Y-1076D02*
Y-669D01*
X21246D01*
Y-1076D01*
X20840D01*
X20941Y-974D02*
Y-771D01*
X21145D01*
Y-974D01*
X20941D01*
X19907Y-1076D02*
Y-669D01*
X20313D01*
Y-1076D01*
X19907D01*
X20008Y-974D02*
Y-771D01*
X20211D01*
Y-974D01*
X20008D01*
X19907Y-1976D02*
Y-1569D01*
X20313D01*
Y-1976D01*
X19907D01*
X20008Y-1874D02*
Y-1671D01*
X20211D01*
Y-1874D01*
X20008D01*
X40598Y3397D02*
Y3803D01*
X41004D01*
Y3397D01*
X40598D01*
X40700Y3498D02*
Y3702D01*
X40903D01*
Y3498D01*
X40700D01*
X32100Y-21451D02*
Y-21045D01*
X32507D01*
Y-21451D01*
X32100D01*
X32202Y-21350D02*
Y-21146D01*
X32405D01*
Y-21350D01*
X32202D01*
X46946Y4769D02*
Y5175D01*
X47353D01*
Y4769D01*
X46946D01*
X47048Y4870D02*
Y5074D01*
X47251D01*
Y4870D01*
X47048D01*
X41547Y-8318D02*
Y-7911D01*
X41953D01*
Y-8318D01*
X41547D01*
X41648Y-8216D02*
Y-8013D01*
X41852D01*
Y-8216D01*
X41648D01*
X37597Y-6803D02*
Y-6397D01*
X38003D01*
Y-6803D01*
X37597D01*
X37698Y-6702D02*
Y-6498D01*
X37902D01*
Y-6702D01*
X37698D01*
X38022Y-21179D02*
Y-20772D01*
X38428D01*
Y-21179D01*
X38022D01*
X38123Y-21077D02*
Y-20874D01*
X38327D01*
Y-21077D01*
X38123D01*
X41082Y-21189D02*
Y-20782D01*
X41488D01*
Y-21189D01*
X41082D01*
X41183Y-21087D02*
Y-20884D01*
X41387D01*
Y-21087D01*
X41183D01*
X37571Y-17053D02*
Y-16647D01*
X37977D01*
Y-17053D01*
X37571D01*
X37672Y-16952D02*
Y-16748D01*
X37876D01*
Y-16952D01*
X37672D01*
X41530Y-17078D02*
Y-16672D01*
X41937D01*
Y-17078D01*
X41530D01*
X41632Y-16977D02*
Y-16773D01*
X41835D01*
Y-16977D01*
X41632D01*
X38899Y-11121D02*
Y-10714D01*
X39305D01*
Y-11121D01*
X38899D01*
X39001Y-11019D02*
Y-10816D01*
X39204D01*
Y-11019D01*
X39001D01*
X35675Y-19958D02*
Y-19552D01*
X36081D01*
Y-19958D01*
X35675D01*
X35777Y-19857D02*
Y-19654D01*
X35980D01*
Y-19857D01*
X35777D01*
X35675Y-17258D02*
Y-16852D01*
X36081D01*
Y-17258D01*
X35675D01*
X35777Y-17157D02*
Y-16954D01*
X35980D01*
Y-17157D01*
X35777D01*
X34075Y-19958D02*
Y-19552D01*
X34481D01*
Y-19958D01*
X34075D01*
X34177Y-19857D02*
Y-19654D01*
X34380D01*
Y-19857D01*
X34177D01*
X25080Y-18637D02*
Y-18231D01*
X25486D01*
Y-18637D01*
X25080D01*
X25182Y-18536D02*
Y-18333D01*
X25385D01*
Y-18536D01*
X25182D01*
X-19703Y-13303D02*
Y-12897D01*
X-19297D01*
Y-13303D01*
X-19703D01*
X-19602Y-13202D02*
Y-12998D01*
X-19398D01*
Y-13202D01*
X-19602D01*
X-19703Y-14203D02*
Y-13797D01*
X-19297D01*
Y-14203D01*
X-19703D01*
X-19602Y-14102D02*
Y-13898D01*
X-19398D01*
Y-14102D01*
X-19602D01*
X-18770Y-13303D02*
Y-12897D01*
X-18363D01*
Y-13303D01*
X-18770D01*
X-18668Y-13202D02*
Y-12998D01*
X-18465D01*
Y-13202D01*
X-18668D01*
X-18770Y-14203D02*
Y-13797D01*
X-18363D01*
Y-14203D01*
X-18770D01*
X-18668Y-14102D02*
Y-13898D01*
X-18465D01*
Y-14102D01*
X-18668D01*
X4397Y-3303D02*
Y-2897D01*
X4803D01*
Y-3303D01*
X4397D01*
X4498Y-3202D02*
Y-2998D01*
X4702D01*
Y-3202D01*
X4498D01*
X-16803Y-3203D02*
Y-2797D01*
X-16397D01*
Y-3203D01*
X-16803D01*
X-16702Y-3102D02*
Y-2898D01*
X-16498D01*
Y-3102D01*
X-16702D01*
X-7180Y-11503D02*
Y-11097D01*
X-6773D01*
Y-11503D01*
X-7180D01*
X-7078Y-11402D02*
Y-11198D01*
X-6875D01*
Y-11402D01*
X-7078D01*
X-4703Y-11503D02*
Y-11097D01*
X-4297D01*
Y-11503D01*
X-4703D01*
X-4602Y-11402D02*
Y-11198D01*
X-4398D01*
Y-11402D01*
X-4602D01*
X-4316Y-3636D02*
Y-3230D01*
X-3910D01*
Y-3636D01*
X-4316D01*
X-4214Y-3534D02*
Y-3331D01*
X-4011D01*
Y-3534D01*
X-4214D01*
X-19300Y-3652D02*
Y-3246D01*
X-18894D01*
Y-3652D01*
X-19300D01*
X-19198Y-3551D02*
Y-3347D01*
X-18995D01*
Y-3551D01*
X-19198D01*
X-17837Y-14203D02*
Y-13797D01*
X-17430D01*
Y-14203D01*
X-17837D01*
X-17735Y-14102D02*
Y-13898D01*
X-17532D01*
Y-14102D01*
X-17735D01*
X-17837Y-13303D02*
Y-12897D01*
X-17430D01*
Y-13303D01*
X-17837D01*
X-17735Y-13202D02*
Y-12998D01*
X-17532D01*
Y-13202D01*
X-17735D01*
X-16903Y-14203D02*
Y-13797D01*
X-16497D01*
Y-14203D01*
X-16903D01*
X-16802Y-14102D02*
Y-13898D01*
X-16598D01*
Y-14102D01*
X-16802D01*
X-16903Y-13303D02*
Y-12897D01*
X-16497D01*
Y-13303D01*
X-16903D01*
X-16802Y-13202D02*
Y-12998D01*
X-16598D01*
Y-13202D01*
X-16802D01*
X17203Y-2503D02*
Y-2097D01*
X17609D01*
Y-2503D01*
X17203D01*
X17305Y-2402D02*
Y-2198D01*
X17508D01*
Y-2402D01*
X17305D01*
X-4103Y-2503D02*
Y-2097D01*
X-3697D01*
Y-2503D01*
X-4103D01*
X-4002Y-2402D02*
Y-2198D01*
X-3798D01*
Y-2402D01*
X-4002D01*
X-19023Y-2503D02*
Y-2097D01*
X-18617D01*
Y-2503D01*
X-19023D01*
X-18922Y-2402D02*
Y-2198D01*
X-18718D01*
Y-2402D01*
X-18922D01*
X-34103Y-2503D02*
Y-2097D01*
X-33697D01*
Y-2503D01*
X-34103D01*
X-34002Y-2402D02*
Y-2198D01*
X-33798D01*
Y-2402D01*
X-34002D01*
X-42994Y-15449D02*
Y-15042D01*
X-42588D01*
Y-15449D01*
X-42994D01*
X-42892Y-15347D02*
Y-15144D01*
X-42689D01*
Y-15347D01*
X-42892D01*
X-42994Y-16599D02*
Y-16192D01*
X-42588D01*
Y-16599D01*
X-42994D01*
X-42892Y-16497D02*
Y-16294D01*
X-42689D01*
Y-16497D01*
X-42892D01*
X-42994Y-17749D02*
Y-17342D01*
X-42588D01*
Y-17749D01*
X-42994D01*
X-42892Y-17647D02*
Y-17444D01*
X-42689D01*
Y-17647D01*
X-42892D01*
X-45703Y-17703D02*
Y-17297D01*
X-45297D01*
Y-17703D01*
X-45703D01*
X-45602Y-17602D02*
Y-17398D01*
X-45398D01*
Y-17602D01*
X-45602D01*
X-45703Y-16553D02*
Y-16147D01*
X-45297D01*
Y-16553D01*
X-45703D01*
X-45602Y-16452D02*
Y-16248D01*
X-45398D01*
Y-16452D01*
X-45602D01*
X-45703Y-15403D02*
Y-14997D01*
X-45297D01*
Y-15403D01*
X-45703D01*
X-45602Y-15302D02*
Y-15098D01*
X-45398D01*
Y-15302D01*
X-45602D01*
X17007Y-3586D02*
Y-3179D01*
X17414D01*
Y-3586D01*
X17007D01*
X17109Y-3484D02*
Y-3281D01*
X17312D01*
Y-3484D01*
X17109D01*
X-39251Y-22705D02*
Y-22299D01*
X-38845D01*
Y-22705D01*
X-39251D01*
X-39150Y-22604D02*
Y-22401D01*
X-38947D01*
Y-22604D01*
X-39150D01*
X-43342Y-20281D02*
Y-19874D01*
X-42935D01*
Y-20281D01*
X-43342D01*
X-43240Y-20179D02*
Y-19976D01*
X-43037D01*
Y-20179D01*
X-43240D01*
X-36775Y-3772D02*
Y-3365D01*
X-36368D01*
Y-3772D01*
X-36775D01*
X-36673Y-3670D02*
Y-3467D01*
X-36470D01*
Y-3670D01*
X-36673D01*
X-30332Y-7754D02*
Y-7347D01*
X-29926D01*
Y-7754D01*
X-30332D01*
X-30230Y-7652D02*
Y-7449D01*
X-30027D01*
Y-7652D01*
X-30230D01*
X-31708Y-3317D02*
Y-2910D01*
X-31301D01*
Y-3317D01*
X-31708D01*
X-31606Y-3215D02*
Y-3012D01*
X-31403D01*
Y-3215D01*
X-31606D01*
X41314Y-25587D02*
Y-25180D01*
X41721D01*
Y-25587D01*
X41314D01*
X41416Y-25485D02*
Y-25282D01*
X41619D01*
Y-25485D01*
X41416D01*
X22814Y-25636D02*
Y-25230D01*
X23220D01*
Y-25636D01*
X22814D01*
X22915Y-25534D02*
Y-25331D01*
X23119D01*
Y-25534D01*
X22915D01*
X-22806Y-29924D02*
Y-29518D01*
X-22400D01*
Y-29924D01*
X-22806D01*
X-22705Y-29822D02*
Y-29619D01*
X-22502D01*
Y-29822D01*
X-22705D01*
X-16326Y-29924D02*
Y-29518D01*
X-15920D01*
Y-29924D01*
X-16326D01*
X-16225Y-29822D02*
Y-29619D01*
X-16022D01*
Y-29822D01*
X-16225D01*
X-20587Y-4652D02*
Y-4246D01*
X-20180D01*
Y-4652D01*
X-20587D01*
X-20485Y-4551D02*
Y-4348D01*
X-20282D01*
Y-4551D01*
X-20485D01*
X30763Y11181D02*
Y11588D01*
X31170D01*
Y11181D01*
X30763D01*
X30865Y11283D02*
Y11486D01*
X31068D01*
Y11283D01*
X30865D01*
X30763Y9531D02*
Y9937D01*
X31170D01*
Y9531D01*
X30763D01*
X30865Y9632D02*
Y9835D01*
X31068D01*
Y9632D01*
X30865D01*
X35753Y5539D02*
Y5945D01*
X36159D01*
Y5539D01*
X35753D01*
X35855Y5641D02*
Y5844D01*
X36058D01*
Y5641D01*
X35855D01*
X37175Y12352D02*
Y12758D01*
X37581D01*
Y12352D01*
X37175D01*
X37276Y12453D02*
Y12656D01*
X37479D01*
Y12453D01*
X37276D01*
X44967Y5531D02*
Y5937D01*
X45373D01*
Y5531D01*
X44967D01*
X45069Y5632D02*
Y5836D01*
X45272D01*
Y5632D01*
X45069D01*
X46389Y12344D02*
Y12750D01*
X46795D01*
Y12344D01*
X46389D01*
X46490Y12445D02*
Y12648D01*
X46693D01*
Y12445D01*
X46490D01*
X39977Y11173D02*
Y11580D01*
X40384D01*
Y11173D01*
X39977D01*
X40079Y11275D02*
Y11478D01*
X40282D01*
Y11275D01*
X40079D01*
X39977Y9522D02*
Y9929D01*
X40384D01*
Y9522D01*
X39977D01*
X40079Y9624D02*
Y9827D01*
X40282D01*
Y9624D01*
X40079D01*
X21477Y9522D02*
Y9929D01*
X21884D01*
Y9522D01*
X21477D01*
X21579Y9624D02*
Y9827D01*
X21782D01*
Y9624D01*
X21579D01*
X21477Y11173D02*
Y11580D01*
X21884D01*
Y11173D01*
X21477D01*
X21579Y11275D02*
Y11478D01*
X21782D01*
Y11275D01*
X21579D01*
X27889Y12344D02*
Y12750D01*
X28295D01*
Y12344D01*
X27889D01*
X27990Y12445D02*
Y12648D01*
X28194D01*
Y12445D01*
X27990D01*
X-39845Y-8292D02*
Y-7886D01*
X-39439D01*
Y-8292D01*
X-39845D01*
X-39744Y-8191D02*
Y-7987D01*
X-39541D01*
Y-8191D01*
X-39744D01*
X-15048Y-1162D02*
Y-756D01*
X-14642D01*
Y-1162D01*
X-15048D01*
X-14947Y-1061D02*
Y-857D01*
X-14744D01*
Y-1061D01*
X-14947D01*
X15626Y-4635D02*
Y-4229D01*
X16033D01*
Y-4635D01*
X15626D01*
X15728Y-4534D02*
Y-4330D01*
X15931D01*
Y-4534D01*
X15728D01*
X26467Y5531D02*
Y5937D01*
X26873D01*
Y5531D01*
X26467D01*
X26569Y5632D02*
Y5836D01*
X26772D01*
Y5632D01*
X26569D01*
X-45048Y-1162D02*
Y-756D01*
X-44642D01*
Y-1162D01*
X-45048D01*
X-44947Y-1061D02*
Y-857D01*
X-44743D01*
Y-1061D01*
X-44947D01*
X-45048Y-5462D02*
Y-5056D01*
X-44642D01*
Y-5462D01*
X-45048D01*
X-44947Y-5361D02*
Y-5157D01*
X-44743D01*
Y-5361D01*
X-44947D01*
X-30048Y-1162D02*
Y-756D01*
X-29642D01*
Y-1162D01*
X-30048D01*
X-29947Y-1061D02*
Y-857D01*
X-29743D01*
Y-1061D01*
X-29947D01*
X-5687Y-4652D02*
Y-4246D01*
X-5280D01*
Y-4652D01*
X-5687D01*
X-5585Y-4551D02*
Y-4348D01*
X-5382D01*
Y-4551D01*
X-5585D01*
X6253Y-1162D02*
Y-756D01*
X6659D01*
Y-1162D01*
X6253D01*
X6355Y-1061D02*
Y-857D01*
X6558D01*
Y-1061D01*
X6355D01*
D91*
X46454Y-35300D02*
G03*
X46454Y-35300I-203J0D01*
G01*
X36454D02*
G03*
X36454Y-35300I-203J0D01*
G01*
X41454D02*
G03*
X41454Y-35300I-203J0D01*
G01*
X-20448Y-35300D02*
G03*
X-20448Y-35300I-203J0D01*
G01*
X-25448D02*
G03*
X-25448Y-35300I-203J0D01*
G01*
X26454Y-35300D02*
G03*
X26454Y-35300I-203J0D01*
G01*
X21454D02*
G03*
X21454Y-35300I-203J0D01*
G01*
X31454D02*
G03*
X31454Y-35300I-203J0D01*
G01*
X-35448Y-35300D02*
G03*
X-35448Y-35300I-203J0D01*
G01*
X-30448D02*
G03*
X-30448Y-35300I-203J0D01*
G01*
X-40448D02*
G03*
X-40448Y-35300I-203J0D01*
G01*
X-45448D02*
G03*
X-45448Y-35300I-203J0D01*
G01*
X5854Y35300D02*
G03*
X5854Y35300I-203J0D01*
G01*
X15854D02*
G03*
X15854Y35300I-203J0D01*
G01*
X10854D02*
G03*
X10854Y35300I-203J0D01*
G01*
X45854Y35300D02*
G03*
X45854Y35300I-203J0D01*
G01*
X40854D02*
G03*
X40854Y35300I-203J0D01*
G01*
X-45448D02*
G03*
X-45448Y35300I-203J0D01*
G01*
X-35448D02*
G03*
X-35448Y35300I-203J0D01*
G01*
X-40448D02*
G03*
X-40448Y35300I-203J0D01*
G01*
X35854D02*
G03*
X35854Y35300I-203J0D01*
G01*
X30854D02*
G03*
X30854Y35300I-203J0D01*
G01*
X20854D02*
G03*
X20854Y35300I-203J0D01*
G01*
X25854D02*
G03*
X25854Y35300I-203J0D01*
G01*
X-30448D02*
G03*
X-30448Y35300I-203J0D01*
G01*
X-20448D02*
G03*
X-20448Y35300I-203J0D01*
G01*
X-25448D02*
G03*
X-25448Y35300I-203J0D01*
G01*
X-10448D02*
G03*
X-10448Y35300I-203J0D01*
G01*
X-5448D02*
G03*
X-5448Y35300I-203J0D01*
G01*
X-15448D02*
G03*
X-15448Y35300I-203J0D01*
G01*
X-19507Y-20147D02*
G03*
X-19507Y-20147I-203J0D01*
G01*
X-17139D02*
G03*
X-17139Y-20147I-203J0D01*
G01*
X-17049Y-24596D02*
G03*
X-17049Y-24596I-203J0D01*
G01*
X12562Y-12797D02*
G03*
X12562Y-12797I-203J0D01*
G01*
X4782D02*
G03*
X4782Y-12797I-203J0D01*
G01*
X3285Y-14299D02*
G03*
X3285Y-14299I-203J0D01*
G01*
X27647Y695D02*
G03*
X27647Y695I-203J0D01*
G01*
X33853Y375D02*
G03*
X33853Y375I-203J0D01*
G01*
X35628Y3000D02*
G03*
X35628Y3000I-203J0D01*
G01*
X23927Y3350D02*
G03*
X23927Y3350I-203J0D01*
G01*
X21303Y5200D02*
G03*
X21303Y5200I-203J0D01*
G01*
X-23703Y-25846D02*
G03*
X-23703Y-25846I-203J0D01*
G01*
X6197Y-18700D02*
G03*
X6197Y-18700I-203J0D01*
G01*
X-20122Y-9875D02*
G03*
X-20122Y-9875I-203J0D01*
G01*
X-41889Y-23422D02*
G03*
X-41889Y-23422I-203J0D01*
G01*
X-43686Y-23504D02*
G03*
X-43686Y-23504I-203J0D01*
G01*
X-42777Y-7037D02*
G03*
X-42777Y-7037I-203J0D01*
G01*
X-23060Y-21331D02*
G03*
X-23060Y-21331I-203J0D01*
G01*
X-24728Y-18963D02*
G03*
X-24728Y-18963I-203J0D01*
G01*
X-18323Y-20147D02*
G03*
X-18323Y-20147I-203J0D01*
G01*
X-20692D02*
G03*
X-20692Y-20147I-203J0D01*
G01*
X-21876D02*
G03*
X-21876Y-20147I-203J0D01*
G01*
X-23060D02*
G03*
X-23060Y-20147I-203J0D01*
G01*
X-24244D02*
G03*
X-24244Y-20147I-203J0D01*
G01*
Y-21331D02*
G03*
X-24244Y-21331I-203J0D01*
G01*
X-25428D02*
G03*
X-25428Y-21331I-203J0D01*
G01*
Y-20147D02*
G03*
X-25428Y-20147I-203J0D01*
G01*
X-26613Y-21331D02*
G03*
X-26613Y-21331I-203J0D01*
G01*
Y-20147D02*
G03*
X-26613Y-20147I-203J0D01*
G01*
X-25913Y-18963D02*
G03*
X-25913Y-18963I-203J0D01*
G01*
X-27097D02*
G03*
X-27097Y-18963I-203J0D01*
G01*
X-28281D02*
G03*
X-28281Y-18963I-203J0D01*
G01*
X-28427Y-25658D02*
G03*
X-28427Y-25658I-203J0D01*
G01*
X-47789Y-24589D02*
G03*
X-47789Y-24589I-203J0D01*
G01*
X-36110Y-24592D02*
G03*
X-36110Y-24592I-203J0D01*
G01*
X-34014Y-6263D02*
G03*
X-34014Y-6263I-203J0D01*
G01*
X46070Y-22648D02*
G03*
X46070Y-22648I-203J0D01*
G01*
X44103Y-22667D02*
G03*
X44103Y-22667I-203J0D01*
G01*
X27470Y-22648D02*
G03*
X27470Y-22648I-203J0D01*
G01*
X25503Y-22667D02*
G03*
X25503Y-22667I-203J0D01*
G01*
X40964Y24393D02*
G03*
X40964Y24393I-203J0D01*
G01*
X45641Y29821D02*
G03*
X45641Y29821I-203J0D01*
G01*
X25341D02*
G03*
X25341Y29821I-203J0D01*
G01*
D92*
X-19609Y-20147D02*
G03*
X-19609Y-20147I-102J0D01*
G01*
X-17241D02*
G03*
X-17241Y-20147I-102J0D01*
G01*
X-17151Y-24596D02*
G03*
X-17151Y-24596I-102J0D01*
G01*
X12460Y-12797D02*
G03*
X12460Y-12797I-102J0D01*
G01*
X4680D02*
G03*
X4680Y-12797I-102J0D01*
G01*
X3184Y-14299D02*
G03*
X3184Y-14299I-102J0D01*
G01*
X27546Y695D02*
G03*
X27546Y695I-102J0D01*
G01*
X33752Y375D02*
G03*
X33752Y375I-102J0D01*
G01*
X35527Y3000D02*
G03*
X35527Y3000I-102J0D01*
G01*
X23825Y3350D02*
G03*
X23825Y3350I-102J0D01*
G01*
X21202Y5200D02*
G03*
X21202Y5200I-102J0D01*
G01*
X-23805Y-25846D02*
G03*
X-23805Y-25846I-102J0D01*
G01*
X6095Y-18700D02*
G03*
X6095Y-18700I-102J0D01*
G01*
X-20223Y-9875D02*
G03*
X-20223Y-9875I-102J0D01*
G01*
X-41990Y-23422D02*
G03*
X-41990Y-23422I-102J0D01*
G01*
X-43788Y-23504D02*
G03*
X-43788Y-23504I-102J0D01*
G01*
X-42879Y-7037D02*
G03*
X-42879Y-7037I-102J0D01*
G01*
X-23162Y-21331D02*
G03*
X-23162Y-21331I-102J0D01*
G01*
X-24830Y-18963D02*
G03*
X-24830Y-18963I-102J0D01*
G01*
X-18425Y-20147D02*
G03*
X-18425Y-20147I-102J0D01*
G01*
X-20793D02*
G03*
X-20793Y-20147I-102J0D01*
G01*
X-21977D02*
G03*
X-21977Y-20147I-102J0D01*
G01*
X-23162D02*
G03*
X-23162Y-20147I-102J0D01*
G01*
X-24346D02*
G03*
X-24346Y-20147I-102J0D01*
G01*
Y-21331D02*
G03*
X-24346Y-21331I-102J0D01*
G01*
X-25530D02*
G03*
X-25530Y-21331I-102J0D01*
G01*
Y-20147D02*
G03*
X-25530Y-20147I-102J0D01*
G01*
X-26714Y-21331D02*
G03*
X-26714Y-21331I-102J0D01*
G01*
Y-20147D02*
G03*
X-26714Y-20147I-102J0D01*
G01*
X-26014Y-18963D02*
G03*
X-26014Y-18963I-102J0D01*
G01*
X-27198D02*
G03*
X-27198Y-18963I-102J0D01*
G01*
X-28383D02*
G03*
X-28383Y-18963I-102J0D01*
G01*
X-28529Y-25658D02*
G03*
X-28529Y-25658I-102J0D01*
G01*
X-47890Y-24589D02*
G03*
X-47890Y-24589I-102J0D01*
G01*
X-36212Y-24592D02*
G03*
X-36212Y-24592I-102J0D01*
G01*
X-34116Y-6263D02*
G03*
X-34116Y-6263I-102J0D01*
G01*
X45969Y-22648D02*
G03*
X45969Y-22648I-102J0D01*
G01*
X44001Y-22667D02*
G03*
X44001Y-22667I-102J0D01*
G01*
X27369Y-22648D02*
G03*
X27369Y-22648I-102J0D01*
G01*
X25401Y-22667D02*
G03*
X25401Y-22667I-102J0D01*
G01*
X40862Y24393D02*
G03*
X40862Y24393I-102J0D01*
G01*
X45540Y29821D02*
G03*
X45540Y29821I-102J0D01*
G01*
X25240D02*
G03*
X25240Y29821I-102J0D01*
G01*
M02*
