G04*
G04 #@! TF.GenerationSoftware,Altium Limited,Altium Designer,22.10.1 (41)*
G04*
G04 Layer_Color=128*
%FSLAX43Y43*%
%MOMM*%
G71*
G04*
G04 #@! TF.SameCoordinates,12196C2A-3433-47B0-B4A9-8DE0C645B0E6*
G04*
G04*
G04 #@! TF.FilePolarity,Positive*
G04*
G01*
G75*
%ADD90C,0.051*%
D90*
X7491Y2286D02*
X8811D01*
X8151Y1626D02*
Y2946D01*
X14991Y2286D02*
X16311D01*
X15651Y1626D02*
Y2946D01*
X7491Y22586D02*
X8811D01*
X8151Y21926D02*
Y23246D01*
X14991Y19086D02*
X16311D01*
X15651Y18426D02*
Y19746D01*
X14991Y26086D02*
X16311D01*
X15651Y25426D02*
Y26746D01*
X-6311Y26086D02*
X-4991D01*
X-5651Y25426D02*
Y26746D01*
X-6311Y19086D02*
X-4991D01*
X-5651Y18426D02*
Y19746D01*
X-13811Y22586D02*
X-12491D01*
X-13151Y21926D02*
Y23246D01*
X-6311Y2286D02*
X-4991D01*
X-5651Y1626D02*
Y2946D01*
X-13811Y2286D02*
X-12491D01*
X-13151Y1626D02*
Y2946D01*
X-28811Y2286D02*
X-27491D01*
X-28151Y1626D02*
Y2946D01*
X-21311Y2286D02*
X-19991D01*
X-20651Y1626D02*
Y2946D01*
X-28811Y22586D02*
X-27491D01*
X-28151Y21926D02*
Y23246D01*
X-21311Y19086D02*
X-19991D01*
X-20651Y18426D02*
Y19746D01*
X-21311Y26086D02*
X-19991D01*
X-20651Y25426D02*
Y26746D01*
X-36311Y26086D02*
X-34991D01*
X-35651Y25426D02*
Y26746D01*
X-36311Y19086D02*
X-34991D01*
X-35651Y18426D02*
Y19746D01*
X-43811Y22586D02*
X-42491D01*
X-43151Y21926D02*
Y23246D01*
X-36311Y2286D02*
X-34991D01*
X-35651Y1626D02*
Y2946D01*
X-43811Y2286D02*
X-42491D01*
X-43151Y1626D02*
Y2946D01*
X15775Y-30165D02*
X18075D01*
X16925Y-31315D02*
Y-29015D01*
X3735Y-30165D02*
X6035D01*
X4885Y-31315D02*
Y-29015D01*
X11695Y-27455D02*
X12615D01*
X12155Y-27915D02*
Y-26995D01*
X9195Y-27455D02*
X10115D01*
X9655Y-27915D02*
Y-26995D01*
X11695Y-25455D02*
X12615D01*
X12155Y-25915D02*
Y-24995D01*
X9195Y-25455D02*
X10115D01*
X9655Y-25915D02*
Y-24995D01*
X33280Y-2742D02*
X34280D01*
X33780Y-3242D02*
Y-2242D01*
X35820Y-2742D02*
X36820D01*
X36320Y-3242D02*
Y-2242D01*
X38360Y-2742D02*
X39360D01*
X38860Y-3242D02*
Y-2242D01*
X40900Y-2742D02*
X41900D01*
X41400Y-3242D02*
Y-2242D01*
X45980Y-2742D02*
X46980D01*
X46480Y-3242D02*
Y-2242D01*
X43440Y-2742D02*
X44440D01*
X43940Y-3242D02*
Y-2242D01*
X45063Y-14587D02*
X45763D01*
X45413Y-14937D02*
Y-14237D01*
X45063Y-9707D02*
X45763D01*
X45413Y-10057D02*
Y-9357D01*
X43447Y1068D02*
X44447D01*
X43947Y568D02*
Y1568D01*
X45987Y1068D02*
X46987D01*
X46487Y568D02*
Y1568D01*
X45551Y-35300D02*
X46951D01*
X46251Y-36000D02*
Y-34600D01*
X35551Y-35300D02*
X36951D01*
X36251Y-36000D02*
Y-34600D01*
X40551Y-35300D02*
X41951D01*
X41251Y-36000D02*
Y-34600D01*
X-21351Y-35300D02*
X-19951D01*
X-20651Y-36000D02*
Y-34600D01*
X-26351Y-35300D02*
X-24951D01*
X-25651Y-36000D02*
Y-34600D01*
X25551Y-35300D02*
X26951D01*
X26251Y-36000D02*
Y-34600D01*
X20551Y-35300D02*
X21951D01*
X21251Y-36000D02*
Y-34600D01*
X30551Y-35300D02*
X31951D01*
X31251Y-36000D02*
Y-34600D01*
X-36351Y-35300D02*
X-34951D01*
X-35651Y-36000D02*
Y-34600D01*
X-31351Y-35300D02*
X-29951D01*
X-30651Y-36000D02*
Y-34600D01*
X-41351Y-35300D02*
X-39951D01*
X-40651Y-36000D02*
Y-34600D01*
X-46351Y-35300D02*
X-44951D01*
X-45651Y-36000D02*
Y-34600D01*
X4951Y35300D02*
X6351D01*
X5651Y34600D02*
Y36000D01*
X14951Y35300D02*
X16351D01*
X15651Y34600D02*
Y36000D01*
X9951Y35300D02*
X11351D01*
X10651Y34600D02*
Y36000D01*
X44951Y35300D02*
X46351D01*
X45651Y34600D02*
Y36000D01*
X39951Y35300D02*
X41351D01*
X40651Y34600D02*
Y36000D01*
X-46351Y35300D02*
X-44951D01*
X-45651Y34600D02*
Y36000D01*
X-36351Y35300D02*
X-34951D01*
X-35651Y34600D02*
Y36000D01*
X-41351Y35300D02*
X-39951D01*
X-40651Y34600D02*
Y36000D01*
X30000Y-27500D02*
X35000D01*
X32500Y-30000D02*
Y-25000D01*
X-35000Y-27500D02*
X-30000D01*
X-32500Y-30000D02*
Y-25000D01*
X30000Y27500D02*
X35000D01*
X32500Y25000D02*
Y30000D01*
X34951Y35300D02*
X36351D01*
X35651Y34600D02*
Y36000D01*
X29951Y35300D02*
X31351D01*
X30651Y34600D02*
Y36000D01*
X19951Y35300D02*
X21351D01*
X20651Y34600D02*
Y36000D01*
X24951Y35300D02*
X26351D01*
X25651Y34600D02*
Y36000D01*
X-31351Y35300D02*
X-29951D01*
X-30651Y34600D02*
Y36000D01*
X-21351Y35300D02*
X-19951D01*
X-20651Y34600D02*
Y36000D01*
X-26351Y35300D02*
X-24951D01*
X-25651Y34600D02*
Y36000D01*
X-11351Y35300D02*
X-9951D01*
X-10651Y34600D02*
Y36000D01*
X-6351Y35300D02*
X-4951D01*
X-5651Y34600D02*
Y36000D01*
X-16351Y35300D02*
X-14951D01*
X-15651Y34600D02*
Y36000D01*
X25132Y-14363D02*
X25432D01*
X25282Y-14514D02*
Y-14214D01*
X13640Y-20166D02*
X13940D01*
X13790Y-20316D02*
Y-20016D01*
X-19961Y-20147D02*
X-19461D01*
X-19711Y-20397D02*
Y-19897D01*
X17945Y-25027D02*
X18245D01*
X18095Y-25177D02*
Y-24877D01*
X-12573Y-13576D02*
X-12273D01*
X-12423Y-13726D02*
Y-13426D01*
X2753Y-12197D02*
X3053D01*
X2903Y-12347D02*
Y-12047D01*
X-11764Y-16126D02*
X-11464D01*
X-11614Y-16276D02*
Y-15976D01*
X-17592Y-20147D02*
X-17092D01*
X-17342Y-20397D02*
Y-19897D01*
X-17502Y-24596D02*
X-17002D01*
X-17252Y-24846D02*
Y-24346D01*
X28654Y-4539D02*
X28954D01*
X28804Y-4689D02*
Y-4389D01*
X27063Y-4548D02*
X27363D01*
X27213Y-4698D02*
Y-4398D01*
X34754Y-6651D02*
X35054D01*
X34904Y-6801D02*
Y-6501D01*
X12806Y-18660D02*
X13106D01*
X12956Y-18810D02*
Y-18510D01*
X11906Y-18660D02*
X12206D01*
X12056Y-18810D02*
Y-18510D01*
X12806Y-17727D02*
X13106D01*
X12956Y-17877D02*
Y-17577D01*
X11906Y-17727D02*
X12206D01*
X12056Y-17877D02*
Y-17577D01*
X11906Y-16793D02*
X12206D01*
X12056Y-16943D02*
Y-16643D01*
X12806Y-16793D02*
X13106D01*
X12956Y-16943D02*
Y-16643D01*
X29644Y-9188D02*
X29944D01*
X29794Y-9338D02*
Y-9038D01*
X32644Y-9188D02*
X32944D01*
X32794Y-9338D02*
Y-9038D01*
X33638Y-15106D02*
X33938D01*
X33788Y-15256D02*
Y-14956D01*
X34320Y-10417D02*
X34620D01*
X34470Y-10567D02*
Y-10267D01*
X34250Y-11400D02*
X34550D01*
X34400Y-11550D02*
Y-11250D01*
X37495Y-25383D02*
X37795D01*
X37645Y-25534D02*
Y-25233D01*
X39433Y-25383D02*
X39734D01*
X39583Y-25534D02*
Y-25233D01*
X20850Y-11800D02*
X21150D01*
X21000Y-11950D02*
Y-11650D01*
X38921Y-9316D02*
X39221D01*
X39071Y-9466D02*
Y-9166D01*
X36477Y-8437D02*
X36777D01*
X36627Y-8587D02*
Y-8287D01*
X20089Y-14535D02*
X20389D01*
X20239Y-14685D02*
Y-14385D01*
X20089Y-13585D02*
X20389D01*
X20239Y-13735D02*
Y-13435D01*
X12109Y-12797D02*
X12609D01*
X12359Y-13047D02*
Y-12547D01*
X4329Y-12797D02*
X4829D01*
X4579Y-13047D02*
Y-12547D01*
X2832Y-14299D02*
X3332D01*
X3082Y-14549D02*
Y-14049D01*
X20089Y-12600D02*
X20389D01*
X20239Y-12750D02*
Y-12450D01*
X20089Y-10761D02*
X20389D01*
X20239Y-10911D02*
Y-10611D01*
X41150Y-4600D02*
X41450D01*
X41300Y-4750D02*
Y-4450D01*
X30644Y-9188D02*
X30944D01*
X30794Y-9338D02*
Y-9038D01*
X28744Y-9188D02*
X29044D01*
X28894Y-9338D02*
Y-9038D01*
X28432Y-14394D02*
X28732D01*
X28582Y-14544D02*
Y-14244D01*
X29750Y-2500D02*
X30050D01*
X29900Y-2650D02*
Y-2350D01*
X29750Y-1500D02*
X30050D01*
X29900Y-1650D02*
Y-1350D01*
X30750Y-4000D02*
X31050D01*
X30900Y-4150D02*
Y-3850D01*
X30750Y-3000D02*
X31050D01*
X30900Y-3150D02*
Y-2850D01*
X30750Y-2000D02*
X31050D01*
X30900Y-2150D02*
Y-1850D01*
X30750Y-1000D02*
X31050D01*
X30900Y-1150D02*
Y-850D01*
X21826Y-1773D02*
X22126D01*
X21976Y-1923D02*
Y-1623D01*
X21826Y-873D02*
X22126D01*
X21976Y-1023D02*
Y-723D01*
X20893Y-1773D02*
X21193D01*
X21043Y-1923D02*
Y-1623D01*
X20893Y-873D02*
X21193D01*
X21043Y-1023D02*
Y-723D01*
X19960Y-873D02*
X20260D01*
X20110Y-1023D02*
Y-723D01*
X19960Y-1773D02*
X20260D01*
X20110Y-1923D02*
Y-1623D01*
X40651Y3600D02*
X40951D01*
X40801Y3450D02*
Y3750D01*
X32154Y-21248D02*
X32454D01*
X32304Y-21398D02*
Y-21098D01*
X47000Y4972D02*
X47300D01*
X47150Y4822D02*
Y5122D01*
X41600Y-8114D02*
X41900D01*
X41750Y-8264D02*
Y-7964D01*
X37650Y-6600D02*
X37950D01*
X37800Y-6750D02*
Y-6450D01*
X38075Y-20975D02*
X38375D01*
X38225Y-21125D02*
Y-20825D01*
X41135Y-20985D02*
X41435D01*
X41285Y-21135D02*
Y-20835D01*
X37624Y-16850D02*
X37924D01*
X37774Y-17000D02*
Y-16700D01*
X41584Y-16875D02*
X41884D01*
X41734Y-17025D02*
Y-16725D01*
X38952Y-10918D02*
X39252D01*
X39102Y-11068D02*
Y-10768D01*
X35728Y-19755D02*
X36028D01*
X35878Y-19905D02*
Y-19605D01*
X35728Y-17055D02*
X36028D01*
X35878Y-17205D02*
Y-16905D01*
X34128Y-19755D02*
X34428D01*
X34278Y-19905D02*
Y-19605D01*
X25133Y-18434D02*
X25433D01*
X25283Y-18584D02*
Y-18284D01*
X-19650Y-13100D02*
X-19350D01*
X-19500Y-13250D02*
Y-12950D01*
X-19650Y-14000D02*
X-19350D01*
X-19500Y-14150D02*
Y-13850D01*
X-18717Y-13100D02*
X-18417D01*
X-18567Y-13250D02*
Y-12950D01*
X-18717Y-14000D02*
X-18417D01*
X-18567Y-14150D02*
Y-13850D01*
X27194Y695D02*
X27694D01*
X27444Y445D02*
Y945D01*
X33400Y375D02*
X33900D01*
X33650Y125D02*
Y625D01*
X35175Y3000D02*
X35675D01*
X35425Y2750D02*
Y3250D01*
X23473Y3350D02*
X23973D01*
X23723Y3100D02*
Y3600D01*
X20850Y5200D02*
X21350D01*
X21100Y4950D02*
Y5450D01*
X4450Y-3100D02*
X4750D01*
X4600Y-3250D02*
Y-2950D01*
X-16750Y-3000D02*
X-16450D01*
X-16600Y-3150D02*
Y-2850D01*
X-24156Y-25846D02*
X-23656D01*
X-23906Y-26096D02*
Y-25596D01*
X5744Y-18700D02*
X6244D01*
X5994Y-18950D02*
Y-18450D01*
X-7127Y-11300D02*
X-6827D01*
X-6977Y-11450D02*
Y-11150D01*
X-4650Y-11300D02*
X-4350D01*
X-4500Y-11450D02*
Y-11150D01*
X-4263Y-3433D02*
X-3963D01*
X-4113Y-3583D02*
Y-3283D01*
X-19247Y-3449D02*
X-18947D01*
X-19097Y-3599D02*
Y-3299D01*
X-17783Y-14000D02*
X-17483D01*
X-17633Y-14150D02*
Y-13850D01*
X-17783Y-13100D02*
X-17483D01*
X-17633Y-13250D02*
Y-12950D01*
X-16850Y-14000D02*
X-16550D01*
X-16700Y-14150D02*
Y-13850D01*
X-16850Y-13100D02*
X-16550D01*
X-16700Y-13250D02*
Y-12950D01*
X-20575Y-9875D02*
X-20075D01*
X-20325Y-10125D02*
Y-9625D01*
X17256Y-2300D02*
X17556D01*
X17406Y-2450D02*
Y-2150D01*
X-4050Y-2300D02*
X-3750D01*
X-3900Y-2450D02*
Y-2150D01*
X-18970Y-2300D02*
X-18670D01*
X-18820Y-2450D02*
Y-2150D01*
X-34050Y-2300D02*
X-33750D01*
X-33900Y-2450D02*
Y-2150D01*
X-42342Y-23422D02*
X-41842D01*
X-42092Y-23672D02*
Y-23172D01*
X-44140Y-23504D02*
X-43640D01*
X-43890Y-23754D02*
Y-23254D01*
X-43230Y-7037D02*
X-42730D01*
X-42980Y-7287D02*
Y-6787D01*
X-42941Y-15245D02*
X-42641D01*
X-42791Y-15395D02*
Y-15095D01*
X-42941Y-16395D02*
X-42641D01*
X-42791Y-16545D02*
Y-16245D01*
X-42941Y-17545D02*
X-42641D01*
X-42791Y-17695D02*
Y-17395D01*
X-45650Y-17500D02*
X-45350D01*
X-45500Y-17650D02*
Y-17350D01*
X-45650Y-16350D02*
X-45350D01*
X-45500Y-16500D02*
Y-16200D01*
X-45650Y-15200D02*
X-45350D01*
X-45500Y-15350D02*
Y-15050D01*
X17061Y-3382D02*
X17361D01*
X17211Y-3532D02*
Y-3232D01*
X-23513Y-21331D02*
X-23013D01*
X-23263Y-21581D02*
Y-21081D01*
X-25182Y-18963D02*
X-24682D01*
X-24932Y-19213D02*
Y-18713D01*
X-18776Y-20147D02*
X-18276D01*
X-18526Y-20397D02*
Y-19897D01*
X-21145Y-20147D02*
X-20645D01*
X-20895Y-20397D02*
Y-19897D01*
X-22329Y-20147D02*
X-21829D01*
X-22079Y-20397D02*
Y-19897D01*
X-23513Y-20147D02*
X-23013D01*
X-23263Y-20397D02*
Y-19897D01*
X-24697Y-20147D02*
X-24197D01*
X-24447Y-20397D02*
Y-19897D01*
X-24697Y-21331D02*
X-24197D01*
X-24447Y-21581D02*
Y-21081D01*
X-25882Y-21331D02*
X-25382D01*
X-25632Y-21581D02*
Y-21081D01*
X-25882Y-20147D02*
X-25382D01*
X-25632Y-20397D02*
Y-19897D01*
X-27066Y-21331D02*
X-26566D01*
X-26816Y-21581D02*
Y-21081D01*
X-27066Y-20147D02*
X-26566D01*
X-26816Y-20397D02*
Y-19897D01*
X-26366Y-18963D02*
X-25866D01*
X-26116Y-19213D02*
Y-18713D01*
X-27550Y-18963D02*
X-27050D01*
X-27300Y-19213D02*
Y-18713D01*
X-28734Y-18963D02*
X-28234D01*
X-28484Y-19213D02*
Y-18713D01*
X-28880Y-25658D02*
X-28380D01*
X-28630Y-25908D02*
Y-25408D01*
X-48242Y-24589D02*
X-47742D01*
X-47992Y-24839D02*
Y-24339D01*
X-39198Y-22502D02*
X-38898D01*
X-39048Y-22652D02*
Y-22352D01*
X-43288Y-20077D02*
X-42988D01*
X-43138Y-20227D02*
Y-19927D01*
X-36563Y-24592D02*
X-36063D01*
X-36313Y-24842D02*
Y-24342D01*
X-36721Y-3569D02*
X-36421D01*
X-36571Y-3719D02*
Y-3419D01*
X-30279Y-7551D02*
X-29979D01*
X-30129Y-7701D02*
Y-7401D01*
X-34467Y-6263D02*
X-33967D01*
X-34217Y-6513D02*
Y-6013D01*
X-31654Y-3113D02*
X-31354D01*
X-31504Y-3263D02*
Y-2963D01*
X41367Y-25383D02*
X41667D01*
X41517Y-25534D02*
Y-25233D01*
X22867Y-25433D02*
X23167D01*
X23017Y-25583D02*
Y-25283D01*
X45617Y-22648D02*
X46117D01*
X45867Y-22898D02*
Y-22398D01*
X43650Y-22667D02*
X44150D01*
X43900Y-22917D02*
Y-22417D01*
X27017Y-22648D02*
X27517D01*
X27267Y-22898D02*
Y-22398D01*
X25050Y-22667D02*
X25550D01*
X25300Y-22917D02*
Y-22417D01*
X-22753Y-29721D02*
X-22453D01*
X-22603Y-29871D02*
Y-29571D01*
X-16273Y-29721D02*
X-15973D01*
X-16123Y-29871D02*
Y-29571D01*
X-20533Y-4449D02*
X-20233D01*
X-20383Y-4599D02*
Y-4299D01*
X30816Y11385D02*
X31116D01*
X30966Y11235D02*
Y11535D01*
X30816Y9734D02*
X31116D01*
X30966Y9584D02*
Y9884D01*
X35806Y5742D02*
X36106D01*
X35956Y5592D02*
Y5892D01*
X37228Y12555D02*
X37528D01*
X37378Y12405D02*
Y12705D01*
X40511Y24393D02*
X41011D01*
X40761Y24143D02*
Y24643D01*
X45020Y5734D02*
X45320D01*
X45170Y5584D02*
Y5884D01*
X46442Y12547D02*
X46742D01*
X46592Y12397D02*
Y12697D01*
X45188Y29821D02*
X45688D01*
X45438Y29571D02*
Y30071D01*
X40031Y11376D02*
X40331D01*
X40181Y11226D02*
Y11526D01*
X40031Y9726D02*
X40331D01*
X40181Y9576D02*
Y9876D01*
X21531Y9726D02*
X21831D01*
X21681Y9576D02*
Y9876D01*
X21531Y11376D02*
X21831D01*
X21681Y11226D02*
Y11526D01*
X24888Y29821D02*
X25388D01*
X25138Y29571D02*
Y30071D01*
X27942Y12547D02*
X28242D01*
X28092Y12397D02*
Y12697D01*
X-39792Y-8089D02*
X-39492D01*
X-39642Y-8239D02*
Y-7939D01*
X-14995Y-959D02*
X-14695D01*
X-14845Y-1109D02*
Y-809D01*
X15680Y-4432D02*
X15980D01*
X15830Y-4582D02*
Y-4282D01*
X26520Y5734D02*
X26820D01*
X26670Y5584D02*
Y5884D01*
X-44995Y-959D02*
X-44695D01*
X-44845Y-1109D02*
Y-809D01*
X-44995Y-5259D02*
X-44695D01*
X-44845Y-5409D02*
Y-5109D01*
X-29995Y-959D02*
X-29695D01*
X-29845Y-1109D02*
Y-809D01*
X-5633Y-4449D02*
X-5333D01*
X-5483Y-4599D02*
Y-4299D01*
X6306Y-959D02*
X6606D01*
X6456Y-1109D02*
Y-809D01*
M02*
