G04*
G04 #@! TF.GenerationSoftware,Altium Limited,Altium Designer,22.10.1 (41)*
G04*
G04 Layer_Color=8388736*
%FSLAX43Y43*%
%MOMM*%
G71*
G04*
G04 #@! TF.SameCoordinates,12196C2A-3433-47B0-B4A9-8DE0C645B0E6*
G04*
G04*
G04 #@! TF.FilePolarity,Negative*
G04*
G01*
G75*
G04:AMPARAMS|DCode=39|XSize=2.952mm|YSize=1.402mm|CornerRadius=0.232mm|HoleSize=0mm|Usage=FLASHONLY|Rotation=0.000|XOffset=0mm|YOffset=0mm|HoleType=Round|Shape=RoundedRectangle|*
%AMROUNDEDRECTD39*
21,1,2.952,0.938,0,0,0.0*
21,1,2.487,1.402,0,0,0.0*
1,1,0.465,1.244,-0.469*
1,1,0.465,-1.244,-0.469*
1,1,0.465,-1.244,0.469*
1,1,0.465,1.244,0.469*
%
%ADD39ROUNDEDRECTD39*%
G04:AMPARAMS|DCode=40|XSize=1.252mm|YSize=1.852mm|CornerRadius=0.214mm|HoleSize=0mm|Usage=FLASHONLY|Rotation=180.000|XOffset=0mm|YOffset=0mm|HoleType=Round|Shape=RoundedRectangle|*
%AMROUNDEDRECTD40*
21,1,1.252,1.425,0,0,180.0*
21,1,0.825,1.852,0,0,180.0*
1,1,0.427,-0.413,0.713*
1,1,0.427,0.413,0.713*
1,1,0.427,0.413,-0.713*
1,1,0.427,-0.413,-0.713*
%
%ADD40ROUNDEDRECTD40*%
G04:AMPARAMS|DCode=41|XSize=2.152mm|YSize=1.352mm|CornerRadius=0.226mm|HoleSize=0mm|Usage=FLASHONLY|Rotation=180.000|XOffset=0mm|YOffset=0mm|HoleType=Round|Shape=RoundedRectangle|*
%AMROUNDEDRECTD41*
21,1,2.152,0.900,0,0,180.0*
21,1,1.700,1.352,0,0,180.0*
1,1,0.452,-0.850,0.450*
1,1,0.452,0.850,0.450*
1,1,0.452,0.850,-0.450*
1,1,0.452,-0.850,-0.450*
%
%ADD41ROUNDEDRECTD41*%
G04:AMPARAMS|DCode=42|XSize=0.4mm|YSize=1.3mm|CornerRadius=0.125mm|HoleSize=0mm|Usage=FLASHONLY|Rotation=270.000|XOffset=0mm|YOffset=0mm|HoleType=Round|Shape=RoundedRectangle|*
%AMROUNDEDRECTD42*
21,1,0.400,1.050,0,0,270.0*
21,1,0.150,1.300,0,0,270.0*
1,1,0.250,-0.525,-0.075*
1,1,0.250,-0.525,0.075*
1,1,0.250,0.525,0.075*
1,1,0.250,0.525,-0.075*
%
%ADD42ROUNDEDRECTD42*%
G04:AMPARAMS|DCode=43|XSize=0.4mm|YSize=1.3mm|CornerRadius=0.125mm|HoleSize=0mm|Usage=FLASHONLY|Rotation=180.000|XOffset=0mm|YOffset=0mm|HoleType=Round|Shape=RoundedRectangle|*
%AMROUNDEDRECTD43*
21,1,0.400,1.050,0,0,180.0*
21,1,0.150,1.300,0,0,180.0*
1,1,0.250,-0.075,0.525*
1,1,0.250,0.075,0.525*
1,1,0.250,0.075,-0.525*
1,1,0.250,-0.075,-0.525*
%
%ADD43ROUNDEDRECTD43*%
G04:AMPARAMS|DCode=44|XSize=1.072mm|YSize=1.232mm|CornerRadius=0.191mm|HoleSize=0mm|Usage=FLASHONLY|Rotation=180.000|XOffset=0mm|YOffset=0mm|HoleType=Round|Shape=RoundedRectangle|*
%AMROUNDEDRECTD44*
21,1,1.072,0.850,0,0,180.0*
21,1,0.690,1.232,0,0,180.0*
1,1,0.382,-0.345,0.425*
1,1,0.382,0.345,0.425*
1,1,0.382,0.345,-0.425*
1,1,0.382,-0.345,-0.425*
%
%ADD44ROUNDEDRECTD44*%
G04:AMPARAMS|DCode=45|XSize=0.782mm|YSize=1.392mm|CornerRadius=0.155mm|HoleSize=0mm|Usage=FLASHONLY|Rotation=270.000|XOffset=0mm|YOffset=0mm|HoleType=Round|Shape=RoundedRectangle|*
%AMROUNDEDRECTD45*
21,1,0.782,1.083,0,0,270.0*
21,1,0.472,1.392,0,0,270.0*
1,1,0.310,-0.541,-0.236*
1,1,0.310,-0.541,0.236*
1,1,0.310,0.541,0.236*
1,1,0.310,0.541,-0.236*
%
%ADD45ROUNDEDRECTD45*%
%ADD46C,1.152*%
G04:AMPARAMS|DCode=47|XSize=1.092mm|YSize=1.182mm|CornerRadius=0.194mm|HoleSize=0mm|Usage=FLASHONLY|Rotation=180.000|XOffset=0mm|YOffset=0mm|HoleType=Round|Shape=RoundedRectangle|*
%AMROUNDEDRECTD47*
21,1,1.092,0.795,0,0,180.0*
21,1,0.705,1.182,0,0,180.0*
1,1,0.387,-0.353,0.398*
1,1,0.387,0.353,0.398*
1,1,0.387,0.353,-0.398*
1,1,0.387,-0.353,-0.398*
%
%ADD47ROUNDEDRECTD47*%
G04:AMPARAMS|DCode=48|XSize=0.752mm|YSize=1.152mm|CornerRadius=0.151mm|HoleSize=0mm|Usage=FLASHONLY|Rotation=270.000|XOffset=0mm|YOffset=0mm|HoleType=Round|Shape=RoundedRectangle|*
%AMROUNDEDRECTD48*
21,1,0.752,0.850,0,0,270.0*
21,1,0.450,1.152,0,0,270.0*
1,1,0.302,-0.425,-0.225*
1,1,0.302,-0.425,0.225*
1,1,0.302,0.425,0.225*
1,1,0.302,0.425,-0.225*
%
%ADD48ROUNDEDRECTD48*%
G04:AMPARAMS|DCode=49|XSize=1.072mm|YSize=1.232mm|CornerRadius=0.191mm|HoleSize=0mm|Usage=FLASHONLY|Rotation=90.000|XOffset=0mm|YOffset=0mm|HoleType=Round|Shape=RoundedRectangle|*
%AMROUNDEDRECTD49*
21,1,1.072,0.850,0,0,90.0*
21,1,0.690,1.232,0,0,90.0*
1,1,0.382,0.425,0.345*
1,1,0.382,0.425,-0.345*
1,1,0.382,-0.425,-0.345*
1,1,0.382,-0.425,0.345*
%
%ADD49ROUNDEDRECTD49*%
G04:AMPARAMS|DCode=50|XSize=2.952mm|YSize=1.402mm|CornerRadius=0.232mm|HoleSize=0mm|Usage=FLASHONLY|Rotation=270.000|XOffset=0mm|YOffset=0mm|HoleType=Round|Shape=RoundedRectangle|*
%AMROUNDEDRECTD50*
21,1,2.952,0.938,0,0,270.0*
21,1,2.487,1.402,0,0,270.0*
1,1,0.465,-0.469,-1.244*
1,1,0.465,-0.469,1.244*
1,1,0.465,0.469,1.244*
1,1,0.465,0.469,-1.244*
%
%ADD50ROUNDEDRECTD50*%
G04:AMPARAMS|DCode=51|XSize=1.092mm|YSize=1.182mm|CornerRadius=0.194mm|HoleSize=0mm|Usage=FLASHONLY|Rotation=90.000|XOffset=0mm|YOffset=0mm|HoleType=Round|Shape=RoundedRectangle|*
%AMROUNDEDRECTD51*
21,1,1.092,0.795,0,0,90.0*
21,1,0.705,1.182,0,0,90.0*
1,1,0.387,0.398,0.353*
1,1,0.387,0.398,-0.353*
1,1,0.387,-0.398,-0.353*
1,1,0.387,-0.398,0.353*
%
%ADD51ROUNDEDRECTD51*%
G04:AMPARAMS|DCode=52|XSize=1.022mm|YSize=1.352mm|CornerRadius=0.294mm|HoleSize=0mm|Usage=FLASHONLY|Rotation=270.000|XOffset=0mm|YOffset=0mm|HoleType=Round|Shape=RoundedRectangle|*
%AMROUNDEDRECTD52*
21,1,1.022,0.765,0,0,270.0*
21,1,0.435,1.352,0,0,270.0*
1,1,0.587,-0.383,-0.217*
1,1,0.587,-0.383,0.217*
1,1,0.587,0.383,0.217*
1,1,0.587,0.383,-0.217*
%
%ADD52ROUNDEDRECTD52*%
G04:AMPARAMS|DCode=53|XSize=0.752mm|YSize=1.202mm|CornerRadius=0.151mm|HoleSize=0mm|Usage=FLASHONLY|Rotation=90.000|XOffset=0mm|YOffset=0mm|HoleType=Round|Shape=RoundedRectangle|*
%AMROUNDEDRECTD53*
21,1,0.752,0.900,0,0,90.0*
21,1,0.450,1.202,0,0,90.0*
1,1,0.302,0.450,0.225*
1,1,0.302,0.450,-0.225*
1,1,0.302,-0.450,-0.225*
1,1,0.302,-0.450,0.225*
%
%ADD53ROUNDEDRECTD53*%
G04:AMPARAMS|DCode=54|XSize=2.895mm|YSize=2.311mm|CornerRadius=0.346mm|HoleSize=0mm|Usage=FLASHONLY|Rotation=180.000|XOffset=0mm|YOffset=0mm|HoleType=Round|Shape=RoundedRectangle|*
%AMROUNDEDRECTD54*
21,1,2.895,1.619,0,0,180.0*
21,1,2.203,2.311,0,0,180.0*
1,1,0.692,-1.102,0.810*
1,1,0.692,1.102,0.810*
1,1,0.692,1.102,-0.810*
1,1,0.692,-1.102,-0.810*
%
%ADD54ROUNDEDRECTD54*%
G04:AMPARAMS|DCode=55|XSize=10.152mm|YSize=3.752mm|CornerRadius=0.976mm|HoleSize=0mm|Usage=FLASHONLY|Rotation=90.000|XOffset=0mm|YOffset=0mm|HoleType=Round|Shape=RoundedRectangle|*
%AMROUNDEDRECTD55*
21,1,10.152,1.800,0,0,90.0*
21,1,8.200,3.752,0,0,90.0*
1,1,1.952,0.900,4.100*
1,1,1.952,0.900,-4.100*
1,1,1.952,-0.900,-4.100*
1,1,1.952,-0.900,4.100*
%
%ADD55ROUNDEDRECTD55*%
G04:AMPARAMS|DCode=56|XSize=3.292mm|YSize=1.692mm|CornerRadius=0.269mm|HoleSize=0mm|Usage=FLASHONLY|Rotation=90.000|XOffset=0mm|YOffset=0mm|HoleType=Round|Shape=RoundedRectangle|*
%AMROUNDEDRECTD56*
21,1,3.292,1.155,0,0,90.0*
21,1,2.755,1.692,0,0,90.0*
1,1,0.537,0.578,1.378*
1,1,0.537,0.578,-1.378*
1,1,0.537,-0.578,-1.378*
1,1,0.537,-0.578,1.378*
%
%ADD56ROUNDEDRECTD56*%
G04:AMPARAMS|DCode=57|XSize=0.954mm|YSize=1.657mm|CornerRadius=0.176mm|HoleSize=0mm|Usage=FLASHONLY|Rotation=0.000|XOffset=0mm|YOffset=0mm|HoleType=Round|Shape=RoundedRectangle|*
%AMROUNDEDRECTD57*
21,1,0.954,1.305,0,0,0.0*
21,1,0.602,1.657,0,0,0.0*
1,1,0.353,0.301,-0.652*
1,1,0.353,-0.301,-0.652*
1,1,0.353,-0.301,0.652*
1,1,0.353,0.301,0.652*
%
%ADD57ROUNDEDRECTD57*%
G04:AMPARAMS|DCode=58|XSize=2.765mm|YSize=3.654mm|CornerRadius=0.403mm|HoleSize=0mm|Usage=FLASHONLY|Rotation=270.000|XOffset=0mm|YOffset=0mm|HoleType=Round|Shape=RoundedRectangle|*
%AMROUNDEDRECTD58*
21,1,2.765,2.849,0,0,270.0*
21,1,1.960,3.654,0,0,270.0*
1,1,0.806,-1.424,-0.980*
1,1,0.806,-1.424,0.980*
1,1,0.806,1.424,0.980*
1,1,0.806,1.424,-0.980*
%
%ADD58ROUNDEDRECTD58*%
G04:AMPARAMS|DCode=59|XSize=1.152mm|YSize=1.552mm|CornerRadius=0.201mm|HoleSize=0mm|Usage=FLASHONLY|Rotation=270.000|XOffset=0mm|YOffset=0mm|HoleType=Round|Shape=RoundedRectangle|*
%AMROUNDEDRECTD59*
21,1,1.152,1.150,0,0,270.0*
21,1,0.750,1.552,0,0,270.0*
1,1,0.402,-0.575,-0.375*
1,1,0.402,-0.575,0.375*
1,1,0.402,0.575,0.375*
1,1,0.402,0.575,-0.375*
%
%ADD59ROUNDEDRECTD59*%
G04:AMPARAMS|DCode=60|XSize=1.452mm|YSize=3.652mm|CornerRadius=0.239mm|HoleSize=0mm|Usage=FLASHONLY|Rotation=0.000|XOffset=0mm|YOffset=0mm|HoleType=Round|Shape=RoundedRectangle|*
%AMROUNDEDRECTD60*
21,1,1.452,3.175,0,0,0.0*
21,1,0.975,3.652,0,0,0.0*
1,1,0.477,0.488,-1.588*
1,1,0.477,-0.488,-1.588*
1,1,0.477,-0.488,1.588*
1,1,0.477,0.488,1.588*
%
%ADD60ROUNDEDRECTD60*%
G04:AMPARAMS|DCode=61|XSize=2.895mm|YSize=2.311mm|CornerRadius=0.346mm|HoleSize=0mm|Usage=FLASHONLY|Rotation=270.000|XOffset=0mm|YOffset=0mm|HoleType=Round|Shape=RoundedRectangle|*
%AMROUNDEDRECTD61*
21,1,2.895,1.619,0,0,270.0*
21,1,2.203,2.311,0,0,270.0*
1,1,0.692,-0.810,-1.102*
1,1,0.692,-0.810,1.102*
1,1,0.692,0.810,1.102*
1,1,0.692,0.810,-1.102*
%
%ADD61ROUNDEDRECTD61*%
%ADD62C,2.500*%
%ADD63C,3.468*%
%ADD64C,1.580*%
%ADD65R,1.580X1.580*%
%ADD66C,1.752*%
%ADD67R,1.752X1.752*%
%ADD68C,1.652*%
%ADD69C,2.552*%
%ADD70R,2.552X2.552*%
%ADD71C,0.152*%
D39*
X-22773Y-9875D02*
D03*
Y-12925D02*
D03*
Y-15272D02*
D03*
Y-18322D02*
D03*
X21100Y575D02*
D03*
Y3625D02*
D03*
X10011Y-12872D02*
D03*
Y-15922D02*
D03*
X6927Y-12872D02*
D03*
Y-15922D02*
D03*
X-19699Y-18322D02*
D03*
Y-15272D02*
D03*
X-16624Y-18322D02*
D03*
Y-15272D02*
D03*
X-42987Y-8408D02*
D03*
Y-11458D02*
D03*
X-42098Y-24793D02*
D03*
Y-27843D02*
D03*
D40*
X-10692Y-14387D02*
D03*
X-8692D02*
D03*
X-6692D02*
D03*
X-4692D02*
D03*
X-2692D02*
D03*
X-692D02*
D03*
D41*
X-13192Y-29887D02*
D03*
Y-27887D02*
D03*
Y-25887D02*
D03*
Y-23887D02*
D03*
Y-21887D02*
D03*
Y-19887D02*
D03*
Y-17887D02*
D03*
Y-15887D02*
D03*
X1808D02*
D03*
Y-17887D02*
D03*
Y-19887D02*
D03*
Y-21887D02*
D03*
Y-23887D02*
D03*
Y-25887D02*
D03*
Y-27887D02*
D03*
Y-29887D02*
D03*
D42*
X35791Y-14897D02*
D03*
Y-14397D02*
D03*
Y-13897D02*
D03*
Y-13397D02*
D03*
Y-12897D02*
D03*
Y-12397D02*
D03*
Y-11897D02*
D03*
Y-11397D02*
D03*
Y-10897D02*
D03*
Y-10397D02*
D03*
Y-9897D02*
D03*
Y-9397D02*
D03*
X27291D02*
D03*
Y-9897D02*
D03*
Y-10397D02*
D03*
Y-10897D02*
D03*
Y-11397D02*
D03*
Y-11897D02*
D03*
Y-12397D02*
D03*
Y-12897D02*
D03*
Y-13397D02*
D03*
Y-13897D02*
D03*
Y-14397D02*
D03*
Y-14897D02*
D03*
D43*
X34291Y-7897D02*
D03*
X33791D02*
D03*
X33291D02*
D03*
X32791D02*
D03*
X32291D02*
D03*
X31791D02*
D03*
X31291D02*
D03*
X30791D02*
D03*
X30291D02*
D03*
X29791D02*
D03*
X29291D02*
D03*
X28791D02*
D03*
Y-16397D02*
D03*
X29291D02*
D03*
X29791D02*
D03*
X30291D02*
D03*
X30791D02*
D03*
X31291D02*
D03*
X31791D02*
D03*
X32291D02*
D03*
X32791D02*
D03*
X33291D02*
D03*
X33791D02*
D03*
X34291D02*
D03*
D44*
X21498Y-20737D02*
D03*
X19898D02*
D03*
Y-22577D02*
D03*
X21498D02*
D03*
X18950Y-12600D02*
D03*
X17350D02*
D03*
X43802Y7644D02*
D03*
X42202D02*
D03*
X47149Y3600D02*
D03*
X45549D02*
D03*
X17350Y-10761D02*
D03*
X18950D02*
D03*
X-3499Y-12197D02*
D03*
X-1899D02*
D03*
X-9511D02*
D03*
X-7911D02*
D03*
X-12903D02*
D03*
X-11303D02*
D03*
X-65D02*
D03*
X1535D02*
D03*
X-44860Y-21147D02*
D03*
X-43260D02*
D03*
X-29248Y-6263D02*
D03*
X-27648D02*
D03*
X-32614D02*
D03*
X-31014D02*
D03*
X36353Y20666D02*
D03*
X37953D02*
D03*
X25302Y7644D02*
D03*
X23702D02*
D03*
X34588D02*
D03*
X32988D02*
D03*
X-38425Y-10008D02*
D03*
X-36825D02*
D03*
X-38425Y-8100D02*
D03*
X-36825D02*
D03*
D45*
X12703Y-21660D02*
D03*
X15003Y-22610D02*
D03*
Y-21660D02*
D03*
Y-20710D02*
D03*
X12703D02*
D03*
Y-22610D02*
D03*
X38999Y-5377D02*
D03*
X41299Y-7277D02*
D03*
Y-5377D02*
D03*
X38999Y-7277D02*
D03*
Y-6327D02*
D03*
X41299D02*
D03*
D46*
X29900Y-19180D02*
D03*
X28096D02*
D03*
X35308Y-5455D02*
D03*
X33450D02*
D03*
X31525Y-23436D02*
D03*
X33325D02*
D03*
X25200Y-5455D02*
D03*
X26291Y-19180D02*
D03*
D47*
X42173Y3600D02*
D03*
X43773D02*
D03*
X35878Y-18405D02*
D03*
X34278D02*
D03*
X27204Y-5889D02*
D03*
X28804D02*
D03*
X30650Y375D02*
D03*
X32250D02*
D03*
X-41452Y-21143D02*
D03*
X-39852D02*
D03*
X-39468Y-24593D02*
D03*
X-37868D02*
D03*
X34527Y20666D02*
D03*
X32927D02*
D03*
X32984Y5734D02*
D03*
X34584D02*
D03*
X42198D02*
D03*
X43798D02*
D03*
X43752Y20666D02*
D03*
X42152D02*
D03*
X25298Y5734D02*
D03*
X23698D02*
D03*
X23652Y20666D02*
D03*
X25252D02*
D03*
D48*
X-36551Y-6353D02*
D03*
Y-4453D02*
D03*
X-38951Y-5403D02*
D03*
X12351Y-5403D02*
D03*
X14751Y-4453D02*
D03*
Y-6353D02*
D03*
X-21451Y-6353D02*
D03*
Y-4453D02*
D03*
X-23851Y-5403D02*
D03*
X-6551Y-6353D02*
D03*
Y-4453D02*
D03*
X-8951Y-5403D02*
D03*
D49*
X22379Y-10890D02*
D03*
Y-12490D02*
D03*
X37774Y-15500D02*
D03*
Y-13900D02*
D03*
X32300Y-19980D02*
D03*
Y-18380D02*
D03*
X18095Y-23797D02*
D03*
Y-22197D02*
D03*
X-19100Y-4603D02*
D03*
Y-6203D02*
D03*
X-4100Y-4600D02*
D03*
Y-6200D02*
D03*
X39600Y-26737D02*
D03*
Y-28337D02*
D03*
X37661Y-26737D02*
D03*
Y-28337D02*
D03*
X-44085Y-15292D02*
D03*
Y-13692D02*
D03*
X23050Y-28377D02*
D03*
Y-26777D02*
D03*
X41550Y-28337D02*
D03*
Y-26737D02*
D03*
X-22636Y-23363D02*
D03*
Y-24963D02*
D03*
X-16156Y-28377D02*
D03*
Y-26777D02*
D03*
X-22636Y-26777D02*
D03*
Y-28377D02*
D03*
X37378Y11175D02*
D03*
Y9575D02*
D03*
X-2200Y-4600D02*
D03*
Y-6200D02*
D03*
X17200Y-6200D02*
D03*
Y-4600D02*
D03*
X25202Y22549D02*
D03*
Y24149D02*
D03*
X45502Y22549D02*
D03*
Y24149D02*
D03*
X46592Y11175D02*
D03*
Y9575D02*
D03*
X19100Y-6200D02*
D03*
Y-4600D02*
D03*
X-17200Y-6200D02*
D03*
Y-4600D02*
D03*
X28092Y9575D02*
D03*
Y11175D02*
D03*
D50*
X38225Y-19006D02*
D03*
X41275D02*
D03*
X7362Y-18700D02*
D03*
X10412D02*
D03*
X33925Y3000D02*
D03*
X30875D02*
D03*
D51*
X37799Y-9310D02*
D03*
Y-10910D02*
D03*
X41734Y-9310D02*
D03*
Y-10910D02*
D03*
Y-15525D02*
D03*
Y-13925D02*
D03*
X25283Y-17084D02*
D03*
Y-15484D02*
D03*
X4450Y-15900D02*
D03*
Y-14300D02*
D03*
X23723Y350D02*
D03*
Y1950D02*
D03*
X-44060Y-17524D02*
D03*
Y-19124D02*
D03*
X-36572Y-15608D02*
D03*
Y-17208D02*
D03*
D52*
X12951Y-2309D02*
D03*
X16051D02*
D03*
X-38356Y-2309D02*
D03*
X-35256D02*
D03*
X-20176D02*
D03*
X-23276D02*
D03*
X-5256D02*
D03*
X-8356D02*
D03*
D53*
X26057Y2096D02*
D03*
Y1146D02*
D03*
Y196D02*
D03*
X28807D02*
D03*
Y2096D02*
D03*
D54*
X-45957Y-24581D02*
D03*
Y-28341D02*
D03*
X-25866Y-24581D02*
D03*
Y-28341D02*
D03*
X26251Y-24581D02*
D03*
Y-28341D02*
D03*
X44851Y-24581D02*
D03*
Y-28341D02*
D03*
X-19387Y-24581D02*
D03*
Y-28341D02*
D03*
X38264Y24370D02*
D03*
Y28130D02*
D03*
D55*
X-26914Y-12683D02*
D03*
X-33314D02*
D03*
D56*
X-35274Y-21363D02*
D03*
X-28624D02*
D03*
D57*
X-38411Y-13670D02*
D03*
X-39681D02*
D03*
X-40951D02*
D03*
X-42221D02*
D03*
X-38411Y-19120D02*
D03*
X-39681D02*
D03*
X-40951D02*
D03*
X-42221D02*
D03*
D58*
X-40316Y-16395D02*
D03*
D59*
X-39293Y-26343D02*
D03*
Y-28093D02*
D03*
D60*
X23207Y10551D02*
D03*
X25747D02*
D03*
X23207Y17776D02*
D03*
X25747D02*
D03*
X44247D02*
D03*
X41707D02*
D03*
X44247Y10551D02*
D03*
X41707D02*
D03*
X32457D02*
D03*
X34997D02*
D03*
X32457Y17776D02*
D03*
X34997D02*
D03*
D61*
X25279Y27226D02*
D03*
X21519D02*
D03*
X45579D02*
D03*
X41819D02*
D03*
X6456Y-3109D02*
D03*
X10216D02*
D03*
X-44845Y-3109D02*
D03*
X-41085D02*
D03*
X-26085D02*
D03*
X-29845D02*
D03*
X-11085D02*
D03*
X-14845D02*
D03*
D62*
X8151Y2286D02*
D03*
X15651D02*
D03*
X8151Y22586D02*
D03*
X15651Y19086D02*
D03*
Y26086D02*
D03*
X-5651Y26086D02*
D03*
Y19086D02*
D03*
X-13151Y22586D02*
D03*
X-5651Y2286D02*
D03*
X-13151D02*
D03*
X-28151D02*
D03*
X-20651D02*
D03*
X-28151Y22586D02*
D03*
X-20651Y19086D02*
D03*
Y26086D02*
D03*
X-35651D02*
D03*
Y19086D02*
D03*
X-43151Y22586D02*
D03*
X-35651Y2286D02*
D03*
X-43151D02*
D03*
D63*
X16925Y-30165D02*
D03*
X4885D02*
D03*
D64*
X12155Y-27455D02*
D03*
X9655D02*
D03*
Y-25455D02*
D03*
D65*
X12155D02*
D03*
D66*
X33780Y-2742D02*
D03*
X36320D02*
D03*
X38860D02*
D03*
X41400D02*
D03*
X43940D02*
D03*
X46487Y1068D02*
D03*
D67*
X46480Y-2742D02*
D03*
X43947Y1068D02*
D03*
D68*
X45413Y-14587D02*
D03*
Y-9707D02*
D03*
D69*
X46251Y-35300D02*
D03*
X41251D02*
D03*
X-20651Y-35300D02*
D03*
X26251Y-35300D02*
D03*
X31251D02*
D03*
X-30651Y-35300D02*
D03*
X-40651D02*
D03*
X5651Y35300D02*
D03*
X10651D02*
D03*
X40651Y35300D02*
D03*
X-45651D02*
D03*
X-40651D02*
D03*
X30651D02*
D03*
X20651D02*
D03*
X-30651D02*
D03*
X-25651D02*
D03*
X-10651D02*
D03*
X-15651D02*
D03*
D70*
X36251Y-35300D02*
D03*
X-25651Y-35300D02*
D03*
X21251Y-35300D02*
D03*
X-35651Y-35300D02*
D03*
X-45651D02*
D03*
X15651Y35300D02*
D03*
X45651Y35300D02*
D03*
X-35651D02*
D03*
X35651D02*
D03*
X25651D02*
D03*
X-20651D02*
D03*
X-5651D02*
D03*
D71*
X32500Y-27500D02*
D03*
X-32500D02*
D03*
X32500Y27500D02*
D03*
M02*
