M48
;Layer_Color=9474304
;FILE_FORMAT=2:5
INCH,LZ
;TYPE=PLATED
T1F00S00C0.01000
T3F00S00C0.01575
T4F00S00C0.02500
T5F00S00C0.03150
T6F00S00C0.03543
T7F00S00C0.04016
T8F00S00C0.04331
T9F00S00C0.04724
T10F00S00C0.06000
T11F00S00C0.06300
;TYPE=NON_PLATED
T12F00S00C0.09000
T13F00S00C0.12795
T14F00S00C0.17000
%
T01
X-02487Y-02464
X-0243842Y-02504
X-02381Y-0253
X-0232Y-02545
X-0226107
X-0220214
X-02527Y-0241542
X-02553Y-02358
X-02568Y-02297
Y-02226
X-021Y-023
Y-0245
X-0208429Y-02545
X-0214321
X-0202536
X-0196643
X-019075
X-0184857
X-0178964
X-0173071
X-0167178
X-0161286
X-0155393
X-01495
Y-0248357
Y-0242214
Y-0236071
Y-0229929
Y-0223786
X-0165Y-023
X-018
X-0195
Y-0245
X-018
X-0165
X-01045Y-0242214
Y-0236071
Y-0229928
Y-0223786
X-0095Y-023
X-008
X-0065
Y-0245
X-00627Y-02545
X-0068672
X-0074643
X-0080614
X-0086586
X-0092557
X-0098529
X-01045
X-01045Y-0248357
X-0095Y-0245
X-008
X-005
X-0042Y-02465
X-0044786Y-02545
X-0050757
X-0056729
X-0038814
X-0032843
X-0026871
X-00209
X-0014929
X-0008957
X-0002986
X0002986
X0008957
X0014928
X00209
X0026871
X0032843
X0038814
X0044785
X0050757
X0056728
X00627
X0068671
X0074643
X0080614
X0086585
X0092557
X009Y-0245
X0075
X006
X0045Y-0236
Y-02325
X-005Y-023
X01045Y-0229928
Y-0236071
Y-0242214
Y-0248357
X01045Y-02545
X0098528
X01045Y-0223786
X01495Y-0223786
Y-0229929
Y-0236071
Y-0242214
Y-0248357
Y-02545
X0155393
X0161286
X0167178
X0173071
X0178964
X0184857
X019075
X0196643
X0202536
X0208429
X0214321
X0220214
X0226107
X0232
X02381Y-0253
X0243842Y-02504
X02487Y-02464
X021Y-024
X0195
X018
X0165
Y-0225
X018
X0195
X021
X02568Y-02226
Y-02297
X02553Y-02358
X02527Y-0241542
X02511Y-02155
X02568
Y-0096
Y-0089969
Y-0083937
Y-0077906
Y-0071874
Y-0065843
X02507Y-0096
X02446
X02385
Y-0114
Y-01195
Y-0125
Y-01305
X0234Y-01305
Y-0136572
Y-0142643
Y-0166929
Y-0173
Y-0179071
Y-0185143
Y-0191214
Y-0197286
Y-0203357
Y-0209429
Y-02155
X02397
X02454
X0225Y-02105
X021
X0195Y-021
X018
X0165
Y-0195
X015
X0135
Y-018
X0114Y-0177
Y-02
X012
X0108
X01011
X01045Y-02115
X01045Y-0217643
X0110929Y-02115
X0117357
X0123786
X0130214
X0136643
X0143071Y-02115
X01495
X01495Y-0217643
X018Y-0195
X0195
X021
X0225
X0218749Y-01799
X01862
X01802
X0174
X0165Y-0147
X0151Y-0154
Y-016
X0144Y-01481
Y-0142
X01515Y-0136
Y-013
X0161Y-01115
X0181Y-0113
Y-0118
Y-0123
X0190308Y-0106832
X0195048
X0173013Y-0102
X01757Y-009
Y-0083
X01856Y-0079
X01985Y-008
X02045
X02105
X02165
X0232969
X023Y-0075
X0245
X009876Y-0109
X006076
X0051Y-0098
X00435Y-0094
Y-0091
Y-00855
X0046Y-0084
X00485Y-0082
X0051Y-00785
Y-0074
X0057Y-0073417
X0061
X0055Y-00855
Y-00885
X0034386Y-0096
Y-01
X00245
X00215
X002276Y-0109
X0020606Y-009
X0025
X00345Y-0079
X0037Y-00725
Y-00665
Y-00635
X00235Y-0064
X00085Y-0065
X001Y-0068
X00085Y-00705
X0004
X-001Y-007
X-002Y-0069
X-0019Y-0075124
X-0016795Y-008
X-0012858
X-0010764Y-0096
Y-01
X0000795
Y-0096
X0002Y-009
X00135Y-00805
X-0033Y-0080182
X-0030509Y-0077
X-0038Y-00765
X-00365Y-0074
X-0034Y-00725
X-0031Y-0069
X-00295Y-00665
X-0027Y-0065
X-00465Y-00645
X-0049Y-0067
Y-00865
X-00435Y-009
X-004448Y-0096
Y-01
X-0035Y-01015
X-0031
Y-00945
X-0029509Y-00905
X-0027Y-00895
Y-0097
X-001524Y-0109
X-005324
X-00535Y-0096
X-0041Y-00795
X-0010051Y-0166974
X-0012Y-01705
X-00005Y-01675
X-0001Y-0159
X0002
X0004118Y-0192283
X0014Y-0201
X0024087Y-0197
Y-0189067
X0024Y-0215
X0045Y-02175
X0087Y-0218
X0090051
X0091Y-0196
Y-019
X0046Y-01665
Y-01585
X005Y-01625
Y-01545
Y-01465
X0046Y-01425
Y-01505
X0048Y-0135
X0046Y-0133
X005Y-0137
X-0026087Y-0189
X-0058Y-01885
X-00615Y-0185
X-0012Y-0215
X-0063988Y-01975
X-0077768
X-00785Y-01885
X-0079736Y-0184
X-0083673Y-01815
X-0075799
X-007
X-0065
X-00775Y-0154
X-0084Y-0156
X-00905Y-0154
X-0097Y-0156
X-01015Y-0154
X-0106Y-0156
X-01125Y-0154
X-0117Y-0156
X-01215Y-0154
X-0126Y-0156
X-01305Y-0154
X-0135Y-0156
X-014Y-012
X-0155
X-017
X-0185
X-0193Y-0124
X-0195Y-0136
X-0198
X-0202
X-0205
X-0209
X-0212
X-0211Y-0124
X-0212Y-0151
X-0205
X-0198
X-0191
Y-0136
X-0188
X-0185Y-0105
X-0194803Y-0101594
Y-0092539
X-021Y-0075
X-017Y-0105
X-0155
X-014
X-009124Y-0109
X-00795Y-009
X-0065
Y-0073386
X-0069
X-0085642Y-02125
X-0093516Y-021
X-0097453Y-02075
X-0095Y-0215
X-01045Y-0217643
X-01045Y-02115
X-0110929
X-0117357
X-0123786
X-0130214
X-0136643
X-0143071Y-02115
X-01495
X-01495Y-0217643
X-0165Y-0215
X-018
X-0195
X-021
Y-02
Y-0185
X-0164Y-0188
X-0163Y-0190685
X-0125021Y-0189622
X-0123043Y-02
X-01185
X-0114
X-0111Y-02025
X-0107295Y-0205
X-0225Y-02
X-024
Y-0185
Y-017
Y-0155
X-0237Y-0151
X-023
X-0225Y-0155
Y-017
X-02568Y-0168324
Y-0162293
Y-0156263
Y-0150232
Y-0144201
Y-0138171
Y-013214
Y-0126109
Y-0120079
Y-0114048
Y-0108018
Y-0101987
Y-0095956
Y-0089925
Y-0083895
Y-0077864
Y-0071833
Y-0065803
X-024Y-0075
X-0225
X-0245197Y-009313
Y-0103327
X-0247Y-0124
X-0244Y-0136
X-0241
X-0237
X-0234
X-023
X-0227
X-0229Y-0124
X-0244Y-0151
X-02568Y-0174355
Y-0180385
Y-0186416
Y-0192447
Y-0198477
Y-0204508
Y-0210539
Y-0216569
X-024Y-0215
X-0225
Y-006
X-024
Y-0045
X-0225
Y-003
Y-0015
X-024
Y-003
X-02568Y-0029619
Y-0023588
Y-0017558
Y-0011527
Y-0005496
Y0000534
Y0006565
Y0012596
Y0018626
Y0024657
Y0030688
Y0036718
Y0042749
Y004878
Y005481
Y0060841
Y0066872
Y0072902
Y0078933
Y0084964
Y0090994
X-0247Y0077
X-024163Y0074
Y0067
X-0247Y00625
X-025
X-0235Y0057
X-0242Y0043
X-0221Y0028
X-0219Y0003
Y-0003
X-02568Y-0035649
Y-004168
Y-0047711
Y-0053742
Y-0059772
X-021Y-006
Y-0045
Y-003
Y-0015
X-02Y-0001
X-0195Y00065
X-0193Y0009
X-0217315Y0019
X-0213Y0055
X-0194815Y005126
X-0183Y0049
X-0091Y0036
Y0033
Y003
X-0068Y0016
Y0013
X-0065Y0012
Y0008
X-0069
X-0068Y00005
X-00635
X-0065Y-0024299
X-0069
Y-0031732
X-0065
X-007Y-0059
X-0083Y-0061
Y-0013
X-0062Y-00165
X-0059
Y-0024173
X-0062099Y-002811
X-006Y-00335
Y-0038
X-0059Y-0045827
X-00615Y-0049764
X-0045Y-00465
X-0047Y-00445
X-0049Y-00425
X-00455Y-004
Y-0037
Y-0034
X-0046Y-00275
X-0043Y-0027
Y-002
Y-0017
X-0046
X-0049169Y-0022205
X-0049Y-002811
X-00305Y-0034
Y-0037
Y-004
X-0029Y-0046
X-0024Y-0049
X-0036576Y-0054701
X-004Y-0058
X-00465
X-0043264Y-006125
X-00075Y-0054
X-00005
X00135Y-0055
X0011Y-0061
X002
X0037Y-00605
Y-0052
X0034
X004
X0051Y-00535
Y-004
Y-0037
X0054Y-00315
X0057
X006
X0056Y-0026142
X0054Y-0019
X0057Y-0004488
X0061
Y0003386
X0057
X0058Y0016
X0062Y002
X005Y0016
X00415Y00195
X00341Y00225
Y0026
Y003
X00275Y002
X00245
X0013669
X0017169Y0024
X0008795Y0026
Y003
X-0003Y0028
X-00005Y0024
X0002Y002
X-0008921Y0019976
X-0012Y0020055
X-0018764Y0019976
X-0024Y0020055
X-0029Y002
X-0038449Y0019976
X-0040417Y0026
Y003
X-0026638Y00311
X-001089Y003
Y0026
X-0008921Y00095
X-0004984
Y00055
X-0012858Y00095
X-0016795
X-0020732
X-0024669
X-00265Y00055
X-00295
X-00325
X-00355Y00095
X-0041Y0008
X-00395Y00055
X-0042Y0
X-0046
X-0044Y0002
X-0059Y00005
X-0062Y00095
X-0056Y0022
X-00535Y00195
X-00305Y-000555
X-00265Y-0004
X-00225Y-00055
X-00175Y-0008
X-00225Y-00135
X-00265Y-0015
X-00305Y-00135
X-00345Y-0015
X-0004Y-0032
Y-0038
X00225Y-00455
X00265Y-00435
X00305Y-00415
X00345Y-00395
X00385Y-00375
Y-00315
X004Y-0029
X00355Y-0019
X00325Y-00215
X00295Y-0024
X00255Y-0027
X00385Y-0010394
X0041Y-0008
X0036854Y0005354
X00405Y0009
X00315Y00095
X00255
X0016669Y00035
X0015Y-0001
X0004795Y00095
X0014272Y00815
X-00209
X-0056728
X00501
X0068Y-0023272
X0084Y-0024
Y-0018
X0061Y-0039953
X0057
Y-0044827
X0061
X0079Y-0059047
Y-0062047
X0094Y-0045
Y0007
Y0059
X02Y005
X0202Y0046
X0215Y005
Y00405
X0218Y00355
X0221Y00305
X0227299Y00255
Y00405
X023Y005
X024Y0046
X0245Y005
Y0065
X023
X0215
X023Y008
X0245
X024Y0015
Y-0001
X0227299Y-00065
X0215
X0218Y-00115
X0221Y-00165
X0227299Y-0021443
X024Y-0032
X0245Y-0045
X023
Y-006
X0215
X02
X0202Y-0032
X0195
X0191Y-00219
X0202Y-0001
Y0015
X0195
X0191Y00251
X0245Y-006
X02568Y-0059811
Y-005378
Y-0047748
Y-0041717
Y-0035685
Y-0029654
Y-0023622
Y-0017591
Y-0011559
Y-0005528
Y0000504
Y0006535
Y0012567
Y0018598
Y002463
Y0030661
Y0036693
Y0042724
Y0048755
Y0054787
Y0060818
Y006685
Y0072881
Y0078913
Y0084944
Y0090976
Y0097007
Y0103039
Y010907
Y0115102
Y0121133
Y0127165
Y0133196
Y0139228
Y0145259
Y0151291
Y0157322
Y0163354
Y0169385
Y0175417
Y0181448
Y018748
Y0193511
Y0199542
Y0205574
Y0211606
Y0217637
Y0223668
Y02297
X02553Y02358
X02527Y0241542
X02487Y02464
X0245Y0215
Y02
Y0185
Y017
X023
Y0155
X0245
Y014
Y0125
X023
Y011
X0245
Y0095
X023
X0215Y0113
Y0117
X0202
X0196
X0199Y01135
X0205
X0179449Y0117
Y0123
X01745Y0133
X0186Y01365
Y01415
X0192Y0144
X0192047Y0132
X02015Y01525
X0198346Y0156086
X0195197Y01595
X0192047Y0163
X0188898Y0168
X01845Y01595
X0171
X016685Y0168
X0160551
X0156
X0151102
X01465
X0135354
X0129
Y0154
X01255Y0151
X0122Y0148
X01325Y0157
X0133Y0182
X01275
X01385
X0149Y0183
Y0187
X0154252Y0177
X017
X0168Y0183
Y0187
X017Y02
X0185
Y0185
X0182598Y0177
X0204646
X0210945
X0215Y0185
X023
Y02
Y0215
X0215
X02
Y023
X0215
Y0245
X02
X0185
X0175Y024225
Y0236125
X0175Y023
X0168846
X0162692
X0156538
X0150385
X0144231
X0138077
X0131923
X0125769
X0119615
X0113461
X0107308
X0101154
X0095
Y0236125
Y024225
Y0248375
Y0215
X011
Y02
X0095
X01255
X014
X0155
Y0215
X017
X0185
Y023
X0175Y0248375
X014Y0215
X01255
X0132205Y0123
X0138504
X0144803
X014Y0117
Y0113
X0124
Y0117
X0158
Y0113
X0166
Y0117
X0163701Y0123
X01645Y01405
X0148Y01045
X01445Y0101
X0094Y0111
X023Y014
X0207809Y0168
X02Y0185
X0215Y02
X008
X0065
X005
X0035
Y0215
X005
X0065
X008
Y023
X0065
X005
X0035
X002
Y0215
X0005Y02
X-0003Y0189
X-0009
X-0015
X-0021
X-0027
X-0033
X-0041342Y0184
X-0044Y0196
X-004285Y020885
Y021515
X-004915
Y020885
X-0046Y0212
X-0045016Y02275
X-00385Y02235
X-0033Y02275
X-0027Y0222
X-0021
X-0015Y0222041
Y02275
X-001Y023
X0005
Y0245
X002
X-001
X-0015Y0241
X-0021
X-0027
X-0033
X-0039
X-0045
X-0055Y0245
X-00599Y02415
X-0055Y0234
Y0229
Y02245
X-003Y0245
X-0011Y02119
X-00599Y01825
X-0016Y0107
X0055
X-0098898Y012
Y013
X-0105
X-0098898Y01598
Y01698
X-0105
X-0072Y0171
X-0069
Y0174
X-007065Y0187
Y0193
X-00705Y0199
X-0070601Y0205051
X-009Y0205
X-0085Y0215
Y023
X-0095
Y0236125
Y024225
Y0248375
X-0085Y0245
X-007
X-00705Y0237
Y0231
Y0225
X-0101154Y023
X-0107308
X-0113461
X-0119615
X-0125769
X-0131923
X-0138077
X-0144231
X-0150385
X-0156538
X-0162692
X-0168846
X-0175
X-0175Y0236125
Y024225
Y0248375
X-017Y0215
X-0145
X-0115
Y0205
X-0155Y019
X-0172Y0188949
X-0175
X-0186Y018
X-0197
X-02085Y0183
X-02115
X-0204Y0169051
Y0162949
Y0158
X-0195Y0155
X-01805Y0158438
Y0149438
Y0142438
Y0133438
X-0195Y0137
Y0121
Y011
X-0185654Y0103
X-01806
X-01757
X-021Y0235
X-022Y0245
X-02487Y02464
X-02527Y0241542
X-02553Y02358
X-02568Y0229699
Y0223669
Y0217638
Y0211608
Y0205577
Y0199546
Y0193516
Y0187485
Y0181454
Y0175424
Y0169393
Y0163362
Y0157332
Y0151301
Y014527
Y013924
Y0133209
Y0127178
Y0121148
Y0115117
Y0109086
Y0103056
Y0097025
X-0235Y0095
X-0235136Y0115
Y012
Y013
X-0235Y014
Y0155
X-0245Y0165
Y02
Y0215
X-023
X-0229Y0188949
X-0226
X-022Y018
X-0219333Y02545
X-0225667
X-0232
X-02381Y0253
X-0243842Y02504
X-0213Y02545
X-0206667
X-0200333
X-0194
X-0187667
X-0181333
X-0175
X-0095
X-0089062
X-0083125
X-0077188
X-007125
X-0065312
X-0059375
X-0053438
X-00475
X-0041563
X-0035625
X-0029688
X-002375
X-0017812
X-0011875
X-0005937
X0
X0005937
X0011875
X0017812
X002375
X0029688
X0035625
X0041563
X00475
X0053438
X0059375
X0065312
X007125
X0077188
X0083125
X0089062
X0095
X0175
X0181333
X0187667
X0194
X0200333
X0206667
X0213
X0219333
X0225667
X0232
X02381Y0253
X0243842Y02504
T03
X-0220866Y0063882
Y0069
Y0074118
X-0216929Y0071559
Y0066441
T04
X0109679Y-0117994
X01425Y-0122
X0151Y-01045
X0180828Y-0108
Y-0139667
X0194Y-013
X0195048Y-0152
X02058Y-0142
Y-0118
X0218Y-013
X0232969Y-0152
X0237709Y-0108
X0071679Y-0117994
X0033679
X-0004321
X-0042321
X-0026Y-0215
X001
X0077724Y-0218
X0077Y-0085
X-00875Y-007
X-00925
X-0117Y-0097
X-0123
X-0080321Y-0117994
X-0145Y-0158
X-0157
X-0163Y-0175555
X-0185
Y-0182445
X-0174Y-0196
X-0182Y-0209
X-0136429Y-0205
X-0119958
X-0214Y-0102
X-0226
X-0228022Y-0111978
X-0222149Y-01209
Y-01271
X-0223996Y-00045
X-0229
X-0226Y00165
X-0238
X-0244Y0005
Y0028
X-012Y0029
X-0115
X-011
Y0034
X-0115
X-012
X-0104276Y004226
X-0091272Y0053
X-0082
Y0068
Y0089
X-0097Y00871
Y00809
X-0104276Y00881
X-00675Y00605
Y00455
X-0082Y0038
X-00875Y002
X-00925
X-0117Y-0007
X-0123
X-0114Y-0037
X-0078
X-00625Y00455
X-00575
Y00605
X-00625
X-0049Y0082
X-0043
X-0011Y0089
Y0068
Y0053
Y0038
X00035Y00455
X00085
X00135
Y00605
X00085
X00035
X0022Y0082
X0028
X0077Y0071
X0076Y0053
X0081
X0077Y0019
X0076Y0001
X0081
X0077Y-0033
X0076Y-0051
X0081
X0156Y0104
X0162
X0081Y0105
X0076
X0028Y0102
X0022
X-0011Y0103
X-0043Y0102
X-0049
X-005Y014
Y0146
Y0152
Y0158
Y0164
X-0044
Y0158
Y0152
Y0146
Y014
X-0082Y0103
X-0099Y009778
X-0138799Y01334
X-0145
X-0144Y02025
X-013Y01955
X-0117
X-0106Y019
Y0176
X-0094Y018
Y0186
X-0176Y0201276
X-0192
X-0208
X-0183Y0246756
T05
X0050039Y-01924
X0079961
T06
X-01637Y01234
Y01334
Y01434
Y01534
X-01537Y01584
Y01484
Y01384
Y01284
T07
X-01125Y0116
Y0126
Y01558
Y01658
T08
X0012Y0142
Y0152
Y0162
T09
X0018961Y0118244
X0039039Y0123756
T10
X-0245Y009
Y0105
Y012
Y0135
Y015
T11
X-0144Y01096
Y01722
T12
X02372Y-02349
X-02372Y02349
T13
X-01287Y01184
Y01634
T14
X-02372Y-02349
X02372Y02349
M30
