M48
;Layer_Color=9474304
;FILE_FORMAT=4:3
METRIC,LZ
;TYPE=PLATED
T1F00S00C0.300
T2F00S00C0.500
T3F00S00C0.700
T4F00S00C0.920
T5F00S00C1.000
T6F00S00C1.320
T7F00S00C1.400
T8F00S00C2.300
;TYPE=NON_PLATED
T9F00S00C5.000
%
T01
X0025283Y-0018434
X0032304Y-0021248
X0034278Y-0019755
X0035878
Y-0017055
X0037774Y-001685
X0041734Y-0016875
X0041285Y-0020985
X0038225Y-0020975
X0037645Y-0025383
X0039583
X0041517
X0023017Y-0025433
X0018095Y-0025027
X001379Y-0020166
X0012956Y-001866
X0012056
Y-0017727
X0012956
Y-0016793
X0012056
X-0011614Y-0016126
X-0016123Y-0029721
X-0022603Y-0029721
X-0039048Y-0022502
X-0043138Y-0020077
X-0042791Y-0017545
Y-0016395
X-00455Y-001635
Y-00175
Y-00152
X-0042791Y-0015245
X-0039642Y-0008089
X-0036571Y-0003569
X-00339Y-00023
X-0031504Y-0003113
X-0029845Y-0000959
X-0030129Y-0007551
X-0020383Y-0004449
X-0019097Y-0003449
X-001882Y-00023
X-00166Y-0003
X-00167Y-00131
Y-0014
X-0017633
Y-00131
X-0018567
Y-0014
X-00195
Y-00131
X-0044845Y-0005259
Y-0000959
X-0014845
X-00039Y-00023
X-0004113Y-0003433
X-0005483Y-0004449
X-00045Y-00113
X-0006977
X-0012423Y-0013576
X0002903Y-0012197
X00046Y-00031
X0006456Y-0000959
X0017406Y-00023
X0017211Y-0003382
X001583Y-0004432
X002011Y-0001773
Y-0000873
X0021043
Y-0001773
X0021976
Y-0000873
X0021681Y0009726
Y0011376
X0020239Y-0010761
X0021Y-00118
X0020239Y-00126
Y-0013585
Y-0014535
X0025282Y-0014363
X0028582Y-0014394
X0031825Y-001315
X0033788Y-0015106
X00344Y-00114
X003447Y-0010417
X0032794Y-0009188
X0030794
X0029794
X0028894
X0028804Y-0004539
X0027213Y-0004548
X00309Y-0004
Y-0003
Y-0002
Y-0001
X00299Y-00015
Y-00025
X0034904Y-0006651
X00378Y-00066
X0036627Y-0008437
X0039071Y-0009316
X0039102Y-0010918
X004175Y-0008114
X00413Y-00046
X0040801Y00036
X004517Y0005734
X004715Y0004972
X0046592Y0012547
X0040181Y0011376
Y0009726
X0037378Y0012555
X0030966Y0011385
Y0009734
X0028092Y0012547
X002667Y0005734
X0035956Y0005742
X0024785Y-0010762
T02
X00253Y-0022667
X0027267Y-0022648
X00439Y-0022667
X0045867Y-0022648
X0005994Y-00187
X-0017342Y-0020147
X-0018526
X-0019711
X-0020895
X-0022079
X-0023263
Y-0021331
X-0024447
Y-0020147
X-0025632
Y-0021331
X-0026816
Y-0020147
X-00273Y-0018963
X-0026116
X-0024932
X-0028484
X-002863Y-0025658
X-0023906Y-0025846
X-0017252Y-0024596
X-0036313Y-0024592
X-0042092Y-0023422
X-004389Y-0023504
X-0047992Y-0024589
X-004298Y-0007037
X-0034217Y-0006263
X-0020325Y-0009875
X0004579Y-0012797
X0003082Y-0014299
X0012359Y-0012797
X00211Y00052
X0023723Y000335
X0027444Y0000695
X003365Y0000375
X0035425Y0003
X0040761Y0024393
X0045438Y0029821
X0025138
T03
X0045413Y-0014587
Y-0009707
T04
X0009655Y-0027455
Y-0025455
X0012155
Y-0027455
T05
X003378Y-0002742
X003632
X003886
X00414
X004394
X004648
X0046487Y0001068
X0043947
T06
X-0043151Y0002286
X-0035651
X-0028151
X-0020651
Y0019086
X-0028151Y0022586
X-0035651Y0019086
X-0043151Y0022586
X-0013151
X-0005651Y0019086
Y0002286
X-0013151
X0008151Y0002286
X0015651
Y0019086
X0008151Y0022586
X0015651Y0026086
X-0005651Y0026086
X-0020651
X-0035651
T07
X0026251Y-00353
X0031251
X0036251Y-00353
X0041251
X0046251
X0021251Y-00353
X-0020651Y-00353
X-0025651
X-0030651
X-0035651
X-0040651
X-0045651
X0025651Y00353
X0030651
X0035651
X0040651
X0045651
X0020651
X0015651Y00353
X0010651
X0005651
X-0005651Y00353
X-0010651
X-0015651
X-0020651
X-0025651
X-0030651
X-0035651
X-0040651
X-0045651
T08
X0004885Y-0030165
X0016925
T09
X00325Y-00275
X-00325
X00325Y00275
M30
